999
FreeCAD v0.21 33771 (Git)
  0
SECTION
  2
HEADER
  9
$ACADVER
  1
AC1014
  9
$ACADMAINTVER
 70
     9
  9
$DWGCODEPAGE
  3
ANSI_1252
  9
$TEXTSTYLE
  7
STANDARD
  9
$DIMSTYLE
  2
STANDARD
  9
$DIMTXSTY
  7
STANDARD
  9
$CMLSTYLE
  2
STANDARD
  9
$LUNITS
 70
2
  9
$INSUNITS
 70
4
  9
$PEXTMAX
 10
50
 20
50
 30
50
  9
$PEXTMIN
 10
0
 20
0
 30
0
  9
$HANDSEED
  5
FFFF
  0
ENDSEC
  0
SECTION
  2
CLASSES
  0
CLASS
  1
ACDBDICTIONARYWDFLT
  2
AcDbDictionaryWithDefault
  3
ObjectDBX Classes
 90
        0
280
     0
281
     0
  0
CLASS
  1
XRECORD
  2
AcDbXrecord
  3
ObjectDBX Classes
 90
        0
280
     0
281
     0
  0
CLASS
  1
LWPOLYLINE
  2
AcDbPolyline
  3
ObjectDBX Classes
 90
        0
280
     0
281
     1
  0
ENDSEC
  0
SECTION
  2
TABLES
  0
TABLE
  2
VPORT
  5
20
330
0
100
AcDbSymbolTable
 70
     1
  0
VPORT
  5
21
330
20
100
AcDbSymbolTableRecord
100
AcDbViewportTableRecord
  2
*ACTIVE
 70
     0
  0
ENDTAB
  0
TABLE
  2
LTYPE
  5
22
330
0
100
AcDbSymbolTable
 70
     1
  0
LTYPE
  5
23
330
21
100
AcDbSymbolTableRecord
100
AcDbLinetypeTableRecord
  2
BYBLOCK
 70
     0
  3

 72
    65
 73
     0
 40
0.0
  0
LTYPE
  5
24
330
21
100
AcDbSymbolTableRecord
100
AcDbLinetypeTableRecord
  2
BYLAYER
 70
     0
  3

 72
    65
 73
     0
 40
0.0
  0
LTYPE
  5
25
330
21
100
AcDbSymbolTableRecord
100
AcDbLinetypeTableRecord
  2
CONTINUOUS
 70
     0
  3
Solid line
 72
    65
 73
     0
 40
0.0
  0
ENDTAB
  0
TABLE
  2
LAYER
  5
BBB
330
0
100
AcDbSymbolTable
 70
2
  0
LAYER
  5
BBC
330
BBB
100
AcDbSymbolTableRecord
100
AcDbLayerTableRecord
  2
0
 70
   0
 62
   7
  6
CONTINUOUS
  0
LAYER
  5
BBD
330
BBB
100
AcDbSymbolTableRecord
100
AcDbLayerTableRecord
  2
View
 70
    0
 62
    7
  6
CONTINUOUS
  0
ENDTAB
  0
TABLE
  2
STYLE
  5
70
330
0
100
AcDbSymbolTable
 70
     2
  0
STYLE
  5
71
330
70
100
AcDbSymbolTableRecord
100
AcDbTextStyleTableRecord
  2
STANDARD
 70
     0
 40
0.0
 41
1.0
 50
0.0
 71
     0
 42
2.5
  3
arial.ttf
  4

  0
STYLE
  5
72
330
70
100
AcDbSymbolTableRecord
100
AcDbTextStyleTableRecord
  2
ANNOTATIVE
 70
     0
 40
0.0
 41
1.0
 50
0.0
 71
     0
 42
2.5
  3
arial.ttf
  4

  0
ENDTAB
  0
TABLE
  2
VIEW
  5
73
330
0
100
AcDbSymbolTable
 70
     0
  0
ENDTAB
  0
TABLE
  2
UCS
  5
74
330
0
100
AcDbSymbolTable
 70
     0
  0
ENDTAB
  0
TABLE
  2
APPID
  5
75
330
0
100
AcDbSymbolTable
 70
     2
  0
APPID
  5
76
330
75
100
AcDbSymbolTableRecord
100
AcDbRegAppTableRecord
  2
ACAD
 70
     0
  0
APPID
  5
77
330
75
100
AcDbSymbolTableRecord
100
AcDbRegAppTableRecord
  2
ACADANNOTATIVE
 70
     0
  0
ENDTAB
  0
TABLE
  2
DIMSTYLE
  5
78
330
0
100
AcDbSymbolTable
 70
     2
  0
DIMSTYLE
105
79
330
78
100
AcDbSymbolTableRecord
100
AcDbDimStyleTableRecord
  2
STANDARD
 70
     0
  3

  4

  5

  6

  7

 40
0.0
 41
2.5
 42
0.625
 43
3.75
 44
1.25
 45
0.0
 46
0.0
 47
0.0
 48
0.0
140
2.5
141
2.5
142
0.0
143
0.03937007874016
144
1.0
145
0.0
146
1.0
147
0.625
 71
     0
 72
     0
 73
     0
 74
     0
 75
     0
 76
     0
 77
     1
 78
     8
170
     0
171
     3
172
     1
173
     0
174
     0
175
     0
176
     0
177
     0
178
     0
270
     2
271
     2
272
     2
273
     2
274
     3
340
71
275
     0
280
     0
281
     0
282
     0
283
     0
284
     8
285
     0
286
     0
287
     3
288
     0
  0
ENDTAB
  0
TABLE
  2
BLOCK_RECORD
  5
A01
330
0
100
AcDbSymbolTable
  70
5
  0
BLOCK_RECORD
  5
A02
330
A01
100
AcDbSymbolTableRecord
100
AcDbBlockTableRecord
  2
*MODEL_SPACE
  0
BLOCK_RECORD
  5
A03
330
A01
100
AcDbSymbolTableRecord
100
AcDbBlockTableRecord
  2
*PAPER_SPACE
  0
ENDTAB
  0
ENDSEC
  0
SECTION
  2
BLOCKS
  0
BLOCK
  5
A04
330
A02
100
AcDbEntity
  8
0
100
AcDbBlockBegin
  2
*MODEL_SPACE
 70
   0
 10
0
 20
0
 30
0
  3
*MODEL_SPACE
  1
 
  0
ENDBLK
  5
A05
330
A02
100
AcDbEntity
  8
0
100
AcDbBlockEnd
  0
BLOCK
  5
A06
330
A03
100
AcDbEntity
 67
1
  8
0
100
AcDbBlockBegin
  2
*PAPER_SPACE
 70
   0
 10
0
 20
0
 30
0
  3
*PAPER_SPACE
  1
 
  0
ENDBLK
  5
A07
330
A03
100
AcDbEntity
 67
    1
  8
0
100
AcDbBlockEnd
  0
ENDSEC
  0
SECTION
  2
ENTITIES
  0
SPLINE
  5
A08
330
A02
100
AcDbEntity
  8
View
100
AcDbSpline
210
0
220
0
230
1
 70
8
 71
2
 72
8
 73
5
 74
0
 40
-0.303954
 40
-0.303954
 40
-0.303954
 40
-0.151977
 40
-0.151977
 40
0
 40
0
 40
0
 10
133.886
 20
141.471
 30
0
 10
134.02
 20
141.34
 30
0
 10
134.093
 20
141.114
 30
0
 10
134.166
 20
140.888
 30
0
 10
134.166
 20
140.492
 30
0
  0
LINE
  5
A09
330
A02
100
AcDbEntity
  8
View
100
AcDbLine
 10
134.166
 20
140.492
 30
0
 11
134.166
 21
139.638
 31
0
  0
LINE
  5
A0A
330
A02
100
AcDbEntity
  8
View
100
AcDbLine
 10
134.166
 20
139.638
 30
0
 11
131.111
 21
139.638
 31
0
  0
LINE
  5
A0B
330
A02
100
AcDbEntity
  8
View
100
AcDbLine
 10
131.111
 20
139.638
 30
0
 11
131.111
 21
140.48
 31
0
  0
SPLINE
  5
A0C
330
A02
100
AcDbEntity
  8
View
100
AcDbSpline
210
0
220
0
230
1
 70
8
 71
2
 72
6
 73
3
 74
0
 40
-0.0605735
 40
-0.0605735
 40
-0.0605735
 40
0
 40
0
 40
0
 10
131.111
 20
140.48
 30
0
 10
131.111
 20
140.949
 30
0
 10
131.194
 20
141.163
 30
0
  0
SPLINE
  5
A0D
330
A02
100
AcDbEntity
  8
View
100
AcDbSpline
210
0
220
0
230
1
 70
8
 71
2
 72
8
 73
5
 74
0
 40
-0.236365
 40
-0.236365
 40
-0.236365
 40
-0.118183
 40
-0.118183
 40
0
 40
0
 40
0
 10
131.194
 20
141.163
 30
0
 10
131.307
 20
141.459
 30
0
 10
131.643
 20
141.664
 30
0
 10
131.98
 20
141.87
 30
0
 10
132.608
 20
141.87
 30
0
  0
SPLINE
  5
A0E
330
A02
100
AcDbEntity
  8
View
100
AcDbSpline
210
0
220
0
230
1
 70
8
 71
3
 72
8
 73
4
 74
0
 40
-0.0972409
 40
-0.0972409
 40
-0.0972409
 40
-0.0972409
 40
0
 40
0
 40
0
 40
0
 10
132.608
 20
141.87
 30
0
 10
133.215
 20
141.872
 30
0
 10
133.633
 20
141.721
 30
0
 10
133.886
 20
141.471
 30
0
  0
LINE
  5
A0F
330
A02
100
AcDbEntity
  8
View
100
AcDbLine
 10
134.639
 20
139.108
 30
0
 11
134.639
 21
140.553
 31
0
  0
SPLINE
  5
A10
330
A02
100
AcDbEntity
  8
View
100
AcDbSpline
210
0
220
0
230
1
 70
8
 71
2
 72
12
 73
9
 74
0
 40
-0.270145
 40
-0.270145
 40
-0.270145
 40
-0.162087
 40
-0.162087
 40
-0.108058
 40
-0.108058
 40
-0.054029
 40
-0.054029
 40
0
 40
0
 40
0
 10
134.639
 20
140.553
 30
0
 10
134.637
 20
141.277
 30
0
 10
134.369
 20
141.672
 30
0
 10
134.236
 20
141.87
 30
0
 10
134.006
 20
142.036
 30
0
 10
133.776
 20
142.203
 30
0
 10
133.424
 20
142.309
 30
0
 10
133.072
 20
142.416
 30
0
 10
132.618
 20
142.416
 30
0
  0
SPLINE
  5
A11
330
A02
100
AcDbEntity
  8
View
100
AcDbSpline
210
0
220
0
230
1
 70
8
 71
3
 72
8
 73
4
 74
0
 40
-0.171404
 40
-0.171404
 40
-0.171404
 40
-0.171404
 40
0
 40
0
 40
0
 40
0
 10
132.618
 20
142.416
 30
0
 10
131.905
 20
142.416
 30
0
 10
131.334
 20
142.208
 30
0
 10
130.983
 20
141.785
 30
0
  0
SPLINE
  5
A12
330
A02
100
AcDbEntity
  8
View
100
AcDbSpline
210
0
220
0
230
1
 70
8
 71
2
 72
6
 73
3
 74
0
 40
-0.0660736
 40
-0.0660736
 40
-0.0660736
 40
0
 40
0
 40
0
 10
130.983
 20
141.785
 30
0
 10
130.776
 20
141.544
 30
0
 10
130.697
 20
141.199
 30
0
  0
SPLINE
  5
A13
330
A02
100
AcDbEntity
  8
View
100
AcDbSpline
210
0
220
0
230
1
 70
8
 71
2
 72
6
 73
3
 74
0
 40
-0.0696154
 40
-0.0696154
 40
-0.0696154
 40
0
 40
0
 40
0
 10
130.697
 20
141.199
 30
0
 10
130.639
 20
140.953
 30
0
 10
130.639
 20
140.486
 30
0
  0
LINE
  5
A14
330
A02
100
AcDbEntity
  8
View
100
AcDbLine
 10
130.639
 20
140.486
 30
0
 11
130.639
 21
139.108
 31
0
  0
LINE
  5
A15
330
A02
100
AcDbEntity
  8
View
100
AcDbLine
 10
130.639
 20
139.108
 30
0
 11
134.639
 21
139.108
 31
0
  0
SPLINE
  5
A16
330
A02
100
AcDbEntity
  8
View
100
AcDbSpline
210
0
220
0
230
1
 70
8
 71
1
 72
4
 73
2
 74
0
 40
0.71026
 40
0.71026
 40
0.853329
 40
0.853329
 10
134.129
 20
140.969
 30
0
 10
134.113
 20
141.044
 30
0
  0
SPLINE
  5
A17
330
A02
100
AcDbEntity
  8
View
100
AcDbSpline
210
0
220
0
230
1
 70
8
 71
2
 72
6
 73
3
 74
0
 40
0
 40
0
 40
0
 40
1
 40
1
 40
1
 10
130.697
 20
141.199
 30
0
 10
130.776
 20
141.544
 30
0
 10
130.983
 20
141.785
 30
0
  0
SPLINE
  5
A18
330
A02
100
AcDbEntity
  8
View
100
AcDbSpline
210
0
220
0
230
1
 70
8
 71
1
 72
4
 73
2
 74
0
 40
0
 40
0
 40
0.0990836
 40
0.0990836
 10
130.983
 20
141.785
 30
0
 10
131.037
 20
141.846
 30
0
  0
SPLINE
  5
A19
330
A02
100
AcDbEntity
  8
View
100
AcDbSpline
210
0
220
0
230
1
 70
8
 71
1
 72
4
 73
2
 74
0
 40
0.999633
 40
0.999633
 40
1
 40
1
 10
131.664
 20
142.259
 30
0
 10
131.665
 20
142.259
 30
0
  0
SPLINE
  5
A1A
330
A02
100
AcDbEntity
  8
View
100
AcDbSpline
210
0
220
0
230
1
 70
8
 71
2
 72
6
 73
3
 74
0
 40
1.14258
 40
1.14258
 40
1.14258
 40
1.28571
 40
1.28571
 40
1.28571
 10
131.786
 20
142.3
 30
0
 10
131.848
 20
142.32
 30
0
 10
131.912
 20
142.336
 30
0
  0
SPLINE
  5
A1B
330
A02
100
AcDbEntity
  8
View
100
AcDbSpline
210
0
220
0
230
1
 70
8
 71
2
 72
6
 73
3
 74
0
 40
1.6
 40
1.6
 40
1.6
 40
2
 40
2
 40
2
 10
132.208
 20
142.391
 30
0
 10
132.403
 20
142.416
 30
0
 10
132.618
 20
142.416
 30
0
  0
SPLINE
  5
A1C
330
A02
100
AcDbEntity
  8
View
100
AcDbSpline
210
0
220
0
230
1
 70
8
 71
2
 72
6
 73
3
 74
0
 40
0
 40
0
 40
0
 40
0.721336
 40
0.721336
 40
0.721336
 10
132.618
 20
142.416
 30
0
 10
132.945
 20
142.416
 30
0
 10
133.22
 20
142.36
 30
0
  0
SPLINE
  5
A1D
330
A02
100
AcDbEntity
  8
View
100
AcDbSpline
210
0
220
0
230
1
 70
8
 71
1
 72
4
 73
2
 74
0
 40
1.02112
 40
1.02112
 40
1.02125
 40
1.02125
 10
133.439
 20
142.305
 30
0
 10
133.439
 20
142.305
 30
0
  0
SPLINE
  5
A1E
330
A02
100
AcDbEntity
  8
View
100
AcDbSpline
210
0
220
0
230
1
 70
8
 71
3
 72
8
 73
4
 74
0
 40
1.51884
 40
1.51884
 40
1.51884
 40
1.51884
 40
2.50002
 40
2.50002
 40
2.50002
 40
2.50002
 10
133.756
 20
142.182
 30
0
 10
133.946
 20
142.093
 30
0
 10
134.093
 20
141.981
 30
0
 10
134.212
 20
141.862
 30
0
  0
SPLINE
  5
A1F
330
A02
100
AcDbEntity
  8
View
100
AcDbSpline
210
0
220
0
230
1
 70
8
 71
2
 72
6
 73
3
 74
0
 40
4
 40
4
 40
4
 40
5
 40
5
 40
5
 10
134.57
 20
141.195
 30
0
 10
134.639
 20
140.916
 30
0
 10
134.639
 20
140.553
 30
0
  0
SPLINE
  5
A20
330
A02
100
AcDbEntity
  8
View
100
AcDbSpline
210
0
220
0
230
1
 70
8
 71
2
 72
6
 73
3
 74
0
 40
0.9999
 40
0.9999
 40
0.9999
 40
1.21667
 40
1.21667
 40
1.21667
 10
133.38
 20
141.765
 30
0
 10
133.311
 20
141.788
 30
0
 10
133.236
 20
141.806
 30
0
  0
SPLINE
  5
A21
330
A02
100
AcDbEntity
  8
View
100
AcDbSpline
210
0
220
0
230
1
 70
8
 71
2
 72
6
 73
3
 74
0
 40
0
 40
0
 40
0
 40
1
 40
1
 40
1
 10
130.639
 20
140.486
 30
0
 10
130.639
 20
140.953
 30
0
 10
130.697
 20
141.199
 30
0
  0
LINE
  5
A22
330
A02
100
AcDbEntity
  8
View
100
AcDbLine
 10
128.344
 20
117.392
 30
0
 11
128.344
 21
117.922
 31
0
  0
LINE
  5
A23
330
A02
100
AcDbEntity
  8
View
100
AcDbLine
 10
128.344
 20
117.922
 30
0
 11
126.46
 21
117.922
 31
0
  0
LINE
  5
A24
330
A02
100
AcDbEntity
  8
View
100
AcDbLine
 10
126.46
 20
117.922
 30
0
 11
126.46
 21
119.995
 31
0
  0
LINE
  5
A25
330
A02
100
AcDbEntity
  8
View
100
AcDbLine
 10
126.46
 20
119.995
 30
0
 11
128.344
 21
119.995
 31
0
  0
LINE
  5
A26
330
A02
100
AcDbEntity
  8
View
100
AcDbLine
 10
128.344
 20
119.995
 30
0
 11
128.344
 21
120.526
 31
0
  0
LINE
  5
A27
330
A02
100
AcDbEntity
  8
View
100
AcDbLine
 10
128.344
 20
120.526
 30
0
 11
124.344
 21
120.526
 31
0
  0
LINE
  5
A28
330
A02
100
AcDbEntity
  8
View
100
AcDbLine
 10
124.344
 20
120.526
 30
0
 11
124.344
 21
119.995
 31
0
  0
LINE
  5
A29
330
A02
100
AcDbEntity
  8
View
100
AcDbLine
 10
124.344
 20
119.995
 30
0
 11
125.987
 21
119.995
 31
0
  0
LINE
  5
A2A
330
A02
100
AcDbEntity
  8
View
100
AcDbLine
 10
125.987
 20
119.995
 30
0
 11
125.987
 21
117.922
 31
0
  0
LINE
  5
A2B
330
A02
100
AcDbEntity
  8
View
100
AcDbLine
 10
125.987
 20
117.922
 30
0
 11
124.344
 21
117.922
 31
0
  0
LINE
  5
A2C
330
A02
100
AcDbEntity
  8
View
100
AcDbLine
 10
124.344
 20
117.922
 30
0
 11
124.344
 21
117.392
 31
0
  0
LINE
  5
A2D
330
A02
100
AcDbEntity
  8
View
100
AcDbLine
 10
124.344
 20
117.392
 30
0
 11
128.344
 21
117.392
 31
0
  0
LINE
  5
A2E
330
A02
100
AcDbEntity
  8
View
100
AcDbLine
 10
128.344
 20
120.971
 30
0
 11
128.344
 21
121.532
 31
0
  0
LINE
  5
A2F
330
A02
100
AcDbEntity
  8
View
100
AcDbLine
 10
128.344
 20
121.532
 30
0
 11
127.134
 21
121.971
 31
0
  0
LINE
  5
A30
330
A02
100
AcDbEntity
  8
View
100
AcDbLine
 10
127.134
 20
121.971
 30
0
 11
127.134
 21
123.648
 31
0
  0
LINE
  5
A31
330
A02
100
AcDbEntity
  8
View
100
AcDbLine
 10
127.134
 20
123.648
 30
0
 11
128.344
 21
124.111
 31
0
  0
LINE
  5
A32
330
A02
100
AcDbEntity
  8
View
100
AcDbLine
 10
128.344
 20
124.111
 30
0
 11
128.344
 21
124.715
 31
0
  0
LINE
  5
A33
330
A02
100
AcDbEntity
  8
View
100
AcDbLine
 10
128.344
 20
124.715
 30
0
 11
124.344
 21
123.081
 31
0
  0
LINE
  5
A34
330
A02
100
AcDbEntity
  8
View
100
AcDbLine
 10
124.344
 20
123.081
 30
0
 11
124.344
 21
122.507
 31
0
  0
LINE
  5
A35
330
A02
100
AcDbEntity
  8
View
100
AcDbLine
 10
124.344
 20
122.507
 30
0
 11
128.344
 21
120.971
 31
0
  0
LINE
  5
A36
330
A02
100
AcDbEntity
  8
View
100
AcDbLine
 10
125.594
 20
123.062
 30
0
 11
126.704
 21
123.483
 31
0
  0
LINE
  5
A37
330
A02
100
AcDbEntity
  8
View
100
AcDbLine
 10
126.704
 20
123.483
 30
0
 11
126.704
 21
122.123
 31
0
  0
LINE
  5
A38
330
A02
100
AcDbEntity
  8
View
100
AcDbLine
 10
126.704
 20
122.123
 30
0
 11
125.53
 21
122.565
 31
0
  0
SPLINE
  5
A39
330
A02
100
AcDbEntity
  8
View
100
AcDbSpline
210
0
220
0
230
1
 70
8
 71
2
 72
6
 73
3
 74
0
 40
-0.079621
 40
-0.079621
 40
-0.079621
 40
0
 40
0
 40
0
 10
125.53
 20
122.565
 30
0
 10
125.149
 20
122.703
 30
0
 10
124.765
 20
122.782
 30
0
  0
SPLINE
  5
A3A
330
A02
100
AcDbEntity
  8
View
100
AcDbSpline
210
0
220
0
230
1
 70
8
 71
2
 72
6
 73
3
 74
0
 40
-0.0859626
 40
-0.0859626
 40
-0.0859626
 40
0
 40
0
 40
0
 10
124.765
 20
122.782
 30
0
 10
125.088
 20
122.873
 30
0
 10
125.594
 20
123.062
 30
0
  0
SPLINE
  5
A3B
330
A02
100
AcDbEntity
  8
View
100
AcDbSpline
210
0
220
0
230
1
 70
8
 71
2
 72
6
 73
3
 74
0
 40
0
 40
0
 40
0
 40
1
 40
1
 40
1
 10
125.594
 20
123.062
 30
0
 10
125.088
 20
122.873
 30
0
 10
124.765
 20
122.782
 30
0
  0
SPLINE
  5
A3C
330
A02
100
AcDbEntity
  8
View
100
AcDbSpline
210
0
220
0
230
1
 70
8
 71
2
 72
6
 73
3
 74
0
 40
0
 40
0
 40
0
 40
1
 40
1
 40
1
 10
124.765
 20
122.782
 30
0
 10
125.149
 20
122.703
 30
0
 10
125.53
 20
122.565
 30
0
  0
LINE
  5
A3D
330
A02
100
AcDbEntity
  8
View
100
AcDbLine
 10
128.344
 20
125.12
 30
0
 11
128.344
 21
125.629
 31
0
  0
LINE
  5
A3E
330
A02
100
AcDbEntity
  8
View
100
AcDbLine
 10
128.344
 20
125.629
 30
0
 11
124.939
 21
125.629
 31
0
  0
LINE
  5
A3F
330
A02
100
AcDbEntity
  8
View
100
AcDbLine
 10
124.939
 20
125.629
 30
0
 11
128.344
 21
126.788
 31
0
  0
LINE
  5
A40
330
A02
100
AcDbEntity
  8
View
100
AcDbLine
 10
128.344
 20
126.788
 30
0
 11
128.344
 21
127.263
 31
0
  0
LINE
  5
A41
330
A02
100
AcDbEntity
  8
View
100
AcDbLine
 10
128.344
 20
127.263
 30
0
 11
124.996
 21
128.431
 31
0
  0
LINE
  5
A42
330
A02
100
AcDbEntity
  8
View
100
AcDbLine
 10
124.996
 20
128.431
 30
0
 11
128.344
 21
128.431
 31
0
  0
LINE
  5
A43
330
A02
100
AcDbEntity
  8
View
100
AcDbLine
 10
128.344
 20
128.431
 30
0
 11
128.344
 21
128.94
 31
0
  0
LINE
  5
A44
330
A02
100
AcDbEntity
  8
View
100
AcDbLine
 10
128.344
 20
128.94
 30
0
 11
124.344
 21
128.94
 31
0
  0
LINE
  5
A45
330
A02
100
AcDbEntity
  8
View
100
AcDbLine
 10
124.344
 20
128.94
 30
0
 11
124.344
 21
128.23
 31
0
  0
LINE
  5
A46
330
A02
100
AcDbEntity
  8
View
100
AcDbLine
 10
124.344
 20
128.23
 30
0
 11
127.128
 21
127.27
 31
0
  0
SPLINE
  5
A47
330
A02
100
AcDbEntity
  8
View
100
AcDbSpline
210
0
220
0
230
1
 70
8
 71
2
 72
6
 73
3
 74
0
 40
-0.0654379
 40
-0.0654379
 40
-0.0654379
 40
0
 40
0
 40
0
 10
127.128
 20
127.27
 30
0
 10
127.551
 20
127.123
 30
0
 10
127.768
 20
127.056
 30
0
  0
SPLINE
  5
A48
330
A02
100
AcDbEntity
  8
View
100
AcDbSpline
210
0
220
0
230
1
 70
8
 71
2
 72
6
 73
3
 74
0
 40
-0.0596033
 40
-0.0596033
 40
-0.0596033
 40
0
 40
0
 40
0
 10
127.768
 20
127.056
 30
0
 10
127.573
 20
126.995
 30
0
 10
127.176
 20
126.864
 30
0
  0
LINE
  5
A49
330
A02
100
AcDbEntity
  8
View
100
AcDbLine
 10
127.176
 20
126.864
 30
0
 11
124.344
 21
125.916
 31
0
  0
LINE
  5
A4A
330
A02
100
AcDbEntity
  8
View
100
AcDbLine
 10
124.344
 20
125.916
 30
0
 11
124.344
 21
125.12
 31
0
  0
LINE
  5
A4B
330
A02
100
AcDbEntity
  8
View
100
AcDbLine
 10
124.344
 20
125.12
 30
0
 11
128.344
 21
125.12
 31
0
  0
SPLINE
  5
A4C
330
A02
100
AcDbEntity
  8
View
100
AcDbSpline
210
0
220
0
230
1
 70
8
 71
2
 72
6
 73
3
 74
0
 40
0
 40
0
 40
0
 40
1
 40
1
 40
1
 10
127.768
 20
127.056
 30
0
 10
127.551
 20
127.123
 30
0
 10
127.128
 20
127.27
 30
0
  0
SPLINE
  5
A4D
330
A02
100
AcDbEntity
  8
View
100
AcDbSpline
210
0
220
0
230
1
 70
8
 71
2
 72
6
 73
3
 74
0
 40
0
 40
0
 40
0
 40
1
 40
1
 40
1
 10
127.176
 20
126.864
 30
0
 10
127.573
 20
126.995
 30
0
 10
127.768
 20
127.056
 30
0
  0
LINE
  5
A4E
330
A02
100
AcDbEntity
  8
View
100
AcDbLine
 10
128.344
 20
129.776
 30
0
 11
128.344
 21
130.285
 31
0
  0
LINE
  5
A4F
330
A02
100
AcDbEntity
  8
View
100
AcDbLine
 10
128.344
 20
130.285
 30
0
 11
124.939
 21
130.285
 31
0
  0
LINE
  5
A50
330
A02
100
AcDbEntity
  8
View
100
AcDbLine
 10
124.939
 20
130.285
 30
0
 11
128.344
 21
131.443
 31
0
  0
LINE
  5
A51
330
A02
100
AcDbEntity
  8
View
100
AcDbLine
 10
128.344
 20
131.443
 30
0
 11
128.344
 21
131.919
 31
0
  0
LINE
  5
A52
330
A02
100
AcDbEntity
  8
View
100
AcDbLine
 10
128.344
 20
131.919
 30
0
 11
124.996
 21
133.087
 31
0
  0
LINE
  5
A53
330
A02
100
AcDbEntity
  8
View
100
AcDbLine
 10
124.996
 20
133.087
 30
0
 11
128.344
 21
133.087
 31
0
  0
LINE
  5
A54
330
A02
100
AcDbEntity
  8
View
100
AcDbLine
 10
128.344
 20
133.087
 30
0
 11
128.344
 21
133.596
 31
0
  0
LINE
  5
A55
330
A02
100
AcDbEntity
  8
View
100
AcDbLine
 10
128.344
 20
133.596
 30
0
 11
124.344
 21
133.596
 31
0
  0
LINE
  5
A56
330
A02
100
AcDbEntity
  8
View
100
AcDbLine
 10
124.344
 20
133.596
 30
0
 11
124.344
 21
132.885
 31
0
  0
LINE
  5
A57
330
A02
100
AcDbEntity
  8
View
100
AcDbLine
 10
124.344
 20
132.885
 30
0
 11
127.128
 21
131.925
 31
0
  0
SPLINE
  5
A58
330
A02
100
AcDbEntity
  8
View
100
AcDbSpline
210
0
220
0
230
1
 70
8
 71
2
 72
6
 73
3
 74
0
 40
-0.0654379
 40
-0.0654379
 40
-0.0654379
 40
0
 40
0
 40
0
 10
127.128
 20
131.925
 30
0
 10
127.551
 20
131.779
 30
0
 10
127.768
 20
131.712
 30
0
  0
SPLINE
  5
A59
330
A02
100
AcDbEntity
  8
View
100
AcDbSpline
210
0
220
0
230
1
 70
8
 71
2
 72
6
 73
3
 74
0
 40
-0.0596033
 40
-0.0596033
 40
-0.0596033
 40
0
 40
0
 40
0
 10
127.768
 20
131.712
 30
0
 10
127.573
 20
131.651
 30
0
 10
127.176
 20
131.52
 30
0
  0
LINE
  5
A5A
330
A02
100
AcDbEntity
  8
View
100
AcDbLine
 10
127.176
 20
131.52
 30
0
 11
124.344
 21
130.571
 31
0
  0
LINE
  5
A5B
330
A02
100
AcDbEntity
  8
View
100
AcDbLine
 10
124.344
 20
130.571
 30
0
 11
124.344
 21
129.776
 31
0
  0
LINE
  5
A5C
330
A02
100
AcDbEntity
  8
View
100
AcDbLine
 10
124.344
 20
129.776
 30
0
 11
128.344
 21
129.776
 31
0
  0
SPLINE
  5
A5D
330
A02
100
AcDbEntity
  8
View
100
AcDbSpline
210
0
220
0
230
1
 70
8
 71
2
 72
6
 73
3
 74
0
 40
0
 40
0
 40
0
 40
1
 40
1
 40
1
 10
127.768
 20
131.712
 30
0
 10
127.551
 20
131.779
 30
0
 10
127.128
 20
131.925
 30
0
  0
SPLINE
  5
A5E
330
A02
100
AcDbEntity
  8
View
100
AcDbSpline
210
0
220
0
230
1
 70
8
 71
2
 72
6
 73
3
 74
0
 40
0
 40
0
 40
0
 40
1
 40
1
 40
1
 10
127.176
 20
131.52
 30
0
 10
127.573
 20
131.651
 30
0
 10
127.768
 20
131.712
 30
0
  0
SPLINE
  5
A5F
330
A02
100
AcDbEntity
  8
View
100
AcDbSpline
210
0
220
0
230
1
 70
8
 71
2
 72
8
 73
5
 74
0
 40
-0.217756
 40
-0.217756
 40
-0.217756
 40
-0.108878
 40
-0.108878
 40
0
 40
0
 40
0
 10
126.344
 20
137.568
 30
0
 10
127.118
 20
137.568
 30
0
 10
127.538
 20
137.183
 30
0
 10
127.957
 20
136.797
 30
0
 10
127.957
 20
136.199
 30
0
  0
SPLINE
  5
A60
330
A02
100
AcDbEntity
  8
View
100
AcDbSpline
210
0
220
0
230
1
 70
8
 71
2
 72
8
 73
5
 74
0
 40
-0.347986
 40
-0.347986
 40
-0.347986
 40
-0.173993
 40
-0.173993
 40
0
 40
0
 40
0
 10
127.957
 20
136.199
 30
0
 10
127.957
 20
135.611
 30
0
 10
127.541
 20
135.222
 30
0
 10
127.125
 20
134.834
 30
0
 10
126.402
 20
134.834
 30
0
  0
SPLINE
  5
A61
330
A02
100
AcDbEntity
  8
View
100
AcDbSpline
210
0
220
0
230
1
 70
8
 71
2
 72
8
 73
5
 74
0
 40
-0.245474
 40
-0.245474
 40
-0.245474
 40
-0.122737
 40
-0.122737
 40
0
 40
0
 40
0
 10
126.402
 20
134.834
 30
0
 10
125.5
 20
134.834
 30
0
 10
125.114
 20
135.239
 30
0
 10
124.728
 20
135.645
 30
0
 10
124.728
 20
136.206
 30
0
  0
SPLINE
  5
A62
330
A02
100
AcDbEntity
  8
View
100
AcDbSpline
210
0
220
0
230
1
 70
8
 71
2
 72
10
 73
7
 74
0
 40
-0.404303
 40
-0.404303
 40
-0.404303
 40
-0.269535
 40
-0.269535
 40
-0.134768
 40
-0.134768
 40
0
 40
0
 40
0
 10
124.728
 20
136.206
 30
0
 10
124.728
 20
136.602
 30
0
 10
124.928
 20
136.92
 30
0
 10
125.128
 20
137.239
 30
0
 10
125.492
 20
137.404
 30
0
 10
125.856
 20
137.568
 30
0
 10
126.344
 20
137.568
 30
0
  0
SPLINE
  5
A63
330
A02
100
AcDbEntity
  8
View
100
AcDbSpline
210
0
220
0
230
1
 70
8
 71
2
 72
10
 73
7
 74
0
 40
-0.378475
 40
-0.378475
 40
-0.378475
 40
-0.252317
 40
-0.252317
 40
-0.126158
 40
-0.126158
 40
0
 40
0
 40
0
 10
126.396
 20
134.288
 30
0
 10
126.923
 20
134.288
 30
0
 10
127.394
 20
134.517
 30
0
 10
127.865
 20
134.745
 30
0
 10
128.138
 20
135.19
 30
0
 10
128.411
 20
135.635
 30
0
 10
128.411
 20
136.203
 30
0
  0
SPLINE
  5
A64
330
A02
100
AcDbEntity
  8
View
100
AcDbSpline
210
0
220
0
230
1
 70
8
 71
2
 72
10
 73
7
 74
0
 40
-0.214742
 40
-0.214742
 40
-0.214742
 40
-0.143161
 40
-0.143161
 40
-0.0715806
 40
-0.0715806
 40
0
 40
0
 40
0
 10
128.411
 20
136.203
 30
0
 10
128.411
 20
136.721
 30
0
 10
128.164
 20
137.172
 30
0
 10
127.917
 20
137.623
 30
0
 10
127.437
 20
137.869
 30
0
 10
126.957
 20
138.114
 30
0
 10
126.35
 20
138.114
 30
0
  0
SPLINE
  5
A65
330
A02
100
AcDbEntity
  8
View
100
AcDbSpline
210
0
220
0
230
1
 70
8
 71
2
 72
10
 73
7
 74
0
 40
-0.172814
 40
-0.172814
 40
-0.172814
 40
-0.115209
 40
-0.115209
 40
-0.0576046
 40
-0.0576046
 40
0
 40
0
 40
0
 10
126.35
 20
138.114
 30
0
 10
125.75
 20
138.114
 30
0
 10
125.277
 20
137.881
 30
0
 10
124.804
 20
137.648
 30
0
 10
124.539
 20
137.203
 30
0
 10
124.274
 20
136.757
 30
0
 10
124.274
 20
136.203
 30
0
  0
SPLINE
  5
A66
330
A02
100
AcDbEntity
  8
View
100
AcDbSpline
210
0
220
0
230
1
 70
8
 71
2
 72
8
 73
5
 74
0
 40
-0.510492
 40
-0.510492
 40
-0.510492
 40
-0.255246
 40
-0.255246
 40
0
 40
0
 40
0
 10
124.274
 20
136.203
 30
0
 10
124.274
 20
135.358
 30
0
 10
124.836
 20
134.823
 30
0
 10
125.399
 20
134.288
 30
0
 10
126.396
 20
134.288
 30
0
  0
SPLINE
  5
A67
330
A02
100
AcDbEntity
  8
View
100
AcDbSpline
210
0
220
0
230
1
 70
8
 71
2
 72
6
 73
3
 74
0
 40
0.809091
 40
0.809091
 40
0.809091
 40
1.00013
 40
1.00013
 40
1.00013
 10
127.371
 20
135.088
 30
0
 10
127.461
 20
135.148
 30
0
 10
127.541
 20
135.222
 30
0
  0
SPLINE
  5
A68
330
A02
100
AcDbEntity
  8
View
100
AcDbSpline
210
0
220
0
230
1
 70
8
 71
1
 72
4
 73
2
 74
0
 40
0.999745
 40
0.999745
 40
1
 40
1
 10
127.538
 20
137.182
 30
0
 10
127.538
 20
137.183
 30
0
  0
SPLINE
  5
A69
330
A02
100
AcDbEntity
  8
View
100
AcDbSpline
210
0
220
0
230
1
 70
8
 71
2
 72
6
 73
3
 74
0
 40
0
 40
0
 40
0
 40
1.08019
 40
1.08019
 40
1.08019
 10
126.35
 20
138.114
 30
0
 10
127.006
 20
138.114
 30
0
 10
127.513
 20
137.828
 30
0
  0
SPLINE
  5
A6A
330
A02
100
AcDbEntity
  8
View
100
AcDbSpline
210
0
220
0
230
1
 70
8
 71
1
 72
4
 73
2
 74
0
 40
1.55874
 40
1.55874
 40
1.55886
 40
1.55886
 10
127.901
 20
137.53
 30
0
 10
127.901
 20
137.53
 30
0
  0
SPLINE
  5
A6B
330
A02
100
AcDbEntity
  8
View
100
AcDbSpline
210
0
220
0
230
1
 70
8
 71
1
 72
4
 73
2
 74
0
 40
1.99999
 40
1.99999
 40
2.00406
 40
2.00406
 10
128.164
 20
137.172
 30
0
 10
128.166
 20
137.168
 30
0
  0
SPLINE
  5
A6C
330
A02
100
AcDbEntity
  8
View
100
AcDbSpline
210
0
220
0
230
1
 70
8
 71
2
 72
6
 73
3
 74
0
 40
2.01209
 40
2.01209
 40
2.01209
 40
3
 40
3
 40
3
 10
128.17
 20
137.161
 30
0
 10
128.411
 20
136.715
 30
0
 10
128.411
 20
136.203
 30
0
  0
SPLINE
  5
A6D
330
A02
100
AcDbEntity
  8
View
100
AcDbSpline
210
0
220
0
230
1
 70
8
 71
2
 72
6
 73
3
 74
0
 40
0
 40
0
 40
0
 40
0.577844
 40
0.577844
 40
0.577844
 10
128.411
 20
136.203
 30
0
 10
128.411
 20
135.875
 30
0
 10
128.32
 20
135.588
 30
0
  0
SPLINE
  5
A6E
330
A02
100
AcDbEntity
  8
View
100
AcDbSpline
210
0
220
0
230
1
 70
8
 71
1
 72
4
 73
2
 74
0
 40
0.939692
 40
0.939692
 40
1.00015
 40
1.00015
 10
128.17
 20
135.244
 30
0
 10
128.138
 20
135.19
 30
0
  0
SPLINE
  5
A6F
330
A02
100
AcDbEntity
  8
View
100
AcDbSpline
210
0
220
0
230
1
 70
8
 71
2
 72
6
 73
3
 74
0
 40
1.47442
 40
1.47442
 40
1.47442
 40
1.98806
 40
1.98806
 40
1.98806
 10
127.835
 20
134.817
 30
0
 10
127.646
 20
134.641
 30
0
 10
127.406
 20
134.522
 30
0
  0
SPLINE
  5
A70
330
A02
100
AcDbEntity
  8
View
100
AcDbSpline
210
0
220
0
230
1
 70
8
 71
2
 72
6
 73
3
 74
0
 40
1.99996
 40
1.99996
 40
1.99996
 40
3
 40
3
 40
3
 10
127.394
 20
134.517
 30
0
 10
126.923
 20
134.288
 30
0
 10
126.396
 20
134.288
 30
0
  0
SPLINE
  5
A71
330
A02
100
AcDbEntity
  8
View
100
AcDbSpline
210
0
220
0
230
1
 70
8
 71
1
 72
4
 73
2
 74
0
 40
1
 40
1
 40
1.00027
 40
1.00027
 10
125.492
 20
137.404
 30
0
 10
125.492
 20
137.404
 30
0
  0
SPLINE
  5
A72
330
A02
100
AcDbEntity
  8
View
100
AcDbSpline
210
0
220
0
230
1
 70
8
 71
2
 72
6
 73
3
 74
0
 40
1.5204
 40
1.5204
 40
1.5204
 40
1.76023
 40
1.76023
 40
1.76023
 10
125.157
 20
137.191
 30
0
 10
125.09
 20
137.132
 30
0
 10
125.033
 20
137.064
 30
0
  0
SPLINE
  5
A73
330
A02
100
AcDbEntity
  8
View
100
AcDbSpline
210
0
220
0
230
1
 70
8
 71
1
 72
4
 73
2
 74
0
 40
0.980056
 40
0.980056
 40
0.999971
 40
0.999971
 10
125.099
 20
135.255
 30
0
 10
125.114
 20
135.239
 30
0
  0
SPLINE
  5
A74
330
A02
100
AcDbEntity
  8
View
100
AcDbSpline
210
0
220
0
230
1
 70
8
 71
2
 72
8
 73
5
 74
0
 40
0
 40
0
 40
0
 40
1
 40
1
 40
1.18109
 40
1.18109
 40
1.18109
 10
124.274
 20
136.203
 30
0
 10
124.274
 20
136.757
 30
0
 10
124.539
 20
137.203
 30
0
 10
124.587
 20
137.283
 30
0
 10
124.642
 20
137.357
 30
0
  0
SPLINE
  5
A75
330
A02
100
AcDbEntity
  8
View
100
AcDbSpline
210
0
220
0
230
1
 70
8
 71
2
 72
6
 73
3
 74
0
 40
1.99982
 40
1.99982
 40
1.99982
 40
2.17143
 40
2.17143
 40
2.17143
 10
125.277
 20
137.881
 30
0
 10
125.358
 20
137.921
 30
0
 10
125.443
 20
137.954
 30
0
  0
SPLINE
  5
A76
330
A02
100
AcDbEntity
  8
View
100
AcDbSpline
210
0
220
0
230
1
 70
8
 71
2
 72
6
 73
3
 74
0
 40
2.4
 40
2.4
 40
2.4
 40
3
 40
3
 40
3
 10
125.675
 20
138.03
 30
0
 10
125.99
 20
138.114
 30
0
 10
126.35
 20
138.114
 30
0
  0
SPLINE
  5
A77
330
A02
100
AcDbEntity
  8
View
100
AcDbSpline
210
0
220
0
230
1
 70
8
 71
2
 72
6
 73
3
 74
0
 40
0
 40
0
 40
0
 40
0.4
 40
0.4
 40
0.4
 10
126.396
 20
134.288
 30
0
 10
125.997
 20
134.288
 30
0
 10
125.668
 20
134.373
 30
0
  0
SPLINE
  5
A78
330
A02
100
AcDbEntity
  8
View
100
AcDbSpline
210
0
220
0
230
1
 70
8
 71
2
 72
6
 73
3
 74
0
 40
0.863636
 40
0.863636
 40
0.863636
 40
1.00011
 40
1.00011
 40
1.00011
 10
124.998
 20
134.687
 30
0
 10
124.913
 20
134.75
 30
0
 10
124.836
 20
134.823
 30
0
  0
SPLINE
  5
A79
330
A02
100
AcDbEntity
  8
View
100
AcDbSpline
210
0
220
0
230
1
 70
8
 71
1
 72
4
 73
2
 74
0
 40
1.016
 40
1.016
 40
1.0161
 40
1.0161
 10
124.819
 20
134.84
 30
0
 10
124.818
 20
134.84
 30
0
  0
SPLINE
  5
A7A
330
A02
100
AcDbEntity
  8
View
100
AcDbSpline
210
0
220
0
230
1
 70
8
 71
1
 72
4
 73
2
 74
0
 40
1.032
 40
1.032
 40
1.03209
 40
1.03209
 10
124.801
 20
134.857
 30
0
 10
124.801
 20
134.858
 30
0
  0
SPLINE
  5
A7B
330
A02
100
AcDbEntity
  8
View
100
AcDbSpline
210
0
220
0
230
1
 70
8
 71
1
 72
4
 73
2
 74
0
 40
1.048
 40
1.048
 40
1.04808
 40
1.04808
 10
124.784
 20
134.875
 30
0
 10
124.784
 20
134.875
 30
0
  0
SPLINE
  5
A7C
330
A02
100
AcDbEntity
  8
View
100
AcDbSpline
210
0
220
0
230
1
 70
8
 71
1
 72
4
 73
2
 74
0
 40
1.06399
 40
1.06399
 40
1.06407
 40
1.06407
 10
124.767
 20
134.893
 30
0
 10
124.767
 20
134.893
 30
0
  0
SPLINE
  5
A7D
330
A02
100
AcDbEntity
  8
View
100
AcDbSpline
210
0
220
0
230
1
 70
8
 71
2
 72
6
 73
3
 74
0
 40
1.22398
 40
1.22398
 40
1.22398
 40
2
 40
2
 40
2
 10
124.613
 20
135.078
 30
0
 10
124.274
 20
135.547
 30
0
 10
124.274
 20
136.203
 30
0
  0
LINE
  5
A7E
330
A02
100
AcDbEntity
  8
View
100
AcDbLine
 10
128.344
 20
138.791
 30
0
 11
128.344
 21
139.297
 31
0
  0
LINE
  5
A7F
330
A02
100
AcDbEntity
  8
View
100
AcDbLine
 10
128.344
 20
139.297
 30
0
 11
125.204
 21
139.297
 31
0
  0
LINE
  5
A80
330
A02
100
AcDbEntity
  8
View
100
AcDbLine
 10
125.204
 20
139.297
 30
0
 11
128.344
 21
141.401
 31
0
  0
LINE
  5
A81
330
A02
100
AcDbEntity
  8
View
100
AcDbLine
 10
128.344
 20
141.401
 30
0
 11
128.344
 21
141.943
 31
0
  0
LINE
  5
A82
330
A02
100
AcDbEntity
  8
View
100
AcDbLine
 10
128.344
 20
141.943
 30
0
 11
124.344
 21
141.943
 31
0
  0
LINE
  5
A83
330
A02
100
AcDbEntity
  8
View
100
AcDbLine
 10
124.344
 20
141.943
 30
0
 11
124.344
 21
141.437
 31
0
  0
LINE
  5
A84
330
A02
100
AcDbEntity
  8
View
100
AcDbLine
 10
124.344
 20
141.437
 30
0
 11
127.484
 21
141.437
 31
0
  0
LINE
  5
A85
330
A02
100
AcDbEntity
  8
View
100
AcDbLine
 10
127.484
 20
141.437
 30
0
 11
124.344
 21
139.334
 31
0
  0
LINE
  5
A86
330
A02
100
AcDbEntity
  8
View
100
AcDbLine
 10
124.344
 20
139.334
 30
0
 11
124.344
 21
138.791
 31
0
  0
LINE
  5
A87
330
A02
100
AcDbEntity
  8
View
100
AcDbLine
 10
124.344
 20
138.791
 30
0
 11
128.344
 21
138.791
 31
0
  0
LINE
  5
A88
330
A02
100
AcDbEntity
  8
View
100
AcDbLine
 10
128.344
 20
142.831
 30
0
 11
128.344
 21
144.276
 31
0
  0
SPLINE
  5
A89
330
A02
100
AcDbEntity
  8
View
100
AcDbSpline
210
0
220
0
230
1
 70
8
 71
2
 72
12
 73
9
 74
0
 40
-0.270145
 40
-0.270145
 40
-0.270145
 40
-0.162087
 40
-0.162087
 40
-0.108058
 40
-0.108058
 40
-0.054029
 40
-0.054029
 40
0
 40
0
 40
0
 10
128.344
 20
144.276
 30
0
 10
128.342
 20
145
 30
0
 10
128.074
 20
145.395
 30
0
 10
127.942
 20
145.593
 30
0
 10
127.711
 20
145.759
 30
0
 10
127.481
 20
145.925
 30
0
 10
127.129
 20
146.032
 30
0
 10
126.777
 20
146.138
 30
0
 10
126.323
 20
146.138
 30
0
  0
SPLINE
  5
A8A
330
A02
100
AcDbEntity
  8
View
100
AcDbSpline
210
0
220
0
230
1
 70
8
 71
3
 72
8
 73
4
 74
0
 40
-0.171404
 40
-0.171404
 40
-0.171404
 40
-0.171404
 40
0
 40
0
 40
0
 40
0
 10
126.323
 20
146.138
 30
0
 10
125.61
 20
146.138
 30
0
 10
125.039
 20
145.93
 30
0
 10
124.689
 20
145.507
 30
0
  0
SPLINE
  5
A8B
330
A02
100
AcDbEntity
  8
View
100
AcDbSpline
210
0
220
0
230
1
 70
8
 71
2
 72
6
 73
3
 74
0
 40
-0.0660736
 40
-0.0660736
 40
-0.0660736
 40
0
 40
0
 40
0
 10
124.689
 20
145.507
 30
0
 10
124.481
 20
145.267
 30
0
 10
124.402
 20
144.922
 30
0
  0
SPLINE
  5
A8C
330
A02
100
AcDbEntity
  8
View
100
AcDbSpline
210
0
220
0
230
1
 70
8
 71
2
 72
6
 73
3
 74
0
 40
-0.0696154
 40
-0.0696154
 40
-0.0696154
 40
0
 40
0
 40
0
 10
124.402
 20
144.922
 30
0
 10
124.344
 20
144.675
 30
0
 10
124.344
 20
144.209
 30
0
  0
LINE
  5
A8D
330
A02
100
AcDbEntity
  8
View
100
AcDbLine
 10
124.344
 20
144.209
 30
0
 11
124.344
 21
142.831
 31
0
  0
LINE
  5
A8E
330
A02
100
AcDbEntity
  8
View
100
AcDbLine
 10
124.344
 20
142.831
 30
0
 11
128.344
 21
142.831
 31
0
  0
SPLINE
  5
A8F
330
A02
100
AcDbEntity
  8
View
100
AcDbSpline
210
0
220
0
230
1
 70
8
 71
2
 72
8
 73
5
 74
0
 40
-0.303954
 40
-0.303954
 40
-0.303954
 40
-0.151977
 40
-0.151977
 40
0
 40
0
 40
0
 10
127.591
 20
145.193
 30
0
 10
127.725
 20
145.062
 30
0
 10
127.798
 20
144.837
 30
0
 10
127.871
 20
144.611
 30
0
 10
127.871
 20
144.215
 30
0
  0
LINE
  5
A90
330
A02
100
AcDbEntity
  8
View
100
AcDbLine
 10
127.871
 20
144.215
 30
0
 11
127.871
 21
143.361
 31
0
  0
LINE
  5
A91
330
A02
100
AcDbEntity
  8
View
100
AcDbLine
 10
127.871
 20
143.361
 30
0
 11
124.817
 21
143.361
 31
0
  0
LINE
  5
A92
330
A02
100
AcDbEntity
  8
View
100
AcDbLine
 10
124.817
 20
143.361
 30
0
 11
124.817
 21
144.203
 31
0
  0
SPLINE
  5
A93
330
A02
100
AcDbEntity
  8
View
100
AcDbSpline
210
0
220
0
230
1
 70
8
 71
2
 72
6
 73
3
 74
0
 40
-0.0605735
 40
-0.0605735
 40
-0.0605735
 40
0
 40
0
 40
0
 10
124.817
 20
144.203
 30
0
 10
124.817
 20
144.672
 30
0
 10
124.899
 20
144.885
 30
0
  0
SPLINE
  5
A94
330
A02
100
AcDbEntity
  8
View
100
AcDbSpline
210
0
220
0
230
1
 70
8
 71
2
 72
8
 73
5
 74
0
 40
-0.236365
 40
-0.236365
 40
-0.236365
 40
-0.118183
 40
-0.118183
 40
0
 40
0
 40
0
 10
124.899
 20
144.885
 30
0
 10
125.012
 20
145.181
 30
0
 10
125.349
 20
145.387
 30
0
 10
125.685
 20
145.593
 30
0
 10
126.314
 20
145.593
 30
0
  0
SPLINE
  5
A95
330
A02
100
AcDbEntity
  8
View
100
AcDbSpline
210
0
220
0
230
1
 70
8
 71
3
 72
8
 73
4
 74
0
 40
-0.0972409
 40
-0.0972409
 40
-0.0972409
 40
-0.0972409
 40
0
 40
0
 40
0
 40
0
 10
126.314
 20
145.593
 30
0
 10
126.92
 20
145.595
 30
0
 10
127.338
 20
145.443
 30
0
 10
127.591
 20
145.193
 30
0
  0
SPLINE
  5
A96
330
A02
100
AcDbEntity
  8
View
100
AcDbSpline
210
0
220
0
230
1
 70
8
 71
1
 72
4
 73
2
 74
0
 40
0.71026
 40
0.71026
 40
0.853329
 40
0.853329
 10
127.835
 20
144.692
 30
0
 10
127.818
 20
144.767
 30
0
  0
SPLINE
  5
A97
330
A02
100
AcDbEntity
  8
View
100
AcDbSpline
210
0
220
0
230
1
 70
8
 71
2
 72
6
 73
3
 74
0
 40
0
 40
0
 40
0
 40
1
 40
1
 40
1
 10
124.402
 20
144.922
 30
0
 10
124.481
 20
145.267
 30
0
 10
124.689
 20
145.507
 30
0
  0
SPLINE
  5
A98
330
A02
100
AcDbEntity
  8
View
100
AcDbSpline
210
0
220
0
230
1
 70
8
 71
2
 72
6
 73
3
 74
0
 40
0
 40
0
 40
0
 40
0.396335
 40
0.396335
 40
0.396335
 10
124.689
 20
145.507
 30
0
 10
124.794
 20
145.633
 30
0
 10
124.923
 20
145.734
 30
0
  0
SPLINE
  5
A99
330
A02
100
AcDbEntity
  8
View
100
AcDbSpline
210
0
220
0
230
1
 70
8
 71
1
 72
4
 73
2
 74
0
 40
0.985885
 40
0.985885
 40
0.985965
 40
0.985965
 10
125.358
 20
145.977
 30
0
 10
125.358
 20
145.977
 30
0
  0
SPLINE
  5
A9A
330
A02
100
AcDbEntity
  8
View
100
AcDbSpline
210
0
220
0
230
1
 70
8
 71
1
 72
4
 73
2
 74
0
 40
0.998167
 40
0.998167
 40
0.999998
 40
0.999998
 10
125.368
 20
145.981
 30
0
 10
125.37
 20
145.981
 30
0
  0
SPLINE
  5
A9B
330
A02
100
AcDbEntity
  8
View
100
AcDbSpline
210
0
220
0
230
1
 70
8
 71
2
 72
6
 73
3
 74
0
 40
1.6
 40
1.6
 40
1.6
 40
2
 40
2
 40
2
 10
125.913
 20
146.113
 30
0
 10
126.108
 20
146.138
 30
0
 10
126.323
 20
146.138
 30
0
  0
SPLINE
  5
A9C
330
A02
100
AcDbEntity
  8
View
100
AcDbSpline
210
0
220
0
230
1
 70
8
 71
2
 72
6
 73
3
 74
0
 40
0
 40
0
 40
0
 40
1
 40
1
 40
1
 10
126.323
 20
146.138
 30
0
 10
126.777
 20
146.138
 30
0
 10
127.129
 20
146.032
 30
0
  0
SPLINE
  5
A9D
330
A02
100
AcDbEntity
  8
View
100
AcDbSpline
210
0
220
0
230
1
 70
8
 71
2
 72
6
 73
3
 74
0
 40
1.51795
 40
1.51795
 40
1.51795
 40
2.0001
 40
2.0001
 40
2.0001
 10
127.461
 20
145.905
 30
0
 10
127.6
 20
145.839
 30
0
 10
127.711
 20
145.759
 30
0
  0
SPLINE
  5
A9E
330
A02
100
AcDbEntity
  8
View
100
AcDbSpline
210
0
220
0
230
1
 70
8
 71
2
 72
6
 73
3
 74
0
 40
2.51047
 40
2.51047
 40
2.51047
 40
2.99996
 40
2.99996
 40
2.99996
 10
127.921
 20
145.581
 30
0
 10
128.009
 20
145.492
 30
0
 10
128.074
 20
145.395
 30
0
  0
SPLINE
  5
A9F
330
A02
100
AcDbEntity
  8
View
100
AcDbSpline
210
0
220
0
230
1
 70
8
 71
1
 72
4
 73
2
 74
0
 40
4.27383
 40
4.27383
 40
4.35255
 40
4.35255
 10
128.308
 20
144.758
 30
0
 10
128.315
 20
144.71
 30
0
  0
SPLINE
  5
AA0
330
A02
100
AcDbEntity
  8
View
100
AcDbSpline
210
0
220
0
230
1
 70
8
 71
2
 72
6
 73
3
 74
0
 40
4.35652
 40
4.35652
 40
4.35652
 40
5
 40
5
 40
5
 10
128.316
 20
144.708
 30
0
 10
128.344
 20
144.509
 30
0
 10
128.344
 20
144.276
 30
0
  0
SPLINE
  5
AA1
330
A02
100
AcDbEntity
  8
View
100
AcDbSpline
210
0
220
0
230
1
 70
8
 71
1
 72
4
 73
2
 74
0
 40
0.999845
 40
0.999845
 40
1.09952
 40
1.09952
 10
127.085
 20
145.488
 30
0
 10
127.02
 20
145.507
 30
0
  0
SPLINE
  5
AA2
330
A02
100
AcDbEntity
  8
View
100
AcDbSpline
210
0
220
0
230
1
 70
8
 71
1
 72
4
 73
2
 74
0
 40
1
 40
1
 40
1.00054
 40
1.00054
 10
125.349
 20
145.387
 30
0
 10
125.348
 20
145.387
 30
0
  0
SPLINE
  5
AA3
330
A02
100
AcDbEntity
  8
View
100
AcDbSpline
210
0
220
0
230
1
 70
8
 71
2
 72
6
 73
3
 74
0
 40
0
 40
0
 40
0
 40
1
 40
1
 40
1
 10
124.344
 20
144.209
 30
0
 10
124.344
 20
144.675
 30
0
 10
124.402
 20
144.922
 30
0
  0
LINE
  5
AA4
330
A02
100
AcDbEntity
  8
View
100
AcDbLine
 10
134.639
 20
122.742
 30
0
 11
130.624
 21
122.742
 31
0
  0
LINE
  5
AA5
330
A02
100
AcDbEntity
  8
View
100
AcDbLine
 10
130.624
 20
122.742
 30
0
 11
130.624
 21
122.425
 31
0
  0
SPLINE
  5
AA6
330
A02
100
AcDbEntity
  8
View
100
AcDbSpline
210
0
220
0
230
1
 70
8
 71
2
 72
8
 73
5
 74
0
 40
-0.149509
 40
-0.149509
 40
-0.149509
 40
-0.0747545
 40
-0.0747545
 40
0
 40
0
 40
0
 10
130.624
 20
122.425
 30
0
 10
130.883
 20
122.297
 30
0
 10
131.159
 20
121.989
 30
0
 10
131.435
 20
121.681
 30
0
 10
131.627
 20
121.27
 30
0
  0
LINE
  5
AA7
330
A02
100
AcDbEntity
  8
View
100
AcDbLine
 10
131.627
 20
121.27
 30
0
 11
132.102
 21
121.27
 31
0
  0
SPLINE
  5
AA8
330
A02
100
AcDbEntity
  8
View
100
AcDbSpline
210
0
220
0
230
1
 70
8
 71
2
 72
8
 73
5
 74
0
 40
-0.101701
 40
-0.101701
 40
-0.101701
 40
-0.0508503
 40
-0.0508503
 40
0
 40
0
 40
0
 10
132.102
 20
121.27
 30
0
 10
132.017
 20
121.498
 30
0
 10
131.848
 20
121.786
 30
0
 10
131.678
 20
122.074
 30
0
 10
131.511
 20
122.251
 30
0
  0
LINE
  5
AA9
330
A02
100
AcDbEntity
  8
View
100
AcDbLine
 10
131.511
 20
122.251
 30
0
 11
134.639
 21
122.251
 31
0
  0
LINE
  5
AAA
330
A02
100
AcDbEntity
  8
View
100
AcDbLine
 10
134.639
 20
122.251
 30
0
 11
134.639
 21
122.742
 31
0
  0
SPLINE
  5
AAB
330
A02
100
AcDbEntity
  8
View
100
AcDbSpline
210
0
220
0
230
1
 70
8
 71
2
 72
6
 73
3
 74
0
 40
0
 40
0
 40
0
 40
1.00009
 40
1.00009
 40
1.00009
 10
131.627
 20
121.27
 30
0
 10
131.435
 20
121.681
 30
0
 10
131.159
 20
121.989
 30
0
  0
SPLINE
  5
AAC
330
A02
100
AcDbEntity
  8
View
100
AcDbSpline
210
0
220
0
230
1
 70
8
 71
2
 72
8
 73
5
 74
0
 40
0
 40
0
 40
0
 40
1
 40
1
 40
2
 40
2
 40
2
 10
131.511
 20
122.251
 30
0
 10
131.678
 20
122.074
 30
0
 10
131.848
 20
121.786
 30
0
 10
132.017
 20
121.498
 30
0
 10
132.102
 20
121.27
 30
0
  0
SPLINE
  5
AAD
330
A02
100
AcDbEntity
  8
View
100
AcDbSpline
210
0
220
0
230
1
 70
8
 71
2
 72
8
 73
5
 74
0
 40
-0.277773
 40
-0.277773
 40
-0.277773
 40
-0.138887
 40
-0.138887
 40
0
 40
0
 40
0
 10
133.59
 20
124.001
 30
0
 10
134.096
 20
124.05
 30
0
 10
134.401
 20
124.396
 30
0
 10
134.706
 20
124.742
 30
0
 10
134.706
 20
125.288
 30
0
  0
SPLINE
  5
AAE
330
A02
100
AcDbEntity
  8
View
100
AcDbSpline
210
0
220
0
230
1
 70
8
 71
2
 72
6
 73
3
 74
0
 40
-0.12069
 40
-0.12069
 40
-0.12069
 40
0
 40
0
 40
0
 10
134.706
 20
125.288
 30
0
 10
134.706
 20
125.953
 30
0
 10
134.221
 20
126.337
 30
0
  0
SPLINE
  5
AAF
330
A02
100
AcDbEntity
  8
View
100
AcDbSpline
210
0
220
0
230
1
 70
8
 71
2
 72
6
 73
3
 74
0
 40
-0.102209
 40
-0.102209
 40
-0.102209
 40
0
 40
0
 40
0
 10
134.221
 20
126.337
 30
0
 10
133.825
 20
126.654
 30
0
 10
133.279
 20
126.654
 30
0
  0
SPLINE
  5
AB0
330
A02
100
AcDbEntity
  8
View
100
AcDbSpline
210
0
220
0
230
1
 70
8
 71
2
 72
8
 73
5
 74
0
 40
-0.174565
 40
-0.174565
 40
-0.174565
 40
-0.0872823
 40
-0.0872823
 40
0
 40
0
 40
0
 10
133.279
 20
126.654
 30
0
 10
132.709
 20
126.654
 30
0
 10
132.346
 20
126.294
 30
0
 10
131.983
 20
125.934
 30
0
 10
131.983
 20
125.41
 30
0
  0
SPLINE
  5
AB1
330
A02
100
AcDbEntity
  8
View
100
AcDbSpline
210
0
220
0
230
1
 70
8
 71
2
 72
6
 73
3
 74
0
 40
-0.0814148
 40
-0.0814148
 40
-0.0814148
 40
0
 40
0
 40
0
 10
131.983
 20
125.41
 30
0
 10
131.983
 20
125.013
 30
0
 10
132.233
 20
124.654
 30
0
  0
LINE
  5
AB2
330
A02
100
AcDbEntity
  8
View
100
AcDbLine
 10
132.233
 20
124.654
 30
0
 11
131.16
 21
124.87
 31
0
  0
LINE
  5
AB3
330
A02
100
AcDbEntity
  8
View
100
AcDbLine
 10
131.16
 20
124.87
 30
0
 11
131.16
 21
126.465
 31
0
  0
LINE
  5
AB4
330
A02
100
AcDbEntity
  8
View
100
AcDbLine
 10
131.16
 20
126.465
 30
0
 11
130.691
 21
126.465
 31
0
  0
LINE
  5
AB5
330
A02
100
AcDbEntity
  8
View
100
AcDbLine
 10
130.691
 20
126.465
 30
0
 11
130.691
 21
124.477
 31
0
  0
LINE
  5
AB6
330
A02
100
AcDbEntity
  8
View
100
AcDbLine
 10
130.691
 20
124.477
 30
0
 11
132.746
 21
124.09
 31
0
  0
LINE
  5
AB7
330
A02
100
AcDbEntity
  8
View
100
AcDbLine
 10
132.746
 20
124.09
 30
0
 11
132.807
 21
124.55
 31
0
  0
SPLINE
  5
AB8
330
A02
100
AcDbEntity
  8
View
100
AcDbSpline
210
0
220
0
230
1
 70
8
 71
2
 72
8
 73
5
 74
0
 40
-0.111073
 40
-0.111073
 40
-0.111073
 40
-0.0555364
 40
-0.0555364
 40
0
 40
0
 40
0
 10
132.807
 20
124.55
 30
0
 10
132.633
 20
124.66
 30
0
 10
132.525
 20
124.85
 30
0
 10
132.416
 20
125.041
 30
0
 10
132.416
 20
125.279
 30
0
  0
SPLINE
  5
AB9
330
A02
100
AcDbEntity
  8
View
100
AcDbSpline
210
0
220
0
230
1
 70
8
 71
2
 72
8
 73
5
 74
0
 40
-0.205887
 40
-0.205887
 40
-0.205887
 40
-0.102944
 40
-0.102944
 40
0
 40
0
 40
0
 10
132.416
 20
125.279
 30
0
 10
132.416
 20
125.663
 30
0
 10
132.66
 20
125.898
 30
0
 10
132.904
 20
126.132
 30
0
 10
133.325
 20
126.132
 30
0
  0
SPLINE
  5
ABA
330
A02
100
AcDbEntity
  8
View
100
AcDbSpline
210
0
220
0
230
1
 70
8
 71
2
 72
8
 73
5
 74
0
 40
-0.115221
 40
-0.115221
 40
-0.115221
 40
-0.0576103
 40
-0.0576103
 40
0
 40
0
 40
0
 10
133.325
 20
126.132
 30
0
 10
133.767
 20
126.132
 30
0
 10
134.035
 20
125.888
 30
0
 10
134.303
 20
125.645
 30
0
 10
134.303
 20
125.285
 30
0
  0
SPLINE
  5
ABB
330
A02
100
AcDbEntity
  8
View
100
AcDbSpline
210
0
220
0
230
1
 70
8
 71
2
 72
8
 73
5
 74
0
 40
-0.0988116
 40
-0.0988116
 40
-0.0988116
 40
-0.0494058
 40
-0.0494058
 40
0
 40
0
 40
0
 10
134.303
 20
125.285
 30
0
 10
134.303
 20
124.989
 30
0
 10
134.114
 20
124.782
 30
0
 10
133.925
 20
124.574
 30
0
 10
133.547
 20
124.517
 30
0
  0
LINE
  5
ABC
330
A02
100
AcDbEntity
  8
View
100
AcDbLine
 10
133.547
 20
124.517
 30
0
 11
133.59
 21
124.001
 31
0
  0
SPLINE
  5
ABD
330
A02
100
AcDbEntity
  8
View
100
AcDbSpline
210
0
220
0
230
1
 70
8
 71
2
 72
6
 73
3
 74
0
 40
0
 40
0
 40
0
 40
1
 40
1
 40
1
 10
132.233
 20
124.654
 30
0
 10
131.983
 20
125.013
 30
0
 10
131.983
 20
125.41
 30
0
  0
SPLINE
  5
ABE
330
A02
100
AcDbEntity
  8
View
100
AcDbSpline
210
0
220
0
230
1
 70
8
 71
2
 72
6
 73
3
 74
0
 40
0
 40
0
 40
0
 40
0.624878
 40
0.624878
 40
0.624878
 10
131.983
 20
125.41
 30
0
 10
131.983
 20
125.737
 30
0
 10
132.125
 20
126.001
 30
0
  0
SPLINE
  5
ABF
330
A02
100
AcDbEntity
  8
View
100
AcDbSpline
210
0
220
0
230
1
 70
8
 71
2
 72
6
 73
3
 74
0
 40
0.999886
 40
0.999886
 40
0.999886
 40
2
 40
2
 40
2
 10
132.346
 20
126.294
 30
0
 10
132.709
 20
126.654
 30
0
 10
133.279
 20
126.654
 30
0
  0
SPLINE
  5
AC0
330
A02
100
AcDbEntity
  8
View
100
AcDbSpline
210
0
220
0
230
1
 70
8
 71
2
 72
6
 73
3
 74
0
 40
0
 40
0
 40
0
 40
1
 40
1
 40
1
 10
133.279
 20
126.654
 30
0
 10
133.825
 20
126.654
 30
0
 10
134.221
 20
126.337
 30
0
  0
SPLINE
  5
AC1
330
A02
100
AcDbEntity
  8
View
100
AcDbSpline
210
0
220
0
230
1
 70
8
 71
2
 72
6
 73
3
 74
0
 40
0
 40
0
 40
0
 40
1
 40
1
 40
1
 10
134.221
 20
126.337
 30
0
 10
134.706
 20
125.953
 30
0
 10
134.706
 20
125.288
 30
0
  0
SPLINE
  5
AC2
330
A02
100
AcDbEntity
  8
View
100
AcDbSpline
210
0
220
0
230
1
 70
8
 71
2
 72
6
 73
3
 74
0
 40
0
 40
0
 40
0
 40
1.0001
 40
1.0001
 40
1.0001
 10
134.706
 20
125.288
 30
0
 10
134.706
 20
124.742
 30
0
 10
134.401
 20
124.396
 30
0
  0
SPLINE
  5
AC3
330
A02
100
AcDbEntity
  8
View
100
AcDbSpline
210
0
220
0
230
1
 70
8
 71
2
 72
6
 73
3
 74
0
 40
1.35552
 40
1.35552
 40
1.35552
 40
2
 40
2
 40
2
 10
134.159
 20
124.188
 30
0
 10
133.916
 20
124.033
 30
0
 10
133.59
 20
124.001
 30
0
  0
SPLINE
  5
AC4
330
A02
100
AcDbEntity
  8
View
100
AcDbSpline
210
0
220
0
230
1
 70
8
 71
2
 72
6
 73
3
 74
0
 40
0
 40
0
 40
0
 40
1.00008
 40
1.00008
 40
1.00008
 10
132.416
 20
125.279
 30
0
 10
132.416
 20
125.041
 30
0
 10
132.525
 20
124.85
 30
0
  0
SPLINE
  5
AC5
330
A02
100
AcDbEntity
  8
View
100
AcDbSpline
210
0
220
0
230
1
 70
8
 71
2
 72
6
 73
3
 74
0
 40
0.856083
 40
0.856083
 40
0.856083
 40
1.01469
 40
1.01469
 40
1.01469
 10
134.107
 20
125.816
 30
0
 10
134.07
 20
125.857
 30
0
 10
134.027
 20
125.896
 30
0
  0
SPLINE
  5
AC6
330
A02
100
AcDbEntity
  8
View
100
AcDbSpline
210
0
220
0
230
1
 70
8
 71
1
 72
4
 73
2
 74
0
 40
0.983333
 40
0.983333
 40
1.00013
 40
1.00013
 10
134.108
 20
124.775
 30
0
 10
134.115
 20
124.782
 30
0
  0
SPLINE
  5
AC7
330
A02
100
AcDbEntity
  8
View
100
AcDbSpline
210
0
220
0
230
1
 70
8
 71
1
 72
4
 73
2
 74
0
 40
1.03717
 40
1.03717
 40
1.03729
 40
1.03729
 10
134.128
 20
124.797
 30
0
 10
134.128
 20
124.797
 30
0
  0
SPLINE
  5
AC8
330
A02
100
AcDbEntity
  8
View
100
AcDbSpline
210
0
220
0
230
1
 70
8
 71
1
 72
4
 73
2
 74
0
 40
1.05575
 40
1.05575
 40
1.05586
 40
1.05586
 10
134.135
 20
124.805
 30
0
 10
134.135
 20
124.805
 30
0
  0
SPLINE
  5
AC9
330
A02
100
AcDbEntity
  8
View
100
AcDbSpline
210
0
220
0
230
1
 70
8
 71
1
 72
4
 73
2
 74
0
 40
1.07433
 40
1.07433
 40
1.07444
 40
1.07444
 10
134.142
 20
124.813
 30
0
 10
134.142
 20
124.813
 30
0
  0
SPLINE
  5
ACA
330
A02
100
AcDbEntity
  8
View
100
AcDbSpline
210
0
220
0
230
1
 70
8
 71
1
 72
4
 73
2
 74
0
 40
1.09291
 40
1.09291
 40
1.09302
 40
1.09302
 10
134.148
 20
124.821
 30
0
 10
134.148
 20
124.821
 30
0
  0
SPLINE
  5
ACB
330
A02
100
AcDbEntity
  8
View
100
AcDbSpline
210
0
220
0
230
1
 70
8
 71
1
 72
4
 73
2
 74
0
 40
1.1115
 40
1.1115
 40
1.1116
 40
1.1116
 10
134.154
 20
124.829
 30
0
 10
134.154
 20
124.829
 30
0
  0
SPLINE
  5
ACC
330
A02
100
AcDbEntity
  8
View
100
AcDbSpline
210
0
220
0
230
1
 70
8
 71
1
 72
4
 73
2
 74
0
 40
1.13008
 40
1.13008
 40
1.13017
 40
1.13017
 10
134.16
 20
124.837
 30
0
 10
134.16
 20
124.837
 30
0
  0
SPLINE
  5
ACD
330
A02
100
AcDbEntity
  8
View
100
AcDbSpline
210
0
220
0
230
1
 70
8
 71
2
 72
8
 73
5
 74
0
 40
-0.212158
 40
-0.212158
 40
-0.212158
 40
-0.106079
 40
-0.106079
 40
0
 40
0
 40
0
 10
133.712
 20
127.181
 30
0
 10
134.185
 20
127.242
 30
0
 10
134.445
 20
127.539
 30
0
 10
134.706
 20
127.837
 30
0
 10
134.706
 20
128.303
 30
0
  0
SPLINE
  5
ACE
330
A02
100
AcDbEntity
  8
View
100
AcDbSpline
210
0
220
0
230
1
 70
8
 71
2
 72
10
 73
7
 74
0
 40
-0.296152
 40
-0.296152
 40
-0.296152
 40
-0.197435
 40
-0.197435
 40
-0.0987173
 40
-0.0987173
 40
0
 40
0
 40
0
 10
134.706
 20
128.303
 30
0
 10
134.706
 20
128.745
 30
0
 10
134.468
 20
129.074
 30
0
 10
134.23
 20
129.404
 30
0
 10
133.778
 20
129.57
 30
0
 10
133.325
 20
129.736
 30
0
 10
132.557
 20
129.736
 30
0
  0
SPLINE
  5
ACF
330
A02
100
AcDbEntity
  8
View
100
AcDbSpline
210
0
220
0
230
1
 70
8
 71
2
 72
10
 73
7
 74
0
 40
-0.149636
 40
-0.149636
 40
-0.149636
 40
-0.0997575
 40
-0.0997575
 40
-0.0498787
 40
-0.0498787
 40
0
 40
0
 40
0
 10
132.557
 20
129.736
 30
0
 10
131.822
 20
129.736
 30
0
 10
131.433
 20
129.568
 30
0
 10
131.044
 20
129.401
 30
0
 10
130.834
 20
129.078
 30
0
 10
130.624
 20
128.754
 30
0
 10
130.624
 20
128.364
 30
0
  0
SPLINE
  5
AD0
330
A02
100
AcDbEntity
  8
View
100
AcDbSpline
210
0
220
0
230
1
 70
8
 71
2
 72
8
 73
5
 74
0
 40
-0.298304
 40
-0.298304
 40
-0.298304
 40
-0.149152
 40
-0.149152
 40
0
 40
0
 40
0
 10
130.624
 20
128.364
 30
0
 10
130.624
 20
127.824
 30
0
 10
130.994
 20
127.466
 30
0
 10
131.364
 20
127.108
 30
0
 10
131.974
 20
127.108
 30
0
  0
SPLINE
  5
AD1
330
A02
100
AcDbEntity
  8
View
100
AcDbSpline
210
0
220
0
230
1
 70
8
 71
2
 72
8
 73
5
 74
0
 40
-0.198892
 40
-0.198892
 40
-0.198892
 40
-0.0994459
 40
-0.0994459
 40
0
 40
0
 40
0
 10
131.974
 20
127.108
 30
0
 10
132.563
 20
127.108
 30
0
 10
132.922
 20
127.451
 30
0
 10
133.282
 20
127.794
 30
0
 10
133.282
 20
128.291
 30
0
  0
SPLINE
  5
AD2
330
A02
100
AcDbEntity
  8
View
100
AcDbSpline
210
0
220
0
230
1
 70
8
 71
2
 72
8
 73
5
 74
0
 40
-0.0949165
 40
-0.0949165
 40
-0.0949165
 40
-0.0474582
 40
-0.0474582
 40
0
 40
0
 40
0
 10
133.282
 20
128.291
 30
0
 10
133.282
 20
128.59
 30
0
 10
133.136
 20
128.844
 30
0
 10
132.989
 20
129.099
 30
0
 10
132.755
 20
129.245
 30
0
  0
SPLINE
  5
AD3
330
A02
100
AcDbEntity
  8
View
100
AcDbSpline
210
0
220
0
230
1
 70
8
 71
2
 72
6
 73
3
 74
0
 40
-0.00938602
 40
-0.00938602
 40
-0.00938602
 40
0
 40
0
 40
0
 10
132.755
 20
129.245
 30
0
 10
132.822
 20
129.248
 30
0
 10
132.852
 20
129.248
 30
0
  0
SPLINE
  5
AD4
330
A02
100
AcDbEntity
  8
View
100
AcDbSpline
210
0
220
0
230
1
 70
8
 71
2
 72
12
 73
9
 74
0
 40
-0.461985
 40
-0.461985
 40
-0.461985
 40
-0.346489
 40
-0.346489
 40
-0.230992
 40
-0.230992
 40
-0.115496
 40
-0.115496
 40
0
 40
0
 40
0
 10
132.852
 20
129.248
 30
0
 10
133.16
 20
129.248
 30
0
 10
133.454
 20
129.175
 30
0
 10
133.749
 20
129.102
 30
0
 10
133.922
 20
128.994
 30
0
 10
134.096
 20
128.885
 30
0
 10
134.2
 20
128.713
 30
0
 10
134.303
 20
128.541
 30
0
 10
134.303
 20
128.315
 30
0
  0
SPLINE
  5
AD5
330
A02
100
AcDbEntity
  8
View
100
AcDbSpline
210
0
220
0
230
1
 70
8
 71
2
 72
8
 73
5
 74
0
 40
-0.116703
 40
-0.116703
 40
-0.116703
 40
-0.0583513
 40
-0.0583513
 40
0
 40
0
 40
0
 10
134.303
 20
128.315
 30
0
 10
134.303
 20
128.053
 30
0
 10
134.153
 20
127.884
 30
0
 10
134.002
 20
127.715
 30
0
 10
133.669
 20
127.654
 30
0
  0
LINE
  5
AD6
330
A02
100
AcDbEntity
  8
View
100
AcDbLine
 10
133.669
 20
127.654
 30
0
 11
133.712
 21
127.181
 31
0
  0
SPLINE
  5
AD7
330
A02
100
AcDbEntity
  8
View
100
AcDbSpline
210
0
220
0
230
1
 70
8
 71
2
 72
8
 73
5
 74
0
 40
-0.122964
 40
-0.122964
 40
-0.122964
 40
-0.0614819
 40
-0.0614819
 40
0
 40
0
 40
0
 10
131.989
 20
127.614
 30
0
 10
131.563
 20
127.614
 30
0
 10
131.296
 20
127.855
 30
0
 10
131.029
 20
128.096
 30
0
 10
131.029
 20
128.425
 30
0
  0
SPLINE
  5
AD8
330
A02
100
AcDbEntity
  8
View
100
AcDbSpline
210
0
220
0
230
1
 70
8
 71
2
 72
8
 73
5
 74
0
 40
-0.168898
 40
-0.168898
 40
-0.168898
 40
-0.0844489
 40
-0.0844489
 40
0
 40
0
 40
0
 10
131.029
 20
128.425
 30
0
 10
131.029
 20
128.742
 30
0
 10
131.278
 20
128.966
 30
0
 10
131.526
 20
129.19
 30
0
 10
131.95
 20
129.19
 30
0
  0
SPLINE
  5
AD9
330
A02
100
AcDbEntity
  8
View
100
AcDbSpline
210
0
220
0
230
1
 70
8
 71
2
 72
8
 73
5
 74
0
 40
-0.155767
 40
-0.155767
 40
-0.155767
 40
-0.0778835
 40
-0.0778835
 40
0
 40
0
 40
0
 10
131.95
 20
129.19
 30
0
 10
132.371
 20
129.19
 30
0
 10
132.61
 20
128.971
 30
0
 10
132.849
 20
128.751
 30
0
 10
132.849
 20
128.413
 30
0
  0
SPLINE
  5
ADA
330
A02
100
AcDbEntity
  8
View
100
AcDbSpline
210
0
220
0
230
1
 70
8
 71
2
 72
8
 73
5
 74
0
 40
-0.171897
 40
-0.171897
 40
-0.171897
 40
-0.0859484
 40
-0.0859484
 40
0
 40
0
 40
0
 10
132.849
 20
128.413
 30
0
 10
132.849
 20
128.071
 30
0
 10
132.61
 20
127.843
 30
0
 10
132.371
 20
127.614
 30
0
 10
131.989
 20
127.614
 30
0
  0
SPLINE
  5
ADB
330
A02
100
AcDbEntity
  8
View
100
AcDbSpline
210
0
220
0
230
1
 70
8
 71
2
 72
6
 73
3
 74
0
 40
0.993308
 40
0.993308
 40
0.993308
 40
1.14391
 40
1.14391
 40
1.14391
 10
131.281
 20
128.969
 30
0
 10
131.243
 20
128.936
 30
0
 10
131.211
 20
128.9
 30
0
  0
SPLINE
  5
ADC
330
A02
100
AcDbEntity
  8
View
100
AcDbSpline
210
0
220
0
230
1
 70
8
 71
2
 72
6
 73
3
 74
0
 40
0.856084
 40
0.856084
 40
0.856084
 40
1.00807
 40
1.00807
 40
1.00807
 10
131.225
 20
127.926
 30
0
 10
131.259
 20
127.888
 30
0
 10
131.3
 20
127.851
 30
0
  0
SPLINE
  5
ADD
330
A02
100
AcDbEntity
  8
View
100
AcDbSpline
210
0
220
0
230
1
 70
8
 71
2
 72
6
 73
3
 74
0
 40
1.02042
 40
1.02042
 40
1.02042
 40
1.17246
 40
1.17246
 40
1.17246
 10
131.307
 20
127.845
 30
0
 10
131.348
 20
127.809
 30
0
 10
131.393
 20
127.779
 30
0
  0
SPLINE
  5
ADE
330
A02
100
AcDbEntity
  8
View
100
AcDbSpline
210
0
220
0
230
1
 70
8
 71
2
 72
6
 73
3
 74
0
 40
0
 40
0
 40
0
 40
0.659381
 40
0.659381
 40
0.659381
 10
133.282
 20
128.291
 30
0
 10
133.282
 20
127.963
 30
0
 10
133.126
 20
127.702
 30
0
  0
SPLINE
  5
ADF
330
A02
100
AcDbEntity
  8
View
100
AcDbSpline
210
0
220
0
230
1
 70
8
 71
2
 72
6
 73
3
 74
0
 40
1.6
 40
1.6
 40
1.6
 40
2
 40
2
 40
2
 10
132.408
 20
127.163
 30
0
 10
132.21
 20
127.108
 30
0
 10
131.974
 20
127.108
 30
0
  0
SPLINE
  5
AE0
330
A02
100
AcDbEntity
  8
View
100
AcDbSpline
210
0
220
0
230
1
 70
8
 71
2
 72
6
 73
3
 74
0
 40
0
 40
0
 40
0
 40
0.537395
 40
0.537395
 40
0.537395
 10
131.974
 20
127.108
 30
0
 10
131.647
 20
127.108
 30
0
 10
131.388
 20
127.211
 30
0
  0
SPLINE
  5
AE1
330
A02
100
AcDbEntity
  8
View
100
AcDbSpline
210
0
220
0
230
1
 70
8
 71
1
 72
4
 73
2
 74
0
 40
0.872385
 40
0.872385
 40
0.9523
 40
0.9523
 10
131.092
 20
127.381
 30
0
 10
131.03
 20
127.433
 30
0
  0
SPLINE
  5
AE2
330
A02
100
AcDbEntity
  8
View
100
AcDbSpline
210
0
220
0
230
1
 70
8
 71
2
 72
6
 73
3
 74
0
 40
1.6
 40
1.6
 40
1.6
 40
2
 40
2
 40
2
 10
130.683
 20
127.961
 30
0
 10
130.624
 20
128.148
 30
0
 10
130.624
 20
128.364
 30
0
  0
SPLINE
  5
AE3
330
A02
100
AcDbEntity
  8
View
100
AcDbSpline
210
0
220
0
230
1
 70
8
 71
2
 72
6
 73
3
 74
0
 40
0
 40
0
 40
0
 40
0.83968
 40
0.83968
 40
0.83968
 10
130.624
 20
128.364
 30
0
 10
130.624
 20
128.692
 30
0
 10
130.772
 20
128.972
 30
0
  0
SPLINE
  5
AE4
330
A02
100
AcDbEntity
  8
View
100
AcDbSpline
210
0
220
0
230
1
 70
8
 71
1
 72
4
 73
2
 74
0
 40
2.22829
 40
2.22829
 40
2.22857
 40
2.22857
 10
131.629
 20
129.636
 30
0
 10
131.629
 20
129.636
 30
0
  0
SPLINE
  5
AE5
330
A02
100
AcDbEntity
  8
View
100
AcDbSpline
210
0
220
0
230
1
 70
8
 71
2
 72
6
 73
3
 74
0
 40
2.23205
 40
2.23205
 40
2.23205
 40
3
 40
3
 40
3
 10
131.632
 20
129.637
 30
0
 10
131.992
 20
129.736
 30
0
 10
132.557
 20
129.736
 30
0
  0
SPLINE
  5
AE6
330
A02
100
AcDbEntity
  8
View
100
AcDbSpline
210
0
220
0
230
1
 70
8
 71
2
 72
6
 73
3
 74
0
 40
0
 40
0
 40
0
 40
0.739961
 40
0.739961
 40
0.739961
 10
132.557
 20
129.736
 30
0
 10
133.125
 20
129.736
 30
0
 10
133.521
 20
129.645
 30
0
  0
SPLINE
  5
AE7
330
A02
100
AcDbEntity
  8
View
100
AcDbSpline
210
0
220
0
230
1
 70
8
 71
1
 72
4
 73
2
 74
0
 40
0.742858
 40
0.742858
 40
0.771696
 40
0.771696
 10
133.524
 20
129.644
 30
0
 10
133.554
 20
129.637
 30
0
  0
SPLINE
  5
AE8
330
A02
100
AcDbEntity
  8
View
100
AcDbSpline
210
0
220
0
230
1
 70
8
 71
2
 72
8
 73
5
 74
0
 40
1.00062
 40
1.00062
 40
1.00062
 40
2
 40
2
 40
3
 40
3
 40
3
 10
133.778
 20
129.57
 30
0
 10
134.23
 20
129.404
 30
0
 10
134.468
 20
129.074
 30
0
 10
134.706
 20
128.745
 30
0
 10
134.706
 20
128.303
 30
0
  0
SPLINE
  5
AE9
330
A02
100
AcDbEntity
  8
View
100
AcDbSpline
210
0
220
0
230
1
 70
8
 71
2
 72
6
 73
3
 74
0
 40
0
 40
0
 40
0
 40
0.4
 40
0.4
 40
0.4
 10
134.706
 20
128.303
 30
0
 10
134.706
 20
128.117
 30
0
 10
134.664
 20
127.957
 30
0
  0
SPLINE
  5
AEA
330
A02
100
AcDbEntity
  8
View
100
AcDbSpline
210
0
220
0
230
1
 70
8
 71
1
 72
4
 73
2
 74
0
 40
0.712162
 40
0.712162
 40
0.712243
 40
0.712243
 10
134.574
 20
127.725
 30
0
 10
134.574
 20
127.724
 30
0
  0
SPLINE
  5
AEB
330
A02
100
AcDbEntity
  8
View
100
AcDbSpline
210
0
220
0
230
1
 70
8
 71
2
 72
6
 73
3
 74
0
 40
0.999996
 40
0.999996
 40
0.999996
 40
2
 40
2
 40
2
 10
134.445
 20
127.539
 30
0
 10
134.185
 20
127.242
 30
0
 10
133.712
 20
127.181
 30
0
  0
SPLINE
  5
AEC
330
A02
100
AcDbEntity
  8
View
100
AcDbSpline
210
0
220
0
230
1
 70
8
 71
2
 72
6
 73
3
 74
0
 40
0
 40
0
 40
0
 40
1.00001
 40
1.00001
 40
1.00001
 10
132.755
 20
129.245
 30
0
 10
132.989
 20
129.099
 30
0
 10
133.136
 20
128.844
 30
0
  0
SPLINE
  5
AED
330
A02
100
AcDbEntity
  8
View
100
AcDbSpline
210
0
220
0
230
1
 70
8
 71
2
 72
6
 73
3
 74
0
 40
1.28776
 40
1.28776
 40
1.28776
 40
2
 40
2
 40
2
 10
133.208
 20
128.694
 30
0
 10
133.282
 20
128.504
 30
0
 10
133.282
 20
128.291
 30
0
  0
SPLINE
  5
AEE
330
A02
100
AcDbEntity
  8
View
100
AcDbSpline
210
0
220
0
230
1
 70
8
 71
1
 72
4
 73
2
 74
0
 40
0.70744
 40
0.70744
 40
0.707538
 40
0.707538
 10
134.049
 20
127.794
 30
0
 10
134.049
 20
127.794
 30
0
  0
SPLINE
  5
AEF
330
A02
100
AcDbEntity
  8
View
100
AcDbSpline
210
0
220
0
230
1
 70
8
 71
1
 72
4
 73
2
 74
0
 40
0.985073
 40
0.985073
 40
1.00008
 40
1.00008
 10
134.148
 20
127.879
 30
0
 10
134.153
 20
127.884
 30
0
  0
SPLINE
  5
AF0
330
A02
100
AcDbEntity
  8
View
100
AcDbSpline
210
0
220
0
230
1
 70
8
 71
1
 72
4
 73
2
 74
0
 40
1.01563
 40
1.01563
 40
1.01571
 40
1.01571
 10
134.157
 20
127.889
 30
0
 10
134.157
 20
127.889
 30
0
  0
SPLINE
  5
AF1
330
A02
100
AcDbEntity
  8
View
100
AcDbSpline
210
0
220
0
230
1
 70
8
 71
1
 72
4
 73
2
 74
0
 40
1.03126
 40
1.03126
 40
1.03134
 40
1.03134
 10
134.162
 20
127.895
 30
0
 10
134.162
 20
127.895
 30
0
  0
SPLINE
  5
AF2
330
A02
100
AcDbEntity
  8
View
100
AcDbSpline
210
0
220
0
230
1
 70
8
 71
1
 72
4
 73
2
 74
0
 40
1.04689
 40
1.04689
 40
1.04696
 40
1.04696
 10
134.166
 20
127.9
 30
0
 10
134.166
 20
127.9
 30
0
  0
SPLINE
  5
AF3
330
A02
100
AcDbEntity
  8
View
100
AcDbSpline
210
0
220
0
230
1
 70
8
 71
1
 72
4
 73
2
 74
0
 40
1.06252
 40
1.06252
 40
1.06259
 40
1.06259
 10
134.171
 20
127.905
 30
0
 10
134.171
 20
127.905
 30
0
  0
SPLINE
  5
AF4
330
A02
100
AcDbEntity
  8
View
100
AcDbSpline
210
0
220
0
230
1
 70
8
 71
2
 72
6
 73
3
 74
0
 40
-0.161065
 40
-0.161065
 40
-0.161065
 40
0
 40
0
 40
0
 10
132.666
 20
130.215
 30
0
 10
133.791
 20
130.215
 30
0
 10
134.294
 20
130.611
 30
0
  0
SPLINE
  5
AF5
330
A02
100
AcDbEntity
  8
View
100
AcDbSpline
210
0
220
0
230
1
 70
8
 71
2
 72
6
 73
3
 74
0
 40
-0.103987
 40
-0.103987
 40
-0.103987
 40
0
 40
0
 40
0
 10
134.294
 20
130.611
 30
0
 10
134.706
 20
130.94
 30
0
 10
134.706
 20
131.52
 30
0
  0
SPLINE
  5
AF6
330
A02
100
AcDbEntity
  8
View
100
AcDbSpline
210
0
220
0
230
1
 70
8
 71
2
 72
10
 73
7
 74
0
 40
-1.04403
 40
-1.04403
 40
-1.04403
 40
-0.696017
 40
-0.696017
 40
-0.348008
 40
-0.348008
 40
0
 40
0
 40
0
 10
134.706
 20
131.52
 30
0
 10
134.706
 20
131.956
 30
0
 10
134.471
 20
132.244
 30
0
 10
134.236
 20
132.532
 30
0
 10
133.803
 20
132.677
 30
0
 10
133.371
 20
132.821
 30
0
 10
132.666
 20
132.821
 30
0
  0
SPLINE
  5
AF7
330
A02
100
AcDbEntity
  8
View
100
AcDbSpline
210
0
220
0
230
1
 70
8
 71
3
 72
14
 73
10
 74
0
 40
-0.158789
 40
-0.158789
 40
-0.158789
 40
-0.158789
 40
-0.119092
 40
-0.119092
 40
-0.119092
 40
-0.0793943
 40
-0.0793943
 40
-0.0793943
 40
0
 40
0
 40
0
 40
0
 10
132.666
 20
132.821
 30
0
 10
132.27
 20
132.821
 30
0
 10
131.955
 20
132.791
 30
0
 10
131.721
 20
132.731
 30
0
 10
131.487
 20
132.672
 30
0
 10
131.289
 20
132.589
 30
0
 10
131.127
 20
132.485
 30
0
 10
130.803
 20
132.276
 30
0
 10
130.622
 20
131.945
 30
0
 10
130.624
 20
131.52
 30
0
  0
SPLINE
  5
AF8
330
A02
100
AcDbEntity
  8
View
100
AcDbSpline
210
0
220
0
230
1
 70
8
 71
2
 72
10
 73
7
 74
0
 40
-1.07579
 40
-1.07579
 40
-1.07579
 40
-0.71719
 40
-0.71719
 40
-0.358595
 40
-0.358595
 40
0
 40
0
 40
0
 10
130.624
 20
131.52
 30
0
 10
130.624
 20
131.081
 30
0
 10
130.857
 20
130.794
 30
0
 10
131.09
 20
130.507
 30
0
 10
131.523
 20
130.361
 30
0
 10
131.956
 20
130.215
 30
0
 10
132.666
 20
130.215
 30
0
  0
SPLINE
  5
AF9
330
A02
100
AcDbEntity
  8
View
100
AcDbSpline
210
0
220
0
230
1
 70
8
 71
2
 72
8
 73
5
 74
0
 40
-0.135126
 40
-0.135126
 40
-0.135126
 40
-0.0675628
 40
-0.0675628
 40
0
 40
0
 40
0
 10
132.666
 20
132.315
 30
0
 10
133.651
 20
132.315
 30
0
 10
133.977
 20
132.085
 30
0
 10
134.303
 20
131.855
 30
0
 10
134.303
 20
131.52
 30
0
  0
SPLINE
  5
AFA
330
A02
100
AcDbEntity
  8
View
100
AcDbSpline
210
0
220
0
230
1
 70
8
 71
2
 72
8
 73
5
 74
0
 40
-0.365112
 40
-0.365112
 40
-0.365112
 40
-0.182556
 40
-0.182556
 40
0
 40
0
 40
0
 10
134.303
 20
131.52
 30
0
 10
134.303
 20
131.181
 30
0
 10
133.979
 20
130.951
 30
0
 10
133.654
 20
130.721
 30
0
 10
132.666
 20
130.721
 30
0
  0
SPLINE
  5
AFB
330
A02
100
AcDbEntity
  8
View
100
AcDbSpline
210
0
220
0
230
1
 70
8
 71
2
 72
6
 73
3
 74
0
 40
-0.120851
 40
-0.120851
 40
-0.120851
 40
0
 40
0
 40
0
 10
132.666
 20
130.721
 30
0
 10
131.682
 20
130.721
 30
0
 10
131.316
 20
130.974
 30
0
  0
SPLINE
  5
AFC
330
A02
100
AcDbEntity
  8
View
100
AcDbSpline
210
0
220
0
230
1
 70
8
 71
2
 72
6
 73
3
 74
0
 40
-0.0641734
 40
-0.0641734
 40
-0.0641734
 40
0
 40
0
 40
0
 10
131.316
 20
130.974
 30
0
 10
131.029
 20
131.175
 30
0
 10
131.029
 20
131.513
 30
0
  0
SPLINE
  5
AFD
330
A02
100
AcDbEntity
  8
View
100
AcDbSpline
210
0
220
0
230
1
 70
8
 71
2
 72
8
 73
5
 74
0
 40
-0.367398
 40
-0.367398
 40
-0.367398
 40
-0.183699
 40
-0.183699
 40
0
 40
0
 40
0
 10
131.029
 20
131.513
 30
0
 10
131.029
 20
131.855
 30
0
 10
131.354
 20
132.085
 30
0
 10
131.678
 20
132.315
 30
0
 10
132.666
 20
132.315
 30
0
  0
SPLINE
  5
AFE
330
A02
100
AcDbEntity
  8
View
100
AcDbSpline
210
0
220
0
230
1
 70
8
 71
1
 72
4
 73
2
 74
0
 40
1
 40
1
 40
1.00088
 40
1.00088
 10
133.979
 20
130.951
 30
0
 10
133.979
 20
130.951
 30
0
  0
SPLINE
  5
AFF
330
A02
100
AcDbEntity
  8
View
100
AcDbSpline
210
0
220
0
230
1
 70
8
 71
1
 72
4
 73
2
 74
0
 40
1.01303
 40
1.01303
 40
1.01311
 40
1.01311
 10
133.987
 20
130.957
 30
0
 10
133.987
 20
130.957
 30
0
  0
SPLINE
  5
B00
330
A02
100
AcDbEntity
  8
View
100
AcDbSpline
210
0
220
0
230
1
 70
8
 71
1
 72
4
 73
2
 74
0
 40
0.98694
 40
0.98694
 40
0.98702
 40
0.98702
 10
133.986
 20
132.079
 30
0
 10
133.986
 20
132.079
 30
0
  0
SPLINE
  5
B01
330
A02
100
AcDbEntity
  8
View
100
AcDbSpline
210
0
220
0
230
1
 70
8
 71
1
 72
4
 73
2
 74
0
 40
0.999168
 40
0.999168
 40
0.999995
 40
0.999995
 10
133.978
 20
132.085
 30
0
 10
133.977
 20
132.085
 30
0
  0
SPLINE
  5
B02
330
A02
100
AcDbEntity
  8
View
100
AcDbSpline
210
0
220
0
230
1
 70
8
 71
2
 72
6
 73
3
 74
0
 40
0
 40
0
 40
0
 40
0.465277
 40
0.465277
 40
0.465277
 10
132.666
 20
132.821
 30
0
 10
132.994
 20
132.821
 30
0
 10
133.263
 20
132.79
 30
0
  0
SPLINE
  5
B03
330
A02
100
AcDbEntity
  8
View
100
AcDbSpline
210
0
220
0
230
1
 70
8
 71
2
 72
6
 73
3
 74
0
 40
0.944684
 40
0.944684
 40
0.944684
 40
1.10358
 40
1.10358
 40
1.10358
 10
133.755
 20
132.692
 30
0
 10
133.826
 20
132.67
 30
0
 10
133.891
 20
132.645
 30
0
  0
SPLINE
  5
B04
330
A02
100
AcDbEntity
  8
View
100
AcDbSpline
210
0
220
0
230
1
 70
8
 71
2
 72
6
 73
3
 74
0
 40
1.13186
 40
1.13186
 40
1.13186
 40
2.00001
 40
2.00001
 40
2.00001
 10
133.914
 20
132.636
 30
0
 10
134.267
 20
132.494
 30
0
 10
134.471
 20
132.244
 30
0
  0
SPLINE
  5
B05
330
A02
100
AcDbEntity
  8
View
100
AcDbSpline
210
0
220
0
230
1
 70
8
 71
2
 72
6
 73
3
 74
0
 40
2.19184
 40
2.19184
 40
2.19184
 40
3
 40
3
 40
3
 10
134.553
 20
132.128
 30
0
 10
134.706
 20
131.872
 30
0
 10
134.706
 20
131.52
 30
0
  0
SPLINE
  5
B06
330
A02
100
AcDbEntity
  8
View
100
AcDbSpline
210
0
220
0
230
1
 70
8
 71
2
 72
6
 73
3
 74
0
 40
0
 40
0
 40
0
 40
1
 40
1
 40
1
 10
134.706
 20
131.52
 30
0
 10
134.706
 20
130.94
 30
0
 10
134.294
 20
130.611
 30
0
  0
SPLINE
  5
B07
330
A02
100
AcDbEntity
  8
View
100
AcDbSpline
210
0
220
0
230
1
 70
8
 71
2
 72
6
 73
3
 74
0
 40
0
 40
0
 40
0
 40
1
 40
1
 40
1
 10
134.294
 20
130.611
 30
0
 10
133.791
 20
130.215
 30
0
 10
132.666
 20
130.215
 30
0
  0
SPLINE
  5
B08
330
A02
100
AcDbEntity
  8
View
100
AcDbSpline
210
0
220
0
230
1
 70
8
 71
2
 72
6
 73
3
 74
0
 40
0.960002
 40
0.960002
 40
0.960002
 40
1.6
 40
1.6
 40
1.6
 10
131.381
 20
132.103
 30
0
 10
131.164
 20
131.959
 30
0
 10
131.081
 20
131.769
 30
0
  0
SPLINE
  5
B09
330
A02
100
AcDbEntity
  8
View
100
AcDbSpline
210
0
220
0
230
1
 70
8
 71
2
 72
6
 73
3
 74
0
 40
0
 40
0
 40
0
 40
1.00016
 40
1.00016
 40
1.00016
 10
130.624
 20
131.52
 30
0
 10
130.624
 20
131.84
 30
0
 10
130.753
 20
132.084
 30
0
  0
SPLINE
  5
B0A
330
A02
100
AcDbEntity
  8
View
100
AcDbSpline
210
0
220
0
230
1
 70
8
 71
1
 72
4
 73
2
 74
0
 40
1.99866
 40
1.99866
 40
2
 40
2
 10
131.126
 20
132.484
 30
0
 10
131.127
 20
132.485
 30
0
  0
SPLINE
  5
B0B
330
A02
100
AcDbEntity
  8
View
100
AcDbSpline
210
0
220
0
230
1
 70
8
 71
3
 72
8
 73
4
 74
0
 40
2.89765
 40
2.89765
 40
2.89765
 40
2.89765
 40
4
 40
4
 40
4
 40
4
 10
131.651
 20
132.712
 30
0
 10
131.893
 20
132.785
 30
0
 10
132.228
 20
132.822
 30
0
 10
132.666
 20
132.821
 30
0
  0
SPLINE
  5
B0C
330
A02
100
AcDbEntity
  8
View
100
AcDbSpline
210
0
220
0
230
1
 70
8
 71
2
 72
6
 73
3
 74
0
 40
0
 40
0
 40
0
 40
0.739961
 40
0.739961
 40
0.739961
 10
132.666
 20
130.215
 30
0
 10
132.141
 20
130.215
 30
0
 10
131.767
 20
130.295
 30
0
  0
SPLINE
  5
B0D
330
A02
100
AcDbEntity
  8
View
100
AcDbSpline
210
0
220
0
230
1
 70
8
 71
1
 72
4
 73
2
 74
0
 40
0.742858
 40
0.742858
 40
0.771698
 40
0.771698
 10
131.764
 20
130.295
 30
0
 10
131.735
 20
130.302
 30
0
  0
SPLINE
  5
B0E
330
A02
100
AcDbEntity
  8
View
100
AcDbSpline
210
0
220
0
230
1
 70
8
 71
2
 72
6
 73
3
 74
0
 40
2.00005
 40
2.00005
 40
2.00005
 40
3
 40
3
 40
3
 10
130.857
 20
130.794
 30
0
 10
130.624
 20
131.081
 30
0
 10
130.624
 20
131.52
 30
0
  0
SPLINE
  5
B0F
330
A02
100
AcDbEntity
  8
View
100
AcDbSpline
210
0
220
0
230
1
 70
8
 71
2
 72
8
 73
5
 74
0
 40
-0.303954
 40
-0.303954
 40
-0.303954
 40
-0.151977
 40
-0.151977
 40
0
 40
0
 40
0
 10
133.886
 20
137.434
 30
0
 10
134.02
 20
137.303
 30
0
 10
134.093
 20
137.078
 30
0
 10
134.166
 20
136.852
 30
0
 10
134.166
 20
136.456
 30
0
  0
LINE
  5
B10
330
A02
100
AcDbEntity
  8
View
100
AcDbLine
 10
134.166
 20
136.456
 30
0
 11
134.166
 21
135.602
 31
0
  0
LINE
  5
B11
330
A02
100
AcDbEntity
  8
View
100
AcDbLine
 10
134.166
 20
135.602
 30
0
 11
131.111
 21
135.602
 31
0
  0
LINE
  5
B12
330
A02
100
AcDbEntity
  8
View
100
AcDbLine
 10
131.111
 20
135.602
 30
0
 11
131.111
 21
136.443
 31
0
  0
SPLINE
  5
B13
330
A02
100
AcDbEntity
  8
View
100
AcDbSpline
210
0
220
0
230
1
 70
8
 71
2
 72
6
 73
3
 74
0
 40
-0.0605735
 40
-0.0605735
 40
-0.0605735
 40
0
 40
0
 40
0
 10
131.111
 20
136.443
 30
0
 10
131.111
 20
136.913
 30
0
 10
131.194
 20
137.126
 30
0
  0
SPLINE
  5
B14
330
A02
100
AcDbEntity
  8
View
100
AcDbSpline
210
0
220
0
230
1
 70
8
 71
2
 72
8
 73
5
 74
0
 40
-0.236365
 40
-0.236365
 40
-0.236365
 40
-0.118183
 40
-0.118183
 40
0
 40
0
 40
0
 10
131.194
 20
137.126
 30
0
 10
131.307
 20
137.422
 30
0
 10
131.643
 20
137.628
 30
0
 10
131.98
 20
137.834
 30
0
 10
132.608
 20
137.834
 30
0
  0
SPLINE
  5
B15
330
A02
100
AcDbEntity
  8
View
100
AcDbSpline
210
0
220
0
230
1
 70
8
 71
3
 72
8
 73
4
 74
0
 40
-0.0972409
 40
-0.0972409
 40
-0.0972409
 40
-0.0972409
 40
0
 40
0
 40
0
 40
0
 10
132.608
 20
137.834
 30
0
 10
133.215
 20
137.836
 30
0
 10
133.633
 20
137.684
 30
0
 10
133.886
 20
137.434
 30
0
  0
LINE
  5
B16
330
A02
100
AcDbEntity
  8
View
100
AcDbLine
 10
134.639
 20
135.071
 30
0
 11
134.639
 21
136.517
 31
0
  0
SPLINE
  5
B17
330
A02
100
AcDbEntity
  8
View
100
AcDbSpline
210
0
220
0
230
1
 70
8
 71
2
 72
12
 73
9
 74
0
 40
-0.270145
 40
-0.270145
 40
-0.270145
 40
-0.162087
 40
-0.162087
 40
-0.108058
 40
-0.108058
 40
-0.054029
 40
-0.054029
 40
0
 40
0
 40
0
 10
134.639
 20
136.517
 30
0
 10
134.637
 20
137.241
 30
0
 10
134.369
 20
137.635
 30
0
 10
134.236
 20
137.834
 30
0
 10
134.006
 20
138
 30
0
 10
133.776
 20
138.166
 30
0
 10
133.424
 20
138.273
 30
0
 10
133.072
 20
138.379
 30
0
 10
132.618
 20
138.379
 30
0
  0
SPLINE
  5
B18
330
A02
100
AcDbEntity
  8
View
100
AcDbSpline
210
0
220
0
230
1
 70
8
 71
3
 72
8
 73
4
 74
0
 40
-0.171404
 40
-0.171404
 40
-0.171404
 40
-0.171404
 40
0
 40
0
 40
0
 40
0
 10
132.618
 20
138.379
 30
0
 10
131.905
 20
138.379
 30
0
 10
131.334
 20
138.171
 30
0
 10
130.983
 20
137.748
 30
0
  0
SPLINE
  5
B19
330
A02
100
AcDbEntity
  8
View
100
AcDbSpline
210
0
220
0
230
1
 70
8
 71
2
 72
6
 73
3
 74
0
 40
-0.0660736
 40
-0.0660736
 40
-0.0660736
 40
0
 40
0
 40
0
 10
130.983
 20
137.748
 30
0
 10
130.776
 20
137.507
 30
0
 10
130.697
 20
137.163
 30
0
  0
SPLINE
  5
B1A
330
A02
100
AcDbEntity
  8
View
100
AcDbSpline
210
0
220
0
230
1
 70
8
 71
2
 72
6
 73
3
 74
0
 40
-0.0696154
 40
-0.0696154
 40
-0.0696154
 40
0
 40
0
 40
0
 10
130.697
 20
137.163
 30
0
 10
130.639
 20
136.916
 30
0
 10
130.639
 20
136.449
 30
0
  0
LINE
  5
B1B
330
A02
100
AcDbEntity
  8
View
100
AcDbLine
 10
130.639
 20
136.449
 30
0
 11
130.639
 21
135.071
 31
0
  0
LINE
  5
B1C
330
A02
100
AcDbEntity
  8
View
100
AcDbLine
 10
130.639
 20
135.071
 30
0
 11
134.639
 21
135.071
 31
0
  0
SPLINE
  5
B1D
330
A02
100
AcDbEntity
  8
View
100
AcDbSpline
210
0
220
0
230
1
 70
8
 71
2
 72
6
 73
3
 74
0
 40
0.875862
 40
0.875862
 40
0.875862
 40
1.05014
 40
1.05014
 40
1.05014
 10
134.11
 20
137.019
 30
0
 10
134.099
 20
137.062
 30
0
 10
134.086
 20
137.1
 30
0
  0
SPLINE
  5
B1E
330
A02
100
AcDbEntity
  8
View
100
AcDbSpline
210
0
220
0
230
1
 70
8
 71
2
 72
6
 73
3
 74
0
 40
0
 40
0
 40
0
 40
1
 40
1
 40
1
 10
130.697
 20
137.163
 30
0
 10
130.776
 20
137.507
 30
0
 10
130.983
 20
137.748
 30
0
  0
SPLINE
  5
B1F
330
A02
100
AcDbEntity
  8
View
100
AcDbSpline
210
0
220
0
230
1
 70
8
 71
2
 72
6
 73
3
 74
0
 40
0
 40
0
 40
0
 40
0.792669
 40
0.792669
 40
0.792669
 10
130.983
 20
137.748
 30
0
 10
131.194
 20
138
 30
0
 10
131.499
 20
138.15
 30
0
  0
SPLINE
  5
B20
330
A02
100
AcDbEntity
  8
View
100
AcDbSpline
210
0
220
0
230
1
 70
8
 71
1
 72
4
 73
2
 74
0
 40
0.999871
 40
0.999871
 40
1.12414
 40
1.12414
 10
131.665
 20
138.222
 30
0
 10
131.77
 20
138.259
 30
0
  0
SPLINE
  5
B21
330
A02
100
AcDbEntity
  8
View
100
AcDbSpline
210
0
220
0
230
1
 70
8
 71
2
 72
6
 73
3
 74
0
 40
1.6
 40
1.6
 40
1.6
 40
2
 40
2
 40
2
 10
132.208
 20
138.354
 30
0
 10
132.403
 20
138.379
 30
0
 10
132.618
 20
138.379
 30
0
  0
SPLINE
  5
B22
330
A02
100
AcDbEntity
  8
View
100
AcDbSpline
210
0
220
0
230
1
 70
8
 71
2
 72
8
 73
5
 74
0
 40
0
 40
0
 40
0
 40
1
 40
1
 40
1.97459
 40
1.97459
 40
1.97459
 10
132.618
 20
138.379
 30
0
 10
133.072
 20
138.379
 30
0
 10
133.424
 20
138.273
 30
0
 10
133.767
 20
138.169
 30
0
 10
133.994
 20
138.008
 30
0
  0
SPLINE
  5
B23
330
A02
100
AcDbEntity
  8
View
100
AcDbSpline
210
0
220
0
230
1
 70
8
 71
2
 72
8
 73
5
 74
0
 40
1.99067
 40
1.99067
 40
1.99067
 40
3
 40
3
 40
3.47973
 40
3.47973
 40
3.47973
 10
134.002
 20
138.003
 30
0
 10
134.235
 20
137.835
 30
0
 10
134.369
 20
137.635
 30
0
 10
134.433
 20
137.54
 30
0
 10
134.482
 20
137.427
 30
0
  0
SPLINE
  5
B24
330
A02
100
AcDbEntity
  8
View
100
AcDbSpline
210
0
220
0
230
1
 70
8
 71
2
 72
6
 73
3
 74
0
 40
4
 40
4
 40
4
 40
5
 40
5
 40
5
 10
134.57
 20
137.158
 30
0
 10
134.639
 20
136.879
 30
0
 10
134.639
 20
136.517
 30
0
  0
SPLINE
  5
B25
330
A02
100
AcDbEntity
  8
View
100
AcDbSpline
210
0
220
0
230
1
 70
8
 71
1
 72
4
 73
2
 74
0
 40
0.999845
 40
0.999845
 40
1.09952
 40
1.09952
 10
133.38
 20
137.728
 30
0
 10
133.315
 20
137.748
 30
0
  0
SPLINE
  5
B26
330
A02
100
AcDbEntity
  8
View
100
AcDbSpline
210
0
220
0
230
1
 70
8
 71
1
 72
4
 73
2
 74
0
 40
1
 40
1
 40
1.00083
 40
1.00083
 10
131.643
 20
137.628
 30
0
 10
131.643
 20
137.627
 30
0
  0
SPLINE
  5
B27
330
A02
100
AcDbEntity
  8
View
100
AcDbSpline
210
0
220
0
230
1
 70
8
 71
1
 72
4
 73
2
 74
0
 40
1.01584
 40
1.01584
 40
1.01594
 40
1.01594
 10
131.633
 20
137.621
 30
0
 10
131.633
 20
137.621
 30
0
  0
SPLINE
  5
B28
330
A02
100
AcDbEntity
  8
View
100
AcDbSpline
210
0
220
0
230
1
 70
8
 71
2
 72
6
 73
3
 74
0
 40
0
 40
0
 40
0
 40
1
 40
1
 40
1
 10
130.639
 20
136.449
 30
0
 10
130.639
 20
136.916
 30
0
 10
130.697
 20
137.163
 30
0
  0
ARC
  5
B29
330
A02
100
AcDbEntity
  8
View
100
AcDbCircle
 10
40.5294
 20
186.029
 30
0
 40
1.321
100
AcDbArc
 50
0
 51
180
  0
ARC
  5
B2A
330
A02
100
AcDbEntity
  8
View
100
AcDbCircle
 10
40.5294
 20
186.029
 30
0
 40
1.321
100
AcDbArc
 50
180
 51
0
  0
CIRCLE
  5
B2B
330
A02
100
AcDbEntity
  8
View
100
AcDbCircle
 10
40.5294
 20
186.029
 40
2
  0
ARC
  5
B2C
330
A02
100
AcDbEntity
  8
View
100
AcDbCircle
 10
218.529
 20
186.029
 30
0
 40
1.321
100
AcDbArc
 50
0
 51
180
  0
ARC
  5
B2D
330
A02
100
AcDbEntity
  8
View
100
AcDbCircle
 10
218.529
 20
186.029
 30
0
 40
1.321
100
AcDbArc
 50
180
 51
0
  0
CIRCLE
  5
B2E
330
A02
100
AcDbEntity
  8
View
100
AcDbCircle
 10
218.529
 20
186.029
 40
2
  0
ARC
  5
B2F
330
A02
100
AcDbEntity
  8
View
100
AcDbCircle
 10
129.529
 20
76.0294
 30
0
 40
1.321
100
AcDbArc
 50
0
 51
180
  0
ARC
  5
B30
330
A02
100
AcDbEntity
  8
View
100
AcDbCircle
 10
129.529
 20
76.0294
 30
0
 40
1.321
100
AcDbArc
 50
180
 51
0
  0
CIRCLE
  5
B31
330
A02
100
AcDbEntity
  8
View
100
AcDbCircle
 10
129.529
 20
76.0294
 40
2
  0
ARC
  5
B32
330
A02
100
AcDbEntity
  8
View
100
AcDbCircle
 10
218.529
 20
76.0294
 30
0
 40
1.321
100
AcDbArc
 50
0
 51
180
  0
ARC
  5
B33
330
A02
100
AcDbEntity
  8
View
100
AcDbCircle
 10
218.529
 20
76.0294
 30
0
 40
1.321
100
AcDbArc
 50
180
 51
0
  0
CIRCLE
  5
B34
330
A02
100
AcDbEntity
  8
View
100
AcDbCircle
 10
218.529
 20
76.0294
 40
2
  0
ARC
  5
B35
330
A02
100
AcDbEntity
  8
View
100
AcDbCircle
 10
129.529
 20
186.029
 30
0
 40
1.321
100
AcDbArc
 50
0
 51
180
  0
ARC
  5
B36
330
A02
100
AcDbEntity
  8
View
100
AcDbCircle
 10
129.529
 20
186.029
 30
0
 40
1.321
100
AcDbArc
 50
180
 51
0
  0
CIRCLE
  5
B37
330
A02
100
AcDbEntity
  8
View
100
AcDbCircle
 10
129.529
 20
186.029
 40
2
  0
ARC
  5
B38
330
A02
100
AcDbEntity
  8
View
100
AcDbCircle
 10
40.5294
 20
76.0294
 30
0
 40
1.321
100
AcDbArc
 50
0
 51
180
  0
ARC
  5
B39
330
A02
100
AcDbEntity
  8
View
100
AcDbCircle
 10
40.5294
 20
76.0294
 30
0
 40
1.321
100
AcDbArc
 50
180
 51
0
  0
CIRCLE
  5
B3A
330
A02
100
AcDbEntity
  8
View
100
AcDbCircle
 10
40.5294
 20
76.0294
 40
2
  0
SPLINE
  5
B3B
330
A02
100
AcDbEntity
  8
View
100
AcDbSpline
210
0
220
0
230
1
 70
8
 71
3
 72
29
 73
25
 74
0
 40
0
 40
0
 40
0
 40
0
 40
0.109706
 40
0.109706
 40
0.109706
 40
0.219413
 40
0.219413
 40
0.219413
 40
0.329119
 40
0.329119
 40
0.329119
 40
0.438826
 40
0.438826
 40
0.438826
 40
0.548532
 40
0.548532
 40
0.548532
 40
0.658238
 40
0.658238
 40
0.658238
 40
0.767945
 40
0.767945
 40
0.767945
 40
1.53589
 40
1.53589
 40
1.53589
 40
1.53589
 10
212.564
 20
74.5623
 30
0
 10
212.564
 20
74.5656
 30
0
 10
212.564
 20
74.5689
 30
0
 10
212.564
 20
74.5721
 30
0
 10
212.564
 20
74.5794
 30
0
 10
212.564
 20
74.5866
 30
0
 10
212.564
 20
74.5939
 30
0
 10
212.564
 20
74.605
 30
0
 10
212.564
 20
74.6161
 30
0
 10
212.564
 20
74.6272
 30
0
 10
212.564
 20
74.6421
 30
0
 10
212.564
 20
74.657
 30
0
 10
212.564
 20
74.6718
 30
0
 10
212.564
 20
74.6903
 30
0
 10
212.564
 20
74.7087
 30
0
 10
212.564
 20
74.7271
 30
0
 10
212.564
 20
74.7489
 30
0
 10
212.564
 20
74.7707
 30
0
 10
212.564
 20
74.7925
 30
0
 10
212.564
 20
74.8173
 30
0
 10
212.564
 20
74.8422
 30
0
 10
212.564
 20
74.867
 30
0
 10
212.564
 20
75.0522
 30
0
 10
212.564
 20
75.3052
 30
0
 10
212.564
 20
75.5617
 30
0
  0
SPLINE
  5
B3C
330
A02
100
AcDbEntity
  8
View
100
AcDbSpline
210
0
220
0
230
1
 70
8
 71
3
 72
29
 73
25
 74
0
 40
0
 40
0
 40
0
 40
0
 40
0.767945
 40
0.767945
 40
0.767945
 40
0.877651
 40
0.877651
 40
0.877651
 40
0.987358
 40
0.987358
 40
0.987358
 40
1.09706
 40
1.09706
 40
1.09706
 40
1.20677
 40
1.20677
 40
1.20677
 40
1.31648
 40
1.31648
 40
1.31648
 40
1.42618
 40
1.42618
 40
1.42618
 40
1.53589
 40
1.53589
 40
1.53589
 40
1.53589
 10
135.495
 20
75.5617
 30
0
 10
135.495
 20
75.3052
 30
0
 10
135.495
 20
75.0522
 30
0
 10
135.495
 20
74.867
 30
0
 10
135.495
 20
74.8422
 30
0
 10
135.495
 20
74.8173
 30
0
 10
135.495
 20
74.7925
 30
0
 10
135.495
 20
74.7707
 30
0
 10
135.495
 20
74.7489
 30
0
 10
135.495
 20
74.7271
 30
0
 10
135.495
 20
74.7087
 30
0
 10
135.495
 20
74.6903
 30
0
 10
135.495
 20
74.6718
 30
0
 10
135.495
 20
74.657
 30
0
 10
135.495
 20
74.6421
 30
0
 10
135.495
 20
74.6272
 30
0
 10
135.495
 20
74.6161
 30
0
 10
135.495
 20
74.605
 30
0
 10
135.495
 20
74.5939
 30
0
 10
135.495
 20
74.5866
 30
0
 10
135.495
 20
74.5794
 30
0
 10
135.495
 20
74.5721
 30
0
 10
135.495
 20
74.5689
 30
0
 10
135.495
 20
74.5656
 30
0
 10
135.495
 20
74.5623
 30
0
  0
SPLINE
  5
B3D
330
A02
100
AcDbEntity
  8
View
100
AcDbSpline
210
0
220
0
230
1
 70
8
 71
3
 72
29
 73
25
 74
0
 40
0
 40
0
 40
0
 40
0
 40
0.767945
 40
0.767945
 40
0.767945
 40
0.877651
 40
0.877651
 40
0.877651
 40
0.987358
 40
0.987358
 40
0.987358
 40
1.09706
 40
1.09706
 40
1.09706
 40
1.20677
 40
1.20677
 40
1.20677
 40
1.31648
 40
1.31648
 40
1.31648
 40
1.42618
 40
1.42618
 40
1.42618
 40
1.53589
 40
1.53589
 40
1.53589
 40
1.53589
 10
134.995
 20
76.0587
 30
0
 10
134.738
 20
76.0573
 30
0
 10
134.486
 20
76.056
 30
0
 10
134.3
 20
76.055
 30
0
 10
134.276
 20
76.0549
 30
0
 10
134.251
 20
76.0547
 30
0
 10
134.226
 20
76.0546
 30
0
 10
134.204
 20
76.0545
 30
0
 10
134.182
 20
76.0544
 30
0
 10
134.16
 20
76.0542
 30
0
 10
134.142
 20
76.0541
 30
0
 10
134.124
 20
76.0541
 30
0
 10
134.105
 20
76.054
 30
0
 10
134.09
 20
76.0539
 30
0
 10
134.075
 20
76.0538
 30
0
 10
134.061
 20
76.0537
 30
0
 10
134.049
 20
76.0537
 30
0
 10
134.038
 20
76.0536
 30
0
 10
134.027
 20
76.0535
 30
0
 10
134.02
 20
76.0535
 30
0
 10
134.013
 20
76.0535
 30
0
 10
134.005
 20
76.0534
 30
0
 10
134.002
 20
76.0534
 30
0
 10
133.999
 20
76.0534
 30
0
 10
133.996
 20
76.0534
 30
0
  0
SPLINE
  5
B3E
330
A02
100
AcDbEntity
  8
View
100
AcDbSpline
210
0
220
0
230
1
 70
8
 71
3
 72
11
 73
7
 74
0
 40
0
 40
0
 40
0
 40
0
 40
0.0333128
 40
0.0333128
 40
0.0333128
 40
0.0777298
 40
0.0777298
 40
0.0777298
 40
0.0777298
 10
133.996
 20
76.0534
 30
0
 10
133.998
 20
75.7205
 30
0
 10
134.116
 20
75.3841
 30
0
 10
134.327
 20
75.1234
 30
0
 10
134.607
 20
74.7758
 30
0
 10
135.051
 20
74.5627
 30
0
 10
135.495
 20
74.5623
 30
0
  0
SPLINE
  5
B3F
330
A02
100
AcDbEntity
  8
View
100
AcDbSpline
210
0
220
0
230
1
 70
8
 71
3
 72
29
 73
25
 74
0
 40
0
 40
0
 40
0
 40
0
 40
0.109706
 40
0.109706
 40
0.109706
 40
0.219413
 40
0.219413
 40
0.219413
 40
0.329119
 40
0.329119
 40
0.329119
 40
0.438826
 40
0.438826
 40
0.438826
 40
0.548532
 40
0.548532
 40
0.548532
 40
0.658238
 40
0.658238
 40
0.658238
 40
0.767945
 40
0.767945
 40
0.767945
 40
1.53589
 40
1.53589
 40
1.53589
 40
1.53589
 10
214.063
 20
76.0534
 30
0
 10
214.06
 20
76.0534
 30
0
 10
214.057
 20
76.0534
 30
0
 10
214.053
 20
76.0534
 30
0
 10
214.046
 20
76.0535
 30
0
 10
214.039
 20
76.0535
 30
0
 10
214.032
 20
76.0535
 30
0
 10
214.021
 20
76.0536
 30
0
 10
214.009
 20
76.0537
 30
0
 10
213.998
 20
76.0537
 30
0
 10
213.983
 20
76.0538
 30
0
 10
213.969
 20
76.0539
 30
0
 10
213.954
 20
76.054
 30
0
 10
213.935
 20
76.0541
 30
0
 10
213.917
 20
76.0541
 30
0
 10
213.898
 20
76.0542
 30
0
 10
213.877
 20
76.0544
 30
0
 10
213.855
 20
76.0545
 30
0
 10
213.833
 20
76.0546
 30
0
 10
213.808
 20
76.0547
 30
0
 10
213.783
 20
76.0549
 30
0
 10
213.758
 20
76.055
 30
0
 10
213.573
 20
76.056
 30
0
 10
213.32
 20
76.0573
 30
0
 10
213.064
 20
76.0587
 30
0
  0
SPLINE
  5
B40
330
A02
100
AcDbEntity
  8
View
100
AcDbSpline
210
0
220
0
230
1
 70
8
 71
3
 72
11
 73
7
 74
0
 40
0
 40
0
 40
0
 40
0
 40
0.0333128
 40
0.0333128
 40
0.0333128
 40
0.0777298
 40
0.0777298
 40
0.0777298
 40
0.0777298
 10
212.564
 20
74.5623
 30
0
 10
212.897
 20
74.5626
 30
0
 10
213.234
 20
74.6793
 30
0
 10
213.496
 20
74.8883
 30
0
 10
213.845
 20
75.1669
 30
0
 10
214.06
 20
75.6096
 30
0
 10
214.063
 20
76.0534
 30
0
  0
SPLINE
  5
B41
330
A02
100
AcDbEntity
  8
View
100
AcDbSpline
210
0
220
0
230
1
 70
8
 71
3
 72
29
 73
25
 74
0
 40
0
 40
0
 40
0
 40
0
 40
0.767945
 40
0.767945
 40
0.767945
 40
0.877651
 40
0.877651
 40
0.877651
 40
0.987358
 40
0.987358
 40
0.987358
 40
1.09706
 40
1.09706
 40
1.09706
 40
1.20677
 40
1.20677
 40
1.20677
 40
1.31648
 40
1.31648
 40
1.31648
 40
1.42618
 40
1.42618
 40
1.42618
 40
1.53589
 40
1.53589
 40
1.53589
 40
1.53589
 10
124.064
 20
76.0587
 30
0
 10
124.32
 20
76.0573
 30
0
 10
124.573
 20
76.056
 30
0
 10
124.758
 20
76.055
 30
0
 10
124.783
 20
76.0549
 30
0
 10
124.808
 20
76.0547
 30
0
 10
124.833
 20
76.0546
 30
0
 10
124.855
 20
76.0545
 30
0
 10
124.877
 20
76.0544
 30
0
 10
124.898
 20
76.0542
 30
0
 10
124.917
 20
76.0541
 30
0
 10
124.935
 20
76.0541
 30
0
 10
124.954
 20
76.054
 30
0
 10
124.969
 20
76.0539
 30
0
 10
124.983
 20
76.0538
 30
0
 10
124.998
 20
76.0537
 30
0
 10
125.009
 20
76.0537
 30
0
 10
125.021
 20
76.0536
 30
0
 10
125.032
 20
76.0535
 30
0
 10
125.039
 20
76.0535
 30
0
 10
125.046
 20
76.0535
 30
0
 10
125.053
 20
76.0534
 30
0
 10
125.057
 20
76.0534
 30
0
 10
125.06
 20
76.0534
 30
0
 10
125.063
 20
76.0534
 30
0
  0
SPLINE
  5
B42
330
A02
100
AcDbEntity
  8
View
100
AcDbSpline
210
0
220
0
230
1
 70
8
 71
3
 72
29
 73
25
 74
0
 40
0
 40
0
 40
0
 40
0
 40
0.109706
 40
0.109706
 40
0.109706
 40
0.219413
 40
0.219413
 40
0.219413
 40
0.329119
 40
0.329119
 40
0.329119
 40
0.438826
 40
0.438826
 40
0.438826
 40
0.548532
 40
0.548532
 40
0.548532
 40
0.658238
 40
0.658238
 40
0.658238
 40
0.767945
 40
0.767945
 40
0.767945
 40
1.53589
 40
1.53589
 40
1.53589
 40
1.53589
 10
218.505
 20
80.4956
 30
0
 10
218.505
 20
80.4989
 30
0
 10
218.505
 20
80.5022
 30
0
 10
218.505
 20
80.5055
 30
0
 10
218.505
 20
80.5127
 30
0
 10
218.505
 20
80.52
 30
0
 10
218.505
 20
80.5272
 30
0
 10
218.505
 20
80.5383
 30
0
 10
218.505
 20
80.5494
 30
0
 10
218.505
 20
80.5606
 30
0
 10
218.505
 20
80.5754
 30
0
 10
218.505
 20
80.5903
 30
0
 10
218.505
 20
80.6052
 30
0
 10
218.505
 20
80.6236
 30
0
 10
218.505
 20
80.642
 30
0
 10
218.505
 20
80.6605
 30
0
 10
218.504
 20
80.6822
 30
0
 10
218.504
 20
80.704
 30
0
 10
218.504
 20
80.7258
 30
0
 10
218.504
 20
80.7507
 30
0
 10
218.504
 20
80.7755
 30
0
 10
218.504
 20
80.8004
 30
0
 10
218.503
 20
80.9855
 30
0
 10
218.501
 20
81.2385
 30
0
 10
218.5
 20
81.495
 30
0
  0
SPLINE
  5
B43
330
A02
100
AcDbEntity
  8
View
100
AcDbSpline
210
0
220
0
230
1
 70
8
 71
3
 72
29
 73
25
 74
0
 40
0
 40
0
 40
0
 40
0
 40
0.767945
 40
0.767945
 40
0.767945
 40
0.877651
 40
0.877651
 40
0.877651
 40
0.987358
 40
0.987358
 40
0.987358
 40
1.09706
 40
1.09706
 40
1.09706
 40
1.20677
 40
1.20677
 40
1.20677
 40
1.31648
 40
1.31648
 40
1.31648
 40
1.42618
 40
1.42618
 40
1.42618
 40
1.53589
 40
1.53589
 40
1.53589
 40
1.53589
 10
123.564
 20
75.5617
 30
0
 10
123.564
 20
75.3052
 30
0
 10
123.564
 20
75.0522
 30
0
 10
123.564
 20
74.867
 30
0
 10
123.564
 20
74.8422
 30
0
 10
123.564
 20
74.8173
 30
0
 10
123.564
 20
74.7925
 30
0
 10
123.564
 20
74.7707
 30
0
 10
123.564
 20
74.7489
 30
0
 10
123.564
 20
74.7271
 30
0
 10
123.564
 20
74.7087
 30
0
 10
123.564
 20
74.6903
 30
0
 10
123.564
 20
74.6718
 30
0
 10
123.564
 20
74.657
 30
0
 10
123.564
 20
74.6421
 30
0
 10
123.564
 20
74.6272
 30
0
 10
123.564
 20
74.6161
 30
0
 10
123.564
 20
74.605
 30
0
 10
123.564
 20
74.5939
 30
0
 10
123.564
 20
74.5866
 30
0
 10
123.564
 20
74.5794
 30
0
 10
123.564
 20
74.5721
 30
0
 10
123.564
 20
74.5689
 30
0
 10
123.564
 20
74.5656
 30
0
 10
123.564
 20
74.5623
 30
0
  0
SPLINE
  5
B44
330
A02
100
AcDbEntity
  8
View
100
AcDbSpline
210
0
220
0
230
1
 70
8
 71
3
 72
11
 73
7
 74
0
 40
0
 40
0
 40
0
 40
0
 40
0.0333128
 40
0.0333128
 40
0.0333128
 40
0.0777298
 40
0.0777298
 40
0.0777298
 40
0.0777298
 10
123.564
 20
74.5623
 30
0
 10
123.897
 20
74.5626
 30
0
 10
124.234
 20
74.6793
 30
0
 10
124.496
 20
74.8883
 30
0
 10
124.845
 20
75.1669
 30
0
 10
125.06
 20
75.6096
 30
0
 10
125.063
 20
76.0534
 30
0
  0
SPLINE
  5
B45
330
A02
100
AcDbEntity
  8
View
100
AcDbSpline
210
0
220
0
230
1
 70
8
 71
3
 72
29
 73
25
 74
0
 40
0
 40
0
 40
0
 40
0
 40
0.109706
 40
0.109706
 40
0.109706
 40
0.219413
 40
0.219413
 40
0.219413
 40
0.329119
 40
0.329119
 40
0.329119
 40
0.438826
 40
0.438826
 40
0.438826
 40
0.548532
 40
0.548532
 40
0.548532
 40
0.658238
 40
0.658238
 40
0.658238
 40
0.767945
 40
0.767945
 40
0.767945
 40
1.53589
 40
1.53589
 40
1.53589
 40
1.53589
 10
219.997
 20
81.9947
 30
0
 10
219.993
 20
81.9947
 30
0
 10
219.99
 20
81.9947
 30
0
 10
219.987
 20
81.9947
 30
0
 10
219.979
 20
81.9947
 30
0
 10
219.972
 20
81.9947
 30
0
 10
219.965
 20
81.9947
 30
0
 10
219.954
 20
81.9947
 30
0
 10
219.943
 20
81.9947
 30
0
 10
219.932
 20
81.9947
 30
0
 10
219.917
 20
81.9947
 30
0
 10
219.902
 20
81.9947
 30
0
 10
219.887
 20
81.9947
 30
0
 10
219.869
 20
81.9947
 30
0
 10
219.85
 20
81.9947
 30
0
 10
219.832
 20
81.9947
 30
0
 10
219.81
 20
81.9947
 30
0
 10
219.788
 20
81.9947
 30
0
 10
219.766
 20
81.9947
 30
0
 10
219.741
 20
81.9947
 30
0
 10
219.717
 20
81.9947
 30
0
 10
219.692
 20
81.9947
 30
0
 10
219.507
 20
81.9947
 30
0
 10
219.254
 20
81.9947
 30
0
 10
218.997
 20
81.9947
 30
0
  0
SPLINE
  5
B46
330
A02
100
AcDbEntity
  8
View
100
AcDbSpline
210
0
220
0
230
1
 70
8
 71
3
 72
11
 73
7
 74
0
 40
0
 40
0
 40
0
 40
0
 40
0.0333128
 40
0.0333128
 40
0.0333128
 40
0.0777298
 40
0.0777298
 40
0.0777298
 40
0.0777298
 10
218.505
 20
80.4956
 30
0
 10
218.838
 20
80.4977
 30
0
 10
219.175
 20
80.6162
 30
0
 10
219.435
 20
80.8266
 30
0
 10
219.783
 20
81.1071
 30
0
 10
219.996
 20
81.5509
 30
0
 10
219.997
 20
81.9947
 30
0
  0
SPLINE
  5
B47
330
A02
100
AcDbEntity
  8
View
100
AcDbSpline
210
0
220
0
230
1
 70
8
 71
3
 72
29
 73
25
 74
0
 40
0
 40
0
 40
0
 40
0
 40
0.767945
 40
0.767945
 40
0.767945
 40
0.877651
 40
0.877651
 40
0.877651
 40
0.987358
 40
0.987358
 40
0.987358
 40
1.09706
 40
1.09706
 40
1.09706
 40
1.20677
 40
1.20677
 40
1.20677
 40
1.31648
 40
1.31648
 40
1.31648
 40
1.42618
 40
1.42618
 40
1.42618
 40
1.53589
 40
1.53589
 40
1.53589
 40
1.53589
 10
46.4947
 20
75.5617
 30
0
 10
46.4947
 20
75.3052
 30
0
 10
46.4947
 20
75.0522
 30
0
 10
46.4947
 20
74.867
 30
0
 10
46.4947
 20
74.8422
 30
0
 10
46.4947
 20
74.8173
 30
0
 10
46.4947
 20
74.7925
 30
0
 10
46.4947
 20
74.7707
 30
0
 10
46.4947
 20
74.7489
 30
0
 10
46.4947
 20
74.7271
 30
0
 10
46.4947
 20
74.7087
 30
0
 10
46.4947
 20
74.6903
 30
0
 10
46.4947
 20
74.6718
 30
0
 10
46.4947
 20
74.657
 30
0
 10
46.4947
 20
74.6421
 30
0
 10
46.4947
 20
74.6272
 30
0
 10
46.4947
 20
74.6161
 30
0
 10
46.4947
 20
74.605
 30
0
 10
46.4947
 20
74.5939
 30
0
 10
46.4947
 20
74.5866
 30
0
 10
46.4947
 20
74.5794
 30
0
 10
46.4947
 20
74.5721
 30
0
 10
46.4947
 20
74.5689
 30
0
 10
46.4947
 20
74.5656
 30
0
 10
46.4947
 20
74.5623
 30
0
  0
SPLINE
  5
B48
330
A02
100
AcDbEntity
  8
View
100
AcDbSpline
210
0
220
0
230
1
 70
8
 71
3
 72
29
 73
25
 74
0
 40
0
 40
0
 40
0
 40
0
 40
0.109706
 40
0.109706
 40
0.109706
 40
0.219413
 40
0.219413
 40
0.219413
 40
0.329119
 40
0.329119
 40
0.329119
 40
0.438826
 40
0.438826
 40
0.438826
 40
0.548532
 40
0.548532
 40
0.548532
 40
0.658238
 40
0.658238
 40
0.658238
 40
0.767945
 40
0.767945
 40
0.767945
 40
1.53589
 40
1.53589
 40
1.53589
 40
1.53589
 10
219.997
 20
180.064
 30
0
 10
219.993
 20
180.064
 30
0
 10
219.99
 20
180.064
 30
0
 10
219.987
 20
180.064
 30
0
 10
219.979
 20
180.064
 30
0
 10
219.972
 20
180.064
 30
0
 10
219.965
 20
180.064
 30
0
 10
219.954
 20
180.064
 30
0
 10
219.943
 20
180.064
 30
0
 10
219.932
 20
180.064
 30
0
 10
219.917
 20
180.064
 30
0
 10
219.902
 20
180.064
 30
0
 10
219.887
 20
180.064
 30
0
 10
219.869
 20
180.064
 30
0
 10
219.85
 20
180.064
 30
0
 10
219.832
 20
180.064
 30
0
 10
219.81
 20
180.064
 30
0
 10
219.788
 20
180.064
 30
0
 10
219.766
 20
180.064
 30
0
 10
219.741
 20
180.064
 30
0
 10
219.717
 20
180.064
 30
0
 10
219.692
 20
180.064
 30
0
 10
219.507
 20
180.064
 30
0
 10
219.254
 20
180.064
 30
0
 10
218.997
 20
180.064
 30
0
  0
SPLINE
  5
B49
330
A02
100
AcDbEntity
  8
View
100
AcDbSpline
210
0
220
0
230
1
 70
8
 71
3
 72
29
 73
25
 74
0
 40
0
 40
0
 40
0
 40
0
 40
0.767945
 40
0.767945
 40
0.767945
 40
0.877651
 40
0.877651
 40
0.877651
 40
0.987358
 40
0.987358
 40
0.987358
 40
1.09706
 40
1.09706
 40
1.09706
 40
1.20677
 40
1.20677
 40
1.20677
 40
1.31648
 40
1.31648
 40
1.31648
 40
1.42618
 40
1.42618
 40
1.42618
 40
1.53589
 40
1.53589
 40
1.53589
 40
1.53589
 10
45.995
 20
76.0587
 30
0
 10
45.7385
 20
76.0573
 30
0
 10
45.4855
 20
76.056
 30
0
 10
45.3004
 20
76.055
 30
0
 10
45.2755
 20
76.0549
 30
0
 10
45.2507
 20
76.0547
 30
0
 10
45.2258
 20
76.0546
 30
0
 10
45.204
 20
76.0545
 30
0
 10
45.1822
 20
76.0544
 30
0
 10
45.1605
 20
76.0542
 30
0
 10
45.142
 20
76.0541
 30
0
 10
45.1236
 20
76.0541
 30
0
 10
45.1052
 20
76.054
 30
0
 10
45.0903
 20
76.0539
 30
0
 10
45.0754
 20
76.0538
 30
0
 10
45.0606
 20
76.0537
 30
0
 10
45.0494
 20
76.0537
 30
0
 10
45.0383
 20
76.0536
 30
0
 10
45.0272
 20
76.0535
 30
0
 10
45.02
 20
76.0535
 30
0
 10
45.0127
 20
76.0535
 30
0
 10
45.0055
 20
76.0534
 30
0
 10
45.0022
 20
76.0534
 30
0
 10
44.9989
 20
76.0534
 30
0
 10
44.9956
 20
76.0534
 30
0
  0
SPLINE
  5
B4A
330
A02
100
AcDbEntity
  8
View
100
AcDbSpline
210
0
220
0
230
1
 70
8
 71
3
 72
11
 73
7
 74
0
 40
0
 40
0
 40
0
 40
0
 40
0.0333128
 40
0.0333128
 40
0.0333128
 40
0.0777298
 40
0.0777298
 40
0.0777298
 40
0.0777298
 10
44.9956
 20
76.0534
 30
0
 10
44.9977
 20
75.7205
 30
0
 10
45.1162
 20
75.3841
 30
0
 10
45.3266
 20
75.1234
 30
0
 10
45.6071
 20
74.7758
 30
0
 10
46.0509
 20
74.5627
 30
0
 10
46.4947
 20
74.5623
 30
0
  0
SPLINE
  5
B4B
330
A02
100
AcDbEntity
  8
View
100
AcDbSpline
210
0
220
0
230
1
 70
8
 71
3
 72
29
 73
25
 74
0
 40
0
 40
0
 40
0
 40
0
 40
0.109706
 40
0.109706
 40
0.109706
 40
0.219413
 40
0.219413
 40
0.219413
 40
0.329119
 40
0.329119
 40
0.329119
 40
0.438826
 40
0.438826
 40
0.438826
 40
0.548532
 40
0.548532
 40
0.548532
 40
0.658238
 40
0.658238
 40
0.658238
 40
0.767945
 40
0.767945
 40
0.767945
 40
1.53589
 40
1.53589
 40
1.53589
 40
1.53589
 10
218.505
 20
181.563
 30
0
 10
218.505
 20
181.56
 30
0
 10
218.505
 20
181.557
 30
0
 10
218.505
 20
181.553
 30
0
 10
218.505
 20
181.546
 30
0
 10
218.505
 20
181.539
 30
0
 10
218.505
 20
181.532
 30
0
 10
218.505
 20
181.521
 30
0
 10
218.505
 20
181.509
 30
0
 10
218.505
 20
181.498
 30
0
 10
218.505
 20
181.483
 30
0
 10
218.505
 20
181.469
 30
0
 10
218.505
 20
181.454
 30
0
 10
218.505
 20
181.435
 30
0
 10
218.505
 20
181.417
 30
0
 10
218.505
 20
181.398
 30
0
 10
218.504
 20
181.377
 30
0
 10
218.504
 20
181.355
 30
0
 10
218.504
 20
181.333
 30
0
 10
218.504
 20
181.308
 30
0
 10
218.504
 20
181.283
 30
0
 10
218.504
 20
181.258
 30
0
 10
218.503
 20
181.073
 30
0
 10
218.501
 20
180.82
 30
0
 10
218.5
 20
180.564
 30
0
  0
SPLINE
  5
B4C
330
A02
100
AcDbEntity
  8
View
100
AcDbSpline
210
0
220
0
230
1
 70
8
 71
3
 72
11
 73
7
 74
0
 40
0
 40
0
 40
0
 40
0
 40
0.0333128
 40
0.0333128
 40
0.0333128
 40
0.0777298
 40
0.0777298
 40
0.0777298
 40
0.0777298
 10
219.997
 20
180.064
 30
0
 10
219.996
 20
180.397
 30
0
 10
219.879
 20
180.734
 30
0
 10
219.671
 20
180.996
 30
0
 10
219.392
 20
181.345
 30
0
 10
218.949
 20
181.56
 30
0
 10
218.505
 20
181.563
 30
0
  0
SPLINE
  5
B4D
330
A02
100
AcDbEntity
  8
View
100
AcDbSpline
210
0
220
0
230
1
 70
8
 71
3
 72
29
 73
25
 74
0
 40
0
 40
0
 40
0
 40
0
 40
0.767945
 40
0.767945
 40
0.767945
 40
0.877651
 40
0.877651
 40
0.877651
 40
0.987358
 40
0.987358
 40
0.987358
 40
1.09706
 40
1.09706
 40
1.09706
 40
1.20677
 40
1.20677
 40
1.20677
 40
1.31648
 40
1.31648
 40
1.31648
 40
1.42618
 40
1.42618
 40
1.42618
 40
1.53589
 40
1.53589
 40
1.53589
 40
1.53589
 10
40.5587
 20
81.495
 30
0
 10
40.5573
 20
81.2385
 30
0
 10
40.556
 20
80.9855
 30
0
 10
40.555
 20
80.8004
 30
0
 10
40.5549
 20
80.7755
 30
0
 10
40.5547
 20
80.7507
 30
0
 10
40.5546
 20
80.7258
 30
0
 10
40.5545
 20
80.704
 30
0
 10
40.5544
 20
80.6822
 30
0
 10
40.5542
 20
80.6605
 30
0
 10
40.5541
 20
80.642
 30
0
 10
40.5541
 20
80.6236
 30
0
 10
40.554
 20
80.6052
 30
0
 10
40.5539
 20
80.5903
 30
0
 10
40.5538
 20
80.5754
 30
0
 10
40.5537
 20
80.5606
 30
0
 10
40.5537
 20
80.5494
 30
0
 10
40.5536
 20
80.5383
 30
0
 10
40.5535
 20
80.5272
 30
0
 10
40.5535
 20
80.52
 30
0
 10
40.5535
 20
80.5127
 30
0
 10
40.5534
 20
80.5055
 30
0
 10
40.5534
 20
80.5022
 30
0
 10
40.5534
 20
80.4989
 30
0
 10
40.5534
 20
80.4956
 30
0
  0
SPLINE
  5
B4E
330
A02
100
AcDbEntity
  8
View
100
AcDbSpline
210
0
220
0
230
1
 70
8
 71
3
 72
29
 73
25
 74
0
 40
0
 40
0
 40
0
 40
0
 40
0.109706
 40
0.109706
 40
0.109706
 40
0.219413
 40
0.219413
 40
0.219413
 40
0.329119
 40
0.329119
 40
0.329119
 40
0.438826
 40
0.438826
 40
0.438826
 40
0.548532
 40
0.548532
 40
0.548532
 40
0.658238
 40
0.658238
 40
0.658238
 40
0.767945
 40
0.767945
 40
0.767945
 40
1.53589
 40
1.53589
 40
1.53589
 40
1.53589
 10
214.063
 20
186.005
 30
0
 10
214.06
 20
186.005
 30
0
 10
214.057
 20
186.005
 30
0
 10
214.053
 20
186.005
 30
0
 10
214.046
 20
186.005
 30
0
 10
214.039
 20
186.005
 30
0
 10
214.032
 20
186.005
 30
0
 10
214.021
 20
186.005
 30
0
 10
214.009
 20
186.005
 30
0
 10
213.998
 20
186.005
 30
0
 10
213.983
 20
186.005
 30
0
 10
213.969
 20
186.005
 30
0
 10
213.954
 20
186.005
 30
0
 10
213.935
 20
186.005
 30
0
 10
213.917
 20
186.005
 30
0
 10
213.898
 20
186.005
 30
0
 10
213.877
 20
186.004
 30
0
 10
213.855
 20
186.004
 30
0
 10
213.833
 20
186.004
 30
0
 10
213.808
 20
186.004
 30
0
 10
213.783
 20
186.004
 30
0
 10
213.758
 20
186.004
 30
0
 10
213.573
 20
186.003
 30
0
 10
213.32
 20
186.001
 30
0
 10
213.064
 20
186
 30
0
  0
SPLINE
  5
B4F
330
A02
100
AcDbEntity
  8
View
100
AcDbSpline
210
0
220
0
230
1
 70
8
 71
3
 72
29
 73
25
 74
0
 40
0
 40
0
 40
0
 40
0
 40
0.767945
 40
0.767945
 40
0.767945
 40
0.877651
 40
0.877651
 40
0.877651
 40
0.987358
 40
0.987358
 40
0.987358
 40
1.09706
 40
1.09706
 40
1.09706
 40
1.20677
 40
1.20677
 40
1.20677
 40
1.31648
 40
1.31648
 40
1.31648
 40
1.42618
 40
1.42618
 40
1.42618
 40
1.53589
 40
1.53589
 40
1.53589
 40
1.53589
 10
40.0617
 20
81.9947
 30
0
 10
39.8052
 20
81.9947
 30
0
 10
39.5522
 20
81.9947
 30
0
 10
39.367
 20
81.9947
 30
0
 10
39.3422
 20
81.9947
 30
0
 10
39.3173
 20
81.9947
 30
0
 10
39.2925
 20
81.9947
 30
0
 10
39.2707
 20
81.9947
 30
0
 10
39.2489
 20
81.9947
 30
0
 10
39.2271
 20
81.9947
 30
0
 10
39.2087
 20
81.9947
 30
0
 10
39.1903
 20
81.9947
 30
0
 10
39.1718
 20
81.9947
 30
0
 10
39.157
 20
81.9947
 30
0
 10
39.1421
 20
81.9947
 30
0
 10
39.1272
 20
81.9947
 30
0
 10
39.1161
 20
81.9947
 30
0
 10
39.105
 20
81.9947
 30
0
 10
39.0939
 20
81.9947
 30
0
 10
39.0866
 20
81.9947
 30
0
 10
39.0794
 20
81.9947
 30
0
 10
39.0721
 20
81.9947
 30
0
 10
39.0689
 20
81.9947
 30
0
 10
39.0656
 20
81.9947
 30
0
 10
39.0623
 20
81.9947
 30
0
  0
SPLINE
  5
B50
330
A02
100
AcDbEntity
  8
View
100
AcDbSpline
210
0
220
0
230
1
 70
8
 71
3
 72
11
 73
7
 74
0
 40
0
 40
0
 40
0
 40
0
 40
0.0333128
 40
0.0333128
 40
0.0333128
 40
0.0777298
 40
0.0777298
 40
0.0777298
 40
0.0777298
 10
39.0623
 20
81.9947
 30
0
 10
39.0626
 20
81.6618
 30
0
 10
39.1793
 20
81.3248
 30
0
 10
39.3883
 20
81.063
 30
0
 10
39.6669
 20
80.7138
 30
0
 10
40.1096
 20
80.4984
 30
0
 10
40.5534
 20
80.4956
 30
0
  0
SPLINE
  5
B51
330
A02
100
AcDbEntity
  8
View
100
AcDbSpline
210
0
220
0
230
1
 70
8
 71
3
 72
29
 73
25
 74
0
 40
0
 40
0
 40
0
 40
0
 40
0.109706
 40
0.109706
 40
0.109706
 40
0.219413
 40
0.219413
 40
0.219413
 40
0.329119
 40
0.329119
 40
0.329119
 40
0.438826
 40
0.438826
 40
0.438826
 40
0.548532
 40
0.548532
 40
0.548532
 40
0.658238
 40
0.658238
 40
0.658238
 40
0.767945
 40
0.767945
 40
0.767945
 40
1.53589
 40
1.53589
 40
1.53589
 40
1.53589
 10
212.564
 20
187.497
 30
0
 10
212.564
 20
187.493
 30
0
 10
212.564
 20
187.49
 30
0
 10
212.564
 20
187.487
 30
0
 10
212.564
 20
187.479
 30
0
 10
212.564
 20
187.472
 30
0
 10
212.564
 20
187.465
 30
0
 10
212.564
 20
187.454
 30
0
 10
212.564
 20
187.443
 30
0
 10
212.564
 20
187.432
 30
0
 10
212.564
 20
187.417
 30
0
 10
212.564
 20
187.402
 30
0
 10
212.564
 20
187.387
 30
0
 10
212.564
 20
187.369
 30
0
 10
212.564
 20
187.35
 30
0
 10
212.564
 20
187.332
 30
0
 10
212.564
 20
187.31
 30
0
 10
212.564
 20
187.288
 30
0
 10
212.564
 20
187.266
 30
0
 10
212.564
 20
187.241
 30
0
 10
212.564
 20
187.217
 30
0
 10
212.564
 20
187.192
 30
0
 10
212.564
 20
187.007
 30
0
 10
212.564
 20
186.754
 30
0
 10
212.564
 20
186.497
 30
0
  0
SPLINE
  5
B52
330
A02
100
AcDbEntity
  8
View
100
AcDbSpline
210
0
220
0
230
1
 70
8
 71
3
 72
11
 73
7
 74
0
 40
0
 40
0
 40
0
 40
0
 40
0.0333128
 40
0.0333128
 40
0.0333128
 40
0.0777298
 40
0.0777298
 40
0.0777298
 40
0.0777298
 10
214.063
 20
186.005
 30
0
 10
214.061
 20
186.338
 30
0
 10
213.943
 20
186.675
 30
0
 10
213.732
 20
186.935
 30
0
 10
213.452
 20
187.283
 30
0
 10
213.008
 20
187.496
 30
0
 10
212.564
 20
187.497
 30
0
  0
SPLINE
  5
B53
330
A02
100
AcDbEntity
  8
View
100
AcDbSpline
210
0
220
0
230
1
 70
8
 71
3
 72
29
 73
25
 74
0
 40
0
 40
0
 40
0
 40
0
 40
0.767945
 40
0.767945
 40
0.767945
 40
0.877651
 40
0.877651
 40
0.877651
 40
0.987358
 40
0.987358
 40
0.987358
 40
1.09706
 40
1.09706
 40
1.09706
 40
1.20677
 40
1.20677
 40
1.20677
 40
1.31648
 40
1.31648
 40
1.31648
 40
1.42618
 40
1.42618
 40
1.42618
 40
1.53589
 40
1.53589
 40
1.53589
 40
1.53589
 10
40.0617
 20
180.064
 30
0
 10
39.8052
 20
180.064
 30
0
 10
39.5522
 20
180.064
 30
0
 10
39.367
 20
180.064
 30
0
 10
39.3422
 20
180.064
 30
0
 10
39.3173
 20
180.064
 30
0
 10
39.2925
 20
180.064
 30
0
 10
39.2707
 20
180.064
 30
0
 10
39.2489
 20
180.064
 30
0
 10
39.2271
 20
180.064
 30
0
 10
39.2087
 20
180.064
 30
0
 10
39.1903
 20
180.064
 30
0
 10
39.1718
 20
180.064
 30
0
 10
39.157
 20
180.064
 30
0
 10
39.1421
 20
180.064
 30
0
 10
39.1272
 20
180.064
 30
0
 10
39.1161
 20
180.064
 30
0
 10
39.105
 20
180.064
 30
0
 10
39.0939
 20
180.064
 30
0
 10
39.0866
 20
180.064
 30
0
 10
39.0794
 20
180.064
 30
0
 10
39.0721
 20
180.064
 30
0
 10
39.0689
 20
180.064
 30
0
 10
39.0656
 20
180.064
 30
0
 10
39.0623
 20
180.064
 30
0
  0
SPLINE
  5
B54
330
A02
100
AcDbEntity
  8
View
100
AcDbSpline
210
0
220
0
230
1
 70
8
 71
3
 72
29
 73
25
 74
0
 40
0
 40
0
 40
0
 40
0
 40
0.109706
 40
0.109706
 40
0.109706
 40
0.219413
 40
0.219413
 40
0.219413
 40
0.329119
 40
0.329119
 40
0.329119
 40
0.438826
 40
0.438826
 40
0.438826
 40
0.548532
 40
0.548532
 40
0.548532
 40
0.658238
 40
0.658238
 40
0.658238
 40
0.767945
 40
0.767945
 40
0.767945
 40
1.53589
 40
1.53589
 40
1.53589
 40
1.53589
 10
135.495
 20
187.497
 30
0
 10
135.495
 20
187.493
 30
0
 10
135.495
 20
187.49
 30
0
 10
135.495
 20
187.487
 30
0
 10
135.495
 20
187.479
 30
0
 10
135.495
 20
187.472
 30
0
 10
135.495
 20
187.465
 30
0
 10
135.495
 20
187.454
 30
0
 10
135.495
 20
187.443
 30
0
 10
135.495
 20
187.432
 30
0
 10
135.495
 20
187.417
 30
0
 10
135.495
 20
187.402
 30
0
 10
135.495
 20
187.387
 30
0
 10
135.495
 20
187.369
 30
0
 10
135.495
 20
187.35
 30
0
 10
135.495
 20
187.332
 30
0
 10
135.495
 20
187.31
 30
0
 10
135.495
 20
187.288
 30
0
 10
135.495
 20
187.266
 30
0
 10
135.495
 20
187.241
 30
0
 10
135.495
 20
187.217
 30
0
 10
135.495
 20
187.192
 30
0
 10
135.495
 20
187.007
 30
0
 10
135.495
 20
186.754
 30
0
 10
135.495
 20
186.497
 30
0
  0
SPLINE
  5
B55
330
A02
100
AcDbEntity
  8
View
100
AcDbSpline
210
0
220
0
230
1
 70
8
 71
3
 72
29
 73
25
 74
0
 40
0
 40
0
 40
0
 40
0
 40
0.767945
 40
0.767945
 40
0.767945
 40
0.877651
 40
0.877651
 40
0.877651
 40
0.987358
 40
0.987358
 40
0.987358
 40
1.09706
 40
1.09706
 40
1.09706
 40
1.20677
 40
1.20677
 40
1.20677
 40
1.31648
 40
1.31648
 40
1.31648
 40
1.42618
 40
1.42618
 40
1.42618
 40
1.53589
 40
1.53589
 40
1.53589
 40
1.53589
 10
40.5587
 20
180.564
 30
0
 10
40.5573
 20
180.82
 30
0
 10
40.556
 20
181.073
 30
0
 10
40.555
 20
181.258
 30
0
 10
40.5549
 20
181.283
 30
0
 10
40.5547
 20
181.308
 30
0
 10
40.5546
 20
181.333
 30
0
 10
40.5545
 20
181.355
 30
0
 10
40.5544
 20
181.377
 30
0
 10
40.5542
 20
181.398
 30
0
 10
40.5541
 20
181.417
 30
0
 10
40.5541
 20
181.435
 30
0
 10
40.554
 20
181.454
 30
0
 10
40.5539
 20
181.469
 30
0
 10
40.5538
 20
181.483
 30
0
 10
40.5537
 20
181.498
 30
0
 10
40.5537
 20
181.509
 30
0
 10
40.5536
 20
181.521
 30
0
 10
40.5535
 20
181.532
 30
0
 10
40.5535
 20
181.539
 30
0
 10
40.5535
 20
181.546
 30
0
 10
40.5534
 20
181.553
 30
0
 10
40.5534
 20
181.557
 30
0
 10
40.5534
 20
181.56
 30
0
 10
40.5534
 20
181.563
 30
0
  0
SPLINE
  5
B56
330
A02
100
AcDbEntity
  8
View
100
AcDbSpline
210
0
220
0
230
1
 70
8
 71
3
 72
11
 73
7
 74
0
 40
0
 40
0
 40
0
 40
0
 40
0.0333128
 40
0.0333128
 40
0.0333128
 40
0.0777298
 40
0.0777298
 40
0.0777298
 40
0.0777298
 10
40.5534
 20
181.563
 30
0
 10
40.2205
 20
181.561
 30
0
 10
39.8841
 20
181.443
 30
0
 10
39.6234
 20
181.232
 30
0
 10
39.2758
 20
180.952
 30
0
 10
39.0627
 20
180.508
 30
0
 10
39.0623
 20
180.064
 30
0
  0
SPLINE
  5
B57
330
A02
100
AcDbEntity
  8
View
100
AcDbSpline
210
0
220
0
230
1
 70
8
 71
3
 72
29
 73
25
 74
0
 40
0
 40
0
 40
0
 40
0
 40
0.109706
 40
0.109706
 40
0.109706
 40
0.219413
 40
0.219413
 40
0.219413
 40
0.329119
 40
0.329119
 40
0.329119
 40
0.438826
 40
0.438826
 40
0.438826
 40
0.548532
 40
0.548532
 40
0.548532
 40
0.658238
 40
0.658238
 40
0.658238
 40
0.767945
 40
0.767945
 40
0.767945
 40
1.53589
 40
1.53589
 40
1.53589
 40
1.53589
 10
133.996
 20
186.005
 30
0
 10
133.999
 20
186.005
 30
0
 10
134.002
 20
186.005
 30
0
 10
134.005
 20
186.005
 30
0
 10
134.013
 20
186.005
 30
0
 10
134.02
 20
186.005
 30
0
 10
134.027
 20
186.005
 30
0
 10
134.038
 20
186.005
 30
0
 10
134.049
 20
186.005
 30
0
 10
134.061
 20
186.005
 30
0
 10
134.075
 20
186.005
 30
0
 10
134.09
 20
186.005
 30
0
 10
134.105
 20
186.005
 30
0
 10
134.124
 20
186.005
 30
0
 10
134.142
 20
186.005
 30
0
 10
134.16
 20
186.005
 30
0
 10
134.182
 20
186.004
 30
0
 10
134.204
 20
186.004
 30
0
 10
134.226
 20
186.004
 30
0
 10
134.251
 20
186.004
 30
0
 10
134.276
 20
186.004
 30
0
 10
134.3
 20
186.004
 30
0
 10
134.486
 20
186.003
 30
0
 10
134.738
 20
186.001
 30
0
 10
134.995
 20
186
 30
0
  0
SPLINE
  5
B58
330
A02
100
AcDbEntity
  8
View
100
AcDbSpline
210
0
220
0
230
1
 70
8
 71
3
 72
11
 73
7
 74
0
 40
0
 40
0
 40
0
 40
0
 40
0.044417
 40
0.044417
 40
0.044417
 40
0.0777298
 40
0.0777298
 40
0.0777298
 40
0.0777298
 10
135.495
 20
187.497
 30
0
 10
135.051
 20
187.496
 30
0
 10
134.607
 20
187.283
 30
0
 10
134.327
 20
186.935
 30
0
 10
134.116
 20
186.675
 30
0
 10
133.998
 20
186.338
 30
0
 10
133.996
 20
186.005
 30
0
  0
SPLINE
  5
B59
330
A02
100
AcDbEntity
  8
View
100
AcDbSpline
210
0
220
0
230
1
 70
8
 71
3
 72
29
 73
25
 74
0
 40
0
 40
0
 40
0
 40
0
 40
0.767945
 40
0.767945
 40
0.767945
 40
0.877651
 40
0.877651
 40
0.877651
 40
0.987358
 40
0.987358
 40
0.987358
 40
1.09706
 40
1.09706
 40
1.09706
 40
1.20677
 40
1.20677
 40
1.20677
 40
1.31648
 40
1.31648
 40
1.31648
 40
1.42618
 40
1.42618
 40
1.42618
 40
1.53589
 40
1.53589
 40
1.53589
 40
1.53589
 10
45.995
 20
186
 30
0
 10
45.7385
 20
186.001
 30
0
 10
45.4855
 20
186.003
 30
0
 10
45.3004
 20
186.004
 30
0
 10
45.2755
 20
186.004
 30
0
 10
45.2507
 20
186.004
 30
0
 10
45.2258
 20
186.004
 30
0
 10
45.204
 20
186.004
 30
0
 10
45.1822
 20
186.004
 30
0
 10
45.1605
 20
186.005
 30
0
 10
45.142
 20
186.005
 30
0
 10
45.1236
 20
186.005
 30
0
 10
45.1052
 20
186.005
 30
0
 10
45.0903
 20
186.005
 30
0
 10
45.0754
 20
186.005
 30
0
 10
45.0606
 20
186.005
 30
0
 10
45.0494
 20
186.005
 30
0
 10
45.0383
 20
186.005
 30
0
 10
45.0272
 20
186.005
 30
0
 10
45.02
 20
186.005
 30
0
 10
45.0127
 20
186.005
 30
0
 10
45.0055
 20
186.005
 30
0
 10
45.0022
 20
186.005
 30
0
 10
44.9989
 20
186.005
 30
0
 10
44.9956
 20
186.005
 30
0
  0
SPLINE
  5
B5A
330
A02
100
AcDbEntity
  8
View
100
AcDbSpline
210
0
220
0
230
1
 70
8
 71
3
 72
29
 73
25
 74
0
 40
0
 40
0
 40
0
 40
0
 40
0.109706
 40
0.109706
 40
0.109706
 40
0.219413
 40
0.219413
 40
0.219413
 40
0.329119
 40
0.329119
 40
0.329119
 40
0.438826
 40
0.438826
 40
0.438826
 40
0.548532
 40
0.548532
 40
0.548532
 40
0.658238
 40
0.658238
 40
0.658238
 40
0.767945
 40
0.767945
 40
0.767945
 40
1.53589
 40
1.53589
 40
1.53589
 40
1.53589
 10
125.063
 20
186.005
 30
0
 10
125.06
 20
186.005
 30
0
 10
125.057
 20
186.005
 30
0
 10
125.053
 20
186.005
 30
0
 10
125.046
 20
186.005
 30
0
 10
125.039
 20
186.005
 30
0
 10
125.032
 20
186.005
 30
0
 10
125.021
 20
186.005
 30
0
 10
125.009
 20
186.005
 30
0
 10
124.998
 20
186.005
 30
0
 10
124.983
 20
186.005
 30
0
 10
124.969
 20
186.005
 30
0
 10
124.954
 20
186.005
 30
0
 10
124.935
 20
186.005
 30
0
 10
124.917
 20
186.005
 30
0
 10
124.898
 20
186.005
 30
0
 10
124.877
 20
186.004
 30
0
 10
124.855
 20
186.004
 30
0
 10
124.833
 20
186.004
 30
0
 10
124.808
 20
186.004
 30
0
 10
124.783
 20
186.004
 30
0
 10
124.758
 20
186.004
 30
0
 10
124.573
 20
186.003
 30
0
 10
124.32
 20
186.001
 30
0
 10
124.064
 20
186
 30
0
  0
SPLINE
  5
B5B
330
A02
100
AcDbEntity
  8
View
100
AcDbSpline
210
0
220
0
230
1
 70
8
 71
3
 72
29
 73
25
 74
0
 40
0
 40
0
 40
0
 40
0
 40
0.767945
 40
0.767945
 40
0.767945
 40
0.877651
 40
0.877651
 40
0.877651
 40
0.987358
 40
0.987358
 40
0.987358
 40
1.09706
 40
1.09706
 40
1.09706
 40
1.20677
 40
1.20677
 40
1.20677
 40
1.31648
 40
1.31648
 40
1.31648
 40
1.42618
 40
1.42618
 40
1.42618
 40
1.53589
 40
1.53589
 40
1.53589
 40
1.53589
 10
46.4947
 20
186.497
 30
0
 10
46.4947
 20
186.754
 30
0
 10
46.4947
 20
187.007
 30
0
 10
46.4947
 20
187.192
 30
0
 10
46.4947
 20
187.217
 30
0
 10
46.4947
 20
187.241
 30
0
 10
46.4947
 20
187.266
 30
0
 10
46.4947
 20
187.288
 30
0
 10
46.4947
 20
187.31
 30
0
 10
46.4947
 20
187.332
 30
0
 10
46.4947
 20
187.35
 30
0
 10
46.4947
 20
187.369
 30
0
 10
46.4947
 20
187.387
 30
0
 10
46.4947
 20
187.402
 30
0
 10
46.4947
 20
187.417
 30
0
 10
46.4947
 20
187.432
 30
0
 10
46.4947
 20
187.443
 30
0
 10
46.4947
 20
187.454
 30
0
 10
46.4947
 20
187.465
 30
0
 10
46.4947
 20
187.472
 30
0
 10
46.4947
 20
187.479
 30
0
 10
46.4947
 20
187.487
 30
0
 10
46.4947
 20
187.49
 30
0
 10
46.4947
 20
187.493
 30
0
 10
46.4947
 20
187.497
 30
0
  0
SPLINE
  5
B5C
330
A02
100
AcDbEntity
  8
View
100
AcDbSpline
210
0
220
0
230
1
 70
8
 71
3
 72
11
 73
7
 74
0
 40
0
 40
0
 40
0
 40
0
 40
0.0333128
 40
0.0333128
 40
0.0333128
 40
0.0777298
 40
0.0777298
 40
0.0777298
 40
0.0777298
 10
46.4947
 20
187.497
 30
0
 10
46.1618
 20
187.496
 30
0
 10
45.8248
 20
187.379
 30
0
 10
45.563
 20
187.171
 30
0
 10
45.2138
 20
186.892
 30
0
 10
44.9984
 20
186.449
 30
0
 10
44.9956
 20
186.005
 30
0
  0
SPLINE
  5
B5D
330
A02
100
AcDbEntity
  8
View
100
AcDbSpline
210
0
220
0
230
1
 70
8
 71
3
 72
29
 73
25
 74
0
 40
0
 40
0
 40
0
 40
0
 40
0.109706
 40
0.109706
 40
0.109706
 40
0.219413
 40
0.219413
 40
0.219413
 40
0.329119
 40
0.329119
 40
0.329119
 40
0.438826
 40
0.438826
 40
0.438826
 40
0.548532
 40
0.548532
 40
0.548532
 40
0.658238
 40
0.658238
 40
0.658238
 40
0.767945
 40
0.767945
 40
0.767945
 40
1.53589
 40
1.53589
 40
1.53589
 40
1.53589
 10
123.564
 20
187.497
 30
0
 10
123.564
 20
187.493
 30
0
 10
123.564
 20
187.49
 30
0
 10
123.564
 20
187.487
 30
0
 10
123.564
 20
187.479
 30
0
 10
123.564
 20
187.472
 30
0
 10
123.564
 20
187.465
 30
0
 10
123.564
 20
187.454
 30
0
 10
123.564
 20
187.443
 30
0
 10
123.564
 20
187.432
 30
0
 10
123.564
 20
187.417
 30
0
 10
123.564
 20
187.402
 30
0
 10
123.564
 20
187.387
 30
0
 10
123.564
 20
187.369
 30
0
 10
123.564
 20
187.35
 30
0
 10
123.564
 20
187.332
 30
0
 10
123.564
 20
187.31
 30
0
 10
123.564
 20
187.288
 30
0
 10
123.564
 20
187.266
 30
0
 10
123.564
 20
187.241
 30
0
 10
123.564
 20
187.217
 30
0
 10
123.564
 20
187.192
 30
0
 10
123.564
 20
187.007
 30
0
 10
123.564
 20
186.754
 30
0
 10
123.564
 20
186.497
 30
0
  0
SPLINE
  5
B5E
330
A02
100
AcDbEntity
  8
View
100
AcDbSpline
210
0
220
0
230
1
 70
8
 71
3
 72
11
 73
7
 74
0
 40
0
 40
0
 40
0
 40
0
 40
0.0333128
 40
0.0333128
 40
0.0333128
 40
0.0777298
 40
0.0777298
 40
0.0777298
 40
0.0777298
 10
125.063
 20
186.005
 30
0
 10
125.061
 20
186.338
 30
0
 10
124.943
 20
186.675
 30
0
 10
124.732
 20
186.935
 30
0
 10
124.452
 20
187.283
 30
0
 10
124.008
 20
187.496
 30
0
 10
123.564
 20
187.497
 30
0
  0
SPLINE
  5
B5F
330
A02
100
AcDbEntity
  8
View
100
AcDbSpline
210
0
220
0
230
1
 70
8
 71
2
 72
6
 73
3
 74
0
 40
0.248067
 40
0.248067
 40
0.248067
 40
3.20554
 40
3.20554
 40
3.20554
 10
125.063
 20
186.005
 30
0
 10
125.574
 20
186.395
 30
0
 10
126.166
 20
186.725
 30
0
  0
SPLINE
  5
B60
330
A02
100
AcDbEntity
  8
View
100
AcDbSpline
210
0
220
0
230
1
 70
8
 71
3
 72
14
 73
10
 74
0
 40
0
 40
0
 40
0
 40
0
 40
0.117234
 40
0.117234
 40
0.117234
 40
0.190616
 40
0.190616
 40
0.190616
 40
0.266817
 40
0.266817
 40
0.266817
 40
0.266817
 10
126.166
 20
186.725
 30
0
 10
126.245
 20
187.107
 30
0
 10
126.167
 20
187.518
 30
0
 10
125.955
 20
187.845
 30
0
 10
125.823
 20
188.05
 30
0
 10
125.639
 20
188.22
 30
0
 10
125.426
 20
188.339
 30
0
 10
125.204
 20
188.462
 30
0
 10
124.951
 20
188.528
 30
0
 10
124.698
 20
188.528
 30
0
  0
SPLINE
  5
B61
330
A02
100
AcDbEntity
  8
View
100
AcDbSpline
210
0
220
0
230
1
 70
8
 71
2
 72
6
 73
3
 74
0
 40
0.150231
 40
0.150231
 40
0.150231
 40
3.1077
 40
3.1077
 40
3.1077
 10
132.893
 20
186.725
 30
0
 10
133.485
 20
186.395
 30
0
 10
133.996
 20
186.005
 30
0
  0
ARC
  5
B62
330
A02
100
AcDbEntity
  8
View
100
AcDbCircle
 10
129.529
 20
186.029
 30
0
 40
3.43492
100
AcDbArc
 50
168.314
 51
11.6862
  0
SPLINE
  5
B63
330
A02
100
AcDbEntity
  8
View
100
AcDbSpline
210
0
220
0
230
1
 70
8
 71
3
 72
11
 73
7
 74
0
 40
0
 40
0
 40
0
 40
0
 40
0.11722
 40
0.11722
 40
0.11722
 40
0.266817
 40
0.266817
 40
0.266817
 40
0.266817
 10
134.361
 20
188.528
 30
0
 10
133.971
 20
188.529
 30
0
 10
133.584
 20
188.371
 30
0
 10
133.308
 20
188.095
 30
0
 10
132.95
 20
187.748
 30
0
 10
132.791
 20
187.213
 30
0
 10
132.893
 20
186.725
 30
0
  0
LINE
  5
B64
330
A02
100
AcDbEntity
  8
View
100
AcDbLine
 10
134.361
 20
188.528
 30
0
 11
213.698
 21
188.528
 31
0
  0
SPLINE
  5
B65
330
A02
100
AcDbEntity
  8
View
100
AcDbSpline
210
0
220
0
230
1
 70
8
 71
2
 72
6
 73
3
 74
0
 40
0.248067
 40
0.248067
 40
0.248067
 40
3.20554
 40
3.20554
 40
3.20554
 10
214.063
 20
186.005
 30
0
 10
214.574
 20
186.395
 30
0
 10
215.166
 20
186.725
 30
0
  0
SPLINE
  5
B66
330
A02
100
AcDbEntity
  8
View
100
AcDbSpline
210
0
220
0
230
1
 70
8
 71
3
 72
14
 73
10
 74
0
 40
0
 40
0
 40
0
 40
0
 40
0.117234
 40
0.117234
 40
0.117234
 40
0.190616
 40
0.190616
 40
0.190616
 40
0.266817
 40
0.266817
 40
0.266817
 40
0.266817
 10
215.166
 20
186.725
 30
0
 10
215.245
 20
187.107
 30
0
 10
215.167
 20
187.518
 30
0
 10
214.955
 20
187.845
 30
0
 10
214.823
 20
188.05
 30
0
 10
214.639
 20
188.22
 30
0
 10
214.426
 20
188.339
 30
0
 10
214.204
 20
188.462
 30
0
 10
213.951
 20
188.528
 30
0
 10
213.698
 20
188.528
 30
0
  0
SPLINE
  5
B67
330
A02
100
AcDbEntity
  8
View
100
AcDbSpline
210
0
220
0
230
1
 70
8
 71
2
 72
6
 73
3
 74
0
 40
0.151492
 40
0.151492
 40
0.151492
 40
3.10896
 40
3.10896
 40
3.10896
 10
219.225
 20
182.666
 30
0
 10
218.895
 20
182.074
 30
0
 10
218.505
 20
181.563
 30
0
  0
ARC
  5
B68
330
A02
100
AcDbEntity
  8
View
100
AcDbCircle
 10
218.529
 20
186.029
 30
0
 40
3.43492
100
AcDbArc
 50
168.314
 51
-78.3138
  0
SPLINE
  5
B69
330
A02
100
AcDbEntity
  8
View
100
AcDbSpline
210
0
220
0
230
1
 70
8
 71
3
 72
11
 73
7
 74
0
 40
0
 40
0
 40
0
 40
0
 40
0.11722
 40
0.11722
 40
0.11722
 40
0.266817
 40
0.266817
 40
0.266817
 40
0.266817
 10
221.028
 20
181.198
 30
0
 10
221.029
 20
181.588
 30
0
 10
220.871
 20
181.974
 30
0
 10
220.595
 20
182.251
 30
0
 10
220.248
 20
182.609
 30
0
 10
219.713
 20
182.768
 30
0
 10
219.225
 20
182.666
 30
0
  0
LINE
  5
B6A
330
A02
100
AcDbEntity
  8
View
100
AcDbLine
 10
221.028
 20
181.198
 30
0
 11
221.028
 21
80.8611
 31
0
  0
SPLINE
  5
B6B
330
A02
100
AcDbEntity
  8
View
100
AcDbSpline
210
0
220
0
230
1
 70
8
 71
2
 72
6
 73
3
 74
0
 40
0.248067
 40
0.248067
 40
0.248067
 40
3.20554
 40
3.20554
 40
3.20554
 10
218.505
 20
80.4956
 30
0
 10
218.895
 20
79.9846
 30
0
 10
219.225
 20
79.3931
 30
0
  0
SPLINE
  5
B6C
330
A02
100
AcDbEntity
  8
View
100
AcDbSpline
210
0
220
0
230
1
 70
8
 71
3
 72
14
 73
10
 74
0
 40
0
 40
0
 40
0
 40
0
 40
0.117234
 40
0.117234
 40
0.117234
 40
0.190616
 40
0.190616
 40
0.190616
 40
0.266817
 40
0.266817
 40
0.266817
 40
0.266817
 10
219.225
 20
79.3931
 30
0
 10
219.607
 20
79.3141
 30
0
 10
220.018
 20
79.3921
 30
0
 10
220.345
 20
79.6037
 30
0
 10
220.55
 20
79.7362
 30
0
 10
220.72
 20
79.9195
 30
0
 10
220.839
 20
80.1333
 30
0
 10
220.962
 20
80.3546
 30
0
 10
221.028
 20
80.6077
 30
0
 10
221.028
 20
80.8611
 30
0
  0
SPLINE
  5
B6D
330
A02
100
AcDbEntity
  8
View
100
AcDbSpline
210
0
220
0
230
1
 70
8
 71
2
 72
6
 73
3
 74
0
 40
0.150231
 40
0.150231
 40
0.150231
 40
3.1077
 40
3.1077
 40
3.1077
 10
215.166
 20
75.3337
 30
0
 10
214.574
 20
75.6637
 30
0
 10
214.063
 20
76.0534
 30
0
  0
ARC
  5
B6E
330
A02
100
AcDbEntity
  8
View
100
AcDbCircle
 10
218.529
 20
76.0294
 30
0
 40
3.43492
100
AcDbArc
 50
78.3138
 51
-168.314
  0
SPLINE
  5
B6F
330
A02
100
AcDbEntity
  8
View
100
AcDbSpline
210
0
220
0
230
1
 70
8
 71
3
 72
11
 73
7
 74
0
 40
0
 40
0
 40
0
 40
0
 40
0.11722
 40
0.11722
 40
0.11722
 40
0.266817
 40
0.266817
 40
0.266817
 40
0.266817
 10
213.698
 20
73.5309
 30
0
 10
214.088
 20
73.5299
 30
0
 10
214.474
 20
73.6883
 30
0
 10
214.751
 20
73.9638
 30
0
 10
215.109
 20
74.3108
 30
0
 10
215.268
 20
74.8458
 30
0
 10
215.166
 20
75.3337
 30
0
  0
LINE
  5
B70
330
A02
100
AcDbEntity
  8
View
100
AcDbLine
 10
213.698
 20
73.5309
 30
0
 11
134.361
 21
73.5309
 31
0
  0
SPLINE
  5
B71
330
A02
100
AcDbEntity
  8
View
100
AcDbSpline
210
0
220
0
230
1
 70
8
 71
3
 72
11
 73
7
 74
0
 40
0
 40
0
 40
0
 40
0
 40
0.11722
 40
0.11722
 40
0.11722
 40
0.266817
 40
0.266817
 40
0.266817
 40
0.266817
 10
45.3611
 20
188.528
 30
0
 10
44.9712
 20
188.529
 30
0
 10
44.5845
 20
188.371
 30
0
 10
44.3078
 20
188.095
 30
0
 10
43.95
 20
187.748
 30
0
 10
43.7912
 20
187.213
 30
0
 10
43.8931
 20
186.725
 30
0
  0
SPLINE
  5
B72
330
A02
100
AcDbEntity
  8
View
100
AcDbSpline
210
0
220
0
230
1
 70
8
 71
2
 72
6
 73
3
 74
0
 40
0.151492
 40
0.151492
 40
0.151492
 40
3.10896
 40
3.10896
 40
3.10896
 10
43.8931
 20
186.725
 30
0
 10
44.4846
 20
186.395
 30
0
 10
44.9956
 20
186.005
 30
0
  0
ARC
  5
B73
330
A02
100
AcDbEntity
  8
View
100
AcDbCircle
 10
40.5294
 20
186.029
 30
0
 40
3.43492
100
AcDbArc
 50
-101.686
 51
11.6862
  0
SPLINE
  5
B74
330
A02
100
AcDbEntity
  8
View
100
AcDbSpline
210
0
220
0
230
1
 70
8
 71
2
 72
6
 73
3
 74
0
 40
0.246807
 40
0.246807
 40
0.246807
 40
3.20428
 40
3.20428
 40
3.20428
 10
40.5534
 20
181.563
 30
0
 10
40.1637
 20
182.074
 30
0
 10
39.8337
 20
182.666
 30
0
  0
SPLINE
  5
B75
330
A02
100
AcDbEntity
  8
View
100
AcDbSpline
210
0
220
0
230
1
 70
8
 71
3
 72
11
 73
7
 74
0
 40
0
 40
0
 40
0
 40
0
 40
0.11722
 40
0.11722
 40
0.11722
 40
0.266817
 40
0.266817
 40
0.266817
 40
0.266817
 10
38.0309
 20
80.8611
 30
0
 10
38.0299
 20
80.4712
 30
0
 10
38.1883
 20
80.0845
 30
0
 10
38.4638
 20
79.8078
 30
0
 10
38.8108
 20
79.45
 30
0
 10
39.3458
 20
79.2912
 30
0
 10
39.8337
 20
79.3931
 30
0
  0
SPLINE
  5
B76
330
A02
100
AcDbEntity
  8
View
100
AcDbSpline
210
0
220
0
230
1
 70
8
 71
2
 72
6
 73
3
 74
0
 40
0.151492
 40
0.151492
 40
0.151492
 40
3.10896
 40
3.10896
 40
3.10896
 10
39.8337
 20
79.3931
 30
0
 10
40.1637
 20
79.9846
 30
0
 10
40.5534
 20
80.4956
 30
0
  0
LINE
  5
B77
330
A02
100
AcDbEntity
  8
View
100
AcDbLine
 10
38.0309
 20
80.8611
 30
0
 11
38.0309
 21
181.198
 31
0
  0
SPLINE
  5
B78
330
A02
100
AcDbEntity
  8
View
100
AcDbSpline
210
0
220
0
230
1
 70
8
 71
3
 72
14
 73
10
 74
0
 40
0
 40
0
 40
0
 40
0
 40
0.117234
 40
0.117234
 40
0.117234
 40
0.190616
 40
0.190616
 40
0.190616
 40
0.266817
 40
0.266817
 40
0.266817
 40
0.266817
 10
39.8337
 20
182.666
 30
0
 10
39.4522
 20
182.745
 30
0
 10
39.0407
 20
182.667
 30
0
 10
38.7141
 20
182.455
 30
0
 10
38.5092
 20
182.323
 30
0
 10
38.3386
 20
182.139
 30
0
 10
38.2197
 20
181.926
 30
0
 10
38.0967
 20
181.704
 30
0
 10
38.0308
 20
181.451
 30
0
 10
38.0309
 20
181.198
 30
0
  0
SPLINE
  5
B79
330
A02
100
AcDbEntity
  8
View
100
AcDbSpline
210
0
220
0
230
1
 70
8
 71
3
 72
11
 73
7
 74
0
 40
0
 40
0
 40
0
 40
0
 40
0.11722
 40
0.11722
 40
0.11722
 40
0.266817
 40
0.266817
 40
0.266817
 40
0.266817
 10
124.698
 20
73.5309
 30
0
 10
125.088
 20
73.5299
 30
0
 10
125.474
 20
73.6882
 30
0
 10
125.751
 20
73.9638
 30
0
 10
126.109
 20
74.3108
 30
0
 10
126.268
 20
74.8458
 30
0
 10
126.166
 20
75.3337
 30
0
  0
SPLINE
  5
B7A
330
A02
100
AcDbEntity
  8
View
100
AcDbSpline
210
0
220
0
230
1
 70
8
 71
2
 72
6
 73
3
 74
0
 40
0.151492
 40
0.151492
 40
0.151492
 40
3.10896
 40
3.10896
 40
3.10896
 10
126.166
 20
75.3337
 30
0
 10
125.574
 20
75.6637
 30
0
 10
125.063
 20
76.0534
 30
0
  0
ARC
  5
B7B
330
A02
100
AcDbEntity
  8
View
100
AcDbCircle
 10
129.529
 20
76.0294
 30
0
 40
3.43492
100
AcDbArc
 50
-11.6862
 51
-168.314
  0
SPLINE
  5
B7C
330
A02
100
AcDbEntity
  8
View
100
AcDbSpline
210
0
220
0
230
1
 70
8
 71
2
 72
6
 73
3
 74
0
 40
0.248067
 40
0.248067
 40
0.248067
 40
3.20554
 40
3.20554
 40
3.20554
 10
133.996
 20
76.0534
 30
0
 10
133.485
 20
75.6637
 30
0
 10
132.893
 20
75.3337
 30
0
  0
SPLINE
  5
B7D
330
A02
100
AcDbEntity
  8
View
100
AcDbSpline
210
0
220
0
230
1
 70
8
 71
2
 72
6
 73
3
 74
0
 40
0.246807
 40
0.246807
 40
0.246807
 40
3.20428
 40
3.20428
 40
3.20428
 10
44.9956
 20
76.0534
 30
0
 10
44.4846
 20
75.6637
 30
0
 10
43.8931
 20
75.3337
 30
0
  0
SPLINE
  5
B7E
330
A02
100
AcDbEntity
  8
View
100
AcDbSpline
210
0
220
0
230
1
 70
8
 71
3
 72
14
 73
10
 74
0
 40
0
 40
0
 40
0
 40
0
 40
0.117234
 40
0.117234
 40
0.117234
 40
0.190616
 40
0.190616
 40
0.190616
 40
0.266817
 40
0.266817
 40
0.266817
 40
0.266817
 10
43.8931
 20
75.3337
 30
0
 10
43.8141
 20
74.9522
 30
0
 10
43.8921
 20
74.5407
 30
0
 10
44.1037
 20
74.2141
 30
0
 10
44.2362
 20
74.0092
 30
0
 10
44.4195
 20
73.8386
 30
0
 10
44.6333
 20
73.7197
 30
0
 10
44.8546
 20
73.5967
 30
0
 10
45.1077
 20
73.5308
 30
0
 10
45.3611
 20
73.5309
 30
0
  0
ARC
  5
B7F
330
A02
100
AcDbEntity
  8
View
100
AcDbCircle
 10
40.5294
 20
76.0294
 30
0
 40
3.43492
100
AcDbArc
 50
-11.6862
 51
101.686
  0
SPLINE
  5
B80
330
A02
100
AcDbEntity
  8
View
100
AcDbSpline
210
0
220
0
230
1
 70
8
 71
3
 72
14
 73
10
 74
0
 40
0
 40
0
 40
0
 40
0
 40
0.117234
 40
0.117234
 40
0.117234
 40
0.190616
 40
0.190616
 40
0.190616
 40
0.266817
 40
0.266817
 40
0.266817
 40
0.266817
 10
132.893
 20
75.3337
 30
0
 10
132.814
 20
74.9522
 30
0
 10
132.892
 20
74.5407
 30
0
 10
133.104
 20
74.2141
 30
0
 10
133.236
 20
74.0092
 30
0
 10
133.419
 20
73.8386
 30
0
 10
133.633
 20
73.7197
 30
0
 10
133.855
 20
73.5967
 30
0
 10
134.108
 20
73.5308
 30
0
 10
134.361
 20
73.5309
 30
0
  0
ARC
  5
B81
330
A02
100
AcDbEntity
  8
View
100
AcDbCircle
 10
218.329
 20
185.829
 30
0
 40
5.2
100
AcDbArc
 50
0
 51
90
  0
LINE
  5
B82
330
A02
100
AcDbEntity
  8
View
100
AcDbLine
 10
35.5294
 20
185.829
 30
0
 11
35.5294
 21
76.2294
 31
0
  0
ARC
  5
B83
330
A02
100
AcDbEntity
  8
View
100
AcDbCircle
 10
218.329
 20
76.2294
 30
0
 40
5.2
100
AcDbArc
 50
-90
 51
0
  0
LINE
  5
B84
330
A02
100
AcDbEntity
  8
View
100
AcDbLine
 10
223.529
 20
76.2294
 30
0
 11
223.529
 21
185.829
 31
0
  0
LINE
  5
B85
330
A02
100
AcDbEntity
  8
View
100
AcDbLine
 10
218.329
 20
191.029
 30
0
 11
40.7294
 21
191.029
 31
0
  0
ARC
  5
B86
330
A02
100
AcDbEntity
  8
View
100
AcDbCircle
 10
40.7294
 20
185.829
 30
0
 40
5.2
100
AcDbArc
 50
90
 51
180
  0
ARC
  5
B87
330
A02
100
AcDbEntity
  8
View
100
AcDbCircle
 10
40.7294
 20
76.2294
 30
0
 40
5.2
100
AcDbArc
 50
180
 51
-90
  0
LINE
  5
B88
330
A02
100
AcDbEntity
  8
View
100
AcDbLine
 10
40.7294
 20
71.0294
 30
0
 11
218.329
 21
71.0294
 31
0
  0
LINE
  5
B89
330
A02
100
AcDbEntity
  8
View
100
AcDbLine
 10
124.698
 20
73.5309
 30
0
 11
45.3611
 21
73.5309
 31
0
  0
LINE
  5
B8A
330
A02
100
AcDbEntity
  8
View
100
AcDbLine
 10
45.3611
 20
188.528
 30
0
 11
124.698
 21
188.528
 31
0
  0
LINE
  5
B8B
330
A02
100
AcDbEntity
  8
View
100
AcDbLine
 10
212.564
 20
75.5617
 30
0
 11
135.495
 21
75.5617
 31
0
  0
SPLINE
  5
B8C
330
A02
100
AcDbEntity
  8
View
100
AcDbSpline
210
0
220
0
230
1
 70
8
 71
3
 72
11
 73
7
 74
0
 40
-0.0777298
 40
-0.0777298
 40
-0.0777298
 40
-0.0777298
 40
-0.0333128
 40
-0.0333128
 40
-0.0333128
 40
0
 40
0
 40
0
 40
0
 10
213.064
 20
76.0587
 30
0
 10
213.063
 20
75.9107
 30
0
 10
212.991
 20
75.7631
 30
0
 10
212.875
 20
75.6702
 30
0
 10
212.788
 20
75.6006
 30
0
 10
212.675
 20
75.5617
 30
0
 10
212.564
 20
75.5617
 30
0
  0
ARC
  5
B8D
330
A02
100
AcDbEntity
  8
View
100
AcDbCircle
 10
218.529
 20
76.0294
 30
0
 40
5.46569
100
AcDbArc
 50
90.3073
 51
179.693
  0
SPLINE
  5
B8E
330
A02
100
AcDbEntity
  8
View
100
AcDbSpline
210
0
220
0
230
1
 70
8
 71
3
 72
11
 73
7
 74
0
 40
-0.0777298
 40
-0.0777298
 40
-0.0777298
 40
-0.0777298
 40
-0.0333128
 40
-0.0333128
 40
-0.0333128
 40
0
 40
0
 40
0
 40
0
 10
218.997
 20
81.9947
 30
0
 10
218.997
 20
81.8467
 30
0
 10
218.926
 20
81.6987
 30
0
 10
218.81
 20
81.6052
 30
0
 10
218.723
 20
81.5351
 30
0
 10
218.611
 20
81.4956
 30
0
 10
218.5
 20
81.495
 30
0
  0
LINE
  5
B8F
330
A02
100
AcDbEntity
  8
View
100
AcDbLine
 10
218.997
 20
180.064
 30
0
 11
218.997
 21
81.9947
 31
0
  0
SPLINE
  5
B90
330
A02
100
AcDbEntity
  8
View
100
AcDbSpline
210
0
220
0
230
1
 70
8
 71
3
 72
11
 73
7
 74
0
 40
-0.0777298
 40
-0.0777298
 40
-0.0777298
 40
-0.0777298
 40
-0.0333128
 40
-0.0333128
 40
-0.0333128
 40
0
 40
0
 40
0
 40
0
 10
218.5
 20
180.564
 30
0
 10
218.648
 20
180.563
 30
0
 10
218.796
 20
180.491
 30
0
 10
218.889
 20
180.375
 30
0
 10
218.958
 20
180.288
 30
0
 10
218.997
 20
180.175
 30
0
 10
218.997
 20
180.064
 30
0
  0
ARC
  5
B91
330
A02
100
AcDbEntity
  8
View
100
AcDbCircle
 10
218.529
 20
186.029
 30
0
 40
5.46569
100
AcDbArc
 50
-179.693
 51
-90.3073
  0
SPLINE
  5
B92
330
A02
100
AcDbEntity
  8
View
100
AcDbSpline
210
0
220
0
230
1
 70
8
 71
3
 72
11
 73
7
 74
0
 40
-0.0777298
 40
-0.0777298
 40
-0.0777298
 40
-0.0777298
 40
-0.0333128
 40
-0.0333128
 40
-0.0333128
 40
0
 40
0
 40
0
 40
0
 10
212.564
 20
186.497
 30
0
 10
212.712
 20
186.497
 30
0
 10
212.86
 20
186.426
 30
0
 10
212.954
 20
186.31
 30
0
 10
213.024
 20
186.223
 30
0
 10
213.063
 20
186.111
 30
0
 10
213.064
 20
186
 30
0
  0
LINE
  5
B93
330
A02
100
AcDbEntity
  8
View
100
AcDbLine
 10
135.495
 20
186.497
 30
0
 11
212.564
 21
186.497
 31
0
  0
SPLINE
  5
B94
330
A02
100
AcDbEntity
  8
View
100
AcDbSpline
210
0
220
0
230
1
 70
8
 71
3
 72
11
 73
7
 74
0
 40
-0.0777298
 40
-0.0777298
 40
-0.0777298
 40
-0.0777298
 40
-0.044417
 40
-0.044417
 40
-0.044417
 40
0
 40
0
 40
0
 40
0
 10
134.995
 20
186
 30
0
 10
134.996
 20
186.111
 30
0
 10
135.035
 20
186.223
 30
0
 10
135.105
 20
186.31
 30
0
 10
135.199
 20
186.426
 30
0
 10
135.347
 20
186.497
 30
0
 10
135.495
 20
186.497
 30
0
  0
ARC
  5
B95
330
A02
100
AcDbEntity
  8
View
100
AcDbCircle
 10
129.529
 20
186.029
 30
0
 40
5.46569
100
AcDbArc
 50
-179.693
 51
-0.307271
  0
SPLINE
  5
B96
330
A02
100
AcDbEntity
  8
View
100
AcDbSpline
210
0
220
0
230
1
 70
8
 71
3
 72
11
 73
7
 74
0
 40
-0.0777298
 40
-0.0777298
 40
-0.0777298
 40
-0.0777298
 40
-0.0333128
 40
-0.0333128
 40
-0.0333128
 40
0
 40
0
 40
0
 40
0
 10
123.564
 20
186.497
 30
0
 10
123.712
 20
186.497
 30
0
 10
123.86
 20
186.426
 30
0
 10
123.954
 20
186.31
 30
0
 10
124.024
 20
186.223
 30
0
 10
124.063
 20
186.111
 30
0
 10
124.064
 20
186
 30
0
  0
LINE
  5
B97
330
A02
100
AcDbEntity
  8
View
100
AcDbLine
 10
46.4947
 20
186.497
 30
0
 11
123.564
 21
186.497
 31
0
  0
SPLINE
  5
B98
330
A02
100
AcDbEntity
  8
View
100
AcDbSpline
210
0
220
0
230
1
 70
8
 71
3
 72
11
 73
7
 74
0
 40
-0.0777298
 40
-0.0777298
 40
-0.0777298
 40
-0.0777298
 40
-0.0333128
 40
-0.0333128
 40
-0.0333128
 40
0
 40
0
 40
0
 40
0
 10
45.995
 20
186
 30
0
 10
45.9958
 20
186.148
 30
0
 10
46.0676
 20
186.296
 30
0
 10
46.184
 20
186.389
 30
0
 10
46.2713
 20
186.458
 30
0
 10
46.3837
 20
186.497
 30
0
 10
46.4947
 20
186.497
 30
0
  0
ARC
  5
B99
330
A02
100
AcDbEntity
  8
View
100
AcDbCircle
 10
40.5294
 20
186.029
 30
0
 40
5.46569
100
AcDbArc
 50
-89.6927
 51
-0.307271
  0
SPLINE
  5
B9A
330
A02
100
AcDbEntity
  8
View
100
AcDbSpline
210
0
220
0
230
1
 70
8
 71
3
 72
11
 73
7
 74
0
 40
-0.0777298
 40
-0.0777298
 40
-0.0777298
 40
-0.0777298
 40
-0.0333128
 40
-0.0333128
 40
-0.0333128
 40
0
 40
0
 40
0
 40
0
 10
40.0617
 20
180.064
 30
0
 10
40.0617
 20
180.212
 30
0
 10
40.1327
 20
180.36
 30
0
 10
40.2486
 20
180.454
 30
0
 10
40.3355
 20
180.524
 30
0
 10
40.4477
 20
180.563
 30
0
 10
40.5587
 20
180.564
 30
0
  0
LINE
  5
B9B
330
A02
100
AcDbEntity
  8
View
100
AcDbLine
 10
40.0617
 20
81.9947
 30
0
 11
40.0617
 21
180.064
 31
0
  0
SPLINE
  5
B9C
330
A02
100
AcDbEntity
  8
View
100
AcDbSpline
210
0
220
0
230
1
 70
8
 71
3
 72
11
 73
7
 74
0
 40
-0.0777298
 40
-0.0777298
 40
-0.0777298
 40
-0.0777298
 40
-0.0333128
 40
-0.0333128
 40
-0.0333128
 40
0
 40
0
 40
0
 40
0
 10
40.5587
 20
81.495
 30
0
 10
40.4107
 20
81.4958
 30
0
 10
40.2631
 20
81.5676
 30
0
 10
40.1702
 20
81.684
 30
0
 10
40.1006
 20
81.7713
 30
0
 10
40.0617
 20
81.8837
 30
0
 10
40.0617
 20
81.9947
 30
0
  0
ARC
  5
B9D
330
A02
100
AcDbEntity
  8
View
100
AcDbCircle
 10
40.5294
 20
76.0294
 30
0
 40
5.46569
100
AcDbArc
 50
0.307271
 51
89.6927
  0
SPLINE
  5
B9E
330
A02
100
AcDbEntity
  8
View
100
AcDbSpline
210
0
220
0
230
1
 70
8
 71
3
 72
11
 73
7
 74
0
 40
-0.0777298
 40
-0.0777298
 40
-0.0777298
 40
-0.0777298
 40
-0.0333128
 40
-0.0333128
 40
-0.0333128
 40
0
 40
0
 40
0
 40
0
 10
46.4947
 20
75.5617
 30
0
 10
46.3467
 20
75.5617
 30
0
 10
46.1987
 20
75.6327
 30
0
 10
46.1052
 20
75.7486
 30
0
 10
46.0351
 20
75.8355
 30
0
 10
45.9956
 20
75.9477
 30
0
 10
45.995
 20
76.0587
 30
0
  0
LINE
  5
B9F
330
A02
100
AcDbEntity
  8
View
100
AcDbLine
 10
123.564
 20
75.5617
 30
0
 11
46.4947
 21
75.5617
 31
0
  0
SPLINE
  5
BA0
330
A02
100
AcDbEntity
  8
View
100
AcDbSpline
210
0
220
0
230
1
 70
8
 71
3
 72
11
 73
7
 74
0
 40
-0.0777298
 40
-0.0777298
 40
-0.0777298
 40
-0.0777298
 40
-0.0333128
 40
-0.0333128
 40
-0.0333128
 40
0
 40
0
 40
0
 40
0
 10
124.064
 20
76.0587
 30
0
 10
124.063
 20
75.9107
 30
0
 10
123.991
 20
75.7631
 30
0
 10
123.875
 20
75.6702
 30
0
 10
123.788
 20
75.6006
 30
0
 10
123.675
 20
75.5617
 30
0
 10
123.564
 20
75.5617
 30
0
  0
ARC
  5
BA1
330
A02
100
AcDbEntity
  8
View
100
AcDbCircle
 10
129.529
 20
76.0294
 30
0
 40
5.46569
100
AcDbArc
 50
0.307271
 51
179.693
  0
SPLINE
  5
BA2
330
A02
100
AcDbEntity
  8
View
100
AcDbSpline
210
0
220
0
230
1
 70
8
 71
3
 72
11
 73
7
 74
0
 40
-0.0777298
 40
-0.0777298
 40
-0.0777298
 40
-0.0777298
 40
-0.0333128
 40
-0.0333128
 40
-0.0333128
 40
0
 40
0
 40
0
 40
0
 10
135.495
 20
75.5617
 30
0
 10
135.347
 20
75.5617
 30
0
 10
135.199
 20
75.6327
 30
0
 10
135.105
 20
75.7486
 30
0
 10
135.035
 20
75.8355
 30
0
 10
134.996
 20
75.9477
 30
0
 10
134.995
 20
76.0587
 30
0
  0
LINE
  5
BA3
330
A02
100
AcDbEntity
  8
View
100
AcDbLine
 10
135.495
 20
74.5623
 30
0
 11
212.564
 21
74.5623
 31
0
  0
ARC
  5
BA4
330
A02
100
AcDbEntity
  8
View
100
AcDbCircle
 10
129.529
 20
76.0294
 30
0
 40
4.4663
100
AcDbArc
 50
0.307271
 51
179.693
  0
ARC
  5
BA5
330
A02
100
AcDbEntity
  8
View
100
AcDbCircle
 10
218.529
 20
76.0294
 30
0
 40
4.4663
100
AcDbArc
 50
90.3073
 51
179.693
  0
LINE
  5
BA6
330
A02
100
AcDbEntity
  8
View
100
AcDbLine
 10
46.4947
 20
74.5623
 30
0
 11
123.564
 21
74.5623
 31
0
  0
LINE
  5
BA7
330
A02
100
AcDbEntity
  8
View
100
AcDbLine
 10
219.997
 20
81.9947
 30
0
 11
219.997
 21
180.064
 31
0
  0
ARC
  5
BA8
330
A02
100
AcDbEntity
  8
View
100
AcDbCircle
 10
40.5294
 20
76.0294
 30
0
 40
4.4663
100
AcDbArc
 50
0.307271
 51
89.6927
  0
ARC
  5
BA9
330
A02
100
AcDbEntity
  8
View
100
AcDbCircle
 10
218.529
 20
186.029
 30
0
 40
4.4663
100
AcDbArc
 50
-179.693
 51
-90.3073
  0
LINE
  5
BAA
330
A02
100
AcDbEntity
  8
View
100
AcDbLine
 10
39.0623
 20
180.064
 30
0
 11
39.0623
 21
81.9947
 31
0
  0
LINE
  5
BAB
330
A02
100
AcDbEntity
  8
View
100
AcDbLine
 10
212.564
 20
187.497
 30
0
 11
135.495
 21
187.497
 31
0
  0
ARC
  5
BAC
330
A02
100
AcDbEntity
  8
View
100
AcDbCircle
 10
40.5294
 20
186.029
 30
0
 40
4.4663
100
AcDbArc
 50
-89.6927
 51
-0.307271
  0
ARC
  5
BAD
330
A02
100
AcDbEntity
  8
View
100
AcDbCircle
 10
129.529
 20
186.029
 30
0
 40
4.4663
100
AcDbArc
 50
-179.693
 51
-0.307271
  0
LINE
  5
BAE
330
A02
100
AcDbEntity
  8
View
100
AcDbLine
 10
123.564
 20
187.497
 30
0
 11
46.4947
 21
187.497
 31
0
  0
SPLINE
  5
BAF
330
A02
100
AcDbEntity
  8
View
100
AcDbSpline
210
0
220
0
230
1
 70
8
 71
3
 72
8
 73
4
 74
0
 40
-3.20554
 40
-3.20554
 40
-3.20554
 40
-3.20554
 40
-0.248067
 40
-0.248067
 40
-0.248067
 40
-0.248067
 10
124.698
 20
188.528
 30
0
 10
124.276
 20
188.184
 30
0
 10
123.906
 20
187.84
 30
0
 10
123.564
 20
187.497
 30
0
  0
SPLINE
  5
BB0
330
A02
100
AcDbEntity
  8
View
100
AcDbSpline
210
0
220
0
230
1
 70
8
 71
3
 72
8
 73
4
 74
0
 40
-3.1077
 40
-3.1077
 40
-3.1077
 40
-3.1077
 40
-0.150231
 40
-0.150231
 40
-0.150231
 40
-0.150231
 10
135.495
 20
187.497
 30
0
 10
135.153
 20
187.84
 30
0
 10
134.783
 20
188.184
 30
0
 10
134.361
 20
188.528
 30
0
  0
SPLINE
  5
BB1
330
A02
100
AcDbEntity
  8
View
100
AcDbSpline
210
0
220
0
230
1
 70
8
 71
3
 72
8
 73
4
 74
0
 40
-3.20554
 40
-3.20554
 40
-3.20554
 40
-3.20554
 40
-0.248067
 40
-0.248067
 40
-0.248067
 40
-0.248067
 10
213.698
 20
188.528
 30
0
 10
213.276
 20
188.184
 30
0
 10
212.906
 20
187.84
 30
0
 10
212.564
 20
187.497
 30
0
  0
SPLINE
  5
BB2
330
A02
100
AcDbEntity
  8
View
100
AcDbSpline
210
0
220
0
230
1
 70
8
 71
3
 72
8
 73
4
 74
0
 40
-3.10896
 40
-3.10896
 40
-3.10896
 40
-3.10896
 40
-0.151492
 40
-0.151492
 40
-0.151492
 40
-0.151492
 10
219.997
 20
180.064
 30
0
 10
220.34
 20
180.406
 30
0
 10
220.684
 20
180.776
 30
0
 10
221.028
 20
181.198
 30
0
  0
SPLINE
  5
BB3
330
A02
100
AcDbEntity
  8
View
100
AcDbSpline
210
0
220
0
230
1
 70
8
 71
3
 72
8
 73
4
 74
0
 40
-3.20554
 40
-3.20554
 40
-3.20554
 40
-3.20554
 40
-0.248067
 40
-0.248067
 40
-0.248067
 40
-0.248067
 10
221.028
 20
80.8611
 30
0
 10
220.684
 20
81.2833
 30
0
 10
220.34
 20
81.6527
 30
0
 10
219.997
 20
81.9947
 30
0
  0
SPLINE
  5
BB4
330
A02
100
AcDbEntity
  8
View
100
AcDbSpline
210
0
220
0
230
1
 70
8
 71
3
 72
8
 73
4
 74
0
 40
-3.1077
 40
-3.1077
 40
-3.1077
 40
-3.1077
 40
-0.150231
 40
-0.150231
 40
-0.150231
 40
-0.150231
 10
212.564
 20
74.5623
 30
0
 10
212.906
 20
74.2185
 30
0
 10
213.276
 20
73.8747
 30
0
 10
213.698
 20
73.5309
 30
0
  0
SPLINE
  5
BB5
330
A02
100
AcDbEntity
  8
View
100
AcDbSpline
210
0
220
0
230
1
 70
8
 71
3
 72
8
 73
4
 74
0
 40
-3.20554
 40
-3.20554
 40
-3.20554
 40
-3.20554
 40
-0.248067
 40
-0.248067
 40
-0.248067
 40
-0.248067
 10
134.361
 20
73.5309
 30
0
 10
134.783
 20
73.8747
 30
0
 10
135.153
 20
74.2185
 30
0
 10
135.495
 20
74.5623
 30
0
  0
SPLINE
  5
BB6
330
A02
100
AcDbEntity
  8
View
100
AcDbSpline
210
0
220
0
230
1
 70
8
 71
3
 72
8
 73
4
 74
0
 40
-3.10896
 40
-3.10896
 40
-3.10896
 40
-3.10896
 40
-0.151492
 40
-0.151492
 40
-0.151492
 40
-0.151492
 10
46.4947
 20
187.497
 30
0
 10
46.1527
 20
187.84
 30
0
 10
45.7833
 20
188.184
 30
0
 10
45.3611
 20
188.528
 30
0
  0
SPLINE
  5
BB7
330
A02
100
AcDbEntity
  8
View
100
AcDbSpline
210
0
220
0
230
1
 70
8
 71
3
 72
8
 73
4
 74
0
 40
-3.10896
 40
-3.10896
 40
-3.10896
 40
-3.10896
 40
-0.151492
 40
-0.151492
 40
-0.151492
 40
-0.151492
 10
39.0623
 20
81.9947
 30
0
 10
38.7185
 20
81.6527
 30
0
 10
38.3747
 20
81.2833
 30
0
 10
38.0309
 20
80.8611
 30
0
  0
SPLINE
  5
BB8
330
A02
100
AcDbEntity
  8
View
100
AcDbSpline
210
0
220
0
230
1
 70
8
 71
3
 72
8
 73
4
 74
0
 40
-3.20428
 40
-3.20428
 40
-3.20428
 40
-3.20428
 40
-0.246807
 40
-0.246807
 40
-0.246807
 40
-0.246807
 10
38.0309
 20
181.198
 30
0
 10
38.3747
 20
180.776
 30
0
 10
38.7185
 20
180.406
 30
0
 10
39.0623
 20
180.064
 30
0
  0
SPLINE
  5
BB9
330
A02
100
AcDbEntity
  8
View
100
AcDbSpline
210
0
220
0
230
1
 70
8
 71
3
 72
8
 73
4
 74
0
 40
-3.10896
 40
-3.10896
 40
-3.10896
 40
-3.10896
 40
-0.151492
 40
-0.151492
 40
-0.151492
 40
-0.151492
 10
123.564
 20
74.5623
 30
0
 10
123.906
 20
74.2185
 30
0
 10
124.276
 20
73.8747
 30
0
 10
124.698
 20
73.5309
 30
0
  0
SPLINE
  5
BBA
330
A02
100
AcDbEntity
  8
View
100
AcDbSpline
210
0
220
0
230
1
 70
8
 71
3
 72
8
 73
4
 74
0
 40
-3.20428
 40
-3.20428
 40
-3.20428
 40
-3.20428
 40
-0.246807
 40
-0.246807
 40
-0.246807
 40
-0.246807
 10
45.3611
 20
73.5309
 30
0
 10
45.7833
 20
73.8747
 30
0
 10
46.1527
 20
74.2185
 30
0
 10
46.4947
 20
74.5623
 30
0
  0
ENDSEC
  0
SECTION
  2
OBJECTS
  0
DICTIONARY
  5
F000
330
0
100
AcDbDictionary
  3
ACAD_GROUP
350
F001
  0
DICTIONARY
  5
F001
330
F000
100
AcDbDictionary
  0
ENDSEC
  0
EOF