999
FreeCAD v0.21 33771 (Git)
  0
SECTION
  2
HEADER
  9
$ACADVER
  1
AC1014
  9
$ACADMAINTVER
 70
     9
  9
$DWGCODEPAGE
  3
ANSI_1252
  9
$TEXTSTYLE
  7
STANDARD
  9
$DIMSTYLE
  2
STANDARD
  9
$DIMTXSTY
  7
STANDARD
  9
$CMLSTYLE
  2
STANDARD
  9
$LUNITS
 70
2
  9
$INSUNITS
 70
4
  9
$PEXTMAX
 10
50
 20
50
 30
50
  9
$PEXTMIN
 10
0
 20
0
 30
0
  9
$HANDSEED
  5
FFFF
  0
ENDSEC
  0
SECTION
  2
CLASSES
  0
CLASS
  1
ACDBDICTIONARYWDFLT
  2
AcDbDictionaryWithDefault
  3
ObjectDBX Classes
 90
        0
280
     0
281
     0
  0
CLASS
  1
XRECORD
  2
AcDbXrecord
  3
ObjectDBX Classes
 90
        0
280
     0
281
     0
  0
CLASS
  1
LWPOLYLINE
  2
AcDbPolyline
  3
ObjectDBX Classes
 90
        0
280
     0
281
     1
  0
ENDSEC
  0
SECTION
  2
TABLES
  0
TABLE
  2
VPORT
  5
20
330
0
100
AcDbSymbolTable
 70
     1
  0
VPORT
  5
21
330
20
100
AcDbSymbolTableRecord
100
AcDbViewportTableRecord
  2
*ACTIVE
 70
     0
  0
ENDTAB
  0
TABLE
  2
LTYPE
  5
22
330
0
100
AcDbSymbolTable
 70
     1
  0
LTYPE
  5
23
330
21
100
AcDbSymbolTableRecord
100
AcDbLinetypeTableRecord
  2
BYBLOCK
 70
     0
  3

 72
    65
 73
     0
 40
0.0
  0
LTYPE
  5
24
330
21
100
AcDbSymbolTableRecord
100
AcDbLinetypeTableRecord
  2
BYLAYER
 70
     0
  3

 72
    65
 73
     0
 40
0.0
  0
LTYPE
  5
25
330
21
100
AcDbSymbolTableRecord
100
AcDbLinetypeTableRecord
  2
CONTINUOUS
 70
     0
  3
Solid line
 72
    65
 73
     0
 40
0.0
  0
ENDTAB
  0
TABLE
  2
LAYER
  5
A9B
330
0
100
AcDbSymbolTable
 70
3
  0
LAYER
  5
A9C
330
A9B
100
AcDbSymbolTableRecord
100
AcDbLayerTableRecord
  2
0
 70
   0
 62
   7
  6
CONTINUOUS
  0
LAYER
  5
A9D
330
A9B
100
AcDbSymbolTableRecord
100
AcDbLayerTableRecord
  2
none
 70
    0
 62
    7
  6
CONTINUOUS
  0
LAYER
  5
A9E
330
A9B
100
AcDbSymbolTableRecord
100
AcDbLayerTableRecord
  2
Facebinder
 70
    0
 62
    7
  6
CONTINUOUS
  0
ENDTAB
  0
TABLE
  2
STYLE
  5
70
330
0
100
AcDbSymbolTable
 70
     2
  0
STYLE
  5
71
330
70
100
AcDbSymbolTableRecord
100
AcDbTextStyleTableRecord
  2
STANDARD
 70
     0
 40
0.0
 41
1.0
 50
0.0
 71
     0
 42
2.5
  3
arial.ttf
  4

  0
STYLE
  5
72
330
70
100
AcDbSymbolTableRecord
100
AcDbTextStyleTableRecord
  2
ANNOTATIVE
 70
     0
 40
0.0
 41
1.0
 50
0.0
 71
     0
 42
2.5
  3
arial.ttf
  4

  0
ENDTAB
  0
TABLE
  2
VIEW
  5
73
330
0
100
AcDbSymbolTable
 70
     0
  0
ENDTAB
  0
TABLE
  2
UCS
  5
74
330
0
100
AcDbSymbolTable
 70
     0
  0
ENDTAB
  0
TABLE
  2
APPID
  5
75
330
0
100
AcDbSymbolTable
 70
     2
  0
APPID
  5
76
330
75
100
AcDbSymbolTableRecord
100
AcDbRegAppTableRecord
  2
ACAD
 70
     0
  0
APPID
  5
77
330
75
100
AcDbSymbolTableRecord
100
AcDbRegAppTableRecord
  2
ACADANNOTATIVE
 70
     0
  0
ENDTAB
  0
TABLE
  2
DIMSTYLE
  5
78
330
0
100
AcDbSymbolTable
 70
     2
  0
DIMSTYLE
105
79
330
78
100
AcDbSymbolTableRecord
100
AcDbDimStyleTableRecord
  2
STANDARD
 70
     0
  3

  4

  5

  6

  7

 40
0.0
 41
2.5
 42
0.625
 43
3.75
 44
1.25
 45
0.0
 46
0.0
 47
0.0
 48
0.0
140
2.5
141
2.5
142
0.0
143
0.03937007874016
144
1.0
145
0.0
146
1.0
147
0.625
 71
     0
 72
     0
 73
     0
 74
     0
 75
     0
 76
     0
 77
     1
 78
     8
170
     0
171
     3
172
     1
173
     0
174
     0
175
     0
176
     0
177
     0
178
     0
270
     2
271
     2
272
     2
273
     2
274
     3
340
71
275
     0
280
     0
281
     0
282
     0
283
     0
284
     8
285
     0
286
     0
287
     3
288
     0
  0
ENDTAB
  0
TABLE
  2
BLOCK_RECORD
  5
A01
330
0
100
AcDbSymbolTable
  70
5
  0
BLOCK_RECORD
  5
A02
330
A01
100
AcDbSymbolTableRecord
100
AcDbBlockTableRecord
  2
*MODEL_SPACE
  0
BLOCK_RECORD
  5
A03
330
A01
100
AcDbSymbolTableRecord
100
AcDbBlockTableRecord
  2
*PAPER_SPACE
  0
ENDTAB
  0
ENDSEC
  0
SECTION
  2
BLOCKS
  0
BLOCK
  5
A04
330
A02
100
AcDbEntity
  8
0
100
AcDbBlockBegin
  2
*MODEL_SPACE
 70
   0
 10
0
 20
0
 30
0
  3
*MODEL_SPACE
  1
 
  0
ENDBLK
  5
A05
330
A02
100
AcDbEntity
  8
0
100
AcDbBlockEnd
  0
BLOCK
  5
A06
330
A03
100
AcDbEntity
 67
1
  8
0
100
AcDbBlockBegin
  2
*PAPER_SPACE
 70
   0
 10
0
 20
0
 30
0
  3
*PAPER_SPACE
  1
 
  0
ENDBLK
  5
A07
330
A03
100
AcDbEntity
 67
    1
  8
0
100
AcDbBlockEnd
  0
ENDSEC
  0
SECTION
  2
ENTITIES
  0
LINE
  5
A08
330
A02
100
AcDbEntity
  8
Facebinder
100
AcDbLine
 10
-83.0347
 20
-30.5
 30
-55.4677
 11
-5.9653
 21
-30.5
 31
-55.4677
  0
SPLINE
  5
A09
330
A02
100
AcDbEntity
  8
Facebinder
100
AcDbSpline
210
0
220
0
230
1
 70
8
 71
3
 72
11
 73
7
 74
0
 40
-0.0777298
 40
-0.0777298
 40
-0.0777298
 40
-0.0777298
 40
-0.0333128
 40
-0.0333128
 40
-0.0333128
 40
-0
 40
-0
 40
-0
 40
-0
 10
-83.5344
 20
-30.5
 30
-54.9707
 10
-83.5336
 20
-30.5
 30
-55.1187
 10
-83.4618
 20
-30.5
 30
-55.2663
 10
-83.3454
 20
-30.5
 30
-55.3592
 10
-83.2582
 20
-30.5
 30
-55.4288
 10
-83.1457
 20
-30.5
 30
-55.4677
 10
-83.0347
 20
-30.5
 30
-55.4677
  0
ARC
  5
A0A
330
A02
100
AcDbEntity
  8
Facebinder
100
AcDbCircle
 10
-89
 20
-30.5
 30
-55
 40
0.0293117
100
AcDbArc
 50
0
 51
0
  0
SPLINE
  5
A0B
330
A02
100
AcDbEntity
  8
Facebinder
100
AcDbSpline
210
0
220
0
230
1
 70
8
 71
3
 72
11
 73
7
 74
0
 40
-0.0777298
 40
-0.0777298
 40
-0.0777298
 40
-0.0777298
 40
-0.0333128
 40
-0.0333128
 40
-0.0333128
 40
-0
 40
-0
 40
-0
 40
-0
 10
-89.4677
 20
-30.5
 30
-49.0347
 10
-89.4677
 20
-30.5
 30
-49.1828
 10
-89.3967
 20
-30.5
 30
-49.3307
 10
-89.2808
 20
-30.5
 30
-49.4242
 10
-89.1939
 20
-30.5
 30
-49.4943
 10
-89.0817
 20
-30.5
 30
-49.5338
 10
-88.9707
 20
-30.5
 30
-49.5344
  0
LINE
  5
A0C
330
A02
100
AcDbEntity
  8
Facebinder
100
AcDbLine
 10
-89.4677
 20
-30.5
 30
49.0347
 11
-89.4677
 21
-30.5
 31
-49.0347
  0
SPLINE
  5
A0D
330
A02
100
AcDbEntity
  8
Facebinder
100
AcDbSpline
210
0
220
0
230
1
 70
8
 71
3
 72
11
 73
7
 74
0
 40
-0.0777298
 40
-0.0777298
 40
-0.0777298
 40
-0.0777298
 40
-0.0333128
 40
-0.0333128
 40
-0.0333128
 40
-0
 40
-0
 40
-0
 40
-0
 10
-88.9707
 20
-30.5
 30
49.5344
 10
-89.1187
 20
-30.5
 30
49.5336
 10
-89.2663
 20
-30.5
 30
49.4618
 10
-89.3592
 20
-30.5
 30
49.3454
 10
-89.4288
 20
-30.5
 30
49.2582
 10
-89.4677
 20
-30.5
 30
49.1457
 10
-89.4677
 20
-30.5
 30
49.0347
  0
ARC
  5
A0E
330
A02
100
AcDbEntity
  8
Facebinder
100
AcDbCircle
 10
-89
 20
-30.5
 30
55
 40
5.46561
100
AcDbArc
 50
0
 51
0
  0
SPLINE
  5
A0F
330
A02
100
AcDbEntity
  8
Facebinder
100
AcDbSpline
210
0
220
0
230
1
 70
8
 71
3
 72
11
 73
7
 74
0
 40
-0.0777298
 40
-0.0777298
 40
-0.0777298
 40
-0.0777298
 40
-0.0333128
 40
-0.0333128
 40
-0.0333128
 40
-0
 40
-0
 40
-0
 40
-0
 10
-83.0347
 20
-30.5
 30
55.4677
 10
-83.1828
 20
-30.5
 30
55.4677
 10
-83.3307
 20
-30.5
 30
55.3967
 10
-83.4242
 20
-30.5
 30
55.2808
 10
-83.4943
 20
-30.5
 30
55.1939
 10
-83.5338
 20
-30.5
 30
55.0817
 10
-83.5344
 20
-30.5
 30
54.9707
  0
LINE
  5
A10
330
A02
100
AcDbEntity
  8
Facebinder
100
AcDbLine
 10
-5.9653
 20
-30.5
 30
55.4677
 11
-83.0347
 21
-30.5
 31
55.4677
  0
SPLINE
  5
A11
330
A02
100
AcDbEntity
  8
Facebinder
100
AcDbSpline
210
0
220
0
230
1
 70
8
 71
3
 72
11
 73
7
 74
0
 40
-0.0777298
 40
-0.0777298
 40
-0.0777298
 40
-0.0777298
 40
-0.044417
 40
-0.044417
 40
-0.044417
 40
-0
 40
-0
 40
-0
 40
-0
 10
-5.46561
 20
-30.5
 30
54.9707
 10
-5.46621
 20
-30.5
 30
55.0817
 10
-5.50566
 20
-30.5
 30
55.1939
 10
-5.57577
 20
-30.5
 30
55.2808
 10
-5.66926
 20
-30.5
 30
55.3967
 10
-5.81724
 20
-30.5
 30
55.4677
 10
-5.9653
 20
-30.5
 30
55.4677
  0
ARC
  5
A12
330
A02
100
AcDbEntity
  8
Facebinder
100
AcDbCircle
 10
3.55271e-14
 20
-30.5
 30
55
 40
5.46561
100
AcDbArc
 50
180
 51
0
  0
SPLINE
  5
A13
330
A02
100
AcDbEntity
  8
Facebinder
100
AcDbSpline
210
0
220
0
230
1
 70
8
 71
3
 72
11
 73
7
 74
0
 40
-0.0777298
 40
-0.0777298
 40
-0.0777298
 40
-0.0777298
 40
-0.0333128
 40
-0.0333128
 40
-0.0333128
 40
-0
 40
-0
 40
-0
 40
-0
 10
5.9653
 20
-30.5
 30
55.4677
 10
5.81724
 20
-30.5
 30
55.4677
 10
5.66926
 20
-30.5
 30
55.3967
 10
5.57578
 20
-30.5
 30
55.2808
 10
5.50566
 20
-30.5
 30
55.1939
 10
5.46621
 20
-30.5
 30
55.0817
 10
5.46561
 20
-30.5
 30
54.9707
  0
LINE
  5
A14
330
A02
100
AcDbEntity
  8
Facebinder
100
AcDbLine
 10
83.0347
 20
-30.5
 30
55.4677
 11
5.9653
 21
-30.5
 31
55.4677
  0
SPLINE
  5
A15
330
A02
100
AcDbEntity
  8
Facebinder
100
AcDbSpline
210
0
220
0
230
1
 70
8
 71
3
 72
11
 73
7
 74
0
 40
-0.0777298
 40
-0.0777298
 40
-0.0777298
 40
-0.0777298
 40
-0.0333128
 40
-0.0333128
 40
-0.0333128
 40
-0
 40
-0
 40
-0
 40
-0
 10
83.5344
 20
-30.5
 30
54.9707
 10
83.5336
 20
-30.5
 30
55.1187
 10
83.4618
 20
-30.5
 30
55.2663
 10
83.3454
 20
-30.5
 30
55.3592
 10
83.2581
 20
-30.5
 30
55.4288
 10
83.1457
 20
-30.5
 30
55.4677
 10
83.0347
 20
-30.5
 30
55.4677
  0
ARC
  5
A16
330
A02
100
AcDbEntity
  8
Facebinder
100
AcDbCircle
 10
89
 20
-30.5
 30
55
 40
0.0293117
100
AcDbArc
 50
180
 51
180
  0
SPLINE
  5
A17
330
A02
100
AcDbEntity
  8
Facebinder
100
AcDbSpline
210
0
220
0
230
1
 70
8
 71
3
 72
11
 73
7
 74
0
 40
-0.0777298
 40
-0.0777298
 40
-0.0777298
 40
-0.0777298
 40
-0.0333128
 40
-0.0333128
 40
-0.0333128
 40
-0
 40
-0
 40
-0
 40
-0
 10
89.4677
 20
-30.5
 30
49.0347
 10
89.4677
 20
-30.5
 30
49.1828
 10
89.3967
 20
-30.5
 30
49.3307
 10
89.2808
 20
-30.5
 30
49.4242
 10
89.1939
 20
-30.5
 30
49.4943
 10
89.0817
 20
-30.5
 30
49.5338
 10
88.9707
 20
-30.5
 30
49.5344
  0
LINE
  5
A18
330
A02
100
AcDbEntity
  8
Facebinder
100
AcDbLine
 10
89.4677
 20
-30.5
 30
-49.0347
 11
89.4677
 21
-30.5
 31
49.0347
  0
SPLINE
  5
A19
330
A02
100
AcDbEntity
  8
Facebinder
100
AcDbSpline
210
0
220
0
230
1
 70
8
 71
3
 72
11
 73
7
 74
0
 40
-0.0777298
 40
-0.0777298
 40
-0.0777298
 40
-0.0777298
 40
-0.0333128
 40
-0.0333128
 40
-0.0333128
 40
-0
 40
-0
 40
-0
 40
-0
 10
88.9707
 20
-30.5
 30
-49.5344
 10
89.1187
 20
-30.5
 30
-49.5336
 10
89.2663
 20
-30.5
 30
-49.4618
 10
89.3592
 20
-30.5
 30
-49.3454
 10
89.4288
 20
-30.5
 30
-49.2581
 10
89.4677
 20
-30.5
 30
-49.1457
 10
89.4677
 20
-30.5
 30
-49.0347
  0
ARC
  5
A1A
330
A02
100
AcDbEntity
  8
Facebinder
100
AcDbCircle
 10
89
 20
-30.5
 30
-55
 40
5.46561
100
AcDbArc
 50
180
 51
180
  0
SPLINE
  5
A1B
330
A02
100
AcDbEntity
  8
Facebinder
100
AcDbSpline
210
0
220
0
230
1
 70
8
 71
3
 72
11
 73
7
 74
0
 40
-0.0777298
 40
-0.0777298
 40
-0.0777298
 40
-0.0777298
 40
-0.0333128
 40
-0.0333128
 40
-0.0333128
 40
-0
 40
-0
 40
-0
 40
-0
 10
83.0347
 20
-30.5
 30
-55.4677
 10
83.1828
 20
-30.5
 30
-55.4677
 10
83.3307
 20
-30.5
 30
-55.3967
 10
83.4242
 20
-30.5
 30
-55.2808
 10
83.4943
 20
-30.5
 30
-55.1939
 10
83.5338
 20
-30.5
 30
-55.0817
 10
83.5344
 20
-30.5
 30
-54.9707
  0
LINE
  5
A1C
330
A02
100
AcDbEntity
  8
Facebinder
100
AcDbLine
 10
5.9653
 20
-30.5
 30
-55.4677
 11
83.0347
 21
-30.5
 31
-55.4677
  0
SPLINE
  5
A1D
330
A02
100
AcDbEntity
  8
Facebinder
100
AcDbSpline
210
0
220
0
230
1
 70
8
 71
3
 72
11
 73
7
 74
0
 40
-0.0777298
 40
-0.0777298
 40
-0.0777298
 40
-0.0777298
 40
-0.0333128
 40
-0.0333128
 40
-0.0333128
 40
-0
 40
-0
 40
-0
 40
-0
 10
5.46561
 20
-30.5
 30
-54.9707
 10
5.4664
 20
-30.5
 30
-55.1187
 10
5.53816
 20
-30.5
 30
-55.2663
 10
5.65456
 20
-30.5
 30
-55.3592
 10
5.74185
 20
-30.5
 30
-55.4289
 10
5.85426
 20
-30.5
 30
-55.4677
 10
5.9653
 20
-30.5
 30
-55.4677
  0
ARC
  5
A1E
330
A02
100
AcDbEntity
  8
Facebinder
100
AcDbCircle
 10
-3.55271e-14
 20
-30.5
 30
-55
 40
5.46561
100
AcDbArc
 50
0
 51
180
  0
SPLINE
  5
A1F
330
A02
100
AcDbEntity
  8
Facebinder
100
AcDbSpline
210
0
220
0
230
1
 70
8
 71
3
 72
11
 73
7
 74
0
 40
-0.0777298
 40
-0.0777298
 40
-0.0777298
 40
-0.0777298
 40
-0.0333128
 40
-0.0333128
 40
-0.0333128
 40
-0
 40
-0
 40
-0
 40
-0
 10
-5.9653
 20
-30.5
 30
-55.4677
 10
-5.81724
 20
-30.5
 30
-55.4677
 10
-5.66926
 20
-30.5
 30
-55.3967
 10
-5.57577
 20
-30.5
 30
-55.2808
 10
-5.50566
 20
-30.5
 30
-55.1939
 10
-5.46621
 20
-30.5
 30
-55.0817
 10
-5.46561
 20
-30.5
 30
-54.9707
  0
SPLINE
  5
A20
330
A02
100
AcDbEntity
  8
Facebinder
100
AcDbSpline
210
0
220
0
230
1
 70
8
 71
2
 72
6
 73
3
 74
0
 40
0
 40
0
 40
0
 40
1
 40
1
 40
1
 10
-1.16736
 20
-30.5
 30
6.13345
 10
-1.24663
 20
-30.5
 30
6.47797
 10
-1.45395
 20
-30.5
 30
6.71882
  0
SPLINE
  5
A21
330
A02
100
AcDbEntity
  8
Facebinder
100
AcDbSpline
210
0
220
0
230
1
 70
8
 71
3
 72
8
 73
4
 74
0
 40
0
 40
0
 40
0
 40
0
 40
2
 40
2
 40
2
 40
2
 10
-1.45395
 20
-30.5
 30
6.71882
 10
-1.80443
 20
-30.5
 30
7.1419
 10
-2.37582
 20
-30.5
 30
7.3496
 10
-3.08809
 20
-30.5
 30
7.34992
  0
SPLINE
  5
A22
330
A02
100
AcDbEntity
  8
Facebinder
100
AcDbSpline
210
0
220
0
230
1
 70
8
 71
2
 72
12
 73
9
 74
0
 40
0
 40
0
 40
0
 40
1
 40
1
 40
2
 40
2
 40
3
 40
3
 40
5
 40
5
 40
5
 10
-3.08809
 20
-30.5
 30
7.34992
 10
-3.54236
 20
-30.5
 30
7.34992
 10
-3.89449
 20
-30.5
 30
7.24321
 10
-4.24663
 20
-30.5
 30
7.1365
 10
-4.47681
 20
-30.5
 30
6.97035
 10
-4.70699
 20
-30.5
 30
6.80419
 10
-4.83962
 20
-30.5
 30
6.60602
 10
-5.10715
 20
-30.5
 30
6.2112
 10
-5.10943
 20
-30.5
 30
5.48711
  0
LINE
  5
A23
330
A02
100
AcDbEntity
  8
Facebinder
100
AcDbLine
 10
-5.10943
 20
-30.5
 30
5.48711
 11
-5.10943
 21
-30.5
 31
4.04199
  0
LINE
  5
A24
330
A02
100
AcDbEntity
  8
Facebinder
100
AcDbLine
 10
-5.10943
 20
-30.5
 30
4.04199
 11
-1.10943
 21
-30.5
 31
4.04199
  0
LINE
  5
A25
330
A02
100
AcDbEntity
  8
Facebinder
100
AcDbLine
 10
-1.10943
 20
-30.5
 30
4.04199
 11
-1.10943
 21
-30.5
 31
5.42004
  0
SPLINE
  5
A26
330
A02
100
AcDbEntity
  8
Facebinder
100
AcDbSpline
210
0
220
0
230
1
 70
8
 71
2
 72
6
 73
3
 74
0
 40
0
 40
0
 40
0
 40
1
 40
1
 40
1
 10
-1.10943
 20
-30.5
 30
5.42004
 10
-1.10943
 20
-30.5
 30
5.8865
 10
-1.16736
 20
-30.5
 30
6.13345
  0
SPLINE
  5
A27
330
A02
100
AcDbEntity
  8
Facebinder
100
AcDbSpline
210
0
220
0
230
1
 70
8
 71
2
 72
10
 73
7
 74
0
 40
0
 40
0
 40
0
 40
1
 40
1
 40
2
 40
2
 40
3
 40
3
 40
3
 10
-3.13687
 20
-30.5
 30
1.79199
 10
-3.84114
 20
-30.5
 30
1.79199
 10
-4.27407
 20
-30.5
 30
1.64717
 10
-4.70699
 20
-30.5
 30
1.50236
 10
-4.94175
 20
-30.5
 30
1.21425
 10
-5.17651
 20
-30.5
 30
0.926138
 10
-5.17651
 20
-30.5
 30
0.490162
  0
SPLINE
  5
A28
330
A02
100
AcDbEntity
  8
Facebinder
100
AcDbSpline
210
0
220
0
230
1
 70
8
 71
2
 72
6
 73
3
 74
0
 40
0
 40
0
 40
0
 40
1
 40
1
 40
1
 10
-5.17651
 20
-30.5
 30
0.490162
 10
-5.17651
 20
-30.5
 30
-0.0891063
 10
-4.76492
 20
-30.5
 30
-0.418375
  0
SPLINE
  5
A29
330
A02
100
AcDbEntity
  8
Facebinder
100
AcDbSpline
210
0
220
0
230
1
 70
8
 71
2
 72
6
 73
3
 74
0
 40
0
 40
0
 40
0
 40
1
 40
1
 40
1
 10
-4.76492
 20
-30.5
 30
-0.418375
 10
-4.26187
 20
-30.5
 30
-0.814716
 10
-3.13687
 20
-30.5
 30
-0.814716
  0
SPLINE
  5
A2A
330
A02
100
AcDbEntity
  8
Facebinder
100
AcDbSpline
210
0
220
0
230
1
 70
8
 71
2
 72
10
 73
7
 74
0
 40
0
 40
0
 40
0
 40
1
 40
1
 40
2
 40
2
 40
3
 40
3
 40
3
 10
-3.13687
 20
-30.5
 30
-0.814716
 10
-2.42651
 20
-30.5
 30
-0.814716
 10
-1.99358
 20
-30.5
 30
-0.668375
 10
-1.56065
 20
-30.5
 30
-0.522033
 10
-1.32742
 20
-30.5
 30
-0.235448
 10
-1.09419
 20
-30.5
 30
0.0511377
 10
-1.09419
 20
-30.5
 30
0.490162
  0
SPLINE
  5
A2B
330
A02
100
AcDbEntity
  8
Facebinder
100
AcDbSpline
210
0
220
0
230
1
 70
8
 71
3
 72
14
 73
10
 74
0
 40
0
 40
0
 40
0
 40
0
 40
2
 40
2
 40
2
 40
3
 40
3
 40
3
 40
4
 40
4
 40
4
 40
4
 10
-1.09419
 20
-30.5
 30
0.490162
 10
-1.0926
 20
-30.5
 30
0.91588
 10
-1.27362
 20
-30.5
 30
1.24686
 10
-1.59724
 20
-30.5
 30
1.4551
 10
-1.75984
 20
-30.5
 30
1.55978
 10
-1.95801
 20
-30.5
 30
1.64209
 10
-2.19175
 20
-30.5
 30
1.70205
 10
-2.42549
 20
-30.5
 30
1.76201
 10
-2.74053
 20
-30.5
 30
1.79199
 10
-3.13687
 20
-30.5
 30
1.79199
  0
SPLINE
  5
A2C
330
A02
100
AcDbEntity
  8
Facebinder
100
AcDbSpline
210
0
220
0
230
1
 70
8
 71
2
 72
8
 73
5
 74
0
 40
0
 40
0
 40
0
 40
1
 40
1
 40
2
 40
2
 40
2
 10
-3.75273
 20
-30.5
 30
-2.7385
 10
-3.75273
 20
-30.5
 30
-3.23545
 10
-3.39297
 20
-30.5
 30
-3.57844
 10
-3.03321
 20
-30.5
 30
-3.92142
 10
-2.4448
 20
-30.5
 30
-3.92142
  0
SPLINE
  5
A2D
330
A02
100
AcDbEntity
  8
Facebinder
100
AcDbSpline
210
0
220
0
230
1
 70
8
 71
2
 72
8
 73
5
 74
0
 40
0
 40
0
 40
0
 40
1
 40
1
 40
2
 40
2
 40
2
 10
-2.4448
 20
-30.5
 30
-3.92142
 10
-1.83504
 20
-30.5
 30
-3.92142
 10
-1.46462
 20
-30.5
 30
-3.56319
 10
-1.09419
 20
-30.5
 30
-3.20496
 10
-1.09419
 20
-30.5
 30
-2.66533
  0
SPLINE
  5
A2E
330
A02
100
AcDbEntity
  8
Facebinder
100
AcDbSpline
210
0
220
0
230
1
 70
8
 71
2
 72
10
 73
7
 74
0
 40
0
 40
0
 40
0
 40
1
 40
1
 40
2
 40
2
 40
3
 40
3
 40
3
 10
-1.09419
 20
-30.5
 30
-2.66533
 10
-1.09419
 20
-30.5
 30
-2.27508
 10
-1.30456
 20
-30.5
 30
-1.95191
 10
-1.51492
 20
-30.5
 30
-1.62874
 10
-1.90364
 20
-30.5
 30
-1.46106
 10
-2.29236
 20
-30.5
 30
-1.29337
 10
-3.02712
 20
-30.5
 30
-1.29337
  0
SPLINE
  5
A2F
330
A02
100
AcDbEntity
  8
Facebinder
100
AcDbSpline
210
0
220
0
230
1
 70
8
 71
2
 72
10
 73
7
 74
0
 40
0
 40
0
 40
0
 40
1
 40
1
 40
2
 40
2
 40
3
 40
3
 40
3
 10
-3.02712
 20
-30.5
 30
-1.29337
 10
-3.79541
 20
-30.5
 30
-1.29337
 10
-4.24815
 20
-30.5
 30
-1.45953
 10
-4.7009
 20
-30.5
 30
-1.62569
 10
-4.9387
 20
-30.5
 30
-1.95496
 10
-5.17651
 20
-30.5
 30
-2.28423
 10
-5.17651
 20
-30.5
 30
-2.7263
  0
SPLINE
  5
A30
330
A02
100
AcDbEntity
  8
Facebinder
100
AcDbSpline
210
0
220
0
230
1
 70
8
 71
2
 72
8
 73
5
 74
0
 40
0
 40
0
 40
0
 40
1
 40
1
 40
2
 40
2
 40
2
 10
-5.17651
 20
-30.5
 30
-2.7263
 10
-5.17651
 20
-30.5
 30
-3.19276
 10
-4.91584
 20
-30.5
 30
-3.49002
 10
-4.65517
 20
-30.5
 30
-3.78728
 10
-4.1826
 20
-30.5
 30
-3.84825
  0
LINE
  5
A31
330
A02
100
AcDbEntity
  8
Facebinder
100
AcDbLine
 10
-4.1826
 20
-30.5
 30
-3.84825
 11
-4.13992
 21
-30.5
 31
-3.37569
  0
SPLINE
  5
A32
330
A02
100
AcDbEntity
  8
Facebinder
100
AcDbSpline
210
0
220
0
230
1
 70
8
 71
2
 72
8
 73
5
 74
0
 40
0
 40
0
 40
0
 40
1
 40
1
 40
2
 40
2
 40
2
 10
-4.13992
 20
-30.5
 30
-3.37569
 10
-4.47224
 20
-30.5
 30
-3.31472
 10
-4.62315
 20
-30.5
 30
-3.14551
 10
-4.77407
 20
-30.5
 30
-2.9763
 10
-4.77407
 20
-30.5
 30
-2.71411
  0
SPLINE
  5
A33
330
A02
100
AcDbEntity
  8
Facebinder
100
AcDbSpline
210
0
220
0
230
1
 70
8
 71
2
 72
12
 73
9
 74
0
 40
0
 40
0
 40
0
 40
1
 40
1
 40
2
 40
2
 40
3
 40
3
 40
4
 40
4
 40
4
 10
-4.77407
 20
-30.5
 30
-2.71411
 10
-4.77407
 20
-30.5
 30
-2.4885
 10
-4.67041
 20
-30.5
 30
-2.31624
 10
-4.56675
 20
-30.5
 30
-2.14398
 10
-4.39297
 20
-30.5
 30
-2.03575
 10
-4.21919
 20
-30.5
 30
-1.92752
 10
-3.92498
 20
-30.5
 30
-1.85435
 10
-3.63077
 20
-30.5
 30
-1.78118
 10
-3.32285
 20
-30.5
 30
-1.78118
  0
SPLINE
  5
A34
330
A02
100
AcDbEntity
  8
Facebinder
100
AcDbSpline
210
0
220
0
230
1
 70
8
 71
2
 72
6
 73
3
 74
0
 40
0
 40
0
 40
0
 40
1
 40
1
 40
1
 10
-3.32285
 20
-30.5
 30
-1.78118
 10
-3.29236
 20
-30.5
 30
-1.78118
 10
-3.22529
 20
-30.5
 30
-1.78423
  0
SPLINE
  5
A35
330
A02
100
AcDbEntity
  8
Facebinder
100
AcDbSpline
210
0
220
0
230
1
 70
8
 71
2
 72
8
 73
5
 74
0
 40
0
 40
0
 40
0
 40
1
 40
1
 40
2
 40
2
 40
2
 10
-3.22529
 20
-30.5
 30
-1.78423
 10
-3.46004
 20
-30.5
 30
-1.93057
 10
-3.60638
 20
-30.5
 30
-2.18514
 10
-3.75273
 20
-30.5
 30
-2.43972
 10
-3.75273
 20
-30.5
 30
-2.7385
  0
LINE
  5
A36
330
A02
100
AcDbEntity
  8
Facebinder
100
AcDbLine
 10
-1.16126
 20
-30.5
 30
-4.56472
 11
-1.63077
 21
-30.5
 31
-4.56472
  0
LINE
  5
A37
330
A02
100
AcDbEntity
  8
Facebinder
100
AcDbLine
 10
-1.63077
 20
-30.5
 30
-4.56472
 11
-1.63077
 21
-30.5
 31
-6.15923
  0
LINE
  5
A38
330
A02
100
AcDbEntity
  8
Facebinder
100
AcDbLine
 10
-1.63077
 20
-30.5
 30
-6.15923
 11
-2.70395
 21
-30.5
 31
-6.37569
  0
SPLINE
  5
A39
330
A02
100
AcDbEntity
  8
Facebinder
100
AcDbSpline
210
0
220
0
230
1
 70
8
 71
2
 72
6
 73
3
 74
0
 40
0
 40
0
 40
0
 40
1
 40
1
 40
1
 10
-2.70395
 20
-30.5
 30
-6.37569
 10
-2.45395
 20
-30.5
 30
-6.01594
 10
-2.45395
 20
-30.5
 30
-5.61959
  0
SPLINE
  5
A3A
330
A02
100
AcDbEntity
  8
Facebinder
100
AcDbSpline
210
0
220
0
230
1
 70
8
 71
2
 72
8
 73
5
 74
0
 40
0
 40
0
 40
0
 40
1
 40
1
 40
2
 40
2
 40
2
 10
-2.45395
 20
-30.5
 30
-5.61959
 10
-2.45395
 20
-30.5
 30
-5.0952
 10
-2.81675
 20
-30.5
 30
-4.73545
 10
-3.17956
 20
-30.5
 30
-4.37569
 10
-3.74968
 20
-30.5
 30
-4.37569
  0
SPLINE
  5
A3B
330
A02
100
AcDbEntity
  8
Facebinder
100
AcDbSpline
210
0
220
0
230
1
 70
8
 71
2
 72
6
 73
3
 74
0
 40
0
 40
0
 40
0
 40
1
 40
1
 40
1
 10
-3.74968
 20
-30.5
 30
-4.37569
 10
-4.29541
 20
-30.5
 30
-4.37569
 10
-4.69175
 20
-30.5
 30
-4.69276
  0
SPLINE
  5
A3C
330
A02
100
AcDbEntity
  8
Facebinder
100
AcDbSpline
210
0
220
0
230
1
 70
8
 71
2
 72
6
 73
3
 74
0
 40
0
 40
0
 40
0
 40
1
 40
1
 40
1
 10
-4.69175
 20
-30.5
 30
-4.69276
 10
-5.17651
 20
-30.5
 30
-5.07691
 10
-5.17651
 20
-30.5
 30
-5.74155
  0
SPLINE
  5
A3D
330
A02
100
AcDbEntity
  8
Facebinder
100
AcDbSpline
210
0
220
0
230
1
 70
8
 71
2
 72
8
 73
5
 74
0
 40
0
 40
0
 40
0
 40
1
 40
1
 40
2
 40
2
 40
2
 10
-5.17651
 20
-30.5
 30
-5.74155
 10
-5.17651
 20
-30.5
 30
-6.28728
 10
-4.87163
 20
-30.5
 30
-6.63331
 10
-4.56675
 20
-30.5
 30
-6.97935
 10
-4.06065
 20
-30.5
 30
-7.02813
  0
LINE
  5
A3E
330
A02
100
AcDbEntity
  8
Facebinder
100
AcDbLine
 10
-4.06065
 20
-30.5
 30
-7.02813
 11
-4.01797
 21
-30.5
 31
-6.51289
  0
SPLINE
  5
A3F
330
A02
100
AcDbEntity
  8
Facebinder
100
AcDbSpline
210
0
220
0
230
1
 70
8
 71
2
 72
8
 73
5
 74
0
 40
0
 40
0
 40
0
 40
1
 40
1
 40
2
 40
2
 40
2
 10
-4.01797
 20
-30.5
 30
-6.51289
 10
-4.39602
 20
-30.5
 30
-6.45496
 10
-4.58504
 20
-30.5
 30
-6.24764
 10
-4.77407
 20
-30.5
 30
-6.04033
 10
-4.77407
 20
-30.5
 30
-5.74459
  0
SPLINE
  5
A40
330
A02
100
AcDbEntity
  8
Facebinder
100
AcDbSpline
210
0
220
0
230
1
 70
8
 71
2
 72
8
 73
5
 74
0
 40
0
 40
0
 40
0
 40
1
 40
1
 40
2
 40
2
 40
2
 10
-4.77407
 20
-30.5
 30
-5.74459
 10
-4.77407
 20
-30.5
 30
-5.38484
 10
-4.50577
 20
-30.5
 30
-5.14094
 10
-4.23748
 20
-30.5
 30
-4.89703
 10
-3.79541
 20
-30.5
 30
-4.89703
  0
SPLINE
  5
A41
330
A02
100
AcDbEntity
  8
Facebinder
100
AcDbSpline
210
0
220
0
230
1
 70
8
 71
2
 72
8
 73
5
 74
0
 40
0
 40
0
 40
0
 40
1
 40
1
 40
2
 40
2
 40
2
 10
-3.79541
 20
-30.5
 30
-4.89703
 10
-3.37468
 20
-30.5
 30
-4.89703
 10
-3.13077
 20
-30.5
 30
-5.13179
 10
-2.88687
 20
-30.5
 30
-5.36655
 10
-2.88687
 20
-30.5
 30
-5.75069
  0
SPLINE
  5
A42
330
A02
100
AcDbEntity
  8
Facebinder
100
AcDbSpline
210
0
220
0
230
1
 70
8
 71
2
 72
8
 73
5
 74
0
 40
0
 40
0
 40
0
 40
1
 40
1
 40
2
 40
2
 40
2
 10
-2.88687
 20
-30.5
 30
-5.75069
 10
-2.88687
 20
-30.5
 30
-5.9885
 10
-2.9951
 20
-30.5
 30
-6.17905
 10
-3.10334
 20
-30.5
 30
-6.36959
 10
-3.27712
 20
-30.5
 30
-6.47935
  0
LINE
  5
A43
330
A02
100
AcDbEntity
  8
Facebinder
100
AcDbLine
 10
-3.27712
 20
-30.5
 30
-6.47935
 11
-3.21614
 21
-30.5
 31
-6.93972
  0
LINE
  5
A44
330
A02
100
AcDbEntity
  8
Facebinder
100
AcDbLine
 10
-3.21614
 20
-30.5
 30
-6.93972
 11
-1.16126
 21
-30.5
 31
-6.55252
  0
LINE
  5
A45
330
A02
100
AcDbEntity
  8
Facebinder
100
AcDbLine
 10
-1.16126
 20
-30.5
 30
-6.55252
 11
-1.16126
 21
-30.5
 31
-4.56472
  0
LINE
  5
A46
330
A02
100
AcDbEntity
  8
Facebinder
100
AcDbLine
 10
-2.57285
 20
-30.5
 30
-9.75984
 11
-2.09724
 21
-30.5
 31
-9.75984
  0
SPLINE
  5
A47
330
A02
100
AcDbEntity
  8
Facebinder
100
AcDbSpline
210
0
220
0
230
1
 70
8
 71
2
 72
8
 73
5
 74
0
 40
0
 40
0
 40
0
 40
1
 40
1
 40
2
 40
2
 40
2
 10
-2.09724
 20
-30.5
 30
-9.75984
 10
-1.90517
 20
-30.5
 30
-9.34825
 10
-1.62925
 20
-30.5
 30
-9.04033
 10
-1.35334
 20
-30.5
 30
-8.7324
 10
-1.09419
 20
-30.5
 30
-8.60435
  0
LINE
  5
A48
330
A02
100
AcDbEntity
  8
Facebinder
100
AcDbLine
 10
-1.09419
 20
-30.5
 30
-8.60435
 11
-1.09419
 21
-30.5
 31
-8.28728
  0
LINE
  5
A49
330
A02
100
AcDbEntity
  8
Facebinder
100
AcDbLine
 10
-1.09419
 20
-30.5
 30
-8.28728
 11
-5.10943
 21
-30.5
 31
-8.28728
  0
LINE
  5
A4A
330
A02
100
AcDbEntity
  8
Facebinder
100
AcDbLine
 10
-5.10943
 20
-30.5
 30
-8.28728
 11
-5.10943
 21
-30.5
 31
-8.77813
  0
LINE
  5
A4B
330
A02
100
AcDbEntity
  8
Facebinder
100
AcDbLine
 10
-5.10943
 20
-30.5
 30
-8.77813
 11
-1.98138
 21
-30.5
 31
-8.77813
  0
SPLINE
  5
A4C
330
A02
100
AcDbEntity
  8
Facebinder
100
AcDbSpline
210
0
220
0
230
1
 70
8
 71
2
 72
8
 73
5
 74
0
 40
0
 40
0
 40
0
 40
1
 40
1
 40
2
 40
2
 40
2
 10
-1.98138
 20
-30.5
 30
-8.77813
 10
-2.14907
 20
-30.5
 30
-8.95496
 10
-2.31827
 20
-30.5
 30
-9.24307
 10
-2.48748
 20
-30.5
 30
-9.53118
 10
-2.57285
 20
-30.5
 30
-9.75984
  0
SPLINE
  5
A4D
330
A02
100
AcDbEntity
  8
Facebinder
100
AcDbSpline
210
0
220
0
230
1
 70
8
 71
2
 72
6
 73
3
 74
0
 40
0
 40
0
 40
0
 40
1
 40
1
 40
1
 10
5.12745
 20
-30.5
 30
13.8926
 10
5.04818
 20
-30.5
 30
14.2371
 10
4.84086
 20
-30.5
 30
14.478
  0
SPLINE
  5
A4E
330
A02
100
AcDbEntity
  8
Facebinder
100
AcDbSpline
210
0
220
0
230
1
 70
8
 71
3
 72
8
 73
4
 74
0
 40
0
 40
0
 40
0
 40
0
 40
2
 40
2
 40
2
 40
2
 10
4.84086
 20
-30.5
 30
14.478
 10
4.49038
 20
-30.5
 30
14.901
 10
3.91899
 20
-30.5
 30
15.1087
 10
3.20672
 20
-30.5
 30
15.1091
  0
SPLINE
  5
A4F
330
A02
100
AcDbEntity
  8
Facebinder
100
AcDbSpline
210
0
220
0
230
1
 70
8
 71
2
 72
12
 73
9
 74
0
 40
0
 40
0
 40
0
 40
1
 40
1
 40
2
 40
2
 40
3
 40
3
 40
5
 40
5
 40
5
 10
3.20672
 20
-30.5
 30
15.1091
 10
2.75245
 20
-30.5
 30
15.1091
 10
2.40032
 20
-30.5
 30
15.0024
 10
2.04818
 20
-30.5
 30
14.8957
 10
1.818
 20
-30.5
 30
14.7295
 10
1.58782
 20
-30.5
 30
14.5633
 10
1.45519
 20
-30.5
 30
14.3652
 10
1.18766
 20
-30.5
 30
13.9703
 10
1.18538
 20
-30.5
 30
13.2463
  0
LINE
  5
A50
330
A02
100
AcDbEntity
  8
Facebinder
100
AcDbLine
 10
1.18538
 20
-30.5
 30
13.2463
 11
1.18538
 21
-30.5
 31
11.8011
  0
LINE
  5
A51
330
A02
100
AcDbEntity
  8
Facebinder
100
AcDbLine
 10
1.18538
 20
-30.5
 30
11.8011
 11
5.18538
 21
-30.5
 31
11.8011
  0
LINE
  5
A52
330
A02
100
AcDbEntity
  8
Facebinder
100
AcDbLine
 10
5.18538
 20
-30.5
 30
11.8011
 11
5.18538
 21
-30.5
 31
13.1792
  0
SPLINE
  5
A53
330
A02
100
AcDbEntity
  8
Facebinder
100
AcDbSpline
210
0
220
0
230
1
 70
8
 71
2
 72
6
 73
3
 74
0
 40
0
 40
0
 40
0
 40
1
 40
1
 40
1
 10
5.18538
 20
-30.5
 30
13.1792
 10
5.18538
 20
-30.5
 30
13.6457
 10
5.12745
 20
-30.5
 30
13.8926
  0
LINE
  5
A54
330
A02
100
AcDbEntity
  8
Facebinder
100
AcDbLine
 10
5.18538
 20
-30.5
 30
10.9139
 11
1.18538
 21
-30.5
 31
10.9139
  0
LINE
  5
A55
330
A02
100
AcDbEntity
  8
Facebinder
100
AcDbLine
 10
1.18538
 20
-30.5
 30
10.9139
 11
1.18538
 21
-30.5
 31
10.3713
  0
LINE
  5
A56
330
A02
100
AcDbEntity
  8
Facebinder
100
AcDbLine
 10
1.18538
 20
-30.5
 30
10.3713
 11
4.32562
 21
-30.5
 31
8.2676
  0
LINE
  5
A57
330
A02
100
AcDbEntity
  8
Facebinder
100
AcDbLine
 10
4.32562
 20
-30.5
 30
8.2676
 11
1.18538
 21
-30.5
 31
8.2676
  0
LINE
  5
A58
330
A02
100
AcDbEntity
  8
Facebinder
100
AcDbLine
 10
1.18538
 20
-30.5
 30
8.2676
 11
1.18538
 21
-30.5
 31
7.7615
  0
LINE
  5
A59
330
A02
100
AcDbEntity
  8
Facebinder
100
AcDbLine
 10
1.18538
 20
-30.5
 30
7.7615
 11
5.18538
 21
-30.5
 31
7.7615
  0
LINE
  5
A5A
330
A02
100
AcDbEntity
  8
Facebinder
100
AcDbLine
 10
5.18538
 20
-30.5
 30
7.7615
 11
5.18538
 21
-30.5
 31
8.30419
  0
LINE
  5
A5B
330
A02
100
AcDbEntity
  8
Facebinder
100
AcDbLine
 10
5.18538
 20
-30.5
 30
8.30419
 11
2.04513
 21
-30.5
 31
10.4078
  0
LINE
  5
A5C
330
A02
100
AcDbEntity
  8
Facebinder
100
AcDbLine
 10
2.04513
 20
-30.5
 30
10.4078
 11
5.18538
 21
-30.5
 31
10.4078
  0
LINE
  5
A5D
330
A02
100
AcDbEntity
  8
Facebinder
100
AcDbLine
 10
5.18538
 20
-30.5
 30
10.4078
 11
5.18538
 21
-30.5
 31
10.9139
  0
SPLINE
  5
A5E
330
A02
100
AcDbEntity
  8
Facebinder
100
AcDbSpline
210
0
220
0
230
1
 70
8
 71
2
 72
10
 73
7
 74
0
 40
0
 40
0
 40
0
 40
1
 40
1
 40
2
 40
2
 40
3
 40
3
 40
3
 10
3.17928
 20
-30.5
 30
7.08467
 10
2.57257
 20
-30.5
 30
7.08467
 10
2.09239
 20
-30.5
 30
6.83925
 10
1.61221
 20
-30.5
 30
6.59382
 10
1.36525
 20
-30.5
 30
6.1426
 10
1.1183
 20
-30.5
 30
5.69138
 10
1.1183
 20
-30.5
 30
5.17309
  0
SPLINE
  5
A5F
330
A02
100
AcDbEntity
  8
Facebinder
100
AcDbSpline
210
0
220
0
230
1
 70
8
 71
2
 72
10
 73
7
 74
0
 40
0
 40
0
 40
0
 40
1
 40
1
 40
2
 40
2
 40
3
 40
3
 40
3
 10
1.1183
 20
-30.5
 30
5.17309
 10
1.1183
 20
-30.5
 30
4.60602
 10
1.39117
 20
-30.5
 30
4.16089
 10
1.66403
 20
-30.5
 30
3.71577
 10
2.13507
 20
-30.5
 30
3.48711
 10
2.60611
 20
-30.5
 30
3.25846
 10
3.13355
 20
-30.5
 30
3.25846
  0
SPLINE
  5
A60
330
A02
100
AcDbEntity
  8
Facebinder
100
AcDbSpline
210
0
220
0
230
1
 70
8
 71
2
 72
8
 73
5
 74
0
 40
0
 40
0
 40
0
 40
1
 40
1
 40
2
 40
2
 40
2
 10
3.13355
 20
-30.5
 30
3.25846
 10
4.1305
 20
-30.5
 30
3.25846
 10
4.693
 20
-30.5
 30
3.79352
 10
5.2555
 20
-30.5
 30
4.32858
 10
5.2555
 20
-30.5
 30
5.17309
  0
SPLINE
  5
A61
330
A02
100
AcDbEntity
  8
Facebinder
100
AcDbSpline
210
0
220
0
230
1
 70
8
 71
2
 72
10
 73
7
 74
0
 40
0
 40
0
 40
0
 40
1
 40
1
 40
2
 40
2
 40
3
 40
3
 40
3
 10
5.2555
 20
-30.5
 30
5.17309
 10
5.2555
 20
-30.5
 30
5.72797
 10
4.99025
 20
-30.5
 30
6.17309
 10
4.72501
 20
-30.5
 30
6.61821
 10
4.25245
 20
-30.5
 30
6.85144
 10
3.77989
 20
-30.5
 30
7.08467
 10
3.17928
 20
-30.5
 30
7.08467
  0
LINE
  5
A62
330
A02
100
AcDbEntity
  8
Facebinder
100
AcDbLine
 10
5.18538
 20
-30.5
 30
2.56638
 11
1.18538
 21
-30.5
 31
2.56638
  0
LINE
  5
A63
330
A02
100
AcDbEntity
  8
Facebinder
100
AcDbLine
 10
1.18538
 20
-30.5
 30
2.56638
 11
1.18538
 21
-30.5
 31
2.05724
  0
LINE
  5
A64
330
A02
100
AcDbEntity
  8
Facebinder
100
AcDbLine
 10
1.18538
 20
-30.5
 30
2.05724
 11
4.53294
 21
-30.5
 31
2.05724
  0
LINE
  5
A65
330
A02
100
AcDbEntity
  8
Facebinder
100
AcDbLine
 10
4.53294
 20
-30.5
 30
2.05724
 11
1.18538
 21
-30.5
 31
0.889553
  0
LINE
  5
A66
330
A02
100
AcDbEntity
  8
Facebinder
100
AcDbLine
 10
1.18538
 20
-30.5
 30
0.889553
 11
1.18538
 21
-30.5
 31
0.413943
  0
LINE
  5
A67
330
A02
100
AcDbEntity
  8
Facebinder
100
AcDbLine
 10
1.18538
 20
-30.5
 30
0.413943
 11
4.59086
 21
-30.5
 31
-0.744593
  0
LINE
  5
A68
330
A02
100
AcDbEntity
  8
Facebinder
100
AcDbLine
 10
4.59086
 20
-30.5
 30
-0.744593
 11
1.18538
 21
-30.5
 31
-0.744593
  0
LINE
  5
A69
330
A02
100
AcDbEntity
  8
Facebinder
100
AcDbLine
 10
1.18538
 20
-30.5
 30
-0.744593
 11
1.18538
 21
-30.5
 31
-1.25374
  0
LINE
  5
A6A
330
A02
100
AcDbEntity
  8
Facebinder
100
AcDbLine
 10
1.18538
 20
-30.5
 30
-1.25374
 11
5.18538
 21
-30.5
 31
-1.25374
  0
LINE
  5
A6B
330
A02
100
AcDbEntity
  8
Facebinder
100
AcDbLine
 10
5.18538
 20
-30.5
 30
-1.25374
 11
5.18538
 21
-30.5
 31
-0.458008
  0
LINE
  5
A6C
330
A02
100
AcDbEntity
  8
Facebinder
100
AcDbLine
 10
5.18538
 20
-30.5
 30
-0.458008
 11
2.35306
 21
-30.5
 31
0.490163
  0
SPLINE
  5
A6D
330
A02
100
AcDbEntity
  8
Facebinder
100
AcDbSpline
210
0
220
0
230
1
 70
8
 71
2
 72
6
 73
3
 74
0
 40
0
 40
0
 40
0
 40
1
 40
1
 40
1
 10
2.35306
 20
-30.5
 30
0.490163
 10
1.95672
 20
-30.5
 30
0.62126
 10
1.7616
 20
-30.5
 30
0.682236
  0
SPLINE
  5
A6E
330
A02
100
AcDbEntity
  8
Facebinder
100
AcDbSpline
210
0
220
0
230
1
 70
8
 71
2
 72
6
 73
3
 74
0
 40
0
 40
0
 40
0
 40
1
 40
1
 40
1
 10
1.7616
 20
-30.5
 30
0.682236
 10
1.97806
 20
-30.5
 30
0.749309
 10
2.40184
 20
-30.5
 30
0.89565
  0
LINE
  5
A6F
330
A02
100
AcDbEntity
  8
Facebinder
100
AcDbLine
 10
2.40184
 20
-30.5
 30
0.89565
 11
5.18538
 21
-30.5
 31
1.85602
  0
LINE
  5
A70
330
A02
100
AcDbEntity
  8
Facebinder
100
AcDbLine
 10
5.18538
 20
-30.5
 30
1.85602
 11
5.18538
 21
-30.5
 31
2.56638
  0
LINE
  5
A71
330
A02
100
AcDbEntity
  8
Facebinder
100
AcDbLine
 10
5.18538
 20
-30.5
 30
-2.08911
 11
1.18538
 21
-30.5
 31
-2.08911
  0
LINE
  5
A72
330
A02
100
AcDbEntity
  8
Facebinder
100
AcDbLine
 10
1.18538
 20
-30.5
 30
-2.08911
 11
1.18538
 21
-30.5
 31
-2.59825
  0
LINE
  5
A73
330
A02
100
AcDbEntity
  8
Facebinder
100
AcDbLine
 10
1.18538
 20
-30.5
 30
-2.59825
 11
4.53294
 21
-30.5
 31
-2.59825
  0
LINE
  5
A74
330
A02
100
AcDbEntity
  8
Facebinder
100
AcDbLine
 10
4.53294
 20
-30.5
 30
-2.59825
 11
1.18538
 21
-30.5
 31
-3.76593
  0
LINE
  5
A75
330
A02
100
AcDbEntity
  8
Facebinder
100
AcDbLine
 10
1.18538
 20
-30.5
 30
-3.76593
 11
1.18538
 21
-30.5
 31
-4.24154
  0
LINE
  5
A76
330
A02
100
AcDbEntity
  8
Facebinder
100
AcDbLine
 10
1.18538
 20
-30.5
 30
-4.24154
 11
4.59086
 21
-30.5
 31
-5.40008
  0
LINE
  5
A77
330
A02
100
AcDbEntity
  8
Facebinder
100
AcDbLine
 10
4.59086
 20
-30.5
 30
-5.40008
 11
1.18538
 21
-30.5
 31
-5.40008
  0
LINE
  5
A78
330
A02
100
AcDbEntity
  8
Facebinder
100
AcDbLine
 10
1.18538
 20
-30.5
 30
-5.40008
 11
1.18538
 21
-30.5
 31
-5.90923
  0
LINE
  5
A79
330
A02
100
AcDbEntity
  8
Facebinder
100
AcDbLine
 10
1.18538
 20
-30.5
 30
-5.90923
 11
5.18538
 21
-30.5
 31
-5.90923
  0
LINE
  5
A7A
330
A02
100
AcDbEntity
  8
Facebinder
100
AcDbLine
 10
5.18538
 20
-30.5
 30
-5.90923
 11
5.18538
 21
-30.5
 31
-5.1135
  0
LINE
  5
A7B
330
A02
100
AcDbEntity
  8
Facebinder
100
AcDbLine
 10
5.18538
 20
-30.5
 30
-5.1135
 11
2.35306
 21
-30.5
 31
-4.16533
  0
SPLINE
  5
A7C
330
A02
100
AcDbEntity
  8
Facebinder
100
AcDbSpline
210
0
220
0
230
1
 70
8
 71
2
 72
6
 73
3
 74
0
 40
0
 40
0
 40
0
 40
1
 40
1
 40
1
 10
2.35306
 20
-30.5
 30
-4.16533
 10
1.95672
 20
-30.5
 30
-4.03423
 10
1.7616
 20
-30.5
 30
-3.97325
  0
SPLINE
  5
A7D
330
A02
100
AcDbEntity
  8
Facebinder
100
AcDbSpline
210
0
220
0
230
1
 70
8
 71
2
 72
6
 73
3
 74
0
 40
0
 40
0
 40
0
 40
1
 40
1
 40
1
 10
1.7616
 20
-30.5
 30
-3.97325
 10
1.97806
 20
-30.5
 30
-3.90618
 10
2.40184
 20
-30.5
 30
-3.75984
  0
LINE
  5
A7E
330
A02
100
AcDbEntity
  8
Facebinder
100
AcDbLine
 10
2.40184
 20
-30.5
 30
-3.75984
 11
5.18538
 21
-30.5
 31
-2.79947
  0
LINE
  5
A7F
330
A02
100
AcDbEntity
  8
Facebinder
100
AcDbLine
 10
5.18538
 20
-30.5
 30
-2.79947
 11
5.18538
 21
-30.5
 31
-2.08911
  0
LINE
  5
A80
330
A02
100
AcDbEntity
  8
Facebinder
100
AcDbLine
 10
1.18538
 20
-30.5
 30
-6.91837
 11
2.39574
 21
-30.5
 31
-7.38179
  0
LINE
  5
A81
330
A02
100
AcDbEntity
  8
Facebinder
100
AcDbLine
 10
2.39574
 20
-30.5
 30
-7.38179
 11
2.39574
 21
-30.5
 31
-9.05862
  0
LINE
  5
A82
330
A02
100
AcDbEntity
  8
Facebinder
100
AcDbLine
 10
2.39574
 20
-30.5
 30
-9.05862
 11
1.18538
 21
-30.5
 31
-9.49764
  0
LINE
  5
A83
330
A02
100
AcDbEntity
  8
Facebinder
100
AcDbLine
 10
1.18538
 20
-30.5
 30
-9.49764
 11
1.18538
 21
-30.5
 31
-10.0586
  0
LINE
  5
A84
330
A02
100
AcDbEntity
  8
Facebinder
100
AcDbLine
 10
1.18538
 20
-30.5
 30
-10.0586
 11
5.18538
 21
-30.5
 31
-8.52203
  0
LINE
  5
A85
330
A02
100
AcDbEntity
  8
Facebinder
100
AcDbLine
 10
5.18538
 20
-30.5
 30
-8.52203
 11
5.18538
 21
-30.5
 31
-7.94886
  0
LINE
  5
A86
330
A02
100
AcDbEntity
  8
Facebinder
100
AcDbLine
 10
5.18538
 20
-30.5
 30
-7.94886
 11
1.18538
 21
-30.5
 31
-6.31472
  0
LINE
  5
A87
330
A02
100
AcDbEntity
  8
Facebinder
100
AcDbLine
 10
1.18538
 20
-30.5
 30
-6.31472
 11
1.18538
 21
-30.5
 31
-6.91837
  0
LINE
  5
A88
330
A02
100
AcDbEntity
  8
Facebinder
100
AcDbLine
 10
5.18538
 20
-30.5
 30
-10.5037
 11
1.18538
 21
-30.5
 31
-10.5037
  0
LINE
  5
A89
330
A02
100
AcDbEntity
  8
Facebinder
100
AcDbLine
 10
1.18538
 20
-30.5
 30
-10.5037
 11
1.18538
 21
-30.5
 31
-11.0342
  0
LINE
  5
A8A
330
A02
100
AcDbEntity
  8
Facebinder
100
AcDbLine
 10
1.18538
 20
-30.5
 30
-11.0342
 11
3.06952
 21
-30.5
 31
-11.0342
  0
LINE
  5
A8B
330
A02
100
AcDbEntity
  8
Facebinder
100
AcDbLine
 10
3.06952
 20
-30.5
 30
-11.0342
 11
3.06952
 21
-30.5
 31
-13.1074
  0
LINE
  5
A8C
330
A02
100
AcDbEntity
  8
Facebinder
100
AcDbLine
 10
3.06952
 20
-30.5
 30
-13.1074
 11
1.18538
 21
-30.5
 31
-13.1074
  0
LINE
  5
A8D
330
A02
100
AcDbEntity
  8
Facebinder
100
AcDbLine
 10
1.18538
 20
-30.5
 30
-13.1074
 11
1.18538
 21
-30.5
 31
-13.6379
  0
LINE
  5
A8E
330
A02
100
AcDbEntity
  8
Facebinder
100
AcDbLine
 10
1.18538
 20
-30.5
 30
-13.6379
 11
5.18538
 21
-30.5
 31
-13.6379
  0
LINE
  5
A8F
330
A02
100
AcDbEntity
  8
Facebinder
100
AcDbLine
 10
5.18538
 20
-30.5
 30
-13.6379
 11
5.18538
 21
-30.5
 31
-13.1074
  0
LINE
  5
A90
330
A02
100
AcDbEntity
  8
Facebinder
100
AcDbLine
 10
5.18538
 20
-30.5
 30
-13.1074
 11
3.54208
 21
-30.5
 31
-13.1074
  0
LINE
  5
A91
330
A02
100
AcDbEntity
  8
Facebinder
100
AcDbLine
 10
3.54208
 20
-30.5
 30
-13.1074
 11
3.54208
 21
-30.5
 31
-11.0342
  0
LINE
  5
A92
330
A02
100
AcDbEntity
  8
Facebinder
100
AcDbLine
 10
3.54208
 20
-30.5
 30
-11.0342
 11
5.18538
 21
-30.5
 31
-11.0342
  0
LINE
  5
A93
330
A02
100
AcDbEntity
  8
Facebinder
100
AcDbLine
 10
5.18538
 20
-30.5
 30
-11.0342
 11
5.18538
 21
-30.5
 31
-10.5037
  0
SPLINE
  5
A94
330
A02
100
AcDbEntity
  8
Facebinder
100
AcDbSpline
210
0
220
0
230
1
 70
8
 71
2
 72
6
 73
3
 74
0
 40
0
 40
0
 40
0
 40
1
 40
1
 40
1
 10
-1.16736
 20
-30.5
 30
10.17
 10
-1.24663
 20
-30.5
 30
10.5146
 10
-1.45395
 20
-30.5
 30
10.7554
  0
SPLINE
  5
A95
330
A02
100
AcDbEntity
  8
Facebinder
100
AcDbSpline
210
0
220
0
230
1
 70
8
 71
3
 72
8
 73
4
 74
0
 40
0
 40
0
 40
0
 40
0
 40
2
 40
2
 40
2
 40
2
 10
-1.45395
 20
-30.5
 30
10.7554
 10
-1.80443
 20
-30.5
 30
11.1785
 10
-2.37582
 20
-30.5
 30
11.3862
 10
-3.08809
 20
-30.5
 30
11.3865
  0
SPLINE
  5
A96
330
A02
100
AcDbEntity
  8
Facebinder
100
AcDbSpline
210
0
220
0
230
1
 70
8
 71
2
 72
12
 73
9
 74
0
 40
0
 40
0
 40
0
 40
1
 40
1
 40
2
 40
2
 40
3
 40
3
 40
5
 40
5
 40
5
 10
-3.08809
 20
-30.5
 30
11.3865
 10
-3.54236
 20
-30.5
 30
11.3865
 10
-3.89449
 20
-30.5
 30
11.2798
 10
-4.24663
 20
-30.5
 30
11.1731
 10
-4.47681
 20
-30.5
 30
11.0069
 10
-4.70699
 20
-30.5
 30
10.8408
 10
-4.83962
 20
-30.5
 30
10.6426
 10
-5.10715
 20
-30.5
 30
10.2478
 10
-5.10943
 20
-30.5
 30
9.5237
  0
LINE
  5
A97
330
A02
100
AcDbEntity
  8
Facebinder
100
AcDbLine
 10
-5.10943
 20
-30.5
 30
9.5237
 11
-5.10943
 21
-30.5
 31
8.07858
  0
LINE
  5
A98
330
A02
100
AcDbEntity
  8
Facebinder
100
AcDbLine
 10
-5.10943
 20
-30.5
 30
8.07858
 11
-1.10943
 21
-30.5
 31
8.07858
  0
LINE
  5
A99
330
A02
100
AcDbEntity
  8
Facebinder
100
AcDbLine
 10
-1.10943
 20
-30.5
 30
8.07858
 11
-1.10943
 21
-30.5
 31
9.45663
  0
SPLINE
  5
A9A
330
A02
100
AcDbEntity
  8
Facebinder
100
AcDbSpline
210
0
220
0
230
1
 70
8
 71
2
 72
6
 73
3
 74
0
 40
0
 40
0
 40
0
 40
1
 40
1
 40
1
 10
-1.10943
 20
-30.5
 30
9.45663
 10
-1.10943
 20
-30.5
 30
9.92309
 10
-1.16736
 20
-30.5
 30
10.17
  0
ENDSEC
  0
SECTION
  2
OBJECTS
  0
DICTIONARY
  5
F000
330
0
100
AcDbDictionary
  3
ACAD_GROUP
350
F001
  0
DICTIONARY
  5
F001
330
F000
100
AcDbDictionary
  0
ENDSEC
  0
EOF