%TF.GenerationSoftware,KiCad,Pcbnew,8.0.3*%
%TF.CreationDate,2024-07-04T15:42:03-04:00*%
%TF.ProjectId,baseboard,62617365-626f-4617-9264-2e6b69636164,A*%
%TF.SameCoordinates,Original*%
%TF.FileFunction,Copper,L6,Bot*%
%TF.FilePolarity,Positive*%
%FSLAX46Y46*%
G04 Gerber Fmt 4.6, Leading zero omitted, Abs format (unit mm)*
G04 Created by KiCad (PCBNEW 8.0.3) date 2024-07-04 15:42:03*
%MOMM*%
%LPD*%
G01*
G04 APERTURE LIST*
G04 Aperture macros list*
%AMRoundRect*
0 Rectangle with rounded corners*
0 $1 Rounding radius*
0 $2 $3 $4 $5 $6 $7 $8 $9 X,Y pos of 4 corners*
0 Add a 4 corners polygon primitive as box body*
4,1,4,$2,$3,$4,$5,$6,$7,$8,$9,$2,$3,0*
0 Add four circle primitives for the rounded corners*
1,1,$1+$1,$2,$3*
1,1,$1+$1,$4,$5*
1,1,$1+$1,$6,$7*
1,1,$1+$1,$8,$9*
0 Add four rect primitives between the rounded corners*
20,1,$1+$1,$2,$3,$4,$5,0*
20,1,$1+$1,$4,$5,$6,$7,0*
20,1,$1+$1,$6,$7,$8,$9,0*
20,1,$1+$1,$8,$9,$2,$3,0*%
G04 Aperture macros list end*
%ADD10C,0.100000*%
%ADD11C,0.150000*%
%ADD12C,0.300000*%
%TA.AperFunction,ComponentPad*%
%ADD13R,1.400000X1.400000*%
%TD*%
%TA.AperFunction,ComponentPad*%
%ADD14C,1.400000*%
%TD*%
%TA.AperFunction,ComponentPad*%
%ADD15C,0.500000*%
%TD*%
%TA.AperFunction,SMDPad,CuDef*%
%ADD16RoundRect,0.150000X-1.050000X-0.600000X1.050000X-0.600000X1.050000X0.600000X-1.050000X0.600000X0*%
%TD*%
%TA.AperFunction,SMDPad,CuDef*%
%ADD17RoundRect,0.105000X-0.420000X-0.645000X0.420000X-0.645000X0.420000X0.645000X-0.420000X0.645000X0*%
%TD*%
%TA.AperFunction,HeatsinkPad*%
%ADD18C,0.500000*%
%TD*%
%TA.AperFunction,SMDPad,CuDef*%
%ADD19RoundRect,0.249997X-2.650003X2.950003X-2.650003X-2.950003X2.650003X-2.950003X2.650003X2.950003X0*%
%TD*%
%TA.AperFunction,WasherPad*%
%ADD20C,3.700000*%
%TD*%
%TA.AperFunction,ComponentPad*%
%ADD21C,2.500000*%
%TD*%
%TA.AperFunction,HeatsinkPad*%
%ADD22RoundRect,0.100000X1.500000X-1.500000X1.500000X1.500000X-1.500000X1.500000X-1.500000X-1.500000X0*%
%TD*%
%TA.AperFunction,ComponentPad*%
%ADD23RoundRect,0.500000X-0.500000X-2.300000X0.500000X-2.300000X0.500000X2.300000X-0.500000X2.300000X0*%
%TD*%
%TA.AperFunction,SMDPad,CuDef*%
%ADD24RoundRect,0.249997X2.950003X2.650003X-2.950003X2.650003X-2.950003X-2.650003X2.950003X-2.650003X0*%
%TD*%
%TA.AperFunction,SMDPad,CuDef*%
%ADD25RoundRect,0.100000X1.900000X-1.900000X1.900000X1.900000X-1.900000X1.900000X-1.900000X-1.900000X0*%
%TD*%
%TA.AperFunction,SMDPad,CuDef*%
%ADD26RoundRect,0.100000X-0.400000X-0.700000X0.400000X-0.700000X0.400000X0.700000X-0.400000X0.700000X0*%
%TD*%
%TA.AperFunction,SMDPad,CuDef*%
%ADD27RoundRect,0.300000X1.200000X3.450000X-1.200000X3.450000X-1.200000X-3.450000X1.200000X-3.450000X0*%
%TD*%
%TA.AperFunction,SMDPad,CuDef*%
%ADD28RoundRect,0.300000X3.450000X-1.200000X3.450000X1.200000X-3.450000X1.200000X-3.450000X-1.200000X0*%
%TD*%
%TA.AperFunction,ViaPad*%
%ADD29C,0.500000*%
%TD*%
%TA.AperFunction,Conductor*%
%ADD30C,0.500000*%
%TD*%
%TA.AperFunction,Conductor*%
%ADD31C,0.200000*%
%TD*%
%TA.AperFunction,Profile*%
%ADD32C,0.050000*%
%TD*%
G04 APERTURE END LIST*
D10*
D11*
X259813572Y-199154128D02*
X258956429Y-199154128D01*
X259385000Y-199154128D02*
X259385000Y-197654128D01*
X259385000Y-197654128D02*
X259242143Y-197868414D01*
X259242143Y-197868414D02*
X259099286Y-198011271D01*
X259099286Y-198011271D02*
X258956429Y-198082700D01*
X261527857Y-197582700D02*
X260242143Y-199511271D01*
X262813572Y-199154128D02*
X261956429Y-199154128D01*
X262385000Y-199154128D02*
X262385000Y-197654128D01*
X262385000Y-197654128D02*
X262242143Y-197868414D01*
X262242143Y-197868414D02*
X262099286Y-198011271D01*
X262099286Y-198011271D02*
X261956429Y-198082700D01*
D10*
D11*
X140409874Y-188759295D02*
X140867017Y-188759295D01*
X140638445Y-189559295D02*
X140638445Y-188759295D01*
X141133684Y-189559295D02*
X141133684Y-188759295D01*
X141400350Y-188759295D02*
X141857493Y-188759295D01*
X141628921Y-189559295D02*
X141628921Y-188759295D01*
X142505112Y-189559295D02*
X142124160Y-189559295D01*
X142124160Y-189559295D02*
X142124160Y-188759295D01*
X142771779Y-189140247D02*
X143038445Y-189140247D01*
X143152731Y-189559295D02*
X142771779Y-189559295D01*
X142771779Y-189559295D02*
X142771779Y-188759295D01*
X142771779Y-188759295D02*
X143152731Y-188759295D01*
D10*
D11*
X235596303Y-195909295D02*
X235329636Y-195528342D01*
X235139160Y-195909295D02*
X235139160Y-195109295D01*
X235139160Y-195109295D02*
X235443922Y-195109295D01*
X235443922Y-195109295D02*
X235520112Y-195147390D01*
X235520112Y-195147390D02*
X235558207Y-195185485D01*
X235558207Y-195185485D02*
X235596303Y-195261676D01*
X235596303Y-195261676D02*
X235596303Y-195375961D01*
X235596303Y-195375961D02*
X235558207Y-195452152D01*
X235558207Y-195452152D02*
X235520112Y-195490247D01*
X235520112Y-195490247D02*
X235443922Y-195528342D01*
X235443922Y-195528342D02*
X235139160Y-195528342D01*
X235939160Y-195490247D02*
X236205826Y-195490247D01*
X236320112Y-195909295D02*
X235939160Y-195909295D01*
X235939160Y-195909295D02*
X235939160Y-195109295D01*
X235939160Y-195109295D02*
X236320112Y-195109295D01*
X236548684Y-195109295D02*
X236815351Y-195909295D01*
X236815351Y-195909295D02*
X237082017Y-195109295D01*
X237348684Y-195909295D02*
X237348684Y-195109295D01*
X237691540Y-195871200D02*
X237805826Y-195909295D01*
X237805826Y-195909295D02*
X237996302Y-195909295D01*
X237996302Y-195909295D02*
X238072493Y-195871200D01*
X238072493Y-195871200D02*
X238110588Y-195833104D01*
X238110588Y-195833104D02*
X238148683Y-195756914D01*
X238148683Y-195756914D02*
X238148683Y-195680723D01*
X238148683Y-195680723D02*
X238110588Y-195604533D01*
X238110588Y-195604533D02*
X238072493Y-195566438D01*
X238072493Y-195566438D02*
X237996302Y-195528342D01*
X237996302Y-195528342D02*
X237843921Y-195490247D01*
X237843921Y-195490247D02*
X237767731Y-195452152D01*
X237767731Y-195452152D02*
X237729636Y-195414057D01*
X237729636Y-195414057D02*
X237691540Y-195337866D01*
X237691540Y-195337866D02*
X237691540Y-195261676D01*
X237691540Y-195261676D02*
X237729636Y-195185485D01*
X237729636Y-195185485D02*
X237767731Y-195147390D01*
X237767731Y-195147390D02*
X237843921Y-195109295D01*
X237843921Y-195109295D02*
X238034398Y-195109295D01*
X238034398Y-195109295D02*
X238148683Y-195147390D01*
X238491541Y-195909295D02*
X238491541Y-195109295D01*
X239024874Y-195109295D02*
X239177255Y-195109295D01*
X239177255Y-195109295D02*
X239253445Y-195147390D01*
X239253445Y-195147390D02*
X239329636Y-195223580D01*
X239329636Y-195223580D02*
X239367731Y-195375961D01*
X239367731Y-195375961D02*
X239367731Y-195642628D01*
X239367731Y-195642628D02*
X239329636Y-195795009D01*
X239329636Y-195795009D02*
X239253445Y-195871200D01*
X239253445Y-195871200D02*
X239177255Y-195909295D01*
X239177255Y-195909295D02*
X239024874Y-195909295D01*
X239024874Y-195909295D02*
X238948683Y-195871200D01*
X238948683Y-195871200D02*
X238872493Y-195795009D01*
X238872493Y-195795009D02*
X238834397Y-195642628D01*
X238834397Y-195642628D02*
X238834397Y-195375961D01*
X238834397Y-195375961D02*
X238872493Y-195223580D01*
X238872493Y-195223580D02*
X238948683Y-195147390D01*
X238948683Y-195147390D02*
X239024874Y-195109295D01*
X239710588Y-195909295D02*
X239710588Y-195109295D01*
X239710588Y-195109295D02*
X240167731Y-195909295D01*
X240167731Y-195909295D02*
X240167731Y-195109295D01*
D10*
D11*
X241489160Y-195909295D02*
X241489160Y-195109295D01*
X241489160Y-195109295D02*
X241679636Y-195109295D01*
X241679636Y-195109295D02*
X241793922Y-195147390D01*
X241793922Y-195147390D02*
X241870112Y-195223580D01*
X241870112Y-195223580D02*
X241908207Y-195299771D01*
X241908207Y-195299771D02*
X241946303Y-195452152D01*
X241946303Y-195452152D02*
X241946303Y-195566438D01*
X241946303Y-195566438D02*
X241908207Y-195718819D01*
X241908207Y-195718819D02*
X241870112Y-195795009D01*
X241870112Y-195795009D02*
X241793922Y-195871200D01*
X241793922Y-195871200D02*
X241679636Y-195909295D01*
X241679636Y-195909295D02*
X241489160Y-195909295D01*
X242251064Y-195680723D02*
X242632017Y-195680723D01*
X242174874Y-195909295D02*
X242441541Y-195109295D01*
X242441541Y-195109295D02*
X242708207Y-195909295D01*
X242860588Y-195109295D02*
X243317731Y-195109295D01*
X243089159Y-195909295D02*
X243089159Y-195109295D01*
X243584398Y-195490247D02*
X243851064Y-195490247D01*
X243965350Y-195909295D02*
X243584398Y-195909295D01*
X243584398Y-195909295D02*
X243584398Y-195109295D01*
X243584398Y-195109295D02*
X243965350Y-195109295D01*
X245070113Y-195109295D02*
X245222494Y-195109295D01*
X245222494Y-195109295D02*
X245298684Y-195147390D01*
X245298684Y-195147390D02*
X245374875Y-195223580D01*
X245374875Y-195223580D02*
X245412970Y-195375961D01*
X245412970Y-195375961D02*
X245412970Y-195642628D01*
X245412970Y-195642628D02*
X245374875Y-195795009D01*
X245374875Y-195795009D02*
X245298684Y-195871200D01*
X245298684Y-195871200D02*
X245222494Y-195909295D01*
X245222494Y-195909295D02*
X245070113Y-195909295D01*
X245070113Y-195909295D02*
X244993922Y-195871200D01*
X244993922Y-195871200D02*
X244917732Y-195795009D01*
X244917732Y-195795009D02*
X244879636Y-195642628D01*
X244879636Y-195642628D02*
X244879636Y-195375961D01*
X244879636Y-195375961D02*
X244917732Y-195223580D01*
X244917732Y-195223580D02*
X244993922Y-195147390D01*
X244993922Y-195147390D02*
X245070113Y-195109295D01*
X246022493Y-195490247D02*
X245755827Y-195490247D01*
X245755827Y-195909295D02*
X245755827Y-195109295D01*
X245755827Y-195109295D02*
X246136779Y-195109295D01*
X247051065Y-195909295D02*
X247051065Y-195109295D01*
X247393921Y-195871200D02*
X247508207Y-195909295D01*
X247508207Y-195909295D02*
X247698683Y-195909295D01*
X247698683Y-195909295D02*
X247774874Y-195871200D01*
X247774874Y-195871200D02*
X247812969Y-195833104D01*
X247812969Y-195833104D02*
X247851064Y-195756914D01*
X247851064Y-195756914D02*
X247851064Y-195680723D01*
X247851064Y-195680723D02*
X247812969Y-195604533D01*
X247812969Y-195604533D02*
X247774874Y-195566438D01*
X247774874Y-195566438D02*
X247698683Y-195528342D01*
X247698683Y-195528342D02*
X247546302Y-195490247D01*
X247546302Y-195490247D02*
X247470112Y-195452152D01*
X247470112Y-195452152D02*
X247432017Y-195414057D01*
X247432017Y-195414057D02*
X247393921Y-195337866D01*
X247393921Y-195337866D02*
X247393921Y-195261676D01*
X247393921Y-195261676D02*
X247432017Y-195185485D01*
X247432017Y-195185485D02*
X247470112Y-195147390D01*
X247470112Y-195147390D02*
X247546302Y-195109295D01*
X247546302Y-195109295D02*
X247736779Y-195109295D01*
X247736779Y-195109295D02*
X247851064Y-195147390D01*
X248155826Y-195871200D02*
X248270112Y-195909295D01*
X248270112Y-195909295D02*
X248460588Y-195909295D01*
X248460588Y-195909295D02*
X248536779Y-195871200D01*
X248536779Y-195871200D02*
X248574874Y-195833104D01*
X248574874Y-195833104D02*
X248612969Y-195756914D01*
X248612969Y-195756914D02*
X248612969Y-195680723D01*
X248612969Y-195680723D02*
X248574874Y-195604533D01*
X248574874Y-195604533D02*
X248536779Y-195566438D01*
X248536779Y-195566438D02*
X248460588Y-195528342D01*
X248460588Y-195528342D02*
X248308207Y-195490247D01*
X248308207Y-195490247D02*
X248232017Y-195452152D01*
X248232017Y-195452152D02*
X248193922Y-195414057D01*
X248193922Y-195414057D02*
X248155826Y-195337866D01*
X248155826Y-195337866D02*
X248155826Y-195261676D01*
X248155826Y-195261676D02*
X248193922Y-195185485D01*
X248193922Y-195185485D02*
X248232017Y-195147390D01*
X248232017Y-195147390D02*
X248308207Y-195109295D01*
X248308207Y-195109295D02*
X248498684Y-195109295D01*
X248498684Y-195109295D02*
X248612969Y-195147390D01*
X248955827Y-195109295D02*
X248955827Y-195756914D01*
X248955827Y-195756914D02*
X248993922Y-195833104D01*
X248993922Y-195833104D02*
X249032017Y-195871200D01*
X249032017Y-195871200D02*
X249108208Y-195909295D01*
X249108208Y-195909295D02*
X249260589Y-195909295D01*
X249260589Y-195909295D02*
X249336779Y-195871200D01*
X249336779Y-195871200D02*
X249374874Y-195833104D01*
X249374874Y-195833104D02*
X249412970Y-195756914D01*
X249412970Y-195756914D02*
X249412970Y-195109295D01*
X249793922Y-195490247D02*
X250060588Y-195490247D01*
X250174874Y-195909295D02*
X249793922Y-195909295D01*
X249793922Y-195909295D02*
X249793922Y-195109295D01*
X249793922Y-195109295D02*
X250174874Y-195109295D01*
D10*
D11*
X258596064Y-195871200D02*
X258710350Y-195909295D01*
X258710350Y-195909295D02*
X258900826Y-195909295D01*
X258900826Y-195909295D02*
X258977017Y-195871200D01*
X258977017Y-195871200D02*
X259015112Y-195833104D01*
X259015112Y-195833104D02*
X259053207Y-195756914D01*
X259053207Y-195756914D02*
X259053207Y-195680723D01*
X259053207Y-195680723D02*
X259015112Y-195604533D01*
X259015112Y-195604533D02*
X258977017Y-195566438D01*
X258977017Y-195566438D02*
X258900826Y-195528342D01*
X258900826Y-195528342D02*
X258748445Y-195490247D01*
X258748445Y-195490247D02*
X258672255Y-195452152D01*
X258672255Y-195452152D02*
X258634160Y-195414057D01*
X258634160Y-195414057D02*
X258596064Y-195337866D01*
X258596064Y-195337866D02*
X258596064Y-195261676D01*
X258596064Y-195261676D02*
X258634160Y-195185485D01*
X258634160Y-195185485D02*
X258672255Y-195147390D01*
X258672255Y-195147390D02*
X258748445Y-195109295D01*
X258748445Y-195109295D02*
X258938922Y-195109295D01*
X258938922Y-195109295D02*
X259053207Y-195147390D01*
X259396065Y-195909295D02*
X259396065Y-195109295D01*
X259396065Y-195490247D02*
X259853208Y-195490247D01*
X259853208Y-195909295D02*
X259853208Y-195109295D01*
X260234160Y-195490247D02*
X260500826Y-195490247D01*
X260615112Y-195909295D02*
X260234160Y-195909295D01*
X260234160Y-195909295D02*
X260234160Y-195109295D01*
X260234160Y-195109295D02*
X260615112Y-195109295D01*
X260957970Y-195490247D02*
X261224636Y-195490247D01*
X261338922Y-195909295D02*
X260957970Y-195909295D01*
X260957970Y-195909295D02*
X260957970Y-195109295D01*
X260957970Y-195109295D02*
X261338922Y-195109295D01*
X261567494Y-195109295D02*
X262024637Y-195109295D01*
X261796065Y-195909295D02*
X261796065Y-195109295D01*
D10*
D11*
X239942142Y-192804128D02*
X239942142Y-191304128D01*
X239942142Y-191304128D02*
X240513571Y-191304128D01*
X240513571Y-191304128D02*
X240656428Y-191375557D01*
X240656428Y-191375557D02*
X240727857Y-191446985D01*
X240727857Y-191446985D02*
X240799285Y-191589842D01*
X240799285Y-191589842D02*
X240799285Y-191804128D01*
X240799285Y-191804128D02*
X240727857Y-191946985D01*
X240727857Y-191946985D02*
X240656428Y-192018414D01*
X240656428Y-192018414D02*
X240513571Y-192089842D01*
X240513571Y-192089842D02*
X239942142Y-192089842D01*
X242299285Y-192661271D02*
X242227857Y-192732700D01*
X242227857Y-192732700D02*
X242013571Y-192804128D01*
X242013571Y-192804128D02*
X241870714Y-192804128D01*
X241870714Y-192804128D02*
X241656428Y-192732700D01*
X241656428Y-192732700D02*
X241513571Y-192589842D01*
X241513571Y-192589842D02*
X241442142Y-192446985D01*
X241442142Y-192446985D02*
X241370714Y-192161271D01*
X241370714Y-192161271D02*
X241370714Y-191946985D01*
X241370714Y-191946985D02*
X241442142Y-191661271D01*
X241442142Y-191661271D02*
X241513571Y-191518414D01*
X241513571Y-191518414D02*
X241656428Y-191375557D01*
X241656428Y-191375557D02*
X241870714Y-191304128D01*
X241870714Y-191304128D02*
X242013571Y-191304128D01*
X242013571Y-191304128D02*
X242227857Y-191375557D01*
X242227857Y-191375557D02*
X242299285Y-191446985D01*
X243442142Y-192018414D02*
X243656428Y-192089842D01*
X243656428Y-192089842D02*
X243727857Y-192161271D01*
X243727857Y-192161271D02*
X243799285Y-192304128D01*
X243799285Y-192304128D02*
X243799285Y-192518414D01*
X243799285Y-192518414D02*
X243727857Y-192661271D01*
X243727857Y-192661271D02*
X243656428Y-192732700D01*
X243656428Y-192732700D02*
X243513571Y-192804128D01*
X243513571Y-192804128D02*
X242942142Y-192804128D01*
X242942142Y-192804128D02*
X242942142Y-191304128D01*
X242942142Y-191304128D02*
X243442142Y-191304128D01*
X243442142Y-191304128D02*
X243585000Y-191375557D01*
X243585000Y-191375557D02*
X243656428Y-191446985D01*
X243656428Y-191446985D02*
X243727857Y-191589842D01*
X243727857Y-191589842D02*
X243727857Y-191732700D01*
X243727857Y-191732700D02*
X243656428Y-191875557D01*
X243656428Y-191875557D02*
X243585000Y-191946985D01*
X243585000Y-191946985D02*
X243442142Y-192018414D01*
X243442142Y-192018414D02*
X242942142Y-192018414D01*
D10*
D11*
X225068064Y-195680723D02*
X225449017Y-195680723D01*
X224991874Y-195909295D02*
X225258541Y-195109295D01*
X225258541Y-195109295D02*
X225525207Y-195909295D01*
X225791874Y-195909295D02*
X225791874Y-195109295D01*
X225791874Y-195109295D02*
X226096636Y-195109295D01*
X226096636Y-195109295D02*
X226172826Y-195147390D01*
X226172826Y-195147390D02*
X226210921Y-195185485D01*
X226210921Y-195185485D02*
X226249017Y-195261676D01*
X226249017Y-195261676D02*
X226249017Y-195375961D01*
X226249017Y-195375961D02*
X226210921Y-195452152D01*
X226210921Y-195452152D02*
X226172826Y-195490247D01*
X226172826Y-195490247D02*
X226096636Y-195528342D01*
X226096636Y-195528342D02*
X225791874Y-195528342D01*
X226591874Y-195909295D02*
X226591874Y-195109295D01*
X226591874Y-195109295D02*
X226896636Y-195109295D01*
X226896636Y-195109295D02*
X226972826Y-195147390D01*
X226972826Y-195147390D02*
X227010921Y-195185485D01*
X227010921Y-195185485D02*
X227049017Y-195261676D01*
X227049017Y-195261676D02*
X227049017Y-195375961D01*
X227049017Y-195375961D02*
X227010921Y-195452152D01*
X227010921Y-195452152D02*
X226972826Y-195490247D01*
X226972826Y-195490247D02*
X226896636Y-195528342D01*
X226896636Y-195528342D02*
X226591874Y-195528342D01*
X227849017Y-195909295D02*
X227582350Y-195528342D01*
X227391874Y-195909295D02*
X227391874Y-195109295D01*
X227391874Y-195109295D02*
X227696636Y-195109295D01*
X227696636Y-195109295D02*
X227772826Y-195147390D01*
X227772826Y-195147390D02*
X227810921Y-195185485D01*
X227810921Y-195185485D02*
X227849017Y-195261676D01*
X227849017Y-195261676D02*
X227849017Y-195375961D01*
X227849017Y-195375961D02*
X227810921Y-195452152D01*
X227810921Y-195452152D02*
X227772826Y-195490247D01*
X227772826Y-195490247D02*
X227696636Y-195528342D01*
X227696636Y-195528342D02*
X227391874Y-195528342D01*
X228344255Y-195109295D02*
X228496636Y-195109295D01*
X228496636Y-195109295D02*
X228572826Y-195147390D01*
X228572826Y-195147390D02*
X228649017Y-195223580D01*
X228649017Y-195223580D02*
X228687112Y-195375961D01*
X228687112Y-195375961D02*
X228687112Y-195642628D01*
X228687112Y-195642628D02*
X228649017Y-195795009D01*
X228649017Y-195795009D02*
X228572826Y-195871200D01*
X228572826Y-195871200D02*
X228496636Y-195909295D01*
X228496636Y-195909295D02*
X228344255Y-195909295D01*
X228344255Y-195909295D02*
X228268064Y-195871200D01*
X228268064Y-195871200D02*
X228191874Y-195795009D01*
X228191874Y-195795009D02*
X228153778Y-195642628D01*
X228153778Y-195642628D02*
X228153778Y-195375961D01*
X228153778Y-195375961D02*
X228191874Y-195223580D01*
X228191874Y-195223580D02*
X228268064Y-195147390D01*
X228268064Y-195147390D02*
X228344255Y-195109295D01*
X228915683Y-195109295D02*
X229182350Y-195909295D01*
X229182350Y-195909295D02*
X229449016Y-195109295D01*
X229715683Y-195490247D02*
X229982349Y-195490247D01*
X230096635Y-195909295D02*
X229715683Y-195909295D01*
X229715683Y-195909295D02*
X229715683Y-195109295D01*
X229715683Y-195109295D02*
X230096635Y-195109295D01*
X230439493Y-195909295D02*
X230439493Y-195109295D01*
X230439493Y-195109295D02*
X230629969Y-195109295D01*
X230629969Y-195109295D02*
X230744255Y-195147390D01*
X230744255Y-195147390D02*
X230820445Y-195223580D01*
X230820445Y-195223580D02*
X230858540Y-195299771D01*
X230858540Y-195299771D02*
X230896636Y-195452152D01*
X230896636Y-195452152D02*
X230896636Y-195566438D01*
X230896636Y-195566438D02*
X230858540Y-195718819D01*
X230858540Y-195718819D02*
X230820445Y-195795009D01*
X230820445Y-195795009D02*
X230744255Y-195871200D01*
X230744255Y-195871200D02*
X230629969Y-195909295D01*
X230629969Y-195909295D02*
X230439493Y-195909295D01*
X232115683Y-195490247D02*
X232229969Y-195528342D01*
X232229969Y-195528342D02*
X232268064Y-195566438D01*
X232268064Y-195566438D02*
X232306160Y-195642628D01*
X232306160Y-195642628D02*
X232306160Y-195756914D01*
X232306160Y-195756914D02*
X232268064Y-195833104D01*
X232268064Y-195833104D02*
X232229969Y-195871200D01*
X232229969Y-195871200D02*
X232153779Y-195909295D01*
X232153779Y-195909295D02*
X231849017Y-195909295D01*
X231849017Y-195909295D02*
X231849017Y-195109295D01*
X231849017Y-195109295D02*
X232115683Y-195109295D01*
X232115683Y-195109295D02*
X232191874Y-195147390D01*
X232191874Y-195147390D02*
X232229969Y-195185485D01*
X232229969Y-195185485D02*
X232268064Y-195261676D01*
X232268064Y-195261676D02*
X232268064Y-195337866D01*
X232268064Y-195337866D02*
X232229969Y-195414057D01*
X232229969Y-195414057D02*
X232191874Y-195452152D01*
X232191874Y-195452152D02*
X232115683Y-195490247D01*
X232115683Y-195490247D02*
X231849017Y-195490247D01*
X232801398Y-195528342D02*
X232801398Y-195909295D01*
X232534731Y-195109295D02*
X232801398Y-195528342D01*
X232801398Y-195528342D02*
X233068064Y-195109295D01*
D10*
D11*
X144445112Y-196918271D02*
X144302255Y-196846842D01*
X144302255Y-196846842D02*
X144016541Y-196846842D01*
X144016541Y-196846842D02*
X143873684Y-196918271D01*
X143873684Y-196918271D02*
X143730826Y-197061128D01*
X143730826Y-197061128D02*
X143659398Y-197203985D01*
X143659398Y-197203985D02*
X143659398Y-197489700D01*
X143659398Y-197489700D02*
X143730826Y-197632557D01*
X143730826Y-197632557D02*
X143873684Y-197775414D01*
X143873684Y-197775414D02*
X144016541Y-197846842D01*
X144016541Y-197846842D02*
X144302255Y-197846842D01*
X144302255Y-197846842D02*
X144445112Y-197775414D01*
X144159398Y-196346842D02*
X143802255Y-196418271D01*
X143802255Y-196418271D02*
X143445112Y-196632557D01*
X143445112Y-196632557D02*
X143230826Y-196989700D01*
X143230826Y-196989700D02*
X143159398Y-197346842D01*
X143159398Y-197346842D02*
X143230826Y-197703985D01*
X143230826Y-197703985D02*
X143445112Y-198061128D01*
X143445112Y-198061128D02*
X143802255Y-198275414D01*
X143802255Y-198275414D02*
X144159398Y-198346842D01*
X144159398Y-198346842D02*
X144516541Y-198275414D01*
X144516541Y-198275414D02*
X144873684Y-198061128D01*
X144873684Y-198061128D02*
X145087969Y-197703985D01*
X145087969Y-197703985D02*
X145159398Y-197346842D01*
X145159398Y-197346842D02*
X145087969Y-196989700D01*
X145087969Y-196989700D02*
X144873684Y-196632557D01*
X144873684Y-196632557D02*
X144516541Y-196418271D01*
X144516541Y-196418271D02*
X144159398Y-196346842D01*
X146873684Y-197632557D02*
X147587970Y-197632557D01*
X146730827Y-198061128D02*
X147230827Y-196561128D01*
X147230827Y-196561128D02*
X147730827Y-198061128D01*
X148445112Y-198061128D02*
X148302255Y-197989700D01*
X148302255Y-197989700D02*
X148230826Y-197846842D01*
X148230826Y-197846842D02*
X148230826Y-196561128D01*
X149587969Y-197989700D02*
X149445112Y-198061128D01*
X149445112Y-198061128D02*
X149159398Y-198061128D01*
X149159398Y-198061128D02*
X149016540Y-197989700D01*
X149016540Y-197989700D02*
X148945112Y-197846842D01*
X148945112Y-197846842D02*
X148945112Y-197275414D01*
X148945112Y-197275414D02*
X149016540Y-197132557D01*
X149016540Y-197132557D02*
X149159398Y-197061128D01*
X149159398Y-197061128D02*
X149445112Y-197061128D01*
X149445112Y-197061128D02*
X149587969Y-197132557D01*
X149587969Y-197132557D02*
X149659398Y-197275414D01*
X149659398Y-197275414D02*
X149659398Y-197418271D01*
X149659398Y-197418271D02*
X148945112Y-197561128D01*
X150230826Y-197989700D02*
X150373683Y-198061128D01*
X150373683Y-198061128D02*
X150659397Y-198061128D01*
X150659397Y-198061128D02*
X150802254Y-197989700D01*
X150802254Y-197989700D02*
X150873683Y-197846842D01*
X150873683Y-197846842D02*
X150873683Y-197775414D01*
X150873683Y-197775414D02*
X150802254Y-197632557D01*
X150802254Y-197632557D02*
X150659397Y-197561128D01*
X150659397Y-197561128D02*
X150445112Y-197561128D01*
X150445112Y-197561128D02*
X150302254Y-197489700D01*
X150302254Y-197489700D02*
X150230826Y-197346842D01*
X150230826Y-197346842D02*
X150230826Y-197275414D01*
X150230826Y-197275414D02*
X150302254Y-197132557D01*
X150302254Y-197132557D02*
X150445112Y-197061128D01*
X150445112Y-197061128D02*
X150659397Y-197061128D01*
X150659397Y-197061128D02*
X150802254Y-197132557D01*
X151445112Y-197989700D02*
X151587969Y-198061128D01*
X151587969Y-198061128D02*
X151873683Y-198061128D01*
X151873683Y-198061128D02*
X152016540Y-197989700D01*
X152016540Y-197989700D02*
X152087969Y-197846842D01*
X152087969Y-197846842D02*
X152087969Y-197775414D01*
X152087969Y-197775414D02*
X152016540Y-197632557D01*
X152016540Y-197632557D02*
X151873683Y-197561128D01*
X151873683Y-197561128D02*
X151659398Y-197561128D01*
X151659398Y-197561128D02*
X151516540Y-197489700D01*
X151516540Y-197489700D02*
X151445112Y-197346842D01*
X151445112Y-197346842D02*
X151445112Y-197275414D01*
X151445112Y-197275414D02*
X151516540Y-197132557D01*
X151516540Y-197132557D02*
X151659398Y-197061128D01*
X151659398Y-197061128D02*
X151873683Y-197061128D01*
X151873683Y-197061128D02*
X152016540Y-197132557D01*
X153373684Y-198061128D02*
X153373684Y-197275414D01*
X153373684Y-197275414D02*
X153302255Y-197132557D01*
X153302255Y-197132557D02*
X153159398Y-197061128D01*
X153159398Y-197061128D02*
X152873684Y-197061128D01*
X152873684Y-197061128D02*
X152730826Y-197132557D01*
X153373684Y-197989700D02*
X153230826Y-198061128D01*
X153230826Y-198061128D02*
X152873684Y-198061128D01*
X152873684Y-198061128D02*
X152730826Y-197989700D01*
X152730826Y-197989700D02*
X152659398Y-197846842D01*
X152659398Y-197846842D02*
X152659398Y-197703985D01*
X152659398Y-197703985D02*
X152730826Y-197561128D01*
X152730826Y-197561128D02*
X152873684Y-197489700D01*
X152873684Y-197489700D02*
X153230826Y-197489700D01*
X153230826Y-197489700D02*
X153373684Y-197418271D01*
X154087969Y-197061128D02*
X154087969Y-198061128D01*
X154087969Y-197203985D02*
X154159398Y-197132557D01*
X154159398Y-197132557D02*
X154302255Y-197061128D01*
X154302255Y-197061128D02*
X154516541Y-197061128D01*
X154516541Y-197061128D02*
X154659398Y-197132557D01*
X154659398Y-197132557D02*
X154730827Y-197275414D01*
X154730827Y-197275414D02*
X154730827Y-198061128D01*
X156087970Y-198061128D02*
X156087970Y-196561128D01*
X156087970Y-197989700D02*
X155945112Y-198061128D01*
X155945112Y-198061128D02*
X155659398Y-198061128D01*
X155659398Y-198061128D02*
X155516541Y-197989700D01*
X155516541Y-197989700D02*
X155445112Y-197918271D01*
X155445112Y-197918271D02*
X155373684Y-197775414D01*
X155373684Y-197775414D02*
X155373684Y-197346842D01*
X155373684Y-197346842D02*
X155445112Y-197203985D01*
X155445112Y-197203985D02*
X155516541Y-197132557D01*
X155516541Y-197132557D02*
X155659398Y-197061128D01*
X155659398Y-197061128D02*
X155945112Y-197061128D01*
X155945112Y-197061128D02*
X156087970Y-197132557D01*
X156802255Y-198061128D02*
X156802255Y-197061128D01*
X156802255Y-197346842D02*
X156873684Y-197203985D01*
X156873684Y-197203985D02*
X156945113Y-197132557D01*
X156945113Y-197132557D02*
X157087970Y-197061128D01*
X157087970Y-197061128D02*
X157230827Y-197061128D01*
X157945112Y-198061128D02*
X157802255Y-197989700D01*
X157802255Y-197989700D02*
X157730826Y-197918271D01*
X157730826Y-197918271D02*
X157659398Y-197775414D01*
X157659398Y-197775414D02*
X157659398Y-197346842D01*
X157659398Y-197346842D02*
X157730826Y-197203985D01*
X157730826Y-197203985D02*
X157802255Y-197132557D01*
X157802255Y-197132557D02*
X157945112Y-197061128D01*
X157945112Y-197061128D02*
X158159398Y-197061128D01*
X158159398Y-197061128D02*
X158302255Y-197132557D01*
X158302255Y-197132557D02*
X158373684Y-197203985D01*
X158373684Y-197203985D02*
X158445112Y-197346842D01*
X158445112Y-197346842D02*
X158445112Y-197775414D01*
X158445112Y-197775414D02*
X158373684Y-197918271D01*
X158373684Y-197918271D02*
X158302255Y-197989700D01*
X158302255Y-197989700D02*
X158159398Y-198061128D01*
X158159398Y-198061128D02*
X157945112Y-198061128D01*
X161087969Y-198061128D02*
X160587969Y-197346842D01*
X160230826Y-198061128D02*
X160230826Y-196561128D01*
X160230826Y-196561128D02*
X160802255Y-196561128D01*
X160802255Y-196561128D02*
X160945112Y-196632557D01*
X160945112Y-196632557D02*
X161016541Y-196703985D01*
X161016541Y-196703985D02*
X161087969Y-196846842D01*
X161087969Y-196846842D02*
X161087969Y-197061128D01*
X161087969Y-197061128D02*
X161016541Y-197203985D01*
X161016541Y-197203985D02*
X160945112Y-197275414D01*
X160945112Y-197275414D02*
X160802255Y-197346842D01*
X160802255Y-197346842D02*
X160230826Y-197346842D01*
X161730826Y-198061128D02*
X161730826Y-197061128D01*
X161730826Y-196561128D02*
X161659398Y-196632557D01*
X161659398Y-196632557D02*
X161730826Y-196703985D01*
X161730826Y-196703985D02*
X161802255Y-196632557D01*
X161802255Y-196632557D02*
X161730826Y-196561128D01*
X161730826Y-196561128D02*
X161730826Y-196703985D01*
X162302255Y-197061128D02*
X163087970Y-197061128D01*
X163087970Y-197061128D02*
X162302255Y-198061128D01*
X162302255Y-198061128D02*
X163087970Y-198061128D01*
X163516541Y-197061128D02*
X164302256Y-197061128D01*
X164302256Y-197061128D02*
X163516541Y-198061128D01*
X163516541Y-198061128D02*
X164302256Y-198061128D01*
X165087970Y-198061128D02*
X164945113Y-197989700D01*
X164945113Y-197989700D02*
X164873684Y-197918271D01*
X164873684Y-197918271D02*
X164802256Y-197775414D01*
X164802256Y-197775414D02*
X164802256Y-197346842D01*
X164802256Y-197346842D02*
X164873684Y-197203985D01*
X164873684Y-197203985D02*
X164945113Y-197132557D01*
X164945113Y-197132557D02*
X165087970Y-197061128D01*
X165087970Y-197061128D02*
X165302256Y-197061128D01*
X165302256Y-197061128D02*
X165445113Y-197132557D01*
X165445113Y-197132557D02*
X165516542Y-197203985D01*
X165516542Y-197203985D02*
X165587970Y-197346842D01*
X165587970Y-197346842D02*
X165587970Y-197775414D01*
X165587970Y-197775414D02*
X165516542Y-197918271D01*
X165516542Y-197918271D02*
X165445113Y-197989700D01*
X165445113Y-197989700D02*
X165302256Y-198061128D01*
X165302256Y-198061128D02*
X165087970Y-198061128D01*
X166230827Y-197061128D02*
X166230827Y-198061128D01*
X166230827Y-197203985D02*
X166302256Y-197132557D01*
X166302256Y-197132557D02*
X166445113Y-197061128D01*
X166445113Y-197061128D02*
X166659399Y-197061128D01*
X166659399Y-197061128D02*
X166802256Y-197132557D01*
X166802256Y-197132557D02*
X166873685Y-197275414D01*
X166873685Y-197275414D02*
X166873685Y-198061128D01*
X167587970Y-198061128D02*
X167587970Y-197061128D01*
X167587970Y-196561128D02*
X167516542Y-196632557D01*
X167516542Y-196632557D02*
X167587970Y-196703985D01*
X167587970Y-196703985D02*
X167659399Y-196632557D01*
X167659399Y-196632557D02*
X167587970Y-196561128D01*
X167587970Y-196561128D02*
X167587970Y-196703985D01*
D10*
D11*
X227670714Y-192375557D02*
X228385000Y-192375557D01*
X227527857Y-192804128D02*
X228027857Y-191304128D01*
X228027857Y-191304128D02*
X228527857Y-192804128D01*
X229027856Y-192804128D02*
X229027856Y-191304128D01*
X230599285Y-192804128D02*
X230099285Y-192089842D01*
X229742142Y-192804128D02*
X229742142Y-191304128D01*
X229742142Y-191304128D02*
X230313571Y-191304128D01*
X230313571Y-191304128D02*
X230456428Y-191375557D01*
X230456428Y-191375557D02*
X230527857Y-191446985D01*
X230527857Y-191446985D02*
X230599285Y-191589842D01*
X230599285Y-191589842D02*
X230599285Y-191804128D01*
X230599285Y-191804128D02*
X230527857Y-191946985D01*
X230527857Y-191946985D02*
X230456428Y-192018414D01*
X230456428Y-192018414D02*
X230313571Y-192089842D01*
X230313571Y-192089842D02*
X229742142Y-192089842D01*
D10*
D11*
X250379160Y-189559295D02*
X250379160Y-188759295D01*
X250379160Y-188759295D02*
X250569636Y-188759295D01*
X250569636Y-188759295D02*
X250683922Y-188797390D01*
X250683922Y-188797390D02*
X250760112Y-188873580D01*
X250760112Y-188873580D02*
X250798207Y-188949771D01*
X250798207Y-188949771D02*
X250836303Y-189102152D01*
X250836303Y-189102152D02*
X250836303Y-189216438D01*
X250836303Y-189216438D02*
X250798207Y-189368819D01*
X250798207Y-189368819D02*
X250760112Y-189445009D01*
X250760112Y-189445009D02*
X250683922Y-189521200D01*
X250683922Y-189521200D02*
X250569636Y-189559295D01*
X250569636Y-189559295D02*
X250379160Y-189559295D01*
X251331541Y-188759295D02*
X251483922Y-188759295D01*
X251483922Y-188759295D02*
X251560112Y-188797390D01*
X251560112Y-188797390D02*
X251636303Y-188873580D01*
X251636303Y-188873580D02*
X251674398Y-189025961D01*
X251674398Y-189025961D02*
X251674398Y-189292628D01*
X251674398Y-189292628D02*
X251636303Y-189445009D01*
X251636303Y-189445009D02*
X251560112Y-189521200D01*
X251560112Y-189521200D02*
X251483922Y-189559295D01*
X251483922Y-189559295D02*
X251331541Y-189559295D01*
X251331541Y-189559295D02*
X251255350Y-189521200D01*
X251255350Y-189521200D02*
X251179160Y-189445009D01*
X251179160Y-189445009D02*
X251141064Y-189292628D01*
X251141064Y-189292628D02*
X251141064Y-189025961D01*
X251141064Y-189025961D02*
X251179160Y-188873580D01*
X251179160Y-188873580D02*
X251255350Y-188797390D01*
X251255350Y-188797390D02*
X251331541Y-188759295D01*
X252474398Y-189483104D02*
X252436302Y-189521200D01*
X252436302Y-189521200D02*
X252322017Y-189559295D01*
X252322017Y-189559295D02*
X252245826Y-189559295D01*
X252245826Y-189559295D02*
X252131540Y-189521200D01*
X252131540Y-189521200D02*
X252055350Y-189445009D01*
X252055350Y-189445009D02*
X252017255Y-189368819D01*
X252017255Y-189368819D02*
X251979159Y-189216438D01*
X251979159Y-189216438D02*
X251979159Y-189102152D01*
X251979159Y-189102152D02*
X252017255Y-188949771D01*
X252017255Y-188949771D02*
X252055350Y-188873580D01*
X252055350Y-188873580D02*
X252131540Y-188797390D01*
X252131540Y-188797390D02*
X252245826Y-188759295D01*
X252245826Y-188759295D02*
X252322017Y-188759295D01*
X252322017Y-188759295D02*
X252436302Y-188797390D01*
X252436302Y-188797390D02*
X252474398Y-188835485D01*
X252817255Y-188759295D02*
X252817255Y-189406914D01*
X252817255Y-189406914D02*
X252855350Y-189483104D01*
X252855350Y-189483104D02*
X252893445Y-189521200D01*
X252893445Y-189521200D02*
X252969636Y-189559295D01*
X252969636Y-189559295D02*
X253122017Y-189559295D01*
X253122017Y-189559295D02*
X253198207Y-189521200D01*
X253198207Y-189521200D02*
X253236302Y-189483104D01*
X253236302Y-189483104D02*
X253274398Y-189406914D01*
X253274398Y-189406914D02*
X253274398Y-188759295D01*
X253655350Y-189559295D02*
X253655350Y-188759295D01*
X253655350Y-188759295D02*
X253922016Y-189330723D01*
X253922016Y-189330723D02*
X254188683Y-188759295D01*
X254188683Y-188759295D02*
X254188683Y-189559295D01*
X254569636Y-189140247D02*
X254836302Y-189140247D01*
X254950588Y-189559295D02*
X254569636Y-189559295D01*
X254569636Y-189559295D02*
X254569636Y-188759295D01*
X254569636Y-188759295D02*
X254950588Y-188759295D01*
X255293446Y-189559295D02*
X255293446Y-188759295D01*
X255293446Y-188759295D02*
X255750589Y-189559295D01*
X255750589Y-189559295D02*
X255750589Y-188759295D01*
X256017255Y-188759295D02*
X256474398Y-188759295D01*
X256245826Y-189559295D02*
X256245826Y-188759295D01*
X257312493Y-189521200D02*
X257426779Y-189559295D01*
X257426779Y-189559295D02*
X257617255Y-189559295D01*
X257617255Y-189559295D02*
X257693446Y-189521200D01*
X257693446Y-189521200D02*
X257731541Y-189483104D01*
X257731541Y-189483104D02*
X257769636Y-189406914D01*
X257769636Y-189406914D02*
X257769636Y-189330723D01*
X257769636Y-189330723D02*
X257731541Y-189254533D01*
X257731541Y-189254533D02*
X257693446Y-189216438D01*
X257693446Y-189216438D02*
X257617255Y-189178342D01*
X257617255Y-189178342D02*
X257464874Y-189140247D01*
X257464874Y-189140247D02*
X257388684Y-189102152D01*
X257388684Y-189102152D02*
X257350589Y-189064057D01*
X257350589Y-189064057D02*
X257312493Y-188987866D01*
X257312493Y-188987866D02*
X257312493Y-188911676D01*
X257312493Y-188911676D02*
X257350589Y-188835485D01*
X257350589Y-188835485D02*
X257388684Y-188797390D01*
X257388684Y-188797390D02*
X257464874Y-188759295D01*
X257464874Y-188759295D02*
X257655351Y-188759295D01*
X257655351Y-188759295D02*
X257769636Y-188797390D01*
X257998208Y-188759295D02*
X258455351Y-188759295D01*
X258226779Y-189559295D02*
X258226779Y-188759295D01*
X258683922Y-189330723D02*
X259064875Y-189330723D01*
X258607732Y-189559295D02*
X258874399Y-188759295D01*
X258874399Y-188759295D02*
X259141065Y-189559295D01*
X259293446Y-188759295D02*
X259750589Y-188759295D01*
X259522017Y-189559295D02*
X259522017Y-188759295D01*
X260017256Y-188759295D02*
X260017256Y-189406914D01*
X260017256Y-189406914D02*
X260055351Y-189483104D01*
X260055351Y-189483104D02*
X260093446Y-189521200D01*
X260093446Y-189521200D02*
X260169637Y-189559295D01*
X260169637Y-189559295D02*
X260322018Y-189559295D01*
X260322018Y-189559295D02*
X260398208Y-189521200D01*
X260398208Y-189521200D02*
X260436303Y-189483104D01*
X260436303Y-189483104D02*
X260474399Y-189406914D01*
X260474399Y-189406914D02*
X260474399Y-188759295D01*
X260817255Y-189521200D02*
X260931541Y-189559295D01*
X260931541Y-189559295D02*
X261122017Y-189559295D01*
X261122017Y-189559295D02*
X261198208Y-189521200D01*
X261198208Y-189521200D02*
X261236303Y-189483104D01*
X261236303Y-189483104D02*
X261274398Y-189406914D01*
X261274398Y-189406914D02*
X261274398Y-189330723D01*
X261274398Y-189330723D02*
X261236303Y-189254533D01*
X261236303Y-189254533D02*
X261198208Y-189216438D01*
X261198208Y-189216438D02*
X261122017Y-189178342D01*
X261122017Y-189178342D02*
X260969636Y-189140247D01*
X260969636Y-189140247D02*
X260893446Y-189102152D01*
X260893446Y-189102152D02*
X260855351Y-189064057D01*
X260855351Y-189064057D02*
X260817255Y-188987866D01*
X260817255Y-188987866D02*
X260817255Y-188911676D01*
X260817255Y-188911676D02*
X260855351Y-188835485D01*
X260855351Y-188835485D02*
X260893446Y-188797390D01*
X260893446Y-188797390D02*
X260969636Y-188759295D01*
X260969636Y-188759295D02*
X261160113Y-188759295D01*
X261160113Y-188759295D02*
X261274398Y-188797390D01*
D10*
D11*
X224979160Y-189559295D02*
X224979160Y-188759295D01*
X224979160Y-188759295D02*
X225169636Y-188759295D01*
X225169636Y-188759295D02*
X225283922Y-188797390D01*
X225283922Y-188797390D02*
X225360112Y-188873580D01*
X225360112Y-188873580D02*
X225398207Y-188949771D01*
X225398207Y-188949771D02*
X225436303Y-189102152D01*
X225436303Y-189102152D02*
X225436303Y-189216438D01*
X225436303Y-189216438D02*
X225398207Y-189368819D01*
X225398207Y-189368819D02*
X225360112Y-189445009D01*
X225360112Y-189445009D02*
X225283922Y-189521200D01*
X225283922Y-189521200D02*
X225169636Y-189559295D01*
X225169636Y-189559295D02*
X224979160Y-189559295D01*
X226236303Y-189559295D02*
X225969636Y-189178342D01*
X225779160Y-189559295D02*
X225779160Y-188759295D01*
X225779160Y-188759295D02*
X226083922Y-188759295D01*
X226083922Y-188759295D02*
X226160112Y-188797390D01*
X226160112Y-188797390D02*
X226198207Y-188835485D01*
X226198207Y-188835485D02*
X226236303Y-188911676D01*
X226236303Y-188911676D02*
X226236303Y-189025961D01*
X226236303Y-189025961D02*
X226198207Y-189102152D01*
X226198207Y-189102152D02*
X226160112Y-189140247D01*
X226160112Y-189140247D02*
X226083922Y-189178342D01*
X226083922Y-189178342D02*
X225779160Y-189178342D01*
X226541064Y-189330723D02*
X226922017Y-189330723D01*
X226464874Y-189559295D02*
X226731541Y-188759295D01*
X226731541Y-188759295D02*
X226998207Y-189559295D01*
X227188683Y-188759295D02*
X227379159Y-189559295D01*
X227379159Y-189559295D02*
X227531540Y-188987866D01*
X227531540Y-188987866D02*
X227683921Y-189559295D01*
X227683921Y-189559295D02*
X227874398Y-188759295D01*
X228179160Y-189559295D02*
X228179160Y-188759295D01*
X228179160Y-188759295D02*
X228636303Y-189559295D01*
X228636303Y-189559295D02*
X228636303Y-188759295D01*
X229893445Y-189140247D02*
X230007731Y-189178342D01*
X230007731Y-189178342D02*
X230045826Y-189216438D01*
X230045826Y-189216438D02*
X230083922Y-189292628D01*
X230083922Y-189292628D02*
X230083922Y-189406914D01*
X230083922Y-189406914D02*
X230045826Y-189483104D01*
X230045826Y-189483104D02*
X230007731Y-189521200D01*
X230007731Y-189521200D02*
X229931541Y-189559295D01*
X229931541Y-189559295D02*
X229626779Y-189559295D01*
X229626779Y-189559295D02*
X229626779Y-188759295D01*
X229626779Y-188759295D02*
X229893445Y-188759295D01*
X229893445Y-188759295D02*
X229969636Y-188797390D01*
X229969636Y-188797390D02*
X230007731Y-188835485D01*
X230007731Y-188835485D02*
X230045826Y-188911676D01*
X230045826Y-188911676D02*
X230045826Y-188987866D01*
X230045826Y-188987866D02*
X230007731Y-189064057D01*
X230007731Y-189064057D02*
X229969636Y-189102152D01*
X229969636Y-189102152D02*
X229893445Y-189140247D01*
X229893445Y-189140247D02*
X229626779Y-189140247D01*
X230579160Y-189178342D02*
X230579160Y-189559295D01*
X230312493Y-188759295D02*
X230579160Y-189178342D01*
X230579160Y-189178342D02*
X230845826Y-188759295D01*
D10*
D11*
X235139160Y-189559295D02*
X235139160Y-188759295D01*
X235139160Y-188759295D02*
X235329636Y-188759295D01*
X235329636Y-188759295D02*
X235443922Y-188797390D01*
X235443922Y-188797390D02*
X235520112Y-188873580D01*
X235520112Y-188873580D02*
X235558207Y-188949771D01*
X235558207Y-188949771D02*
X235596303Y-189102152D01*
X235596303Y-189102152D02*
X235596303Y-189216438D01*
X235596303Y-189216438D02*
X235558207Y-189368819D01*
X235558207Y-189368819D02*
X235520112Y-189445009D01*
X235520112Y-189445009D02*
X235443922Y-189521200D01*
X235443922Y-189521200D02*
X235329636Y-189559295D01*
X235329636Y-189559295D02*
X235139160Y-189559295D01*
X236091541Y-188759295D02*
X236243922Y-188759295D01*
X236243922Y-188759295D02*
X236320112Y-188797390D01*
X236320112Y-188797390D02*
X236396303Y-188873580D01*
X236396303Y-188873580D02*
X236434398Y-189025961D01*
X236434398Y-189025961D02*
X236434398Y-189292628D01*
X236434398Y-189292628D02*
X236396303Y-189445009D01*
X236396303Y-189445009D02*
X236320112Y-189521200D01*
X236320112Y-189521200D02*
X236243922Y-189559295D01*
X236243922Y-189559295D02*
X236091541Y-189559295D01*
X236091541Y-189559295D02*
X236015350Y-189521200D01*
X236015350Y-189521200D02*
X235939160Y-189445009D01*
X235939160Y-189445009D02*
X235901064Y-189292628D01*
X235901064Y-189292628D02*
X235901064Y-189025961D01*
X235901064Y-189025961D02*
X235939160Y-188873580D01*
X235939160Y-188873580D02*
X236015350Y-188797390D01*
X236015350Y-188797390D02*
X236091541Y-188759295D01*
X237234398Y-189483104D02*
X237196302Y-189521200D01*
X237196302Y-189521200D02*
X237082017Y-189559295D01*
X237082017Y-189559295D02*
X237005826Y-189559295D01*
X237005826Y-189559295D02*
X236891540Y-189521200D01*
X236891540Y-189521200D02*
X236815350Y-189445009D01*
X236815350Y-189445009D02*
X236777255Y-189368819D01*
X236777255Y-189368819D02*
X236739159Y-189216438D01*
X236739159Y-189216438D02*
X236739159Y-189102152D01*
X236739159Y-189102152D02*
X236777255Y-188949771D01*
X236777255Y-188949771D02*
X236815350Y-188873580D01*
X236815350Y-188873580D02*
X236891540Y-188797390D01*
X236891540Y-188797390D02*
X237005826Y-188759295D01*
X237005826Y-188759295D02*
X237082017Y-188759295D01*
X237082017Y-188759295D02*
X237196302Y-188797390D01*
X237196302Y-188797390D02*
X237234398Y-188835485D01*
X237577255Y-188759295D02*
X237577255Y-189406914D01*
X237577255Y-189406914D02*
X237615350Y-189483104D01*
X237615350Y-189483104D02*
X237653445Y-189521200D01*
X237653445Y-189521200D02*
X237729636Y-189559295D01*
X237729636Y-189559295D02*
X237882017Y-189559295D01*
X237882017Y-189559295D02*
X237958207Y-189521200D01*
X237958207Y-189521200D02*
X237996302Y-189483104D01*
X237996302Y-189483104D02*
X238034398Y-189406914D01*
X238034398Y-189406914D02*
X238034398Y-188759295D01*
X238415350Y-189559295D02*
X238415350Y-188759295D01*
X238415350Y-188759295D02*
X238682016Y-189330723D01*
X238682016Y-189330723D02*
X238948683Y-188759295D01*
X238948683Y-188759295D02*
X238948683Y-189559295D01*
X239329636Y-189140247D02*
X239596302Y-189140247D01*
X239710588Y-189559295D02*
X239329636Y-189559295D01*
X239329636Y-189559295D02*
X239329636Y-188759295D01*
X239329636Y-188759295D02*
X239710588Y-188759295D01*
X240053446Y-189559295D02*
X240053446Y-188759295D01*
X240053446Y-188759295D02*
X240510589Y-189559295D01*
X240510589Y-189559295D02*
X240510589Y-188759295D01*
X240777255Y-188759295D02*
X241234398Y-188759295D01*
X241005826Y-189559295D02*
X241005826Y-188759295D01*
X241996303Y-188759295D02*
X242453446Y-188759295D01*
X242224874Y-189559295D02*
X242224874Y-188759295D01*
X242872494Y-189178342D02*
X242872494Y-189559295D01*
X242605827Y-188759295D02*
X242872494Y-189178342D01*
X242872494Y-189178342D02*
X243139160Y-188759295D01*
X243405827Y-189559295D02*
X243405827Y-188759295D01*
X243405827Y-188759295D02*
X243710589Y-188759295D01*
X243710589Y-188759295D02*
X243786779Y-188797390D01*
X243786779Y-188797390D02*
X243824874Y-188835485D01*
X243824874Y-188835485D02*
X243862970Y-188911676D01*
X243862970Y-188911676D02*
X243862970Y-189025961D01*
X243862970Y-189025961D02*
X243824874Y-189102152D01*
X243824874Y-189102152D02*
X243786779Y-189140247D01*
X243786779Y-189140247D02*
X243710589Y-189178342D01*
X243710589Y-189178342D02*
X243405827Y-189178342D01*
X244205827Y-189140247D02*
X244472493Y-189140247D01*
X244586779Y-189559295D02*
X244205827Y-189559295D01*
X244205827Y-189559295D02*
X244205827Y-188759295D01*
X244205827Y-188759295D02*
X244586779Y-188759295D01*
D10*
D11*
X253821000Y-192804128D02*
X253821000Y-191304128D01*
X253821000Y-191304128D02*
X254178143Y-191304128D01*
X254178143Y-191304128D02*
X254392429Y-191375557D01*
X254392429Y-191375557D02*
X254535286Y-191518414D01*
X254535286Y-191518414D02*
X254606715Y-191661271D01*
X254606715Y-191661271D02*
X254678143Y-191946985D01*
X254678143Y-191946985D02*
X254678143Y-192161271D01*
X254678143Y-192161271D02*
X254606715Y-192446985D01*
X254606715Y-192446985D02*
X254535286Y-192589842D01*
X254535286Y-192589842D02*
X254392429Y-192732700D01*
X254392429Y-192732700D02*
X254178143Y-192804128D01*
X254178143Y-192804128D02*
X253821000Y-192804128D01*
X256178143Y-192804128D02*
X255678143Y-192089842D01*
X255321000Y-192804128D02*
X255321000Y-191304128D01*
X255321000Y-191304128D02*
X255892429Y-191304128D01*
X255892429Y-191304128D02*
X256035286Y-191375557D01*
X256035286Y-191375557D02*
X256106715Y-191446985D01*
X256106715Y-191446985D02*
X256178143Y-191589842D01*
X256178143Y-191589842D02*
X256178143Y-191804128D01*
X256178143Y-191804128D02*
X256106715Y-191946985D01*
X256106715Y-191946985D02*
X256035286Y-192018414D01*
X256035286Y-192018414D02*
X255892429Y-192089842D01*
X255892429Y-192089842D02*
X255321000Y-192089842D01*
X256749572Y-192375557D02*
X257463858Y-192375557D01*
X256606715Y-192804128D02*
X257106715Y-191304128D01*
X257106715Y-191304128D02*
X257606715Y-192804128D01*
X258606714Y-192018414D02*
X258106714Y-192018414D01*
X258106714Y-192804128D02*
X258106714Y-191304128D01*
X258106714Y-191304128D02*
X258821000Y-191304128D01*
X259178143Y-191304128D02*
X260035286Y-191304128D01*
X259606714Y-192804128D02*
X259606714Y-191304128D01*
D10*
D11*
X241915287Y-197796985D02*
X241986715Y-197725557D01*
X241986715Y-197725557D02*
X242129573Y-197654128D01*
X242129573Y-197654128D02*
X242486715Y-197654128D01*
X242486715Y-197654128D02*
X242629573Y-197725557D01*
X242629573Y-197725557D02*
X242701001Y-197796985D01*
X242701001Y-197796985D02*
X242772430Y-197939842D01*
X242772430Y-197939842D02*
X242772430Y-198082700D01*
X242772430Y-198082700D02*
X242701001Y-198296985D01*
X242701001Y-198296985D02*
X241843858Y-199154128D01*
X241843858Y-199154128D02*
X242772430Y-199154128D01*
X243701001Y-197654128D02*
X243843858Y-197654128D01*
X243843858Y-197654128D02*
X243986715Y-197725557D01*
X243986715Y-197725557D02*
X244058144Y-197796985D01*
X244058144Y-197796985D02*
X244129572Y-197939842D01*
X244129572Y-197939842D02*
X244201001Y-198225557D01*
X244201001Y-198225557D02*
X244201001Y-198582700D01*
X244201001Y-198582700D02*
X244129572Y-198868414D01*
X244129572Y-198868414D02*
X244058144Y-199011271D01*
X244058144Y-199011271D02*
X243986715Y-199082700D01*
X243986715Y-199082700D02*
X243843858Y-199154128D01*
X243843858Y-199154128D02*
X243701001Y-199154128D01*
X243701001Y-199154128D02*
X243558144Y-199082700D01*
X243558144Y-199082700D02*
X243486715Y-199011271D01*
X243486715Y-199011271D02*
X243415286Y-198868414D01*
X243415286Y-198868414D02*
X243343858Y-198582700D01*
X243343858Y-198582700D02*
X243343858Y-198225557D01*
X243343858Y-198225557D02*
X243415286Y-197939842D01*
X243415286Y-197939842D02*
X243486715Y-197796985D01*
X243486715Y-197796985D02*
X243558144Y-197725557D01*
X243558144Y-197725557D02*
X243701001Y-197654128D01*
X244772429Y-197796985D02*
X244843857Y-197725557D01*
X244843857Y-197725557D02*
X244986715Y-197654128D01*
X244986715Y-197654128D02*
X245343857Y-197654128D01*
X245343857Y-197654128D02*
X245486715Y-197725557D01*
X245486715Y-197725557D02*
X245558143Y-197796985D01*
X245558143Y-197796985D02*
X245629572Y-197939842D01*
X245629572Y-197939842D02*
X245629572Y-198082700D01*
X245629572Y-198082700D02*
X245558143Y-198296985D01*
X245558143Y-198296985D02*
X244701000Y-199154128D01*
X244701000Y-199154128D02*
X245629572Y-199154128D01*
X246129571Y-197654128D02*
X247058143Y-197654128D01*
X247058143Y-197654128D02*
X246558143Y-198225557D01*
X246558143Y-198225557D02*
X246772428Y-198225557D01*
X246772428Y-198225557D02*
X246915286Y-198296985D01*
X246915286Y-198296985D02*
X246986714Y-198368414D01*
X246986714Y-198368414D02*
X247058143Y-198511271D01*
X247058143Y-198511271D02*
X247058143Y-198868414D01*
X247058143Y-198868414D02*
X246986714Y-199011271D01*
X246986714Y-199011271D02*
X246915286Y-199082700D01*
X246915286Y-199082700D02*
X246772428Y-199154128D01*
X246772428Y-199154128D02*
X246343857Y-199154128D01*
X246343857Y-199154128D02*
X246201000Y-199082700D01*
X246201000Y-199082700D02*
X246129571Y-199011271D01*
X247700999Y-198582700D02*
X248843857Y-198582700D01*
X249843857Y-197654128D02*
X249986714Y-197654128D01*
X249986714Y-197654128D02*
X250129571Y-197725557D01*
X250129571Y-197725557D02*
X250201000Y-197796985D01*
X250201000Y-197796985D02*
X250272428Y-197939842D01*
X250272428Y-197939842D02*
X250343857Y-198225557D01*
X250343857Y-198225557D02*
X250343857Y-198582700D01*
X250343857Y-198582700D02*
X250272428Y-198868414D01*
X250272428Y-198868414D02*
X250201000Y-199011271D01*
X250201000Y-199011271D02*
X250129571Y-199082700D01*
X250129571Y-199082700D02*
X249986714Y-199154128D01*
X249986714Y-199154128D02*
X249843857Y-199154128D01*
X249843857Y-199154128D02*
X249701000Y-199082700D01*
X249701000Y-199082700D02*
X249629571Y-199011271D01*
X249629571Y-199011271D02*
X249558142Y-198868414D01*
X249558142Y-198868414D02*
X249486714Y-198582700D01*
X249486714Y-198582700D02*
X249486714Y-198225557D01*
X249486714Y-198225557D02*
X249558142Y-197939842D01*
X249558142Y-197939842D02*
X249629571Y-197796985D01*
X249629571Y-197796985D02*
X249701000Y-197725557D01*
X249701000Y-197725557D02*
X249843857Y-197654128D01*
X251200999Y-198296985D02*
X251058142Y-198225557D01*
X251058142Y-198225557D02*
X250986713Y-198154128D01*
X250986713Y-198154128D02*
X250915285Y-198011271D01*
X250915285Y-198011271D02*
X250915285Y-197939842D01*
X250915285Y-197939842D02*
X250986713Y-197796985D01*
X250986713Y-197796985D02*
X251058142Y-197725557D01*
X251058142Y-197725557D02*
X251200999Y-197654128D01*
X251200999Y-197654128D02*
X251486713Y-197654128D01*
X251486713Y-197654128D02*
X251629571Y-197725557D01*
X251629571Y-197725557D02*
X251700999Y-197796985D01*
X251700999Y-197796985D02*
X251772428Y-197939842D01*
X251772428Y-197939842D02*
X251772428Y-198011271D01*
X251772428Y-198011271D02*
X251700999Y-198154128D01*
X251700999Y-198154128D02*
X251629571Y-198225557D01*
X251629571Y-198225557D02*
X251486713Y-198296985D01*
X251486713Y-198296985D02*
X251200999Y-198296985D01*
X251200999Y-198296985D02*
X251058142Y-198368414D01*
X251058142Y-198368414D02*
X250986713Y-198439842D01*
X250986713Y-198439842D02*
X250915285Y-198582700D01*
X250915285Y-198582700D02*
X250915285Y-198868414D01*
X250915285Y-198868414D02*
X250986713Y-199011271D01*
X250986713Y-199011271D02*
X251058142Y-199082700D01*
X251058142Y-199082700D02*
X251200999Y-199154128D01*
X251200999Y-199154128D02*
X251486713Y-199154128D01*
X251486713Y-199154128D02*
X251629571Y-199082700D01*
X251629571Y-199082700D02*
X251700999Y-199011271D01*
X251700999Y-199011271D02*
X251772428Y-198868414D01*
X251772428Y-198868414D02*
X251772428Y-198582700D01*
X251772428Y-198582700D02*
X251700999Y-198439842D01*
X251700999Y-198439842D02*
X251629571Y-198368414D01*
X251629571Y-198368414D02*
X251486713Y-198296985D01*
X252415284Y-198582700D02*
X253558142Y-198582700D01*
X255058142Y-199154128D02*
X254200999Y-199154128D01*
X254629570Y-199154128D02*
X254629570Y-197654128D01*
X254629570Y-197654128D02*
X254486713Y-197868414D01*
X254486713Y-197868414D02*
X254343856Y-198011271D01*
X254343856Y-198011271D02*
X254200999Y-198082700D01*
X255772427Y-199154128D02*
X256058141Y-199154128D01*
X256058141Y-199154128D02*
X256200998Y-199082700D01*
X256200998Y-199082700D02*
X256272427Y-199011271D01*
X256272427Y-199011271D02*
X256415284Y-198796985D01*
X256415284Y-198796985D02*
X256486713Y-198511271D01*
X256486713Y-198511271D02*
X256486713Y-197939842D01*
X256486713Y-197939842D02*
X256415284Y-197796985D01*
X256415284Y-197796985D02*
X256343856Y-197725557D01*
X256343856Y-197725557D02*
X256200998Y-197654128D01*
X256200998Y-197654128D02*
X255915284Y-197654128D01*
X255915284Y-197654128D02*
X255772427Y-197725557D01*
X255772427Y-197725557D02*
X255700998Y-197796985D01*
X255700998Y-197796985D02*
X255629570Y-197939842D01*
X255629570Y-197939842D02*
X255629570Y-198296985D01*
X255629570Y-198296985D02*
X255700998Y-198439842D01*
X255700998Y-198439842D02*
X255772427Y-198511271D01*
X255772427Y-198511271D02*
X255915284Y-198582700D01*
X255915284Y-198582700D02*
X256200998Y-198582700D01*
X256200998Y-198582700D02*
X256343856Y-198511271D01*
X256343856Y-198511271D02*
X256415284Y-198439842D01*
X256415284Y-198439842D02*
X256486713Y-198296985D01*
D10*
D11*
X237032857Y-198725557D02*
X237747143Y-198725557D01*
X236890000Y-199154128D02*
X237390000Y-197654128D01*
X237390000Y-197654128D02*
X237890000Y-199154128D01*
D10*
D12*
X144115225Y-192288328D02*
X143258082Y-192288328D01*
X143686653Y-192288328D02*
X143686653Y-190788328D01*
X143686653Y-190788328D02*
X143543796Y-191002614D01*
X143543796Y-191002614D02*
X143400939Y-191145471D01*
X143400939Y-191145471D02*
X143258082Y-191216900D01*
X145472367Y-190788328D02*
X144758081Y-190788328D01*
X144758081Y-190788328D02*
X144686653Y-191502614D01*
X144686653Y-191502614D02*
X144758081Y-191431185D01*
X144758081Y-191431185D02*
X144900939Y-191359757D01*
X144900939Y-191359757D02*
X145258081Y-191359757D01*
X145258081Y-191359757D02*
X145400939Y-191431185D01*
X145400939Y-191431185D02*
X145472367Y-191502614D01*
X145472367Y-191502614D02*
X145543796Y-191645471D01*
X145543796Y-191645471D02*
X145543796Y-192002614D01*
X145543796Y-192002614D02*
X145472367Y-192145471D01*
X145472367Y-192145471D02*
X145400939Y-192216900D01*
X145400939Y-192216900D02*
X145258081Y-192288328D01*
X145258081Y-192288328D02*
X144900939Y-192288328D01*
X144900939Y-192288328D02*
X144758081Y-192216900D01*
X144758081Y-192216900D02*
X144686653Y-192145471D01*
X146258081Y-192288328D02*
X146543795Y-192288328D01*
X146543795Y-192288328D02*
X146686652Y-192216900D01*
X146686652Y-192216900D02*
X146758081Y-192145471D01*
X146758081Y-192145471D02*
X146900938Y-191931185D01*
X146900938Y-191931185D02*
X146972367Y-191645471D01*
X146972367Y-191645471D02*
X146972367Y-191074042D01*
X146972367Y-191074042D02*
X146900938Y-190931185D01*
X146900938Y-190931185D02*
X146829510Y-190859757D01*
X146829510Y-190859757D02*
X146686652Y-190788328D01*
X146686652Y-190788328D02*
X146400938Y-190788328D01*
X146400938Y-190788328D02*
X146258081Y-190859757D01*
X146258081Y-190859757D02*
X146186652Y-190931185D01*
X146186652Y-190931185D02*
X146115224Y-191074042D01*
X146115224Y-191074042D02*
X146115224Y-191431185D01*
X146115224Y-191431185D02*
X146186652Y-191574042D01*
X146186652Y-191574042D02*
X146258081Y-191645471D01*
X146258081Y-191645471D02*
X146400938Y-191716900D01*
X146400938Y-191716900D02*
X146686652Y-191716900D01*
X146686652Y-191716900D02*
X146829510Y-191645471D01*
X146829510Y-191645471D02*
X146900938Y-191574042D01*
X146900938Y-191574042D02*
X146972367Y-191431185D01*
X147900938Y-190788328D02*
X148043795Y-190788328D01*
X148043795Y-190788328D02*
X148186652Y-190859757D01*
X148186652Y-190859757D02*
X148258081Y-190931185D01*
X148258081Y-190931185D02*
X148329509Y-191074042D01*
X148329509Y-191074042D02*
X148400938Y-191359757D01*
X148400938Y-191359757D02*
X148400938Y-191716900D01*
X148400938Y-191716900D02*
X148329509Y-192002614D01*
X148329509Y-192002614D02*
X148258081Y-192145471D01*
X148258081Y-192145471D02*
X148186652Y-192216900D01*
X148186652Y-192216900D02*
X148043795Y-192288328D01*
X148043795Y-192288328D02*
X147900938Y-192288328D01*
X147900938Y-192288328D02*
X147758081Y-192216900D01*
X147758081Y-192216900D02*
X147686652Y-192145471D01*
X147686652Y-192145471D02*
X147615223Y-192002614D01*
X147615223Y-192002614D02*
X147543795Y-191716900D01*
X147543795Y-191716900D02*
X147543795Y-191359757D01*
X147543795Y-191359757D02*
X147615223Y-191074042D01*
X147615223Y-191074042D02*
X147686652Y-190931185D01*
X147686652Y-190931185D02*
X147758081Y-190859757D01*
X147758081Y-190859757D02*
X147900938Y-190788328D01*
X149043794Y-192288328D02*
X149043794Y-190788328D01*
X149043794Y-190788328D02*
X149900937Y-192288328D01*
X149900937Y-192288328D02*
X149900937Y-190788328D01*
X151400938Y-192288328D02*
X150543795Y-192288328D01*
X150972366Y-192288328D02*
X150972366Y-190788328D01*
X150972366Y-190788328D02*
X150829509Y-191002614D01*
X150829509Y-191002614D02*
X150686652Y-191145471D01*
X150686652Y-191145471D02*
X150543795Y-191216900D01*
X153686651Y-191502614D02*
X153900937Y-191574042D01*
X153900937Y-191574042D02*
X153972366Y-191645471D01*
X153972366Y-191645471D02*
X154043794Y-191788328D01*
X154043794Y-191788328D02*
X154043794Y-192002614D01*
X154043794Y-192002614D02*
X153972366Y-192145471D01*
X153972366Y-192145471D02*
X153900937Y-192216900D01*
X153900937Y-192216900D02*
X153758080Y-192288328D01*
X153758080Y-192288328D02*
X153186651Y-192288328D01*
X153186651Y-192288328D02*
X153186651Y-190788328D01*
X153186651Y-190788328D02*
X153686651Y-190788328D01*
X153686651Y-190788328D02*
X153829509Y-190859757D01*
X153829509Y-190859757D02*
X153900937Y-190931185D01*
X153900937Y-190931185D02*
X153972366Y-191074042D01*
X153972366Y-191074042D02*
X153972366Y-191216900D01*
X153972366Y-191216900D02*
X153900937Y-191359757D01*
X153900937Y-191359757D02*
X153829509Y-191431185D01*
X153829509Y-191431185D02*
X153686651Y-191502614D01*
X153686651Y-191502614D02*
X153186651Y-191502614D01*
X154615223Y-191859757D02*
X155329509Y-191859757D01*
X154472366Y-192288328D02*
X154972366Y-190788328D01*
X154972366Y-190788328D02*
X155472366Y-192288328D01*
X155900937Y-192216900D02*
X156115223Y-192288328D01*
X156115223Y-192288328D02*
X156472365Y-192288328D01*
X156472365Y-192288328D02*
X156615223Y-192216900D01*
X156615223Y-192216900D02*
X156686651Y-192145471D01*
X156686651Y-192145471D02*
X156758080Y-192002614D01*
X156758080Y-192002614D02*
X156758080Y-191859757D01*
X156758080Y-191859757D02*
X156686651Y-191716900D01*
X156686651Y-191716900D02*
X156615223Y-191645471D01*
X156615223Y-191645471D02*
X156472365Y-191574042D01*
X156472365Y-191574042D02*
X156186651Y-191502614D01*
X156186651Y-191502614D02*
X156043794Y-191431185D01*
X156043794Y-191431185D02*
X155972365Y-191359757D01*
X155972365Y-191359757D02*
X155900937Y-191216900D01*
X155900937Y-191216900D02*
X155900937Y-191074042D01*
X155900937Y-191074042D02*
X155972365Y-190931185D01*
X155972365Y-190931185D02*
X156043794Y-190859757D01*
X156043794Y-190859757D02*
X156186651Y-190788328D01*
X156186651Y-190788328D02*
X156543794Y-190788328D01*
X156543794Y-190788328D02*
X156758080Y-190859757D01*
X157400936Y-191502614D02*
X157900936Y-191502614D01*
X158115222Y-192288328D02*
X157400936Y-192288328D01*
X157400936Y-192288328D02*
X157400936Y-190788328D01*
X157400936Y-190788328D02*
X158115222Y-190788328D01*
X159258079Y-191502614D02*
X159472365Y-191574042D01*
X159472365Y-191574042D02*
X159543794Y-191645471D01*
X159543794Y-191645471D02*
X159615222Y-191788328D01*
X159615222Y-191788328D02*
X159615222Y-192002614D01*
X159615222Y-192002614D02*
X159543794Y-192145471D01*
X159543794Y-192145471D02*
X159472365Y-192216900D01*
X159472365Y-192216900D02*
X159329508Y-192288328D01*
X159329508Y-192288328D02*
X158758079Y-192288328D01*
X158758079Y-192288328D02*
X158758079Y-190788328D01*
X158758079Y-190788328D02*
X159258079Y-190788328D01*
X159258079Y-190788328D02*
X159400937Y-190859757D01*
X159400937Y-190859757D02*
X159472365Y-190931185D01*
X159472365Y-190931185D02*
X159543794Y-191074042D01*
X159543794Y-191074042D02*
X159543794Y-191216900D01*
X159543794Y-191216900D02*
X159472365Y-191359757D01*
X159472365Y-191359757D02*
X159400937Y-191431185D01*
X159400937Y-191431185D02*
X159258079Y-191502614D01*
X159258079Y-191502614D02*
X158758079Y-191502614D01*
X160543794Y-190788328D02*
X160829508Y-190788328D01*
X160829508Y-190788328D02*
X160972365Y-190859757D01*
X160972365Y-190859757D02*
X161115222Y-191002614D01*
X161115222Y-191002614D02*
X161186651Y-191288328D01*
X161186651Y-191288328D02*
X161186651Y-191788328D01*
X161186651Y-191788328D02*
X161115222Y-192074042D01*
X161115222Y-192074042D02*
X160972365Y-192216900D01*
X160972365Y-192216900D02*
X160829508Y-192288328D01*
X160829508Y-192288328D02*
X160543794Y-192288328D01*
X160543794Y-192288328D02*
X160400937Y-192216900D01*
X160400937Y-192216900D02*
X160258079Y-192074042D01*
X160258079Y-192074042D02*
X160186651Y-191788328D01*
X160186651Y-191788328D02*
X160186651Y-191288328D01*
X160186651Y-191288328D02*
X160258079Y-191002614D01*
X160258079Y-191002614D02*
X160400937Y-190859757D01*
X160400937Y-190859757D02*
X160543794Y-190788328D01*
X161758080Y-191859757D02*
X162472366Y-191859757D01*
X161615223Y-192288328D02*
X162115223Y-190788328D01*
X162115223Y-190788328D02*
X162615223Y-192288328D01*
X163972365Y-192288328D02*
X163472365Y-191574042D01*
X163115222Y-192288328D02*
X163115222Y-190788328D01*
X163115222Y-190788328D02*
X163686651Y-190788328D01*
X163686651Y-190788328D02*
X163829508Y-190859757D01*
X163829508Y-190859757D02*
X163900937Y-190931185D01*
X163900937Y-190931185D02*
X163972365Y-191074042D01*
X163972365Y-191074042D02*
X163972365Y-191288328D01*
X163972365Y-191288328D02*
X163900937Y-191431185D01*
X163900937Y-191431185D02*
X163829508Y-191502614D01*
X163829508Y-191502614D02*
X163686651Y-191574042D01*
X163686651Y-191574042D02*
X163115222Y-191574042D01*
X164615222Y-192288328D02*
X164615222Y-190788328D01*
X164615222Y-190788328D02*
X164972365Y-190788328D01*
X164972365Y-190788328D02*
X165186651Y-190859757D01*
X165186651Y-190859757D02*
X165329508Y-191002614D01*
X165329508Y-191002614D02*
X165400937Y-191145471D01*
X165400937Y-191145471D02*
X165472365Y-191431185D01*
X165472365Y-191431185D02*
X165472365Y-191645471D01*
X165472365Y-191645471D02*
X165400937Y-191931185D01*
X165400937Y-191931185D02*
X165329508Y-192074042D01*
X165329508Y-192074042D02*
X165186651Y-192216900D01*
X165186651Y-192216900D02*
X164972365Y-192288328D01*
X164972365Y-192288328D02*
X164615222Y-192288328D01*
X167258079Y-191716900D02*
X168400937Y-191716900D01*
X170258079Y-192288328D02*
X170258079Y-190788328D01*
X170258079Y-190788328D02*
X170829508Y-190788328D01*
X170829508Y-190788328D02*
X170972365Y-190859757D01*
X170972365Y-190859757D02*
X171043794Y-190931185D01*
X171043794Y-190931185D02*
X171115222Y-191074042D01*
X171115222Y-191074042D02*
X171115222Y-191288328D01*
X171115222Y-191288328D02*
X171043794Y-191431185D01*
X171043794Y-191431185D02*
X170972365Y-191502614D01*
X170972365Y-191502614D02*
X170829508Y-191574042D01*
X170829508Y-191574042D02*
X170258079Y-191574042D01*
X172615222Y-192145471D02*
X172543794Y-192216900D01*
X172543794Y-192216900D02*
X172329508Y-192288328D01*
X172329508Y-192288328D02*
X172186651Y-192288328D01*
X172186651Y-192288328D02*
X171972365Y-192216900D01*
X171972365Y-192216900D02*
X171829508Y-192074042D01*
X171829508Y-192074042D02*
X171758079Y-191931185D01*
X171758079Y-191931185D02*
X171686651Y-191645471D01*
X171686651Y-191645471D02*
X171686651Y-191431185D01*
X171686651Y-191431185D02*
X171758079Y-191145471D01*
X171758079Y-191145471D02*
X171829508Y-191002614D01*
X171829508Y-191002614D02*
X171972365Y-190859757D01*
X171972365Y-190859757D02*
X172186651Y-190788328D01*
X172186651Y-190788328D02*
X172329508Y-190788328D01*
X172329508Y-190788328D02*
X172543794Y-190859757D01*
X172543794Y-190859757D02*
X172615222Y-190931185D01*
X173758079Y-191502614D02*
X173972365Y-191574042D01*
X173972365Y-191574042D02*
X174043794Y-191645471D01*
X174043794Y-191645471D02*
X174115222Y-191788328D01*
X174115222Y-191788328D02*
X174115222Y-192002614D01*
X174115222Y-192002614D02*
X174043794Y-192145471D01*
X174043794Y-192145471D02*
X173972365Y-192216900D01*
X173972365Y-192216900D02*
X173829508Y-192288328D01*
X173829508Y-192288328D02*
X173258079Y-192288328D01*
X173258079Y-192288328D02*
X173258079Y-190788328D01*
X173258079Y-190788328D02*
X173758079Y-190788328D01*
X173758079Y-190788328D02*
X173900937Y-190859757D01*
X173900937Y-190859757D02*
X173972365Y-190931185D01*
X173972365Y-190931185D02*
X174043794Y-191074042D01*
X174043794Y-191074042D02*
X174043794Y-191216900D01*
X174043794Y-191216900D02*
X173972365Y-191359757D01*
X173972365Y-191359757D02*
X173900937Y-191431185D01*
X173900937Y-191431185D02*
X173758079Y-191502614D01*
X173758079Y-191502614D02*
X173258079Y-191502614D01*
D10*
D11*
X140524160Y-174954295D02*
X140524160Y-174154295D01*
X140524160Y-174154295D02*
X140981303Y-174954295D01*
X140981303Y-174954295D02*
X140981303Y-174154295D01*
X141514636Y-174154295D02*
X141667017Y-174154295D01*
X141667017Y-174154295D02*
X141743207Y-174192390D01*
X141743207Y-174192390D02*
X141819398Y-174268580D01*
X141819398Y-174268580D02*
X141857493Y-174420961D01*
X141857493Y-174420961D02*
X141857493Y-174687628D01*
X141857493Y-174687628D02*
X141819398Y-174840009D01*
X141819398Y-174840009D02*
X141743207Y-174916200D01*
X141743207Y-174916200D02*
X141667017Y-174954295D01*
X141667017Y-174954295D02*
X141514636Y-174954295D01*
X141514636Y-174954295D02*
X141438445Y-174916200D01*
X141438445Y-174916200D02*
X141362255Y-174840009D01*
X141362255Y-174840009D02*
X141324159Y-174687628D01*
X141324159Y-174687628D02*
X141324159Y-174420961D01*
X141324159Y-174420961D02*
X141362255Y-174268580D01*
X141362255Y-174268580D02*
X141438445Y-174192390D01*
X141438445Y-174192390D02*
X141514636Y-174154295D01*
X142086064Y-174154295D02*
X142543207Y-174154295D01*
X142314635Y-174954295D02*
X142314635Y-174154295D01*
X142809874Y-174535247D02*
X143076540Y-174535247D01*
X143190826Y-174954295D02*
X142809874Y-174954295D01*
X142809874Y-174954295D02*
X142809874Y-174154295D01*
X142809874Y-174154295D02*
X143190826Y-174154295D01*
X143495588Y-174916200D02*
X143609874Y-174954295D01*
X143609874Y-174954295D02*
X143800350Y-174954295D01*
X143800350Y-174954295D02*
X143876541Y-174916200D01*
X143876541Y-174916200D02*
X143914636Y-174878104D01*
X143914636Y-174878104D02*
X143952731Y-174801914D01*
X143952731Y-174801914D02*
X143952731Y-174725723D01*
X143952731Y-174725723D02*
X143914636Y-174649533D01*
X143914636Y-174649533D02*
X143876541Y-174611438D01*
X143876541Y-174611438D02*
X143800350Y-174573342D01*
X143800350Y-174573342D02*
X143647969Y-174535247D01*
X143647969Y-174535247D02*
X143571779Y-174497152D01*
X143571779Y-174497152D02*
X143533684Y-174459057D01*
X143533684Y-174459057D02*
X143495588Y-174382866D01*
X143495588Y-174382866D02*
X143495588Y-174306676D01*
X143495588Y-174306676D02*
X143533684Y-174230485D01*
X143533684Y-174230485D02*
X143571779Y-174192390D01*
X143571779Y-174192390D02*
X143647969Y-174154295D01*
X143647969Y-174154295D02*
X143838446Y-174154295D01*
X143838446Y-174154295D02*
X143952731Y-174192390D01*
X144295589Y-174878104D02*
X144333684Y-174916200D01*
X144333684Y-174916200D02*
X144295589Y-174954295D01*
X144295589Y-174954295D02*
X144257493Y-174916200D01*
X144257493Y-174916200D02*
X144295589Y-174878104D01*
X144295589Y-174878104D02*
X144295589Y-174954295D01*
X144295589Y-174459057D02*
X144333684Y-174497152D01*
X144333684Y-174497152D02*
X144295589Y-174535247D01*
X144295589Y-174535247D02*
X144257493Y-174497152D01*
X144257493Y-174497152D02*
X144295589Y-174459057D01*
X144295589Y-174459057D02*
X144295589Y-174535247D01*
X145286065Y-174154295D02*
X145286065Y-174801914D01*
X145286065Y-174801914D02*
X145324160Y-174878104D01*
X145324160Y-174878104D02*
X145362255Y-174916200D01*
X145362255Y-174916200D02*
X145438446Y-174954295D01*
X145438446Y-174954295D02*
X145590827Y-174954295D01*
X145590827Y-174954295D02*
X145667017Y-174916200D01*
X145667017Y-174916200D02*
X145705112Y-174878104D01*
X145705112Y-174878104D02*
X145743208Y-174801914D01*
X145743208Y-174801914D02*
X145743208Y-174154295D01*
X146124160Y-174954295D02*
X146124160Y-174154295D01*
X146124160Y-174154295D02*
X146581303Y-174954295D01*
X146581303Y-174954295D02*
X146581303Y-174154295D01*
X147343207Y-174954295D02*
X146962255Y-174954295D01*
X146962255Y-174954295D02*
X146962255Y-174154295D01*
X147609874Y-174535247D02*
X147876540Y-174535247D01*
X147990826Y-174954295D02*
X147609874Y-174954295D01*
X147609874Y-174954295D02*
X147609874Y-174154295D01*
X147609874Y-174154295D02*
X147990826Y-174154295D01*
X148295588Y-174916200D02*
X148409874Y-174954295D01*
X148409874Y-174954295D02*
X148600350Y-174954295D01*
X148600350Y-174954295D02*
X148676541Y-174916200D01*
X148676541Y-174916200D02*
X148714636Y-174878104D01*
X148714636Y-174878104D02*
X148752731Y-174801914D01*
X148752731Y-174801914D02*
X148752731Y-174725723D01*
X148752731Y-174725723D02*
X148714636Y-174649533D01*
X148714636Y-174649533D02*
X148676541Y-174611438D01*
X148676541Y-174611438D02*
X148600350Y-174573342D01*
X148600350Y-174573342D02*
X148447969Y-174535247D01*
X148447969Y-174535247D02*
X148371779Y-174497152D01*
X148371779Y-174497152D02*
X148333684Y-174459057D01*
X148333684Y-174459057D02*
X148295588Y-174382866D01*
X148295588Y-174382866D02*
X148295588Y-174306676D01*
X148295588Y-174306676D02*
X148333684Y-174230485D01*
X148333684Y-174230485D02*
X148371779Y-174192390D01*
X148371779Y-174192390D02*
X148447969Y-174154295D01*
X148447969Y-174154295D02*
X148638446Y-174154295D01*
X148638446Y-174154295D02*
X148752731Y-174192390D01*
X149057493Y-174916200D02*
X149171779Y-174954295D01*
X149171779Y-174954295D02*
X149362255Y-174954295D01*
X149362255Y-174954295D02*
X149438446Y-174916200D01*
X149438446Y-174916200D02*
X149476541Y-174878104D01*
X149476541Y-174878104D02*
X149514636Y-174801914D01*
X149514636Y-174801914D02*
X149514636Y-174725723D01*
X149514636Y-174725723D02*
X149476541Y-174649533D01*
X149476541Y-174649533D02*
X149438446Y-174611438D01*
X149438446Y-174611438D02*
X149362255Y-174573342D01*
X149362255Y-174573342D02*
X149209874Y-174535247D01*
X149209874Y-174535247D02*
X149133684Y-174497152D01*
X149133684Y-174497152D02*
X149095589Y-174459057D01*
X149095589Y-174459057D02*
X149057493Y-174382866D01*
X149057493Y-174382866D02*
X149057493Y-174306676D01*
X149057493Y-174306676D02*
X149095589Y-174230485D01*
X149095589Y-174230485D02*
X149133684Y-174192390D01*
X149133684Y-174192390D02*
X149209874Y-174154295D01*
X149209874Y-174154295D02*
X149400351Y-174154295D01*
X149400351Y-174154295D02*
X149514636Y-174192390D01*
X150619399Y-174154295D02*
X150771780Y-174154295D01*
X150771780Y-174154295D02*
X150847970Y-174192390D01*
X150847970Y-174192390D02*
X150924161Y-174268580D01*
X150924161Y-174268580D02*
X150962256Y-174420961D01*
X150962256Y-174420961D02*
X150962256Y-174687628D01*
X150962256Y-174687628D02*
X150924161Y-174840009D01*
X150924161Y-174840009D02*
X150847970Y-174916200D01*
X150847970Y-174916200D02*
X150771780Y-174954295D01*
X150771780Y-174954295D02*
X150619399Y-174954295D01*
X150619399Y-174954295D02*
X150543208Y-174916200D01*
X150543208Y-174916200D02*
X150467018Y-174840009D01*
X150467018Y-174840009D02*
X150428922Y-174687628D01*
X150428922Y-174687628D02*
X150428922Y-174420961D01*
X150428922Y-174420961D02*
X150467018Y-174268580D01*
X150467018Y-174268580D02*
X150543208Y-174192390D01*
X150543208Y-174192390D02*
X150619399Y-174154295D01*
X151190827Y-174154295D02*
X151647970Y-174154295D01*
X151419398Y-174954295D02*
X151419398Y-174154295D01*
X151914637Y-174954295D02*
X151914637Y-174154295D01*
X151914637Y-174535247D02*
X152371780Y-174535247D01*
X152371780Y-174954295D02*
X152371780Y-174154295D01*
X152752732Y-174535247D02*
X153019398Y-174535247D01*
X153133684Y-174954295D02*
X152752732Y-174954295D01*
X152752732Y-174954295D02*
X152752732Y-174154295D01*
X152752732Y-174154295D02*
X153133684Y-174154295D01*
X153933685Y-174954295D02*
X153667018Y-174573342D01*
X153476542Y-174954295D02*
X153476542Y-174154295D01*
X153476542Y-174154295D02*
X153781304Y-174154295D01*
X153781304Y-174154295D02*
X153857494Y-174192390D01*
X153857494Y-174192390D02*
X153895589Y-174230485D01*
X153895589Y-174230485D02*
X153933685Y-174306676D01*
X153933685Y-174306676D02*
X153933685Y-174420961D01*
X153933685Y-174420961D02*
X153895589Y-174497152D01*
X153895589Y-174497152D02*
X153857494Y-174535247D01*
X153857494Y-174535247D02*
X153781304Y-174573342D01*
X153781304Y-174573342D02*
X153476542Y-174573342D01*
X154200351Y-174154295D02*
X154390827Y-174954295D01*
X154390827Y-174954295D02*
X154543208Y-174382866D01*
X154543208Y-174382866D02*
X154695589Y-174954295D01*
X154695589Y-174954295D02*
X154886066Y-174154295D01*
X155190828Y-174954295D02*
X155190828Y-174154295D01*
X155533684Y-174916200D02*
X155647970Y-174954295D01*
X155647970Y-174954295D02*
X155838446Y-174954295D01*
X155838446Y-174954295D02*
X155914637Y-174916200D01*
X155914637Y-174916200D02*
X155952732Y-174878104D01*
X155952732Y-174878104D02*
X155990827Y-174801914D01*
X155990827Y-174801914D02*
X155990827Y-174725723D01*
X155990827Y-174725723D02*
X155952732Y-174649533D01*
X155952732Y-174649533D02*
X155914637Y-174611438D01*
X155914637Y-174611438D02*
X155838446Y-174573342D01*
X155838446Y-174573342D02*
X155686065Y-174535247D01*
X155686065Y-174535247D02*
X155609875Y-174497152D01*
X155609875Y-174497152D02*
X155571780Y-174459057D01*
X155571780Y-174459057D02*
X155533684Y-174382866D01*
X155533684Y-174382866D02*
X155533684Y-174306676D01*
X155533684Y-174306676D02*
X155571780Y-174230485D01*
X155571780Y-174230485D02*
X155609875Y-174192390D01*
X155609875Y-174192390D02*
X155686065Y-174154295D01*
X155686065Y-174154295D02*
X155876542Y-174154295D01*
X155876542Y-174154295D02*
X155990827Y-174192390D01*
X156333685Y-174535247D02*
X156600351Y-174535247D01*
X156714637Y-174954295D02*
X156333685Y-174954295D01*
X156333685Y-174954295D02*
X156333685Y-174154295D01*
X156333685Y-174154295D02*
X156714637Y-174154295D01*
X157628923Y-174916200D02*
X157743209Y-174954295D01*
X157743209Y-174954295D02*
X157933685Y-174954295D01*
X157933685Y-174954295D02*
X158009876Y-174916200D01*
X158009876Y-174916200D02*
X158047971Y-174878104D01*
X158047971Y-174878104D02*
X158086066Y-174801914D01*
X158086066Y-174801914D02*
X158086066Y-174725723D01*
X158086066Y-174725723D02*
X158047971Y-174649533D01*
X158047971Y-174649533D02*
X158009876Y-174611438D01*
X158009876Y-174611438D02*
X157933685Y-174573342D01*
X157933685Y-174573342D02*
X157781304Y-174535247D01*
X157781304Y-174535247D02*
X157705114Y-174497152D01*
X157705114Y-174497152D02*
X157667019Y-174459057D01*
X157667019Y-174459057D02*
X157628923Y-174382866D01*
X157628923Y-174382866D02*
X157628923Y-174306676D01*
X157628923Y-174306676D02*
X157667019Y-174230485D01*
X157667019Y-174230485D02*
X157705114Y-174192390D01*
X157705114Y-174192390D02*
X157781304Y-174154295D01*
X157781304Y-174154295D02*
X157971781Y-174154295D01*
X157971781Y-174154295D02*
X158086066Y-174192390D01*
X158428924Y-174954295D02*
X158428924Y-174154295D01*
X158428924Y-174154295D02*
X158733686Y-174154295D01*
X158733686Y-174154295D02*
X158809876Y-174192390D01*
X158809876Y-174192390D02*
X158847971Y-174230485D01*
X158847971Y-174230485D02*
X158886067Y-174306676D01*
X158886067Y-174306676D02*
X158886067Y-174420961D01*
X158886067Y-174420961D02*
X158847971Y-174497152D01*
X158847971Y-174497152D02*
X158809876Y-174535247D01*
X158809876Y-174535247D02*
X158733686Y-174573342D01*
X158733686Y-174573342D02*
X158428924Y-174573342D01*
X159228924Y-174535247D02*
X159495590Y-174535247D01*
X159609876Y-174954295D02*
X159228924Y-174954295D01*
X159228924Y-174954295D02*
X159228924Y-174154295D01*
X159228924Y-174154295D02*
X159609876Y-174154295D01*
X160409877Y-174878104D02*
X160371781Y-174916200D01*
X160371781Y-174916200D02*
X160257496Y-174954295D01*
X160257496Y-174954295D02*
X160181305Y-174954295D01*
X160181305Y-174954295D02*
X160067019Y-174916200D01*
X160067019Y-174916200D02*
X159990829Y-174840009D01*
X159990829Y-174840009D02*
X159952734Y-174763819D01*
X159952734Y-174763819D02*
X159914638Y-174611438D01*
X159914638Y-174611438D02*
X159914638Y-174497152D01*
X159914638Y-174497152D02*
X159952734Y-174344771D01*
X159952734Y-174344771D02*
X159990829Y-174268580D01*
X159990829Y-174268580D02*
X160067019Y-174192390D01*
X160067019Y-174192390D02*
X160181305Y-174154295D01*
X160181305Y-174154295D02*
X160257496Y-174154295D01*
X160257496Y-174154295D02*
X160371781Y-174192390D01*
X160371781Y-174192390D02*
X160409877Y-174230485D01*
X160752734Y-174954295D02*
X160752734Y-174154295D01*
X161400352Y-174535247D02*
X161133686Y-174535247D01*
X161133686Y-174954295D02*
X161133686Y-174154295D01*
X161133686Y-174154295D02*
X161514638Y-174154295D01*
X161819400Y-174954295D02*
X161819400Y-174154295D01*
X162200352Y-174535247D02*
X162467018Y-174535247D01*
X162581304Y-174954295D02*
X162200352Y-174954295D01*
X162200352Y-174954295D02*
X162200352Y-174154295D01*
X162200352Y-174154295D02*
X162581304Y-174154295D01*
X162924162Y-174954295D02*
X162924162Y-174154295D01*
X162924162Y-174154295D02*
X163114638Y-174154295D01*
X163114638Y-174154295D02*
X163228924Y-174192390D01*
X163228924Y-174192390D02*
X163305114Y-174268580D01*
X163305114Y-174268580D02*
X163343209Y-174344771D01*
X163343209Y-174344771D02*
X163381305Y-174497152D01*
X163381305Y-174497152D02*
X163381305Y-174611438D01*
X163381305Y-174611438D02*
X163343209Y-174763819D01*
X163343209Y-174763819D02*
X163305114Y-174840009D01*
X163305114Y-174840009D02*
X163228924Y-174916200D01*
X163228924Y-174916200D02*
X163114638Y-174954295D01*
X163114638Y-174954295D02*
X162924162Y-174954295D01*
D10*
D11*
X12700000Y-12700000D02*
X266700000Y-12700000D01*
X266700000Y-203200000D01*
X12700000Y-203200000D01*
X12700000Y-12700000D01*
D10*
D11*
X15240000Y-15240000D02*
X264160000Y-15240000D01*
X264160000Y-200660000D01*
X15240000Y-200660000D01*
X15240000Y-15240000D01*
D10*
D11*
X15240000Y-200660000D02*
X12700000Y-203200000D01*
D10*
D11*
X264160000Y-200660000D02*
X266700000Y-203200000D01*
D10*
D11*
X264160000Y-15240000D02*
X266700000Y-12700000D01*
D10*
D11*
X15240000Y-15240000D02*
X12700000Y-12700000D01*
D10*
D11*
X139700000Y-15240000D02*
X139700000Y-12700000D01*
D10*
D11*
X139700000Y-203200000D02*
X139700000Y-200660000D01*
D10*
D11*
X12700000Y-107950000D02*
X15240000Y-107950000D01*
D10*
D11*
X266700000Y-107950000D02*
X264160000Y-107950000D01*
D10*
D11*
X77470000Y-12700000D02*
X77470000Y-15240000D01*
D10*
D11*
X201930000Y-12700000D02*
X201930000Y-15240000D01*
D10*
D11*
X77470000Y-200660000D02*
X77470000Y-203200000D01*
D10*
D11*
X201930000Y-200660000D02*
X201930000Y-203200000D01*
D10*
D11*
X12700000Y-61595000D02*
X15240000Y-61595000D01*
D10*
D11*
X15240000Y-154305000D02*
X12700000Y-154305000D01*
D10*
D11*
X264160000Y-154305000D02*
X266700000Y-154305000D01*
D10*
D11*
X264160000Y-61595000D02*
X266700000Y-61595000D01*
D10*
D11*
X139700000Y-187960000D02*
X139700000Y-173355000D01*
D10*
D11*
X264160000Y-173355000D02*
X139700000Y-173355000D01*
D10*
D11*
X139700000Y-194310000D02*
X264160000Y-194310000D01*
D10*
D11*
X139700000Y-187960000D02*
X264160000Y-187960000D01*
D10*
D11*
X257810000Y-194310000D02*
X257810000Y-200660000D01*
D10*
D11*
X240665000Y-194310000D02*
X240665000Y-200660000D01*
D10*
D11*
X234315000Y-194310000D02*
X234315000Y-200660000D01*
D10*
D11*
X249555000Y-187960000D02*
X249555000Y-194310000D01*
D10*
D11*
X234315000Y-187960000D02*
X234315000Y-194310000D01*
D10*
D11*
X224155000Y-187960000D02*
X224155000Y-194310000D01*
D10*
D11*
X224155000Y-194310000D02*
X224155000Y-200660000D01*
D10*
D11*
X232687857Y-14354557D02*
X233402143Y-14354557D01*
X232545000Y-14783128D02*
X233045000Y-13283128D01*
X233045000Y-13283128D02*
X233545000Y-14783128D01*
D10*
D11*
X170795142Y-13997414D02*
X171009428Y-14068842D01*
X171009428Y-14068842D02*
X171080857Y-14140271D01*
X171080857Y-14140271D02*
X171152285Y-14283128D01*
X171152285Y-14283128D02*
X171152285Y-14497414D01*
X171152285Y-14497414D02*
X171080857Y-14640271D01*
X171080857Y-14640271D02*
X171009428Y-14711700D01*
X171009428Y-14711700D02*
X170866571Y-14783128D01*
X170866571Y-14783128D02*
X170295142Y-14783128D01*
X170295142Y-14783128D02*
X170295142Y-13283128D01*
X170295142Y-13283128D02*
X170795142Y-13283128D01*
X170795142Y-13283128D02*
X170938000Y-13354557D01*
X170938000Y-13354557D02*
X171009428Y-13425985D01*
X171009428Y-13425985D02*
X171080857Y-13568842D01*
X171080857Y-13568842D02*
X171080857Y-13711700D01*
X171080857Y-13711700D02*
X171009428Y-13854557D01*
X171009428Y-13854557D02*
X170938000Y-13925985D01*
X170938000Y-13925985D02*
X170795142Y-13997414D01*
X170795142Y-13997414D02*
X170295142Y-13997414D01*
D10*
D11*
X108922285Y-14640271D02*
X108850857Y-14711700D01*
X108850857Y-14711700D02*
X108636571Y-14783128D01*
X108636571Y-14783128D02*
X108493714Y-14783128D01*
X108493714Y-14783128D02*
X108279428Y-14711700D01*
X108279428Y-14711700D02*
X108136571Y-14568842D01*
X108136571Y-14568842D02*
X108065142Y-14425985D01*
X108065142Y-14425985D02*
X107993714Y-14140271D01*
X107993714Y-14140271D02*
X107993714Y-13925985D01*
X107993714Y-13925985D02*
X108065142Y-13640271D01*
X108065142Y-13640271D02*
X108136571Y-13497414D01*
X108136571Y-13497414D02*
X108279428Y-13354557D01*
X108279428Y-13354557D02*
X108493714Y-13283128D01*
X108493714Y-13283128D02*
X108636571Y-13283128D01*
X108636571Y-13283128D02*
X108850857Y-13354557D01*
X108850857Y-13354557D02*
X108922285Y-13425985D01*
D10*
D11*
X45708142Y-14783128D02*
X45708142Y-13283128D01*
X45708142Y-13283128D02*
X46065285Y-13283128D01*
X46065285Y-13283128D02*
X46279571Y-13354557D01*
X46279571Y-13354557D02*
X46422428Y-13497414D01*
X46422428Y-13497414D02*
X46493857Y-13640271D01*
X46493857Y-13640271D02*
X46565285Y-13925985D01*
X46565285Y-13925985D02*
X46565285Y-14140271D01*
X46565285Y-14140271D02*
X46493857Y-14425985D01*
X46493857Y-14425985D02*
X46422428Y-14568842D01*
X46422428Y-14568842D02*
X46279571Y-14711700D01*
X46279571Y-14711700D02*
X46065285Y-14783128D01*
X46065285Y-14783128D02*
X45708142Y-14783128D01*
D10*
D11*
X13389429Y-130238985D02*
X13460857Y-130167557D01*
X13460857Y-130167557D02*
X13603715Y-130096128D01*
X13603715Y-130096128D02*
X13960857Y-130096128D01*
X13960857Y-130096128D02*
X14103715Y-130167557D01*
X14103715Y-130167557D02*
X14175143Y-130238985D01*
X14175143Y-130238985D02*
X14246572Y-130381842D01*
X14246572Y-130381842D02*
X14246572Y-130524700D01*
X14246572Y-130524700D02*
X14175143Y-130738985D01*
X14175143Y-130738985D02*
X13318000Y-131596128D01*
X13318000Y-131596128D02*
X14246572Y-131596128D01*
D10*
D11*
X13316000Y-84172128D02*
X14244572Y-84172128D01*
X14244572Y-84172128D02*
X13744572Y-84743557D01*
X13744572Y-84743557D02*
X13958857Y-84743557D01*
X13958857Y-84743557D02*
X14101715Y-84814985D01*
X14101715Y-84814985D02*
X14173143Y-84886414D01*
X14173143Y-84886414D02*
X14244572Y-85029271D01*
X14244572Y-85029271D02*
X14244572Y-85386414D01*
X14244572Y-85386414D02*
X14173143Y-85529271D01*
X14173143Y-85529271D02*
X14101715Y-85600700D01*
X14101715Y-85600700D02*
X13958857Y-85672128D01*
X13958857Y-85672128D02*
X13530286Y-85672128D01*
X13530286Y-85672128D02*
X13387429Y-85600700D01*
X13387429Y-85600700D02*
X13316000Y-85529271D01*
D10*
D11*
X45708142Y-202743128D02*
X45708142Y-201243128D01*
X45708142Y-201243128D02*
X46065285Y-201243128D01*
X46065285Y-201243128D02*
X46279571Y-201314557D01*
X46279571Y-201314557D02*
X46422428Y-201457414D01*
X46422428Y-201457414D02*
X46493857Y-201600271D01*
X46493857Y-201600271D02*
X46565285Y-201885985D01*
X46565285Y-201885985D02*
X46565285Y-202100271D01*
X46565285Y-202100271D02*
X46493857Y-202385985D01*
X46493857Y-202385985D02*
X46422428Y-202528842D01*
X46422428Y-202528842D02*
X46279571Y-202671700D01*
X46279571Y-202671700D02*
X46065285Y-202743128D01*
X46065285Y-202743128D02*
X45708142Y-202743128D01*
D10*
D11*
X232687857Y-202314557D02*
X233402143Y-202314557D01*
X232545000Y-202743128D02*
X233045000Y-201243128D01*
X233045000Y-201243128D02*
X233545000Y-202743128D01*
D10*
D11*
X170795142Y-201932414D02*
X171009428Y-202003842D01*
X171009428Y-202003842D02*
X171080857Y-202075271D01*
X171080857Y-202075271D02*
X171152285Y-202218128D01*
X171152285Y-202218128D02*
X171152285Y-202432414D01*
X171152285Y-202432414D02*
X171080857Y-202575271D01*
X171080857Y-202575271D02*
X171009428Y-202646700D01*
X171009428Y-202646700D02*
X170866571Y-202718128D01*
X170866571Y-202718128D02*
X170295142Y-202718128D01*
X170295142Y-202718128D02*
X170295142Y-201218128D01*
X170295142Y-201218128D02*
X170795142Y-201218128D01*
X170795142Y-201218128D02*
X170938000Y-201289557D01*
X170938000Y-201289557D02*
X171009428Y-201360985D01*
X171009428Y-201360985D02*
X171080857Y-201503842D01*
X171080857Y-201503842D02*
X171080857Y-201646700D01*
X171080857Y-201646700D02*
X171009428Y-201789557D01*
X171009428Y-201789557D02*
X170938000Y-201860985D01*
X170938000Y-201860985D02*
X170795142Y-201932414D01*
X170795142Y-201932414D02*
X170295142Y-201932414D01*
D10*
D11*
X108922285Y-202600271D02*
X108850857Y-202671700D01*
X108850857Y-202671700D02*
X108636571Y-202743128D01*
X108636571Y-202743128D02*
X108493714Y-202743128D01*
X108493714Y-202743128D02*
X108279428Y-202671700D01*
X108279428Y-202671700D02*
X108136571Y-202528842D01*
X108136571Y-202528842D02*
X108065142Y-202385985D01*
X108065142Y-202385985D02*
X107993714Y-202100271D01*
X107993714Y-202100271D02*
X107993714Y-201885985D01*
X107993714Y-201885985D02*
X108065142Y-201600271D01*
X108065142Y-201600271D02*
X108136571Y-201457414D01*
X108136571Y-201457414D02*
X108279428Y-201314557D01*
X108279428Y-201314557D02*
X108493714Y-201243128D01*
X108493714Y-201243128D02*
X108636571Y-201243128D01*
X108636571Y-201243128D02*
X108850857Y-201314557D01*
X108850857Y-201314557D02*
X108922285Y-201385985D01*
D10*
D11*
X14026715Y-38138128D02*
X14026715Y-39138128D01*
X13669572Y-37566700D02*
X13312429Y-38638128D01*
X13312429Y-38638128D02*
X14241000Y-38638128D01*
D10*
D11*
X14271572Y-177953128D02*
X13414429Y-177953128D01*
X13843000Y-177953128D02*
X13843000Y-176453128D01*
X13843000Y-176453128D02*
X13700143Y-176667414D01*
X13700143Y-176667414D02*
X13557286Y-176810271D01*
X13557286Y-176810271D02*
X13414429Y-176881700D01*
D10*
D11*
X15240000Y-154305000D02*
X12700000Y-154305000D01*
D10*
D11*
X12700000Y-107950000D02*
X15240000Y-107950000D01*
D10*
D11*
X12700000Y-61595000D02*
X15240000Y-61595000D01*
D10*
D11*
X264878000Y-83820128D02*
X265806572Y-83820128D01*
X265806572Y-83820128D02*
X265306572Y-84391557D01*
X265306572Y-84391557D02*
X265520857Y-84391557D01*
X265520857Y-84391557D02*
X265663715Y-84462985D01*
X265663715Y-84462985D02*
X265735143Y-84534414D01*
X265735143Y-84534414D02*
X265806572Y-84677271D01*
X265806572Y-84677271D02*
X265806572Y-85034414D01*
X265806572Y-85034414D02*
X265735143Y-85177271D01*
X265735143Y-85177271D02*
X265663715Y-85248700D01*
X265663715Y-85248700D02*
X265520857Y-85320128D01*
X265520857Y-85320128D02*
X265092286Y-85320128D01*
X265092286Y-85320128D02*
X264949429Y-85248700D01*
X264949429Y-85248700D02*
X264878000Y-85177271D01*
D10*
D11*
X265833572Y-177601128D02*
X264976429Y-177601128D01*
X265405000Y-177601128D02*
X265405000Y-176101128D01*
X265405000Y-176101128D02*
X265262143Y-176315414D01*
X265262143Y-176315414D02*
X265119286Y-176458271D01*
X265119286Y-176458271D02*
X264976429Y-176529700D01*
D10*
D11*
X265588715Y-37786128D02*
X265588715Y-38786128D01*
X265231572Y-37214700D02*
X264874429Y-38286128D01*
X264874429Y-38286128D02*
X265803000Y-38286128D01*
D10*
D11*
X264951429Y-129886985D02*
X265022857Y-129815557D01*
X265022857Y-129815557D02*
X265165715Y-129744128D01*
X265165715Y-129744128D02*
X265522857Y-129744128D01*
X265522857Y-129744128D02*
X265665715Y-129815557D01*
X265665715Y-129815557D02*
X265737143Y-129886985D01*
X265737143Y-129886985D02*
X265808572Y-130029842D01*
X265808572Y-130029842D02*
X265808572Y-130172700D01*
X265808572Y-130172700D02*
X265737143Y-130386985D01*
X265737143Y-130386985D02*
X264880000Y-131244128D01*
X264880000Y-131244128D02*
X265808572Y-131244128D01*
D10*
D11*
X139700000Y-27940000D02*
X139700000Y-14986000D01*
D10*
D11*
X264160000Y-21590000D02*
X139700000Y-21590000D01*
D10*
D11*
X192894285Y-19101128D02*
X192394285Y-18386842D01*
X192037142Y-19101128D02*
X192037142Y-17601128D01*
X192037142Y-17601128D02*
X192608571Y-17601128D01*
X192608571Y-17601128D02*
X192751428Y-17672557D01*
X192751428Y-17672557D02*
X192822857Y-17743985D01*
X192822857Y-17743985D02*
X192894285Y-17886842D01*
X192894285Y-17886842D02*
X192894285Y-18101128D01*
X192894285Y-18101128D02*
X192822857Y-18243985D01*
X192822857Y-18243985D02*
X192751428Y-18315414D01*
X192751428Y-18315414D02*
X192608571Y-18386842D01*
X192608571Y-18386842D02*
X192037142Y-18386842D01*
X193537142Y-18315414D02*
X194037142Y-18315414D01*
X194251428Y-19101128D02*
X193537142Y-19101128D01*
X193537142Y-19101128D02*
X193537142Y-17601128D01*
X193537142Y-17601128D02*
X194251428Y-17601128D01*
X194680000Y-17601128D02*
X195180000Y-19101128D01*
X195180000Y-19101128D02*
X195680000Y-17601128D01*
X196179999Y-19101128D02*
X196179999Y-17601128D01*
X196822857Y-19029700D02*
X197037143Y-19101128D01*
X197037143Y-19101128D02*
X197394285Y-19101128D01*
X197394285Y-19101128D02*
X197537143Y-19029700D01*
X197537143Y-19029700D02*
X197608571Y-18958271D01*
X197608571Y-18958271D02*
X197680000Y-18815414D01*
X197680000Y-18815414D02*
X197680000Y-18672557D01*
X197680000Y-18672557D02*
X197608571Y-18529700D01*
X197608571Y-18529700D02*
X197537143Y-18458271D01*
X197537143Y-18458271D02*
X197394285Y-18386842D01*
X197394285Y-18386842D02*
X197108571Y-18315414D01*
X197108571Y-18315414D02*
X196965714Y-18243985D01*
X196965714Y-18243985D02*
X196894285Y-18172557D01*
X196894285Y-18172557D02*
X196822857Y-18029700D01*
X196822857Y-18029700D02*
X196822857Y-17886842D01*
X196822857Y-17886842D02*
X196894285Y-17743985D01*
X196894285Y-17743985D02*
X196965714Y-17672557D01*
X196965714Y-17672557D02*
X197108571Y-17601128D01*
X197108571Y-17601128D02*
X197465714Y-17601128D01*
X197465714Y-17601128D02*
X197680000Y-17672557D01*
X198322856Y-19101128D02*
X198322856Y-17601128D01*
X199322857Y-17601128D02*
X199608571Y-17601128D01*
X199608571Y-17601128D02*
X199751428Y-17672557D01*
X199751428Y-17672557D02*
X199894285Y-17815414D01*
X199894285Y-17815414D02*
X199965714Y-18101128D01*
X199965714Y-18101128D02*
X199965714Y-18601128D01*
X199965714Y-18601128D02*
X199894285Y-18886842D01*
X199894285Y-18886842D02*
X199751428Y-19029700D01*
X199751428Y-19029700D02*
X199608571Y-19101128D01*
X199608571Y-19101128D02*
X199322857Y-19101128D01*
X199322857Y-19101128D02*
X199180000Y-19029700D01*
X199180000Y-19029700D02*
X199037142Y-18886842D01*
X199037142Y-18886842D02*
X198965714Y-18601128D01*
X198965714Y-18601128D02*
X198965714Y-18101128D01*
X198965714Y-18101128D02*
X199037142Y-17815414D01*
X199037142Y-17815414D02*
X199180000Y-17672557D01*
X199180000Y-17672557D02*
X199322857Y-17601128D01*
X200608571Y-19101128D02*
X200608571Y-17601128D01*
X200608571Y-17601128D02*
X201465714Y-19101128D01*
X201465714Y-19101128D02*
X201465714Y-17601128D01*
X203322857Y-19101128D02*
X203322857Y-17601128D01*
X203322857Y-18315414D02*
X204180000Y-18315414D01*
X204180000Y-19101128D02*
X204180000Y-17601128D01*
X204894286Y-19101128D02*
X204894286Y-17601128D01*
X205537144Y-19029700D02*
X205751430Y-19101128D01*
X205751430Y-19101128D02*
X206108572Y-19101128D01*
X206108572Y-19101128D02*
X206251430Y-19029700D01*
X206251430Y-19029700D02*
X206322858Y-18958271D01*
X206322858Y-18958271D02*
X206394287Y-18815414D01*
X206394287Y-18815414D02*
X206394287Y-18672557D01*
X206394287Y-18672557D02*
X206322858Y-18529700D01*
X206322858Y-18529700D02*
X206251430Y-18458271D01*
X206251430Y-18458271D02*
X206108572Y-18386842D01*
X206108572Y-18386842D02*
X205822858Y-18315414D01*
X205822858Y-18315414D02*
X205680001Y-18243985D01*
X205680001Y-18243985D02*
X205608572Y-18172557D01*
X205608572Y-18172557D02*
X205537144Y-18029700D01*
X205537144Y-18029700D02*
X205537144Y-17886842D01*
X205537144Y-17886842D02*
X205608572Y-17743985D01*
X205608572Y-17743985D02*
X205680001Y-17672557D01*
X205680001Y-17672557D02*
X205822858Y-17601128D01*
X205822858Y-17601128D02*
X206180001Y-17601128D01*
X206180001Y-17601128D02*
X206394287Y-17672557D01*
X206822858Y-17601128D02*
X207680001Y-17601128D01*
X207251429Y-19101128D02*
X207251429Y-17601128D01*
X208465715Y-17601128D02*
X208751429Y-17601128D01*
X208751429Y-17601128D02*
X208894286Y-17672557D01*
X208894286Y-17672557D02*
X209037143Y-17815414D01*
X209037143Y-17815414D02*
X209108572Y-18101128D01*
X209108572Y-18101128D02*
X209108572Y-18601128D01*
X209108572Y-18601128D02*
X209037143Y-18886842D01*
X209037143Y-18886842D02*
X208894286Y-19029700D01*
X208894286Y-19029700D02*
X208751429Y-19101128D01*
X208751429Y-19101128D02*
X208465715Y-19101128D01*
X208465715Y-19101128D02*
X208322858Y-19029700D01*
X208322858Y-19029700D02*
X208180000Y-18886842D01*
X208180000Y-18886842D02*
X208108572Y-18601128D01*
X208108572Y-18601128D02*
X208108572Y-18101128D01*
X208108572Y-18101128D02*
X208180000Y-17815414D01*
X208180000Y-17815414D02*
X208322858Y-17672557D01*
X208322858Y-17672557D02*
X208465715Y-17601128D01*
X210608572Y-19101128D02*
X210108572Y-18386842D01*
X209751429Y-19101128D02*
X209751429Y-17601128D01*
X209751429Y-17601128D02*
X210322858Y-17601128D01*
X210322858Y-17601128D02*
X210465715Y-17672557D01*
X210465715Y-17672557D02*
X210537144Y-17743985D01*
X210537144Y-17743985D02*
X210608572Y-17886842D01*
X210608572Y-17886842D02*
X210608572Y-18101128D01*
X210608572Y-18101128D02*
X210537144Y-18243985D01*
X210537144Y-18243985D02*
X210465715Y-18315414D01*
X210465715Y-18315414D02*
X210322858Y-18386842D01*
X210322858Y-18386842D02*
X209751429Y-18386842D01*
X211537144Y-18386842D02*
X211537144Y-19101128D01*
X211037144Y-17601128D02*
X211537144Y-18386842D01*
X211537144Y-18386842D02*
X212037144Y-17601128D01*
D10*
D11*
X264160000Y-27940000D02*
X139700000Y-27940000D01*
D10*
D11*
X152400000Y-21590000D02*
X152400000Y-27940000D01*
D10*
D11*
X139700000Y-200660000D02*
X139700000Y-187960000D01*
D10*
D11*
X143728571Y-25451128D02*
X143228571Y-24736842D01*
X142871428Y-25451128D02*
X142871428Y-23951128D01*
X142871428Y-23951128D02*
X143442857Y-23951128D01*
X143442857Y-23951128D02*
X143585714Y-24022557D01*
X143585714Y-24022557D02*
X143657143Y-24093985D01*
X143657143Y-24093985D02*
X143728571Y-24236842D01*
X143728571Y-24236842D02*
X143728571Y-24451128D01*
X143728571Y-24451128D02*
X143657143Y-24593985D01*
X143657143Y-24593985D02*
X143585714Y-24665414D01*
X143585714Y-24665414D02*
X143442857Y-24736842D01*
X143442857Y-24736842D02*
X142871428Y-24736842D01*
X144942857Y-25379700D02*
X144800000Y-25451128D01*
X144800000Y-25451128D02*
X144514286Y-25451128D01*
X144514286Y-25451128D02*
X144371428Y-25379700D01*
X144371428Y-25379700D02*
X144300000Y-25236842D01*
X144300000Y-25236842D02*
X144300000Y-24665414D01*
X144300000Y-24665414D02*
X144371428Y-24522557D01*
X144371428Y-24522557D02*
X144514286Y-24451128D01*
X144514286Y-24451128D02*
X144800000Y-24451128D01*
X144800000Y-24451128D02*
X144942857Y-24522557D01*
X144942857Y-24522557D02*
X145014286Y-24665414D01*
X145014286Y-24665414D02*
X145014286Y-24808271D01*
X145014286Y-24808271D02*
X144300000Y-24951128D01*
X145514285Y-24451128D02*
X145871428Y-25451128D01*
X145871428Y-25451128D02*
X146228571Y-24451128D01*
X146799999Y-25308271D02*
X146871428Y-25379700D01*
X146871428Y-25379700D02*
X146799999Y-25451128D01*
X146799999Y-25451128D02*
X146728571Y-25379700D01*
X146728571Y-25379700D02*
X146799999Y-25308271D01*
X146799999Y-25308271D02*
X146799999Y-25451128D01*
X148585714Y-25022557D02*
X149300000Y-25022557D01*
X148442857Y-25451128D02*
X148942857Y-23951128D01*
X148942857Y-23951128D02*
X149442857Y-25451128D01*
D10*
D11*
X261125125Y-204353390D02*
X261029887Y-204305771D01*
X261029887Y-204305771D02*
X260982268Y-204258152D01*
X260982268Y-204258152D02*
X260934649Y-204162914D01*
X260934649Y-204162914D02*
X260934649Y-204115295D01*
X260934649Y-204115295D02*
X260982268Y-204020057D01*
X260982268Y-204020057D02*
X261029887Y-203972438D01*
X261029887Y-203972438D02*
X261125125Y-203924819D01*
X261125125Y-203924819D02*
X261315601Y-203924819D01*
X261315601Y-203924819D02*
X261410839Y-203972438D01*
X261410839Y-203972438D02*
X261458458Y-204020057D01*
X261458458Y-204020057D02*
X261506077Y-204115295D01*
X261506077Y-204115295D02*
X261506077Y-204162914D01*
X261506077Y-204162914D02*
X261458458Y-204258152D01*
X261458458Y-204258152D02*
X261410839Y-204305771D01*
X261410839Y-204305771D02*
X261315601Y-204353390D01*
X261315601Y-204353390D02*
X261125125Y-204353390D01*
X261125125Y-204353390D02*
X261029887Y-204401009D01*
X261029887Y-204401009D02*
X260982268Y-204448628D01*
X260982268Y-204448628D02*
X260934649Y-204543866D01*
X260934649Y-204543866D02*
X260934649Y-204734342D01*
X260934649Y-204734342D02*
X260982268Y-204829580D01*
X260982268Y-204829580D02*
X261029887Y-204877200D01*
X261029887Y-204877200D02*
X261125125Y-204924819D01*
X261125125Y-204924819D02*
X261315601Y-204924819D01*
X261315601Y-204924819D02*
X261410839Y-204877200D01*
X261410839Y-204877200D02*
X261458458Y-204829580D01*
X261458458Y-204829580D02*
X261506077Y-204734342D01*
X261506077Y-204734342D02*
X261506077Y-204543866D01*
X261506077Y-204543866D02*
X261458458Y-204448628D01*
X261458458Y-204448628D02*
X261410839Y-204401009D01*
X261410839Y-204401009D02*
X261315601Y-204353390D01*
X261934649Y-204829580D02*
X261982268Y-204877200D01*
X261982268Y-204877200D02*
X261934649Y-204924819D01*
X261934649Y-204924819D02*
X261887030Y-204877200D01*
X261887030Y-204877200D02*
X261934649Y-204829580D01*
X261934649Y-204829580D02*
X261934649Y-204924819D01*
X262887029Y-203924819D02*
X262410839Y-203924819D01*
X262410839Y-203924819D02*
X262363220Y-204401009D01*
X262363220Y-204401009D02*
X262410839Y-204353390D01*
X262410839Y-204353390D02*
X262506077Y-204305771D01*
X262506077Y-204305771D02*
X262744172Y-204305771D01*
X262744172Y-204305771D02*
X262839410Y-204353390D01*
X262839410Y-204353390D02*
X262887029Y-204401009D01*
X262887029Y-204401009D02*
X262934648Y-204496247D01*
X262934648Y-204496247D02*
X262934648Y-204734342D01*
X262934648Y-204734342D02*
X262887029Y-204829580D01*
X262887029Y-204829580D02*
X262839410Y-204877200D01*
X262839410Y-204877200D02*
X262744172Y-204924819D01*
X262744172Y-204924819D02*
X262506077Y-204924819D01*
X262506077Y-204924819D02*
X262410839Y-204877200D01*
X262410839Y-204877200D02*
X262363220Y-204829580D01*
X263267982Y-204924819D02*
X263791791Y-204258152D01*
X263267982Y-204258152D02*
X263791791Y-204924819D01*
X264696553Y-204924819D02*
X264125125Y-204924819D01*
X264410839Y-204924819D02*
X264410839Y-203924819D01*
X264410839Y-203924819D02*
X264315601Y-204067676D01*
X264315601Y-204067676D02*
X264220363Y-204162914D01*
X264220363Y-204162914D02*
X264125125Y-204210533D01*
X265648934Y-204924819D02*
X265077506Y-204924819D01*
X265363220Y-204924819D02*
X265363220Y-203924819D01*
X265363220Y-203924819D02*
X265267982Y-204067676D01*
X265267982Y-204067676D02*
X265172744Y-204162914D01*
X265172744Y-204162914D02*
X265077506Y-204210533D01*
X266029887Y-203924819D02*
X266029887Y-204115295D01*
X266410839Y-203924819D02*
X266410839Y-204115295D01*
D13*
%TO.P,J509,1,Pin_1*%
%TO.N,/Peripherals/V_FTSW_RAW_C*%
X181593200Y-120500000D03*
D14*
%TO.P,J509,2,Pin_2*%
%TO.N,+3V3*%
X183593200Y-120500000D03*
%TD*%
D13*
%TO.P,J503,1,Pin_1*%
%TO.N,/Peripherals/V_LED_RAW_C*%
X174593200Y-120500000D03*
D14*
%TO.P,J503,2,Pin_2*%
%TO.N,+3V3*%
X176593200Y-120500000D03*
%TD*%
D15*
%TO.P,D303,1,K*%
%TO.N,/POWER/+15V_RAW*%
X201005700Y-111495001D03*
X201005700Y-110695001D03*
X200155700Y-111495001D03*
D16*
X200155700Y-111095001D03*
D15*
X200155700Y-110695001D03*
X199305700Y-111495001D03*
X199305700Y-110695001D03*
%TO.P,D303,2,A*%
%TO.N,/POWER/PHASE_OUTPUT*%
X197780700Y-111495001D03*
D17*
X197780700Y-111095001D03*
D15*
X197780700Y-110695001D03*
%TD*%
D13*
%TO.P,J501,1,Pin_1*%
%TO.N,/Peripherals/V_LED_RAW_A*%
X142493200Y-120500000D03*
D14*
%TO.P,J501,2,Pin_2*%
%TO.N,+3V3*%
X144493200Y-120500000D03*
%TD*%
D18*
%TO.P,U304,2,VO*%
%TO.N,+3V3*%
X183793200Y-103189999D03*
X181493200Y-103189999D03*
X179193200Y-103189999D03*
X182643200Y-104489999D03*
X180293200Y-104489999D03*
X183793200Y-105789999D03*
X179193200Y-105789999D03*
X181493200Y-105799999D03*
D19*
X181493200Y-105799999D03*
D18*
X182643200Y-107089999D03*
X180343200Y-107089999D03*
X183793200Y-108389999D03*
X181493200Y-108389999D03*
X179193200Y-108389999D03*
%TD*%
D13*
%TO.P,J508,1,Pin_1*%
%TO.N,/Peripherals/V_FTSW_RAW_B*%
X165593200Y-120500000D03*
D14*
%TO.P,J508,2,Pin_2*%
%TO.N,+3V3*%
X167593200Y-120500000D03*
%TD*%
D13*
%TO.P,J205,1,Pin_1*%
%TO.N,+12V*%
X126243200Y-120800000D03*
D14*
%TO.P,J205,2,Pin_2*%
%TO.N,GND*%
X128250200Y-120800000D03*
%TO.P,J205,3,Pin_3*%
%TO.N,EFFECT_C_IN*%
X130256200Y-120800000D03*
%TO.P,J205,4,Pin_4*%
%TO.N,GND*%
X132263200Y-120800000D03*
%TO.P,J205,5,Pin_5*%
%TO.N,EFFECT_C_OUT*%
X134269200Y-120800000D03*
%TD*%
D13*
%TO.P,J507,1,Pin_1*%
%TO.N,/Peripherals/V_FTSW_RAW_A*%
X149493200Y-120500000D03*
D14*
%TO.P,J507,2,Pin_2*%
%TO.N,+3V3*%
X151493200Y-120500000D03*
%TD*%
D20*
%TO.P,J302,*%
%TO.N,*%
X199643200Y-94300000D03*
D21*
%TO.P,J302,1,Pin_1*%
%TO.N,/POWER/DC_IN+*%
X192343200Y-92200000D03*
%TO.P,J302,2,Pin_2*%
%TO.N,/POWER/DC_IN-*%
X192343200Y-96400000D03*
%TD*%
D18*
%TO.P,U402,57,GND*%
%TO.N,GND*%
X162593200Y-101725000D03*
X163793200Y-101725000D03*
X164993200Y-101725000D03*
X162593200Y-100525000D03*
X163793200Y-100525000D03*
D22*
X163793200Y-100525000D03*
D18*
X164993200Y-100525000D03*
X162593200Y-99325000D03*
X163793200Y-99325000D03*
X164993200Y-99325000D03*
%TD*%
D23*
%TO.P,J202,R*%
%TO.N,GND*%
X135493200Y-93650000D03*
%TO.P,J202,RN*%
X119493200Y-93650000D03*
%TO.P,J202,S*%
X135493200Y-87800000D03*
%TO.P,J202,SN*%
X119493200Y-87800000D03*
%TO.P,J202,T*%
%TO.N,/AUDIO/AUDIO_OUT*%
X135493200Y-99500000D03*
%TO.P,J202,TN*%
%TO.N,GND*%
X119493200Y-99500000D03*
%TD*%
%TO.P,J201,R*%
%TO.N,GND*%
X115493200Y-93650000D03*
%TO.P,J201,RN*%
X99493200Y-93650000D03*
%TO.P,J201,S*%
X115493200Y-87800000D03*
%TO.P,J201,SN*%
X99493200Y-87800000D03*
%TO.P,J201,T*%
%TO.N,/AUDIO/AUDIO_IN*%
X115493200Y-99500000D03*
%TO.P,J201,TN*%
%TO.N,GND*%
X99493200Y-99500000D03*
%TD*%
D18*
%TO.P,U302,2,VO*%
%TO.N,+12V*%
X196728200Y-118275000D03*
X196728200Y-115975000D03*
X196728200Y-113675000D03*
X195428200Y-117125000D03*
X195428200Y-114775000D03*
X194128200Y-118275000D03*
X194128200Y-113675000D03*
X194118200Y-115975000D03*
D24*
X194118200Y-115975000D03*
D18*
X192828200Y-117125000D03*
X192828200Y-114825000D03*
X191528200Y-118275000D03*
X191528200Y-115975000D03*
X191528200Y-113675000D03*
%TD*%
%TO.P,U401,9,GND*%
%TO.N,GND*%
X156393201Y-108225000D03*
X156393201Y-106625000D03*
X156393201Y-105025000D03*
X154793201Y-108225000D03*
X154793201Y-106625000D03*
D25*
X154793201Y-106625000D03*
D18*
X154793201Y-105025000D03*
X153193201Y-108225000D03*
X153193201Y-106625000D03*
X153193201Y-105025000D03*
%TD*%
D13*
%TO.P,J204,1,Pin_1*%
%TO.N,+12V*%
X113480700Y-120800000D03*
D14*
%TO.P,J204,2,Pin_2*%
%TO.N,GND*%
X115487700Y-120800000D03*
%TO.P,J204,3,Pin_3*%
%TO.N,EFFECT_B_IN*%
X117493700Y-120800000D03*
%TO.P,J204,4,Pin_4*%
%TO.N,GND*%
X119500700Y-120800000D03*
%TO.P,J204,5,Pin_5*%
%TO.N,EFFECT_B_OUT*%
X121506700Y-120800000D03*
%TD*%
D13*
%TO.P,J203,1,Pin_1*%
%TO.N,+12V*%
X100743200Y-120800000D03*
D14*
%TO.P,J203,2,Pin_2*%
%TO.N,GND*%
X102750200Y-120800000D03*
%TO.P,J203,3,Pin_3*%
%TO.N,EFFECT_A_IN*%
X104756200Y-120800000D03*
%TO.P,J203,4,Pin_4*%
%TO.N,GND*%
X106763200Y-120800000D03*
%TO.P,J203,5,Pin_5*%
%TO.N,EFFECT_A_OUT*%
X108769200Y-120800000D03*
%TD*%
D18*
%TO.P,U301,7,GND*%
%TO.N,GND*%
X191780699Y-104894999D03*
X191780699Y-105394999D03*
D26*
X191780699Y-105394999D03*
D18*
X191780699Y-105894999D03*
%TD*%
D13*
%TO.P,J502,1,Pin_1*%
%TO.N,/Peripherals/V_LED_RAW_B*%
X158593200Y-120500000D03*
D14*
%TO.P,J502,2,Pin_2*%
%TO.N,+3V3*%
X160593200Y-120500000D03*
%TD*%
D27*
%TO.P,G201,1,1*%
%TO.N,GND*%
X107500000Y-87800000D03*
%TD*%
D28*
%TO.P,G301,1,1*%
%TO.N,GND*%
X200000000Y-102300000D03*
%TD*%
D27*
%TO.P,G202,1,1*%
%TO.N,GND*%
X127500000Y-87800000D03*
%TD*%
D29*
%TO.N,GND*%
X138390000Y-91720000D03*
X124488200Y-86270000D03*
X104168200Y-93890000D03*
X111788200Y-86270000D03*
X94008200Y-111670000D03*
X119408200Y-104050000D03*
X179960000Y-117470000D03*
X138458200Y-112940000D03*
X101628200Y-104050000D03*
X179968200Y-114275000D03*
X140293200Y-96000000D03*
X152493200Y-90400000D03*
X139743200Y-111650000D03*
X135918200Y-123100000D03*
X151493200Y-90400000D03*
X116868200Y-104050000D03*
X96548200Y-88810000D03*
X175287800Y-105315599D03*
X106708200Y-93890000D03*
X140998200Y-105320000D03*
X146700000Y-91800000D03*
X94008200Y-98970000D03*
X106708200Y-98970000D03*
X174018200Y-101510000D03*
X143090000Y-102430000D03*
X99088200Y-114210000D03*
X138443200Y-106600000D03*
X132108200Y-86270000D03*
X121948200Y-98970000D03*
X159493200Y-95050000D03*
X94008200Y-106590000D03*
X163960000Y-117460000D03*
X127493200Y-111075000D03*
X173982400Y-110364800D03*
X162190000Y-116290000D03*
X121948200Y-91350000D03*
X104168200Y-86270000D03*
X157443200Y-96525000D03*
X201793200Y-112600000D03*
X104168200Y-104050000D03*
X124488200Y-88810000D03*
X140998200Y-100240000D03*
X153493200Y-90400000D03*
X138458200Y-98970000D03*
X132108200Y-98970000D03*
X104168200Y-101510000D03*
X94008200Y-109130000D03*
X127028200Y-96430000D03*
X109118200Y-112500000D03*
X150693200Y-101650000D03*
X128993200Y-111075000D03*
X198693200Y-121600000D03*
X167668200Y-112940000D03*
X118993200Y-113900000D03*
X99088200Y-111670000D03*
X121948200Y-104050000D03*
X107493200Y-111075000D03*
X96548200Y-111670000D03*
X124488200Y-104050000D03*
X109248200Y-101510000D03*
X111788200Y-101510000D03*
X96548200Y-93890000D03*
X166393200Y-93950000D03*
X175288200Y-102780000D03*
X137188200Y-115480000D03*
X132108200Y-96430000D03*
X164793200Y-106850000D03*
X180349998Y-95850000D03*
X148610000Y-91730000D03*
X96548200Y-109130000D03*
X172748200Y-100240000D03*
X160893200Y-106875000D03*
X139293200Y-96000000D03*
X132108200Y-104050000D03*
X171478200Y-119290000D03*
X110693200Y-115900000D03*
X170593200Y-100600000D03*
X121948200Y-86270000D03*
X143090000Y-104120000D03*
X147868200Y-114275000D03*
X121948200Y-96430000D03*
X135918200Y-112940000D03*
X143080000Y-105820000D03*
X111788200Y-91350000D03*
X96548200Y-101510000D03*
X137188200Y-105320000D03*
X105993200Y-111075000D03*
X179918200Y-113175000D03*
X140998200Y-98970000D03*
X115493200Y-111850000D03*
X132108200Y-91350000D03*
X197843200Y-120300000D03*
X138458200Y-105320000D03*
X138390000Y-85010000D03*
X106708200Y-96430000D03*
X142243200Y-111650000D03*
X114593200Y-110900000D03*
X144893200Y-92900000D03*
X182793200Y-116800000D03*
X106708200Y-106590000D03*
X169200000Y-116290000D03*
X122793200Y-116200000D03*
X121948200Y-88810000D03*
X110743200Y-110850000D03*
X185230000Y-117470000D03*
X172960000Y-117470000D03*
X181549998Y-95850000D03*
X94008200Y-93890000D03*
X166193200Y-90400000D03*
X156960000Y-117470000D03*
X129568200Y-98970000D03*
X163490000Y-90930000D03*
X202214197Y-105550000D03*
X175318200Y-114075000D03*
X94008200Y-101510000D03*
X162588200Y-119290000D03*
X134693200Y-111650000D03*
X143543200Y-111650000D03*
X118993200Y-112800000D03*
X96548200Y-98970000D03*
X174018200Y-100240000D03*
X176557800Y-110364800D03*
X116868200Y-106590000D03*
X180949998Y-95850000D03*
X143538200Y-86270000D03*
X99088200Y-109130000D03*
X172748200Y-101510000D03*
X181093200Y-110300000D03*
X140998200Y-102780000D03*
X173987800Y-107768600D03*
X162230000Y-117470000D03*
X104168200Y-91350000D03*
X111788200Y-93890000D03*
X124488200Y-96430000D03*
X145643200Y-96150000D03*
X111788200Y-98970000D03*
X127028200Y-101510000D03*
X96548200Y-96430000D03*
X150493200Y-110200000D03*
X124488200Y-91350000D03*
X111843200Y-110300000D03*
X94008200Y-114210000D03*
X188968200Y-106925000D03*
X164093200Y-105900000D03*
X111788200Y-96430000D03*
X138458200Y-114210000D03*
X120993200Y-111200000D03*
X192975000Y-87100000D03*
X96548200Y-114210000D03*
X140998200Y-101510000D03*
X138458200Y-115480000D03*
X173987800Y-109064000D03*
X164093200Y-91000000D03*
X158993200Y-95050000D03*
X138458200Y-100240000D03*
X164043200Y-114275000D03*
X96548200Y-116750000D03*
X137188200Y-104050000D03*
X140843200Y-113350000D03*
X129568200Y-96430000D03*
X127028200Y-104050000D03*
X135943200Y-106600000D03*
X109868200Y-111525000D03*
X96548200Y-104050000D03*
X96548200Y-91350000D03*
X111793200Y-116850000D03*
X175287800Y-104065600D03*
X143538200Y-85000000D03*
X140993200Y-106600000D03*
X137188200Y-114210000D03*
X178200000Y-116190000D03*
X175287800Y-110360200D03*
X122343200Y-111200000D03*
X166893200Y-115600000D03*
X138458200Y-116750000D03*
X115793200Y-112750000D03*
X94008200Y-91350000D03*
X137193200Y-111650000D03*
X137193200Y-106600000D03*
X99088200Y-106590000D03*
X124488200Y-101510000D03*
X146193200Y-112000000D03*
X104143200Y-111700000D03*
X175282400Y-110364800D03*
X124488200Y-93890000D03*
X164018200Y-113200000D03*
X170593200Y-99600000D03*
X140998200Y-104050000D03*
X192300000Y-88100000D03*
X127028200Y-93890000D03*
X139728200Y-101510000D03*
X142093200Y-92900000D03*
X170208200Y-119290000D03*
X159893200Y-115600000D03*
X199000000Y-100100000D03*
X189093200Y-115600000D03*
X161780000Y-85850000D03*
X125868200Y-115225000D03*
X173992400Y-107774000D03*
X176558200Y-100240000D03*
X101628200Y-106590000D03*
X129568200Y-104050000D03*
X178220000Y-117470000D03*
X129568200Y-93890000D03*
X173243200Y-114500000D03*
X159343200Y-114075000D03*
X113693200Y-110600000D03*
X135918200Y-114210000D03*
X119493200Y-115900000D03*
X109248200Y-93890000D03*
X187093200Y-103200000D03*
X157443200Y-97525000D03*
X138458200Y-104050000D03*
X170710000Y-97020000D03*
X176558200Y-102780000D03*
X157243200Y-114550000D03*
X94008200Y-104050000D03*
X146080000Y-116190000D03*
X99088200Y-104050000D03*
X175287800Y-109110200D03*
X144793200Y-111650000D03*
X161193200Y-94175000D03*
X189693200Y-115600000D03*
X145643200Y-96750000D03*
X147870000Y-117470000D03*
X138458200Y-102780000D03*
X106708200Y-101510000D03*
X106708200Y-104050000D03*
X140998200Y-85000000D03*
X138443200Y-111650000D03*
X146120000Y-117470000D03*
X145643200Y-95550000D03*
X147818200Y-113275000D03*
X155443200Y-101825000D03*
X157443200Y-98100000D03*
X109248200Y-106590000D03*
X101628200Y-111670000D03*
X142268200Y-86270000D03*
X96548200Y-106590000D03*
X139728200Y-104050000D03*
X142268200Y-85000000D03*
X147243200Y-107900000D03*
X140993200Y-111650000D03*
X137188200Y-121830000D03*
X185210000Y-116190000D03*
X142268200Y-100240000D03*
X162193200Y-94175000D03*
X175893200Y-115550000D03*
X148610000Y-85010000D03*
X132108200Y-101510000D03*
X139728200Y-102780000D03*
X119993200Y-114600000D03*
X139728200Y-100240000D03*
X169220000Y-117470000D03*
X121948200Y-93890000D03*
X138458200Y-123100000D03*
X169818200Y-90975000D03*
X190293200Y-115600000D03*
X109248200Y-104050000D03*
X181093200Y-110900000D03*
X153100000Y-116290000D03*
X175288200Y-101510000D03*
X176558200Y-105320000D03*
X167290000Y-86140000D03*
X160193200Y-94175000D03*
X111788200Y-106590000D03*
X176558200Y-104050000D03*
X139728200Y-98970000D03*
X127028200Y-98970000D03*
X153120000Y-117470000D03*
X170193200Y-101400000D03*
X203472203Y-105550000D03*
X153568200Y-110125000D03*
X109248200Y-98970000D03*
X155443200Y-100825000D03*
X139728200Y-105320000D03*
X185793200Y-101900000D03*
X104168200Y-106590000D03*
X202843200Y-105550000D03*
X139743200Y-106600000D03*
X140870000Y-117470000D03*
X199800000Y-88250000D03*
X132108200Y-93890000D03*
X135943200Y-111650000D03*
X104168200Y-98970000D03*
X140998200Y-86270000D03*
X94008200Y-96430000D03*
X111788200Y-104050000D03*
X137188200Y-123100000D03*
X129568200Y-101510000D03*
X138458200Y-101510000D03*
X150693200Y-116950000D03*
X121948200Y-101510000D03*
X151643200Y-100750000D03*
X104168200Y-88810000D03*
X121693200Y-112650000D03*
X114093200Y-114100000D03*
X126593200Y-112800000D03*
X137188200Y-112940000D03*
X143793200Y-115500000D03*
X94008200Y-116750000D03*
X176557800Y-106580200D03*
X124488200Y-98970000D03*
X109248200Y-96430000D03*
X101628200Y-109130000D03*
X181093200Y-109700000D03*
X165700000Y-93900000D03*
X176558200Y-101510000D03*
X140300000Y-91800000D03*
X143243200Y-113975000D03*
X174018200Y-98970000D03*
X175288200Y-100240000D03*
X104168200Y-96430000D03*
X171493200Y-104900000D03*
%TO.N,+12V*%
X191000000Y-88550000D03*
X100600000Y-116900000D03*
X188493200Y-118350000D03*
X109118200Y-113200000D03*
X126812500Y-116900000D03*
X113300000Y-116900000D03*
X126618200Y-113550000D03*
X126112500Y-116900000D03*
X188043200Y-118000000D03*
X188043200Y-118700000D03*
X101300000Y-116900000D03*
X114000000Y-116900000D03*
%TO.N,/POWER/DC_IN_RECT*%
X148393200Y-96200000D03*
X192793200Y-101500000D03*
X177349998Y-96600000D03*
X148393200Y-95600000D03*
X177349998Y-97200000D03*
X191993200Y-101500000D03*
X177349998Y-97800000D03*
X148393200Y-96800000D03*
X192393200Y-101900000D03*
%TO.N,+3V3*%
X198500000Y-88550000D03*
X183543201Y-111850000D03*
X160518200Y-115600000D03*
X167518200Y-115600000D03*
X159000000Y-95700000D03*
X182800000Y-116190000D03*
X183893200Y-111400000D03*
X157593200Y-100375000D03*
X161093200Y-108200000D03*
X169093200Y-101225000D03*
X176518200Y-115575000D03*
X144418200Y-115500000D03*
X160293200Y-105225000D03*
X165700000Y-95500000D03*
X159500000Y-95700000D03*
X150690000Y-116290000D03*
X151168200Y-110125000D03*
X184243199Y-111850000D03*
X172368200Y-90100000D03*
X164193200Y-105225000D03*
%TO.N,/POWER/+15V_RAW*%
X187993200Y-106925000D03*
X201830000Y-113290000D03*
%TO.N,USB_VBUS*%
X155670000Y-85820000D03*
X141100000Y-91800000D03*
X145900000Y-91800000D03*
%TO.N,/AUDIO/EFFECT_A_BYPASS*%
X112393200Y-110600000D03*
X110300000Y-115400000D03*
%TO.N,EFFECT_A_IN*%
X113200000Y-111100000D03*
X104762500Y-111700000D03*
%TO.N,/MICROCONTROLLER/USB_CC2*%
X139293200Y-93625000D03*
X141500000Y-89900000D03*
%TO.N,Net-(R402-Pad1)*%
X160200000Y-109500000D03*
X158050000Y-86200000D03*
%TO.N,/MICROCONTROLLER/USB_CC1*%
X145000000Y-89900000D03*
X140293200Y-93625000D03*
%TO.N,MUX2_B*%
X120496600Y-114103400D03*
X146593200Y-110800000D03*
%TO.N,/AUDIO/EFFECT_A_TO_B*%
X110993200Y-111400000D03*
X112050000Y-116250000D03*
%TO.N,MUX2_C*%
X120500000Y-115200000D03*
X146593200Y-110100000D03*
%TO.N,MUX2_A*%
X120493200Y-113000000D03*
X146593200Y-111500000D03*
%TO.N,EFFECT_B_BYPASS*%
X111250000Y-115550000D03*
X122993200Y-115400000D03*
%TO.N,/AUDIO/EFFECT_C_BYPASS*%
X123000000Y-111200000D03*
X125900000Y-112700000D03*
%TO.N,MUX1_C*%
X114103400Y-111396600D03*
X146593200Y-107900000D03*
%TO.N,MUX1_A*%
X146593200Y-109400000D03*
X115300000Y-113200000D03*
%TO.N,MUX1_B*%
X146593200Y-108700000D03*
X114993200Y-112300000D03*
%TO.N,STATUS_G*%
X164800000Y-91100000D03*
X151150000Y-100350000D03*
%TO.N,LED_A*%
X167300000Y-96400000D03*
X141343200Y-113775000D03*
%TO.N,LED_B*%
X166300000Y-95000000D03*
X157443200Y-113875000D03*
%TO.N,LED_C*%
X173443200Y-113875000D03*
X165593200Y-96300000D03*
%TO.N,USB_D-*%
X142500000Y-92000000D03*
X144000000Y-89700000D03*
%TO.N,USB_D+*%
X144500000Y-92000000D03*
X143000000Y-89700000D03*
%TO.N,STATUS_Y*%
X165600000Y-91100000D03*
X151200000Y-101200000D03*
%TO.N,STATUS_R*%
X166400000Y-91100000D03*
X151200000Y-102100000D03*
%TD*%
D30*
%TO.N,GND*%
X199000000Y-101300000D02*
X200000000Y-102300000D01*
X199000000Y-100300000D02*
X199000000Y-101300000D01*
X199000000Y-100300000D02*
X199000000Y-100100000D01*
X107500000Y-87800000D02*
X115493200Y-87800000D01*
X127500000Y-87800000D02*
X135493200Y-87800000D01*
D31*
%TO.N,+12V*%
X188043200Y-118000000D02*
X186593200Y-116550000D01*
X186593200Y-90700000D02*
X188743200Y-88550000D01*
X188743200Y-88550000D02*
X191000000Y-88550000D01*
X186593200Y-116550000D02*
X186593200Y-90700000D01*
%TO.N,+3V3*%
X195050000Y-87600000D02*
X196000000Y-88550000D01*
X183893200Y-111400000D02*
X183893200Y-92000000D01*
X196000000Y-88550000D02*
X198500000Y-88550000D01*
X183893200Y-92000000D02*
X188293200Y-87600000D01*
X188293200Y-87600000D02*
X195050000Y-87600000D01*
%TO.N,/POWER/+15V_RAW*%
X187993200Y-111100000D02*
X189418200Y-112525000D01*
X187993200Y-106925000D02*
X187993200Y-111100000D01*
X189418200Y-112525000D02*
X201065000Y-112525000D01*
X201065000Y-112525000D02*
X201830000Y-113290000D01*
%TO.N,USB_VBUS*%
X145900000Y-91260000D02*
X145900000Y-91800000D01*
X155670000Y-85370000D02*
X154700000Y-84400000D01*
X155670000Y-85820000D02*
X155670000Y-85370000D01*
X145630000Y-90990000D02*
X145900000Y-91260000D01*
X145630000Y-85763200D02*
X145630000Y-90990000D01*
X146993200Y-84400000D02*
X145630000Y-85763200D01*
X154700000Y-84400000D02*
X146993200Y-84400000D01*
%TO.N,/AUDIO/EFFECT_A_BYPASS*%
X110300000Y-115400000D02*
X111100000Y-114600000D01*
X112500000Y-110706800D02*
X112393200Y-110600000D01*
X112500000Y-114100000D02*
X112500000Y-110706800D01*
X111100000Y-114600000D02*
X112000000Y-114600000D01*
X112000000Y-114600000D02*
X112500000Y-114100000D01*
%TO.N,EFFECT_A_IN*%
X111893200Y-109300000D02*
X105800000Y-109300000D01*
X105800000Y-109300000D02*
X104762500Y-110337500D01*
X104762500Y-110337500D02*
X104762500Y-111700000D01*
X113200000Y-110606800D02*
X111893200Y-109300000D01*
X113200000Y-111100000D02*
X113200000Y-110606800D01*
%TO.N,/MICROCONTROLLER/USB_CC2*%
X139293200Y-92900000D02*
X139293200Y-93625000D01*
X141093200Y-88700000D02*
X139943200Y-88700000D01*
X139943200Y-88700000D02*
X139393200Y-89250000D01*
X141500000Y-89106800D02*
X141093200Y-88700000D01*
X139693200Y-90794939D02*
X139693200Y-92500000D01*
X139693200Y-92500000D02*
X139293200Y-92900000D01*
X139393200Y-90494939D02*
X139693200Y-90794939D01*
X139393200Y-89250000D02*
X139393200Y-90494939D01*
X141500000Y-89900000D02*
X141500000Y-89106800D01*
%TO.N,Net-(R402-Pad1)*%
X150593200Y-112100000D02*
X149900000Y-111406800D01*
X158793200Y-109500000D02*
X158443200Y-109850000D01*
X157693200Y-112100000D02*
X150593200Y-112100000D01*
X152993200Y-87300000D02*
X156950000Y-87300000D01*
X158443200Y-111350000D02*
X157693200Y-112100000D01*
X149900000Y-111406800D02*
X149900000Y-90393200D01*
X149900000Y-90393200D02*
X152993200Y-87300000D01*
X156950000Y-87300000D02*
X158050000Y-86200000D01*
X160200000Y-109500000D02*
X158793200Y-109500000D01*
X158443200Y-109850000D02*
X158443200Y-111350000D01*
%TO.N,/MICROCONTROLLER/USB_CC1*%
X139593200Y-88000000D02*
X143800000Y-88000000D01*
X140293200Y-94106800D02*
X139900000Y-94500000D01*
X138400000Y-94100000D02*
X138400000Y-92793200D01*
X139900000Y-94500000D02*
X138800000Y-94500000D01*
X138400000Y-92793200D02*
X138840000Y-92353200D01*
X140293200Y-93625000D02*
X140293200Y-94106800D01*
X138593200Y-90800000D02*
X138593200Y-89000000D01*
X138840000Y-91046800D02*
X138593200Y-90800000D01*
X138840000Y-92353200D02*
X138840000Y-91046800D01*
X138593200Y-89000000D02*
X139593200Y-88000000D01*
X143800000Y-88000000D02*
X145000000Y-89200000D01*
X138800000Y-94500000D02*
X138400000Y-94100000D01*
X145000000Y-89200000D02*
X145000000Y-89900000D01*
%TO.N,MUX2_B*%
X120496600Y-114103400D02*
X119993200Y-113600000D01*
X145693200Y-109900000D02*
X146593200Y-110800000D01*
X119993200Y-110600000D02*
X120693200Y-109900000D01*
X120693200Y-109900000D02*
X145693200Y-109900000D01*
X119993200Y-113600000D02*
X119993200Y-110600000D01*
%TO.N,/AUDIO/EFFECT_A_TO_B*%
X112050000Y-116250000D02*
X111900000Y-116400000D01*
X110993200Y-113650000D02*
X110993200Y-111400000D01*
X109718200Y-114925000D02*
X110993200Y-113650000D01*
X110293200Y-116400000D02*
X109718200Y-115825000D01*
X109718200Y-115825000D02*
X109718200Y-114925000D01*
X111900000Y-116400000D02*
X110293200Y-116400000D01*
%TO.N,MUX2_C*%
X145893200Y-109400000D02*
X146593200Y-110100000D01*
X119493200Y-114800000D02*
X119493200Y-110500000D01*
X120500000Y-115200000D02*
X119893200Y-115200000D01*
X120593200Y-109400000D02*
X145893200Y-109400000D01*
X119893200Y-115200000D02*
X119493200Y-114800000D01*
X119493200Y-110500000D02*
X120593200Y-109400000D01*
%TO.N,MUX2_A*%
X145493200Y-110400000D02*
X146593200Y-111500000D01*
X120493200Y-113000000D02*
X120493200Y-110700000D01*
X120793200Y-110400000D02*
X145493200Y-110400000D01*
X120493200Y-110700000D02*
X120793200Y-110400000D01*
%TO.N,EFFECT_B_BYPASS*%
X119683078Y-115400000D02*
X119983078Y-115700000D01*
X111400000Y-115400000D02*
X119683078Y-115400000D01*
X119983078Y-115700000D02*
X122693200Y-115700000D01*
X122693200Y-115700000D02*
X122993200Y-115400000D01*
X111250000Y-115550000D02*
X111400000Y-115400000D01*
%TO.N,/AUDIO/EFFECT_C_BYPASS*%
X123000000Y-111200000D02*
X124500000Y-112700000D01*
X124500000Y-112700000D02*
X125900000Y-112700000D01*
%TO.N,MUX1_C*%
X120293200Y-107900000D02*
X146593200Y-107900000D01*
X116796600Y-111396600D02*
X120293200Y-107900000D01*
X114103400Y-111396600D02*
X116796600Y-111396600D01*
%TO.N,MUX1_A*%
X115300000Y-113200000D02*
X116193200Y-113200000D01*
X116193200Y-113200000D02*
X120493200Y-108900000D01*
X146093200Y-108900000D02*
X146593200Y-109400000D01*
X120493200Y-108900000D02*
X146093200Y-108900000D01*
%TO.N,MUX1_B*%
X146293200Y-108400000D02*
X120393200Y-108400000D01*
X120393200Y-108400000D02*
X116493200Y-112300000D01*
X116493200Y-112300000D02*
X114993200Y-112300000D01*
X146593200Y-108700000D02*
X146293200Y-108400000D01*
%TO.N,STATUS_G*%
X158600000Y-92900000D02*
X151150000Y-100350000D01*
X164796600Y-91100000D02*
X162996600Y-92900000D01*
X162996600Y-92900000D02*
X158600000Y-92900000D01*
X164800000Y-91100000D02*
X164796600Y-91100000D01*
%TO.N,LED_A*%
X166993200Y-109300000D02*
X166993200Y-97306800D01*
X141343200Y-115350000D02*
X144293200Y-118300000D01*
X160193200Y-118300000D02*
X161393200Y-117100000D01*
X166993200Y-97306800D02*
X167300000Y-97000000D01*
X161393200Y-114900000D02*
X166993200Y-109300000D01*
X141343200Y-113775000D02*
X141343200Y-115350000D01*
X144293200Y-118300000D02*
X160193200Y-118300000D01*
X167300000Y-97000000D02*
X167300000Y-96400000D01*
X161393200Y-117100000D02*
X161393200Y-114900000D01*
%TO.N,LED_B*%
X166293200Y-106400000D02*
X158818200Y-113875000D01*
X166293200Y-96700000D02*
X166293200Y-106400000D01*
X166693200Y-96300000D02*
X166293200Y-96700000D01*
X166300000Y-95000000D02*
X166693200Y-95393200D01*
X166693200Y-95393200D02*
X166693200Y-96300000D01*
X158818200Y-113875000D02*
X157443200Y-113875000D01*
%TO.N,LED_C*%
X167643200Y-93450000D02*
X168134100Y-93940900D01*
X167693200Y-108125000D02*
X173443200Y-113875000D01*
X164993200Y-95693200D02*
X164993200Y-93970403D01*
X168134100Y-97200000D02*
X167693200Y-97640900D01*
X165593200Y-96300000D02*
X165593200Y-96293200D01*
X168134100Y-93940900D02*
X168134100Y-97200000D01*
X165513603Y-93450000D02*
X167643200Y-93450000D01*
X167693200Y-97640900D02*
X167693200Y-108125000D01*
X165593200Y-96293200D02*
X164993200Y-95693200D01*
X164993200Y-93970403D02*
X165513603Y-93450000D01*
%TO.N,USB_D-*%
X142493200Y-89500000D02*
X142793200Y-89200000D01*
X144000000Y-89400000D02*
X144000000Y-89700000D01*
X142500000Y-92000000D02*
X142493200Y-91993200D01*
X143800000Y-89200000D02*
X144000000Y-89400000D01*
X142493200Y-91993200D02*
X142493200Y-89500000D01*
X142793200Y-89200000D02*
X143800000Y-89200000D01*
%TO.N,USB_D+*%
X143000000Y-90106800D02*
X144500000Y-91606800D01*
X144500000Y-91606800D02*
X144500000Y-92000000D01*
X143000000Y-89700000D02*
X143000000Y-90106800D01*
%TO.N,STATUS_Y*%
X165600000Y-91493200D02*
X163393200Y-93700000D01*
X152393200Y-100900000D02*
X152093200Y-101200000D01*
X165600000Y-91100000D02*
X165600000Y-91493200D01*
X159193200Y-93700000D02*
X152393200Y-100500000D01*
X163393200Y-93700000D02*
X159193200Y-93700000D01*
X152393200Y-100500000D02*
X152393200Y-100900000D01*
X152093200Y-101200000D02*
X151200000Y-101200000D01*
%TO.N,STATUS_R*%
X151200000Y-102200000D02*
X151200000Y-102100000D01*
X166400000Y-91100000D02*
X166400000Y-91646600D01*
X158293200Y-103600000D02*
X152600000Y-103600000D01*
X166400000Y-91646600D02*
X164300000Y-93746600D01*
X152600000Y-103600000D02*
X151200000Y-102200000D01*
X164300000Y-95593200D02*
X160793200Y-99100000D01*
X160793200Y-101100000D02*
X158293200Y-103600000D01*
X164300000Y-93746600D02*
X164300000Y-95593200D01*
X160793200Y-99100000D02*
X160793200Y-101100000D01*
%TD*%
%TA.AperFunction,Conductor*%
%TO.N,+3V3*%
G36*
X184255180Y-102402382D02*
G01*
X184314680Y-102414217D01*
X184359375Y-102432729D01*
X184399472Y-102459521D01*
X184433677Y-102493726D01*
X184460467Y-102533820D01*
X184478981Y-102578518D01*
X184490816Y-102638018D01*
X184493199Y-102662209D01*
X184493199Y-108937789D01*
X184490816Y-108961982D01*
X184478980Y-109021482D01*
X184460466Y-109066179D01*
X184433680Y-109106268D01*
X184399468Y-109140479D01*
X184365174Y-109163394D01*
X184359378Y-109167267D01*
X184314681Y-109185781D01*
X184281056Y-109192469D01*
X184255177Y-109197617D01*
X184230988Y-109200000D01*
X178655411Y-109200000D01*
X178631220Y-109197617D01*
X178616389Y-109194667D01*
X178571718Y-109185781D01*
X178527022Y-109167267D01*
X178486927Y-109140477D01*
X178452722Y-109106272D01*
X178425930Y-109066175D01*
X178407418Y-109021480D01*
X178395583Y-108961980D01*
X178393200Y-108937789D01*
X178393200Y-102662210D01*
X178395583Y-102638019D01*
X178407418Y-102578519D01*
X178407419Y-102578518D01*
X178407418Y-102578517D01*
X178425929Y-102533826D01*
X178452724Y-102493724D01*
X178486924Y-102459524D01*
X178527026Y-102432729D01*
X178571713Y-102414219D01*
X178631232Y-102402380D01*
X178655399Y-102399999D01*
X184230989Y-102399999D01*
X184255180Y-102402382D01*
G37*
%TD.AperFunction*%
%TD*%
%TA.AperFunction,Conductor*%
%TO.N,+12V*%
G36*
X197255180Y-112902383D02*
G01*
X197314680Y-112914218D01*
X197359375Y-112932730D01*
X197399472Y-112959522D01*
X197433677Y-112993727D01*
X197460467Y-113033822D01*
X197478981Y-113078517D01*
X197482742Y-113097427D01*
X197490817Y-113138019D01*
X197493200Y-113162210D01*
X197493200Y-118737789D01*
X197490817Y-118761982D01*
X197478981Y-118821482D01*
X197460467Y-118866179D01*
X197433681Y-118906268D01*
X197399469Y-118940479D01*
X197365175Y-118963394D01*
X197359379Y-118967267D01*
X197314682Y-118985781D01*
X197281057Y-118992469D01*
X197255178Y-118997617D01*
X197230989Y-119000000D01*
X190955411Y-119000000D01*
X190931220Y-118997617D01*
X190916389Y-118994667D01*
X190871718Y-118985781D01*
X190827022Y-118967267D01*
X190786927Y-118940477D01*
X190752722Y-118906272D01*
X190725930Y-118866175D01*
X190707418Y-118821480D01*
X190695583Y-118761980D01*
X190693200Y-118737789D01*
X190693200Y-113162210D01*
X190695583Y-113138019D01*
X190707418Y-113078517D01*
X190725929Y-113033826D01*
X190752724Y-112993724D01*
X190786924Y-112959524D01*
X190827026Y-112932729D01*
X190871714Y-112914219D01*
X190931228Y-112902381D01*
X190955411Y-112900000D01*
X197230989Y-112900000D01*
X197255180Y-112902383D01*
G37*
%TD.AperFunction*%
%TD*%
%TA.AperFunction,Conductor*%
%TO.N,GND*%
G36*
X114501479Y-86808321D02*
G01*
X114502153Y-86808944D01*
X115485914Y-87791723D01*
X115489345Y-87799994D01*
X115485922Y-87808269D01*
X115485914Y-87808277D01*
X114502153Y-88791054D01*
X114493878Y-88794477D01*
X114485607Y-88791046D01*
X114484984Y-88790372D01*
X114393201Y-88682813D01*
X114293194Y-88574993D01*
X114193195Y-88476557D01*
X114093202Y-88387502D01*
X114093190Y-88387492D01*
X113993199Y-88307811D01*
X113993191Y-88307806D01*
X113893207Y-88237505D01*
X113893198Y-88237499D01*
X113793209Y-88176567D01*
X113793191Y-88176557D01*
X113693204Y-88125002D01*
X113693184Y-88124993D01*
X113593194Y-88082810D01*
X113501252Y-88052642D01*
X113494460Y-88046806D01*
X113493200Y-88041525D01*
X113493200Y-87558474D01*
X113496627Y-87550201D01*
X113501248Y-87547358D01*
X113593199Y-87517187D01*
X113693199Y-87475000D01*
X113793199Y-87423437D01*
X113893199Y-87362500D01*
X113993200Y-87292187D01*
X114093200Y-87212500D01*
X114193200Y-87123437D01*
X114293200Y-87025000D01*
X114393200Y-86917187D01*
X114484987Y-86809624D01*
X114492961Y-86805557D01*
X114501479Y-86808321D01*
G37*
%TD.AperFunction*%
%TD*%
%TA.AperFunction,Conductor*%
%TO.N,GND*%
G36*
X134501479Y-86808321D02*
G01*
X134502153Y-86808944D01*
X135485914Y-87791723D01*
X135489345Y-87799994D01*
X135485922Y-87808269D01*
X135485914Y-87808277D01*
X134502153Y-88791054D01*
X134493878Y-88794477D01*
X134485607Y-88791046D01*
X134484984Y-88790372D01*
X134393201Y-88682813D01*
X134293194Y-88574993D01*
X134193195Y-88476557D01*
X134093202Y-88387502D01*
X134093190Y-88387492D01*
X133993199Y-88307811D01*
X133993191Y-88307806D01*
X133893207Y-88237505D01*
X133893198Y-88237499D01*
X133793209Y-88176567D01*
X133793191Y-88176557D01*
X133693204Y-88125002D01*
X133693184Y-88124993D01*
X133593194Y-88082810D01*
X133501252Y-88052642D01*
X133494460Y-88046806D01*
X133493200Y-88041525D01*
X133493200Y-87558474D01*
X133496627Y-87550201D01*
X133501248Y-87547358D01*
X133593199Y-87517187D01*
X133693199Y-87475000D01*
X133793199Y-87423437D01*
X133893199Y-87362500D01*
X133993200Y-87292187D01*
X134093200Y-87212500D01*
X134193200Y-87123437D01*
X134293200Y-87025000D01*
X134393200Y-86917187D01*
X134484987Y-86809624D01*
X134492961Y-86805557D01*
X134501479Y-86808321D01*
G37*
%TD.AperFunction*%
%TD*%
%TA.AperFunction,Conductor*%
%TO.N,+12V*%
G36*
X187768624Y-117583592D02*
G01*
X187802157Y-117615457D01*
X187802174Y-117615471D01*
X187838573Y-117645730D01*
X187838576Y-117645732D01*
X187871275Y-117668383D01*
X187901964Y-117685268D01*
X187932338Y-117698235D01*
X187932341Y-117698236D01*
X187932348Y-117698239D01*
X187953509Y-117705501D01*
X187964095Y-117709135D01*
X187998887Y-117719801D01*
X187998923Y-117719831D01*
X187998929Y-117719814D01*
X188038429Y-117732089D01*
X188038670Y-117732169D01*
X188084407Y-117747839D01*
X188084818Y-117747989D01*
X188127773Y-117764710D01*
X188134239Y-117770903D01*
X188134431Y-117779856D01*
X188134354Y-117780050D01*
X188045764Y-117996176D01*
X188039455Y-118002531D01*
X188039376Y-118002564D01*
X187875231Y-118069846D01*
X187823331Y-118091121D01*
X187823250Y-118091154D01*
X187814295Y-118091121D01*
X187807986Y-118084766D01*
X187807944Y-118084660D01*
X187791189Y-118041618D01*
X187791032Y-118041186D01*
X187777163Y-118000707D01*
X187775369Y-117995470D01*
X187775289Y-117995229D01*
X187763014Y-117955729D01*
X187752335Y-117920895D01*
X187748701Y-117910309D01*
X187741439Y-117889148D01*
X187741430Y-117889127D01*
X187728468Y-117858764D01*
X187711583Y-117828075D01*
X187688932Y-117795376D01*
X187676191Y-117780050D01*
X187658671Y-117758974D01*
X187658657Y-117758957D01*
X187626792Y-117725424D01*
X187623577Y-117717067D01*
X187626999Y-117709093D01*
X187752293Y-117583799D01*
X187760565Y-117580373D01*
X187768624Y-117583592D01*
G37*
%TD.AperFunction*%
%TD*%
%TA.AperFunction,Conductor*%
%TO.N,+12V*%
G36*
X190908845Y-88329826D02*
G01*
X190908927Y-88330017D01*
X190999109Y-88545483D01*
X190999142Y-88554437D01*
X190999109Y-88554517D01*
X190908927Y-88769982D01*
X190902571Y-88776291D01*
X190893617Y-88776258D01*
X190893425Y-88776176D01*
X190851246Y-88757633D01*
X190850810Y-88757430D01*
X190807446Y-88736198D01*
X190807146Y-88736046D01*
X190770575Y-88716817D01*
X190770535Y-88716796D01*
X190738384Y-88699732D01*
X190708226Y-88684986D01*
X190708212Y-88684980D01*
X190677592Y-88672683D01*
X190677582Y-88672680D01*
X190643946Y-88662919D01*
X190604814Y-88655814D01*
X190604804Y-88655813D01*
X190557648Y-88651470D01*
X190511401Y-88650290D01*
X190503218Y-88646653D01*
X190500000Y-88638594D01*
X190500000Y-88461404D01*
X190503427Y-88453131D01*
X190511399Y-88449708D01*
X190557659Y-88448528D01*
X190604804Y-88444186D01*
X190643943Y-88437080D01*
X190677582Y-88427319D01*
X190708230Y-88415010D01*
X190738392Y-88400262D01*
X190770575Y-88383182D01*
X190770577Y-88383186D01*
X190770605Y-88383165D01*
X190807180Y-88363934D01*
X190807408Y-88363819D01*
X190850855Y-88342546D01*
X190851219Y-88342377D01*
X190893426Y-88323822D01*
X190902378Y-88323631D01*
X190908845Y-88329826D01*
G37*
%TD.AperFunction*%
%TD*%
%TA.AperFunction,Conductor*%
%TO.N,+3V3*%
G36*
X183884298Y-105693268D02*
G01*
X183940347Y-105716253D01*
X183978873Y-105755409D01*
X183993200Y-105811922D01*
X183793200Y-105811922D01*
X183788697Y-105790883D01*
X183787985Y-105787552D01*
X183773632Y-105783791D01*
X183752078Y-105795557D01*
X183726066Y-105817097D01*
X183725259Y-105817766D01*
X183695112Y-105845335D01*
X183663572Y-105873181D01*
X183632578Y-105896220D01*
X183604065Y-105909370D01*
X183579970Y-105907548D01*
X183562230Y-105885670D01*
X183553967Y-105828622D01*
X183574924Y-105779454D01*
X183618424Y-105739350D01*
X183677789Y-105709495D01*
X183746341Y-105691073D01*
X183817403Y-105685269D01*
X183884298Y-105693268D01*
G37*
%TD.AperFunction*%
%TD*%
%TA.AperFunction,Conductor*%
%TO.N,+3V3*%
G36*
X183884298Y-103093268D02*
G01*
X183940347Y-103116253D01*
X183978873Y-103155409D01*
X183993200Y-103211922D01*
X183793200Y-103211922D01*
X183788697Y-103190883D01*
X183787985Y-103187552D01*
X183773632Y-103183791D01*
X183752078Y-103195557D01*
X183726066Y-103217097D01*
X183725259Y-103217766D01*
X183695112Y-103245335D01*
X183663572Y-103273181D01*
X183632578Y-103296220D01*
X183604065Y-103309370D01*
X183579970Y-103307548D01*
X183562230Y-103285670D01*
X183553967Y-103228622D01*
X183574924Y-103179454D01*
X183618424Y-103139350D01*
X183677789Y-103109495D01*
X183746341Y-103091073D01*
X183817403Y-103085269D01*
X183884298Y-103093268D01*
G37*
%TD.AperFunction*%
%TD*%
%TA.AperFunction,Conductor*%
%TO.N,+3V3*%
G36*
X183884298Y-108293268D02*
G01*
X183940347Y-108316253D01*
X183978873Y-108355409D01*
X183993200Y-108411922D01*
X183793200Y-108411922D01*
X183788697Y-108390883D01*
X183787985Y-108387552D01*
X183773632Y-108383791D01*
X183752078Y-108395557D01*
X183726066Y-108417097D01*
X183725259Y-108417766D01*
X183695112Y-108445335D01*
X183663572Y-108473181D01*
X183632578Y-108496220D01*
X183604065Y-108509370D01*
X183579970Y-108507548D01*
X183562230Y-108485670D01*
X183553967Y-108428622D01*
X183574924Y-108379454D01*
X183618424Y-108339350D01*
X183677789Y-108309495D01*
X183746341Y-108291073D01*
X183817403Y-108285269D01*
X183884298Y-108293268D01*
G37*
%TD.AperFunction*%
%TD*%
%TA.AperFunction,Conductor*%
%TO.N,+3V3*%
G36*
X183990068Y-110903427D02*
G01*
X183993491Y-110911402D01*
X183994670Y-110957648D01*
X183999013Y-111004804D01*
X183999014Y-111004814D01*
X184006119Y-111043946D01*
X184015880Y-111077582D01*
X184015883Y-111077592D01*
X184028180Y-111108212D01*
X184028186Y-111108226D01*
X184042932Y-111138384D01*
X184060017Y-111170575D01*
X184060038Y-111170615D01*
X184079246Y-111207146D01*
X184079398Y-111207446D01*
X184100630Y-111250810D01*
X184100833Y-111251246D01*
X184119376Y-111293425D01*
X184119568Y-111302378D01*
X184113374Y-111308845D01*
X184113182Y-111308927D01*
X183897717Y-111399109D01*
X183888763Y-111399142D01*
X183888683Y-111399109D01*
X183673217Y-111308927D01*
X183666908Y-111302571D01*
X183666941Y-111293617D01*
X183667023Y-111293426D01*
X183685577Y-111251219D01*
X183685746Y-111250855D01*
X183707019Y-111207408D01*
X183707134Y-111207180D01*
X183726382Y-111170575D01*
X183743462Y-111138392D01*
X183758210Y-111108230D01*
X183770519Y-111077582D01*
X183780280Y-111043943D01*
X183787386Y-111004804D01*
X183791728Y-110957659D01*
X183792909Y-110911401D01*
X183796546Y-110903218D01*
X183804605Y-110900000D01*
X183981795Y-110900000D01*
X183990068Y-110903427D01*
G37*
%TD.AperFunction*%
%TD*%
%TA.AperFunction,Conductor*%
%TO.N,+3V3*%
G36*
X198408845Y-88329826D02*
G01*
X198408927Y-88330017D01*
X198499109Y-88545483D01*
X198499142Y-88554437D01*
X198499109Y-88554517D01*
X198408927Y-88769982D01*
X198402571Y-88776291D01*
X198393617Y-88776258D01*
X198393425Y-88776176D01*
X198351246Y-88757633D01*
X198350810Y-88757430D01*
X198307446Y-88736198D01*
X198307146Y-88736046D01*
X198270575Y-88716817D01*
X198270535Y-88716796D01*
X198238384Y-88699732D01*
X198208226Y-88684986D01*
X198208212Y-88684980D01*
X198177592Y-88672683D01*
X198177582Y-88672680D01*
X198143946Y-88662919D01*
X198104814Y-88655814D01*
X198104804Y-88655813D01*
X198057648Y-88651470D01*
X198011401Y-88650290D01*
X198003218Y-88646653D01*
X198000000Y-88638594D01*
X198000000Y-88461404D01*
X198003427Y-88453131D01*
X198011399Y-88449708D01*
X198057659Y-88448528D01*
X198104804Y-88444186D01*
X198143943Y-88437080D01*
X198177582Y-88427319D01*
X198208230Y-88415010D01*
X198238392Y-88400262D01*
X198270575Y-88383182D01*
X198270577Y-88383186D01*
X198270605Y-88383165D01*
X198307180Y-88363934D01*
X198307408Y-88363819D01*
X198350855Y-88342546D01*
X198351219Y-88342377D01*
X198393426Y-88323822D01*
X198402378Y-88323631D01*
X198408845Y-88329826D01*
G37*
%TD.AperFunction*%
%TD*%
%TA.AperFunction,Conductor*%
%TO.N,/POWER/+15V_RAW*%
G36*
X188213182Y-107016072D02*
G01*
X188219491Y-107022428D01*
X188219458Y-107031382D01*
X188219376Y-107031574D01*
X188200833Y-107073752D01*
X188200630Y-107074188D01*
X188179398Y-107117551D01*
X188179246Y-107117851D01*
X188160038Y-107154383D01*
X188160017Y-107154423D01*
X188142932Y-107186614D01*
X188128186Y-107216772D01*
X188128180Y-107216786D01*
X188115883Y-107247405D01*
X188115880Y-107247415D01*
X188106119Y-107281051D01*
X188099014Y-107320184D01*
X188099013Y-107320194D01*
X188094670Y-107367350D01*
X188093491Y-107413598D01*
X188089854Y-107421781D01*
X188081795Y-107425000D01*
X187904605Y-107425000D01*
X187896332Y-107421573D01*
X187892909Y-107413599D01*
X187891728Y-107367350D01*
X187891728Y-107367340D01*
X187887386Y-107320195D01*
X187880280Y-107281055D01*
X187870519Y-107247416D01*
X187858210Y-107216769D01*
X187843462Y-107186607D01*
X187826382Y-107154423D01*
X187807148Y-107117843D01*
X187807000Y-107117551D01*
X187785755Y-107074160D01*
X187785577Y-107073778D01*
X187767022Y-107031573D01*
X187766831Y-107022621D01*
X187773025Y-107016154D01*
X187773162Y-107016095D01*
X187988684Y-106925889D01*
X187997637Y-106925857D01*
X188213182Y-107016072D01*
G37*
%TD.AperFunction*%
%TD*%
%TA.AperFunction,Conductor*%
%TO.N,/POWER/+15V_RAW*%
G36*
X201555424Y-112873592D02*
G01*
X201588957Y-112905457D01*
X201588974Y-112905471D01*
X201625373Y-112935730D01*
X201625376Y-112935732D01*
X201658075Y-112958383D01*
X201688764Y-112975268D01*
X201719138Y-112988235D01*
X201719141Y-112988236D01*
X201719148Y-112988239D01*
X201740309Y-112995501D01*
X201750895Y-112999135D01*
X201785687Y-113009801D01*
X201785723Y-113009831D01*
X201785729Y-113009814D01*
X201825229Y-113022089D01*
X201825470Y-113022169D01*
X201871207Y-113037839D01*
X201871618Y-113037989D01*
X201914573Y-113054710D01*
X201921039Y-113060903D01*
X201921231Y-113069856D01*
X201921154Y-113070050D01*
X201832564Y-113286176D01*
X201826255Y-113292531D01*
X201826176Y-113292564D01*
X201662031Y-113359846D01*
X201610131Y-113381121D01*
X201610050Y-113381154D01*
X201601095Y-113381121D01*
X201594786Y-113374766D01*
X201594744Y-113374660D01*
X201577989Y-113331618D01*
X201577832Y-113331186D01*
X201563963Y-113290707D01*
X201562169Y-113285470D01*
X201562089Y-113285229D01*
X201549814Y-113245729D01*
X201539135Y-113210895D01*
X201535501Y-113200309D01*
X201528239Y-113179148D01*
X201528230Y-113179127D01*
X201515268Y-113148764D01*
X201498383Y-113118075D01*
X201475732Y-113085376D01*
X201462991Y-113070050D01*
X201445471Y-113048974D01*
X201445457Y-113048957D01*
X201413592Y-113015424D01*
X201410377Y-113007067D01*
X201413799Y-112999093D01*
X201539093Y-112873799D01*
X201547365Y-112870373D01*
X201555424Y-112873592D01*
G37*
%TD.AperFunction*%
%TD*%
%TA.AperFunction,Conductor*%
%TO.N,USB_VBUS*%
G36*
X145996868Y-91303427D02*
G01*
X146000291Y-91311402D01*
X146001470Y-91357648D01*
X146005813Y-91404804D01*
X146005814Y-91404814D01*
X146012919Y-91443946D01*
X146022680Y-91477582D01*
X146022683Y-91477592D01*
X146034980Y-91508212D01*
X146034986Y-91508226D01*
X146049732Y-91538384D01*
X146066817Y-91570575D01*
X146066838Y-91570615D01*
X146086046Y-91607146D01*
X146086198Y-91607446D01*
X146107430Y-91650810D01*
X146107633Y-91651246D01*
X146126176Y-91693425D01*
X146126368Y-91702378D01*
X146120174Y-91708845D01*
X146119982Y-91708927D01*
X145904517Y-91799109D01*
X145895563Y-91799142D01*
X145895483Y-91799109D01*
X145680017Y-91708927D01*
X145673708Y-91702571D01*
X145673741Y-91693617D01*
X145673823Y-91693426D01*
X145692377Y-91651219D01*
X145692546Y-91650855D01*
X145713819Y-91607408D01*
X145713934Y-91607180D01*
X145733182Y-91570575D01*
X145750262Y-91538392D01*
X145765010Y-91508230D01*
X145777319Y-91477582D01*
X145787080Y-91443943D01*
X145794186Y-91404804D01*
X145798528Y-91357659D01*
X145799709Y-91311401D01*
X145803346Y-91303218D01*
X145811405Y-91300000D01*
X145988595Y-91300000D01*
X145996868Y-91303427D01*
G37*
%TD.AperFunction*%
%TD*%
%TA.AperFunction,Conductor*%
%TO.N,USB_VBUS*%
G36*
X155713296Y-85272538D02*
G01*
X155713592Y-85272846D01*
X155750827Y-85313132D01*
X155751573Y-85314024D01*
X155783981Y-85356958D01*
X155784786Y-85358175D01*
X155807116Y-85397012D01*
X155807809Y-85398431D01*
X155822792Y-85435220D01*
X155823229Y-85436501D01*
X155832491Y-85469844D01*
X155833481Y-85473405D01*
X155833670Y-85474189D01*
X155841676Y-85513268D01*
X155841705Y-85513417D01*
X155849928Y-85556390D01*
X155860851Y-85604703D01*
X155877001Y-85660036D01*
X155877005Y-85660051D01*
X155897041Y-85713791D01*
X155896720Y-85722740D01*
X155890595Y-85728671D01*
X155675210Y-85818821D01*
X155666256Y-85818854D01*
X155666199Y-85818831D01*
X155528230Y-85761436D01*
X155450742Y-85729201D01*
X155444421Y-85722860D01*
X155444434Y-85713905D01*
X155444824Y-85713065D01*
X155461348Y-85680945D01*
X155462198Y-85679545D01*
X155488500Y-85642462D01*
X155489178Y-85641597D01*
X155517633Y-85608732D01*
X155517954Y-85608376D01*
X155546191Y-85578570D01*
X155571478Y-85550918D01*
X155591165Y-85524380D01*
X155602753Y-85497756D01*
X155603743Y-85469844D01*
X155591636Y-85439443D01*
X155570589Y-85413544D01*
X155568031Y-85404962D01*
X155571395Y-85397893D01*
X155696751Y-85272537D01*
X155705023Y-85269111D01*
X155713296Y-85272538D01*
G37*
%TD.AperFunction*%
%TD*%
%TA.AperFunction,Conductor*%
%TO.N,/AUDIO/EFFECT_A_BYPASS*%
G36*
X110590907Y-114983800D02*
G01*
X110716199Y-115109092D01*
X110719626Y-115117365D01*
X110716407Y-115125424D01*
X110684541Y-115158957D01*
X110684527Y-115158974D01*
X110654267Y-115195373D01*
X110654264Y-115195377D01*
X110631613Y-115228077D01*
X110614729Y-115258766D01*
X110601767Y-115289127D01*
X110601759Y-115289148D01*
X110590868Y-115320882D01*
X110580197Y-115355687D01*
X110580184Y-115355729D01*
X110567919Y-115395193D01*
X110567814Y-115395513D01*
X110552166Y-115441186D01*
X110552001Y-115441638D01*
X110535290Y-115484571D01*
X110529096Y-115491038D01*
X110520143Y-115491230D01*
X110519950Y-115491153D01*
X110303824Y-115402564D01*
X110297468Y-115396255D01*
X110208845Y-115180047D01*
X110208878Y-115171095D01*
X110215233Y-115164786D01*
X110215298Y-115164760D01*
X110258395Y-115147984D01*
X110258775Y-115147845D01*
X110304550Y-115132161D01*
X110304749Y-115132095D01*
X110344269Y-115119814D01*
X110344271Y-115119823D01*
X110344306Y-115119802D01*
X110379104Y-115109135D01*
X110402485Y-115101109D01*
X110410849Y-115098239D01*
X110410851Y-115098237D01*
X110410860Y-115098235D01*
X110441234Y-115085268D01*
X110471923Y-115068383D01*
X110504623Y-115045732D01*
X110541031Y-115015466D01*
X110541037Y-115015460D01*
X110541041Y-115015457D01*
X110574575Y-114983592D01*
X110582932Y-114980377D01*
X110590907Y-114983800D01*
G37*
%TD.AperFunction*%
%TD*%
%TA.AperFunction,Conductor*%
%TO.N,/AUDIO/EFFECT_A_BYPASS*%
G36*
X112631327Y-110599952D02*
G01*
X112639585Y-110603412D01*
X112642979Y-110611699D01*
X112642977Y-110611871D01*
X112641994Y-110664354D01*
X112641974Y-110664857D01*
X112638722Y-110717461D01*
X112638675Y-110718004D01*
X112633896Y-110761931D01*
X112633833Y-110762421D01*
X112628011Y-110800794D01*
X112627961Y-110801093D01*
X112621600Y-110836767D01*
X112621600Y-110836768D01*
X112615208Y-110872595D01*
X112609328Y-110911355D01*
X112604493Y-110955794D01*
X112601209Y-111008926D01*
X112600215Y-111062053D01*
X112596634Y-111070260D01*
X112588517Y-111073534D01*
X112410873Y-111073534D01*
X112402600Y-111070107D01*
X112399204Y-111062691D01*
X112398221Y-111049314D01*
X112395648Y-111014278D01*
X112383472Y-110968316D01*
X112364786Y-110932451D01*
X112340907Y-110903487D01*
X112313149Y-110878230D01*
X112313138Y-110878220D01*
X112282974Y-110853601D01*
X112282697Y-110853368D01*
X112251693Y-110826423D01*
X112250866Y-110825630D01*
X112220321Y-110793324D01*
X112219285Y-110792062D01*
X112190166Y-110751071D01*
X112189246Y-110749540D01*
X112167847Y-110706871D01*
X112167201Y-110697940D01*
X112173060Y-110691168D01*
X112173776Y-110690838D01*
X112391012Y-110599915D01*
X112395571Y-110599009D01*
X112631327Y-110599952D01*
G37*
%TD.AperFunction*%
%TD*%
%TA.AperFunction,Conductor*%
%TO.N,EFFECT_A_IN*%
G36*
X104859368Y-111203427D02*
G01*
X104862791Y-111211402D01*
X104863970Y-111257648D01*
X104868313Y-111304804D01*
X104868314Y-111304814D01*
X104875419Y-111343946D01*
X104885180Y-111377582D01*
X104885183Y-111377592D01*
X104897480Y-111408212D01*
X104897486Y-111408226D01*
X104912232Y-111438384D01*
X104929317Y-111470575D01*
X104929338Y-111470615D01*
X104948546Y-111507146D01*
X104948698Y-111507446D01*
X104969930Y-111550810D01*
X104970133Y-111551246D01*
X104988676Y-111593425D01*
X104988868Y-111602378D01*
X104982674Y-111608845D01*
X104982482Y-111608927D01*
X104767017Y-111699109D01*
X104758063Y-111699142D01*
X104757983Y-111699109D01*
X104542517Y-111608927D01*
X104536208Y-111602571D01*
X104536241Y-111593617D01*
X104536323Y-111593426D01*
X104554877Y-111551219D01*
X104555046Y-111550855D01*
X104576319Y-111507408D01*
X104576434Y-111507180D01*
X104595682Y-111470575D01*
X104612762Y-111438392D01*
X104627510Y-111408230D01*
X104639819Y-111377582D01*
X104649580Y-111343943D01*
X104656686Y-111304804D01*
X104661028Y-111257659D01*
X104662209Y-111211401D01*
X104665846Y-111203218D01*
X104673905Y-111200000D01*
X104851095Y-111200000D01*
X104859368Y-111203427D01*
G37*
%TD.AperFunction*%
%TD*%
%TA.AperFunction,Conductor*%
%TO.N,EFFECT_A_IN*%
G36*
X113273731Y-110539997D02*
G01*
X113274151Y-110540439D01*
X113310463Y-110580749D01*
X113311412Y-110581952D01*
X113335912Y-110617591D01*
X113337826Y-110622389D01*
X113351847Y-110710910D01*
X113379587Y-110765354D01*
X113380819Y-110769665D01*
X113382463Y-110788821D01*
X113386513Y-110833541D01*
X113393995Y-110883265D01*
X113393995Y-110883266D01*
X113407832Y-110939617D01*
X113427234Y-110993881D01*
X113426793Y-111002825D01*
X113420734Y-111008613D01*
X113205210Y-111098821D01*
X113196256Y-111098854D01*
X113196199Y-111098831D01*
X112980892Y-111009263D01*
X112974570Y-111002921D01*
X112974583Y-110993966D01*
X112975038Y-110993000D01*
X112993462Y-110958266D01*
X112994488Y-110956667D01*
X113024139Y-110917824D01*
X113024993Y-110916828D01*
X113057765Y-110882786D01*
X113058212Y-110882349D01*
X113091315Y-110851800D01*
X113121593Y-110823628D01*
X113145884Y-110796648D01*
X113161253Y-110769461D01*
X113164765Y-110740673D01*
X113153486Y-110708885D01*
X113131037Y-110680880D01*
X113128536Y-110672281D01*
X113131892Y-110665290D01*
X113257186Y-110539996D01*
X113265458Y-110536570D01*
X113273731Y-110539997D01*
G37*
%TD.AperFunction*%
%TD*%
%TA.AperFunction,Conductor*%
%TO.N,/MICROCONTROLLER/USB_CC2*%
G36*
X139390068Y-93128427D02*
G01*
X139393491Y-93136402D01*
X139394670Y-93182648D01*
X139399013Y-93229804D01*
X139399014Y-93229814D01*
X139406119Y-93268946D01*
X139415880Y-93302582D01*
X139415883Y-93302592D01*
X139428180Y-93333212D01*
X139428186Y-93333226D01*
X139442932Y-93363384D01*
X139460017Y-93395575D01*
X139460038Y-93395615D01*
X139479246Y-93432146D01*
X139479398Y-93432446D01*
X139500630Y-93475810D01*
X139500833Y-93476246D01*
X139519376Y-93518425D01*
X139519568Y-93527378D01*
X139513374Y-93533845D01*
X139513182Y-93533927D01*
X139297717Y-93624109D01*
X139288763Y-93624142D01*
X139288683Y-93624109D01*
X139073217Y-93533927D01*
X139066908Y-93527571D01*
X139066941Y-93518617D01*
X139067023Y-93518426D01*
X139085577Y-93476219D01*
X139085746Y-93475855D01*
X139107019Y-93432408D01*
X139107134Y-93432180D01*
X139126382Y-93395575D01*
X139143462Y-93363392D01*
X139158210Y-93333230D01*
X139170519Y-93302582D01*
X139180280Y-93268943D01*
X139187386Y-93229804D01*
X139191728Y-93182659D01*
X139192909Y-93136401D01*
X139196546Y-93128218D01*
X139204605Y-93125000D01*
X139381795Y-93125000D01*
X139390068Y-93128427D01*
G37*
%TD.AperFunction*%
%TD*%
%TA.AperFunction,Conductor*%
%TO.N,/MICROCONTROLLER/USB_CC2*%
G36*
X141596868Y-89403427D02*
G01*
X141600291Y-89411402D01*
X141601470Y-89457648D01*
X141605813Y-89504804D01*
X141605814Y-89504814D01*
X141612919Y-89543946D01*
X141622680Y-89577582D01*
X141622683Y-89577592D01*
X141634980Y-89608212D01*
X141634986Y-89608226D01*
X141649732Y-89638384D01*
X141666817Y-89670575D01*
X141666838Y-89670615D01*
X141686046Y-89707146D01*
X141686198Y-89707446D01*
X141707430Y-89750810D01*
X141707633Y-89751246D01*
X141726176Y-89793425D01*
X141726368Y-89802378D01*
X141720174Y-89808845D01*
X141719982Y-89808927D01*
X141504517Y-89899109D01*
X141495563Y-89899142D01*
X141495483Y-89899109D01*
X141280017Y-89808927D01*
X141273708Y-89802571D01*
X141273741Y-89793617D01*
X141273823Y-89793426D01*
X141292377Y-89751219D01*
X141292546Y-89750855D01*
X141313819Y-89707408D01*
X141313934Y-89707180D01*
X141333182Y-89670575D01*
X141350262Y-89638392D01*
X141365010Y-89608230D01*
X141377319Y-89577582D01*
X141387080Y-89543943D01*
X141394186Y-89504804D01*
X141398528Y-89457659D01*
X141399709Y-89411401D01*
X141403346Y-89403218D01*
X141411405Y-89400000D01*
X141588595Y-89400000D01*
X141596868Y-89403427D01*
G37*
%TD.AperFunction*%
%TD*%
%TA.AperFunction,Conductor*%
%TO.N,Net-(R402-Pad1)*%
G36*
X157829966Y-86108812D02*
G01*
X158046177Y-86197436D01*
X158052531Y-86203744D01*
X158052564Y-86203824D01*
X158141153Y-86419950D01*
X158141120Y-86428904D01*
X158134764Y-86435213D01*
X158134571Y-86435290D01*
X158091638Y-86452001D01*
X158091186Y-86452166D01*
X158045513Y-86467814D01*
X158045193Y-86467919D01*
X158005771Y-86480171D01*
X158005729Y-86480184D01*
X157970882Y-86490868D01*
X157939148Y-86501759D01*
X157939127Y-86501767D01*
X157908766Y-86514729D01*
X157878077Y-86531613D01*
X157845377Y-86554264D01*
X157845373Y-86554267D01*
X157808974Y-86584527D01*
X157808957Y-86584541D01*
X157775424Y-86616407D01*
X157767067Y-86619622D01*
X157759092Y-86616199D01*
X157633800Y-86490907D01*
X157630373Y-86482634D01*
X157633592Y-86474575D01*
X157639960Y-86467874D01*
X157645525Y-86462016D01*
X157665457Y-86441041D01*
X157665460Y-86441037D01*
X157665466Y-86441031D01*
X157695732Y-86404623D01*
X157718383Y-86371923D01*
X157735268Y-86341234D01*
X157748235Y-86310860D01*
X157759135Y-86279104D01*
X157769814Y-86244269D01*
X157782095Y-86204749D01*
X157782161Y-86204550D01*
X157797845Y-86158775D01*
X157797984Y-86158395D01*
X157814710Y-86115425D01*
X157820903Y-86108960D01*
X157829856Y-86108768D01*
X157829966Y-86108812D01*
G37*
%TD.AperFunction*%
%TD*%
%TA.AperFunction,Conductor*%
%TO.N,Net-(R402-Pad1)*%
G36*
X160108845Y-109279826D02*
G01*
X160108927Y-109280017D01*
X160199109Y-109495483D01*
X160199142Y-109504437D01*
X160199109Y-109504517D01*
X160108927Y-109719982D01*
X160102571Y-109726291D01*
X160093617Y-109726258D01*
X160093425Y-109726176D01*
X160051246Y-109707633D01*
X160050810Y-109707430D01*
X160007446Y-109686198D01*
X160007146Y-109686046D01*
X159970575Y-109666817D01*
X159970535Y-109666796D01*
X159938384Y-109649732D01*
X159908226Y-109634986D01*
X159908212Y-109634980D01*
X159877592Y-109622683D01*
X159877582Y-109622680D01*
X159843946Y-109612919D01*
X159804814Y-109605814D01*
X159804804Y-109605813D01*
X159757648Y-109601470D01*
X159711401Y-109600290D01*
X159703218Y-109596653D01*
X159700000Y-109588594D01*
X159700000Y-109411404D01*
X159703427Y-109403131D01*
X159711399Y-109399708D01*
X159757659Y-109398528D01*
X159804804Y-109394186D01*
X159843943Y-109387080D01*
X159877582Y-109377319D01*
X159908230Y-109365010D01*
X159938392Y-109350262D01*
X159970575Y-109333182D01*
X159970577Y-109333186D01*
X159970605Y-109333165D01*
X160007180Y-109313934D01*
X160007408Y-109313819D01*
X160050855Y-109292546D01*
X160051219Y-109292377D01*
X160093426Y-109273822D01*
X160102378Y-109273631D01*
X160108845Y-109279826D01*
G37*
%TD.AperFunction*%
%TD*%
%TA.AperFunction,Conductor*%
%TO.N,/MICROCONTROLLER/USB_CC1*%
G36*
X140298410Y-93626178D02*
G01*
X140424141Y-93678803D01*
X140513490Y-93716201D01*
X140513897Y-93716371D01*
X140520206Y-93722727D01*
X140520383Y-93731142D01*
X140500823Y-93785238D01*
X140500823Y-93785239D01*
X140486372Y-93841328D01*
X140477981Y-93890663D01*
X140472821Y-93934935D01*
X140468097Y-93975506D01*
X140467984Y-93976262D01*
X140460987Y-94014452D01*
X140460634Y-94015873D01*
X140448661Y-94053702D01*
X140447973Y-94055400D01*
X140428208Y-94094975D01*
X140427304Y-94096487D01*
X140396724Y-94139874D01*
X140395828Y-94140994D01*
X140359293Y-94181279D01*
X140351196Y-94185105D01*
X140342766Y-94182086D01*
X140342353Y-94181692D01*
X140217044Y-94056383D01*
X140213617Y-94048110D01*
X140216200Y-94040777D01*
X140238268Y-94013338D01*
X140249757Y-93981919D01*
X140246904Y-93953358D01*
X140232531Y-93926313D01*
X140209456Y-93899440D01*
X140180498Y-93871398D01*
X140180467Y-93871368D01*
X140180467Y-93871367D01*
X140148712Y-93841065D01*
X140148254Y-93840604D01*
X140116650Y-93806898D01*
X140115823Y-93805912D01*
X140087081Y-93767566D01*
X140086090Y-93765999D01*
X140068195Y-93732004D01*
X140067374Y-93723087D01*
X140073098Y-93716201D01*
X140074032Y-93715761D01*
X140289399Y-93626167D01*
X140298354Y-93626155D01*
X140298410Y-93626178D01*
G37*
%TD.AperFunction*%
%TD*%
%TA.AperFunction,Conductor*%
%TO.N,/MICROCONTROLLER/USB_CC1*%
G36*
X145096868Y-89403427D02*
G01*
X145100291Y-89411402D01*
X145101470Y-89457648D01*
X145105813Y-89504804D01*
X145105814Y-89504814D01*
X145112919Y-89543946D01*
X145122680Y-89577582D01*
X145122683Y-89577592D01*
X145134980Y-89608212D01*
X145134986Y-89608226D01*
X145149732Y-89638384D01*
X145166817Y-89670575D01*
X145166838Y-89670615D01*
X145186046Y-89707146D01*
X145186198Y-89707446D01*
X145207430Y-89750810D01*
X145207633Y-89751246D01*
X145226176Y-89793425D01*
X145226368Y-89802378D01*
X145220174Y-89808845D01*
X145219982Y-89808927D01*
X145004517Y-89899109D01*
X144995563Y-89899142D01*
X144995483Y-89899109D01*
X144780017Y-89808927D01*
X144773708Y-89802571D01*
X144773741Y-89793617D01*
X144773823Y-89793426D01*
X144792377Y-89751219D01*
X144792546Y-89750855D01*
X144813819Y-89707408D01*
X144813934Y-89707180D01*
X144833182Y-89670575D01*
X144850262Y-89638392D01*
X144865010Y-89608230D01*
X144877319Y-89577582D01*
X144887080Y-89543943D01*
X144894186Y-89504804D01*
X144898528Y-89457659D01*
X144899709Y-89411401D01*
X144903346Y-89403218D01*
X144911405Y-89400000D01*
X145088595Y-89400000D01*
X145096868Y-89403427D01*
G37*
%TD.AperFunction*%
%TD*%
%TA.AperFunction,Conductor*%
%TO.N,MUX2_B*%
G36*
X120222024Y-113686992D02*
G01*
X120255557Y-113718857D01*
X120255574Y-113718871D01*
X120291973Y-113749130D01*
X120291976Y-113749132D01*
X120324675Y-113771783D01*
X120355364Y-113788668D01*
X120385738Y-113801635D01*
X120385741Y-113801636D01*
X120385748Y-113801639D01*
X120406909Y-113808901D01*
X120417495Y-113812535D01*
X120452287Y-113823201D01*
X120452323Y-113823231D01*
X120452329Y-113823214D01*
X120491829Y-113835489D01*
X120492070Y-113835569D01*
X120537807Y-113851239D01*
X120538218Y-113851389D01*
X120581173Y-113868110D01*
X120587639Y-113874303D01*
X120587831Y-113883256D01*
X120587754Y-113883450D01*
X120499164Y-114099576D01*
X120492855Y-114105931D01*
X120492776Y-114105964D01*
X120328631Y-114173246D01*
X120276731Y-114194521D01*
X120276650Y-114194554D01*
X120267695Y-114194521D01*
X120261386Y-114188166D01*
X120261344Y-114188060D01*
X120244589Y-114145018D01*
X120244432Y-114144586D01*
X120230563Y-114104107D01*
X120228769Y-114098870D01*
X120228689Y-114098629D01*
X120216414Y-114059129D01*
X120205735Y-114024295D01*
X120202101Y-114013709D01*
X120194839Y-113992548D01*
X120194830Y-113992527D01*
X120181868Y-113962164D01*
X120164983Y-113931475D01*
X120142332Y-113898776D01*
X120129591Y-113883450D01*
X120112071Y-113862374D01*
X120112057Y-113862357D01*
X120080192Y-113828824D01*
X120076977Y-113820467D01*
X120080399Y-113812493D01*
X120205693Y-113687199D01*
X120213965Y-113683773D01*
X120222024Y-113686992D01*
G37*
%TD.AperFunction*%
%TD*%
%TA.AperFunction,Conductor*%
%TO.N,MUX2_B*%
G36*
X146318624Y-110383592D02*
G01*
X146352157Y-110415457D01*
X146352174Y-110415471D01*
X146388573Y-110445730D01*
X146388576Y-110445732D01*
X146421275Y-110468383D01*
X146451964Y-110485268D01*
X146482338Y-110498235D01*
X146482341Y-110498236D01*
X146482348Y-110498239D01*
X146503509Y-110505501D01*
X146514095Y-110509135D01*
X146548887Y-110519801D01*
X146548923Y-110519831D01*
X146548929Y-110519814D01*
X146588429Y-110532089D01*
X146588670Y-110532169D01*
X146634407Y-110547839D01*
X146634818Y-110547989D01*
X146677773Y-110564710D01*
X146684239Y-110570903D01*
X146684431Y-110579856D01*
X146684354Y-110580050D01*
X146595764Y-110796176D01*
X146589455Y-110802531D01*
X146589376Y-110802564D01*
X146425231Y-110869846D01*
X146373331Y-110891121D01*
X146373250Y-110891154D01*
X146364295Y-110891121D01*
X146357986Y-110884766D01*
X146357944Y-110884660D01*
X146341189Y-110841618D01*
X146341032Y-110841186D01*
X146327163Y-110800707D01*
X146325369Y-110795470D01*
X146325289Y-110795229D01*
X146313014Y-110755729D01*
X146302335Y-110720895D01*
X146298701Y-110710309D01*
X146291439Y-110689148D01*
X146291430Y-110689127D01*
X146278468Y-110658764D01*
X146261583Y-110628075D01*
X146238932Y-110595376D01*
X146226191Y-110580050D01*
X146208671Y-110558974D01*
X146208657Y-110558957D01*
X146176792Y-110525424D01*
X146173577Y-110517067D01*
X146176999Y-110509093D01*
X146302293Y-110383799D01*
X146310565Y-110380373D01*
X146318624Y-110383592D01*
G37*
%TD.AperFunction*%
%TD*%
%TA.AperFunction,Conductor*%
%TO.N,/AUDIO/EFFECT_A_TO_B*%
G36*
X111213182Y-111491072D02*
G01*
X111219491Y-111497428D01*
X111219458Y-111506382D01*
X111219376Y-111506574D01*
X111200833Y-111548752D01*
X111200630Y-111549188D01*
X111179398Y-111592551D01*
X111179246Y-111592851D01*
X111160038Y-111629383D01*
X111160017Y-111629423D01*
X111142932Y-111661614D01*
X111128186Y-111691772D01*
X111128180Y-111691786D01*
X111115883Y-111722405D01*
X111115880Y-111722415D01*
X111106119Y-111756051D01*
X111099014Y-111795184D01*
X111099013Y-111795194D01*
X111094670Y-111842350D01*
X111093491Y-111888598D01*
X111089854Y-111896781D01*
X111081795Y-111900000D01*
X110904605Y-111900000D01*
X110896332Y-111896573D01*
X110892909Y-111888599D01*
X110891728Y-111842350D01*
X110891728Y-111842340D01*
X110887386Y-111795195D01*
X110880280Y-111756055D01*
X110870519Y-111722416D01*
X110858210Y-111691769D01*
X110843462Y-111661607D01*
X110826382Y-111629423D01*
X110807148Y-111592843D01*
X110807000Y-111592551D01*
X110785755Y-111549160D01*
X110785577Y-111548778D01*
X110767022Y-111506573D01*
X110766831Y-111497621D01*
X110773025Y-111491154D01*
X110773162Y-111491095D01*
X110988684Y-111400889D01*
X110997637Y-111400857D01*
X111213182Y-111491072D01*
G37*
%TD.AperFunction*%
%TD*%
%TA.AperFunction,Conductor*%
%TO.N,/AUDIO/EFFECT_A_TO_B*%
G36*
X111881519Y-116081492D02*
G01*
X111881933Y-116081884D01*
X112047530Y-116246549D01*
X112050980Y-116254812D01*
X112050980Y-116254892D01*
X112050047Y-116488347D01*
X112046587Y-116496606D01*
X112038347Y-116500000D01*
X111939721Y-116500000D01*
X111897922Y-116499999D01*
X111861459Y-116500000D01*
X111850433Y-116500000D01*
X111848603Y-116499856D01*
X111793200Y-116491081D01*
X111737797Y-116499856D01*
X111735967Y-116500000D01*
X111715608Y-116500000D01*
X111665805Y-116500000D01*
X111617031Y-116500000D01*
X111608758Y-116496573D01*
X111605331Y-116488300D01*
X111605331Y-116310973D01*
X111608758Y-116302700D01*
X111616280Y-116299298D01*
X111652126Y-116297000D01*
X111688668Y-116288328D01*
X111688669Y-116288327D01*
X111688671Y-116288327D01*
X111697646Y-116283956D01*
X111717134Y-116274469D01*
X111717136Y-116274467D01*
X111717137Y-116274467D01*
X111725750Y-116267384D01*
X111739703Y-116255913D01*
X111758552Y-116233146D01*
X111775858Y-116206656D01*
X111793745Y-116177023D01*
X111793892Y-116176788D01*
X111814335Y-116144806D01*
X111814794Y-116144139D01*
X111839979Y-116110165D01*
X111840675Y-116109315D01*
X111864997Y-116082344D01*
X111873080Y-116078497D01*
X111881519Y-116081492D01*
G37*
%TD.AperFunction*%
%TD*%
%TA.AperFunction,Conductor*%
%TO.N,MUX2_C*%
G36*
X146318624Y-109683592D02*
G01*
X146352157Y-109715457D01*
X146352174Y-109715471D01*
X146388573Y-109745730D01*
X146388576Y-109745732D01*
X146421275Y-109768383D01*
X146451964Y-109785268D01*
X146482338Y-109798235D01*
X146482341Y-109798236D01*
X146482348Y-109798239D01*
X146503509Y-109805501D01*
X146514095Y-109809135D01*
X146548887Y-109819801D01*
X146548923Y-109819831D01*
X146548929Y-109819814D01*
X146588429Y-109832089D01*
X146588670Y-109832169D01*
X146634407Y-109847839D01*
X146634818Y-109847989D01*
X146677773Y-109864710D01*
X146684239Y-109870903D01*
X146684431Y-109879856D01*
X146684354Y-109880050D01*
X146595764Y-110096176D01*
X146589455Y-110102531D01*
X146589376Y-110102564D01*
X146425231Y-110169846D01*
X146373331Y-110191121D01*
X146373250Y-110191154D01*
X146364295Y-110191121D01*
X146357986Y-110184766D01*
X146357944Y-110184660D01*
X146341189Y-110141618D01*
X146341032Y-110141186D01*
X146327163Y-110100707D01*
X146325369Y-110095470D01*
X146325289Y-110095229D01*
X146313014Y-110055729D01*
X146302335Y-110020895D01*
X146298701Y-110010309D01*
X146291439Y-109989148D01*
X146291430Y-109989127D01*
X146278468Y-109958764D01*
X146261583Y-109928075D01*
X146238932Y-109895376D01*
X146226191Y-109880050D01*
X146208671Y-109858974D01*
X146208657Y-109858957D01*
X146176792Y-109825424D01*
X146173577Y-109817067D01*
X146176999Y-109809093D01*
X146302293Y-109683799D01*
X146310565Y-109680373D01*
X146318624Y-109683592D01*
G37*
%TD.AperFunction*%
%TD*%
%TA.AperFunction,Conductor*%
%TO.N,MUX2_C*%
G36*
X120408845Y-114979826D02*
G01*
X120408927Y-114980017D01*
X120499109Y-115195483D01*
X120499142Y-115204437D01*
X120499109Y-115204517D01*
X120408927Y-115419982D01*
X120402571Y-115426291D01*
X120393617Y-115426258D01*
X120393425Y-115426176D01*
X120351246Y-115407633D01*
X120350810Y-115407430D01*
X120307446Y-115386198D01*
X120307146Y-115386046D01*
X120270575Y-115366817D01*
X120270535Y-115366796D01*
X120238384Y-115349732D01*
X120208226Y-115334986D01*
X120208212Y-115334980D01*
X120177592Y-115322683D01*
X120177582Y-115322680D01*
X120143946Y-115312919D01*
X120104814Y-115305814D01*
X120104804Y-115305813D01*
X120057648Y-115301470D01*
X120011401Y-115300290D01*
X120003218Y-115296653D01*
X120000000Y-115288594D01*
X120000000Y-115111404D01*
X120003427Y-115103131D01*
X120011399Y-115099708D01*
X120057659Y-115098528D01*
X120104804Y-115094186D01*
X120143943Y-115087080D01*
X120177582Y-115077319D01*
X120208230Y-115065010D01*
X120238392Y-115050262D01*
X120270575Y-115033182D01*
X120270577Y-115033186D01*
X120270605Y-115033165D01*
X120307180Y-115013934D01*
X120307408Y-115013819D01*
X120350855Y-114992546D01*
X120351219Y-114992377D01*
X120393426Y-114973822D01*
X120402378Y-114973631D01*
X120408845Y-114979826D01*
G37*
%TD.AperFunction*%
%TD*%
%TA.AperFunction,Conductor*%
%TO.N,MUX2_A*%
G36*
X146318624Y-111083592D02*
G01*
X146352157Y-111115457D01*
X146352174Y-111115471D01*
X146388573Y-111145730D01*
X146388576Y-111145732D01*
X146421275Y-111168383D01*
X146451964Y-111185268D01*
X146482338Y-111198235D01*
X146482341Y-111198236D01*
X146482348Y-111198239D01*
X146503509Y-111205501D01*
X146514095Y-111209135D01*
X146548887Y-111219801D01*
X146548923Y-111219831D01*
X146548929Y-111219814D01*
X146588429Y-111232089D01*
X146588670Y-111232169D01*
X146634407Y-111247839D01*
X146634818Y-111247989D01*
X146677773Y-111264710D01*
X146684239Y-111270903D01*
X146684431Y-111279856D01*
X146684354Y-111280050D01*
X146595764Y-111496176D01*
X146589455Y-111502531D01*
X146589376Y-111502564D01*
X146425231Y-111569846D01*
X146373331Y-111591121D01*
X146373250Y-111591154D01*
X146364295Y-111591121D01*
X146357986Y-111584766D01*
X146357944Y-111584660D01*
X146341189Y-111541618D01*
X146341032Y-111541186D01*
X146327163Y-111500707D01*
X146325369Y-111495470D01*
X146325289Y-111495229D01*
X146313014Y-111455729D01*
X146302335Y-111420895D01*
X146298701Y-111410309D01*
X146291439Y-111389148D01*
X146291430Y-111389127D01*
X146278468Y-111358764D01*
X146261583Y-111328075D01*
X146238932Y-111295376D01*
X146226191Y-111280050D01*
X146208671Y-111258974D01*
X146208657Y-111258957D01*
X146176792Y-111225424D01*
X146173577Y-111217067D01*
X146176999Y-111209093D01*
X146302293Y-111083799D01*
X146310565Y-111080373D01*
X146318624Y-111083592D01*
G37*
%TD.AperFunction*%
%TD*%
%TA.AperFunction,Conductor*%
%TO.N,MUX2_A*%
G36*
X120590068Y-112503427D02*
G01*
X120593491Y-112511402D01*
X120594670Y-112557648D01*
X120599013Y-112604804D01*
X120599014Y-112604814D01*
X120606119Y-112643946D01*
X120615880Y-112677582D01*
X120615883Y-112677592D01*
X120628180Y-112708212D01*
X120628186Y-112708226D01*
X120642932Y-112738384D01*
X120660017Y-112770575D01*
X120660038Y-112770615D01*
X120679246Y-112807146D01*
X120679398Y-112807446D01*
X120700630Y-112850810D01*
X120700833Y-112851246D01*
X120719376Y-112893425D01*
X120719568Y-112902378D01*
X120713374Y-112908845D01*
X120713182Y-112908927D01*
X120497717Y-112999109D01*
X120488763Y-112999142D01*
X120488683Y-112999109D01*
X120273217Y-112908927D01*
X120266908Y-112902571D01*
X120266941Y-112893617D01*
X120267023Y-112893426D01*
X120285577Y-112851219D01*
X120285746Y-112850855D01*
X120307019Y-112807408D01*
X120307134Y-112807180D01*
X120326382Y-112770575D01*
X120343462Y-112738392D01*
X120358210Y-112708230D01*
X120370519Y-112677582D01*
X120380280Y-112643943D01*
X120387386Y-112604804D01*
X120391728Y-112557659D01*
X120392909Y-112511401D01*
X120396546Y-112503218D01*
X120404605Y-112500000D01*
X120581795Y-112500000D01*
X120590068Y-112503427D01*
G37*
%TD.AperFunction*%
%TD*%
%TA.AperFunction,Conductor*%
%TO.N,EFFECT_B_BYPASS*%
G36*
X111438539Y-115300000D02*
G01*
X111472334Y-115300000D01*
X111506128Y-115300000D01*
X111542591Y-115300000D01*
X111584390Y-115300000D01*
X111634193Y-115300000D01*
X111682969Y-115300000D01*
X111691242Y-115303427D01*
X111694669Y-115311700D01*
X111694669Y-115489025D01*
X111691242Y-115497298D01*
X111683718Y-115500701D01*
X111647873Y-115502999D01*
X111647872Y-115502999D01*
X111611327Y-115511672D01*
X111611325Y-115511672D01*
X111582863Y-115525530D01*
X111582860Y-115525531D01*
X111560293Y-115544087D01*
X111560292Y-115544087D01*
X111541452Y-115566845D01*
X111524135Y-115593349D01*
X111506265Y-115622954D01*
X111506106Y-115623209D01*
X111485662Y-115655192D01*
X111485203Y-115655859D01*
X111460025Y-115689824D01*
X111459315Y-115690691D01*
X111435004Y-115717653D01*
X111426919Y-115721502D01*
X111418480Y-115718507D01*
X111418065Y-115718114D01*
X111322480Y-115623067D01*
X111252468Y-115553449D01*
X111249019Y-115545187D01*
X111249953Y-115311652D01*
X111253413Y-115303394D01*
X111261653Y-115300000D01*
X111360277Y-115300000D01*
X111402076Y-115299999D01*
X111438539Y-115300000D01*
G37*
%TD.AperFunction*%
%TD*%
%TA.AperFunction,Conductor*%
%TO.N,EFFECT_B_BYPASS*%
G36*
X122773862Y-115309126D02*
G01*
X122989686Y-115398138D01*
X122996028Y-115404460D01*
X122996051Y-115404517D01*
X123084571Y-115620480D01*
X123084538Y-115629434D01*
X123078521Y-115635598D01*
X123026215Y-115658987D01*
X122975049Y-115685343D01*
X122932361Y-115709732D01*
X122895231Y-115731792D01*
X122894987Y-115731933D01*
X122860674Y-115751215D01*
X122859933Y-115751597D01*
X122825515Y-115767829D01*
X122824355Y-115768302D01*
X122786634Y-115781375D01*
X122785316Y-115781747D01*
X122741026Y-115791488D01*
X122739827Y-115791687D01*
X122685731Y-115797801D01*
X122684787Y-115797869D01*
X122629533Y-115799617D01*
X122621156Y-115796454D01*
X122617469Y-115788293D01*
X122617463Y-115787923D01*
X122617463Y-115610604D01*
X122620890Y-115602331D01*
X122628015Y-115598960D01*
X122659814Y-115595827D01*
X122689679Y-115583849D01*
X122709417Y-115564877D01*
X122721388Y-115539721D01*
X122727951Y-115509192D01*
X122731465Y-115474101D01*
X122734278Y-115435429D01*
X122734307Y-115435102D01*
X122738735Y-115393952D01*
X122738877Y-115393009D01*
X122747175Y-115350266D01*
X122747541Y-115348868D01*
X122758290Y-115316275D01*
X122764134Y-115309494D01*
X122773065Y-115308831D01*
X122773862Y-115309126D01*
G37*
%TD.AperFunction*%
%TD*%
%TA.AperFunction,Conductor*%
%TO.N,/AUDIO/EFFECT_C_BYPASS*%
G36*
X123228904Y-111108878D02*
G01*
X123235213Y-111115233D01*
X123235290Y-111115427D01*
X123252001Y-111158360D01*
X123252166Y-111158812D01*
X123267814Y-111204484D01*
X123267919Y-111204804D01*
X123280184Y-111244269D01*
X123280197Y-111244311D01*
X123290868Y-111279116D01*
X123301758Y-111310849D01*
X123301763Y-111310860D01*
X123314730Y-111341234D01*
X123325713Y-111361197D01*
X123331613Y-111371920D01*
X123354265Y-111404621D01*
X123354267Y-111404625D01*
X123384527Y-111441024D01*
X123384541Y-111441041D01*
X123416407Y-111474575D01*
X123419622Y-111482932D01*
X123416199Y-111490907D01*
X123290907Y-111616199D01*
X123282634Y-111619626D01*
X123274575Y-111616407D01*
X123241041Y-111584541D01*
X123241024Y-111584527D01*
X123204625Y-111554267D01*
X123204623Y-111554266D01*
X123171923Y-111531615D01*
X123171922Y-111531614D01*
X123171920Y-111531613D01*
X123161197Y-111525713D01*
X123141234Y-111514730D01*
X123125729Y-111508111D01*
X123110870Y-111501767D01*
X123110849Y-111501758D01*
X123079116Y-111490868D01*
X123079112Y-111490867D01*
X123079104Y-111490864D01*
X123044269Y-111480184D01*
X123004804Y-111467919D01*
X123004484Y-111467814D01*
X122958812Y-111452166D01*
X122958360Y-111452001D01*
X122930202Y-111441041D01*
X122915426Y-111435289D01*
X122908960Y-111429096D01*
X122908768Y-111420143D01*
X122908799Y-111420063D01*
X122997436Y-111203821D01*
X123003743Y-111197468D01*
X123219952Y-111108845D01*
X123228904Y-111108878D01*
G37*
%TD.AperFunction*%
%TD*%
%TA.AperFunction,Conductor*%
%TO.N,/AUDIO/EFFECT_C_BYPASS*%
G36*
X125808845Y-112479826D02*
G01*
X125808927Y-112480017D01*
X125899109Y-112695483D01*
X125899142Y-112704437D01*
X125899109Y-112704517D01*
X125808927Y-112919982D01*
X125802571Y-112926291D01*
X125793617Y-112926258D01*
X125793425Y-112926176D01*
X125751246Y-112907633D01*
X125750810Y-112907430D01*
X125707446Y-112886198D01*
X125707146Y-112886046D01*
X125670575Y-112866817D01*
X125670535Y-112866796D01*
X125638384Y-112849732D01*
X125608226Y-112834986D01*
X125608212Y-112834980D01*
X125577592Y-112822683D01*
X125577582Y-112822680D01*
X125543946Y-112812919D01*
X125504814Y-112805814D01*
X125504804Y-112805813D01*
X125457648Y-112801470D01*
X125411401Y-112800290D01*
X125403218Y-112796653D01*
X125400000Y-112788594D01*
X125400000Y-112611404D01*
X125403427Y-112603131D01*
X125411399Y-112599708D01*
X125457659Y-112598528D01*
X125504804Y-112594186D01*
X125543943Y-112587080D01*
X125577582Y-112577319D01*
X125608230Y-112565010D01*
X125638392Y-112550262D01*
X125670575Y-112533182D01*
X125670577Y-112533186D01*
X125670605Y-112533165D01*
X125707180Y-112513934D01*
X125707408Y-112513819D01*
X125750855Y-112492546D01*
X125751219Y-112492377D01*
X125793426Y-112473822D01*
X125802378Y-112473631D01*
X125808845Y-112479826D01*
G37*
%TD.AperFunction*%
%TD*%
%TA.AperFunction,Conductor*%
%TO.N,MUX1_C*%
G36*
X146502045Y-107679826D02*
G01*
X146502127Y-107680017D01*
X146592309Y-107895483D01*
X146592342Y-107904437D01*
X146592309Y-107904517D01*
X146502127Y-108119982D01*
X146495771Y-108126291D01*
X146486817Y-108126258D01*
X146486625Y-108126176D01*
X146444446Y-108107633D01*
X146444010Y-108107430D01*
X146400646Y-108086198D01*
X146400346Y-108086046D01*
X146363775Y-108066817D01*
X146363735Y-108066796D01*
X146331584Y-108049732D01*
X146301426Y-108034986D01*
X146301412Y-108034980D01*
X146270792Y-108022683D01*
X146270782Y-108022680D01*
X146237146Y-108012919D01*
X146198014Y-108005814D01*
X146198004Y-108005813D01*
X146150848Y-108001470D01*
X146104601Y-108000290D01*
X146096418Y-107996653D01*
X146093200Y-107988594D01*
X146093200Y-107811404D01*
X146096627Y-107803131D01*
X146104599Y-107799708D01*
X146150859Y-107798528D01*
X146198004Y-107794186D01*
X146237143Y-107787080D01*
X146270782Y-107777319D01*
X146301430Y-107765010D01*
X146331592Y-107750262D01*
X146363775Y-107733182D01*
X146363777Y-107733186D01*
X146363805Y-107733165D01*
X146400380Y-107713934D01*
X146400608Y-107713819D01*
X146444055Y-107692546D01*
X146444419Y-107692377D01*
X146486626Y-107673822D01*
X146495578Y-107673631D01*
X146502045Y-107679826D01*
G37*
%TD.AperFunction*%
%TD*%
%TA.AperFunction,Conductor*%
%TO.N,MUX1_C*%
G36*
X114209782Y-111170341D02*
G01*
X114209956Y-111170415D01*
X114252178Y-111188977D01*
X114252560Y-111189155D01*
X114295951Y-111210400D01*
X114296243Y-111210548D01*
X114332784Y-111229761D01*
X114332814Y-111229797D01*
X114332823Y-111229782D01*
X114365007Y-111246862D01*
X114395169Y-111261610D01*
X114425816Y-111273919D01*
X114453242Y-111281877D01*
X114459451Y-111283679D01*
X114459452Y-111283679D01*
X114459455Y-111283680D01*
X114498595Y-111290786D01*
X114545740Y-111295128D01*
X114592000Y-111296308D01*
X114600181Y-111299945D01*
X114603400Y-111308004D01*
X114603400Y-111485194D01*
X114599973Y-111493467D01*
X114591999Y-111496890D01*
X114545750Y-111498070D01*
X114498594Y-111502413D01*
X114498584Y-111502414D01*
X114459451Y-111509519D01*
X114425815Y-111519280D01*
X114425805Y-111519283D01*
X114395186Y-111531580D01*
X114395172Y-111531586D01*
X114365014Y-111546332D01*
X114332863Y-111563396D01*
X114332823Y-111563417D01*
X114296251Y-111582646D01*
X114295951Y-111582798D01*
X114252588Y-111604030D01*
X114252152Y-111604233D01*
X114209974Y-111622776D01*
X114201021Y-111622968D01*
X114194554Y-111616774D01*
X114194472Y-111616582D01*
X114158898Y-111531588D01*
X114104289Y-111401115D01*
X114104257Y-111392163D01*
X114194472Y-111176616D01*
X114200828Y-111170308D01*
X114209782Y-111170341D01*
G37*
%TD.AperFunction*%
%TD*%
%TA.AperFunction,Conductor*%
%TO.N,MUX1_A*%
G36*
X115406382Y-112973741D02*
G01*
X115406556Y-112973815D01*
X115448778Y-112992377D01*
X115449160Y-112992555D01*
X115492551Y-113013800D01*
X115492843Y-113013948D01*
X115529384Y-113033161D01*
X115529414Y-113033197D01*
X115529423Y-113033182D01*
X115561607Y-113050262D01*
X115591769Y-113065010D01*
X115622416Y-113077319D01*
X115649842Y-113085277D01*
X115656051Y-113087079D01*
X115656052Y-113087079D01*
X115656055Y-113087080D01*
X115695195Y-113094186D01*
X115706748Y-113095250D01*
X115707473Y-113095341D01*
X115790131Y-113108433D01*
X115797765Y-113113111D01*
X115800000Y-113119988D01*
X115800000Y-113288594D01*
X115796573Y-113296867D01*
X115788599Y-113300290D01*
X115742350Y-113301470D01*
X115695194Y-113305813D01*
X115695184Y-113305814D01*
X115656051Y-113312919D01*
X115622415Y-113322680D01*
X115622405Y-113322683D01*
X115591786Y-113334980D01*
X115591772Y-113334986D01*
X115561614Y-113349732D01*
X115529463Y-113366796D01*
X115529423Y-113366817D01*
X115492851Y-113386046D01*
X115492551Y-113386198D01*
X115449188Y-113407430D01*
X115448752Y-113407633D01*
X115406574Y-113426176D01*
X115397621Y-113426368D01*
X115391154Y-113420174D01*
X115391072Y-113419982D01*
X115355498Y-113334988D01*
X115300889Y-113204515D01*
X115300857Y-113195563D01*
X115391072Y-112980016D01*
X115397428Y-112973708D01*
X115406382Y-112973741D01*
G37*
%TD.AperFunction*%
%TD*%
%TA.AperFunction,Conductor*%
%TO.N,MUX1_A*%
G36*
X146318624Y-108983592D02*
G01*
X146352157Y-109015457D01*
X146352174Y-109015471D01*
X146388573Y-109045730D01*
X146388576Y-109045732D01*
X146421275Y-109068383D01*
X146451964Y-109085268D01*
X146482338Y-109098235D01*
X146482341Y-109098236D01*
X146482348Y-109098239D01*
X146503509Y-109105501D01*
X146514095Y-109109135D01*
X146548887Y-109119801D01*
X146548923Y-109119831D01*
X146548929Y-109119814D01*
X146588429Y-109132089D01*
X146588670Y-109132169D01*
X146634407Y-109147839D01*
X146634818Y-109147989D01*
X146677773Y-109164710D01*
X146684239Y-109170903D01*
X146684431Y-109179856D01*
X146684354Y-109180050D01*
X146595764Y-109396176D01*
X146589455Y-109402531D01*
X146589376Y-109402564D01*
X146425231Y-109469846D01*
X146373331Y-109491121D01*
X146373250Y-109491154D01*
X146364295Y-109491121D01*
X146357986Y-109484766D01*
X146357944Y-109484660D01*
X146341189Y-109441618D01*
X146341032Y-109441186D01*
X146327163Y-109400707D01*
X146325369Y-109395470D01*
X146325289Y-109395229D01*
X146313014Y-109355729D01*
X146302335Y-109320895D01*
X146298701Y-109310309D01*
X146291439Y-109289148D01*
X146291430Y-109289127D01*
X146278468Y-109258764D01*
X146261583Y-109228075D01*
X146238932Y-109195376D01*
X146226191Y-109180050D01*
X146208671Y-109158974D01*
X146208657Y-109158957D01*
X146176792Y-109125424D01*
X146173577Y-109117067D01*
X146176999Y-109109093D01*
X146302293Y-108983799D01*
X146310565Y-108980373D01*
X146318624Y-108983592D01*
G37*
%TD.AperFunction*%
%TD*%
%TA.AperFunction,Conductor*%
%TO.N,MUX1_B*%
G36*
X115099582Y-112073741D02*
G01*
X115099756Y-112073815D01*
X115141978Y-112092377D01*
X115142360Y-112092555D01*
X115185751Y-112113800D01*
X115186043Y-112113948D01*
X115222584Y-112133161D01*
X115222614Y-112133197D01*
X115222623Y-112133182D01*
X115254807Y-112150262D01*
X115284969Y-112165010D01*
X115315616Y-112177319D01*
X115343042Y-112185277D01*
X115349251Y-112187079D01*
X115349252Y-112187079D01*
X115349255Y-112187080D01*
X115388395Y-112194186D01*
X115416205Y-112196747D01*
X115416911Y-112196835D01*
X115483331Y-112207355D01*
X115490966Y-112212034D01*
X115493200Y-112218911D01*
X115493200Y-112388594D01*
X115489773Y-112396867D01*
X115481799Y-112400290D01*
X115435550Y-112401470D01*
X115388394Y-112405813D01*
X115388384Y-112405814D01*
X115349251Y-112412919D01*
X115315615Y-112422680D01*
X115315605Y-112422683D01*
X115284986Y-112434980D01*
X115284972Y-112434986D01*
X115254814Y-112449732D01*
X115222663Y-112466796D01*
X115222623Y-112466817D01*
X115186051Y-112486046D01*
X115185751Y-112486198D01*
X115142388Y-112507430D01*
X115141952Y-112507633D01*
X115099774Y-112526176D01*
X115090821Y-112526368D01*
X115084354Y-112520174D01*
X115084272Y-112519982D01*
X115048698Y-112434988D01*
X114994089Y-112304515D01*
X114994057Y-112295563D01*
X115084272Y-112080016D01*
X115090628Y-112073708D01*
X115099582Y-112073741D01*
G37*
%TD.AperFunction*%
%TD*%
%TA.AperFunction,Conductor*%
%TO.N,MUX1_B*%
G36*
X146229477Y-108300380D02*
G01*
X146284810Y-108302130D01*
X146285709Y-108302195D01*
X146339836Y-108308312D01*
X146341018Y-108308508D01*
X146384181Y-108318001D01*
X146385316Y-108318251D01*
X146386634Y-108318623D01*
X146404252Y-108324729D01*
X146424363Y-108331699D01*
X146425502Y-108332163D01*
X146459940Y-108348404D01*
X146460667Y-108348779D01*
X146495007Y-108368076D01*
X146495212Y-108368195D01*
X146532352Y-108390261D01*
X146575048Y-108414654D01*
X146626217Y-108441011D01*
X146678521Y-108464401D01*
X146684675Y-108470907D01*
X146684571Y-108479519D01*
X146596051Y-108695482D01*
X146589742Y-108701838D01*
X146589686Y-108701861D01*
X146373861Y-108790873D01*
X146364906Y-108790860D01*
X146358584Y-108784518D01*
X146358289Y-108783721D01*
X146347543Y-108751137D01*
X146347175Y-108749727D01*
X146338877Y-108706992D01*
X146338735Y-108706042D01*
X146334308Y-108664900D01*
X146334278Y-108664562D01*
X146331465Y-108625898D01*
X146327951Y-108590807D01*
X146321388Y-108560278D01*
X146309418Y-108535123D01*
X146289678Y-108516149D01*
X146289675Y-108516148D01*
X146259816Y-108504172D01*
X146228016Y-108501039D01*
X146220118Y-108496817D01*
X146217463Y-108489395D01*
X146217463Y-108312075D01*
X146220890Y-108303802D01*
X146229163Y-108300375D01*
X146229477Y-108300380D01*
G37*
%TD.AperFunction*%
%TD*%
%TA.AperFunction,Conductor*%
%TO.N,STATUS_G*%
G36*
X151440907Y-99933800D02*
G01*
X151566199Y-100059092D01*
X151569626Y-100067365D01*
X151566407Y-100075424D01*
X151534541Y-100108957D01*
X151534527Y-100108974D01*
X151504267Y-100145373D01*
X151504264Y-100145377D01*
X151481613Y-100178077D01*
X151464729Y-100208766D01*
X151451767Y-100239127D01*
X151451759Y-100239148D01*
X151440868Y-100270882D01*
X151430197Y-100305687D01*
X151430184Y-100305729D01*
X151417919Y-100345193D01*
X151417814Y-100345513D01*
X151402166Y-100391186D01*
X151402001Y-100391638D01*
X151385290Y-100434571D01*
X151379096Y-100441038D01*
X151370143Y-100441230D01*
X151369950Y-100441153D01*
X151153824Y-100352564D01*
X151147468Y-100346255D01*
X151058845Y-100130047D01*
X151058878Y-100121095D01*
X151065233Y-100114786D01*
X151065298Y-100114760D01*
X151108395Y-100097984D01*
X151108775Y-100097845D01*
X151154550Y-100082161D01*
X151154749Y-100082095D01*
X151194269Y-100069814D01*
X151194271Y-100069823D01*
X151194306Y-100069802D01*
X151229104Y-100059135D01*
X151252485Y-100051109D01*
X151260849Y-100048239D01*
X151260851Y-100048237D01*
X151260860Y-100048235D01*
X151291234Y-100035268D01*
X151321923Y-100018383D01*
X151354623Y-99995732D01*
X151391031Y-99965466D01*
X151391037Y-99965460D01*
X151391041Y-99965457D01*
X151424575Y-99933592D01*
X151432932Y-99930377D01*
X151440907Y-99933800D01*
G37*
%TD.AperFunction*%
%TD*%
%TA.AperFunction,Conductor*%
%TO.N,STATUS_G*%
G36*
X164580019Y-91008833D02*
G01*
X164796175Y-91097435D01*
X164802531Y-91103744D01*
X164802564Y-91103824D01*
X164891148Y-91319937D01*
X164891115Y-91328891D01*
X164884759Y-91335200D01*
X164884553Y-91335282D01*
X164841606Y-91351941D01*
X164841126Y-91352116D01*
X164795311Y-91367621D01*
X164794960Y-91367733D01*
X164755427Y-91379739D01*
X164755357Y-91379760D01*
X164720393Y-91390138D01*
X164688448Y-91400725D01*
X164688446Y-91400726D01*
X164657888Y-91413381D01*
X164657885Y-91413382D01*
X164657884Y-91413383D01*
X164627030Y-91429980D01*
X164594179Y-91452407D01*
X164557683Y-91482512D01*
X164557681Y-91482514D01*
X164524062Y-91514388D01*
X164515700Y-91517593D01*
X164507739Y-91514170D01*
X164382446Y-91388877D01*
X164379019Y-91380604D01*
X164382245Y-91372537D01*
X164414046Y-91339137D01*
X164444372Y-91302906D01*
X164467173Y-91270407D01*
X164484269Y-91239937D01*
X164497482Y-91209793D01*
X164508632Y-91178270D01*
X164519541Y-91143666D01*
X164519542Y-91143666D01*
X164519543Y-91143656D01*
X164532000Y-91104371D01*
X164532059Y-91104190D01*
X164547860Y-91058568D01*
X164547986Y-91058227D01*
X164564703Y-91015410D01*
X164570903Y-91008951D01*
X164579856Y-91008768D01*
X164580019Y-91008833D01*
G37*
%TD.AperFunction*%
%TD*%
%TA.AperFunction,Conductor*%
%TO.N,LED_A*%
G36*
X141563182Y-113866072D02*
G01*
X141569491Y-113872428D01*
X141569458Y-113881382D01*
X141569376Y-113881574D01*
X141550833Y-113923752D01*
X141550630Y-113924188D01*
X141529398Y-113967551D01*
X141529246Y-113967851D01*
X141510038Y-114004383D01*
X141510017Y-114004423D01*
X141492932Y-114036614D01*
X141478186Y-114066772D01*
X141478180Y-114066786D01*
X141465883Y-114097405D01*
X141465880Y-114097415D01*
X141456119Y-114131051D01*
X141449014Y-114170184D01*
X141449013Y-114170194D01*
X141444670Y-114217350D01*
X141443491Y-114263598D01*
X141439854Y-114271781D01*
X141431795Y-114275000D01*
X141254605Y-114275000D01*
X141246332Y-114271573D01*
X141242909Y-114263599D01*
X141241728Y-114217350D01*
X141241728Y-114217340D01*
X141237386Y-114170195D01*
X141230280Y-114131055D01*
X141220519Y-114097416D01*
X141208210Y-114066769D01*
X141193462Y-114036607D01*
X141176382Y-114004423D01*
X141157148Y-113967843D01*
X141157000Y-113967551D01*
X141135755Y-113924160D01*
X141135577Y-113923778D01*
X141117022Y-113881573D01*
X141116831Y-113872621D01*
X141123025Y-113866154D01*
X141123162Y-113866095D01*
X141338684Y-113775889D01*
X141347637Y-113775857D01*
X141563182Y-113866072D01*
G37*
%TD.AperFunction*%
%TD*%
%TA.AperFunction,Conductor*%
%TO.N,LED_A*%
G36*
X167519982Y-96491072D02*
G01*
X167526291Y-96497428D01*
X167526258Y-96506382D01*
X167526176Y-96506574D01*
X167507633Y-96548752D01*
X167507430Y-96549188D01*
X167486198Y-96592551D01*
X167486046Y-96592851D01*
X167466838Y-96629383D01*
X167466817Y-96629423D01*
X167449732Y-96661614D01*
X167434986Y-96691772D01*
X167434980Y-96691786D01*
X167422683Y-96722405D01*
X167422680Y-96722415D01*
X167412919Y-96756051D01*
X167405814Y-96795184D01*
X167405813Y-96795194D01*
X167401470Y-96842350D01*
X167400291Y-96888598D01*
X167396654Y-96896781D01*
X167388595Y-96900000D01*
X167211405Y-96900000D01*
X167203132Y-96896573D01*
X167199709Y-96888599D01*
X167198528Y-96842350D01*
X167198528Y-96842340D01*
X167194186Y-96795195D01*
X167187080Y-96756055D01*
X167177319Y-96722416D01*
X167165010Y-96691769D01*
X167150262Y-96661607D01*
X167133182Y-96629423D01*
X167113948Y-96592843D01*
X167113800Y-96592551D01*
X167092555Y-96549160D01*
X167092377Y-96548778D01*
X167073822Y-96506573D01*
X167073631Y-96497621D01*
X167079825Y-96491154D01*
X167079962Y-96491095D01*
X167295484Y-96400889D01*
X167304437Y-96400857D01*
X167519982Y-96491072D01*
G37*
%TD.AperFunction*%
%TD*%
%TA.AperFunction,Conductor*%
%TO.N,LED_B*%
G36*
X166528904Y-94908878D02*
G01*
X166535213Y-94915233D01*
X166535290Y-94915427D01*
X166552001Y-94958360D01*
X166552166Y-94958812D01*
X166567814Y-95004484D01*
X166567919Y-95004804D01*
X166580184Y-95044269D01*
X166580197Y-95044311D01*
X166590868Y-95079116D01*
X166601758Y-95110849D01*
X166601763Y-95110860D01*
X166614730Y-95141234D01*
X166625713Y-95161197D01*
X166631613Y-95171920D01*
X166654265Y-95204621D01*
X166654267Y-95204625D01*
X166684527Y-95241024D01*
X166684541Y-95241041D01*
X166716407Y-95274575D01*
X166719622Y-95282932D01*
X166716199Y-95290907D01*
X166590907Y-95416199D01*
X166582634Y-95419626D01*
X166574575Y-95416407D01*
X166541041Y-95384541D01*
X166541024Y-95384527D01*
X166504625Y-95354267D01*
X166504623Y-95354266D01*
X166471923Y-95331615D01*
X166471922Y-95331614D01*
X166471920Y-95331613D01*
X166461197Y-95325713D01*
X166441234Y-95314730D01*
X166425729Y-95308111D01*
X166410870Y-95301767D01*
X166410849Y-95301758D01*
X166379116Y-95290868D01*
X166379112Y-95290867D01*
X166379104Y-95290864D01*
X166344269Y-95280184D01*
X166304804Y-95267919D01*
X166304484Y-95267814D01*
X166258812Y-95252166D01*
X166258360Y-95252001D01*
X166230202Y-95241041D01*
X166215426Y-95235289D01*
X166208960Y-95229096D01*
X166208768Y-95220143D01*
X166208799Y-95220063D01*
X166297436Y-95003821D01*
X166303743Y-94997468D01*
X166519952Y-94908845D01*
X166528904Y-94908878D01*
G37*
%TD.AperFunction*%
%TD*%
%TA.AperFunction,Conductor*%
%TO.N,LED_B*%
G36*
X157549582Y-113648741D02*
G01*
X157549756Y-113648815D01*
X157591978Y-113667377D01*
X157592360Y-113667555D01*
X157635751Y-113688800D01*
X157636043Y-113688948D01*
X157672584Y-113708161D01*
X157672614Y-113708197D01*
X157672623Y-113708182D01*
X157704807Y-113725262D01*
X157734969Y-113740010D01*
X157765616Y-113752319D01*
X157793042Y-113760277D01*
X157799251Y-113762079D01*
X157799252Y-113762079D01*
X157799255Y-113762080D01*
X157838395Y-113769186D01*
X157885540Y-113773528D01*
X157931800Y-113774708D01*
X157939981Y-113778345D01*
X157943200Y-113786404D01*
X157943200Y-113963594D01*
X157939773Y-113971867D01*
X157931799Y-113975290D01*
X157885550Y-113976470D01*
X157838394Y-113980813D01*
X157838384Y-113980814D01*
X157799251Y-113987919D01*
X157765615Y-113997680D01*
X157765605Y-113997683D01*
X157734986Y-114009980D01*
X157734972Y-114009986D01*
X157704814Y-114024732D01*
X157672663Y-114041796D01*
X157672623Y-114041817D01*
X157636051Y-114061046D01*
X157635751Y-114061198D01*
X157592388Y-114082430D01*
X157591952Y-114082633D01*
X157549774Y-114101176D01*
X157540821Y-114101368D01*
X157534354Y-114095174D01*
X157534272Y-114094982D01*
X157498698Y-114009988D01*
X157444089Y-113879515D01*
X157444057Y-113870563D01*
X157534272Y-113655016D01*
X157540628Y-113648708D01*
X157549582Y-113648741D01*
G37*
%TD.AperFunction*%
%TD*%
%TA.AperFunction,Conductor*%
%TO.N,LED_C*%
G36*
X173168624Y-113458592D02*
G01*
X173202157Y-113490457D01*
X173202174Y-113490471D01*
X173238573Y-113520730D01*
X173238576Y-113520732D01*
X173271275Y-113543383D01*
X173301964Y-113560268D01*
X173332338Y-113573235D01*
X173332341Y-113573236D01*
X173332348Y-113573239D01*
X173353509Y-113580501D01*
X173364095Y-113584135D01*
X173398887Y-113594801D01*
X173398923Y-113594831D01*
X173398929Y-113594814D01*
X173438429Y-113607089D01*
X173438670Y-113607169D01*
X173484407Y-113622839D01*
X173484818Y-113622989D01*
X173527773Y-113639710D01*
X173534239Y-113645903D01*
X173534431Y-113654856D01*
X173534354Y-113655050D01*
X173445764Y-113871176D01*
X173439455Y-113877531D01*
X173439376Y-113877564D01*
X173275231Y-113944846D01*
X173223331Y-113966121D01*
X173223250Y-113966154D01*
X173214295Y-113966121D01*
X173207986Y-113959766D01*
X173207944Y-113959660D01*
X173191189Y-113916618D01*
X173191032Y-113916186D01*
X173177163Y-113875707D01*
X173175369Y-113870470D01*
X173175289Y-113870229D01*
X173163014Y-113830729D01*
X173152335Y-113795895D01*
X173148701Y-113785309D01*
X173141439Y-113764148D01*
X173141430Y-113764127D01*
X173128468Y-113733764D01*
X173111583Y-113703075D01*
X173088932Y-113670376D01*
X173076191Y-113655050D01*
X173058671Y-113633974D01*
X173058657Y-113633957D01*
X173026792Y-113600424D01*
X173023577Y-113592067D01*
X173026999Y-113584093D01*
X173152293Y-113458799D01*
X173160565Y-113455373D01*
X173168624Y-113458592D01*
G37*
%TD.AperFunction*%
%TD*%
%TA.AperFunction,Conductor*%
%TO.N,LED_C*%
G36*
X165322700Y-95880899D02*
G01*
X165355956Y-95912627D01*
X165392011Y-95943013D01*
X165392017Y-95943017D01*
X165424293Y-95965954D01*
X165424319Y-95965971D01*
X165445895Y-95978314D01*
X165454559Y-95983271D01*
X165454562Y-95983272D01*
X165454565Y-95983274D01*
X165474446Y-95992218D01*
X165484473Y-95996729D01*
X165515761Y-96008130D01*
X165515772Y-96008133D01*
X165515776Y-96008135D01*
X165550131Y-96019266D01*
X165589148Y-96031884D01*
X165589414Y-96031973D01*
X165634784Y-96047856D01*
X165635184Y-96048005D01*
X165652753Y-96054885D01*
X165677803Y-96064695D01*
X165684257Y-96070902D01*
X165684431Y-96079855D01*
X165684363Y-96080026D01*
X165595764Y-96296175D01*
X165589455Y-96302531D01*
X165589375Y-96302564D01*
X165373275Y-96391143D01*
X165364321Y-96391110D01*
X165358012Y-96384754D01*
X165357925Y-96384536D01*
X165341297Y-96341522D01*
X165341114Y-96341012D01*
X165328251Y-96302531D01*
X165325783Y-96295149D01*
X165325681Y-96294827D01*
X165313884Y-96255059D01*
X165303781Y-96219877D01*
X165303774Y-96219855D01*
X165293516Y-96187769D01*
X165293514Y-96187765D01*
X165293510Y-96187752D01*
X165281168Y-96157011D01*
X165264851Y-96125981D01*
X165264847Y-96125975D01*
X165264845Y-96125971D01*
X165242663Y-96093002D01*
X165242655Y-96092990D01*
X165212676Y-96056364D01*
X165180830Y-96022698D01*
X165177636Y-96014334D01*
X165181057Y-96006387D01*
X165306353Y-95881091D01*
X165314625Y-95877665D01*
X165322700Y-95880899D01*
G37*
%TD.AperFunction*%
%TD*%
%TA.AperFunction,Conductor*%
%TO.N,USB_D-*%
G36*
X143937304Y-89196399D02*
G01*
X143937538Y-89196640D01*
X143949477Y-89209336D01*
X143967766Y-89228787D01*
X143968311Y-89229410D01*
X143997181Y-89264833D01*
X143997715Y-89265541D01*
X144019660Y-89297122D01*
X144020089Y-89297787D01*
X144037499Y-89326922D01*
X144037741Y-89327347D01*
X144053031Y-89355544D01*
X144053032Y-89355544D01*
X144068445Y-89383965D01*
X144078356Y-89400549D01*
X144086185Y-89413651D01*
X144108599Y-89445906D01*
X144108604Y-89445912D01*
X144138015Y-89482001D01*
X144138028Y-89482016D01*
X144169035Y-89514990D01*
X144172206Y-89523365D01*
X144168818Y-89531245D01*
X144004153Y-89697233D01*
X143995894Y-89700693D01*
X143995814Y-89700693D01*
X143762746Y-89700035D01*
X143754483Y-89696585D01*
X143751079Y-89688302D01*
X143751125Y-89687302D01*
X143754530Y-89648882D01*
X143754866Y-89646953D01*
X143766388Y-89603290D01*
X143766880Y-89601831D01*
X143782906Y-89563076D01*
X143783285Y-89562254D01*
X143801272Y-89526962D01*
X143818339Y-89494180D01*
X143831453Y-89463034D01*
X143837788Y-89432249D01*
X143834520Y-89400547D01*
X143818822Y-89366653D01*
X143794664Y-89337493D01*
X143792025Y-89328936D01*
X143795400Y-89321757D01*
X143920759Y-89196398D01*
X143929031Y-89192972D01*
X143937304Y-89196399D01*
G37*
%TD.AperFunction*%
%TD*%
%TA.AperFunction,Conductor*%
%TO.N,USB_D-*%
G36*
X142590104Y-91504780D02*
G01*
X142593526Y-91512717D01*
X142594857Y-91559075D01*
X142599702Y-91606130D01*
X142607558Y-91645123D01*
X142607561Y-91645136D01*
X142618224Y-91678526D01*
X142618232Y-91678548D01*
X142631526Y-91708920D01*
X142647270Y-91738817D01*
X142647403Y-91739053D01*
X142665213Y-91770663D01*
X142665246Y-91770788D01*
X142665275Y-91770773D01*
X142685250Y-91807135D01*
X142685448Y-91807512D01*
X142707183Y-91850737D01*
X142707425Y-91851249D01*
X142726124Y-91893405D01*
X142726346Y-91902357D01*
X142720173Y-91908844D01*
X142719946Y-91908942D01*
X142504517Y-91999109D01*
X142495563Y-91999142D01*
X142495483Y-91999109D01*
X142279984Y-91908913D01*
X142273675Y-91902557D01*
X142273708Y-91893603D01*
X142273717Y-91893581D01*
X142292042Y-91851563D01*
X142292186Y-91851249D01*
X142312925Y-91807861D01*
X142331431Y-91771232D01*
X142347592Y-91739053D01*
X142361371Y-91708859D01*
X142372728Y-91678182D01*
X142381628Y-91644559D01*
X142388031Y-91605523D01*
X142391901Y-91558610D01*
X142392941Y-91512788D01*
X142396555Y-91504594D01*
X142404638Y-91501353D01*
X142581831Y-91501353D01*
X142590104Y-91504780D01*
G37*
%TD.AperFunction*%
%TD*%
%TA.AperFunction,Conductor*%
%TO.N,USB_D+*%
G36*
X144503277Y-91469031D02*
G01*
X144503460Y-91469217D01*
X144542137Y-91509658D01*
X144542597Y-91510169D01*
X144578403Y-91552305D01*
X144578975Y-91553035D01*
X144605978Y-91590458D01*
X144606574Y-91591374D01*
X144608371Y-91594442D01*
X144626961Y-91626188D01*
X144627478Y-91627176D01*
X144643460Y-91661623D01*
X144643793Y-91662416D01*
X144657532Y-91698823D01*
X144657681Y-91699241D01*
X144671217Y-91739686D01*
X144671229Y-91739722D01*
X144686584Y-91786101D01*
X144705797Y-91840285D01*
X144726782Y-91893675D01*
X144726619Y-91902628D01*
X144720410Y-91908748D01*
X144505210Y-91998821D01*
X144496256Y-91998854D01*
X144496199Y-91998831D01*
X144280521Y-91909109D01*
X144274199Y-91902767D01*
X144274212Y-91893812D01*
X144274511Y-91893154D01*
X144288724Y-91864177D01*
X144289333Y-91863085D01*
X144311376Y-91828152D01*
X144311785Y-91827551D01*
X144334784Y-91796073D01*
X144334842Y-91795995D01*
X144356784Y-91767218D01*
X144375559Y-91740398D01*
X144389201Y-91714598D01*
X144395777Y-91688839D01*
X144393353Y-91662139D01*
X144390922Y-91656930D01*
X144379998Y-91633519D01*
X144360598Y-91610197D01*
X144357942Y-91601645D01*
X144361319Y-91594443D01*
X144486732Y-91469030D01*
X144495004Y-91465604D01*
X144503277Y-91469031D01*
G37*
%TD.AperFunction*%
%TD*%
%TA.AperFunction,Conductor*%
%TO.N,USB_D+*%
G36*
X143003800Y-89701168D02*
G01*
X143219422Y-89790867D01*
X143225744Y-89797209D01*
X143225731Y-89806164D01*
X143225407Y-89806873D01*
X143210670Y-89836552D01*
X143209998Y-89837729D01*
X143186964Y-89873138D01*
X143186455Y-89873860D01*
X143162215Y-89905592D01*
X143162021Y-89905839D01*
X143138613Y-89934835D01*
X143118306Y-89961843D01*
X143118288Y-89961870D01*
X143103207Y-89987854D01*
X143103206Y-89987856D01*
X143095427Y-90013831D01*
X143095427Y-90013833D01*
X143095427Y-90013834D01*
X143097022Y-90040832D01*
X143110061Y-90069875D01*
X143115495Y-90076448D01*
X143129831Y-90093789D01*
X143132462Y-90102349D01*
X143129087Y-90109517D01*
X143003686Y-90234918D01*
X142995413Y-90238345D01*
X142987140Y-90234918D01*
X142986924Y-90234697D01*
X142948625Y-90194322D01*
X142948095Y-90193723D01*
X142913120Y-90151399D01*
X142912486Y-90150558D01*
X142886606Y-90112775D01*
X142885983Y-90111754D01*
X142866892Y-90076448D01*
X142866385Y-90075387D01*
X142851758Y-90040315D01*
X142851460Y-90039519D01*
X142842877Y-90013831D01*
X142839061Y-90002411D01*
X142838994Y-90002200D01*
X142826689Y-89961051D01*
X142812381Y-89914189D01*
X142793897Y-89859726D01*
X142773155Y-89806296D01*
X142773356Y-89797344D01*
X142779543Y-89791270D01*
X142994789Y-89701177D01*
X143003743Y-89701145D01*
X143003800Y-89701168D01*
G37*
%TD.AperFunction*%
%TD*%
%TA.AperFunction,Conductor*%
%TO.N,STATUS_Y*%
G36*
X165605210Y-91101178D02*
G01*
X165785472Y-91176627D01*
X165819547Y-91190890D01*
X165820410Y-91191251D01*
X165826719Y-91197607D01*
X165826782Y-91206324D01*
X165805797Y-91259713D01*
X165786584Y-91313896D01*
X165771229Y-91360276D01*
X165771217Y-91360312D01*
X165757681Y-91400756D01*
X165757533Y-91401174D01*
X165743794Y-91437582D01*
X165743460Y-91438375D01*
X165727478Y-91472821D01*
X165726961Y-91473809D01*
X165706580Y-91508614D01*
X165705972Y-91509548D01*
X165678975Y-91546962D01*
X165678403Y-91547692D01*
X165642597Y-91589829D01*
X165642137Y-91590340D01*
X165603460Y-91630782D01*
X165595265Y-91634392D01*
X165586917Y-91631151D01*
X165586731Y-91630968D01*
X165461319Y-91505556D01*
X165457892Y-91497283D01*
X165460597Y-91489801D01*
X165479996Y-91466482D01*
X165479995Y-91466482D01*
X165479998Y-91466480D01*
X165488900Y-91447400D01*
X165493353Y-91437860D01*
X165495777Y-91411160D01*
X165489201Y-91385400D01*
X165475559Y-91359601D01*
X165456784Y-91332780D01*
X165434872Y-91304041D01*
X165434748Y-91303875D01*
X165411805Y-91272475D01*
X165411357Y-91271816D01*
X165403720Y-91259713D01*
X165389324Y-91236900D01*
X165388729Y-91235834D01*
X165374509Y-91206843D01*
X165373944Y-91197908D01*
X165379863Y-91191188D01*
X165380501Y-91190898D01*
X165596199Y-91101167D01*
X165605154Y-91101155D01*
X165605210Y-91101178D01*
G37*
%TD.AperFunction*%
%TD*%
%TA.AperFunction,Conductor*%
%TO.N,STATUS_Y*%
G36*
X151306382Y-100973741D02*
G01*
X151306556Y-100973815D01*
X151348778Y-100992377D01*
X151349160Y-100992555D01*
X151392551Y-101013800D01*
X151392843Y-101013948D01*
X151418616Y-101027499D01*
X151421442Y-101029581D01*
X151432233Y-101040372D01*
X151532288Y-101091352D01*
X151587744Y-101100135D01*
X151643199Y-101108919D01*
X151643199Y-101108918D01*
X151643200Y-101108919D01*
X151686471Y-101102065D01*
X151695177Y-101104155D01*
X151699856Y-101111791D01*
X151700000Y-101113621D01*
X151700000Y-101288594D01*
X151696573Y-101296867D01*
X151688599Y-101300290D01*
X151642350Y-101301470D01*
X151595194Y-101305813D01*
X151595184Y-101305814D01*
X151556051Y-101312919D01*
X151522415Y-101322680D01*
X151522405Y-101322683D01*
X151491786Y-101334980D01*
X151491772Y-101334986D01*
X151461614Y-101349732D01*
X151429463Y-101366796D01*
X151429423Y-101366817D01*
X151392851Y-101386046D01*
X151392551Y-101386198D01*
X151349188Y-101407430D01*
X151348752Y-101407633D01*
X151306574Y-101426176D01*
X151297621Y-101426368D01*
X151291154Y-101420174D01*
X151291072Y-101419982D01*
X151255498Y-101334988D01*
X151200889Y-101204515D01*
X151200857Y-101195563D01*
X151291072Y-100980016D01*
X151297428Y-100973708D01*
X151306382Y-100973741D01*
G37*
%TD.AperFunction*%
%TD*%
%TA.AperFunction,Conductor*%
%TO.N,STATUS_R*%
G36*
X166619982Y-91191072D02*
G01*
X166626291Y-91197428D01*
X166626258Y-91206382D01*
X166626176Y-91206574D01*
X166607633Y-91248752D01*
X166607430Y-91249188D01*
X166586198Y-91292551D01*
X166586046Y-91292851D01*
X166566838Y-91329383D01*
X166566817Y-91329423D01*
X166549732Y-91361614D01*
X166534986Y-91391772D01*
X166534980Y-91391786D01*
X166522683Y-91422405D01*
X166522680Y-91422415D01*
X166512919Y-91456051D01*
X166505814Y-91495184D01*
X166505813Y-91495194D01*
X166501470Y-91542350D01*
X166500291Y-91588598D01*
X166496654Y-91596781D01*
X166488595Y-91600000D01*
X166311405Y-91600000D01*
X166303132Y-91596573D01*
X166299709Y-91588599D01*
X166298528Y-91542350D01*
X166298528Y-91542340D01*
X166294186Y-91495195D01*
X166287080Y-91456055D01*
X166277319Y-91422416D01*
X166265010Y-91391769D01*
X166250262Y-91361607D01*
X166233182Y-91329423D01*
X166213948Y-91292843D01*
X166213800Y-91292551D01*
X166192555Y-91249160D01*
X166192377Y-91248778D01*
X166173822Y-91206573D01*
X166173631Y-91197621D01*
X166179825Y-91191154D01*
X166179962Y-91191095D01*
X166395484Y-91100889D01*
X166404437Y-91100857D01*
X166619982Y-91191072D01*
G37*
%TD.AperFunction*%
%TD*%
%TA.AperFunction,Conductor*%
%TO.N,STATUS_R*%
G36*
X151428529Y-102009032D02*
G01*
X151434838Y-102015388D01*
X151435051Y-102015947D01*
X151450714Y-102060537D01*
X151451085Y-102061828D01*
X151462069Y-102110274D01*
X151462276Y-102111467D01*
X151467438Y-102154481D01*
X151467506Y-102155286D01*
X151469485Y-102194532D01*
X151469491Y-102194667D01*
X151470920Y-102231452D01*
X151470922Y-102231477D01*
X151474490Y-102266898D01*
X151474493Y-102266920D01*
X151482904Y-102302336D01*
X151482904Y-102302338D01*
X151482906Y-102302344D01*
X151482907Y-102302345D01*
X151498878Y-102339205D01*
X151525112Y-102378914D01*
X151546633Y-102403057D01*
X151556967Y-102414650D01*
X151559914Y-102423106D01*
X151556506Y-102430708D01*
X151430899Y-102556315D01*
X151422626Y-102559742D01*
X151414632Y-102556585D01*
X151414343Y-102556315D01*
X151374116Y-102518676D01*
X151374109Y-102518669D01*
X151363195Y-102509923D01*
X151331196Y-102484279D01*
X151292700Y-102458341D01*
X151292693Y-102458337D01*
X151292683Y-102458331D01*
X151257144Y-102438036D01*
X151257139Y-102438033D01*
X151223059Y-102420547D01*
X151189202Y-102403174D01*
X151188741Y-102402924D01*
X151153797Y-102382968D01*
X151153061Y-102382511D01*
X151147722Y-102378914D01*
X151115323Y-102357084D01*
X151114544Y-102356511D01*
X151092949Y-102339205D01*
X151072351Y-102322698D01*
X151071691Y-102322126D01*
X151032018Y-102285006D01*
X151028319Y-102276853D01*
X151031470Y-102268470D01*
X151031678Y-102268254D01*
X151197624Y-102100975D01*
X151201485Y-102098394D01*
X151419576Y-102008999D01*
X151428529Y-102009032D01*
G37*
%TD.AperFunction*%
%TD*%
D32*
X204693200Y-124800000D02*
G75*
G02*
X204193200Y-125300000I-500000J0D01*
G01*
X204193200Y-83300000D02*
G75*
G02*
X204693200Y-83800000I0J-500000D01*
G01*
X97993200Y-83300000D02*
X174993200Y-83300000D01*
X91493200Y-124800000D02*
X91493200Y-89800000D01*
X186993200Y-83299999D02*
X204193200Y-83299999D01*
X91493200Y-89800000D02*
G75*
G02*
X91993200Y-89300000I500000J0D01*
G01*
X204693200Y-83800000D02*
X204693200Y-124800000D01*
X174998290Y-83300000D02*
G75*
G02*
X175498300Y-83799999I10J-500000D01*
G01*
X97493200Y-83800000D02*
G75*
G02*
X97993200Y-83300000I500000J0D01*
G01*
X97493200Y-83800000D02*
G75*
G02*
X91993200Y-89300000I-5500000J0D01*
G01*
X91993200Y-125300000D02*
G75*
G02*
X91493200Y-124800000I0J500000D01*
G01*
X186490757Y-83807533D02*
G75*
G02*
X175505838Y-83799999I-5492457J7533D01*
G01*
X186493200Y-83800000D02*
G75*
G02*
X186993200Y-83300000I500000J0D01*
G01*
X204193200Y-125300000D02*
X91993200Y-125300000D01*
M02*
