M48
; DRILL file {KiCad 8.0.3} date 2024-07-04T14:19:14-0400
; FORMAT={-:-/ absolute / inch / decimal}
; #@! TF.CreationDate,2024-07-04T14:19:14-04:00
; #@! TF.GenerationSoftware,Kicad,Pcbnew,8.0.3
; #@! TF.FileFunction,Plated,1,4,PTH
FMAT,2
INCH
; #@! TA.AperFunction,Plated,PTH,ViaDrill
T1C0.0079
; #@! TA.AperFunction,Plated,PTH,ComponentDrill
T2C0.0079
; #@! TA.AperFunction,Plated,PTH,ComponentDrill
T3C0.0315
; #@! TA.AperFunction,Plated,PTH,ComponentDrill
T4C0.0394
; #@! TA.AperFunction,Plated,PTH,ComponentDrill
T5C0.0709
%
G90
G05
T1
X3.7011Y-3.5965
X3.7011Y-3.6965
X3.7011Y-3.7965
X3.7011Y-3.8965
X3.7011Y-3.9965
X3.7011Y-4.0965
X3.7011Y-4.1965
X3.7011Y-4.2965
X3.7011Y-4.3965
X3.7011Y-4.4965
X3.7011Y-4.5965
X3.8011Y-3.4965
X3.8011Y-3.5965
X3.8011Y-3.6965
X3.8011Y-3.7965
X3.8011Y-3.8965
X3.8011Y-3.9965
X3.8011Y-4.0965
X3.8011Y-4.1965
X3.8011Y-4.2965
X3.8011Y-4.3965
X3.8011Y-4.4965
X3.8011Y-4.5965
X3.9011Y-4.0965
X3.9011Y-4.1965
X3.9011Y-4.2965
X3.9011Y-4.3965
X3.9011Y-4.4965
X3.9606Y-4.6024
X3.9882Y-4.6024
X4.0011Y-4.0965
X4.0011Y-4.1965
X4.0011Y-4.2965
X4.0011Y-4.3965
X4.1001Y-4.3976
X4.1011Y-3.3965
X4.1011Y-3.4965
X4.1011Y-3.5965
X4.1011Y-3.6965
X4.1011Y-3.7965
X4.1011Y-3.8965
X4.1011Y-3.9965
X4.1011Y-4.0965
X4.1011Y-4.1965
X4.1245Y-4.3976
X4.173Y-4.373
X4.2011Y-3.6965
X4.2011Y-3.7965
X4.2011Y-3.8965
X4.2011Y-3.9965
X4.2011Y-4.0965
X4.2011Y-4.1965
X4.232Y-4.373
X4.296Y-4.4291
X4.296Y-4.4567
X4.3011Y-3.6965
X4.3011Y-3.7965
X4.3011Y-3.8965
X4.3011Y-3.9965
X4.3011Y-4.0965
X4.3011Y-4.1965
X4.3255Y-4.3907
X4.3425Y-4.5433
X4.358Y-4.563
X4.36Y-4.3642
X4.3698Y-4.3858
X4.3799Y-4.5492
X4.4011Y-3.3965
X4.4011Y-3.5965
X4.4011Y-3.6965
X4.4011Y-3.7965
X4.4011Y-3.8965
X4.4011Y-3.9965
X4.4011Y-4.0965
X4.4011Y-4.1965
X4.4013Y-4.6004
X4.4033Y-4.3425
X4.4114Y-4.5768
X4.4249Y-4.3543
X4.4567Y-4.374
X4.4606Y-4.6024
X4.4761Y-4.3543
X4.4882Y-4.6024
X4.4919Y-4.4921
X4.4923Y-4.3857
X4.5115Y-4.3661
X4.5273Y-4.4213
X4.5394Y-4.4567
X4.547Y-4.4035
X4.5588Y-4.439
X4.6011Y-4.0965
X4.6011Y-4.1965
X4.6848Y-4.4409
X4.6848Y-4.4843
X4.7011Y-4.0965
X4.7045Y-4.563
X4.7241Y-4.5118
X4.7438Y-4.4488
X4.744Y-4.4923
X4.7441Y-4.5354
X4.7635Y-4.378
X4.7911Y-4.435
X4.8011Y-3.3965
X4.8011Y-3.4965
X4.8011Y-3.5965
X4.8011Y-3.6965
X4.8011Y-3.7965
X4.8011Y-3.8965
X4.8011Y-3.9965
X4.8011Y-4.0965
X4.8167Y-4.378
X4.8344Y-4.5748
X4.8423Y-4.5433
X4.8425Y-4.378
X4.9011Y-3.3965
X4.9011Y-3.4965
X4.9011Y-3.5965
X4.9011Y-3.6965
X4.9011Y-3.7965
X4.9011Y-3.8965
X4.9011Y-3.9965
X4.9011Y-4.0965
X4.9554Y-4.5364
X4.9567Y-4.437
X4.9651Y-4.6024
X4.984Y-4.4409
X4.985Y-4.4705
X4.9926Y-4.6024
X5.0011Y-3.6965
X5.0011Y-3.7965
X5.0011Y-3.8965
X5.0011Y-3.9965
X5.0011Y-4.0965
X5.0194Y-4.373
X5.0785Y-4.373
X5.1011Y-3.6965
X5.1011Y-3.7965
X5.1011Y-3.8965
X5.1011Y-3.9965
X5.1011Y-4.0965
X5.2011Y-3.3965
X5.2011Y-3.5965
X5.2011Y-3.6965
X5.2011Y-3.7965
X5.2011Y-3.8965
X5.2011Y-3.9965
X5.2011Y-4.0965
X5.3029Y-4.3957
X5.3511Y-4.4465
X5.3511Y-4.4965
X5.3511Y-4.8465
X5.3521Y-4.1969
X5.3521Y-4.3957
X5.4011Y-4.0965
X5.4011Y-4.1465
X5.4011Y-4.4465
X5.4011Y-4.4965
X5.4011Y-4.5465
X5.4011Y-4.7965
X5.4011Y-4.8465
X5.4013Y-4.1969
X5.4013Y-4.3957
X5.4484Y-3.3469
X5.4484Y-3.611
X5.4505Y-4.1969
X5.4505Y-4.3957
X5.4511Y-3.8965
X5.4511Y-3.9465
X5.4511Y-3.9965
X5.4511Y-4.0465
X5.4511Y-4.0965
X5.4511Y-4.1465
X5.4511Y-4.4465
X5.4511Y-4.4965
X5.4511Y-4.5465
X5.4511Y-4.5965
X5.4511Y-4.8465
X5.484Y-3.686
X5.484Y-3.7795
X5.5011Y-3.8965
X5.5011Y-3.9465
X5.5011Y-3.9965
X5.5011Y-4.0465
X5.5011Y-4.0965
X5.5011Y-4.1465
X5.5017Y-4.1969
X5.5017Y-4.3957
X5.5234Y-3.686
X5.5234Y-3.7795
X5.5236Y-3.6142
X5.545Y-4.4626
X5.5461Y-4.6248
X5.5509Y-4.1969
X5.5509Y-4.3957
X5.5511Y-3.3465
X5.5511Y-3.3965
X5.5511Y-3.8965
X5.5511Y-3.9465
X5.5511Y-3.9965
X5.5511Y-4.0465
X5.5511Y-4.0965
X5.5511Y-4.1465
X5.5551Y-3.6142
X5.5647Y-4.4793
X5.5709Y-3.5394
X5.5942Y-3.6575
X5.6001Y-4.3957
X5.6011Y-3.3465
X5.6011Y-3.3965
X5.6011Y-3.9465
X5.6102Y-3.622
X5.6299Y-3.5315
X5.6331Y-4.1661
X5.6335Y-4.0327
X5.6335Y-4.0992
X5.6395Y-4.4872
X5.6511Y-3.3465
X5.6511Y-3.3965
X5.6513Y-4.3957
X5.6611Y-4.5472
X5.6693Y-3.5315
X5.6858Y-4.5472
X5.689Y-3.622
X5.7005Y-4.3957
X5.7045Y-3.6575
X5.7087Y-3.5394
X5.734Y-3.7618
X5.734Y-3.7854
X5.734Y-3.8091
X5.7441Y-3.6142
X5.7512Y-4.5744
X5.7528Y-4.6248
X5.7556Y-4.4094
X5.7714Y-4.248
X5.7714Y-4.2795
X5.7714Y-4.3071
X5.7714Y-4.3346
X5.7714Y-4.3622
X5.7714Y-4.3898
X5.7756Y-3.6142
X5.797Y-4.248
X5.8196Y-4.4596
X5.8216Y-4.499
X5.8217Y-4.6248
X5.8423Y-3.7638
X5.8423Y-3.7874
X5.8423Y-3.811
X5.8508Y-3.3469
X5.8508Y-3.6114
X5.9249Y-4.3386
X5.9327Y-4.5783
X5.9328Y-4.002
X5.9328Y-4.6043
X5.9508Y-3.9508
X5.9515Y-4.3356
X5.9528Y-3.9843
X5.9528Y-4.0197
X5.9643Y-3.5591
X5.9702Y-3.9665
X6.0037Y-3.5591
X6.0276Y-4.5783
X6.0283Y-4.6248
X6.043Y-3.5591
X6.046Y-4.3356
X6.1198Y-3.9695
X6.1198Y-4.0089
X6.1287Y-3.3787
X6.1795Y-4.6248
X6.1907Y-4.5098
X6.1986Y-3.8002
X6.1986Y-3.8396
X6.1986Y-3.8622
X6.1986Y-4.4833
X6.2045Y-3.9518
X6.2224Y-3.3937
X6.2596Y-3.7421
X6.2598Y-3.7677
X6.2734Y-4.4911
X6.2793Y-3.7421
X6.2795Y-3.7677
X6.295Y-4.5512
X6.3068Y-3.7077
X6.3071Y-4.311
X6.3108Y-4.1427
X6.3196Y-4.5512
X6.3344Y-4.2077
X6.3423Y-4.2598
X6.3462Y-3.7077
X6.3693Y-3.3799
X6.3854Y-4.5783
X6.3856Y-3.7077
X6.387Y-4.6248
X6.4011Y-4.6965
X6.4366Y-3.5799
X6.4551Y-4.6244
X6.4574Y-4.4567
X6.4584Y-4.499
X6.4604Y-3.5827
X6.4604Y-4.1693
X6.4643Y-4.1427
X6.4879Y-4.2067
X6.4882Y-3.5866
X6.5194Y-3.7913
X6.5197Y-3.5866
X6.5236Y-3.6969
X6.5236Y-3.7598
X6.543Y-3.5591
X6.5472Y-3.7402
X6.5509Y-3.6988
X6.5512Y-3.5866
X6.5706Y-4.5512
X6.5862Y-3.3913
X6.5866Y-3.7953
X6.5952Y-4.5512
X6.6011Y-4.4465
X6.6572Y-3.9852
X6.6614Y-4.5783
X6.6622Y-4.6248
X6.6858Y-3.5817
X6.7005Y-3.9921
X6.7011Y-4.6965
X6.7163Y-3.9213
X6.7163Y-3.9606
X6.7209Y-3.8197
X6.7511Y-4.6965
X6.7517Y-4.1299
X6.7861Y-3.5472
X6.8011Y-3.9465
X6.8011Y-3.9965
X6.8094Y-4.6248
X6.8206Y-4.5079
X6.8285Y-4.4833
X6.8497Y-4.3451
X6.8499Y-4.2429
X6.8499Y-4.2939
X6.8501Y-4.2431
X6.8511Y-3.8965
X6.8511Y-3.9465
X6.8511Y-3.9965
X6.9009Y-4.3451
X6.9011Y-4.0971
X6.9011Y-4.1463
X6.9011Y-4.2957
X6.9011Y-4.3449
X6.9011Y-3.9465
X6.9011Y-3.9965
X6.9011Y-4.0465
X6.9023Y-4.4911
X6.9249Y-4.5492
X6.9495Y-4.5502
X6.9511Y-4.1961
X6.9511Y-4.3451
X6.9511Y-3.9465
X6.9511Y-3.9965
X6.9511Y-4.0465
X6.9511Y-4.0965
X6.9511Y-4.1465
X6.9823Y-3.8031
X6.9823Y-3.8268
X6.9823Y-3.8504
X7.0157Y-4.5744
X7.0165Y-4.6248
X7.0834Y-4.4557
X7.085Y-4.6248
X7.0854Y-4.499
X7.1004Y-3.7736
X7.124Y-3.7736
X7.1297Y-4.3189
X7.1297Y-4.3425
X7.1297Y-4.3661
X7.1476Y-3.7736
X7.1966Y-4.5984
X7.1969Y-4.5744
X7.2261Y-4.4035
X7.2399Y-4.3858
X7.2537Y-4.4035
X7.2917Y-4.5744
X7.2925Y-4.6248
X7.3147Y-4.0118
X7.3659Y-4.063
X7.4013Y-4.2096
X7.4033Y-4.6457
X7.4033Y-4.6732
X7.421Y-4.6594
X7.4397Y-4.2096
X7.4446Y-4.5512
X7.4682Y-4.5512
X7.4919Y-4.5512
X7.5197Y-3.4862
X7.5588Y-3.9961
X7.5709Y-3.4685
X7.5745Y-4.0118
X7.5903Y-3.9961
X7.5974Y-3.4291
X7.7891Y-4.7362
X7.815Y-3.4862
X7.8226Y-4.7874
X7.8346Y-3.9409
X7.8661Y-3.4744
X7.9446Y-4.4331
X7.9461Y-4.4602
X7.9612Y-4.1555
X7.986Y-4.1555
X8.0107Y-4.1555
T2
X6.0312Y-4.1348
X6.0312Y-4.1978
X6.0312Y-4.2608
X6.0942Y-4.1348
X6.0942Y-4.1978
X6.0942Y-4.2608
X6.1572Y-4.1348
X6.1572Y-4.1978
X6.1572Y-4.2608
X6.4013Y-3.9104
X6.4013Y-3.9577
X6.4013Y-4.0049
X6.4486Y-3.9104
X6.4486Y-3.9577
X6.4486Y-4.0049
X6.4958Y-3.9104
X6.4958Y-3.9577
X6.4958Y-4.0049
X7.0549Y-4.0626
X7.0549Y-4.165
X7.0549Y-4.2673
X7.0982Y-4.1138
X7.1001Y-4.2161
X7.1454Y-4.0626
X7.1454Y-4.1654
X7.1454Y-4.2673
X7.1907Y-4.1138
X7.1907Y-4.2161
X7.236Y-4.0626
X7.236Y-4.165
X7.236Y-4.2673
X7.5405Y-4.4754
X7.5405Y-4.5659
X7.5405Y-4.6565
X7.5504Y-4.1297
X7.5504Y-4.1494
X7.5504Y-4.1691
X7.5917Y-4.5207
X7.5917Y-4.6112
X7.6424Y-4.5659
X7.6428Y-4.4754
X7.6428Y-4.6565
X7.694Y-4.5187
X7.694Y-4.6112
X7.7452Y-4.4754
X7.7452Y-4.5659
X7.7452Y-4.6565
X7.7866Y-4.3581
X7.7866Y-4.3896
X7.8467Y-4.3581
X7.8467Y-4.3896
X7.8801Y-4.3581
X7.8801Y-4.3896
X7.9136Y-4.3581
X7.9136Y-4.3896
T3
X3.9663Y-4.7559
X4.0453Y-4.7559
X4.1243Y-4.7559
X4.2033Y-4.7559
X4.2823Y-4.7559
X4.4677Y-4.7559
X4.5468Y-4.7559
X4.6257Y-4.7559
X4.7048Y-4.7559
X4.7837Y-4.7559
X4.9702Y-4.7559
X5.0492Y-4.7559
X5.1282Y-4.7559
X5.2072Y-4.7559
X5.2862Y-4.7559
X5.61Y-4.7441
X5.6887Y-4.7441
X5.8856Y-4.7441
X5.9643Y-4.7441
X6.2438Y-4.7441
X6.3226Y-4.7441
X6.5194Y-4.7441
X6.5982Y-4.7441
X6.8737Y-4.7441
X6.9525Y-4.7441
X7.1493Y-4.7441
X7.2281Y-4.7441
T5
X7.5726Y-3.6299
X7.5726Y-3.7953
T4
G00X3.9171Y-3.378
M15
G01X3.9171Y-3.5354
M16
G05
G00X3.9171Y-3.6083
M15
G01X3.9171Y-3.7657
M16
G05
G00X3.9171Y-3.8386
M15
G01X3.9171Y-3.9961
M16
G05
G00X4.547Y-3.378
M15
G01X4.547Y-3.5354
M16
G05
G00X4.547Y-3.6083
M15
G01X4.547Y-3.7657
M16
G05
G00X4.547Y-3.8386
M15
G01X4.547Y-3.9961
M16
G05
G00X4.7045Y-3.378
M15
G01X4.7045Y-3.5354
M16
G05
G00X4.7045Y-3.6083
M15
G01X4.7045Y-3.7657
M16
G05
G00X4.7045Y-3.8386
M15
G01X4.7045Y-3.9961
M16
G05
G00X5.3344Y-3.378
M15
G01X5.3344Y-3.5354
M16
G05
G00X5.3344Y-3.6083
M15
G01X5.3344Y-3.7657
M16
G05
G00X5.3344Y-3.8386
M15
G01X5.3344Y-3.9961
M16
G05
M30
