%TF.GenerationSoftware,KiCad,Pcbnew,8.0.3*%
%TF.CreationDate,2024-07-04T15:42:04-04:00*%
%TF.ProjectId,baseboard,62617365-626f-4617-9264-2e6b69636164,A*%
%TF.SameCoordinates,Original*%
%TF.FileFunction,Soldermask,Top*%
%TF.FilePolarity,Negative*%
%FSLAX46Y46*%
G04 Gerber Fmt 4.6, Leading zero omitted, Abs format (unit mm)*
G04 Created by KiCad (PCBNEW 8.0.3) date 2024-07-04 15:42:04*
%MOMM*%
%LPD*%
G01*
G04 APERTURE LIST*
G04 Aperture macros list*
%AMRoundRect*
0 Rectangle with rounded corners*
0 $1 Rounding radius*
0 $2 $3 $4 $5 $6 $7 $8 $9 X,Y pos of 4 corners*
0 Add a 4 corners polygon primitive as box body*
4,1,4,$2,$3,$4,$5,$6,$7,$8,$9,$2,$3,0*
0 Add four circle primitives for the rounded corners*
1,1,$1+$1,$2,$3*
1,1,$1+$1,$4,$5*
1,1,$1+$1,$6,$7*
1,1,$1+$1,$8,$9*
0 Add four rect primitives between the rounded corners*
20,1,$1+$1,$2,$3,$4,$5,0*
20,1,$1+$1,$4,$5,$6,$7,0*
20,1,$1+$1,$6,$7,$8,$9,0*
20,1,$1+$1,$8,$9,$2,$3,0*%
G04 Aperture macros list end*
%ADD10C,0.100000*%
%ADD11C,0.150000*%
%ADD12C,0.300000*%
%ADD13RoundRect,0.225000X0.225000X0.250000X-0.225000X0.250000X-0.225000X-0.250000X0.225000X-0.250000X0*%
%ADD14RoundRect,0.200000X-0.275000X0.200000X-0.275000X-0.200000X0.275000X-0.200000X0.275000X0.200000X0*%
%ADD15C,1.000000*%
%ADD16RoundRect,0.250000X-0.375000X-1.075000X0.375000X-1.075000X0.375000X1.075000X-0.375000X1.075000X0*%
%ADD17RoundRect,0.125000X0.125000X0.225000X-0.125000X0.225000X-0.125000X-0.225000X0.125000X-0.225000X0*%
%ADD18R,1.400000X1.400000*%
%ADD19C,1.400000*%
%ADD20RoundRect,0.135000X-0.185000X0.135000X-0.185000X-0.135000X0.185000X-0.135000X0.185000X0.135000X0*%
%ADD21RoundRect,0.135000X0.185000X-0.135000X0.185000X0.135000X-0.185000X0.135000X-0.185000X-0.135000X0*%
%ADD22RoundRect,0.225000X-0.250000X0.225000X-0.250000X-0.225000X0.250000X-0.225000X0.250000X0.225000X0*%
%ADD23RoundRect,0.218750X-0.256250X0.218750X-0.256250X-0.218750X0.256250X-0.218750X0.256250X0.218750X0*%
%ADD24RoundRect,0.225000X0.250000X-0.225000X0.250000X0.225000X-0.250000X0.225000X-0.250000X-0.225000X0*%
%ADD25RoundRect,0.218750X0.256250X-0.218750X0.256250X0.218750X-0.256250X0.218750X-0.256250X-0.218750X0*%
%ADD26RoundRect,0.125000X-0.125000X-0.225000X0.125000X-0.225000X0.125000X0.225000X-0.125000X0.225000X0*%
%ADD27RoundRect,0.250000X0.250000X0.475000X-0.250000X0.475000X-0.250000X-0.475000X0.250000X-0.475000X0*%
%ADD28RoundRect,0.120000X0.480000X-0.480000X0.480000X0.480000X-0.480000X0.480000X-0.480000X-0.480000X0*%
%ADD29RoundRect,0.135000X-0.135000X-0.185000X0.135000X-0.185000X0.135000X0.185000X-0.135000X0.185000X0*%
%ADD30C,0.650000*%
%ADD31RoundRect,0.076000X0.304000X0.579000X-0.304000X0.579000X-0.304000X-0.579000X0.304000X-0.579000X0*%
%ADD32RoundRect,0.046000X0.184000X0.609000X-0.184000X0.609000X-0.184000X-0.609000X0.184000X-0.609000X0*%
%ADD33RoundRect,0.220400X0.971600X0.881600X-0.971600X0.881600X-0.971600X-0.881600X0.971600X-0.881600X0*%
%ADD34RoundRect,0.140000X0.140000X0.170000X-0.140000X0.170000X-0.140000X-0.170000X0.140000X-0.170000X0*%
%ADD35RoundRect,0.140000X-0.170000X0.140000X-0.170000X-0.140000X0.170000X-0.140000X0.170000X0.140000X0*%
%ADD36RoundRect,0.140000X-0.140000X-0.170000X0.140000X-0.170000X0.140000X0.170000X-0.140000X0.170000X0*%
%ADD37C,0.500000*%
%ADD38RoundRect,0.150000X-1.050000X-0.600000X1.050000X-0.600000X1.050000X0.600000X-1.050000X0.600000X0*%
%ADD39RoundRect,0.105000X-0.420000X-0.645000X0.420000X-0.645000X0.420000X0.645000X-0.420000X0.645000X0*%
%ADD40RoundRect,0.024000X0.276000X-0.096000X0.276000X0.096000X-0.276000X0.096000X-0.276000X-0.096000X0*%
%ADD41RoundRect,0.024000X0.096000X0.276000X-0.096000X0.276000X-0.096000X-0.276000X0.096000X-0.276000X0*%
%ADD42RoundRect,0.024000X-0.096000X-0.276000X0.096000X-0.276000X0.096000X0.276000X-0.096000X0.276000X0*%
%ADD43RoundRect,0.024000X-0.276000X0.096000X-0.276000X-0.096000X0.276000X-0.096000X0.276000X0.096000X0*%
%ADD44RoundRect,0.100000X-0.900000X0.400000X-0.900000X-0.400000X0.900000X-0.400000X0.900000X0.400000X0*%
%ADD45RoundRect,0.090000X0.410000X-0.360000X0.410000X0.360000X-0.410000X0.360000X-0.410000X-0.360000X0*%
%ADD46R,0.400000X0.250000*%
%ADD47R,0.400000X0.700000*%
%ADD48RoundRect,0.250000X-0.350000X0.850000X-0.350000X-0.850000X0.350000X-0.850000X0.350000X0.850000X0*%
%ADD49RoundRect,0.249997X-2.650003X2.950003X-2.650003X-2.950003X2.650003X-2.950003X2.650003X2.950003X0*%
%ADD50RoundRect,0.250000X0.375000X1.075000X-0.375000X1.075000X-0.375000X-1.075000X0.375000X-1.075000X0*%
%ADD51RoundRect,0.102000X-0.700000X-0.700000X0.700000X-0.700000X0.700000X0.700000X-0.700000X0.700000X0*%
%ADD52C,1.604000*%
%ADD53RoundRect,0.250000X-0.500000X0.950000X-0.500000X-0.950000X0.500000X-0.950000X0.500000X0.950000X0*%
%ADD54RoundRect,0.250000X-0.500000X0.275000X-0.500000X-0.275000X0.500000X-0.275000X0.500000X0.275000X0*%
%ADD55RoundRect,0.140000X0.170000X-0.140000X0.170000X0.140000X-0.170000X0.140000X-0.170000X-0.140000X0*%
%ADD56RoundRect,0.250000X-0.250000X-0.475000X0.250000X-0.475000X0.250000X0.475000X-0.250000X0.475000X0*%
%ADD57RoundRect,0.250000X-0.475000X0.250000X-0.475000X-0.250000X0.475000X-0.250000X0.475000X0.250000X0*%
%ADD58RoundRect,0.100000X0.775000X0.400000X-0.775000X0.400000X-0.775000X-0.400000X0.775000X-0.400000X0*%
%ADD59RoundRect,0.135000X0.135000X0.185000X-0.135000X0.185000X-0.135000X-0.185000X0.135000X-0.185000X0*%
%ADD60RoundRect,0.100000X0.900000X-0.400000X0.900000X0.400000X-0.900000X0.400000X-0.900000X-0.400000X0*%
%ADD61C,3.700000*%
%ADD62C,2.500000*%
%ADD63RoundRect,0.050000X0.050000X-0.387500X0.050000X0.387500X-0.050000X0.387500X-0.050000X-0.387500X0*%
%ADD64RoundRect,0.050000X0.387500X-0.050000X0.387500X0.050000X-0.387500X0.050000X-0.387500X-0.050000X0*%
%ADD65RoundRect,0.100000X1.500000X-1.500000X1.500000X1.500000X-1.500000X1.500000X-1.500000X-1.500000X0*%
%ADD66R,1.200000X1.400000*%
%ADD67RoundRect,0.225000X-0.225000X-0.250000X0.225000X-0.250000X0.225000X0.250000X-0.225000X0.250000X0*%
%ADD68RoundRect,0.500000X-0.500000X-2.300000X0.500000X-2.300000X0.500000X2.300000X-0.500000X2.300000X0*%
%ADD69RoundRect,0.250000X0.850000X0.350000X-0.850000X0.350000X-0.850000X-0.350000X0.850000X-0.350000X0*%
%ADD70RoundRect,0.249997X2.950003X2.650003X-2.950003X2.650003X-2.950003X-2.650003X2.950003X-2.650003X0*%
%ADD71RoundRect,0.218750X-0.218750X-0.256250X0.218750X-0.256250X0.218750X0.256250X-0.218750X0.256250X0*%
%ADD72RoundRect,0.090000X-0.410000X0.360000X-0.410000X-0.360000X0.410000X-0.360000X0.410000X0.360000X0*%
%ADD73RoundRect,0.100000X0.450000X-0.150000X0.450000X0.150000X-0.450000X0.150000X-0.450000X-0.150000X0*%
%ADD74C,0.660000*%
%ADD75RoundRect,0.100000X1.900000X-1.900000X1.900000X1.900000X-1.900000X1.900000X-1.900000X-1.900000X0*%
%ADD76C,3.000000*%
%ADD77RoundRect,0.093750X-0.093750X-0.106250X0.093750X-0.106250X0.093750X0.106250X-0.093750X0.106250X0*%
%ADD78RoundRect,0.100000X-0.400000X-0.700000X0.400000X-0.700000X0.400000X0.700000X-0.400000X0.700000X0*%
%ADD79R,1.000000X3.150000*%
%ADD80RoundRect,0.125000X-0.225000X0.125000X-0.225000X-0.125000X0.225000X-0.125000X0.225000X0.125000X0*%
%TA.AperFunction,Profile*%
%ADD81C,0.050000*%
%TD*%
G04 APERTURE END LIST*
D10*
D11*
X259813572Y-199154128D02*
X258956429Y-199154128D01*
X259385000Y-199154128D02*
X259385000Y-197654128D01*
X259385000Y-197654128D02*
X259242143Y-197868414D01*
X259242143Y-197868414D02*
X259099286Y-198011271D01*
X259099286Y-198011271D02*
X258956429Y-198082700D01*
X261527857Y-197582700D02*
X260242143Y-199511271D01*
X262813572Y-199154128D02*
X261956429Y-199154128D01*
X262385000Y-199154128D02*
X262385000Y-197654128D01*
X262385000Y-197654128D02*
X262242143Y-197868414D01*
X262242143Y-197868414D02*
X262099286Y-198011271D01*
X262099286Y-198011271D02*
X261956429Y-198082700D01*
D10*
D11*
X140409874Y-188759295D02*
X140867017Y-188759295D01*
X140638445Y-189559295D02*
X140638445Y-188759295D01*
X141133684Y-189559295D02*
X141133684Y-188759295D01*
X141400350Y-188759295D02*
X141857493Y-188759295D01*
X141628921Y-189559295D02*
X141628921Y-188759295D01*
X142505112Y-189559295D02*
X142124160Y-189559295D01*
X142124160Y-189559295D02*
X142124160Y-188759295D01*
X142771779Y-189140247D02*
X143038445Y-189140247D01*
X143152731Y-189559295D02*
X142771779Y-189559295D01*
X142771779Y-189559295D02*
X142771779Y-188759295D01*
X142771779Y-188759295D02*
X143152731Y-188759295D01*
D10*
D11*
X235596303Y-195909295D02*
X235329636Y-195528342D01*
X235139160Y-195909295D02*
X235139160Y-195109295D01*
X235139160Y-195109295D02*
X235443922Y-195109295D01*
X235443922Y-195109295D02*
X235520112Y-195147390D01*
X235520112Y-195147390D02*
X235558207Y-195185485D01*
X235558207Y-195185485D02*
X235596303Y-195261676D01*
X235596303Y-195261676D02*
X235596303Y-195375961D01*
X235596303Y-195375961D02*
X235558207Y-195452152D01*
X235558207Y-195452152D02*
X235520112Y-195490247D01*
X235520112Y-195490247D02*
X235443922Y-195528342D01*
X235443922Y-195528342D02*
X235139160Y-195528342D01*
X235939160Y-195490247D02*
X236205826Y-195490247D01*
X236320112Y-195909295D02*
X235939160Y-195909295D01*
X235939160Y-195909295D02*
X235939160Y-195109295D01*
X235939160Y-195109295D02*
X236320112Y-195109295D01*
X236548684Y-195109295D02*
X236815351Y-195909295D01*
X236815351Y-195909295D02*
X237082017Y-195109295D01*
X237348684Y-195909295D02*
X237348684Y-195109295D01*
X237691540Y-195871200D02*
X237805826Y-195909295D01*
X237805826Y-195909295D02*
X237996302Y-195909295D01*
X237996302Y-195909295D02*
X238072493Y-195871200D01*
X238072493Y-195871200D02*
X238110588Y-195833104D01*
X238110588Y-195833104D02*
X238148683Y-195756914D01*
X238148683Y-195756914D02*
X238148683Y-195680723D01*
X238148683Y-195680723D02*
X238110588Y-195604533D01*
X238110588Y-195604533D02*
X238072493Y-195566438D01*
X238072493Y-195566438D02*
X237996302Y-195528342D01*
X237996302Y-195528342D02*
X237843921Y-195490247D01*
X237843921Y-195490247D02*
X237767731Y-195452152D01*
X237767731Y-195452152D02*
X237729636Y-195414057D01*
X237729636Y-195414057D02*
X237691540Y-195337866D01*
X237691540Y-195337866D02*
X237691540Y-195261676D01*
X237691540Y-195261676D02*
X237729636Y-195185485D01*
X237729636Y-195185485D02*
X237767731Y-195147390D01*
X237767731Y-195147390D02*
X237843921Y-195109295D01*
X237843921Y-195109295D02*
X238034398Y-195109295D01*
X238034398Y-195109295D02*
X238148683Y-195147390D01*
X238491541Y-195909295D02*
X238491541Y-195109295D01*
X239024874Y-195109295D02*
X239177255Y-195109295D01*
X239177255Y-195109295D02*
X239253445Y-195147390D01*
X239253445Y-195147390D02*
X239329636Y-195223580D01*
X239329636Y-195223580D02*
X239367731Y-195375961D01*
X239367731Y-195375961D02*
X239367731Y-195642628D01*
X239367731Y-195642628D02*
X239329636Y-195795009D01*
X239329636Y-195795009D02*
X239253445Y-195871200D01*
X239253445Y-195871200D02*
X239177255Y-195909295D01*
X239177255Y-195909295D02*
X239024874Y-195909295D01*
X239024874Y-195909295D02*
X238948683Y-195871200D01*
X238948683Y-195871200D02*
X238872493Y-195795009D01*
X238872493Y-195795009D02*
X238834397Y-195642628D01*
X238834397Y-195642628D02*
X238834397Y-195375961D01*
X238834397Y-195375961D02*
X238872493Y-195223580D01*
X238872493Y-195223580D02*
X238948683Y-195147390D01*
X238948683Y-195147390D02*
X239024874Y-195109295D01*
X239710588Y-195909295D02*
X239710588Y-195109295D01*
X239710588Y-195109295D02*
X240167731Y-195909295D01*
X240167731Y-195909295D02*
X240167731Y-195109295D01*
D10*
D11*
X241489160Y-195909295D02*
X241489160Y-195109295D01*
X241489160Y-195109295D02*
X241679636Y-195109295D01*
X241679636Y-195109295D02*
X241793922Y-195147390D01*
X241793922Y-195147390D02*
X241870112Y-195223580D01*
X241870112Y-195223580D02*
X241908207Y-195299771D01*
X241908207Y-195299771D02*
X241946303Y-195452152D01*
X241946303Y-195452152D02*
X241946303Y-195566438D01*
X241946303Y-195566438D02*
X241908207Y-195718819D01*
X241908207Y-195718819D02*
X241870112Y-195795009D01*
X241870112Y-195795009D02*
X241793922Y-195871200D01*
X241793922Y-195871200D02*
X241679636Y-195909295D01*
X241679636Y-195909295D02*
X241489160Y-195909295D01*
X242251064Y-195680723D02*
X242632017Y-195680723D01*
X242174874Y-195909295D02*
X242441541Y-195109295D01*
X242441541Y-195109295D02*
X242708207Y-195909295D01*
X242860588Y-195109295D02*
X243317731Y-195109295D01*
X243089159Y-195909295D02*
X243089159Y-195109295D01*
X243584398Y-195490247D02*
X243851064Y-195490247D01*
X243965350Y-195909295D02*
X243584398Y-195909295D01*
X243584398Y-195909295D02*
X243584398Y-195109295D01*
X243584398Y-195109295D02*
X243965350Y-195109295D01*
X245070113Y-195109295D02*
X245222494Y-195109295D01*
X245222494Y-195109295D02*
X245298684Y-195147390D01*
X245298684Y-195147390D02*
X245374875Y-195223580D01*
X245374875Y-195223580D02*
X245412970Y-195375961D01*
X245412970Y-195375961D02*
X245412970Y-195642628D01*
X245412970Y-195642628D02*
X245374875Y-195795009D01*
X245374875Y-195795009D02*
X245298684Y-195871200D01*
X245298684Y-195871200D02*
X245222494Y-195909295D01*
X245222494Y-195909295D02*
X245070113Y-195909295D01*
X245070113Y-195909295D02*
X244993922Y-195871200D01*
X244993922Y-195871200D02*
X244917732Y-195795009D01*
X244917732Y-195795009D02*
X244879636Y-195642628D01*
X244879636Y-195642628D02*
X244879636Y-195375961D01*
X244879636Y-195375961D02*
X244917732Y-195223580D01*
X244917732Y-195223580D02*
X244993922Y-195147390D01*
X244993922Y-195147390D02*
X245070113Y-195109295D01*
X246022493Y-195490247D02*
X245755827Y-195490247D01*
X245755827Y-195909295D02*
X245755827Y-195109295D01*
X245755827Y-195109295D02*
X246136779Y-195109295D01*
X247051065Y-195909295D02*
X247051065Y-195109295D01*
X247393921Y-195871200D02*
X247508207Y-195909295D01*
X247508207Y-195909295D02*
X247698683Y-195909295D01*
X247698683Y-195909295D02*
X247774874Y-195871200D01*
X247774874Y-195871200D02*
X247812969Y-195833104D01*
X247812969Y-195833104D02*
X247851064Y-195756914D01*
X247851064Y-195756914D02*
X247851064Y-195680723D01*
X247851064Y-195680723D02*
X247812969Y-195604533D01*
X247812969Y-195604533D02*
X247774874Y-195566438D01*
X247774874Y-195566438D02*
X247698683Y-195528342D01*
X247698683Y-195528342D02*
X247546302Y-195490247D01*
X247546302Y-195490247D02*
X247470112Y-195452152D01*
X247470112Y-195452152D02*
X247432017Y-195414057D01*
X247432017Y-195414057D02*
X247393921Y-195337866D01*
X247393921Y-195337866D02*
X247393921Y-195261676D01*
X247393921Y-195261676D02*
X247432017Y-195185485D01*
X247432017Y-195185485D02*
X247470112Y-195147390D01*
X247470112Y-195147390D02*
X247546302Y-195109295D01*
X247546302Y-195109295D02*
X247736779Y-195109295D01*
X247736779Y-195109295D02*
X247851064Y-195147390D01*
X248155826Y-195871200D02*
X248270112Y-195909295D01*
X248270112Y-195909295D02*
X248460588Y-195909295D01*
X248460588Y-195909295D02*
X248536779Y-195871200D01*
X248536779Y-195871200D02*
X248574874Y-195833104D01*
X248574874Y-195833104D02*
X248612969Y-195756914D01*
X248612969Y-195756914D02*
X248612969Y-195680723D01*
X248612969Y-195680723D02*
X248574874Y-195604533D01*
X248574874Y-195604533D02*
X248536779Y-195566438D01*
X248536779Y-195566438D02*
X248460588Y-195528342D01*
X248460588Y-195528342D02*
X248308207Y-195490247D01*
X248308207Y-195490247D02*
X248232017Y-195452152D01*
X248232017Y-195452152D02*
X248193922Y-195414057D01*
X248193922Y-195414057D02*
X248155826Y-195337866D01*
X248155826Y-195337866D02*
X248155826Y-195261676D01*
X248155826Y-195261676D02*
X248193922Y-195185485D01*
X248193922Y-195185485D02*
X248232017Y-195147390D01*
X248232017Y-195147390D02*
X248308207Y-195109295D01*
X248308207Y-195109295D02*
X248498684Y-195109295D01*
X248498684Y-195109295D02*
X248612969Y-195147390D01*
X248955827Y-195109295D02*
X248955827Y-195756914D01*
X248955827Y-195756914D02*
X248993922Y-195833104D01*
X248993922Y-195833104D02*
X249032017Y-195871200D01*
X249032017Y-195871200D02*
X249108208Y-195909295D01*
X249108208Y-195909295D02*
X249260589Y-195909295D01*
X249260589Y-195909295D02*
X249336779Y-195871200D01*
X249336779Y-195871200D02*
X249374874Y-195833104D01*
X249374874Y-195833104D02*
X249412970Y-195756914D01*
X249412970Y-195756914D02*
X249412970Y-195109295D01*
X249793922Y-195490247D02*
X250060588Y-195490247D01*
X250174874Y-195909295D02*
X249793922Y-195909295D01*
X249793922Y-195909295D02*
X249793922Y-195109295D01*
X249793922Y-195109295D02*
X250174874Y-195109295D01*
D10*
D11*
X258596064Y-195871200D02*
X258710350Y-195909295D01*
X258710350Y-195909295D02*
X258900826Y-195909295D01*
X258900826Y-195909295D02*
X258977017Y-195871200D01*
X258977017Y-195871200D02*
X259015112Y-195833104D01*
X259015112Y-195833104D02*
X259053207Y-195756914D01*
X259053207Y-195756914D02*
X259053207Y-195680723D01*
X259053207Y-195680723D02*
X259015112Y-195604533D01*
X259015112Y-195604533D02*
X258977017Y-195566438D01*
X258977017Y-195566438D02*
X258900826Y-195528342D01*
X258900826Y-195528342D02*
X258748445Y-195490247D01*
X258748445Y-195490247D02*
X258672255Y-195452152D01*
X258672255Y-195452152D02*
X258634160Y-195414057D01*
X258634160Y-195414057D02*
X258596064Y-195337866D01*
X258596064Y-195337866D02*
X258596064Y-195261676D01*
X258596064Y-195261676D02*
X258634160Y-195185485D01*
X258634160Y-195185485D02*
X258672255Y-195147390D01*
X258672255Y-195147390D02*
X258748445Y-195109295D01*
X258748445Y-195109295D02*
X258938922Y-195109295D01*
X258938922Y-195109295D02*
X259053207Y-195147390D01*
X259396065Y-195909295D02*
X259396065Y-195109295D01*
X259396065Y-195490247D02*
X259853208Y-195490247D01*
X259853208Y-195909295D02*
X259853208Y-195109295D01*
X260234160Y-195490247D02*
X260500826Y-195490247D01*
X260615112Y-195909295D02*
X260234160Y-195909295D01*
X260234160Y-195909295D02*
X260234160Y-195109295D01*
X260234160Y-195109295D02*
X260615112Y-195109295D01*
X260957970Y-195490247D02*
X261224636Y-195490247D01*
X261338922Y-195909295D02*
X260957970Y-195909295D01*
X260957970Y-195909295D02*
X260957970Y-195109295D01*
X260957970Y-195109295D02*
X261338922Y-195109295D01*
X261567494Y-195109295D02*
X262024637Y-195109295D01*
X261796065Y-195909295D02*
X261796065Y-195109295D01*
D10*
D11*
X239942142Y-192804128D02*
X239942142Y-191304128D01*
X239942142Y-191304128D02*
X240513571Y-191304128D01*
X240513571Y-191304128D02*
X240656428Y-191375557D01*
X240656428Y-191375557D02*
X240727857Y-191446985D01*
X240727857Y-191446985D02*
X240799285Y-191589842D01*
X240799285Y-191589842D02*
X240799285Y-191804128D01*
X240799285Y-191804128D02*
X240727857Y-191946985D01*
X240727857Y-191946985D02*
X240656428Y-192018414D01*
X240656428Y-192018414D02*
X240513571Y-192089842D01*
X240513571Y-192089842D02*
X239942142Y-192089842D01*
X242299285Y-192661271D02*
X242227857Y-192732700D01*
X242227857Y-192732700D02*
X242013571Y-192804128D01*
X242013571Y-192804128D02*
X241870714Y-192804128D01*
X241870714Y-192804128D02*
X241656428Y-192732700D01*
X241656428Y-192732700D02*
X241513571Y-192589842D01*
X241513571Y-192589842D02*
X241442142Y-192446985D01*
X241442142Y-192446985D02*
X241370714Y-192161271D01*
X241370714Y-192161271D02*
X241370714Y-191946985D01*
X241370714Y-191946985D02*
X241442142Y-191661271D01*
X241442142Y-191661271D02*
X241513571Y-191518414D01*
X241513571Y-191518414D02*
X241656428Y-191375557D01*
X241656428Y-191375557D02*
X241870714Y-191304128D01*
X241870714Y-191304128D02*
X242013571Y-191304128D01*
X242013571Y-191304128D02*
X242227857Y-191375557D01*
X242227857Y-191375557D02*
X242299285Y-191446985D01*
X243442142Y-192018414D02*
X243656428Y-192089842D01*
X243656428Y-192089842D02*
X243727857Y-192161271D01*
X243727857Y-192161271D02*
X243799285Y-192304128D01*
X243799285Y-192304128D02*
X243799285Y-192518414D01*
X243799285Y-192518414D02*
X243727857Y-192661271D01*
X243727857Y-192661271D02*
X243656428Y-192732700D01*
X243656428Y-192732700D02*
X243513571Y-192804128D01*
X243513571Y-192804128D02*
X242942142Y-192804128D01*
X242942142Y-192804128D02*
X242942142Y-191304128D01*
X242942142Y-191304128D02*
X243442142Y-191304128D01*
X243442142Y-191304128D02*
X243585000Y-191375557D01*
X243585000Y-191375557D02*
X243656428Y-191446985D01*
X243656428Y-191446985D02*
X243727857Y-191589842D01*
X243727857Y-191589842D02*
X243727857Y-191732700D01*
X243727857Y-191732700D02*
X243656428Y-191875557D01*
X243656428Y-191875557D02*
X243585000Y-191946985D01*
X243585000Y-191946985D02*
X243442142Y-192018414D01*
X243442142Y-192018414D02*
X242942142Y-192018414D01*
D10*
D11*
X225068064Y-195680723D02*
X225449017Y-195680723D01*
X224991874Y-195909295D02*
X225258541Y-195109295D01*
X225258541Y-195109295D02*
X225525207Y-195909295D01*
X225791874Y-195909295D02*
X225791874Y-195109295D01*
X225791874Y-195109295D02*
X226096636Y-195109295D01*
X226096636Y-195109295D02*
X226172826Y-195147390D01*
X226172826Y-195147390D02*
X226210921Y-195185485D01*
X226210921Y-195185485D02*
X226249017Y-195261676D01*
X226249017Y-195261676D02*
X226249017Y-195375961D01*
X226249017Y-195375961D02*
X226210921Y-195452152D01*
X226210921Y-195452152D02*
X226172826Y-195490247D01*
X226172826Y-195490247D02*
X226096636Y-195528342D01*
X226096636Y-195528342D02*
X225791874Y-195528342D01*
X226591874Y-195909295D02*
X226591874Y-195109295D01*
X226591874Y-195109295D02*
X226896636Y-195109295D01*
X226896636Y-195109295D02*
X226972826Y-195147390D01*
X226972826Y-195147390D02*
X227010921Y-195185485D01*
X227010921Y-195185485D02*
X227049017Y-195261676D01*
X227049017Y-195261676D02*
X227049017Y-195375961D01*
X227049017Y-195375961D02*
X227010921Y-195452152D01*
X227010921Y-195452152D02*
X226972826Y-195490247D01*
X226972826Y-195490247D02*
X226896636Y-195528342D01*
X226896636Y-195528342D02*
X226591874Y-195528342D01*
X227849017Y-195909295D02*
X227582350Y-195528342D01*
X227391874Y-195909295D02*
X227391874Y-195109295D01*
X227391874Y-195109295D02*
X227696636Y-195109295D01*
X227696636Y-195109295D02*
X227772826Y-195147390D01*
X227772826Y-195147390D02*
X227810921Y-195185485D01*
X227810921Y-195185485D02*
X227849017Y-195261676D01*
X227849017Y-195261676D02*
X227849017Y-195375961D01*
X227849017Y-195375961D02*
X227810921Y-195452152D01*
X227810921Y-195452152D02*
X227772826Y-195490247D01*
X227772826Y-195490247D02*
X227696636Y-195528342D01*
X227696636Y-195528342D02*
X227391874Y-195528342D01*
X228344255Y-195109295D02*
X228496636Y-195109295D01*
X228496636Y-195109295D02*
X228572826Y-195147390D01*
X228572826Y-195147390D02*
X228649017Y-195223580D01*
X228649017Y-195223580D02*
X228687112Y-195375961D01*
X228687112Y-195375961D02*
X228687112Y-195642628D01*
X228687112Y-195642628D02*
X228649017Y-195795009D01*
X228649017Y-195795009D02*
X228572826Y-195871200D01*
X228572826Y-195871200D02*
X228496636Y-195909295D01*
X228496636Y-195909295D02*
X228344255Y-195909295D01*
X228344255Y-195909295D02*
X228268064Y-195871200D01*
X228268064Y-195871200D02*
X228191874Y-195795009D01*
X228191874Y-195795009D02*
X228153778Y-195642628D01*
X228153778Y-195642628D02*
X228153778Y-195375961D01*
X228153778Y-195375961D02*
X228191874Y-195223580D01*
X228191874Y-195223580D02*
X228268064Y-195147390D01*
X228268064Y-195147390D02*
X228344255Y-195109295D01*
X228915683Y-195109295D02*
X229182350Y-195909295D01*
X229182350Y-195909295D02*
X229449016Y-195109295D01*
X229715683Y-195490247D02*
X229982349Y-195490247D01*
X230096635Y-195909295D02*
X229715683Y-195909295D01*
X229715683Y-195909295D02*
X229715683Y-195109295D01*
X229715683Y-195109295D02*
X230096635Y-195109295D01*
X230439493Y-195909295D02*
X230439493Y-195109295D01*
X230439493Y-195109295D02*
X230629969Y-195109295D01*
X230629969Y-195109295D02*
X230744255Y-195147390D01*
X230744255Y-195147390D02*
X230820445Y-195223580D01*
X230820445Y-195223580D02*
X230858540Y-195299771D01*
X230858540Y-195299771D02*
X230896636Y-195452152D01*
X230896636Y-195452152D02*
X230896636Y-195566438D01*
X230896636Y-195566438D02*
X230858540Y-195718819D01*
X230858540Y-195718819D02*
X230820445Y-195795009D01*
X230820445Y-195795009D02*
X230744255Y-195871200D01*
X230744255Y-195871200D02*
X230629969Y-195909295D01*
X230629969Y-195909295D02*
X230439493Y-195909295D01*
X232115683Y-195490247D02*
X232229969Y-195528342D01*
X232229969Y-195528342D02*
X232268064Y-195566438D01*
X232268064Y-195566438D02*
X232306160Y-195642628D01*
X232306160Y-195642628D02*
X232306160Y-195756914D01*
X232306160Y-195756914D02*
X232268064Y-195833104D01*
X232268064Y-195833104D02*
X232229969Y-195871200D01*
X232229969Y-195871200D02*
X232153779Y-195909295D01*
X232153779Y-195909295D02*
X231849017Y-195909295D01*
X231849017Y-195909295D02*
X231849017Y-195109295D01*
X231849017Y-195109295D02*
X232115683Y-195109295D01*
X232115683Y-195109295D02*
X232191874Y-195147390D01*
X232191874Y-195147390D02*
X232229969Y-195185485D01*
X232229969Y-195185485D02*
X232268064Y-195261676D01*
X232268064Y-195261676D02*
X232268064Y-195337866D01*
X232268064Y-195337866D02*
X232229969Y-195414057D01*
X232229969Y-195414057D02*
X232191874Y-195452152D01*
X232191874Y-195452152D02*
X232115683Y-195490247D01*
X232115683Y-195490247D02*
X231849017Y-195490247D01*
X232801398Y-195528342D02*
X232801398Y-195909295D01*
X232534731Y-195109295D02*
X232801398Y-195528342D01*
X232801398Y-195528342D02*
X233068064Y-195109295D01*
D10*
D11*
X144445112Y-196918271D02*
X144302255Y-196846842D01*
X144302255Y-196846842D02*
X144016541Y-196846842D01*
X144016541Y-196846842D02*
X143873684Y-196918271D01*
X143873684Y-196918271D02*
X143730826Y-197061128D01*
X143730826Y-197061128D02*
X143659398Y-197203985D01*
X143659398Y-197203985D02*
X143659398Y-197489700D01*
X143659398Y-197489700D02*
X143730826Y-197632557D01*
X143730826Y-197632557D02*
X143873684Y-197775414D01*
X143873684Y-197775414D02*
X144016541Y-197846842D01*
X144016541Y-197846842D02*
X144302255Y-197846842D01*
X144302255Y-197846842D02*
X144445112Y-197775414D01*
X144159398Y-196346842D02*
X143802255Y-196418271D01*
X143802255Y-196418271D02*
X143445112Y-196632557D01*
X143445112Y-196632557D02*
X143230826Y-196989700D01*
X143230826Y-196989700D02*
X143159398Y-197346842D01*
X143159398Y-197346842D02*
X143230826Y-197703985D01*
X143230826Y-197703985D02*
X143445112Y-198061128D01*
X143445112Y-198061128D02*
X143802255Y-198275414D01*
X143802255Y-198275414D02*
X144159398Y-198346842D01*
X144159398Y-198346842D02*
X144516541Y-198275414D01*
X144516541Y-198275414D02*
X144873684Y-198061128D01*
X144873684Y-198061128D02*
X145087969Y-197703985D01*
X145087969Y-197703985D02*
X145159398Y-197346842D01*
X145159398Y-197346842D02*
X145087969Y-196989700D01*
X145087969Y-196989700D02*
X144873684Y-196632557D01*
X144873684Y-196632557D02*
X144516541Y-196418271D01*
X144516541Y-196418271D02*
X144159398Y-196346842D01*
X146873684Y-197632557D02*
X147587970Y-197632557D01*
X146730827Y-198061128D02*
X147230827Y-196561128D01*
X147230827Y-196561128D02*
X147730827Y-198061128D01*
X148445112Y-198061128D02*
X148302255Y-197989700D01*
X148302255Y-197989700D02*
X148230826Y-197846842D01*
X148230826Y-197846842D02*
X148230826Y-196561128D01*
X149587969Y-197989700D02*
X149445112Y-198061128D01*
X149445112Y-198061128D02*
X149159398Y-198061128D01*
X149159398Y-198061128D02*
X149016540Y-197989700D01*
X149016540Y-197989700D02*
X148945112Y-197846842D01*
X148945112Y-197846842D02*
X148945112Y-197275414D01*
X148945112Y-197275414D02*
X149016540Y-197132557D01*
X149016540Y-197132557D02*
X149159398Y-197061128D01*
X149159398Y-197061128D02*
X149445112Y-197061128D01*
X149445112Y-197061128D02*
X149587969Y-197132557D01*
X149587969Y-197132557D02*
X149659398Y-197275414D01*
X149659398Y-197275414D02*
X149659398Y-197418271D01*
X149659398Y-197418271D02*
X148945112Y-197561128D01*
X150230826Y-197989700D02*
X150373683Y-198061128D01*
X150373683Y-198061128D02*
X150659397Y-198061128D01*
X150659397Y-198061128D02*
X150802254Y-197989700D01*
X150802254Y-197989700D02*
X150873683Y-197846842D01*
X150873683Y-197846842D02*
X150873683Y-197775414D01*
X150873683Y-197775414D02*
X150802254Y-197632557D01*
X150802254Y-197632557D02*
X150659397Y-197561128D01*
X150659397Y-197561128D02*
X150445112Y-197561128D01*
X150445112Y-197561128D02*
X150302254Y-197489700D01*
X150302254Y-197489700D02*
X150230826Y-197346842D01*
X150230826Y-197346842D02*
X150230826Y-197275414D01*
X150230826Y-197275414D02*
X150302254Y-197132557D01*
X150302254Y-197132557D02*
X150445112Y-197061128D01*
X150445112Y-197061128D02*
X150659397Y-197061128D01*
X150659397Y-197061128D02*
X150802254Y-197132557D01*
X151445112Y-197989700D02*
X151587969Y-198061128D01*
X151587969Y-198061128D02*
X151873683Y-198061128D01*
X151873683Y-198061128D02*
X152016540Y-197989700D01*
X152016540Y-197989700D02*
X152087969Y-197846842D01*
X152087969Y-197846842D02*
X152087969Y-197775414D01*
X152087969Y-197775414D02*
X152016540Y-197632557D01*
X152016540Y-197632557D02*
X151873683Y-197561128D01*
X151873683Y-197561128D02*
X151659398Y-197561128D01*
X151659398Y-197561128D02*
X151516540Y-197489700D01*
X151516540Y-197489700D02*
X151445112Y-197346842D01*
X151445112Y-197346842D02*
X151445112Y-197275414D01*
X151445112Y-197275414D02*
X151516540Y-197132557D01*
X151516540Y-197132557D02*
X151659398Y-197061128D01*
X151659398Y-197061128D02*
X151873683Y-197061128D01*
X151873683Y-197061128D02*
X152016540Y-197132557D01*
X153373684Y-198061128D02*
X153373684Y-197275414D01*
X153373684Y-197275414D02*
X153302255Y-197132557D01*
X153302255Y-197132557D02*
X153159398Y-197061128D01*
X153159398Y-197061128D02*
X152873684Y-197061128D01*
X152873684Y-197061128D02*
X152730826Y-197132557D01*
X153373684Y-197989700D02*
X153230826Y-198061128D01*
X153230826Y-198061128D02*
X152873684Y-198061128D01*
X152873684Y-198061128D02*
X152730826Y-197989700D01*
X152730826Y-197989700D02*
X152659398Y-197846842D01*
X152659398Y-197846842D02*
X152659398Y-197703985D01*
X152659398Y-197703985D02*
X152730826Y-197561128D01*
X152730826Y-197561128D02*
X152873684Y-197489700D01*
X152873684Y-197489700D02*
X153230826Y-197489700D01*
X153230826Y-197489700D02*
X153373684Y-197418271D01*
X154087969Y-197061128D02*
X154087969Y-198061128D01*
X154087969Y-197203985D02*
X154159398Y-197132557D01*
X154159398Y-197132557D02*
X154302255Y-197061128D01*
X154302255Y-197061128D02*
X154516541Y-197061128D01*
X154516541Y-197061128D02*
X154659398Y-197132557D01*
X154659398Y-197132557D02*
X154730827Y-197275414D01*
X154730827Y-197275414D02*
X154730827Y-198061128D01*
X156087970Y-198061128D02*
X156087970Y-196561128D01*
X156087970Y-197989700D02*
X155945112Y-198061128D01*
X155945112Y-198061128D02*
X155659398Y-198061128D01*
X155659398Y-198061128D02*
X155516541Y-197989700D01*
X155516541Y-197989700D02*
X155445112Y-197918271D01*
X155445112Y-197918271D02*
X155373684Y-197775414D01*
X155373684Y-197775414D02*
X155373684Y-197346842D01*
X155373684Y-197346842D02*
X155445112Y-197203985D01*
X155445112Y-197203985D02*
X155516541Y-197132557D01*
X155516541Y-197132557D02*
X155659398Y-197061128D01*
X155659398Y-197061128D02*
X155945112Y-197061128D01*
X155945112Y-197061128D02*
X156087970Y-197132557D01*
X156802255Y-198061128D02*
X156802255Y-197061128D01*
X156802255Y-197346842D02*
X156873684Y-197203985D01*
X156873684Y-197203985D02*
X156945113Y-197132557D01*
X156945113Y-197132557D02*
X157087970Y-197061128D01*
X157087970Y-197061128D02*
X157230827Y-197061128D01*
X157945112Y-198061128D02*
X157802255Y-197989700D01*
X157802255Y-197989700D02*
X157730826Y-197918271D01*
X157730826Y-197918271D02*
X157659398Y-197775414D01*
X157659398Y-197775414D02*
X157659398Y-197346842D01*
X157659398Y-197346842D02*
X157730826Y-197203985D01*
X157730826Y-197203985D02*
X157802255Y-197132557D01*
X157802255Y-197132557D02*
X157945112Y-197061128D01*
X157945112Y-197061128D02*
X158159398Y-197061128D01*
X158159398Y-197061128D02*
X158302255Y-197132557D01*
X158302255Y-197132557D02*
X158373684Y-197203985D01*
X158373684Y-197203985D02*
X158445112Y-197346842D01*
X158445112Y-197346842D02*
X158445112Y-197775414D01*
X158445112Y-197775414D02*
X158373684Y-197918271D01*
X158373684Y-197918271D02*
X158302255Y-197989700D01*
X158302255Y-197989700D02*
X158159398Y-198061128D01*
X158159398Y-198061128D02*
X157945112Y-198061128D01*
X161087969Y-198061128D02*
X160587969Y-197346842D01*
X160230826Y-198061128D02*
X160230826Y-196561128D01*
X160230826Y-196561128D02*
X160802255Y-196561128D01*
X160802255Y-196561128D02*
X160945112Y-196632557D01*
X160945112Y-196632557D02*
X161016541Y-196703985D01*
X161016541Y-196703985D02*
X161087969Y-196846842D01*
X161087969Y-196846842D02*
X161087969Y-197061128D01*
X161087969Y-197061128D02*
X161016541Y-197203985D01*
X161016541Y-197203985D02*
X160945112Y-197275414D01*
X160945112Y-197275414D02*
X160802255Y-197346842D01*
X160802255Y-197346842D02*
X160230826Y-197346842D01*
X161730826Y-198061128D02*
X161730826Y-197061128D01*
X161730826Y-196561128D02*
X161659398Y-196632557D01*
X161659398Y-196632557D02*
X161730826Y-196703985D01*
X161730826Y-196703985D02*
X161802255Y-196632557D01*
X161802255Y-196632557D02*
X161730826Y-196561128D01*
X161730826Y-196561128D02*
X161730826Y-196703985D01*
X162302255Y-197061128D02*
X163087970Y-197061128D01*
X163087970Y-197061128D02*
X162302255Y-198061128D01*
X162302255Y-198061128D02*
X163087970Y-198061128D01*
X163516541Y-197061128D02*
X164302256Y-197061128D01*
X164302256Y-197061128D02*
X163516541Y-198061128D01*
X163516541Y-198061128D02*
X164302256Y-198061128D01*
X165087970Y-198061128D02*
X164945113Y-197989700D01*
X164945113Y-197989700D02*
X164873684Y-197918271D01*
X164873684Y-197918271D02*
X164802256Y-197775414D01*
X164802256Y-197775414D02*
X164802256Y-197346842D01*
X164802256Y-197346842D02*
X164873684Y-197203985D01*
X164873684Y-197203985D02*
X164945113Y-197132557D01*
X164945113Y-197132557D02*
X165087970Y-197061128D01*
X165087970Y-197061128D02*
X165302256Y-197061128D01*
X165302256Y-197061128D02*
X165445113Y-197132557D01*
X165445113Y-197132557D02*
X165516542Y-197203985D01*
X165516542Y-197203985D02*
X165587970Y-197346842D01*
X165587970Y-197346842D02*
X165587970Y-197775414D01*
X165587970Y-197775414D02*
X165516542Y-197918271D01*
X165516542Y-197918271D02*
X165445113Y-197989700D01*
X165445113Y-197989700D02*
X165302256Y-198061128D01*
X165302256Y-198061128D02*
X165087970Y-198061128D01*
X166230827Y-197061128D02*
X166230827Y-198061128D01*
X166230827Y-197203985D02*
X166302256Y-197132557D01*
X166302256Y-197132557D02*
X166445113Y-197061128D01*
X166445113Y-197061128D02*
X166659399Y-197061128D01*
X166659399Y-197061128D02*
X166802256Y-197132557D01*
X166802256Y-197132557D02*
X166873685Y-197275414D01*
X166873685Y-197275414D02*
X166873685Y-198061128D01*
X167587970Y-198061128D02*
X167587970Y-197061128D01*
X167587970Y-196561128D02*
X167516542Y-196632557D01*
X167516542Y-196632557D02*
X167587970Y-196703985D01*
X167587970Y-196703985D02*
X167659399Y-196632557D01*
X167659399Y-196632557D02*
X167587970Y-196561128D01*
X167587970Y-196561128D02*
X167587970Y-196703985D01*
D10*
D11*
X227670714Y-192375557D02*
X228385000Y-192375557D01*
X227527857Y-192804128D02*
X228027857Y-191304128D01*
X228027857Y-191304128D02*
X228527857Y-192804128D01*
X229027856Y-192804128D02*
X229027856Y-191304128D01*
X230599285Y-192804128D02*
X230099285Y-192089842D01*
X229742142Y-192804128D02*
X229742142Y-191304128D01*
X229742142Y-191304128D02*
X230313571Y-191304128D01*
X230313571Y-191304128D02*
X230456428Y-191375557D01*
X230456428Y-191375557D02*
X230527857Y-191446985D01*
X230527857Y-191446985D02*
X230599285Y-191589842D01*
X230599285Y-191589842D02*
X230599285Y-191804128D01*
X230599285Y-191804128D02*
X230527857Y-191946985D01*
X230527857Y-191946985D02*
X230456428Y-192018414D01*
X230456428Y-192018414D02*
X230313571Y-192089842D01*
X230313571Y-192089842D02*
X229742142Y-192089842D01*
D10*
D11*
X250379160Y-189559295D02*
X250379160Y-188759295D01*
X250379160Y-188759295D02*
X250569636Y-188759295D01*
X250569636Y-188759295D02*
X250683922Y-188797390D01*
X250683922Y-188797390D02*
X250760112Y-188873580D01*
X250760112Y-188873580D02*
X250798207Y-188949771D01*
X250798207Y-188949771D02*
X250836303Y-189102152D01*
X250836303Y-189102152D02*
X250836303Y-189216438D01*
X250836303Y-189216438D02*
X250798207Y-189368819D01*
X250798207Y-189368819D02*
X250760112Y-189445009D01*
X250760112Y-189445009D02*
X250683922Y-189521200D01*
X250683922Y-189521200D02*
X250569636Y-189559295D01*
X250569636Y-189559295D02*
X250379160Y-189559295D01*
X251331541Y-188759295D02*
X251483922Y-188759295D01*
X251483922Y-188759295D02*
X251560112Y-188797390D01*
X251560112Y-188797390D02*
X251636303Y-188873580D01*
X251636303Y-188873580D02*
X251674398Y-189025961D01*
X251674398Y-189025961D02*
X251674398Y-189292628D01*
X251674398Y-189292628D02*
X251636303Y-189445009D01*
X251636303Y-189445009D02*
X251560112Y-189521200D01*
X251560112Y-189521200D02*
X251483922Y-189559295D01*
X251483922Y-189559295D02*
X251331541Y-189559295D01*
X251331541Y-189559295D02*
X251255350Y-189521200D01*
X251255350Y-189521200D02*
X251179160Y-189445009D01*
X251179160Y-189445009D02*
X251141064Y-189292628D01*
X251141064Y-189292628D02*
X251141064Y-189025961D01*
X251141064Y-189025961D02*
X251179160Y-188873580D01*
X251179160Y-188873580D02*
X251255350Y-188797390D01*
X251255350Y-188797390D02*
X251331541Y-188759295D01*
X252474398Y-189483104D02*
X252436302Y-189521200D01*
X252436302Y-189521200D02*
X252322017Y-189559295D01*
X252322017Y-189559295D02*
X252245826Y-189559295D01*
X252245826Y-189559295D02*
X252131540Y-189521200D01*
X252131540Y-189521200D02*
X252055350Y-189445009D01*
X252055350Y-189445009D02*
X252017255Y-189368819D01*
X252017255Y-189368819D02*
X251979159Y-189216438D01*
X251979159Y-189216438D02*
X251979159Y-189102152D01*
X251979159Y-189102152D02*
X252017255Y-188949771D01*
X252017255Y-188949771D02*
X252055350Y-188873580D01*
X252055350Y-188873580D02*
X252131540Y-188797390D01*
X252131540Y-188797390D02*
X252245826Y-188759295D01*
X252245826Y-188759295D02*
X252322017Y-188759295D01*
X252322017Y-188759295D02*
X252436302Y-188797390D01*
X252436302Y-188797390D02*
X252474398Y-188835485D01*
X252817255Y-188759295D02*
X252817255Y-189406914D01*
X252817255Y-189406914D02*
X252855350Y-189483104D01*
X252855350Y-189483104D02*
X252893445Y-189521200D01*
X252893445Y-189521200D02*
X252969636Y-189559295D01*
X252969636Y-189559295D02*
X253122017Y-189559295D01*
X253122017Y-189559295D02*
X253198207Y-189521200D01*
X253198207Y-189521200D02*
X253236302Y-189483104D01*
X253236302Y-189483104D02*
X253274398Y-189406914D01*
X253274398Y-189406914D02*
X253274398Y-188759295D01*
X253655350Y-189559295D02*
X253655350Y-188759295D01*
X253655350Y-188759295D02*
X253922016Y-189330723D01*
X253922016Y-189330723D02*
X254188683Y-188759295D01*
X254188683Y-188759295D02*
X254188683Y-189559295D01*
X254569636Y-189140247D02*
X254836302Y-189140247D01*
X254950588Y-189559295D02*
X254569636Y-189559295D01*
X254569636Y-189559295D02*
X254569636Y-188759295D01*
X254569636Y-188759295D02*
X254950588Y-188759295D01*
X255293446Y-189559295D02*
X255293446Y-188759295D01*
X255293446Y-188759295D02*
X255750589Y-189559295D01*
X255750589Y-189559295D02*
X255750589Y-188759295D01*
X256017255Y-188759295D02*
X256474398Y-188759295D01*
X256245826Y-189559295D02*
X256245826Y-188759295D01*
X257312493Y-189521200D02*
X257426779Y-189559295D01*
X257426779Y-189559295D02*
X257617255Y-189559295D01*
X257617255Y-189559295D02*
X257693446Y-189521200D01*
X257693446Y-189521200D02*
X257731541Y-189483104D01*
X257731541Y-189483104D02*
X257769636Y-189406914D01*
X257769636Y-189406914D02*
X257769636Y-189330723D01*
X257769636Y-189330723D02*
X257731541Y-189254533D01*
X257731541Y-189254533D02*
X257693446Y-189216438D01*
X257693446Y-189216438D02*
X257617255Y-189178342D01*
X257617255Y-189178342D02*
X257464874Y-189140247D01*
X257464874Y-189140247D02*
X257388684Y-189102152D01*
X257388684Y-189102152D02*
X257350589Y-189064057D01*
X257350589Y-189064057D02*
X257312493Y-188987866D01*
X257312493Y-188987866D02*
X257312493Y-188911676D01*
X257312493Y-188911676D02*
X257350589Y-188835485D01*
X257350589Y-188835485D02*
X257388684Y-188797390D01*
X257388684Y-188797390D02*
X257464874Y-188759295D01*
X257464874Y-188759295D02*
X257655351Y-188759295D01*
X257655351Y-188759295D02*
X257769636Y-188797390D01*
X257998208Y-188759295D02*
X258455351Y-188759295D01*
X258226779Y-189559295D02*
X258226779Y-188759295D01*
X258683922Y-189330723D02*
X259064875Y-189330723D01*
X258607732Y-189559295D02*
X258874399Y-188759295D01*
X258874399Y-188759295D02*
X259141065Y-189559295D01*
X259293446Y-188759295D02*
X259750589Y-188759295D01*
X259522017Y-189559295D02*
X259522017Y-188759295D01*
X260017256Y-188759295D02*
X260017256Y-189406914D01*
X260017256Y-189406914D02*
X260055351Y-189483104D01*
X260055351Y-189483104D02*
X260093446Y-189521200D01*
X260093446Y-189521200D02*
X260169637Y-189559295D01*
X260169637Y-189559295D02*
X260322018Y-189559295D01*
X260322018Y-189559295D02*
X260398208Y-189521200D01*
X260398208Y-189521200D02*
X260436303Y-189483104D01*
X260436303Y-189483104D02*
X260474399Y-189406914D01*
X260474399Y-189406914D02*
X260474399Y-188759295D01*
X260817255Y-189521200D02*
X260931541Y-189559295D01*
X260931541Y-189559295D02*
X261122017Y-189559295D01*
X261122017Y-189559295D02*
X261198208Y-189521200D01*
X261198208Y-189521200D02*
X261236303Y-189483104D01*
X261236303Y-189483104D02*
X261274398Y-189406914D01*
X261274398Y-189406914D02*
X261274398Y-189330723D01*
X261274398Y-189330723D02*
X261236303Y-189254533D01*
X261236303Y-189254533D02*
X261198208Y-189216438D01*
X261198208Y-189216438D02*
X261122017Y-189178342D01*
X261122017Y-189178342D02*
X260969636Y-189140247D01*
X260969636Y-189140247D02*
X260893446Y-189102152D01*
X260893446Y-189102152D02*
X260855351Y-189064057D01*
X260855351Y-189064057D02*
X260817255Y-188987866D01*
X260817255Y-188987866D02*
X260817255Y-188911676D01*
X260817255Y-188911676D02*
X260855351Y-188835485D01*
X260855351Y-188835485D02*
X260893446Y-188797390D01*
X260893446Y-188797390D02*
X260969636Y-188759295D01*
X260969636Y-188759295D02*
X261160113Y-188759295D01*
X261160113Y-188759295D02*
X261274398Y-188797390D01*
D10*
D11*
X224979160Y-189559295D02*
X224979160Y-188759295D01*
X224979160Y-188759295D02*
X225169636Y-188759295D01*
X225169636Y-188759295D02*
X225283922Y-188797390D01*
X225283922Y-188797390D02*
X225360112Y-188873580D01*
X225360112Y-188873580D02*
X225398207Y-188949771D01*
X225398207Y-188949771D02*
X225436303Y-189102152D01*
X225436303Y-189102152D02*
X225436303Y-189216438D01*
X225436303Y-189216438D02*
X225398207Y-189368819D01*
X225398207Y-189368819D02*
X225360112Y-189445009D01*
X225360112Y-189445009D02*
X225283922Y-189521200D01*
X225283922Y-189521200D02*
X225169636Y-189559295D01*
X225169636Y-189559295D02*
X224979160Y-189559295D01*
X226236303Y-189559295D02*
X225969636Y-189178342D01*
X225779160Y-189559295D02*
X225779160Y-188759295D01*
X225779160Y-188759295D02*
X226083922Y-188759295D01*
X226083922Y-188759295D02*
X226160112Y-188797390D01*
X226160112Y-188797390D02*
X226198207Y-188835485D01*
X226198207Y-188835485D02*
X226236303Y-188911676D01*
X226236303Y-188911676D02*
X226236303Y-189025961D01*
X226236303Y-189025961D02*
X226198207Y-189102152D01*
X226198207Y-189102152D02*
X226160112Y-189140247D01*
X226160112Y-189140247D02*
X226083922Y-189178342D01*
X226083922Y-189178342D02*
X225779160Y-189178342D01*
X226541064Y-189330723D02*
X226922017Y-189330723D01*
X226464874Y-189559295D02*
X226731541Y-188759295D01*
X226731541Y-188759295D02*
X226998207Y-189559295D01*
X227188683Y-188759295D02*
X227379159Y-189559295D01*
X227379159Y-189559295D02*
X227531540Y-188987866D01*
X227531540Y-188987866D02*
X227683921Y-189559295D01*
X227683921Y-189559295D02*
X227874398Y-188759295D01*
X228179160Y-189559295D02*
X228179160Y-188759295D01*
X228179160Y-188759295D02*
X228636303Y-189559295D01*
X228636303Y-189559295D02*
X228636303Y-188759295D01*
X229893445Y-189140247D02*
X230007731Y-189178342D01*
X230007731Y-189178342D02*
X230045826Y-189216438D01*
X230045826Y-189216438D02*
X230083922Y-189292628D01*
X230083922Y-189292628D02*
X230083922Y-189406914D01*
X230083922Y-189406914D02*
X230045826Y-189483104D01*
X230045826Y-189483104D02*
X230007731Y-189521200D01*
X230007731Y-189521200D02*
X229931541Y-189559295D01*
X229931541Y-189559295D02*
X229626779Y-189559295D01*
X229626779Y-189559295D02*
X229626779Y-188759295D01*
X229626779Y-188759295D02*
X229893445Y-188759295D01*
X229893445Y-188759295D02*
X229969636Y-188797390D01*
X229969636Y-188797390D02*
X230007731Y-188835485D01*
X230007731Y-188835485D02*
X230045826Y-188911676D01*
X230045826Y-188911676D02*
X230045826Y-188987866D01*
X230045826Y-188987866D02*
X230007731Y-189064057D01*
X230007731Y-189064057D02*
X229969636Y-189102152D01*
X229969636Y-189102152D02*
X229893445Y-189140247D01*
X229893445Y-189140247D02*
X229626779Y-189140247D01*
X230579160Y-189178342D02*
X230579160Y-189559295D01*
X230312493Y-188759295D02*
X230579160Y-189178342D01*
X230579160Y-189178342D02*
X230845826Y-188759295D01*
D10*
D11*
X235139160Y-189559295D02*
X235139160Y-188759295D01*
X235139160Y-188759295D02*
X235329636Y-188759295D01*
X235329636Y-188759295D02*
X235443922Y-188797390D01*
X235443922Y-188797390D02*
X235520112Y-188873580D01*
X235520112Y-188873580D02*
X235558207Y-188949771D01*
X235558207Y-188949771D02*
X235596303Y-189102152D01*
X235596303Y-189102152D02*
X235596303Y-189216438D01*
X235596303Y-189216438D02*
X235558207Y-189368819D01*
X235558207Y-189368819D02*
X235520112Y-189445009D01*
X235520112Y-189445009D02*
X235443922Y-189521200D01*
X235443922Y-189521200D02*
X235329636Y-189559295D01*
X235329636Y-189559295D02*
X235139160Y-189559295D01*
X236091541Y-188759295D02*
X236243922Y-188759295D01*
X236243922Y-188759295D02*
X236320112Y-188797390D01*
X236320112Y-188797390D02*
X236396303Y-188873580D01*
X236396303Y-188873580D02*
X236434398Y-189025961D01*
X236434398Y-189025961D02*
X236434398Y-189292628D01*
X236434398Y-189292628D02*
X236396303Y-189445009D01*
X236396303Y-189445009D02*
X236320112Y-189521200D01*
X236320112Y-189521200D02*
X236243922Y-189559295D01*
X236243922Y-189559295D02*
X236091541Y-189559295D01*
X236091541Y-189559295D02*
X236015350Y-189521200D01*
X236015350Y-189521200D02*
X235939160Y-189445009D01*
X235939160Y-189445009D02*
X235901064Y-189292628D01*
X235901064Y-189292628D02*
X235901064Y-189025961D01*
X235901064Y-189025961D02*
X235939160Y-188873580D01*
X235939160Y-188873580D02*
X236015350Y-188797390D01*
X236015350Y-188797390D02*
X236091541Y-188759295D01*
X237234398Y-189483104D02*
X237196302Y-189521200D01*
X237196302Y-189521200D02*
X237082017Y-189559295D01*
X237082017Y-189559295D02*
X237005826Y-189559295D01*
X237005826Y-189559295D02*
X236891540Y-189521200D01*
X236891540Y-189521200D02*
X236815350Y-189445009D01*
X236815350Y-189445009D02*
X236777255Y-189368819D01*
X236777255Y-189368819D02*
X236739159Y-189216438D01*
X236739159Y-189216438D02*
X236739159Y-189102152D01*
X236739159Y-189102152D02*
X236777255Y-188949771D01*
X236777255Y-188949771D02*
X236815350Y-188873580D01*
X236815350Y-188873580D02*
X236891540Y-188797390D01*
X236891540Y-188797390D02*
X237005826Y-188759295D01*
X237005826Y-188759295D02*
X237082017Y-188759295D01*
X237082017Y-188759295D02*
X237196302Y-188797390D01*
X237196302Y-188797390D02*
X237234398Y-188835485D01*
X237577255Y-188759295D02*
X237577255Y-189406914D01*
X237577255Y-189406914D02*
X237615350Y-189483104D01*
X237615350Y-189483104D02*
X237653445Y-189521200D01*
X237653445Y-189521200D02*
X237729636Y-189559295D01*
X237729636Y-189559295D02*
X237882017Y-189559295D01*
X237882017Y-189559295D02*
X237958207Y-189521200D01*
X237958207Y-189521200D02*
X237996302Y-189483104D01*
X237996302Y-189483104D02*
X238034398Y-189406914D01*
X238034398Y-189406914D02*
X238034398Y-188759295D01*
X238415350Y-189559295D02*
X238415350Y-188759295D01*
X238415350Y-188759295D02*
X238682016Y-189330723D01*
X238682016Y-189330723D02*
X238948683Y-188759295D01*
X238948683Y-188759295D02*
X238948683Y-189559295D01*
X239329636Y-189140247D02*
X239596302Y-189140247D01*
X239710588Y-189559295D02*
X239329636Y-189559295D01*
X239329636Y-189559295D02*
X239329636Y-188759295D01*
X239329636Y-188759295D02*
X239710588Y-188759295D01*
X240053446Y-189559295D02*
X240053446Y-188759295D01*
X240053446Y-188759295D02*
X240510589Y-189559295D01*
X240510589Y-189559295D02*
X240510589Y-188759295D01*
X240777255Y-188759295D02*
X241234398Y-188759295D01*
X241005826Y-189559295D02*
X241005826Y-188759295D01*
X241996303Y-188759295D02*
X242453446Y-188759295D01*
X242224874Y-189559295D02*
X242224874Y-188759295D01*
X242872494Y-189178342D02*
X242872494Y-189559295D01*
X242605827Y-188759295D02*
X242872494Y-189178342D01*
X242872494Y-189178342D02*
X243139160Y-188759295D01*
X243405827Y-189559295D02*
X243405827Y-188759295D01*
X243405827Y-188759295D02*
X243710589Y-188759295D01*
X243710589Y-188759295D02*
X243786779Y-188797390D01*
X243786779Y-188797390D02*
X243824874Y-188835485D01*
X243824874Y-188835485D02*
X243862970Y-188911676D01*
X243862970Y-188911676D02*
X243862970Y-189025961D01*
X243862970Y-189025961D02*
X243824874Y-189102152D01*
X243824874Y-189102152D02*
X243786779Y-189140247D01*
X243786779Y-189140247D02*
X243710589Y-189178342D01*
X243710589Y-189178342D02*
X243405827Y-189178342D01*
X244205827Y-189140247D02*
X244472493Y-189140247D01*
X244586779Y-189559295D02*
X244205827Y-189559295D01*
X244205827Y-189559295D02*
X244205827Y-188759295D01*
X244205827Y-188759295D02*
X244586779Y-188759295D01*
D10*
D11*
X253821000Y-192804128D02*
X253821000Y-191304128D01*
X253821000Y-191304128D02*
X254178143Y-191304128D01*
X254178143Y-191304128D02*
X254392429Y-191375557D01*
X254392429Y-191375557D02*
X254535286Y-191518414D01*
X254535286Y-191518414D02*
X254606715Y-191661271D01*
X254606715Y-191661271D02*
X254678143Y-191946985D01*
X254678143Y-191946985D02*
X254678143Y-192161271D01*
X254678143Y-192161271D02*
X254606715Y-192446985D01*
X254606715Y-192446985D02*
X254535286Y-192589842D01*
X254535286Y-192589842D02*
X254392429Y-192732700D01*
X254392429Y-192732700D02*
X254178143Y-192804128D01*
X254178143Y-192804128D02*
X253821000Y-192804128D01*
X256178143Y-192804128D02*
X255678143Y-192089842D01*
X255321000Y-192804128D02*
X255321000Y-191304128D01*
X255321000Y-191304128D02*
X255892429Y-191304128D01*
X255892429Y-191304128D02*
X256035286Y-191375557D01*
X256035286Y-191375557D02*
X256106715Y-191446985D01*
X256106715Y-191446985D02*
X256178143Y-191589842D01*
X256178143Y-191589842D02*
X256178143Y-191804128D01*
X256178143Y-191804128D02*
X256106715Y-191946985D01*
X256106715Y-191946985D02*
X256035286Y-192018414D01*
X256035286Y-192018414D02*
X255892429Y-192089842D01*
X255892429Y-192089842D02*
X255321000Y-192089842D01*
X256749572Y-192375557D02*
X257463858Y-192375557D01*
X256606715Y-192804128D02*
X257106715Y-191304128D01*
X257106715Y-191304128D02*
X257606715Y-192804128D01*
X258606714Y-192018414D02*
X258106714Y-192018414D01*
X258106714Y-192804128D02*
X258106714Y-191304128D01*
X258106714Y-191304128D02*
X258821000Y-191304128D01*
X259178143Y-191304128D02*
X260035286Y-191304128D01*
X259606714Y-192804128D02*
X259606714Y-191304128D01*
D10*
D11*
X241915287Y-197796985D02*
X241986715Y-197725557D01*
X241986715Y-197725557D02*
X242129573Y-197654128D01*
X242129573Y-197654128D02*
X242486715Y-197654128D01*
X242486715Y-197654128D02*
X242629573Y-197725557D01*
X242629573Y-197725557D02*
X242701001Y-197796985D01*
X242701001Y-197796985D02*
X242772430Y-197939842D01*
X242772430Y-197939842D02*
X242772430Y-198082700D01*
X242772430Y-198082700D02*
X242701001Y-198296985D01*
X242701001Y-198296985D02*
X241843858Y-199154128D01*
X241843858Y-199154128D02*
X242772430Y-199154128D01*
X243701001Y-197654128D02*
X243843858Y-197654128D01*
X243843858Y-197654128D02*
X243986715Y-197725557D01*
X243986715Y-197725557D02*
X244058144Y-197796985D01*
X244058144Y-197796985D02*
X244129572Y-197939842D01*
X244129572Y-197939842D02*
X244201001Y-198225557D01*
X244201001Y-198225557D02*
X244201001Y-198582700D01*
X244201001Y-198582700D02*
X244129572Y-198868414D01*
X244129572Y-198868414D02*
X244058144Y-199011271D01*
X244058144Y-199011271D02*
X243986715Y-199082700D01*
X243986715Y-199082700D02*
X243843858Y-199154128D01*
X243843858Y-199154128D02*
X243701001Y-199154128D01*
X243701001Y-199154128D02*
X243558144Y-199082700D01*
X243558144Y-199082700D02*
X243486715Y-199011271D01*
X243486715Y-199011271D02*
X243415286Y-198868414D01*
X243415286Y-198868414D02*
X243343858Y-198582700D01*
X243343858Y-198582700D02*
X243343858Y-198225557D01*
X243343858Y-198225557D02*
X243415286Y-197939842D01*
X243415286Y-197939842D02*
X243486715Y-197796985D01*
X243486715Y-197796985D02*
X243558144Y-197725557D01*
X243558144Y-197725557D02*
X243701001Y-197654128D01*
X244772429Y-197796985D02*
X244843857Y-197725557D01*
X244843857Y-197725557D02*
X244986715Y-197654128D01*
X244986715Y-197654128D02*
X245343857Y-197654128D01*
X245343857Y-197654128D02*
X245486715Y-197725557D01*
X245486715Y-197725557D02*
X245558143Y-197796985D01*
X245558143Y-197796985D02*
X245629572Y-197939842D01*
X245629572Y-197939842D02*
X245629572Y-198082700D01*
X245629572Y-198082700D02*
X245558143Y-198296985D01*
X245558143Y-198296985D02*
X244701000Y-199154128D01*
X244701000Y-199154128D02*
X245629572Y-199154128D01*
X246129571Y-197654128D02*
X247058143Y-197654128D01*
X247058143Y-197654128D02*
X246558143Y-198225557D01*
X246558143Y-198225557D02*
X246772428Y-198225557D01*
X246772428Y-198225557D02*
X246915286Y-198296985D01*
X246915286Y-198296985D02*
X246986714Y-198368414D01*
X246986714Y-198368414D02*
X247058143Y-198511271D01*
X247058143Y-198511271D02*
X247058143Y-198868414D01*
X247058143Y-198868414D02*
X246986714Y-199011271D01*
X246986714Y-199011271D02*
X246915286Y-199082700D01*
X246915286Y-199082700D02*
X246772428Y-199154128D01*
X246772428Y-199154128D02*
X246343857Y-199154128D01*
X246343857Y-199154128D02*
X246201000Y-199082700D01*
X246201000Y-199082700D02*
X246129571Y-199011271D01*
X247700999Y-198582700D02*
X248843857Y-198582700D01*
X249843857Y-197654128D02*
X249986714Y-197654128D01*
X249986714Y-197654128D02*
X250129571Y-197725557D01*
X250129571Y-197725557D02*
X250201000Y-197796985D01*
X250201000Y-197796985D02*
X250272428Y-197939842D01*
X250272428Y-197939842D02*
X250343857Y-198225557D01*
X250343857Y-198225557D02*
X250343857Y-198582700D01*
X250343857Y-198582700D02*
X250272428Y-198868414D01*
X250272428Y-198868414D02*
X250201000Y-199011271D01*
X250201000Y-199011271D02*
X250129571Y-199082700D01*
X250129571Y-199082700D02*
X249986714Y-199154128D01*
X249986714Y-199154128D02*
X249843857Y-199154128D01*
X249843857Y-199154128D02*
X249701000Y-199082700D01*
X249701000Y-199082700D02*
X249629571Y-199011271D01*
X249629571Y-199011271D02*
X249558142Y-198868414D01*
X249558142Y-198868414D02*
X249486714Y-198582700D01*
X249486714Y-198582700D02*
X249486714Y-198225557D01*
X249486714Y-198225557D02*
X249558142Y-197939842D01*
X249558142Y-197939842D02*
X249629571Y-197796985D01*
X249629571Y-197796985D02*
X249701000Y-197725557D01*
X249701000Y-197725557D02*
X249843857Y-197654128D01*
X251200999Y-198296985D02*
X251058142Y-198225557D01*
X251058142Y-198225557D02*
X250986713Y-198154128D01*
X250986713Y-198154128D02*
X250915285Y-198011271D01*
X250915285Y-198011271D02*
X250915285Y-197939842D01*
X250915285Y-197939842D02*
X250986713Y-197796985D01*
X250986713Y-197796985D02*
X251058142Y-197725557D01*
X251058142Y-197725557D02*
X251200999Y-197654128D01*
X251200999Y-197654128D02*
X251486713Y-197654128D01*
X251486713Y-197654128D02*
X251629571Y-197725557D01*
X251629571Y-197725557D02*
X251700999Y-197796985D01*
X251700999Y-197796985D02*
X251772428Y-197939842D01*
X251772428Y-197939842D02*
X251772428Y-198011271D01*
X251772428Y-198011271D02*
X251700999Y-198154128D01*
X251700999Y-198154128D02*
X251629571Y-198225557D01*
X251629571Y-198225557D02*
X251486713Y-198296985D01*
X251486713Y-198296985D02*
X251200999Y-198296985D01*
X251200999Y-198296985D02*
X251058142Y-198368414D01*
X251058142Y-198368414D02*
X250986713Y-198439842D01*
X250986713Y-198439842D02*
X250915285Y-198582700D01*
X250915285Y-198582700D02*
X250915285Y-198868414D01*
X250915285Y-198868414D02*
X250986713Y-199011271D01*
X250986713Y-199011271D02*
X251058142Y-199082700D01*
X251058142Y-199082700D02*
X251200999Y-199154128D01*
X251200999Y-199154128D02*
X251486713Y-199154128D01*
X251486713Y-199154128D02*
X251629571Y-199082700D01*
X251629571Y-199082700D02*
X251700999Y-199011271D01*
X251700999Y-199011271D02*
X251772428Y-198868414D01*
X251772428Y-198868414D02*
X251772428Y-198582700D01*
X251772428Y-198582700D02*
X251700999Y-198439842D01*
X251700999Y-198439842D02*
X251629571Y-198368414D01*
X251629571Y-198368414D02*
X251486713Y-198296985D01*
X252415284Y-198582700D02*
X253558142Y-198582700D01*
X255058142Y-199154128D02*
X254200999Y-199154128D01*
X254629570Y-199154128D02*
X254629570Y-197654128D01*
X254629570Y-197654128D02*
X254486713Y-197868414D01*
X254486713Y-197868414D02*
X254343856Y-198011271D01*
X254343856Y-198011271D02*
X254200999Y-198082700D01*
X255772427Y-199154128D02*
X256058141Y-199154128D01*
X256058141Y-199154128D02*
X256200998Y-199082700D01*
X256200998Y-199082700D02*
X256272427Y-199011271D01*
X256272427Y-199011271D02*
X256415284Y-198796985D01*
X256415284Y-198796985D02*
X256486713Y-198511271D01*
X256486713Y-198511271D02*
X256486713Y-197939842D01*
X256486713Y-197939842D02*
X256415284Y-197796985D01*
X256415284Y-197796985D02*
X256343856Y-197725557D01*
X256343856Y-197725557D02*
X256200998Y-197654128D01*
X256200998Y-197654128D02*
X255915284Y-197654128D01*
X255915284Y-197654128D02*
X255772427Y-197725557D01*
X255772427Y-197725557D02*
X255700998Y-197796985D01*
X255700998Y-197796985D02*
X255629570Y-197939842D01*
X255629570Y-197939842D02*
X255629570Y-198296985D01*
X255629570Y-198296985D02*
X255700998Y-198439842D01*
X255700998Y-198439842D02*
X255772427Y-198511271D01*
X255772427Y-198511271D02*
X255915284Y-198582700D01*
X255915284Y-198582700D02*
X256200998Y-198582700D01*
X256200998Y-198582700D02*
X256343856Y-198511271D01*
X256343856Y-198511271D02*
X256415284Y-198439842D01*
X256415284Y-198439842D02*
X256486713Y-198296985D01*
D10*
D11*
X237032857Y-198725557D02*
X237747143Y-198725557D01*
X236890000Y-199154128D02*
X237390000Y-197654128D01*
X237390000Y-197654128D02*
X237890000Y-199154128D01*
D10*
D12*
X144115225Y-192288328D02*
X143258082Y-192288328D01*
X143686653Y-192288328D02*
X143686653Y-190788328D01*
X143686653Y-190788328D02*
X143543796Y-191002614D01*
X143543796Y-191002614D02*
X143400939Y-191145471D01*
X143400939Y-191145471D02*
X143258082Y-191216900D01*
X145472367Y-190788328D02*
X144758081Y-190788328D01*
X144758081Y-190788328D02*
X144686653Y-191502614D01*
X144686653Y-191502614D02*
X144758081Y-191431185D01*
X144758081Y-191431185D02*
X144900939Y-191359757D01*
X144900939Y-191359757D02*
X145258081Y-191359757D01*
X145258081Y-191359757D02*
X145400939Y-191431185D01*
X145400939Y-191431185D02*
X145472367Y-191502614D01*
X145472367Y-191502614D02*
X145543796Y-191645471D01*
X145543796Y-191645471D02*
X145543796Y-192002614D01*
X145543796Y-192002614D02*
X145472367Y-192145471D01*
X145472367Y-192145471D02*
X145400939Y-192216900D01*
X145400939Y-192216900D02*
X145258081Y-192288328D01*
X145258081Y-192288328D02*
X144900939Y-192288328D01*
X144900939Y-192288328D02*
X144758081Y-192216900D01*
X144758081Y-192216900D02*
X144686653Y-192145471D01*
X146258081Y-192288328D02*
X146543795Y-192288328D01*
X146543795Y-192288328D02*
X146686652Y-192216900D01*
X146686652Y-192216900D02*
X146758081Y-192145471D01*
X146758081Y-192145471D02*
X146900938Y-191931185D01*
X146900938Y-191931185D02*
X146972367Y-191645471D01*
X146972367Y-191645471D02*
X146972367Y-191074042D01*
X146972367Y-191074042D02*
X146900938Y-190931185D01*
X146900938Y-190931185D02*
X146829510Y-190859757D01*
X146829510Y-190859757D02*
X146686652Y-190788328D01*
X146686652Y-190788328D02*
X146400938Y-190788328D01*
X146400938Y-190788328D02*
X146258081Y-190859757D01*
X146258081Y-190859757D02*
X146186652Y-190931185D01*
X146186652Y-190931185D02*
X146115224Y-191074042D01*
X146115224Y-191074042D02*
X146115224Y-191431185D01*
X146115224Y-191431185D02*
X146186652Y-191574042D01*
X146186652Y-191574042D02*
X146258081Y-191645471D01*
X146258081Y-191645471D02*
X146400938Y-191716900D01*
X146400938Y-191716900D02*
X146686652Y-191716900D01*
X146686652Y-191716900D02*
X146829510Y-191645471D01*
X146829510Y-191645471D02*
X146900938Y-191574042D01*
X146900938Y-191574042D02*
X146972367Y-191431185D01*
X147900938Y-190788328D02*
X148043795Y-190788328D01*
X148043795Y-190788328D02*
X148186652Y-190859757D01*
X148186652Y-190859757D02*
X148258081Y-190931185D01*
X148258081Y-190931185D02*
X148329509Y-191074042D01*
X148329509Y-191074042D02*
X148400938Y-191359757D01*
X148400938Y-191359757D02*
X148400938Y-191716900D01*
X148400938Y-191716900D02*
X148329509Y-192002614D01*
X148329509Y-192002614D02*
X148258081Y-192145471D01*
X148258081Y-192145471D02*
X148186652Y-192216900D01*
X148186652Y-192216900D02*
X148043795Y-192288328D01*
X148043795Y-192288328D02*
X147900938Y-192288328D01*
X147900938Y-192288328D02*
X147758081Y-192216900D01*
X147758081Y-192216900D02*
X147686652Y-192145471D01*
X147686652Y-192145471D02*
X147615223Y-192002614D01*
X147615223Y-192002614D02*
X147543795Y-191716900D01*
X147543795Y-191716900D02*
X147543795Y-191359757D01*
X147543795Y-191359757D02*
X147615223Y-191074042D01*
X147615223Y-191074042D02*
X147686652Y-190931185D01*
X147686652Y-190931185D02*
X147758081Y-190859757D01*
X147758081Y-190859757D02*
X147900938Y-190788328D01*
X149043794Y-192288328D02*
X149043794Y-190788328D01*
X149043794Y-190788328D02*
X149900937Y-192288328D01*
X149900937Y-192288328D02*
X149900937Y-190788328D01*
X151400938Y-192288328D02*
X150543795Y-192288328D01*
X150972366Y-192288328D02*
X150972366Y-190788328D01*
X150972366Y-190788328D02*
X150829509Y-191002614D01*
X150829509Y-191002614D02*
X150686652Y-191145471D01*
X150686652Y-191145471D02*
X150543795Y-191216900D01*
X153686651Y-191502614D02*
X153900937Y-191574042D01*
X153900937Y-191574042D02*
X153972366Y-191645471D01*
X153972366Y-191645471D02*
X154043794Y-191788328D01*
X154043794Y-191788328D02*
X154043794Y-192002614D01*
X154043794Y-192002614D02*
X153972366Y-192145471D01*
X153972366Y-192145471D02*
X153900937Y-192216900D01*
X153900937Y-192216900D02*
X153758080Y-192288328D01*
X153758080Y-192288328D02*
X153186651Y-192288328D01*
X153186651Y-192288328D02*
X153186651Y-190788328D01*
X153186651Y-190788328D02*
X153686651Y-190788328D01*
X153686651Y-190788328D02*
X153829509Y-190859757D01*
X153829509Y-190859757D02*
X153900937Y-190931185D01*
X153900937Y-190931185D02*
X153972366Y-191074042D01*
X153972366Y-191074042D02*
X153972366Y-191216900D01*
X153972366Y-191216900D02*
X153900937Y-191359757D01*
X153900937Y-191359757D02*
X153829509Y-191431185D01*
X153829509Y-191431185D02*
X153686651Y-191502614D01*
X153686651Y-191502614D02*
X153186651Y-191502614D01*
X154615223Y-191859757D02*
X155329509Y-191859757D01*
X154472366Y-192288328D02*
X154972366Y-190788328D01*
X154972366Y-190788328D02*
X155472366Y-192288328D01*
X155900937Y-192216900D02*
X156115223Y-192288328D01*
X156115223Y-192288328D02*
X156472365Y-192288328D01*
X156472365Y-192288328D02*
X156615223Y-192216900D01*
X156615223Y-192216900D02*
X156686651Y-192145471D01*
X156686651Y-192145471D02*
X156758080Y-192002614D01*
X156758080Y-192002614D02*
X156758080Y-191859757D01*
X156758080Y-191859757D02*
X156686651Y-191716900D01*
X156686651Y-191716900D02*
X156615223Y-191645471D01*
X156615223Y-191645471D02*
X156472365Y-191574042D01*
X156472365Y-191574042D02*
X156186651Y-191502614D01*
X156186651Y-191502614D02*
X156043794Y-191431185D01*
X156043794Y-191431185D02*
X155972365Y-191359757D01*
X155972365Y-191359757D02*
X155900937Y-191216900D01*
X155900937Y-191216900D02*
X155900937Y-191074042D01*
X155900937Y-191074042D02*
X155972365Y-190931185D01*
X155972365Y-190931185D02*
X156043794Y-190859757D01*
X156043794Y-190859757D02*
X156186651Y-190788328D01*
X156186651Y-190788328D02*
X156543794Y-190788328D01*
X156543794Y-190788328D02*
X156758080Y-190859757D01*
X157400936Y-191502614D02*
X157900936Y-191502614D01*
X158115222Y-192288328D02*
X157400936Y-192288328D01*
X157400936Y-192288328D02*
X157400936Y-190788328D01*
X157400936Y-190788328D02*
X158115222Y-190788328D01*
X159258079Y-191502614D02*
X159472365Y-191574042D01*
X159472365Y-191574042D02*
X159543794Y-191645471D01*
X159543794Y-191645471D02*
X159615222Y-191788328D01*
X159615222Y-191788328D02*
X159615222Y-192002614D01*
X159615222Y-192002614D02*
X159543794Y-192145471D01*
X159543794Y-192145471D02*
X159472365Y-192216900D01*
X159472365Y-192216900D02*
X159329508Y-192288328D01*
X159329508Y-192288328D02*
X158758079Y-192288328D01*
X158758079Y-192288328D02*
X158758079Y-190788328D01*
X158758079Y-190788328D02*
X159258079Y-190788328D01*
X159258079Y-190788328D02*
X159400937Y-190859757D01*
X159400937Y-190859757D02*
X159472365Y-190931185D01*
X159472365Y-190931185D02*
X159543794Y-191074042D01*
X159543794Y-191074042D02*
X159543794Y-191216900D01*
X159543794Y-191216900D02*
X159472365Y-191359757D01*
X159472365Y-191359757D02*
X159400937Y-191431185D01*
X159400937Y-191431185D02*
X159258079Y-191502614D01*
X159258079Y-191502614D02*
X158758079Y-191502614D01*
X160543794Y-190788328D02*
X160829508Y-190788328D01*
X160829508Y-190788328D02*
X160972365Y-190859757D01*
X160972365Y-190859757D02*
X161115222Y-191002614D01*
X161115222Y-191002614D02*
X161186651Y-191288328D01*
X161186651Y-191288328D02*
X161186651Y-191788328D01*
X161186651Y-191788328D02*
X161115222Y-192074042D01*
X161115222Y-192074042D02*
X160972365Y-192216900D01*
X160972365Y-192216900D02*
X160829508Y-192288328D01*
X160829508Y-192288328D02*
X160543794Y-192288328D01*
X160543794Y-192288328D02*
X160400937Y-192216900D01*
X160400937Y-192216900D02*
X160258079Y-192074042D01*
X160258079Y-192074042D02*
X160186651Y-191788328D01*
X160186651Y-191788328D02*
X160186651Y-191288328D01*
X160186651Y-191288328D02*
X160258079Y-191002614D01*
X160258079Y-191002614D02*
X160400937Y-190859757D01*
X160400937Y-190859757D02*
X160543794Y-190788328D01*
X161758080Y-191859757D02*
X162472366Y-191859757D01*
X161615223Y-192288328D02*
X162115223Y-190788328D01*
X162115223Y-190788328D02*
X162615223Y-192288328D01*
X163972365Y-192288328D02*
X163472365Y-191574042D01*
X163115222Y-192288328D02*
X163115222Y-190788328D01*
X163115222Y-190788328D02*
X163686651Y-190788328D01*
X163686651Y-190788328D02*
X163829508Y-190859757D01*
X163829508Y-190859757D02*
X163900937Y-190931185D01*
X163900937Y-190931185D02*
X163972365Y-191074042D01*
X163972365Y-191074042D02*
X163972365Y-191288328D01*
X163972365Y-191288328D02*
X163900937Y-191431185D01*
X163900937Y-191431185D02*
X163829508Y-191502614D01*
X163829508Y-191502614D02*
X163686651Y-191574042D01*
X163686651Y-191574042D02*
X163115222Y-191574042D01*
X164615222Y-192288328D02*
X164615222Y-190788328D01*
X164615222Y-190788328D02*
X164972365Y-190788328D01*
X164972365Y-190788328D02*
X165186651Y-190859757D01*
X165186651Y-190859757D02*
X165329508Y-191002614D01*
X165329508Y-191002614D02*
X165400937Y-191145471D01*
X165400937Y-191145471D02*
X165472365Y-191431185D01*
X165472365Y-191431185D02*
X165472365Y-191645471D01*
X165472365Y-191645471D02*
X165400937Y-191931185D01*
X165400937Y-191931185D02*
X165329508Y-192074042D01*
X165329508Y-192074042D02*
X165186651Y-192216900D01*
X165186651Y-192216900D02*
X164972365Y-192288328D01*
X164972365Y-192288328D02*
X164615222Y-192288328D01*
X167258079Y-191716900D02*
X168400937Y-191716900D01*
X170258079Y-192288328D02*
X170258079Y-190788328D01*
X170258079Y-190788328D02*
X170829508Y-190788328D01*
X170829508Y-190788328D02*
X170972365Y-190859757D01*
X170972365Y-190859757D02*
X171043794Y-190931185D01*
X171043794Y-190931185D02*
X171115222Y-191074042D01*
X171115222Y-191074042D02*
X171115222Y-191288328D01*
X171115222Y-191288328D02*
X171043794Y-191431185D01*
X171043794Y-191431185D02*
X170972365Y-191502614D01*
X170972365Y-191502614D02*
X170829508Y-191574042D01*
X170829508Y-191574042D02*
X170258079Y-191574042D01*
X172615222Y-192145471D02*
X172543794Y-192216900D01*
X172543794Y-192216900D02*
X172329508Y-192288328D01*
X172329508Y-192288328D02*
X172186651Y-192288328D01*
X172186651Y-192288328D02*
X171972365Y-192216900D01*
X171972365Y-192216900D02*
X171829508Y-192074042D01*
X171829508Y-192074042D02*
X171758079Y-191931185D01*
X171758079Y-191931185D02*
X171686651Y-191645471D01*
X171686651Y-191645471D02*
X171686651Y-191431185D01*
X171686651Y-191431185D02*
X171758079Y-191145471D01*
X171758079Y-191145471D02*
X171829508Y-191002614D01*
X171829508Y-191002614D02*
X171972365Y-190859757D01*
X171972365Y-190859757D02*
X172186651Y-190788328D01*
X172186651Y-190788328D02*
X172329508Y-190788328D01*
X172329508Y-190788328D02*
X172543794Y-190859757D01*
X172543794Y-190859757D02*
X172615222Y-190931185D01*
X173758079Y-191502614D02*
X173972365Y-191574042D01*
X173972365Y-191574042D02*
X174043794Y-191645471D01*
X174043794Y-191645471D02*
X174115222Y-191788328D01*
X174115222Y-191788328D02*
X174115222Y-192002614D01*
X174115222Y-192002614D02*
X174043794Y-192145471D01*
X174043794Y-192145471D02*
X173972365Y-192216900D01*
X173972365Y-192216900D02*
X173829508Y-192288328D01*
X173829508Y-192288328D02*
X173258079Y-192288328D01*
X173258079Y-192288328D02*
X173258079Y-190788328D01*
X173258079Y-190788328D02*
X173758079Y-190788328D01*
X173758079Y-190788328D02*
X173900937Y-190859757D01*
X173900937Y-190859757D02*
X173972365Y-190931185D01*
X173972365Y-190931185D02*
X174043794Y-191074042D01*
X174043794Y-191074042D02*
X174043794Y-191216900D01*
X174043794Y-191216900D02*
X173972365Y-191359757D01*
X173972365Y-191359757D02*
X173900937Y-191431185D01*
X173900937Y-191431185D02*
X173758079Y-191502614D01*
X173758079Y-191502614D02*
X173258079Y-191502614D01*
D10*
D11*
X140524160Y-174954295D02*
X140524160Y-174154295D01*
X140524160Y-174154295D02*
X140981303Y-174954295D01*
X140981303Y-174954295D02*
X140981303Y-174154295D01*
X141514636Y-174154295D02*
X141667017Y-174154295D01*
X141667017Y-174154295D02*
X141743207Y-174192390D01*
X141743207Y-174192390D02*
X141819398Y-174268580D01*
X141819398Y-174268580D02*
X141857493Y-174420961D01*
X141857493Y-174420961D02*
X141857493Y-174687628D01*
X141857493Y-174687628D02*
X141819398Y-174840009D01*
X141819398Y-174840009D02*
X141743207Y-174916200D01*
X141743207Y-174916200D02*
X141667017Y-174954295D01*
X141667017Y-174954295D02*
X141514636Y-174954295D01*
X141514636Y-174954295D02*
X141438445Y-174916200D01*
X141438445Y-174916200D02*
X141362255Y-174840009D01*
X141362255Y-174840009D02*
X141324159Y-174687628D01*
X141324159Y-174687628D02*
X141324159Y-174420961D01*
X141324159Y-174420961D02*
X141362255Y-174268580D01*
X141362255Y-174268580D02*
X141438445Y-174192390D01*
X141438445Y-174192390D02*
X141514636Y-174154295D01*
X142086064Y-174154295D02*
X142543207Y-174154295D01*
X142314635Y-174954295D02*
X142314635Y-174154295D01*
X142809874Y-174535247D02*
X143076540Y-174535247D01*
X143190826Y-174954295D02*
X142809874Y-174954295D01*
X142809874Y-174954295D02*
X142809874Y-174154295D01*
X142809874Y-174154295D02*
X143190826Y-174154295D01*
X143495588Y-174916200D02*
X143609874Y-174954295D01*
X143609874Y-174954295D02*
X143800350Y-174954295D01*
X143800350Y-174954295D02*
X143876541Y-174916200D01*
X143876541Y-174916200D02*
X143914636Y-174878104D01*
X143914636Y-174878104D02*
X143952731Y-174801914D01*
X143952731Y-174801914D02*
X143952731Y-174725723D01*
X143952731Y-174725723D02*
X143914636Y-174649533D01*
X143914636Y-174649533D02*
X143876541Y-174611438D01*
X143876541Y-174611438D02*
X143800350Y-174573342D01*
X143800350Y-174573342D02*
X143647969Y-174535247D01*
X143647969Y-174535247D02*
X143571779Y-174497152D01*
X143571779Y-174497152D02*
X143533684Y-174459057D01*
X143533684Y-174459057D02*
X143495588Y-174382866D01*
X143495588Y-174382866D02*
X143495588Y-174306676D01*
X143495588Y-174306676D02*
X143533684Y-174230485D01*
X143533684Y-174230485D02*
X143571779Y-174192390D01*
X143571779Y-174192390D02*
X143647969Y-174154295D01*
X143647969Y-174154295D02*
X143838446Y-174154295D01*
X143838446Y-174154295D02*
X143952731Y-174192390D01*
X144295589Y-174878104D02*
X144333684Y-174916200D01*
X144333684Y-174916200D02*
X144295589Y-174954295D01*
X144295589Y-174954295D02*
X144257493Y-174916200D01*
X144257493Y-174916200D02*
X144295589Y-174878104D01*
X144295589Y-174878104D02*
X144295589Y-174954295D01*
X144295589Y-174459057D02*
X144333684Y-174497152D01*
X144333684Y-174497152D02*
X144295589Y-174535247D01*
X144295589Y-174535247D02*
X144257493Y-174497152D01*
X144257493Y-174497152D02*
X144295589Y-174459057D01*
X144295589Y-174459057D02*
X144295589Y-174535247D01*
X145286065Y-174154295D02*
X145286065Y-174801914D01*
X145286065Y-174801914D02*
X145324160Y-174878104D01*
X145324160Y-174878104D02*
X145362255Y-174916200D01*
X145362255Y-174916200D02*
X145438446Y-174954295D01*
X145438446Y-174954295D02*
X145590827Y-174954295D01*
X145590827Y-174954295D02*
X145667017Y-174916200D01*
X145667017Y-174916200D02*
X145705112Y-174878104D01*
X145705112Y-174878104D02*
X145743208Y-174801914D01*
X145743208Y-174801914D02*
X145743208Y-174154295D01*
X146124160Y-174954295D02*
X146124160Y-174154295D01*
X146124160Y-174154295D02*
X146581303Y-174954295D01*
X146581303Y-174954295D02*
X146581303Y-174154295D01*
X147343207Y-174954295D02*
X146962255Y-174954295D01*
X146962255Y-174954295D02*
X146962255Y-174154295D01*
X147609874Y-174535247D02*
X147876540Y-174535247D01*
X147990826Y-174954295D02*
X147609874Y-174954295D01*
X147609874Y-174954295D02*
X147609874Y-174154295D01*
X147609874Y-174154295D02*
X147990826Y-174154295D01*
X148295588Y-174916200D02*
X148409874Y-174954295D01*
X148409874Y-174954295D02*
X148600350Y-174954295D01*
X148600350Y-174954295D02*
X148676541Y-174916200D01*
X148676541Y-174916200D02*
X148714636Y-174878104D01*
X148714636Y-174878104D02*
X148752731Y-174801914D01*
X148752731Y-174801914D02*
X148752731Y-174725723D01*
X148752731Y-174725723D02*
X148714636Y-174649533D01*
X148714636Y-174649533D02*
X148676541Y-174611438D01*
X148676541Y-174611438D02*
X148600350Y-174573342D01*
X148600350Y-174573342D02*
X148447969Y-174535247D01*
X148447969Y-174535247D02*
X148371779Y-174497152D01*
X148371779Y-174497152D02*
X148333684Y-174459057D01*
X148333684Y-174459057D02*
X148295588Y-174382866D01*
X148295588Y-174382866D02*
X148295588Y-174306676D01*
X148295588Y-174306676D02*
X148333684Y-174230485D01*
X148333684Y-174230485D02*
X148371779Y-174192390D01*
X148371779Y-174192390D02*
X148447969Y-174154295D01*
X148447969Y-174154295D02*
X148638446Y-174154295D01*
X148638446Y-174154295D02*
X148752731Y-174192390D01*
X149057493Y-174916200D02*
X149171779Y-174954295D01*
X149171779Y-174954295D02*
X149362255Y-174954295D01*
X149362255Y-174954295D02*
X149438446Y-174916200D01*
X149438446Y-174916200D02*
X149476541Y-174878104D01*
X149476541Y-174878104D02*
X149514636Y-174801914D01*
X149514636Y-174801914D02*
X149514636Y-174725723D01*
X149514636Y-174725723D02*
X149476541Y-174649533D01*
X149476541Y-174649533D02*
X149438446Y-174611438D01*
X149438446Y-174611438D02*
X149362255Y-174573342D01*
X149362255Y-174573342D02*
X149209874Y-174535247D01*
X149209874Y-174535247D02*
X149133684Y-174497152D01*
X149133684Y-174497152D02*
X149095589Y-174459057D01*
X149095589Y-174459057D02*
X149057493Y-174382866D01*
X149057493Y-174382866D02*
X149057493Y-174306676D01*
X149057493Y-174306676D02*
X149095589Y-174230485D01*
X149095589Y-174230485D02*
X149133684Y-174192390D01*
X149133684Y-174192390D02*
X149209874Y-174154295D01*
X149209874Y-174154295D02*
X149400351Y-174154295D01*
X149400351Y-174154295D02*
X149514636Y-174192390D01*
X150619399Y-174154295D02*
X150771780Y-174154295D01*
X150771780Y-174154295D02*
X150847970Y-174192390D01*
X150847970Y-174192390D02*
X150924161Y-174268580D01*
X150924161Y-174268580D02*
X150962256Y-174420961D01*
X150962256Y-174420961D02*
X150962256Y-174687628D01*
X150962256Y-174687628D02*
X150924161Y-174840009D01*
X150924161Y-174840009D02*
X150847970Y-174916200D01*
X150847970Y-174916200D02*
X150771780Y-174954295D01*
X150771780Y-174954295D02*
X150619399Y-174954295D01*
X150619399Y-174954295D02*
X150543208Y-174916200D01*
X150543208Y-174916200D02*
X150467018Y-174840009D01*
X150467018Y-174840009D02*
X150428922Y-174687628D01*
X150428922Y-174687628D02*
X150428922Y-174420961D01*
X150428922Y-174420961D02*
X150467018Y-174268580D01*
X150467018Y-174268580D02*
X150543208Y-174192390D01*
X150543208Y-174192390D02*
X150619399Y-174154295D01*
X151190827Y-174154295D02*
X151647970Y-174154295D01*
X151419398Y-174954295D02*
X151419398Y-174154295D01*
X151914637Y-174954295D02*
X151914637Y-174154295D01*
X151914637Y-174535247D02*
X152371780Y-174535247D01*
X152371780Y-174954295D02*
X152371780Y-174154295D01*
X152752732Y-174535247D02*
X153019398Y-174535247D01*
X153133684Y-174954295D02*
X152752732Y-174954295D01*
X152752732Y-174954295D02*
X152752732Y-174154295D01*
X152752732Y-174154295D02*
X153133684Y-174154295D01*
X153933685Y-174954295D02*
X153667018Y-174573342D01*
X153476542Y-174954295D02*
X153476542Y-174154295D01*
X153476542Y-174154295D02*
X153781304Y-174154295D01*
X153781304Y-174154295D02*
X153857494Y-174192390D01*
X153857494Y-174192390D02*
X153895589Y-174230485D01*
X153895589Y-174230485D02*
X153933685Y-174306676D01*
X153933685Y-174306676D02*
X153933685Y-174420961D01*
X153933685Y-174420961D02*
X153895589Y-174497152D01*
X153895589Y-174497152D02*
X153857494Y-174535247D01*
X153857494Y-174535247D02*
X153781304Y-174573342D01*
X153781304Y-174573342D02*
X153476542Y-174573342D01*
X154200351Y-174154295D02*
X154390827Y-174954295D01*
X154390827Y-174954295D02*
X154543208Y-174382866D01*
X154543208Y-174382866D02*
X154695589Y-174954295D01*
X154695589Y-174954295D02*
X154886066Y-174154295D01*
X155190828Y-174954295D02*
X155190828Y-174154295D01*
X155533684Y-174916200D02*
X155647970Y-174954295D01*
X155647970Y-174954295D02*
X155838446Y-174954295D01*
X155838446Y-174954295D02*
X155914637Y-174916200D01*
X155914637Y-174916200D02*
X155952732Y-174878104D01*
X155952732Y-174878104D02*
X155990827Y-174801914D01*
X155990827Y-174801914D02*
X155990827Y-174725723D01*
X155990827Y-174725723D02*
X155952732Y-174649533D01*
X155952732Y-174649533D02*
X155914637Y-174611438D01*
X155914637Y-174611438D02*
X155838446Y-174573342D01*
X155838446Y-174573342D02*
X155686065Y-174535247D01*
X155686065Y-174535247D02*
X155609875Y-174497152D01*
X155609875Y-174497152D02*
X155571780Y-174459057D01*
X155571780Y-174459057D02*
X155533684Y-174382866D01*
X155533684Y-174382866D02*
X155533684Y-174306676D01*
X155533684Y-174306676D02*
X155571780Y-174230485D01*
X155571780Y-174230485D02*
X155609875Y-174192390D01*
X155609875Y-174192390D02*
X155686065Y-174154295D01*
X155686065Y-174154295D02*
X155876542Y-174154295D01*
X155876542Y-174154295D02*
X155990827Y-174192390D01*
X156333685Y-174535247D02*
X156600351Y-174535247D01*
X156714637Y-174954295D02*
X156333685Y-174954295D01*
X156333685Y-174954295D02*
X156333685Y-174154295D01*
X156333685Y-174154295D02*
X156714637Y-174154295D01*
X157628923Y-174916200D02*
X157743209Y-174954295D01*
X157743209Y-174954295D02*
X157933685Y-174954295D01*
X157933685Y-174954295D02*
X158009876Y-174916200D01*
X158009876Y-174916200D02*
X158047971Y-174878104D01*
X158047971Y-174878104D02*
X158086066Y-174801914D01*
X158086066Y-174801914D02*
X158086066Y-174725723D01*
X158086066Y-174725723D02*
X158047971Y-174649533D01*
X158047971Y-174649533D02*
X158009876Y-174611438D01*
X158009876Y-174611438D02*
X157933685Y-174573342D01*
X157933685Y-174573342D02*
X157781304Y-174535247D01*
X157781304Y-174535247D02*
X157705114Y-174497152D01*
X157705114Y-174497152D02*
X157667019Y-174459057D01*
X157667019Y-174459057D02*
X157628923Y-174382866D01*
X157628923Y-174382866D02*
X157628923Y-174306676D01*
X157628923Y-174306676D02*
X157667019Y-174230485D01*
X157667019Y-174230485D02*
X157705114Y-174192390D01*
X157705114Y-174192390D02*
X157781304Y-174154295D01*
X157781304Y-174154295D02*
X157971781Y-174154295D01*
X157971781Y-174154295D02*
X158086066Y-174192390D01*
X158428924Y-174954295D02*
X158428924Y-174154295D01*
X158428924Y-174154295D02*
X158733686Y-174154295D01*
X158733686Y-174154295D02*
X158809876Y-174192390D01*
X158809876Y-174192390D02*
X158847971Y-174230485D01*
X158847971Y-174230485D02*
X158886067Y-174306676D01*
X158886067Y-174306676D02*
X158886067Y-174420961D01*
X158886067Y-174420961D02*
X158847971Y-174497152D01*
X158847971Y-174497152D02*
X158809876Y-174535247D01*
X158809876Y-174535247D02*
X158733686Y-174573342D01*
X158733686Y-174573342D02*
X158428924Y-174573342D01*
X159228924Y-174535247D02*
X159495590Y-174535247D01*
X159609876Y-174954295D02*
X159228924Y-174954295D01*
X159228924Y-174954295D02*
X159228924Y-174154295D01*
X159228924Y-174154295D02*
X159609876Y-174154295D01*
X160409877Y-174878104D02*
X160371781Y-174916200D01*
X160371781Y-174916200D02*
X160257496Y-174954295D01*
X160257496Y-174954295D02*
X160181305Y-174954295D01*
X160181305Y-174954295D02*
X160067019Y-174916200D01*
X160067019Y-174916200D02*
X159990829Y-174840009D01*
X159990829Y-174840009D02*
X159952734Y-174763819D01*
X159952734Y-174763819D02*
X159914638Y-174611438D01*
X159914638Y-174611438D02*
X159914638Y-174497152D01*
X159914638Y-174497152D02*
X159952734Y-174344771D01*
X159952734Y-174344771D02*
X159990829Y-174268580D01*
X159990829Y-174268580D02*
X160067019Y-174192390D01*
X160067019Y-174192390D02*
X160181305Y-174154295D01*
X160181305Y-174154295D02*
X160257496Y-174154295D01*
X160257496Y-174154295D02*
X160371781Y-174192390D01*
X160371781Y-174192390D02*
X160409877Y-174230485D01*
X160752734Y-174954295D02*
X160752734Y-174154295D01*
X161400352Y-174535247D02*
X161133686Y-174535247D01*
X161133686Y-174954295D02*
X161133686Y-174154295D01*
X161133686Y-174154295D02*
X161514638Y-174154295D01*
X161819400Y-174954295D02*
X161819400Y-174154295D01*
X162200352Y-174535247D02*
X162467018Y-174535247D01*
X162581304Y-174954295D02*
X162200352Y-174954295D01*
X162200352Y-174954295D02*
X162200352Y-174154295D01*
X162200352Y-174154295D02*
X162581304Y-174154295D01*
X162924162Y-174954295D02*
X162924162Y-174154295D01*
X162924162Y-174154295D02*
X163114638Y-174154295D01*
X163114638Y-174154295D02*
X163228924Y-174192390D01*
X163228924Y-174192390D02*
X163305114Y-174268580D01*
X163305114Y-174268580D02*
X163343209Y-174344771D01*
X163343209Y-174344771D02*
X163381305Y-174497152D01*
X163381305Y-174497152D02*
X163381305Y-174611438D01*
X163381305Y-174611438D02*
X163343209Y-174763819D01*
X163343209Y-174763819D02*
X163305114Y-174840009D01*
X163305114Y-174840009D02*
X163228924Y-174916200D01*
X163228924Y-174916200D02*
X163114638Y-174954295D01*
X163114638Y-174954295D02*
X162924162Y-174954295D01*
D10*
D11*
X12700000Y-12700000D02*
X266700000Y-12700000D01*
X266700000Y-203200000D01*
X12700000Y-203200000D01*
X12700000Y-12700000D01*
D10*
D11*
X15240000Y-15240000D02*
X264160000Y-15240000D01*
X264160000Y-200660000D01*
X15240000Y-200660000D01*
X15240000Y-15240000D01*
D10*
D11*
X15240000Y-200660000D02*
X12700000Y-203200000D01*
D10*
D11*
X264160000Y-200660000D02*
X266700000Y-203200000D01*
D10*
D11*
X264160000Y-15240000D02*
X266700000Y-12700000D01*
D10*
D11*
X15240000Y-15240000D02*
X12700000Y-12700000D01*
D10*
D11*
X139700000Y-15240000D02*
X139700000Y-12700000D01*
D10*
D11*
X139700000Y-203200000D02*
X139700000Y-200660000D01*
D10*
D11*
X12700000Y-107950000D02*
X15240000Y-107950000D01*
D10*
D11*
X266700000Y-107950000D02*
X264160000Y-107950000D01*
D10*
D11*
X77470000Y-12700000D02*
X77470000Y-15240000D01*
D10*
D11*
X201930000Y-12700000D02*
X201930000Y-15240000D01*
D10*
D11*
X77470000Y-200660000D02*
X77470000Y-203200000D01*
D10*
D11*
X201930000Y-200660000D02*
X201930000Y-203200000D01*
D10*
D11*
X12700000Y-61595000D02*
X15240000Y-61595000D01*
D10*
D11*
X15240000Y-154305000D02*
X12700000Y-154305000D01*
D10*
D11*
X264160000Y-154305000D02*
X266700000Y-154305000D01*
D10*
D11*
X264160000Y-61595000D02*
X266700000Y-61595000D01*
D10*
D11*
X139700000Y-187960000D02*
X139700000Y-173355000D01*
D10*
D11*
X264160000Y-173355000D02*
X139700000Y-173355000D01*
D10*
D11*
X139700000Y-194310000D02*
X264160000Y-194310000D01*
D10*
D11*
X139700000Y-187960000D02*
X264160000Y-187960000D01*
D10*
D11*
X257810000Y-194310000D02*
X257810000Y-200660000D01*
D10*
D11*
X240665000Y-194310000D02*
X240665000Y-200660000D01*
D10*
D11*
X234315000Y-194310000D02*
X234315000Y-200660000D01*
D10*
D11*
X249555000Y-187960000D02*
X249555000Y-194310000D01*
D10*
D11*
X234315000Y-187960000D02*
X234315000Y-194310000D01*
D10*
D11*
X224155000Y-187960000D02*
X224155000Y-194310000D01*
D10*
D11*
X224155000Y-194310000D02*
X224155000Y-200660000D01*
D10*
D11*
X232687857Y-14354557D02*
X233402143Y-14354557D01*
X232545000Y-14783128D02*
X233045000Y-13283128D01*
X233045000Y-13283128D02*
X233545000Y-14783128D01*
D10*
D11*
X170795142Y-13997414D02*
X171009428Y-14068842D01*
X171009428Y-14068842D02*
X171080857Y-14140271D01*
X171080857Y-14140271D02*
X171152285Y-14283128D01*
X171152285Y-14283128D02*
X171152285Y-14497414D01*
X171152285Y-14497414D02*
X171080857Y-14640271D01*
X171080857Y-14640271D02*
X171009428Y-14711700D01*
X171009428Y-14711700D02*
X170866571Y-14783128D01*
X170866571Y-14783128D02*
X170295142Y-14783128D01*
X170295142Y-14783128D02*
X170295142Y-13283128D01*
X170295142Y-13283128D02*
X170795142Y-13283128D01*
X170795142Y-13283128D02*
X170938000Y-13354557D01*
X170938000Y-13354557D02*
X171009428Y-13425985D01*
X171009428Y-13425985D02*
X171080857Y-13568842D01*
X171080857Y-13568842D02*
X171080857Y-13711700D01*
X171080857Y-13711700D02*
X171009428Y-13854557D01*
X171009428Y-13854557D02*
X170938000Y-13925985D01*
X170938000Y-13925985D02*
X170795142Y-13997414D01*
X170795142Y-13997414D02*
X170295142Y-13997414D01*
D10*
D11*
X108922285Y-14640271D02*
X108850857Y-14711700D01*
X108850857Y-14711700D02*
X108636571Y-14783128D01*
X108636571Y-14783128D02*
X108493714Y-14783128D01*
X108493714Y-14783128D02*
X108279428Y-14711700D01*
X108279428Y-14711700D02*
X108136571Y-14568842D01*
X108136571Y-14568842D02*
X108065142Y-14425985D01*
X108065142Y-14425985D02*
X107993714Y-14140271D01*
X107993714Y-14140271D02*
X107993714Y-13925985D01*
X107993714Y-13925985D02*
X108065142Y-13640271D01*
X108065142Y-13640271D02*
X108136571Y-13497414D01*
X108136571Y-13497414D02*
X108279428Y-13354557D01*
X108279428Y-13354557D02*
X108493714Y-13283128D01*
X108493714Y-13283128D02*
X108636571Y-13283128D01*
X108636571Y-13283128D02*
X108850857Y-13354557D01*
X108850857Y-13354557D02*
X108922285Y-13425985D01*
D10*
D11*
X45708142Y-14783128D02*
X45708142Y-13283128D01*
X45708142Y-13283128D02*
X46065285Y-13283128D01*
X46065285Y-13283128D02*
X46279571Y-13354557D01*
X46279571Y-13354557D02*
X46422428Y-13497414D01*
X46422428Y-13497414D02*
X46493857Y-13640271D01*
X46493857Y-13640271D02*
X46565285Y-13925985D01*
X46565285Y-13925985D02*
X46565285Y-14140271D01*
X46565285Y-14140271D02*
X46493857Y-14425985D01*
X46493857Y-14425985D02*
X46422428Y-14568842D01*
X46422428Y-14568842D02*
X46279571Y-14711700D01*
X46279571Y-14711700D02*
X46065285Y-14783128D01*
X46065285Y-14783128D02*
X45708142Y-14783128D01*
D10*
D11*
X13389429Y-130238985D02*
X13460857Y-130167557D01*
X13460857Y-130167557D02*
X13603715Y-130096128D01*
X13603715Y-130096128D02*
X13960857Y-130096128D01*
X13960857Y-130096128D02*
X14103715Y-130167557D01*
X14103715Y-130167557D02*
X14175143Y-130238985D01*
X14175143Y-130238985D02*
X14246572Y-130381842D01*
X14246572Y-130381842D02*
X14246572Y-130524700D01*
X14246572Y-130524700D02*
X14175143Y-130738985D01*
X14175143Y-130738985D02*
X13318000Y-131596128D01*
X13318000Y-131596128D02*
X14246572Y-131596128D01*
D10*
D11*
X13316000Y-84172128D02*
X14244572Y-84172128D01*
X14244572Y-84172128D02*
X13744572Y-84743557D01*
X13744572Y-84743557D02*
X13958857Y-84743557D01*
X13958857Y-84743557D02*
X14101715Y-84814985D01*
X14101715Y-84814985D02*
X14173143Y-84886414D01*
X14173143Y-84886414D02*
X14244572Y-85029271D01*
X14244572Y-85029271D02*
X14244572Y-85386414D01*
X14244572Y-85386414D02*
X14173143Y-85529271D01*
X14173143Y-85529271D02*
X14101715Y-85600700D01*
X14101715Y-85600700D02*
X13958857Y-85672128D01*
X13958857Y-85672128D02*
X13530286Y-85672128D01*
X13530286Y-85672128D02*
X13387429Y-85600700D01*
X13387429Y-85600700D02*
X13316000Y-85529271D01*
D10*
D11*
X45708142Y-202743128D02*
X45708142Y-201243128D01*
X45708142Y-201243128D02*
X46065285Y-201243128D01*
X46065285Y-201243128D02*
X46279571Y-201314557D01*
X46279571Y-201314557D02*
X46422428Y-201457414D01*
X46422428Y-201457414D02*
X46493857Y-201600271D01*
X46493857Y-201600271D02*
X46565285Y-201885985D01*
X46565285Y-201885985D02*
X46565285Y-202100271D01*
X46565285Y-202100271D02*
X46493857Y-202385985D01*
X46493857Y-202385985D02*
X46422428Y-202528842D01*
X46422428Y-202528842D02*
X46279571Y-202671700D01*
X46279571Y-202671700D02*
X46065285Y-202743128D01*
X46065285Y-202743128D02*
X45708142Y-202743128D01*
D10*
D11*
X232687857Y-202314557D02*
X233402143Y-202314557D01*
X232545000Y-202743128D02*
X233045000Y-201243128D01*
X233045000Y-201243128D02*
X233545000Y-202743128D01*
D10*
D11*
X170795142Y-201932414D02*
X171009428Y-202003842D01*
X171009428Y-202003842D02*
X171080857Y-202075271D01*
X171080857Y-202075271D02*
X171152285Y-202218128D01*
X171152285Y-202218128D02*
X171152285Y-202432414D01*
X171152285Y-202432414D02*
X171080857Y-202575271D01*
X171080857Y-202575271D02*
X171009428Y-202646700D01*
X171009428Y-202646700D02*
X170866571Y-202718128D01*
X170866571Y-202718128D02*
X170295142Y-202718128D01*
X170295142Y-202718128D02*
X170295142Y-201218128D01*
X170295142Y-201218128D02*
X170795142Y-201218128D01*
X170795142Y-201218128D02*
X170938000Y-201289557D01*
X170938000Y-201289557D02*
X171009428Y-201360985D01*
X171009428Y-201360985D02*
X171080857Y-201503842D01*
X171080857Y-201503842D02*
X171080857Y-201646700D01*
X171080857Y-201646700D02*
X171009428Y-201789557D01*
X171009428Y-201789557D02*
X170938000Y-201860985D01*
X170938000Y-201860985D02*
X170795142Y-201932414D01*
X170795142Y-201932414D02*
X170295142Y-201932414D01*
D10*
D11*
X108922285Y-202600271D02*
X108850857Y-202671700D01*
X108850857Y-202671700D02*
X108636571Y-202743128D01*
X108636571Y-202743128D02*
X108493714Y-202743128D01*
X108493714Y-202743128D02*
X108279428Y-202671700D01*
X108279428Y-202671700D02*
X108136571Y-202528842D01*
X108136571Y-202528842D02*
X108065142Y-202385985D01*
X108065142Y-202385985D02*
X107993714Y-202100271D01*
X107993714Y-202100271D02*
X107993714Y-201885985D01*
X107993714Y-201885985D02*
X108065142Y-201600271D01*
X108065142Y-201600271D02*
X108136571Y-201457414D01*
X108136571Y-201457414D02*
X108279428Y-201314557D01*
X108279428Y-201314557D02*
X108493714Y-201243128D01*
X108493714Y-201243128D02*
X108636571Y-201243128D01*
X108636571Y-201243128D02*
X108850857Y-201314557D01*
X108850857Y-201314557D02*
X108922285Y-201385985D01*
D10*
D11*
X14026715Y-38138128D02*
X14026715Y-39138128D01*
X13669572Y-37566700D02*
X13312429Y-38638128D01*
X13312429Y-38638128D02*
X14241000Y-38638128D01*
D10*
D11*
X14271572Y-177953128D02*
X13414429Y-177953128D01*
X13843000Y-177953128D02*
X13843000Y-176453128D01*
X13843000Y-176453128D02*
X13700143Y-176667414D01*
X13700143Y-176667414D02*
X13557286Y-176810271D01*
X13557286Y-176810271D02*
X13414429Y-176881700D01*
D10*
D11*
X15240000Y-154305000D02*
X12700000Y-154305000D01*
D10*
D11*
X12700000Y-107950000D02*
X15240000Y-107950000D01*
D10*
D11*
X12700000Y-61595000D02*
X15240000Y-61595000D01*
D10*
D11*
X264878000Y-83820128D02*
X265806572Y-83820128D01*
X265806572Y-83820128D02*
X265306572Y-84391557D01*
X265306572Y-84391557D02*
X265520857Y-84391557D01*
X265520857Y-84391557D02*
X265663715Y-84462985D01*
X265663715Y-84462985D02*
X265735143Y-84534414D01*
X265735143Y-84534414D02*
X265806572Y-84677271D01*
X265806572Y-84677271D02*
X265806572Y-85034414D01*
X265806572Y-85034414D02*
X265735143Y-85177271D01*
X265735143Y-85177271D02*
X265663715Y-85248700D01*
X265663715Y-85248700D02*
X265520857Y-85320128D01*
X265520857Y-85320128D02*
X265092286Y-85320128D01*
X265092286Y-85320128D02*
X264949429Y-85248700D01*
X264949429Y-85248700D02*
X264878000Y-85177271D01*
D10*
D11*
X265833572Y-177601128D02*
X264976429Y-177601128D01*
X265405000Y-177601128D02*
X265405000Y-176101128D01*
X265405000Y-176101128D02*
X265262143Y-176315414D01*
X265262143Y-176315414D02*
X265119286Y-176458271D01*
X265119286Y-176458271D02*
X264976429Y-176529700D01*
D10*
D11*
X265588715Y-37786128D02*
X265588715Y-38786128D01*
X265231572Y-37214700D02*
X264874429Y-38286128D01*
X264874429Y-38286128D02*
X265803000Y-38286128D01*
D10*
D11*
X264951429Y-129886985D02*
X265022857Y-129815557D01*
X265022857Y-129815557D02*
X265165715Y-129744128D01*
X265165715Y-129744128D02*
X265522857Y-129744128D01*
X265522857Y-129744128D02*
X265665715Y-129815557D01*
X265665715Y-129815557D02*
X265737143Y-129886985D01*
X265737143Y-129886985D02*
X265808572Y-130029842D01*
X265808572Y-130029842D02*
X265808572Y-130172700D01*
X265808572Y-130172700D02*
X265737143Y-130386985D01*
X265737143Y-130386985D02*
X264880000Y-131244128D01*
X264880000Y-131244128D02*
X265808572Y-131244128D01*
D10*
D11*
X139700000Y-27940000D02*
X139700000Y-14986000D01*
D10*
D11*
X264160000Y-21590000D02*
X139700000Y-21590000D01*
D10*
D11*
X192894285Y-19101128D02*
X192394285Y-18386842D01*
X192037142Y-19101128D02*
X192037142Y-17601128D01*
X192037142Y-17601128D02*
X192608571Y-17601128D01*
X192608571Y-17601128D02*
X192751428Y-17672557D01*
X192751428Y-17672557D02*
X192822857Y-17743985D01*
X192822857Y-17743985D02*
X192894285Y-17886842D01*
X192894285Y-17886842D02*
X192894285Y-18101128D01*
X192894285Y-18101128D02*
X192822857Y-18243985D01*
X192822857Y-18243985D02*
X192751428Y-18315414D01*
X192751428Y-18315414D02*
X192608571Y-18386842D01*
X192608571Y-18386842D02*
X192037142Y-18386842D01*
X193537142Y-18315414D02*
X194037142Y-18315414D01*
X194251428Y-19101128D02*
X193537142Y-19101128D01*
X193537142Y-19101128D02*
X193537142Y-17601128D01*
X193537142Y-17601128D02*
X194251428Y-17601128D01*
X194680000Y-17601128D02*
X195180000Y-19101128D01*
X195180000Y-19101128D02*
X195680000Y-17601128D01*
X196179999Y-19101128D02*
X196179999Y-17601128D01*
X196822857Y-19029700D02*
X197037143Y-19101128D01*
X197037143Y-19101128D02*
X197394285Y-19101128D01*
X197394285Y-19101128D02*
X197537143Y-19029700D01*
X197537143Y-19029700D02*
X197608571Y-18958271D01*
X197608571Y-18958271D02*
X197680000Y-18815414D01*
X197680000Y-18815414D02*
X197680000Y-18672557D01*
X197680000Y-18672557D02*
X197608571Y-18529700D01*
X197608571Y-18529700D02*
X197537143Y-18458271D01*
X197537143Y-18458271D02*
X197394285Y-18386842D01*
X197394285Y-18386842D02*
X197108571Y-18315414D01*
X197108571Y-18315414D02*
X196965714Y-18243985D01*
X196965714Y-18243985D02*
X196894285Y-18172557D01*
X196894285Y-18172557D02*
X196822857Y-18029700D01*
X196822857Y-18029700D02*
X196822857Y-17886842D01*
X196822857Y-17886842D02*
X196894285Y-17743985D01*
X196894285Y-17743985D02*
X196965714Y-17672557D01*
X196965714Y-17672557D02*
X197108571Y-17601128D01*
X197108571Y-17601128D02*
X197465714Y-17601128D01*
X197465714Y-17601128D02*
X197680000Y-17672557D01*
X198322856Y-19101128D02*
X198322856Y-17601128D01*
X199322857Y-17601128D02*
X199608571Y-17601128D01*
X199608571Y-17601128D02*
X199751428Y-17672557D01*
X199751428Y-17672557D02*
X199894285Y-17815414D01*
X199894285Y-17815414D02*
X199965714Y-18101128D01*
X199965714Y-18101128D02*
X199965714Y-18601128D01*
X199965714Y-18601128D02*
X199894285Y-18886842D01*
X199894285Y-18886842D02*
X199751428Y-19029700D01*
X199751428Y-19029700D02*
X199608571Y-19101128D01*
X199608571Y-19101128D02*
X199322857Y-19101128D01*
X199322857Y-19101128D02*
X199180000Y-19029700D01*
X199180000Y-19029700D02*
X199037142Y-18886842D01*
X199037142Y-18886842D02*
X198965714Y-18601128D01*
X198965714Y-18601128D02*
X198965714Y-18101128D01*
X198965714Y-18101128D02*
X199037142Y-17815414D01*
X199037142Y-17815414D02*
X199180000Y-17672557D01*
X199180000Y-17672557D02*
X199322857Y-17601128D01*
X200608571Y-19101128D02*
X200608571Y-17601128D01*
X200608571Y-17601128D02*
X201465714Y-19101128D01*
X201465714Y-19101128D02*
X201465714Y-17601128D01*
X203322857Y-19101128D02*
X203322857Y-17601128D01*
X203322857Y-18315414D02*
X204180000Y-18315414D01*
X204180000Y-19101128D02*
X204180000Y-17601128D01*
X204894286Y-19101128D02*
X204894286Y-17601128D01*
X205537144Y-19029700D02*
X205751430Y-19101128D01*
X205751430Y-19101128D02*
X206108572Y-19101128D01*
X206108572Y-19101128D02*
X206251430Y-19029700D01*
X206251430Y-19029700D02*
X206322858Y-18958271D01*
X206322858Y-18958271D02*
X206394287Y-18815414D01*
X206394287Y-18815414D02*
X206394287Y-18672557D01*
X206394287Y-18672557D02*
X206322858Y-18529700D01*
X206322858Y-18529700D02*
X206251430Y-18458271D01*
X206251430Y-18458271D02*
X206108572Y-18386842D01*
X206108572Y-18386842D02*
X205822858Y-18315414D01*
X205822858Y-18315414D02*
X205680001Y-18243985D01*
X205680001Y-18243985D02*
X205608572Y-18172557D01*
X205608572Y-18172557D02*
X205537144Y-18029700D01*
X205537144Y-18029700D02*
X205537144Y-17886842D01*
X205537144Y-17886842D02*
X205608572Y-17743985D01*
X205608572Y-17743985D02*
X205680001Y-17672557D01*
X205680001Y-17672557D02*
X205822858Y-17601128D01*
X205822858Y-17601128D02*
X206180001Y-17601128D01*
X206180001Y-17601128D02*
X206394287Y-17672557D01*
X206822858Y-17601128D02*
X207680001Y-17601128D01*
X207251429Y-19101128D02*
X207251429Y-17601128D01*
X208465715Y-17601128D02*
X208751429Y-17601128D01*
X208751429Y-17601128D02*
X208894286Y-17672557D01*
X208894286Y-17672557D02*
X209037143Y-17815414D01*
X209037143Y-17815414D02*
X209108572Y-18101128D01*
X209108572Y-18101128D02*
X209108572Y-18601128D01*
X209108572Y-18601128D02*
X209037143Y-18886842D01*
X209037143Y-18886842D02*
X208894286Y-19029700D01*
X208894286Y-19029700D02*
X208751429Y-19101128D01*
X208751429Y-19101128D02*
X208465715Y-19101128D01*
X208465715Y-19101128D02*
X208322858Y-19029700D01*
X208322858Y-19029700D02*
X208180000Y-18886842D01*
X208180000Y-18886842D02*
X208108572Y-18601128D01*
X208108572Y-18601128D02*
X208108572Y-18101128D01*
X208108572Y-18101128D02*
X208180000Y-17815414D01*
X208180000Y-17815414D02*
X208322858Y-17672557D01*
X208322858Y-17672557D02*
X208465715Y-17601128D01*
X210608572Y-19101128D02*
X210108572Y-18386842D01*
X209751429Y-19101128D02*
X209751429Y-17601128D01*
X209751429Y-17601128D02*
X210322858Y-17601128D01*
X210322858Y-17601128D02*
X210465715Y-17672557D01*
X210465715Y-17672557D02*
X210537144Y-17743985D01*
X210537144Y-17743985D02*
X210608572Y-17886842D01*
X210608572Y-17886842D02*
X210608572Y-18101128D01*
X210608572Y-18101128D02*
X210537144Y-18243985D01*
X210537144Y-18243985D02*
X210465715Y-18315414D01*
X210465715Y-18315414D02*
X210322858Y-18386842D01*
X210322858Y-18386842D02*
X209751429Y-18386842D01*
X211537144Y-18386842D02*
X211537144Y-19101128D01*
X211037144Y-17601128D02*
X211537144Y-18386842D01*
X211537144Y-18386842D02*
X212037144Y-17601128D01*
D10*
D11*
X264160000Y-27940000D02*
X139700000Y-27940000D01*
D10*
D11*
X152400000Y-21590000D02*
X152400000Y-27940000D01*
D10*
D11*
X139700000Y-200660000D02*
X139700000Y-187960000D01*
D10*
D11*
X143728571Y-25451128D02*
X143228571Y-24736842D01*
X142871428Y-25451128D02*
X142871428Y-23951128D01*
X142871428Y-23951128D02*
X143442857Y-23951128D01*
X143442857Y-23951128D02*
X143585714Y-24022557D01*
X143585714Y-24022557D02*
X143657143Y-24093985D01*
X143657143Y-24093985D02*
X143728571Y-24236842D01*
X143728571Y-24236842D02*
X143728571Y-24451128D01*
X143728571Y-24451128D02*
X143657143Y-24593985D01*
X143657143Y-24593985D02*
X143585714Y-24665414D01*
X143585714Y-24665414D02*
X143442857Y-24736842D01*
X143442857Y-24736842D02*
X142871428Y-24736842D01*
X144942857Y-25379700D02*
X144800000Y-25451128D01*
X144800000Y-25451128D02*
X144514286Y-25451128D01*
X144514286Y-25451128D02*
X144371428Y-25379700D01*
X144371428Y-25379700D02*
X144300000Y-25236842D01*
X144300000Y-25236842D02*
X144300000Y-24665414D01*
X144300000Y-24665414D02*
X144371428Y-24522557D01*
X144371428Y-24522557D02*
X144514286Y-24451128D01*
X144514286Y-24451128D02*
X144800000Y-24451128D01*
X144800000Y-24451128D02*
X144942857Y-24522557D01*
X144942857Y-24522557D02*
X145014286Y-24665414D01*
X145014286Y-24665414D02*
X145014286Y-24808271D01*
X145014286Y-24808271D02*
X144300000Y-24951128D01*
X145514285Y-24451128D02*
X145871428Y-25451128D01*
X145871428Y-25451128D02*
X146228571Y-24451128D01*
X146799999Y-25308271D02*
X146871428Y-25379700D01*
X146871428Y-25379700D02*
X146799999Y-25451128D01*
X146799999Y-25451128D02*
X146728571Y-25379700D01*
X146728571Y-25379700D02*
X146799999Y-25308271D01*
X146799999Y-25308271D02*
X146799999Y-25451128D01*
X148585714Y-25022557D02*
X149300000Y-25022557D01*
X148442857Y-25451128D02*
X148942857Y-23951128D01*
X148942857Y-23951128D02*
X149442857Y-25451128D01*
D10*
D11*
X261125125Y-204353390D02*
X261029887Y-204305771D01*
X261029887Y-204305771D02*
X260982268Y-204258152D01*
X260982268Y-204258152D02*
X260934649Y-204162914D01*
X260934649Y-204162914D02*
X260934649Y-204115295D01*
X260934649Y-204115295D02*
X260982268Y-204020057D01*
X260982268Y-204020057D02*
X261029887Y-203972438D01*
X261029887Y-203972438D02*
X261125125Y-203924819D01*
X261125125Y-203924819D02*
X261315601Y-203924819D01*
X261315601Y-203924819D02*
X261410839Y-203972438D01*
X261410839Y-203972438D02*
X261458458Y-204020057D01*
X261458458Y-204020057D02*
X261506077Y-204115295D01*
X261506077Y-204115295D02*
X261506077Y-204162914D01*
X261506077Y-204162914D02*
X261458458Y-204258152D01*
X261458458Y-204258152D02*
X261410839Y-204305771D01*
X261410839Y-204305771D02*
X261315601Y-204353390D01*
X261315601Y-204353390D02*
X261125125Y-204353390D01*
X261125125Y-204353390D02*
X261029887Y-204401009D01*
X261029887Y-204401009D02*
X260982268Y-204448628D01*
X260982268Y-204448628D02*
X260934649Y-204543866D01*
X260934649Y-204543866D02*
X260934649Y-204734342D01*
X260934649Y-204734342D02*
X260982268Y-204829580D01*
X260982268Y-204829580D02*
X261029887Y-204877200D01*
X261029887Y-204877200D02*
X261125125Y-204924819D01*
X261125125Y-204924819D02*
X261315601Y-204924819D01*
X261315601Y-204924819D02*
X261410839Y-204877200D01*
X261410839Y-204877200D02*
X261458458Y-204829580D01*
X261458458Y-204829580D02*
X261506077Y-204734342D01*
X261506077Y-204734342D02*
X261506077Y-204543866D01*
X261506077Y-204543866D02*
X261458458Y-204448628D01*
X261458458Y-204448628D02*
X261410839Y-204401009D01*
X261410839Y-204401009D02*
X261315601Y-204353390D01*
X261934649Y-204829580D02*
X261982268Y-204877200D01*
X261982268Y-204877200D02*
X261934649Y-204924819D01*
X261934649Y-204924819D02*
X261887030Y-204877200D01*
X261887030Y-204877200D02*
X261934649Y-204829580D01*
X261934649Y-204829580D02*
X261934649Y-204924819D01*
X262887029Y-203924819D02*
X262410839Y-203924819D01*
X262410839Y-203924819D02*
X262363220Y-204401009D01*
X262363220Y-204401009D02*
X262410839Y-204353390D01*
X262410839Y-204353390D02*
X262506077Y-204305771D01*
X262506077Y-204305771D02*
X262744172Y-204305771D01*
X262744172Y-204305771D02*
X262839410Y-204353390D01*
X262839410Y-204353390D02*
X262887029Y-204401009D01*
X262887029Y-204401009D02*
X262934648Y-204496247D01*
X262934648Y-204496247D02*
X262934648Y-204734342D01*
X262934648Y-204734342D02*
X262887029Y-204829580D01*
X262887029Y-204829580D02*
X262839410Y-204877200D01*
X262839410Y-204877200D02*
X262744172Y-204924819D01*
X262744172Y-204924819D02*
X262506077Y-204924819D01*
X262506077Y-204924819D02*
X262410839Y-204877200D01*
X262410839Y-204877200D02*
X262363220Y-204829580D01*
X263267982Y-204924819D02*
X263791791Y-204258152D01*
X263267982Y-204258152D02*
X263791791Y-204924819D01*
X264696553Y-204924819D02*
X264125125Y-204924819D01*
X264410839Y-204924819D02*
X264410839Y-203924819D01*
X264410839Y-203924819D02*
X264315601Y-204067676D01*
X264315601Y-204067676D02*
X264220363Y-204162914D01*
X264220363Y-204162914D02*
X264125125Y-204210533D01*
X265648934Y-204924819D02*
X265077506Y-204924819D01*
X265363220Y-204924819D02*
X265363220Y-203924819D01*
X265363220Y-203924819D02*
X265267982Y-204067676D01*
X265267982Y-204067676D02*
X265172744Y-204162914D01*
X265172744Y-204162914D02*
X265077506Y-204210533D01*
X266029887Y-203924819D02*
X266029887Y-204115295D01*
X266410839Y-203924819D02*
X266410839Y-204115295D01*
D13*
%TO.C,C209*%
X115175000Y-117700000D03*
X113625000Y-117700000D03*
%TD*%
D14*
%TO.C,R201*%
X107493200Y-108475000D03*
X107493200Y-110125000D03*
%TD*%
D15*
%TO.C,FID301*%
X192090701Y-109420000D03*
%TD*%
D16*
%TO.C,F302*%
X185499999Y-96300000D03*
X188299999Y-96300000D03*
%TD*%
D17*
%TO.C,D505*%
X161393200Y-117467500D03*
X160593200Y-117467500D03*
%TD*%
%TO.C,D404*%
X144893200Y-93820000D03*
X144093200Y-93820000D03*
%TD*%
D18*
%TO.C,J509*%
X181593200Y-120500000D03*
D19*
X183593200Y-120500000D03*
%TD*%
D20*
%TO.C,R304*%
X188953198Y-105210000D03*
X188953198Y-106230000D03*
%TD*%
D21*
%TO.C,R503*%
X174593200Y-116297500D03*
X174593200Y-115277500D03*
%TD*%
D22*
%TO.C,C204*%
X125993200Y-108525000D03*
X125993200Y-110075000D03*
%TD*%
D17*
%TO.C,D504*%
X145293200Y-117467500D03*
X144493200Y-117467500D03*
%TD*%
D18*
%TO.C,J503*%
X174593200Y-120500000D03*
D19*
X176593200Y-120500000D03*
%TD*%
D23*
%TO.C,D305*%
X198500000Y-86012500D03*
X198500000Y-87587500D03*
%TD*%
D24*
%TO.C,C304*%
X185795700Y-101074999D03*
X185795700Y-99524999D03*
%TD*%
D25*
%TO.C,D405*%
X152993200Y-87387500D03*
X152993200Y-85812500D03*
%TD*%
D26*
%TO.C,D511*%
X164793200Y-117467500D03*
X165593200Y-117467500D03*
%TD*%
%TO.C,D512*%
X180793200Y-117467500D03*
X181593200Y-117467500D03*
%TD*%
%TO.C,D402*%
X171543201Y-97024999D03*
X172343201Y-97024999D03*
%TD*%
D27*
%TO.C,C302*%
X180302497Y-97140001D03*
X178402497Y-97140001D03*
%TD*%
D28*
%TO.C,D302*%
X177249998Y-94500000D03*
X183149998Y-94500000D03*
X183149998Y-92000000D03*
X177249998Y-92000000D03*
%TD*%
D29*
%TO.C,R404*%
X156083200Y-99825000D03*
X157103200Y-99825000D03*
%TD*%
D30*
%TO.C,J402*%
X146390000Y-89837500D03*
X140610000Y-89837500D03*
D31*
X146700000Y-90912500D03*
X145900000Y-90912500D03*
D32*
X144750000Y-90912500D03*
X143750000Y-90912500D03*
X143250000Y-90912500D03*
X142250000Y-90912500D03*
D31*
X140300000Y-90912500D03*
X141100000Y-90912500D03*
D32*
X141750000Y-90912500D03*
X142750000Y-90912500D03*
X144250000Y-90912500D03*
X145250000Y-90912500D03*
D33*
X148610000Y-90337500D03*
X138390000Y-90337500D03*
X148610000Y-86407500D03*
X138390000Y-86407500D03*
%TD*%
D34*
%TO.C,C411*%
X159073200Y-97525000D03*
X158113200Y-97525000D03*
%TD*%
D20*
%TO.C,R309*%
X187095700Y-99577869D03*
X187095700Y-100597869D03*
%TD*%
D15*
%TO.C,TP401*%
X149500000Y-93800000D03*
%TD*%
D21*
%TO.C,R509*%
X181593200Y-116297500D03*
X181593200Y-115277500D03*
%TD*%
D26*
%TO.C,D501*%
X141693200Y-117467500D03*
X142493200Y-117467500D03*
%TD*%
D29*
%TO.C,R504*%
X148483200Y-113287500D03*
X149503200Y-113287500D03*
%TD*%
D34*
%TO.C,C501*%
X145373200Y-116187500D03*
X144413200Y-116187500D03*
%TD*%
D15*
%TO.C,FID201*%
X117993200Y-113300000D03*
%TD*%
D20*
%TO.C,R307*%
X199799999Y-86290001D03*
X199799999Y-87310001D03*
%TD*%
D29*
%TO.C,R308*%
X199398202Y-121594999D03*
X200418202Y-121594999D03*
%TD*%
D35*
%TO.C,C205*%
X125868200Y-113550000D03*
X125868200Y-114510000D03*
%TD*%
D21*
%TO.C,R409*%
X139293200Y-95310000D03*
X139293200Y-94290000D03*
%TD*%
D36*
%TO.C,C414*%
X168913201Y-100625000D03*
X169873201Y-100625000D03*
%TD*%
D13*
%TO.C,C211*%
X102475000Y-117700000D03*
X100925000Y-117700000D03*
%TD*%
D37*
%TO.C,D303*%
X201005700Y-111495001D03*
X201005700Y-110695001D03*
X200155700Y-111495001D03*
D38*
X200155700Y-111095001D03*
D37*
X200155700Y-110695001D03*
X199305700Y-111495001D03*
X199305700Y-110695001D03*
X197780700Y-111495001D03*
D39*
X197780700Y-111095001D03*
D37*
X197780700Y-110695001D03*
%TD*%
D22*
%TO.C,C203*%
X108993200Y-108525000D03*
X108993200Y-110075000D03*
%TD*%
D29*
%TO.C,R506*%
X180583200Y-113207500D03*
X181603200Y-113207500D03*
%TD*%
D40*
%TO.C,U202*%
X124893200Y-113050000D03*
D41*
X124493200Y-112150000D03*
D42*
X123993200Y-112150000D03*
X123493200Y-112150000D03*
X122993200Y-112150000D03*
X122493200Y-112150000D03*
X121993200Y-112150000D03*
D40*
X121593200Y-113050000D03*
X121593200Y-113550000D03*
D41*
X121993200Y-114450000D03*
X122493200Y-114450000D03*
X122993200Y-114450000D03*
X123493200Y-114450000D03*
X123993200Y-114450000D03*
X124493200Y-114450000D03*
D43*
X124893200Y-113550000D03*
D44*
X123193200Y-113300000D03*
%TD*%
D45*
%TO.C,SW402*%
X163493200Y-89950000D03*
X165093200Y-89950000D03*
X165093200Y-85850000D03*
X163493200Y-85850000D03*
%TD*%
D46*
%TO.C,Q503*%
X173943200Y-113862500D03*
X173943200Y-114312500D03*
D47*
X174643200Y-114087500D03*
%TD*%
D15*
%TO.C,TP304*%
X202940000Y-116360000D03*
%TD*%
D34*
%TO.C,C505*%
X168473200Y-116287500D03*
X167513200Y-116287500D03*
%TD*%
D18*
%TO.C,J501*%
X142493200Y-120500000D03*
D19*
X144493200Y-120500000D03*
%TD*%
D35*
%TO.C,C407*%
X173793200Y-105065000D03*
X173793200Y-106025000D03*
%TD*%
D48*
%TO.C,U304*%
X183773200Y-99499999D03*
D49*
X181493200Y-105799999D03*
D48*
X179213200Y-99499999D03*
%TD*%
D18*
%TO.C,J508*%
X165593200Y-120500000D03*
D19*
X167593200Y-120500000D03*
%TD*%
D22*
%TO.C,C202*%
X128993200Y-108525000D03*
X128993200Y-110075000D03*
%TD*%
D50*
%TO.C,F301*%
X188299999Y-92300000D03*
X185499999Y-92300000D03*
%TD*%
D20*
%TO.C,R407*%
X151493200Y-88690000D03*
X151493200Y-89710000D03*
%TD*%
D35*
%TO.C,C410*%
X164793200Y-105225000D03*
X164793200Y-106185000D03*
%TD*%
D21*
%TO.C,R303*%
X187953198Y-106229998D03*
X187953198Y-105209998D03*
%TD*%
D29*
%TO.C,R505*%
X164583200Y-113207500D03*
X165603200Y-113207500D03*
%TD*%
D35*
%TO.C,C405*%
X160893200Y-105245000D03*
X160893200Y-106205000D03*
%TD*%
D51*
%TO.C,J205*%
X126243200Y-120800000D03*
D52*
X128250200Y-120800000D03*
X130256200Y-120800000D03*
X132263200Y-120800000D03*
X134269200Y-120800000D03*
%TD*%
D36*
%TO.C,C507*%
X148533200Y-114287500D03*
X149493200Y-114287500D03*
%TD*%
D53*
%TO.C,D301*%
X146993200Y-96170000D03*
D54*
X146993200Y-93795000D03*
%TD*%
D55*
%TO.C,C402*%
X160193200Y-95805000D03*
X160193200Y-94845000D03*
%TD*%
D34*
%TO.C,C416*%
X159073200Y-98524999D03*
X158113200Y-98524999D03*
%TD*%
D25*
%TO.C,D407*%
X154493201Y-87387501D03*
X154493201Y-85812501D03*
%TD*%
D22*
%TO.C,C201*%
X105993200Y-108525000D03*
X105993200Y-110075000D03*
%TD*%
D21*
%TO.C,R410*%
X140293200Y-95310000D03*
X140293200Y-94290000D03*
%TD*%
D15*
%TO.C,FID401*%
X158093200Y-95100000D03*
%TD*%
D56*
%TO.C,C301*%
X190418199Y-103120001D03*
X192318199Y-103120001D03*
%TD*%
D23*
%TO.C,D306*%
X190993200Y-86012499D03*
X190993200Y-87587499D03*
%TD*%
D20*
%TO.C,R306*%
X188095700Y-99589998D03*
X188095700Y-100609998D03*
%TD*%
D13*
%TO.C,C207*%
X128050000Y-117700000D03*
X126500000Y-117700000D03*
%TD*%
D57*
%TO.C,C307*%
X202918200Y-109195001D03*
X202918200Y-111095001D03*
%TD*%
D58*
%TO.C,L301*%
X200618200Y-106095000D03*
X200618200Y-104695000D03*
X194418200Y-106095000D03*
X194418200Y-104695000D03*
%TD*%
D34*
%TO.C,C406*%
X159073200Y-96525000D03*
X158113200Y-96525000D03*
%TD*%
D21*
%TO.C,R507*%
X149493200Y-116297500D03*
X149493200Y-115277500D03*
%TD*%
%TO.C,R508*%
X165593200Y-116297500D03*
X165593200Y-115277500D03*
%TD*%
D59*
%TO.C,R414*%
X144110000Y-104900000D03*
X143090000Y-104900000D03*
%TD*%
D21*
%TO.C,R501*%
X142493200Y-116197500D03*
X142493200Y-115177500D03*
%TD*%
D36*
%TO.C,C509*%
X180633200Y-114287500D03*
X181593200Y-114287500D03*
%TD*%
D20*
%TO.C,R411*%
X154493200Y-88690000D03*
X154493200Y-89710000D03*
%TD*%
D43*
%TO.C,U201*%
X110843200Y-113700000D03*
D42*
X111243200Y-114600000D03*
D41*
X111743200Y-114600000D03*
X112243200Y-114600000D03*
X112743200Y-114600000D03*
X113243200Y-114600000D03*
X113743200Y-114600000D03*
D43*
X114143200Y-113700000D03*
X114143200Y-113200000D03*
D42*
X113743200Y-112300000D03*
X113243200Y-112300000D03*
X112743200Y-112300000D03*
X112243200Y-112300000D03*
X111743200Y-112300000D03*
X111243200Y-112300000D03*
D40*
X110843200Y-113200000D03*
D60*
X112543200Y-113450000D03*
%TD*%
D26*
%TO.C,D510*%
X148693200Y-117467500D03*
X149493200Y-117467500D03*
%TD*%
D34*
%TO.C,C502*%
X161473200Y-116287500D03*
X160513200Y-116287500D03*
%TD*%
D46*
%TO.C,Q502*%
X157943200Y-113862500D03*
X157943200Y-114312500D03*
D47*
X158643200Y-114087500D03*
%TD*%
D55*
%TO.C,C408*%
X169193200Y-104785000D03*
X169193200Y-103825000D03*
%TD*%
D18*
%TO.C,J507*%
X149493200Y-120500000D03*
D19*
X151493200Y-120500000D03*
%TD*%
D29*
%TO.C,R405*%
X156083200Y-98825001D03*
X157103200Y-98825001D03*
%TD*%
D61*
%TO.C,J302*%
X199643200Y-94300000D03*
D62*
X192343200Y-92200000D03*
X192343200Y-96400000D03*
%TD*%
D63*
%TO.C,U402*%
X161193200Y-103962500D03*
X161593200Y-103962500D03*
X161993200Y-103962500D03*
X162393200Y-103962500D03*
X162793200Y-103962500D03*
X163193200Y-103962500D03*
X163593200Y-103962500D03*
X163993200Y-103962500D03*
X164393200Y-103962500D03*
X164793200Y-103962500D03*
X165193200Y-103962500D03*
X165593200Y-103962500D03*
X165993200Y-103962500D03*
X166393200Y-103962500D03*
D64*
X167230700Y-103125000D03*
X167230700Y-102725000D03*
X167230700Y-102325000D03*
X167230700Y-101925000D03*
X167230700Y-101525000D03*
X167230700Y-101125000D03*
X167230700Y-100725000D03*
X167230700Y-100325000D03*
X167230700Y-99925000D03*
X167230700Y-99525000D03*
X167230700Y-99125000D03*
X167230700Y-98725000D03*
X167230700Y-98325000D03*
X167230700Y-97925000D03*
D63*
X166393200Y-97087500D03*
X165993200Y-97087500D03*
X165593200Y-97087500D03*
X165193200Y-97087500D03*
X164793200Y-97087500D03*
X164393200Y-97087500D03*
X163993200Y-97087500D03*
X163593200Y-97087500D03*
X163193200Y-97087500D03*
X162793200Y-97087500D03*
X162393200Y-97087500D03*
X161993200Y-97087500D03*
X161593200Y-97087500D03*
X161193200Y-97087500D03*
D64*
X160355700Y-97925000D03*
X160355700Y-98325000D03*
X160355700Y-98725000D03*
X160355700Y-99125000D03*
X160355700Y-99525000D03*
X160355700Y-99925000D03*
X160355700Y-100325000D03*
X160355700Y-100725000D03*
X160355700Y-101125000D03*
X160355700Y-101525000D03*
X160355700Y-101925000D03*
X160355700Y-102325000D03*
X160355700Y-102725000D03*
X160355700Y-103125000D03*
D65*
X163793200Y-100525000D03*
%TD*%
D26*
%TO.C,D503*%
X173793200Y-117467500D03*
X174593200Y-117467500D03*
%TD*%
D66*
%TO.C,Y401*%
X170643200Y-103824999D03*
X170643200Y-106024999D03*
X172343200Y-106024999D03*
X172343200Y-103824999D03*
%TD*%
D59*
%TO.C,R402*%
X160503200Y-108700000D03*
X159483200Y-108700000D03*
%TD*%
%TO.C,R401*%
X160503200Y-107675000D03*
X159483200Y-107675000D03*
%TD*%
D55*
%TO.C,C409*%
X162193200Y-95804999D03*
X162193200Y-94844999D03*
%TD*%
D17*
%TO.C,D513*%
X152293200Y-117467500D03*
X151493200Y-117467500D03*
%TD*%
D20*
%TO.C,R408*%
X152493200Y-88690000D03*
X152493200Y-89710000D03*
%TD*%
D67*
%TO.C,C309*%
X198843199Y-120294999D03*
X200393199Y-120294999D03*
%TD*%
D59*
%TO.C,R413*%
X144110000Y-103200000D03*
X143090000Y-103200000D03*
%TD*%
D34*
%TO.C,C412*%
X157073200Y-100825000D03*
X156113200Y-100825000D03*
%TD*%
D14*
%TO.C,R202*%
X127493200Y-108475000D03*
X127493200Y-110125000D03*
%TD*%
D15*
%TO.C,TP305*%
X175300000Y-89900000D03*
%TD*%
%TO.C,TP303*%
X194000000Y-86800000D03*
%TD*%
D26*
%TO.C,D502*%
X157793200Y-117467500D03*
X158593200Y-117467500D03*
%TD*%
D17*
%TO.C,D515*%
X184393200Y-117467500D03*
X183593200Y-117467500D03*
%TD*%
D36*
%TO.C,C415*%
X168913200Y-99625000D03*
X169873200Y-99625000D03*
%TD*%
D68*
%TO.C,J202*%
X135493200Y-93650000D03*
X119493200Y-93650000D03*
X135493200Y-87800000D03*
X119493200Y-87800000D03*
X135493200Y-99500000D03*
X119493200Y-99500000D03*
%TD*%
%TO.C,J201*%
X115493200Y-93650000D03*
X99493200Y-93650000D03*
X115493200Y-87800000D03*
X99493200Y-87800000D03*
X115493200Y-99500000D03*
X99493200Y-99500000D03*
%TD*%
D20*
%TO.C,R302*%
X187095700Y-101489998D03*
X187095700Y-102509998D03*
%TD*%
D15*
%TO.C,TP302*%
X201500000Y-86800000D03*
%TD*%
D25*
%TO.C,D403*%
X151493200Y-87387500D03*
X151493200Y-85812500D03*
%TD*%
D55*
%TO.C,C403*%
X161193200Y-95804999D03*
X161193200Y-94844999D03*
%TD*%
D69*
%TO.C,U302*%
X200418200Y-118255000D03*
D70*
X194118200Y-115975000D03*
D69*
X200418200Y-113695000D03*
%TD*%
D71*
%TO.C,D410*%
X145312500Y-106600000D03*
X146887500Y-106600000D03*
%TD*%
D59*
%TO.C,R305*%
X200418200Y-122594998D03*
X199398200Y-122594998D03*
%TD*%
D36*
%TO.C,C508*%
X164633200Y-114287500D03*
X165593200Y-114287500D03*
%TD*%
D26*
%TO.C,D406*%
X142093200Y-93820000D03*
X142893200Y-93820000D03*
%TD*%
D72*
%TO.C,SW401*%
X160693200Y-85850000D03*
X159093200Y-85850000D03*
X159093200Y-89950000D03*
X160693200Y-89950000D03*
%TD*%
D67*
%TO.C,C303*%
X190178196Y-107420000D03*
X191728196Y-107420000D03*
%TD*%
D73*
%TO.C,U401*%
X157693201Y-108530000D03*
X157693201Y-107260000D03*
X157693201Y-105990000D03*
X157693201Y-104720000D03*
X151893201Y-104720000D03*
X151893201Y-105990000D03*
X151893201Y-107260000D03*
X151893201Y-108530000D03*
D74*
X156393201Y-108225000D03*
X156393201Y-106625000D03*
X156393201Y-105025000D03*
X154793201Y-108225000D03*
X154793201Y-106625000D03*
D75*
X154793201Y-106625000D03*
D74*
X154793201Y-105025000D03*
X153193201Y-108225000D03*
X153193201Y-106625000D03*
X153193201Y-105025000D03*
%TD*%
D59*
%TO.C,R415*%
X144100001Y-106600000D03*
X143080001Y-106600000D03*
%TD*%
D20*
%TO.C,R311*%
X192293198Y-86290000D03*
X192293198Y-87310000D03*
%TD*%
D67*
%TO.C,C305*%
X194430699Y-111094998D03*
X195980699Y-111094998D03*
%TD*%
D17*
%TO.C,D514*%
X168393200Y-117467500D03*
X167593200Y-117467500D03*
%TD*%
D51*
%TO.C,J204*%
X113480700Y-120800000D03*
D52*
X115487700Y-120800000D03*
X117493700Y-120800000D03*
X119500700Y-120800000D03*
X121506700Y-120800000D03*
%TD*%
D51*
%TO.C,J203*%
X100743200Y-120800000D03*
D52*
X102750200Y-120800000D03*
X104756200Y-120800000D03*
X106763200Y-120800000D03*
X108769200Y-120800000D03*
%TD*%
D57*
%TO.C,C310*%
X189643197Y-116449999D03*
X189643197Y-118349999D03*
%TD*%
D20*
%TO.C,R412*%
X153493200Y-88690000D03*
X153493200Y-89710000D03*
%TD*%
D34*
%TO.C,C504*%
X152373200Y-116287500D03*
X151413200Y-116287500D03*
%TD*%
D17*
%TO.C,D506*%
X177393200Y-117467500D03*
X176593200Y-117467500D03*
%TD*%
D71*
%TO.C,D408*%
X145312500Y-103199999D03*
X146887500Y-103199999D03*
%TD*%
D76*
%TO.C,H501*%
X94918200Y-121875000D03*
%TD*%
D34*
%TO.C,C506*%
X184473200Y-116187500D03*
X183513200Y-116187500D03*
%TD*%
%TO.C,C413*%
X157073200Y-101824999D03*
X156113200Y-101824999D03*
%TD*%
D21*
%TO.C,R502*%
X158593200Y-116297500D03*
X158593200Y-115277500D03*
%TD*%
D77*
%TO.C,U301*%
X190893199Y-104744999D03*
X190893199Y-105394999D03*
X190893199Y-106044999D03*
X192668199Y-106044999D03*
X192668199Y-105394999D03*
X192668199Y-104744999D03*
D78*
X191780699Y-105394999D03*
%TD*%
D20*
%TO.C,R403*%
X167093200Y-94515000D03*
X167093200Y-95535000D03*
%TD*%
D36*
%TO.C,C401*%
X151893200Y-110125000D03*
X152853200Y-110125000D03*
%TD*%
D56*
%TO.C,C306*%
X181990703Y-110274999D03*
X183890703Y-110274999D03*
%TD*%
D46*
%TO.C,Q501*%
X141843200Y-113762500D03*
X141843200Y-114212500D03*
D47*
X142543200Y-113987500D03*
%TD*%
D18*
%TO.C,J502*%
X158593200Y-120500000D03*
D19*
X160593200Y-120500000D03*
%TD*%
D71*
%TO.C,D409*%
X145312498Y-104899999D03*
X146887498Y-104899999D03*
%TD*%
D34*
%TO.C,C503*%
X177473200Y-116187500D03*
X176513200Y-116187500D03*
%TD*%
D79*
%TO.C,J401*%
X172363200Y-87800000D03*
X172363200Y-92850000D03*
X169823200Y-87800000D03*
X169823200Y-92850000D03*
%TD*%
D55*
%TO.C,C206*%
X109868200Y-113200000D03*
X109868200Y-112240000D03*
%TD*%
%TO.C,C404*%
X165000000Y-95180000D03*
X165000000Y-94220000D03*
%TD*%
D80*
%TO.C,D401*%
X167293200Y-86975001D03*
X167293200Y-87775001D03*
%TD*%
D20*
%TO.C,R301*%
X189953199Y-105209999D03*
X189953199Y-106229999D03*
%TD*%
D59*
%TO.C,R406*%
X170593200Y-102225000D03*
X169573200Y-102225000D03*
%TD*%
D37*
X138390000Y-91720000D03*
X124488200Y-86270000D03*
X104168200Y-93890000D03*
X111788200Y-86270000D03*
X94008200Y-111670000D03*
X119408200Y-104050000D03*
X179960000Y-117470000D03*
X138458200Y-112940000D03*
X101628200Y-104050000D03*
X179968200Y-114275000D03*
X140293200Y-96000000D03*
X152493200Y-90400000D03*
X139743200Y-111650000D03*
X135918200Y-123100000D03*
X151493200Y-90400000D03*
X116868200Y-104050000D03*
X96548200Y-88810000D03*
X175287800Y-105315599D03*
X106708200Y-93890000D03*
X140998200Y-105320000D03*
X146700000Y-91800000D03*
X94008200Y-98970000D03*
X106708200Y-98970000D03*
X174018200Y-101510000D03*
X143090000Y-102430000D03*
X99088200Y-114210000D03*
X138443200Y-106600000D03*
X132108200Y-86270000D03*
X121948200Y-98970000D03*
X159493200Y-95050000D03*
X94008200Y-106590000D03*
X163960000Y-117460000D03*
X127493200Y-111075000D03*
X173982400Y-110364800D03*
X162190000Y-116290000D03*
X121948200Y-91350000D03*
X104168200Y-86270000D03*
X157443200Y-96525000D03*
X201793200Y-112600000D03*
X104168200Y-104050000D03*
X124488200Y-88810000D03*
X140998200Y-100240000D03*
X153493200Y-90400000D03*
X138458200Y-98970000D03*
X132108200Y-98970000D03*
X104168200Y-101510000D03*
X94008200Y-109130000D03*
X127028200Y-96430000D03*
X109118200Y-112500000D03*
X150693200Y-101650000D03*
X128993200Y-111075000D03*
X198693200Y-121600000D03*
X167668200Y-112940000D03*
X118993200Y-113900000D03*
X99088200Y-111670000D03*
X121948200Y-104050000D03*
X107493200Y-111075000D03*
X96548200Y-111670000D03*
X124488200Y-104050000D03*
X109248200Y-101510000D03*
X111788200Y-101510000D03*
X96548200Y-93890000D03*
X166393200Y-93950000D03*
X175288200Y-102780000D03*
X137188200Y-115480000D03*
X132108200Y-96430000D03*
X164793200Y-106850000D03*
X180349998Y-95850000D03*
X148610000Y-91730000D03*
X96548200Y-109130000D03*
X172748200Y-100240000D03*
X160893200Y-106875000D03*
X139293200Y-96000000D03*
X132108200Y-104050000D03*
X171478200Y-119290000D03*
X110693200Y-115900000D03*
X170593200Y-100600000D03*
X121948200Y-86270000D03*
X143090000Y-104120000D03*
X147868200Y-114275000D03*
X121948200Y-96430000D03*
X135918200Y-112940000D03*
X143080000Y-105820000D03*
X111788200Y-91350000D03*
X96548200Y-101510000D03*
X137188200Y-105320000D03*
X105993200Y-111075000D03*
X179918200Y-113175000D03*
X140998200Y-98970000D03*
X115493200Y-111850000D03*
X132108200Y-91350000D03*
X197843200Y-120300000D03*
X138458200Y-105320000D03*
X138390000Y-85010000D03*
X106708200Y-96430000D03*
X142243200Y-111650000D03*
X114593200Y-110900000D03*
X144893200Y-92900000D03*
X182793200Y-116800000D03*
X106708200Y-106590000D03*
X169200000Y-116290000D03*
X122793200Y-116200000D03*
X121948200Y-88810000D03*
X110743200Y-110850000D03*
X185230000Y-117470000D03*
X172960000Y-117470000D03*
X181549998Y-95850000D03*
X94008200Y-93890000D03*
X166193200Y-90400000D03*
X156960000Y-117470000D03*
X129568200Y-98970000D03*
X163490000Y-90930000D03*
X202214197Y-105550000D03*
X175318200Y-114075000D03*
X94008200Y-101510000D03*
X162588200Y-119290000D03*
X134693200Y-111650000D03*
X143543200Y-111650000D03*
X118993200Y-112800000D03*
X96548200Y-98970000D03*
X174018200Y-100240000D03*
X176557800Y-110364800D03*
X116868200Y-106590000D03*
X180949998Y-95850000D03*
X143538200Y-86270000D03*
X99088200Y-109130000D03*
X172748200Y-101510000D03*
X181093200Y-110300000D03*
X140998200Y-102780000D03*
X173987800Y-107768600D03*
X162230000Y-117470000D03*
X104168200Y-91350000D03*
X111788200Y-93890000D03*
X124488200Y-96430000D03*
X145643200Y-96150000D03*
X111788200Y-98970000D03*
X127028200Y-101510000D03*
X96548200Y-96430000D03*
X150493200Y-110200000D03*
X124488200Y-91350000D03*
X111843200Y-110300000D03*
X94008200Y-114210000D03*
X188968200Y-106925000D03*
X164093200Y-105900000D03*
X111788200Y-96430000D03*
X138458200Y-114210000D03*
X120993200Y-111200000D03*
X192975000Y-87100000D03*
X96548200Y-114210000D03*
X140998200Y-101510000D03*
X138458200Y-115480000D03*
X173987800Y-109064000D03*
X164093200Y-91000000D03*
X158993200Y-95050000D03*
X138458200Y-100240000D03*
X164043200Y-114275000D03*
X96548200Y-116750000D03*
X137188200Y-104050000D03*
X140843200Y-113350000D03*
X129568200Y-96430000D03*
X127028200Y-104050000D03*
X135943200Y-106600000D03*
X109868200Y-111525000D03*
X96548200Y-104050000D03*
X96548200Y-91350000D03*
X111793200Y-116850000D03*
X175287800Y-104065600D03*
X143538200Y-85000000D03*
X140993200Y-106600000D03*
X137188200Y-114210000D03*
X178200000Y-116190000D03*
X175287800Y-110360200D03*
X122343200Y-111200000D03*
X166893200Y-115600000D03*
X138458200Y-116750000D03*
X115793200Y-112750000D03*
X94008200Y-91350000D03*
X137193200Y-111650000D03*
X137193200Y-106600000D03*
X99088200Y-106590000D03*
X124488200Y-101510000D03*
X146193200Y-112000000D03*
X104143200Y-111700000D03*
X175282400Y-110364800D03*
X124488200Y-93890000D03*
X164018200Y-113200000D03*
X170593200Y-99600000D03*
X140998200Y-104050000D03*
X192300000Y-88100000D03*
X127028200Y-93890000D03*
X139728200Y-101510000D03*
X142093200Y-92900000D03*
X170208200Y-119290000D03*
X159893200Y-115600000D03*
X199000000Y-100100000D03*
X189093200Y-115600000D03*
X161780000Y-85850000D03*
X125868200Y-115225000D03*
X173992400Y-107774000D03*
X176558200Y-100240000D03*
X101628200Y-106590000D03*
X129568200Y-104050000D03*
X178220000Y-117470000D03*
X129568200Y-93890000D03*
X173243200Y-114500000D03*
X159343200Y-114075000D03*
X113693200Y-110600000D03*
X135918200Y-114210000D03*
X119493200Y-115900000D03*
X109248200Y-93890000D03*
X187093200Y-103200000D03*
X157443200Y-97525000D03*
X138458200Y-104050000D03*
X170710000Y-97020000D03*
X176558200Y-102780000D03*
X157243200Y-114550000D03*
X94008200Y-104050000D03*
X146080000Y-116190000D03*
X99088200Y-104050000D03*
X175287800Y-109110200D03*
X144793200Y-111650000D03*
X161193200Y-94175000D03*
X189693200Y-115600000D03*
X145643200Y-96750000D03*
X147870000Y-117470000D03*
X138458200Y-102780000D03*
X106708200Y-101510000D03*
X106708200Y-104050000D03*
X140998200Y-85000000D03*
X138443200Y-111650000D03*
X146120000Y-117470000D03*
X145643200Y-95550000D03*
X147818200Y-113275000D03*
X155443200Y-101825000D03*
X157443200Y-98100000D03*
X109248200Y-106590000D03*
X101628200Y-111670000D03*
X142268200Y-86270000D03*
X96548200Y-106590000D03*
X139728200Y-104050000D03*
X142268200Y-85000000D03*
X147243200Y-107900000D03*
X140993200Y-111650000D03*
X137188200Y-121830000D03*
X185210000Y-116190000D03*
X142268200Y-100240000D03*
X162193200Y-94175000D03*
X175893200Y-115550000D03*
X148610000Y-85010000D03*
X132108200Y-101510000D03*
X139728200Y-102780000D03*
X119993200Y-114600000D03*
X139728200Y-100240000D03*
X169220000Y-117470000D03*
X121948200Y-93890000D03*
X138458200Y-123100000D03*
X169818200Y-90975000D03*
X190293200Y-115600000D03*
X109248200Y-104050000D03*
X181093200Y-110900000D03*
X153100000Y-116290000D03*
X175288200Y-101510000D03*
X176558200Y-105320000D03*
X167290000Y-86140000D03*
X160193200Y-94175000D03*
X111788200Y-106590000D03*
X176558200Y-104050000D03*
X139728200Y-98970000D03*
X127028200Y-98970000D03*
X153120000Y-117470000D03*
X170193200Y-101400000D03*
X203472203Y-105550000D03*
X153568200Y-110125000D03*
X109248200Y-98970000D03*
X155443200Y-100825000D03*
X139728200Y-105320000D03*
X185793200Y-101900000D03*
X104168200Y-106590000D03*
X202843200Y-105550000D03*
X139743200Y-106600000D03*
X140870000Y-117470000D03*
X199800000Y-88250000D03*
X132108200Y-93890000D03*
X135943200Y-111650000D03*
X104168200Y-98970000D03*
X140998200Y-86270000D03*
X94008200Y-96430000D03*
X111788200Y-104050000D03*
X137188200Y-123100000D03*
X129568200Y-101510000D03*
X138458200Y-101510000D03*
X150693200Y-116950000D03*
X121948200Y-101510000D03*
X151643200Y-100750000D03*
X104168200Y-88810000D03*
X121693200Y-112650000D03*
X114093200Y-114100000D03*
X126593200Y-112800000D03*
X137188200Y-112940000D03*
X143793200Y-115500000D03*
X94008200Y-116750000D03*
X176557800Y-106580200D03*
X124488200Y-98970000D03*
X109248200Y-96430000D03*
X101628200Y-109130000D03*
X181093200Y-109700000D03*
X165700000Y-93900000D03*
X176558200Y-101510000D03*
X140300000Y-91800000D03*
X143243200Y-113975000D03*
X174018200Y-98970000D03*
X175288200Y-100240000D03*
X104168200Y-96430000D03*
X171493200Y-104900000D03*
X191000000Y-88550000D03*
X100600000Y-116900000D03*
X188493200Y-118350000D03*
X109118200Y-113200000D03*
X126812500Y-116900000D03*
X113300000Y-116900000D03*
X126618200Y-113550000D03*
X126112500Y-116900000D03*
X188043200Y-118000000D03*
X188043200Y-118700000D03*
X101300000Y-116900000D03*
X114000000Y-116900000D03*
X148393200Y-96200000D03*
X192793200Y-101500000D03*
X177349998Y-96600000D03*
X148393200Y-95600000D03*
X177349998Y-97200000D03*
X191993200Y-101500000D03*
X177349998Y-97800000D03*
X148393200Y-96800000D03*
X192393200Y-101900000D03*
X198500000Y-88550000D03*
X183543201Y-111850000D03*
X160518200Y-115600000D03*
X167518200Y-115600000D03*
X159000000Y-95700000D03*
X182800000Y-116190000D03*
X183893200Y-111400000D03*
X157593200Y-100375000D03*
X161093200Y-108200000D03*
X169093200Y-101225000D03*
X176518200Y-115575000D03*
X144418200Y-115500000D03*
X160293200Y-105225000D03*
X165700000Y-95500000D03*
X159500000Y-95700000D03*
X150690000Y-116290000D03*
X151168200Y-110125000D03*
X184243199Y-111850000D03*
X172368200Y-90100000D03*
X164193200Y-105225000D03*
X187993200Y-106925000D03*
X201830000Y-113290000D03*
X155670000Y-85820000D03*
X141100000Y-91800000D03*
X145900000Y-91800000D03*
X112393200Y-110600000D03*
X110300000Y-115400000D03*
X113200000Y-111100000D03*
X104762500Y-111700000D03*
X139293200Y-93625000D03*
X141500000Y-89900000D03*
X160200000Y-109500000D03*
X158050000Y-86200000D03*
X145000000Y-89900000D03*
X140293200Y-93625000D03*
X120496600Y-114103400D03*
X146593200Y-110800000D03*
X110993200Y-111400000D03*
X112050000Y-116250000D03*
X120500000Y-115200000D03*
X146593200Y-110100000D03*
X120493200Y-113000000D03*
X146593200Y-111500000D03*
X111250000Y-115550000D03*
X122993200Y-115400000D03*
X123000000Y-111200000D03*
X125900000Y-112700000D03*
X114103400Y-111396600D03*
X146593200Y-107900000D03*
X146593200Y-109400000D03*
X115300000Y-113200000D03*
X146593200Y-108700000D03*
X114993200Y-112300000D03*
X164800000Y-91100000D03*
X151150000Y-100350000D03*
X167300000Y-96400000D03*
X141343200Y-113775000D03*
X166300000Y-95000000D03*
X157443200Y-113875000D03*
X173443200Y-113875000D03*
X165593200Y-96300000D03*
X142500000Y-92000000D03*
X144000000Y-89700000D03*
X144500000Y-92000000D03*
X143000000Y-89700000D03*
X165600000Y-91100000D03*
X151200000Y-101200000D03*
X166400000Y-91100000D03*
X151200000Y-102100000D03*
D81*
X204693200Y-124800000D02*
G75*
G02*
X204193200Y-125300000I-500000J0D01*
G01*
X204193200Y-83300000D02*
G75*
G02*
X204693200Y-83800000I0J-500000D01*
G01*
X97993200Y-83300000D02*
X174993200Y-83300000D01*
X91493200Y-124800000D02*
X91493200Y-89800000D01*
X186993200Y-83299999D02*
X204193200Y-83299999D01*
X91493200Y-89800000D02*
G75*
G02*
X91993200Y-89300000I500000J0D01*
G01*
X204693200Y-83800000D02*
X204693200Y-124800000D01*
X174998290Y-83300000D02*
G75*
G02*
X175498300Y-83799999I10J-500000D01*
G01*
X97493200Y-83800000D02*
G75*
G02*
X97993200Y-83300000I500000J0D01*
G01*
X97493200Y-83800000D02*
G75*
G02*
X91993200Y-89300000I-5500000J0D01*
G01*
X91993200Y-125300000D02*
G75*
G02*
X91493200Y-124800000I0J500000D01*
G01*
X186490757Y-83807533D02*
G75*
G02*
X175505838Y-83799999I-5492457J7533D01*
G01*
X186493200Y-83800000D02*
G75*
G02*
X186993200Y-83300000I500000J0D01*
G01*
X204193200Y-125300000D02*
X91993200Y-125300000D01*
M02*
