%TF.GenerationSoftware,KiCad,Pcbnew,8.0.3*%
%TF.CreationDate,2024-07-04T14:19:14-04:00*%
%TF.ProjectId,baseboard,62617365-626f-4617-9264-2e6b69636164,A*%
%TF.SameCoordinates,Original*%
%TF.FileFunction,Drillmap*%
%TF.FilePolarity,Positive*%
%FSLAX45Y45*%
G04 Gerber Fmt 4.5, Leading zero omitted, Abs format (unit mm)*
G04 Created by KiCad (PCBNEW 8.0.3) date 2024-07-04 14:19:14*
%MOMM*%
%LPD*%
G01*
G04 APERTURE LIST*
%ADD10C,0.050000*%
%ADD11C,0.200000*%
%ADD12C,0.100000*%
%ADD13C,0.180000*%
G04 APERTURE END LIST*
D10*
X20469320Y-12480000D02*
G75*
G02*
X20419320Y-12530000I-50000J0D01*
G01*
X20419320Y-8330000D02*
G75*
G02*
X20469320Y-8380000I0J-50000D01*
G01*
X9799320Y-8330000D02*
X17499320Y-8330000D01*
X9149320Y-12480000D02*
X9149320Y-8980000D01*
X18699320Y-8330000D02*
X20419320Y-8330000D01*
X9149320Y-8980000D02*
G75*
G02*
X9199320Y-8930000I50000J0D01*
G01*
X20469320Y-8380000D02*
X20469320Y-12480000D01*
X17499829Y-8330000D02*
G75*
G02*
X17549830Y-8380000I1J-50000D01*
G01*
X9749320Y-8380000D02*
G75*
G02*
X9799320Y-8330000I50000J0D01*
G01*
X9749320Y-8380000D02*
G75*
G02*
X9199320Y-8930000I-550000J0D01*
G01*
X9199320Y-12530000D02*
G75*
G02*
X9149320Y-12480000I0J50000D01*
G01*
X18649076Y-8380753D02*
G75*
G02*
X17550584Y-8380000I-549246J753D01*
G01*
X18649320Y-8380000D02*
G75*
G02*
X18699320Y-8330000I50000J0D01*
G01*
X20419320Y-12530000D02*
X9199320Y-12530000D01*
D11*
D12*
X9390820Y-9125000D02*
X9410820Y-9145000D01*
X9410820Y-9125000D02*
X9390820Y-9145000D01*
X9390820Y-9379000D02*
X9410820Y-9399000D01*
X9410820Y-9379000D02*
X9390820Y-9399000D01*
X9390820Y-9633000D02*
X9410820Y-9653000D01*
X9410820Y-9633000D02*
X9390820Y-9653000D01*
X9390820Y-9887000D02*
X9410820Y-9907000D01*
X9410820Y-9887000D02*
X9390820Y-9907000D01*
X9390820Y-10141000D02*
X9410820Y-10161000D01*
X9410820Y-10141000D02*
X9390820Y-10161000D01*
X9390820Y-10395000D02*
X9410820Y-10415000D01*
X9410820Y-10395000D02*
X9390820Y-10415000D01*
X9390820Y-10649000D02*
X9410820Y-10669000D01*
X9410820Y-10649000D02*
X9390820Y-10669000D01*
X9390820Y-10903000D02*
X9410820Y-10923000D01*
X9410820Y-10903000D02*
X9390820Y-10923000D01*
X9390820Y-11157000D02*
X9410820Y-11177000D01*
X9410820Y-11157000D02*
X9390820Y-11177000D01*
X9390820Y-11411000D02*
X9410820Y-11431000D01*
X9410820Y-11411000D02*
X9390820Y-11431000D01*
X9390820Y-11665000D02*
X9410820Y-11685000D01*
X9410820Y-11665000D02*
X9390820Y-11685000D01*
X9644820Y-8871000D02*
X9664820Y-8891000D01*
X9664820Y-8871000D02*
X9644820Y-8891000D01*
X9644820Y-9125000D02*
X9664820Y-9145000D01*
X9664820Y-9125000D02*
X9644820Y-9145000D01*
X9644820Y-9379000D02*
X9664820Y-9399000D01*
X9664820Y-9379000D02*
X9644820Y-9399000D01*
X9644820Y-9633000D02*
X9664820Y-9653000D01*
X9664820Y-9633000D02*
X9644820Y-9653000D01*
X9644820Y-9887000D02*
X9664820Y-9907000D01*
X9664820Y-9887000D02*
X9644820Y-9907000D01*
X9644820Y-10141000D02*
X9664820Y-10161000D01*
X9664820Y-10141000D02*
X9644820Y-10161000D01*
X9644820Y-10395000D02*
X9664820Y-10415000D01*
X9664820Y-10395000D02*
X9644820Y-10415000D01*
X9644820Y-10649000D02*
X9664820Y-10669000D01*
X9664820Y-10649000D02*
X9644820Y-10669000D01*
X9644820Y-10903000D02*
X9664820Y-10923000D01*
X9664820Y-10903000D02*
X9644820Y-10923000D01*
X9644820Y-11157000D02*
X9664820Y-11177000D01*
X9664820Y-11157000D02*
X9644820Y-11177000D01*
X9644820Y-11411000D02*
X9664820Y-11431000D01*
X9664820Y-11411000D02*
X9644820Y-11431000D01*
X9644820Y-11665000D02*
X9664820Y-11685000D01*
X9664820Y-11665000D02*
X9644820Y-11685000D01*
X9898820Y-10395000D02*
X9918820Y-10415000D01*
X9918820Y-10395000D02*
X9898820Y-10415000D01*
X9898820Y-10649000D02*
X9918820Y-10669000D01*
X9918820Y-10649000D02*
X9898820Y-10669000D01*
X9898820Y-10903000D02*
X9918820Y-10923000D01*
X9918820Y-10903000D02*
X9898820Y-10923000D01*
X9898820Y-11157000D02*
X9918820Y-11177000D01*
X9918820Y-11157000D02*
X9898820Y-11177000D01*
X9898820Y-11411000D02*
X9918820Y-11431000D01*
X9918820Y-11411000D02*
X9898820Y-11431000D01*
X10050000Y-11680000D02*
X10070000Y-11700000D01*
X10070000Y-11680000D02*
X10050000Y-11700000D01*
X10120000Y-11680000D02*
X10140000Y-11700000D01*
X10140000Y-11680000D02*
X10120000Y-11700000D01*
X10152820Y-10395000D02*
X10172820Y-10415000D01*
X10172820Y-10395000D02*
X10152820Y-10415000D01*
X10152820Y-10649000D02*
X10172820Y-10669000D01*
X10172820Y-10649000D02*
X10152820Y-10669000D01*
X10152820Y-10903000D02*
X10172820Y-10923000D01*
X10172820Y-10903000D02*
X10152820Y-10923000D01*
X10152820Y-11157000D02*
X10172820Y-11177000D01*
X10172820Y-11157000D02*
X10152820Y-11177000D01*
X10404320Y-11160000D02*
X10424320Y-11180000D01*
X10424320Y-11160000D02*
X10404320Y-11180000D01*
X10406820Y-8617000D02*
X10426820Y-8637000D01*
X10426820Y-8617000D02*
X10406820Y-8637000D01*
X10406820Y-8871000D02*
X10426820Y-8891000D01*
X10426820Y-8871000D02*
X10406820Y-8891000D01*
X10406820Y-9125000D02*
X10426820Y-9145000D01*
X10426820Y-9125000D02*
X10406820Y-9145000D01*
X10406820Y-9379000D02*
X10426820Y-9399000D01*
X10426820Y-9379000D02*
X10406820Y-9399000D01*
X10406820Y-9633000D02*
X10426820Y-9653000D01*
X10426820Y-9633000D02*
X10406820Y-9653000D01*
X10406820Y-9887000D02*
X10426820Y-9907000D01*
X10426820Y-9887000D02*
X10406820Y-9907000D01*
X10406820Y-10141000D02*
X10426820Y-10161000D01*
X10426820Y-10141000D02*
X10406820Y-10161000D01*
X10406820Y-10395000D02*
X10426820Y-10415000D01*
X10426820Y-10395000D02*
X10406820Y-10415000D01*
X10406820Y-10649000D02*
X10426820Y-10669000D01*
X10426820Y-10649000D02*
X10406820Y-10669000D01*
X10466250Y-11160000D02*
X10486250Y-11180000D01*
X10486250Y-11160000D02*
X10466250Y-11180000D01*
X10589320Y-11097500D02*
X10609320Y-11117500D01*
X10609320Y-11097500D02*
X10589320Y-11117500D01*
X10660820Y-9379000D02*
X10680820Y-9399000D01*
X10680820Y-9379000D02*
X10660820Y-9399000D01*
X10660820Y-9633000D02*
X10680820Y-9653000D01*
X10680820Y-9633000D02*
X10660820Y-9653000D01*
X10660820Y-9887000D02*
X10680820Y-9907000D01*
X10680820Y-9887000D02*
X10660820Y-9907000D01*
X10660820Y-10141000D02*
X10680820Y-10161000D01*
X10680820Y-10141000D02*
X10660820Y-10161000D01*
X10660820Y-10395000D02*
X10680820Y-10415000D01*
X10680820Y-10395000D02*
X10660820Y-10415000D01*
X10660820Y-10649000D02*
X10680820Y-10669000D01*
X10680820Y-10649000D02*
X10660820Y-10669000D01*
X10739320Y-11097500D02*
X10759320Y-11117500D01*
X10759320Y-11097500D02*
X10739320Y-11117500D01*
X10901820Y-11240000D02*
X10921820Y-11260000D01*
X10921820Y-11240000D02*
X10901820Y-11260000D01*
X10901820Y-11310000D02*
X10921820Y-11330000D01*
X10921820Y-11310000D02*
X10901820Y-11330000D01*
X10914820Y-9379000D02*
X10934820Y-9399000D01*
X10934820Y-9379000D02*
X10914820Y-9399000D01*
X10914820Y-9633000D02*
X10934820Y-9653000D01*
X10934820Y-9633000D02*
X10914820Y-9653000D01*
X10914820Y-9887000D02*
X10934820Y-9907000D01*
X10934820Y-9887000D02*
X10914820Y-9907000D01*
X10914820Y-10141000D02*
X10934820Y-10161000D01*
X10934820Y-10141000D02*
X10914820Y-10161000D01*
X10914820Y-10395000D02*
X10934820Y-10415000D01*
X10934820Y-10395000D02*
X10914820Y-10415000D01*
X10914820Y-10649000D02*
X10934820Y-10669000D01*
X10934820Y-10649000D02*
X10914820Y-10669000D01*
X10976820Y-11142500D02*
X10996820Y-11162500D01*
X10996820Y-11142500D02*
X10976820Y-11162500D01*
X11020000Y-11530000D02*
X11040000Y-11550000D01*
X11040000Y-11530000D02*
X11020000Y-11550000D01*
X11059320Y-11580000D02*
X11079320Y-11600000D01*
X11079320Y-11580000D02*
X11059320Y-11600000D01*
X11064320Y-11075000D02*
X11084320Y-11095000D01*
X11084320Y-11075000D02*
X11064320Y-11095000D01*
X11089320Y-11130000D02*
X11109320Y-11150000D01*
X11109320Y-11130000D02*
X11089320Y-11150000D01*
X11115000Y-11545000D02*
X11135000Y-11565000D01*
X11135000Y-11545000D02*
X11115000Y-11565000D01*
X11168820Y-8617000D02*
X11188820Y-8637000D01*
X11188820Y-8617000D02*
X11168820Y-8637000D01*
X11168820Y-9125000D02*
X11188820Y-9145000D01*
X11188820Y-9125000D02*
X11168820Y-9145000D01*
X11168820Y-9379000D02*
X11188820Y-9399000D01*
X11188820Y-9379000D02*
X11168820Y-9399000D01*
X11168820Y-9633000D02*
X11188820Y-9653000D01*
X11188820Y-9633000D02*
X11168820Y-9653000D01*
X11168820Y-9887000D02*
X11188820Y-9907000D01*
X11188820Y-9887000D02*
X11168820Y-9907000D01*
X11168820Y-10141000D02*
X11188820Y-10161000D01*
X11188820Y-10141000D02*
X11168820Y-10161000D01*
X11168820Y-10395000D02*
X11188820Y-10415000D01*
X11188820Y-10395000D02*
X11168820Y-10415000D01*
X11168820Y-10649000D02*
X11188820Y-10669000D01*
X11188820Y-10649000D02*
X11168820Y-10669000D01*
X11169320Y-11675000D02*
X11189320Y-11695000D01*
X11189320Y-11675000D02*
X11169320Y-11695000D01*
X11174320Y-11020000D02*
X11194320Y-11040000D01*
X11194320Y-11020000D02*
X11174320Y-11040000D01*
X11195000Y-11615000D02*
X11215000Y-11635000D01*
X11215000Y-11615000D02*
X11195000Y-11635000D01*
X11229320Y-11050000D02*
X11249320Y-11070000D01*
X11249320Y-11050000D02*
X11229320Y-11070000D01*
X11310000Y-11100000D02*
X11330000Y-11120000D01*
X11330000Y-11100000D02*
X11310000Y-11120000D01*
X11320000Y-11680000D02*
X11340000Y-11700000D01*
X11340000Y-11680000D02*
X11320000Y-11700000D01*
X11359320Y-11050000D02*
X11379320Y-11070000D01*
X11379320Y-11050000D02*
X11359320Y-11070000D01*
X11390000Y-11680000D02*
X11410000Y-11700000D01*
X11410000Y-11680000D02*
X11390000Y-11700000D01*
X11399320Y-11400000D02*
X11419320Y-11420000D01*
X11419320Y-11400000D02*
X11399320Y-11420000D01*
X11400340Y-11129660D02*
X11420340Y-11149660D01*
X11420340Y-11129660D02*
X11400340Y-11149660D01*
X11449320Y-11080000D02*
X11469320Y-11100000D01*
X11469320Y-11080000D02*
X11449320Y-11100000D01*
X11489320Y-11220000D02*
X11509320Y-11240000D01*
X11509320Y-11220000D02*
X11489320Y-11240000D01*
X11520000Y-11310000D02*
X11540000Y-11330000D01*
X11540000Y-11310000D02*
X11520000Y-11330000D01*
X11539320Y-11175000D02*
X11559320Y-11195000D01*
X11559320Y-11175000D02*
X11539320Y-11195000D01*
X11569320Y-11265000D02*
X11589320Y-11285000D01*
X11589320Y-11265000D02*
X11569320Y-11285000D01*
X11676820Y-10395000D02*
X11696820Y-10415000D01*
X11696820Y-10395000D02*
X11676820Y-10415000D01*
X11676820Y-10649000D02*
X11696820Y-10669000D01*
X11696820Y-10649000D02*
X11676820Y-10669000D01*
X11889320Y-11270000D02*
X11909320Y-11290000D01*
X11909320Y-11270000D02*
X11889320Y-11290000D01*
X11889320Y-11380000D02*
X11909320Y-11400000D01*
X11909320Y-11380000D02*
X11889320Y-11400000D01*
X11930820Y-10395000D02*
X11950820Y-10415000D01*
X11950820Y-10395000D02*
X11930820Y-10415000D01*
X11939320Y-11580000D02*
X11959320Y-11600000D01*
X11959320Y-11580000D02*
X11939320Y-11600000D01*
X11989320Y-11450000D02*
X12009320Y-11470000D01*
X12009320Y-11450000D02*
X11989320Y-11470000D01*
X12039320Y-11290000D02*
X12059320Y-11310000D01*
X12059320Y-11290000D02*
X12039320Y-11310000D01*
X12039660Y-11400340D02*
X12059660Y-11420340D01*
X12059660Y-11400340D02*
X12039660Y-11420340D01*
X12040000Y-11510000D02*
X12060000Y-11530000D01*
X12060000Y-11510000D02*
X12040000Y-11530000D01*
X12089320Y-11110000D02*
X12109320Y-11130000D01*
X12109320Y-11110000D02*
X12089320Y-11130000D01*
X12159320Y-11255000D02*
X12179320Y-11275000D01*
X12179320Y-11255000D02*
X12159320Y-11275000D01*
X12184820Y-8617000D02*
X12204820Y-8637000D01*
X12204820Y-8617000D02*
X12184820Y-8637000D01*
X12184820Y-8871000D02*
X12204820Y-8891000D01*
X12204820Y-8871000D02*
X12184820Y-8891000D01*
X12184820Y-9125000D02*
X12204820Y-9145000D01*
X12204820Y-9125000D02*
X12184820Y-9145000D01*
X12184820Y-9379000D02*
X12204820Y-9399000D01*
X12204820Y-9379000D02*
X12184820Y-9399000D01*
X12184820Y-9633000D02*
X12204820Y-9653000D01*
X12204820Y-9633000D02*
X12184820Y-9653000D01*
X12184820Y-9887000D02*
X12204820Y-9907000D01*
X12204820Y-9887000D02*
X12184820Y-9907000D01*
X12184820Y-10141000D02*
X12204820Y-10161000D01*
X12204820Y-10141000D02*
X12184820Y-10161000D01*
X12184820Y-10395000D02*
X12204820Y-10415000D01*
X12204820Y-10395000D02*
X12184820Y-10415000D01*
X12224320Y-11110000D02*
X12244320Y-11130000D01*
X12244320Y-11110000D02*
X12224320Y-11130000D01*
X12269320Y-11610000D02*
X12289320Y-11630000D01*
X12289320Y-11610000D02*
X12269320Y-11630000D01*
X12289320Y-11530000D02*
X12309320Y-11550000D01*
X12309320Y-11530000D02*
X12289320Y-11550000D01*
X12290000Y-11110000D02*
X12310000Y-11130000D01*
X12310000Y-11110000D02*
X12290000Y-11130000D01*
X12438820Y-8617000D02*
X12458820Y-8637000D01*
X12458820Y-8617000D02*
X12438820Y-8637000D01*
X12438820Y-8871000D02*
X12458820Y-8891000D01*
X12458820Y-8871000D02*
X12438820Y-8891000D01*
X12438820Y-9125000D02*
X12458820Y-9145000D01*
X12458820Y-9125000D02*
X12438820Y-9145000D01*
X12438820Y-9379000D02*
X12458820Y-9399000D01*
X12458820Y-9379000D02*
X12438820Y-9399000D01*
X12438820Y-9633000D02*
X12458820Y-9653000D01*
X12458820Y-9633000D02*
X12438820Y-9653000D01*
X12438820Y-9887000D02*
X12458820Y-9907000D01*
X12458820Y-9887000D02*
X12438820Y-9907000D01*
X12438820Y-10141000D02*
X12458820Y-10161000D01*
X12458820Y-10141000D02*
X12438820Y-10161000D01*
X12438820Y-10395000D02*
X12458820Y-10415000D01*
X12458820Y-10395000D02*
X12438820Y-10415000D01*
X12576820Y-11512500D02*
X12596820Y-11532500D01*
X12596820Y-11512500D02*
X12576820Y-11532500D01*
X12580000Y-11260000D02*
X12600000Y-11280000D01*
X12600000Y-11260000D02*
X12580000Y-11280000D01*
X12601250Y-11680000D02*
X12621250Y-11700000D01*
X12621250Y-11680000D02*
X12601250Y-11700000D01*
X12649320Y-11270000D02*
X12669320Y-11290000D01*
X12669320Y-11270000D02*
X12649320Y-11290000D01*
X12651820Y-11345000D02*
X12671820Y-11365000D01*
X12671820Y-11345000D02*
X12651820Y-11365000D01*
X12671250Y-11680000D02*
X12691250Y-11700000D01*
X12691250Y-11680000D02*
X12671250Y-11700000D01*
X12692820Y-9379000D02*
X12712820Y-9399000D01*
X12712820Y-9379000D02*
X12692820Y-9399000D01*
X12692820Y-9633000D02*
X12712820Y-9653000D01*
X12712820Y-9633000D02*
X12692820Y-9653000D01*
X12692820Y-9887000D02*
X12712820Y-9907000D01*
X12712820Y-9887000D02*
X12692820Y-9907000D01*
X12692820Y-10141000D02*
X12712820Y-10161000D01*
X12712820Y-10141000D02*
X12692820Y-10161000D01*
X12692820Y-10395000D02*
X12712820Y-10415000D01*
X12712820Y-10395000D02*
X12692820Y-10415000D01*
X12739320Y-11097500D02*
X12759320Y-11117500D01*
X12759320Y-11097500D02*
X12739320Y-11117500D01*
X12889320Y-11097500D02*
X12909320Y-11117500D01*
X12909320Y-11097500D02*
X12889320Y-11117500D01*
X12946820Y-9379000D02*
X12966820Y-9399000D01*
X12966820Y-9379000D02*
X12946820Y-9399000D01*
X12946820Y-9633000D02*
X12966820Y-9653000D01*
X12966820Y-9633000D02*
X12946820Y-9653000D01*
X12946820Y-9887000D02*
X12966820Y-9907000D01*
X12966820Y-9887000D02*
X12946820Y-9907000D01*
X12946820Y-10141000D02*
X12966820Y-10161000D01*
X12966820Y-10141000D02*
X12946820Y-10161000D01*
X12946820Y-10395000D02*
X12966820Y-10415000D01*
X12966820Y-10395000D02*
X12946820Y-10415000D01*
X13200820Y-8617000D02*
X13220820Y-8637000D01*
X13220820Y-8617000D02*
X13200820Y-8637000D01*
X13200820Y-9125000D02*
X13220820Y-9145000D01*
X13220820Y-9125000D02*
X13200820Y-9145000D01*
X13200820Y-9379000D02*
X13220820Y-9399000D01*
X13220820Y-9379000D02*
X13200820Y-9399000D01*
X13200820Y-9633000D02*
X13220820Y-9653000D01*
X13220820Y-9633000D02*
X13200820Y-9653000D01*
X13200820Y-9887000D02*
X13220820Y-9907000D01*
X13220820Y-9887000D02*
X13200820Y-9907000D01*
X13200820Y-10141000D02*
X13220820Y-10161000D01*
X13220820Y-10141000D02*
X13200820Y-10161000D01*
X13200820Y-10395000D02*
X13220820Y-10415000D01*
X13220820Y-10395000D02*
X13200820Y-10415000D01*
X13459320Y-11155000D02*
X13479320Y-11175000D01*
X13479320Y-11155000D02*
X13459320Y-11175000D01*
X13581820Y-11284000D02*
X13601820Y-11304000D01*
X13601820Y-11284000D02*
X13581820Y-11304000D01*
X13581820Y-11411000D02*
X13601820Y-11431000D01*
X13601820Y-11411000D02*
X13581820Y-11431000D01*
X13581820Y-12300000D02*
X13601820Y-12320000D01*
X13601820Y-12300000D02*
X13581820Y-12320000D01*
X13584320Y-10650000D02*
X13604320Y-10670000D01*
X13604320Y-10650000D02*
X13584320Y-10670000D01*
X13584320Y-11155000D02*
X13604320Y-11175000D01*
X13604320Y-11155000D02*
X13584320Y-11175000D01*
X13708820Y-10395000D02*
X13728820Y-10415000D01*
X13728820Y-10395000D02*
X13708820Y-10415000D01*
X13708820Y-10522000D02*
X13728820Y-10542000D01*
X13728820Y-10522000D02*
X13708820Y-10542000D01*
X13708820Y-11284000D02*
X13728820Y-11304000D01*
X13728820Y-11284000D02*
X13708820Y-11304000D01*
X13708820Y-11411000D02*
X13728820Y-11431000D01*
X13728820Y-11411000D02*
X13708820Y-11431000D01*
X13708820Y-11538000D02*
X13728820Y-11558000D01*
X13728820Y-11538000D02*
X13708820Y-11558000D01*
X13708820Y-12173000D02*
X13728820Y-12193000D01*
X13728820Y-12173000D02*
X13708820Y-12193000D01*
X13708820Y-12300000D02*
X13728820Y-12320000D01*
X13728820Y-12300000D02*
X13708820Y-12320000D01*
X13709320Y-10650000D02*
X13729320Y-10670000D01*
X13729320Y-10650000D02*
X13709320Y-10670000D01*
X13709320Y-11155000D02*
X13729320Y-11175000D01*
X13729320Y-11155000D02*
X13709320Y-11175000D01*
X13829000Y-8491000D02*
X13849000Y-8511000D01*
X13849000Y-8491000D02*
X13829000Y-8511000D01*
X13829000Y-9162000D02*
X13849000Y-9182000D01*
X13849000Y-9162000D02*
X13829000Y-9182000D01*
X13834320Y-10650000D02*
X13854320Y-10670000D01*
X13854320Y-10650000D02*
X13834320Y-10670000D01*
X13834320Y-11155000D02*
X13854320Y-11175000D01*
X13854320Y-11155000D02*
X13834320Y-11175000D01*
X13835820Y-9887000D02*
X13855820Y-9907000D01*
X13855820Y-9887000D02*
X13835820Y-9907000D01*
X13835820Y-10014000D02*
X13855820Y-10034000D01*
X13855820Y-10014000D02*
X13835820Y-10034000D01*
X13835820Y-10141000D02*
X13855820Y-10161000D01*
X13855820Y-10141000D02*
X13835820Y-10161000D01*
X13835820Y-10268000D02*
X13855820Y-10288000D01*
X13855820Y-10268000D02*
X13835820Y-10288000D01*
X13835820Y-10395000D02*
X13855820Y-10415000D01*
X13855820Y-10395000D02*
X13835820Y-10415000D01*
X13835820Y-10522000D02*
X13855820Y-10542000D01*
X13855820Y-10522000D02*
X13835820Y-10542000D01*
X13835820Y-11284000D02*
X13855820Y-11304000D01*
X13855820Y-11284000D02*
X13835820Y-11304000D01*
X13835820Y-11411000D02*
X13855820Y-11431000D01*
X13855820Y-11411000D02*
X13835820Y-11431000D01*
X13835820Y-11538000D02*
X13855820Y-11558000D01*
X13855820Y-11538000D02*
X13835820Y-11558000D01*
X13835820Y-11665000D02*
X13855820Y-11685000D01*
X13855820Y-11665000D02*
X13835820Y-11685000D01*
X13835820Y-12300000D02*
X13855820Y-12320000D01*
X13855820Y-12300000D02*
X13835820Y-12320000D01*
X13919320Y-9352500D02*
X13939320Y-9372500D01*
X13939320Y-9352500D02*
X13919320Y-9372500D01*
X13919320Y-9590000D02*
X13939320Y-9610000D01*
X13939320Y-9590000D02*
X13919320Y-9610000D01*
X13962820Y-9887000D02*
X13982820Y-9907000D01*
X13982820Y-9887000D02*
X13962820Y-9907000D01*
X13962820Y-10014000D02*
X13982820Y-10034000D01*
X13982820Y-10014000D02*
X13962820Y-10034000D01*
X13962820Y-10141000D02*
X13982820Y-10161000D01*
X13982820Y-10141000D02*
X13962820Y-10161000D01*
X13962820Y-10268000D02*
X13982820Y-10288000D01*
X13982820Y-10268000D02*
X13962820Y-10288000D01*
X13962820Y-10395000D02*
X13982820Y-10415000D01*
X13982820Y-10395000D02*
X13962820Y-10415000D01*
X13962820Y-10522000D02*
X13982820Y-10542000D01*
X13982820Y-10522000D02*
X13962820Y-10542000D01*
X13964320Y-10650000D02*
X13984320Y-10670000D01*
X13984320Y-10650000D02*
X13964320Y-10670000D01*
X13964320Y-11155000D02*
X13984320Y-11175000D01*
X13984320Y-11155000D02*
X13964320Y-11175000D01*
X14019320Y-9352500D02*
X14039320Y-9372500D01*
X14039320Y-9352500D02*
X14019320Y-9372500D01*
X14019320Y-9590000D02*
X14039320Y-9610000D01*
X14039320Y-9590000D02*
X14019320Y-9610000D01*
X14020000Y-9170000D02*
X14040000Y-9190000D01*
X14040000Y-9170000D02*
X14020000Y-9190000D01*
X14074320Y-11325000D02*
X14094320Y-11345000D01*
X14094320Y-11325000D02*
X14074320Y-11345000D01*
X14077000Y-11737000D02*
X14097000Y-11757000D01*
X14097000Y-11737000D02*
X14077000Y-11757000D01*
X14089320Y-10650000D02*
X14109320Y-10670000D01*
X14109320Y-10650000D02*
X14089320Y-10670000D01*
X14089320Y-11155000D02*
X14109320Y-11175000D01*
X14109320Y-11155000D02*
X14089320Y-11175000D01*
X14089820Y-8490000D02*
X14109820Y-8510000D01*
X14109820Y-8490000D02*
X14089820Y-8510000D01*
X14089820Y-8617000D02*
X14109820Y-8637000D01*
X14109820Y-8617000D02*
X14089820Y-8637000D01*
X14089820Y-9887000D02*
X14109820Y-9907000D01*
X14109820Y-9887000D02*
X14089820Y-9907000D01*
X14089820Y-10014000D02*
X14109820Y-10034000D01*
X14109820Y-10014000D02*
X14089820Y-10034000D01*
X14089820Y-10141000D02*
X14109820Y-10161000D01*
X14109820Y-10141000D02*
X14089820Y-10161000D01*
X14089820Y-10268000D02*
X14109820Y-10288000D01*
X14109820Y-10268000D02*
X14089820Y-10288000D01*
X14089820Y-10395000D02*
X14109820Y-10415000D01*
X14109820Y-10395000D02*
X14089820Y-10415000D01*
X14089820Y-10522000D02*
X14109820Y-10542000D01*
X14109820Y-10522000D02*
X14089820Y-10542000D01*
X14100000Y-9170000D02*
X14120000Y-9190000D01*
X14120000Y-9170000D02*
X14100000Y-9190000D01*
X14124320Y-11367500D02*
X14144320Y-11387500D01*
X14144320Y-11367500D02*
X14124320Y-11387500D01*
X14140000Y-8980000D02*
X14160000Y-9000000D01*
X14160000Y-8980000D02*
X14140000Y-9000000D01*
X14199320Y-9280000D02*
X14219320Y-9300000D01*
X14219320Y-9280000D02*
X14199320Y-9300000D01*
X14214320Y-11155000D02*
X14234320Y-11175000D01*
X14234320Y-11155000D02*
X14214320Y-11175000D01*
X14216820Y-8490000D02*
X14236820Y-8510000D01*
X14236820Y-8490000D02*
X14216820Y-8510000D01*
X14216820Y-8617000D02*
X14236820Y-8637000D01*
X14236820Y-8617000D02*
X14216820Y-8637000D01*
X14216820Y-10014000D02*
X14236820Y-10034000D01*
X14236820Y-10014000D02*
X14216820Y-10034000D01*
X14240000Y-9190000D02*
X14260000Y-9210000D01*
X14260000Y-9190000D02*
X14240000Y-9210000D01*
X14290000Y-8960000D02*
X14310000Y-8980000D01*
X14310000Y-8960000D02*
X14290000Y-8980000D01*
X14298000Y-10572000D02*
X14318000Y-10592000D01*
X14318000Y-10572000D02*
X14298000Y-10592000D01*
X14299000Y-10233000D02*
X14319000Y-10253000D01*
X14319000Y-10233000D02*
X14299000Y-10253000D01*
X14299000Y-10402000D02*
X14319000Y-10422000D01*
X14319000Y-10402000D02*
X14299000Y-10422000D01*
X14314320Y-11387500D02*
X14334320Y-11407500D01*
X14334320Y-11387500D02*
X14314320Y-11407500D01*
X14343820Y-8490000D02*
X14363820Y-8510000D01*
X14363820Y-8490000D02*
X14343820Y-8510000D01*
X14343820Y-8617000D02*
X14363820Y-8637000D01*
X14363820Y-8617000D02*
X14343820Y-8637000D01*
X14344320Y-11155000D02*
X14364320Y-11175000D01*
X14364320Y-11155000D02*
X14344320Y-11175000D01*
X14369320Y-11540000D02*
X14389320Y-11560000D01*
X14389320Y-11540000D02*
X14369320Y-11560000D01*
X14390000Y-8960000D02*
X14410000Y-8980000D01*
X14410000Y-8960000D02*
X14390000Y-8980000D01*
X14431820Y-11540000D02*
X14451820Y-11560000D01*
X14451820Y-11540000D02*
X14431820Y-11560000D01*
X14440000Y-9190000D02*
X14460000Y-9210000D01*
X14460000Y-9190000D02*
X14440000Y-9210000D01*
X14469320Y-11155000D02*
X14489320Y-11175000D01*
X14489320Y-11155000D02*
X14469320Y-11175000D01*
X14479320Y-9280000D02*
X14499320Y-9300000D01*
X14499320Y-9280000D02*
X14479320Y-9300000D01*
X14490000Y-8980000D02*
X14510000Y-9000000D01*
X14510000Y-8980000D02*
X14490000Y-9000000D01*
X14554320Y-9545000D02*
X14574320Y-9565000D01*
X14574320Y-9545000D02*
X14554320Y-9565000D01*
X14554320Y-9605000D02*
X14574320Y-9625000D01*
X14574320Y-9605000D02*
X14554320Y-9625000D01*
X14554320Y-9665000D02*
X14574320Y-9685000D01*
X14574320Y-9665000D02*
X14554320Y-9685000D01*
X14580000Y-9170000D02*
X14600000Y-9190000D01*
X14600000Y-9170000D02*
X14580000Y-9190000D01*
X14598000Y-11609000D02*
X14618000Y-11629000D01*
X14618000Y-11609000D02*
X14598000Y-11629000D01*
X14602000Y-11737000D02*
X14622000Y-11757000D01*
X14622000Y-11737000D02*
X14602000Y-11757000D01*
X14609320Y-11190000D02*
X14629320Y-11210000D01*
X14629320Y-11190000D02*
X14609320Y-11210000D01*
X14649320Y-10780000D02*
X14669320Y-10800000D01*
X14669320Y-10780000D02*
X14649320Y-10800000D01*
X14649320Y-10860000D02*
X14669320Y-10880000D01*
X14669320Y-10860000D02*
X14649320Y-10880000D01*
X14649320Y-10930000D02*
X14669320Y-10950000D01*
X14669320Y-10930000D02*
X14649320Y-10950000D01*
X14649320Y-11000000D02*
X14669320Y-11020000D01*
X14669320Y-11000000D02*
X14649320Y-11020000D01*
X14649320Y-11070000D02*
X14669320Y-11090000D01*
X14669320Y-11070000D02*
X14649320Y-11090000D01*
X14649320Y-11140000D02*
X14669320Y-11160000D01*
X14669320Y-11140000D02*
X14649320Y-11160000D01*
X14660000Y-9170000D02*
X14680000Y-9190000D01*
X14680000Y-9170000D02*
X14660000Y-9190000D01*
X14714320Y-10780000D02*
X14734320Y-10800000D01*
X14734320Y-10780000D02*
X14714320Y-10800000D01*
X14771820Y-11317500D02*
X14791820Y-11337500D01*
X14791820Y-11317500D02*
X14771820Y-11337500D01*
X14776820Y-11417500D02*
X14796820Y-11437500D01*
X14796820Y-11417500D02*
X14776820Y-11437500D01*
X14777000Y-11737000D02*
X14797000Y-11757000D01*
X14797000Y-11737000D02*
X14777000Y-11757000D01*
X14829320Y-9550000D02*
X14849320Y-9570000D01*
X14849320Y-9550000D02*
X14829320Y-9570000D01*
X14829320Y-9610000D02*
X14849320Y-9630000D01*
X14849320Y-9610000D02*
X14829320Y-9630000D01*
X14829320Y-9670000D02*
X14849320Y-9690000D01*
X14849320Y-9670000D02*
X14829320Y-9690000D01*
X14851000Y-8491000D02*
X14871000Y-8511000D01*
X14871000Y-8491000D02*
X14851000Y-8511000D01*
X14851000Y-9163000D02*
X14871000Y-9183000D01*
X14871000Y-9163000D02*
X14851000Y-9183000D01*
X15039320Y-11010000D02*
X15059320Y-11030000D01*
X15059320Y-11010000D02*
X15039320Y-11030000D01*
X15059000Y-11619000D02*
X15079000Y-11639000D01*
X15079000Y-11619000D02*
X15059000Y-11639000D01*
X15059320Y-10155000D02*
X15079320Y-10175000D01*
X15079320Y-10155000D02*
X15059320Y-10175000D01*
X15059320Y-11685000D02*
X15079320Y-11705000D01*
X15079320Y-11685000D02*
X15059320Y-11705000D01*
X15105000Y-10025000D02*
X15125000Y-10045000D01*
X15125000Y-10025000D02*
X15105000Y-10045000D01*
X15106820Y-11002500D02*
X15126820Y-11022500D01*
X15126820Y-11002500D02*
X15106820Y-11022500D01*
X15110000Y-10110000D02*
X15130000Y-10130000D01*
X15130000Y-10110000D02*
X15110000Y-10130000D01*
X15110000Y-10200000D02*
X15130000Y-10220000D01*
X15130000Y-10200000D02*
X15110000Y-10220000D01*
X15139320Y-9030000D02*
X15159320Y-9050000D01*
X15159320Y-9030000D02*
X15139320Y-9050000D01*
X15154320Y-10065000D02*
X15174320Y-10085000D01*
X15174320Y-10065000D02*
X15154320Y-10085000D01*
X15239320Y-9030000D02*
X15259320Y-9050000D01*
X15259320Y-9030000D02*
X15239320Y-9050000D01*
X15300000Y-11619000D02*
X15320000Y-11639000D01*
X15320000Y-11619000D02*
X15300000Y-11639000D01*
X15302000Y-11737000D02*
X15322000Y-11757000D01*
X15322000Y-11737000D02*
X15302000Y-11757000D01*
X15339320Y-9030000D02*
X15359320Y-9050000D01*
X15359320Y-9030000D02*
X15339320Y-9050000D01*
X15346820Y-11002500D02*
X15366820Y-11022500D01*
X15366820Y-11002500D02*
X15346820Y-11022500D01*
X15534320Y-10072500D02*
X15554320Y-10092500D01*
X15554320Y-10072500D02*
X15534320Y-10092500D01*
X15534320Y-10172500D02*
X15554320Y-10192500D01*
X15554320Y-10172500D02*
X15534320Y-10192500D01*
X15557000Y-8572000D02*
X15577000Y-8592000D01*
X15577000Y-8572000D02*
X15557000Y-8592000D01*
X15686000Y-11737000D02*
X15706000Y-11757000D01*
X15706000Y-11737000D02*
X15686000Y-11757000D01*
X15714320Y-11445000D02*
X15734320Y-11465000D01*
X15734320Y-11445000D02*
X15714320Y-11465000D01*
X15734320Y-9642500D02*
X15754320Y-9662500D01*
X15754320Y-9642500D02*
X15734320Y-9662500D01*
X15734320Y-9742500D02*
X15754320Y-9762500D01*
X15754320Y-9742500D02*
X15734320Y-9762500D01*
X15734320Y-9800000D02*
X15754320Y-9820000D01*
X15754320Y-9800000D02*
X15734320Y-9820000D01*
X15734320Y-11377500D02*
X15754320Y-11397500D01*
X15754320Y-11377500D02*
X15734320Y-11397500D01*
X15749320Y-10027500D02*
X15769320Y-10047500D01*
X15769320Y-10027500D02*
X15749320Y-10047500D01*
X15795000Y-8610000D02*
X15815000Y-8630000D01*
X15815000Y-8610000D02*
X15795000Y-8630000D01*
X15889320Y-9495000D02*
X15909320Y-9515000D01*
X15909320Y-9495000D02*
X15889320Y-9515000D01*
X15890000Y-9560000D02*
X15910000Y-9580000D01*
X15910000Y-9560000D02*
X15890000Y-9580000D01*
X15924320Y-11397500D02*
X15944320Y-11417500D01*
X15944320Y-11397500D02*
X15924320Y-11417500D01*
X15939320Y-9495000D02*
X15959320Y-9515000D01*
X15959320Y-9495000D02*
X15939320Y-9515000D01*
X15940000Y-9560000D02*
X15960000Y-9580000D01*
X15960000Y-9560000D02*
X15940000Y-9580000D01*
X15979320Y-11550000D02*
X15999320Y-11570000D01*
X15999320Y-11550000D02*
X15979320Y-11570000D01*
X16009320Y-9407500D02*
X16029320Y-9427500D01*
X16029320Y-9407500D02*
X16009320Y-9427500D01*
X16010000Y-10940000D02*
X16030000Y-10960000D01*
X16030000Y-10940000D02*
X16010000Y-10960000D01*
X16019320Y-10512500D02*
X16039320Y-10532500D01*
X16039320Y-10512500D02*
X16019320Y-10532500D01*
X16041820Y-11550000D02*
X16061820Y-11570000D01*
X16061820Y-11550000D02*
X16041820Y-11570000D01*
X16079320Y-10677500D02*
X16099320Y-10697500D01*
X16099320Y-10677500D02*
X16079320Y-10697500D01*
X16099320Y-10810000D02*
X16119320Y-10830000D01*
X16119320Y-10810000D02*
X16099320Y-10830000D01*
X16109320Y-9407500D02*
X16129320Y-9427500D01*
X16129320Y-9407500D02*
X16109320Y-9427500D01*
X16168000Y-8575000D02*
X16188000Y-8595000D01*
X16188000Y-8575000D02*
X16168000Y-8595000D01*
X16209000Y-11619000D02*
X16229000Y-11639000D01*
X16229000Y-11619000D02*
X16209000Y-11639000D01*
X16209320Y-9407500D02*
X16229320Y-9427500D01*
X16229320Y-9407500D02*
X16209320Y-9427500D01*
X16213000Y-11737000D02*
X16233000Y-11757000D01*
X16233000Y-11737000D02*
X16213000Y-11757000D01*
X16248820Y-11919000D02*
X16268820Y-11939000D01*
X16268820Y-11919000D02*
X16248820Y-11939000D01*
X16339000Y-9083000D02*
X16359000Y-9103000D01*
X16359000Y-9083000D02*
X16339000Y-9103000D01*
X16386000Y-11736000D02*
X16406000Y-11756000D01*
X16406000Y-11736000D02*
X16386000Y-11756000D01*
X16391820Y-11310000D02*
X16411820Y-11330000D01*
X16411820Y-11310000D02*
X16391820Y-11330000D01*
X16394320Y-11417500D02*
X16414320Y-11437500D01*
X16414320Y-11417500D02*
X16394320Y-11437500D01*
X16399320Y-9090000D02*
X16419320Y-9110000D01*
X16419320Y-9090000D02*
X16399320Y-9110000D01*
X16399320Y-10580000D02*
X16419320Y-10600000D01*
X16419320Y-10580000D02*
X16399320Y-10600000D01*
X16409320Y-10512500D02*
X16429320Y-10532500D01*
X16429320Y-10512500D02*
X16409320Y-10532500D01*
X16469320Y-10675000D02*
X16489320Y-10695000D01*
X16489320Y-10675000D02*
X16469320Y-10695000D01*
X16470000Y-9100000D02*
X16490000Y-9120000D01*
X16490000Y-9100000D02*
X16470000Y-9120000D01*
X16549320Y-9620000D02*
X16569320Y-9640000D01*
X16569320Y-9620000D02*
X16549320Y-9640000D01*
X16550000Y-9100000D02*
X16570000Y-9120000D01*
X16570000Y-9100000D02*
X16550000Y-9120000D01*
X16560000Y-9380000D02*
X16580000Y-9400000D01*
X16580000Y-9380000D02*
X16560000Y-9400000D01*
X16560000Y-9540000D02*
X16580000Y-9560000D01*
X16580000Y-9540000D02*
X16560000Y-9560000D01*
X16609320Y-9030000D02*
X16629320Y-9050000D01*
X16629320Y-9030000D02*
X16609320Y-9050000D01*
X16620000Y-9490000D02*
X16640000Y-9510000D01*
X16640000Y-9490000D02*
X16620000Y-9510000D01*
X16629320Y-9385000D02*
X16649320Y-9405000D01*
X16649320Y-9385000D02*
X16629320Y-9405000D01*
X16630000Y-9100000D02*
X16650000Y-9120000D01*
X16650000Y-9100000D02*
X16630000Y-9120000D01*
X16679320Y-11550000D02*
X16699320Y-11570000D01*
X16699320Y-11550000D02*
X16679320Y-11570000D01*
X16719000Y-8604000D02*
X16739000Y-8624000D01*
X16739000Y-8604000D02*
X16719000Y-8624000D01*
X16720000Y-9630000D02*
X16740000Y-9650000D01*
X16740000Y-9630000D02*
X16720000Y-9650000D01*
X16741820Y-11550000D02*
X16761820Y-11570000D01*
X16761820Y-11550000D02*
X16741820Y-11570000D01*
X16756820Y-11284000D02*
X16776820Y-11304000D01*
X16776820Y-11284000D02*
X16756820Y-11304000D01*
X16899320Y-10112500D02*
X16919320Y-10132500D01*
X16919320Y-10112500D02*
X16899320Y-10132500D01*
X16910000Y-11619000D02*
X16930000Y-11639000D01*
X16930000Y-11619000D02*
X16910000Y-11639000D01*
X16912000Y-11737000D02*
X16932000Y-11757000D01*
X16932000Y-11737000D02*
X16912000Y-11757000D01*
X16971820Y-9087500D02*
X16991820Y-9107500D01*
X16991820Y-9087500D02*
X16971820Y-9107500D01*
X17009320Y-10130000D02*
X17029320Y-10150000D01*
X17029320Y-10130000D02*
X17009320Y-10150000D01*
X17010820Y-11919000D02*
X17030820Y-11939000D01*
X17030820Y-11919000D02*
X17010820Y-11939000D01*
X17049320Y-9950000D02*
X17069320Y-9970000D01*
X17069320Y-9950000D02*
X17049320Y-9970000D01*
X17049320Y-10050000D02*
X17069320Y-10070000D01*
X17069320Y-10050000D02*
X17049320Y-10070000D01*
X17061000Y-9692000D02*
X17081000Y-9712000D01*
X17081000Y-9692000D02*
X17061000Y-9712000D01*
X17137820Y-11919000D02*
X17157820Y-11939000D01*
X17157820Y-11919000D02*
X17137820Y-11939000D01*
X17139320Y-10480000D02*
X17159320Y-10500000D01*
X17159320Y-10480000D02*
X17139320Y-10500000D01*
X17226820Y-9000000D02*
X17246820Y-9020000D01*
X17246820Y-9000000D02*
X17226820Y-9020000D01*
X17264820Y-10014000D02*
X17284820Y-10034000D01*
X17284820Y-10014000D02*
X17264820Y-10034000D01*
X17264820Y-10141000D02*
X17284820Y-10161000D01*
X17284820Y-10141000D02*
X17264820Y-10161000D01*
X17286000Y-11737000D02*
X17306000Y-11757000D01*
X17306000Y-11737000D02*
X17286000Y-11757000D01*
X17314320Y-11440000D02*
X17334320Y-11460000D01*
X17334320Y-11440000D02*
X17314320Y-11460000D01*
X17334320Y-11377500D02*
X17354320Y-11397500D01*
X17354320Y-11377500D02*
X17334320Y-11397500D01*
X17388240Y-11026480D02*
X17408240Y-11046480D01*
X17408240Y-11026480D02*
X17388240Y-11046480D01*
X17388780Y-10766860D02*
X17408780Y-10786860D01*
X17408780Y-10766860D02*
X17388780Y-10786860D01*
X17388780Y-10896400D02*
X17408780Y-10916400D01*
X17408780Y-10896400D02*
X17388780Y-10916400D01*
X17389240Y-10767400D02*
X17409240Y-10787400D01*
X17409240Y-10767400D02*
X17389240Y-10787400D01*
X17391820Y-9887000D02*
X17411820Y-9907000D01*
X17411820Y-9887000D02*
X17391820Y-9907000D01*
X17391820Y-10014000D02*
X17411820Y-10034000D01*
X17411820Y-10014000D02*
X17391820Y-10034000D01*
X17391820Y-10141000D02*
X17411820Y-10161000D01*
X17411820Y-10141000D02*
X17391820Y-10161000D01*
X17518240Y-11026480D02*
X17538240Y-11046480D01*
X17538240Y-11026480D02*
X17518240Y-11046480D01*
X17518780Y-10396560D02*
X17538780Y-10416560D01*
X17538780Y-10396560D02*
X17518780Y-10416560D01*
X17518780Y-10521560D02*
X17538780Y-10541560D01*
X17538780Y-10521560D02*
X17518780Y-10541560D01*
X17518780Y-10901020D02*
X17538780Y-10921020D01*
X17538780Y-10901020D02*
X17518780Y-10921020D01*
X17518780Y-11026020D02*
X17538780Y-11046020D01*
X17538780Y-11026020D02*
X17518780Y-11046020D01*
X17518820Y-10014000D02*
X17538820Y-10034000D01*
X17538820Y-10014000D02*
X17518820Y-10034000D01*
X17518820Y-10141000D02*
X17538820Y-10161000D01*
X17538820Y-10141000D02*
X17518820Y-10161000D01*
X17518820Y-10268000D02*
X17538820Y-10288000D01*
X17538820Y-10268000D02*
X17518820Y-10288000D01*
X17521820Y-11397500D02*
X17541820Y-11417500D01*
X17541820Y-11397500D02*
X17521820Y-11417500D01*
X17579320Y-11545000D02*
X17599320Y-11565000D01*
X17599320Y-11545000D02*
X17579320Y-11565000D01*
X17641820Y-11547500D02*
X17661820Y-11567500D01*
X17661820Y-11547500D02*
X17641820Y-11567500D01*
X17645780Y-10648020D02*
X17665780Y-10668020D01*
X17665780Y-10648020D02*
X17645780Y-10668020D01*
X17645780Y-11026480D02*
X17665780Y-11046480D01*
X17665780Y-11026480D02*
X17645780Y-11046480D01*
X17645820Y-10014000D02*
X17665820Y-10034000D01*
X17665820Y-10014000D02*
X17645820Y-10034000D01*
X17645820Y-10141000D02*
X17665820Y-10161000D01*
X17665820Y-10141000D02*
X17645820Y-10161000D01*
X17645820Y-10268000D02*
X17665820Y-10288000D01*
X17665820Y-10268000D02*
X17645820Y-10288000D01*
X17645820Y-10395000D02*
X17665820Y-10415000D01*
X17665820Y-10395000D02*
X17645820Y-10415000D01*
X17645820Y-10522000D02*
X17665820Y-10542000D01*
X17665820Y-10522000D02*
X17645820Y-10542000D01*
X17725000Y-9650000D02*
X17745000Y-9670000D01*
X17745000Y-9650000D02*
X17725000Y-9670000D01*
X17725000Y-9710000D02*
X17745000Y-9730000D01*
X17745000Y-9710000D02*
X17725000Y-9730000D01*
X17725000Y-9770000D02*
X17745000Y-9790000D01*
X17745000Y-9770000D02*
X17725000Y-9790000D01*
X17810000Y-11609000D02*
X17830000Y-11629000D01*
X17830000Y-11609000D02*
X17810000Y-11629000D01*
X17812000Y-11737000D02*
X17832000Y-11757000D01*
X17832000Y-11737000D02*
X17812000Y-11757000D01*
X17981820Y-11307500D02*
X18001820Y-11327500D01*
X18001820Y-11307500D02*
X17981820Y-11327500D01*
X17986000Y-11737000D02*
X18006000Y-11757000D01*
X18006000Y-11737000D02*
X17986000Y-11757000D01*
X17986820Y-11417500D02*
X18006820Y-11437500D01*
X18006820Y-11417500D02*
X17986820Y-11437500D01*
X18025000Y-9575000D02*
X18045000Y-9595000D01*
X18045000Y-9575000D02*
X18025000Y-9595000D01*
X18085000Y-9575000D02*
X18105000Y-9595000D01*
X18105000Y-9575000D02*
X18085000Y-9595000D01*
X18099320Y-10960000D02*
X18119320Y-10980000D01*
X18119320Y-10960000D02*
X18099320Y-10980000D01*
X18099320Y-11020000D02*
X18119320Y-11040000D01*
X18119320Y-11020000D02*
X18099320Y-11040000D01*
X18099320Y-11080000D02*
X18119320Y-11100000D01*
X18119320Y-11080000D02*
X18099320Y-11100000D01*
X18145000Y-9575000D02*
X18165000Y-9595000D01*
X18165000Y-9575000D02*
X18145000Y-9595000D01*
X18269320Y-11670000D02*
X18289320Y-11690000D01*
X18289320Y-11670000D02*
X18269320Y-11690000D01*
X18270000Y-11609000D02*
X18290000Y-11629000D01*
X18290000Y-11609000D02*
X18270000Y-11629000D01*
X18344320Y-11175000D02*
X18364320Y-11195000D01*
X18364320Y-11175000D02*
X18344320Y-11195000D01*
X18379320Y-11130000D02*
X18399320Y-11150000D01*
X18399320Y-11130000D02*
X18379320Y-11150000D01*
X18414320Y-11175000D02*
X18434320Y-11195000D01*
X18434320Y-11175000D02*
X18414320Y-11195000D01*
X18511000Y-11609000D02*
X18531000Y-11629000D01*
X18531000Y-11609000D02*
X18511000Y-11629000D01*
X18513000Y-11737000D02*
X18533000Y-11757000D01*
X18533000Y-11737000D02*
X18513000Y-11757000D01*
X18569320Y-10180000D02*
X18589320Y-10200000D01*
X18589320Y-10180000D02*
X18569320Y-10200000D01*
X18699320Y-10310000D02*
X18719320Y-10330000D01*
X18719320Y-10310000D02*
X18699320Y-10330000D01*
X18789320Y-10682500D02*
X18809320Y-10702500D01*
X18809320Y-10682500D02*
X18789320Y-10702500D01*
X18794320Y-11790000D02*
X18814320Y-11810000D01*
X18814320Y-11790000D02*
X18794320Y-11810000D01*
X18794320Y-11860000D02*
X18814320Y-11880000D01*
X18814320Y-11860000D02*
X18794320Y-11880000D01*
X18839320Y-11825000D02*
X18859320Y-11845000D01*
X18859320Y-11825000D02*
X18839320Y-11845000D01*
X18886820Y-10682500D02*
X18906820Y-10702500D01*
X18906820Y-10682500D02*
X18886820Y-10702500D01*
X18899320Y-11550000D02*
X18919320Y-11570000D01*
X18919320Y-11550000D02*
X18899320Y-11570000D01*
X18959320Y-11550000D02*
X18979320Y-11570000D01*
X18979320Y-11550000D02*
X18959320Y-11570000D01*
X19019320Y-11550000D02*
X19039320Y-11570000D01*
X19039320Y-11550000D02*
X19019320Y-11570000D01*
X19090000Y-8845000D02*
X19110000Y-8865000D01*
X19110000Y-8845000D02*
X19090000Y-8865000D01*
X19189320Y-10140000D02*
X19209320Y-10160000D01*
X19209320Y-10140000D02*
X19189320Y-10160000D01*
X19220000Y-8800000D02*
X19240000Y-8820000D01*
X19240000Y-8800000D02*
X19220000Y-8820000D01*
X19229320Y-10180000D02*
X19249320Y-10200000D01*
X19249320Y-10180000D02*
X19229320Y-10200000D01*
X19269320Y-10140000D02*
X19289320Y-10160000D01*
X19289320Y-10140000D02*
X19269320Y-10160000D01*
X19287500Y-8700000D02*
X19307500Y-8720000D01*
X19307500Y-8700000D02*
X19287500Y-8720000D01*
X19774320Y-12020000D02*
X19794320Y-12040000D01*
X19794320Y-12020000D02*
X19774320Y-12040000D01*
X19840000Y-8845000D02*
X19860000Y-8865000D01*
X19860000Y-8845000D02*
X19840000Y-8865000D01*
X19859320Y-12150000D02*
X19879320Y-12170000D01*
X19879320Y-12150000D02*
X19859320Y-12170000D01*
X19890000Y-10000000D02*
X19910000Y-10020000D01*
X19910000Y-10000000D02*
X19890000Y-10020000D01*
X19970000Y-8815000D02*
X19990000Y-8835000D01*
X19990000Y-8815000D02*
X19970000Y-8835000D01*
X20169320Y-11250000D02*
X20189320Y-11270000D01*
X20189320Y-11250000D02*
X20169320Y-11270000D01*
X20173000Y-11319000D02*
X20193000Y-11339000D01*
X20193000Y-11319000D02*
X20173000Y-11339000D01*
X20211420Y-10545000D02*
X20231420Y-10565000D01*
X20231420Y-10545000D02*
X20211420Y-10565000D01*
X20274320Y-10545000D02*
X20294320Y-10565000D01*
X20294320Y-10545000D02*
X20274320Y-10565000D01*
X20337220Y-10545000D02*
X20357220Y-10565000D01*
X20357220Y-10545000D02*
X20337220Y-10565000D01*
X15329320Y-10502500D02*
G75*
G02*
X15309320Y-10502500I-10000J0D01*
G01*
X15309320Y-10502500D02*
G75*
G02*
X15329320Y-10502500I10000J0D01*
G01*
X15329320Y-10662500D02*
G75*
G02*
X15309320Y-10662500I-10000J0D01*
G01*
X15309320Y-10662500D02*
G75*
G02*
X15329320Y-10662500I10000J0D01*
G01*
X15329320Y-10822500D02*
G75*
G02*
X15309320Y-10822500I-10000J0D01*
G01*
X15309320Y-10822500D02*
G75*
G02*
X15329320Y-10822500I10000J0D01*
G01*
X15489320Y-10502500D02*
G75*
G02*
X15469320Y-10502500I-10000J0D01*
G01*
X15469320Y-10502500D02*
G75*
G02*
X15489320Y-10502500I10000J0D01*
G01*
X15489320Y-10662500D02*
G75*
G02*
X15469320Y-10662500I-10000J0D01*
G01*
X15469320Y-10662500D02*
G75*
G02*
X15489320Y-10662500I10000J0D01*
G01*
X15489320Y-10822500D02*
G75*
G02*
X15469320Y-10822500I-10000J0D01*
G01*
X15469320Y-10822500D02*
G75*
G02*
X15489320Y-10822500I10000J0D01*
G01*
X15649320Y-10502500D02*
G75*
G02*
X15629320Y-10502500I-10000J0D01*
G01*
X15629320Y-10502500D02*
G75*
G02*
X15649320Y-10502500I10000J0D01*
G01*
X15649320Y-10662500D02*
G75*
G02*
X15629320Y-10662500I-10000J0D01*
G01*
X15629320Y-10662500D02*
G75*
G02*
X15649320Y-10662500I10000J0D01*
G01*
X15649320Y-10822500D02*
G75*
G02*
X15629320Y-10822500I-10000J0D01*
G01*
X15629320Y-10822500D02*
G75*
G02*
X15649320Y-10822500I10000J0D01*
G01*
X16269320Y-9932500D02*
G75*
G02*
X16249320Y-9932500I-10000J0D01*
G01*
X16249320Y-9932500D02*
G75*
G02*
X16269320Y-9932500I10000J0D01*
G01*
X16269320Y-10052500D02*
G75*
G02*
X16249320Y-10052500I-10000J0D01*
G01*
X16249320Y-10052500D02*
G75*
G02*
X16269320Y-10052500I10000J0D01*
G01*
X16269320Y-10172500D02*
G75*
G02*
X16249320Y-10172500I-10000J0D01*
G01*
X16249320Y-10172500D02*
G75*
G02*
X16269320Y-10172500I10000J0D01*
G01*
X16389320Y-9932500D02*
G75*
G02*
X16369320Y-9932500I-10000J0D01*
G01*
X16369320Y-9932500D02*
G75*
G02*
X16389320Y-9932500I10000J0D01*
G01*
X16389320Y-10052500D02*
G75*
G02*
X16369320Y-10052500I-10000J0D01*
G01*
X16369320Y-10052500D02*
G75*
G02*
X16389320Y-10052500I10000J0D01*
G01*
X16389320Y-10172500D02*
G75*
G02*
X16369320Y-10172500I-10000J0D01*
G01*
X16369320Y-10172500D02*
G75*
G02*
X16389320Y-10172500I10000J0D01*
G01*
X16509320Y-9932500D02*
G75*
G02*
X16489320Y-9932500I-10000J0D01*
G01*
X16489320Y-9932500D02*
G75*
G02*
X16509320Y-9932500I10000J0D01*
G01*
X16509320Y-10052500D02*
G75*
G02*
X16489320Y-10052500I-10000J0D01*
G01*
X16489320Y-10052500D02*
G75*
G02*
X16509320Y-10052500I10000J0D01*
G01*
X16509320Y-10172500D02*
G75*
G02*
X16489320Y-10172500I-10000J0D01*
G01*
X16489320Y-10172500D02*
G75*
G02*
X16509320Y-10172500I10000J0D01*
G01*
X17929320Y-10319000D02*
G75*
G02*
X17909320Y-10319000I-10000J0D01*
G01*
X17909320Y-10319000D02*
G75*
G02*
X17929320Y-10319000I10000J0D01*
G01*
X17929320Y-10579000D02*
G75*
G02*
X17909320Y-10579000I-10000J0D01*
G01*
X17909320Y-10579000D02*
G75*
G02*
X17929320Y-10579000I10000J0D01*
G01*
X17929320Y-10839000D02*
G75*
G02*
X17909320Y-10839000I-10000J0D01*
G01*
X17909320Y-10839000D02*
G75*
G02*
X17929320Y-10839000I10000J0D01*
G01*
X18039320Y-10449000D02*
G75*
G02*
X18019320Y-10449000I-10000J0D01*
G01*
X18019320Y-10449000D02*
G75*
G02*
X18039320Y-10449000I10000J0D01*
G01*
X18044320Y-10709000D02*
G75*
G02*
X18024320Y-10709000I-10000J0D01*
G01*
X18024320Y-10709000D02*
G75*
G02*
X18044320Y-10709000I10000J0D01*
G01*
X18159320Y-10319000D02*
G75*
G02*
X18139320Y-10319000I-10000J0D01*
G01*
X18139320Y-10319000D02*
G75*
G02*
X18159320Y-10319000I10000J0D01*
G01*
X18159320Y-10580000D02*
G75*
G02*
X18139320Y-10580000I-10000J0D01*
G01*
X18139320Y-10580000D02*
G75*
G02*
X18159320Y-10580000I10000J0D01*
G01*
X18159320Y-10839000D02*
G75*
G02*
X18139320Y-10839000I-10000J0D01*
G01*
X18139320Y-10839000D02*
G75*
G02*
X18159320Y-10839000I10000J0D01*
G01*
X18274320Y-10449000D02*
G75*
G02*
X18254320Y-10449000I-10000J0D01*
G01*
X18254320Y-10449000D02*
G75*
G02*
X18274320Y-10449000I10000J0D01*
G01*
X18274320Y-10709000D02*
G75*
G02*
X18254320Y-10709000I-10000J0D01*
G01*
X18254320Y-10709000D02*
G75*
G02*
X18274320Y-10709000I10000J0D01*
G01*
X18389320Y-10319000D02*
G75*
G02*
X18369320Y-10319000I-10000J0D01*
G01*
X18369320Y-10319000D02*
G75*
G02*
X18389320Y-10319000I10000J0D01*
G01*
X18389320Y-10579000D02*
G75*
G02*
X18369320Y-10579000I-10000J0D01*
G01*
X18369320Y-10579000D02*
G75*
G02*
X18389320Y-10579000I10000J0D01*
G01*
X18389320Y-10839000D02*
G75*
G02*
X18369320Y-10839000I-10000J0D01*
G01*
X18369320Y-10839000D02*
G75*
G02*
X18389320Y-10839000I10000J0D01*
G01*
X19162820Y-11367500D02*
G75*
G02*
X19142820Y-11367500I-10000J0D01*
G01*
X19142820Y-11367500D02*
G75*
G02*
X19162820Y-11367500I10000J0D01*
G01*
X19162820Y-11597500D02*
G75*
G02*
X19142820Y-11597500I-10000J0D01*
G01*
X19142820Y-11597500D02*
G75*
G02*
X19162820Y-11597500I10000J0D01*
G01*
X19162820Y-11827500D02*
G75*
G02*
X19142820Y-11827500I-10000J0D01*
G01*
X19142820Y-11827500D02*
G75*
G02*
X19162820Y-11827500I10000J0D01*
G01*
X19188070Y-10489500D02*
G75*
G02*
X19168070Y-10489500I-10000J0D01*
G01*
X19168070Y-10489500D02*
G75*
G02*
X19188070Y-10489500I10000J0D01*
G01*
X19188070Y-10539500D02*
G75*
G02*
X19168070Y-10539500I-10000J0D01*
G01*
X19168070Y-10539500D02*
G75*
G02*
X19188070Y-10539500I10000J0D01*
G01*
X19188070Y-10589500D02*
G75*
G02*
X19168070Y-10589500I-10000J0D01*
G01*
X19168070Y-10589500D02*
G75*
G02*
X19188070Y-10589500I10000J0D01*
G01*
X19292820Y-11482500D02*
G75*
G02*
X19272820Y-11482500I-10000J0D01*
G01*
X19272820Y-11482500D02*
G75*
G02*
X19292820Y-11482500I10000J0D01*
G01*
X19292820Y-11712500D02*
G75*
G02*
X19272820Y-11712500I-10000J0D01*
G01*
X19272820Y-11712500D02*
G75*
G02*
X19292820Y-11712500I10000J0D01*
G01*
X19421820Y-11597500D02*
G75*
G02*
X19401820Y-11597500I-10000J0D01*
G01*
X19401820Y-11597500D02*
G75*
G02*
X19421820Y-11597500I10000J0D01*
G01*
X19422820Y-11367500D02*
G75*
G02*
X19402820Y-11367500I-10000J0D01*
G01*
X19402820Y-11367500D02*
G75*
G02*
X19422820Y-11367500I10000J0D01*
G01*
X19422820Y-11827500D02*
G75*
G02*
X19402820Y-11827500I-10000J0D01*
G01*
X19402820Y-11827500D02*
G75*
G02*
X19422820Y-11827500I10000J0D01*
G01*
X19552820Y-11477500D02*
G75*
G02*
X19532820Y-11477500I-10000J0D01*
G01*
X19532820Y-11477500D02*
G75*
G02*
X19552820Y-11477500I10000J0D01*
G01*
X19552820Y-11712500D02*
G75*
G02*
X19532820Y-11712500I-10000J0D01*
G01*
X19532820Y-11712500D02*
G75*
G02*
X19552820Y-11712500I10000J0D01*
G01*
X19682820Y-11367500D02*
G75*
G02*
X19662820Y-11367500I-10000J0D01*
G01*
X19662820Y-11367500D02*
G75*
G02*
X19682820Y-11367500I10000J0D01*
G01*
X19682820Y-11597500D02*
G75*
G02*
X19662820Y-11597500I-10000J0D01*
G01*
X19662820Y-11597500D02*
G75*
G02*
X19682820Y-11597500I10000J0D01*
G01*
X19682820Y-11827500D02*
G75*
G02*
X19662820Y-11827500I-10000J0D01*
G01*
X19662820Y-11827500D02*
G75*
G02*
X19682820Y-11827500I10000J0D01*
G01*
X19788070Y-11069500D02*
G75*
G02*
X19768070Y-11069500I-10000J0D01*
G01*
X19768070Y-11069500D02*
G75*
G02*
X19788070Y-11069500I10000J0D01*
G01*
X19788070Y-11149500D02*
G75*
G02*
X19768070Y-11149500I-10000J0D01*
G01*
X19768070Y-11149500D02*
G75*
G02*
X19788070Y-11149500I10000J0D01*
G01*
X19940570Y-11069500D02*
G75*
G02*
X19920570Y-11069500I-10000J0D01*
G01*
X19920570Y-11069500D02*
G75*
G02*
X19940570Y-11069500I10000J0D01*
G01*
X19940570Y-11149500D02*
G75*
G02*
X19920570Y-11149500I-10000J0D01*
G01*
X19920570Y-11149500D02*
G75*
G02*
X19940570Y-11149500I10000J0D01*
G01*
X20025570Y-11069500D02*
G75*
G02*
X20005570Y-11069500I-10000J0D01*
G01*
X20005570Y-11069500D02*
G75*
G02*
X20025570Y-11069500I10000J0D01*
G01*
X20025570Y-11149500D02*
G75*
G02*
X20005570Y-11149500I-10000J0D01*
G01*
X20005570Y-11149500D02*
G75*
G02*
X20025570Y-11149500I10000J0D01*
G01*
X20110570Y-11069500D02*
G75*
G02*
X20090570Y-11069500I-10000J0D01*
G01*
X20090570Y-11069500D02*
G75*
G02*
X20110570Y-11069500I10000J0D01*
G01*
X20110570Y-11149500D02*
G75*
G02*
X20090570Y-11149500I-10000J0D01*
G01*
X20090570Y-11149500D02*
G75*
G02*
X20110570Y-11149500I10000J0D01*
G01*
X10074320Y-12040000D02*
X10074320Y-12120000D01*
X10034320Y-12080000D02*
X10114320Y-12080000D01*
X10275020Y-12040000D02*
X10275020Y-12120000D01*
X10235020Y-12080000D02*
X10315020Y-12080000D01*
X10475620Y-12040000D02*
X10475620Y-12120000D01*
X10435620Y-12080000D02*
X10515620Y-12080000D01*
X10676320Y-12040000D02*
X10676320Y-12120000D01*
X10636320Y-12080000D02*
X10716320Y-12080000D01*
X10876920Y-12040000D02*
X10876920Y-12120000D01*
X10836920Y-12080000D02*
X10916920Y-12080000D01*
X11348070Y-12040000D02*
X11348070Y-12120000D01*
X11308070Y-12080000D02*
X11388070Y-12080000D01*
X11548770Y-12040000D02*
X11548770Y-12120000D01*
X11508770Y-12080000D02*
X11588770Y-12080000D01*
X11749370Y-12040000D02*
X11749370Y-12120000D01*
X11709370Y-12080000D02*
X11789370Y-12080000D01*
X11950070Y-12040000D02*
X11950070Y-12120000D01*
X11910070Y-12080000D02*
X11990070Y-12080000D01*
X12150670Y-12040000D02*
X12150670Y-12120000D01*
X12110670Y-12080000D02*
X12190670Y-12080000D01*
X12624320Y-12040000D02*
X12624320Y-12120000D01*
X12584320Y-12080000D02*
X12664320Y-12080000D01*
X12825020Y-12040000D02*
X12825020Y-12120000D01*
X12785020Y-12080000D02*
X12865020Y-12080000D01*
X13025620Y-12040000D02*
X13025620Y-12120000D01*
X12985620Y-12080000D02*
X13065620Y-12080000D01*
X13226320Y-12040000D02*
X13226320Y-12120000D01*
X13186320Y-12080000D02*
X13266320Y-12080000D01*
X13426920Y-12040000D02*
X13426920Y-12120000D01*
X13386920Y-12080000D02*
X13466920Y-12080000D01*
X14249320Y-12010000D02*
X14249320Y-12090000D01*
X14209320Y-12050000D02*
X14289320Y-12050000D01*
X14449320Y-12010000D02*
X14449320Y-12090000D01*
X14409320Y-12050000D02*
X14489320Y-12050000D01*
X14949320Y-12010000D02*
X14949320Y-12090000D01*
X14909320Y-12050000D02*
X14989320Y-12050000D01*
X15149320Y-12010000D02*
X15149320Y-12090000D01*
X15109320Y-12050000D02*
X15189320Y-12050000D01*
X15859320Y-12010000D02*
X15859320Y-12090000D01*
X15819320Y-12050000D02*
X15899320Y-12050000D01*
X16059320Y-12010000D02*
X16059320Y-12090000D01*
X16019320Y-12050000D02*
X16099320Y-12050000D01*
X16559320Y-12010000D02*
X16559320Y-12090000D01*
X16519320Y-12050000D02*
X16599320Y-12050000D01*
X16759320Y-12010000D02*
X16759320Y-12090000D01*
X16719320Y-12050000D02*
X16799320Y-12050000D01*
X17459320Y-12010000D02*
X17459320Y-12090000D01*
X17419320Y-12050000D02*
X17499320Y-12050000D01*
X17659320Y-12010000D02*
X17659320Y-12090000D01*
X17619320Y-12050000D02*
X17699320Y-12050000D01*
X18159320Y-12010000D02*
X18159320Y-12090000D01*
X18119320Y-12050000D02*
X18199320Y-12050000D01*
X18359320Y-12010000D02*
X18359320Y-12090000D01*
X18319320Y-12050000D02*
X18399320Y-12050000D01*
X9984676Y-8815356D02*
X9984676Y-8744644D01*
X9913964Y-8744644D01*
X9913964Y-8815356D01*
X9984676Y-8815356D01*
X9899320Y-8580000D02*
X9899320Y-8980000D01*
X9999320Y-8980000D02*
G75*
G02*
X9899320Y-8980000I-50000J0D01*
G01*
X9999320Y-8980000D02*
X9999320Y-8580000D01*
X9999320Y-8580000D02*
G75*
G03*
X9899320Y-8580000I-50000J0D01*
G01*
X9984676Y-9400356D02*
X9984676Y-9329644D01*
X9913964Y-9329644D01*
X9913964Y-9400356D01*
X9984676Y-9400356D01*
X9899320Y-9165000D02*
X9899320Y-9565000D01*
X9999320Y-9565000D02*
G75*
G02*
X9899320Y-9565000I-50000J0D01*
G01*
X9999320Y-9565000D02*
X9999320Y-9165000D01*
X9999320Y-9165000D02*
G75*
G03*
X9899320Y-9165000I-50000J0D01*
G01*
X9984676Y-9985356D02*
X9984676Y-9914644D01*
X9913964Y-9914644D01*
X9913964Y-9985356D01*
X9984676Y-9985356D01*
X9899320Y-9750000D02*
X9899320Y-10150000D01*
X9999320Y-10150000D02*
G75*
G02*
X9899320Y-10150000I-50000J0D01*
G01*
X9999320Y-10150000D02*
X9999320Y-9750000D01*
X9999320Y-9750000D02*
G75*
G03*
X9899320Y-9750000I-50000J0D01*
G01*
X11584676Y-8815356D02*
X11584676Y-8744644D01*
X11513964Y-8744644D01*
X11513964Y-8815356D01*
X11584676Y-8815356D01*
X11499320Y-8580000D02*
X11499320Y-8980000D01*
X11599320Y-8980000D02*
G75*
G02*
X11499320Y-8980000I-50000J0D01*
G01*
X11599320Y-8980000D02*
X11599320Y-8580000D01*
X11599320Y-8580000D02*
G75*
G03*
X11499320Y-8580000I-50000J0D01*
G01*
X11584676Y-9400356D02*
X11584676Y-9329644D01*
X11513964Y-9329644D01*
X11513964Y-9400356D01*
X11584676Y-9400356D01*
X11499320Y-9165000D02*
X11499320Y-9565000D01*
X11599320Y-9565000D02*
G75*
G02*
X11499320Y-9565000I-50000J0D01*
G01*
X11599320Y-9565000D02*
X11599320Y-9165000D01*
X11599320Y-9165000D02*
G75*
G03*
X11499320Y-9165000I-50000J0D01*
G01*
X11584676Y-9985356D02*
X11584676Y-9914644D01*
X11513964Y-9914644D01*
X11513964Y-9985356D01*
X11584676Y-9985356D01*
X11499320Y-9750000D02*
X11499320Y-10150000D01*
X11599320Y-10150000D02*
G75*
G02*
X11499320Y-10150000I-50000J0D01*
G01*
X11599320Y-10150000D02*
X11599320Y-9750000D01*
X11599320Y-9750000D02*
G75*
G03*
X11499320Y-9750000I-50000J0D01*
G01*
X11984676Y-8815356D02*
X11984676Y-8744644D01*
X11913964Y-8744644D01*
X11913964Y-8815356D01*
X11984676Y-8815356D01*
X11899320Y-8580000D02*
X11899320Y-8980000D01*
X11999320Y-8980000D02*
G75*
G02*
X11899320Y-8980000I-50000J0D01*
G01*
X11999320Y-8980000D02*
X11999320Y-8580000D01*
X11999320Y-8580000D02*
G75*
G03*
X11899320Y-8580000I-50000J0D01*
G01*
X11984676Y-9400356D02*
X11984676Y-9329644D01*
X11913964Y-9329644D01*
X11913964Y-9400356D01*
X11984676Y-9400356D01*
X11899320Y-9165000D02*
X11899320Y-9565000D01*
X11999320Y-9565000D02*
G75*
G02*
X11899320Y-9565000I-50000J0D01*
G01*
X11999320Y-9565000D02*
X11999320Y-9165000D01*
X11999320Y-9165000D02*
G75*
G03*
X11899320Y-9165000I-50000J0D01*
G01*
X11984676Y-9985356D02*
X11984676Y-9914644D01*
X11913964Y-9914644D01*
X11913964Y-9985356D01*
X11984676Y-9985356D01*
X11899320Y-9750000D02*
X11899320Y-10150000D01*
X11999320Y-10150000D02*
G75*
G02*
X11899320Y-10150000I-50000J0D01*
G01*
X11999320Y-10150000D02*
X11999320Y-9750000D01*
X11999320Y-9750000D02*
G75*
G03*
X11899320Y-9750000I-50000J0D01*
G01*
X13584676Y-8815356D02*
X13584676Y-8744644D01*
X13513964Y-8744644D01*
X13513964Y-8815356D01*
X13584676Y-8815356D01*
X13499320Y-8580000D02*
X13499320Y-8980000D01*
X13599320Y-8980000D02*
G75*
G02*
X13499320Y-8980000I-50000J0D01*
G01*
X13599320Y-8980000D02*
X13599320Y-8580000D01*
X13599320Y-8580000D02*
G75*
G03*
X13499320Y-8580000I-50000J0D01*
G01*
X13584676Y-9400356D02*
X13584676Y-9329644D01*
X13513964Y-9329644D01*
X13513964Y-9400356D01*
X13584676Y-9400356D01*
X13499320Y-9165000D02*
X13499320Y-9565000D01*
X13599320Y-9565000D02*
G75*
G02*
X13499320Y-9565000I-50000J0D01*
G01*
X13599320Y-9565000D02*
X13599320Y-9165000D01*
X13599320Y-9165000D02*
G75*
G03*
X13499320Y-9165000I-50000J0D01*
G01*
X13584676Y-9985356D02*
X13584676Y-9914644D01*
X13513964Y-9914644D01*
X13513964Y-9985356D01*
X13584676Y-9985356D01*
X13499320Y-9750000D02*
X13499320Y-10150000D01*
X13599320Y-10150000D02*
G75*
G02*
X13499320Y-10150000I-50000J0D01*
G01*
X13599320Y-10150000D02*
X13599320Y-9750000D01*
X13599320Y-9750000D02*
G75*
G03*
X13499320Y-9750000I-50000J0D01*
G01*
D13*
X19234320Y-9310000D02*
X19324320Y-9220000D01*
X19234320Y-9130000D01*
X19144320Y-9220000D01*
X19234320Y-9310000D01*
X19234320Y-9730000D02*
X19324320Y-9640000D01*
X19234320Y-9550000D01*
X19144320Y-9640000D01*
X19234320Y-9730000D01*
D11*
X9407597Y-12843984D02*
X9407597Y-12643984D01*
X9407597Y-12643984D02*
X9455216Y-12643984D01*
X9455216Y-12643984D02*
X9483787Y-12653508D01*
X9483787Y-12653508D02*
X9502835Y-12672555D01*
X9502835Y-12672555D02*
X9512359Y-12691603D01*
X9512359Y-12691603D02*
X9521883Y-12729698D01*
X9521883Y-12729698D02*
X9521883Y-12758269D01*
X9521883Y-12758269D02*
X9512359Y-12796365D01*
X9512359Y-12796365D02*
X9502835Y-12815412D01*
X9502835Y-12815412D02*
X9483787Y-12834460D01*
X9483787Y-12834460D02*
X9455216Y-12843984D01*
X9455216Y-12843984D02*
X9407597Y-12843984D01*
X9607597Y-12843984D02*
X9607597Y-12710650D01*
X9607597Y-12748746D02*
X9617121Y-12729698D01*
X9617121Y-12729698D02*
X9626644Y-12720174D01*
X9626644Y-12720174D02*
X9645692Y-12710650D01*
X9645692Y-12710650D02*
X9664740Y-12710650D01*
X9731406Y-12843984D02*
X9731406Y-12710650D01*
X9731406Y-12643984D02*
X9721883Y-12653508D01*
X9721883Y-12653508D02*
X9731406Y-12663031D01*
X9731406Y-12663031D02*
X9740930Y-12653508D01*
X9740930Y-12653508D02*
X9731406Y-12643984D01*
X9731406Y-12643984D02*
X9731406Y-12663031D01*
X9855216Y-12843984D02*
X9836168Y-12834460D01*
X9836168Y-12834460D02*
X9826644Y-12815412D01*
X9826644Y-12815412D02*
X9826644Y-12643984D01*
X9959978Y-12843984D02*
X9940930Y-12834460D01*
X9940930Y-12834460D02*
X9931406Y-12815412D01*
X9931406Y-12815412D02*
X9931406Y-12643984D01*
X10188549Y-12843984D02*
X10188549Y-12643984D01*
X10188549Y-12643984D02*
X10255216Y-12786841D01*
X10255216Y-12786841D02*
X10321883Y-12643984D01*
X10321883Y-12643984D02*
X10321883Y-12843984D01*
X10502835Y-12843984D02*
X10502835Y-12739222D01*
X10502835Y-12739222D02*
X10493311Y-12720174D01*
X10493311Y-12720174D02*
X10474264Y-12710650D01*
X10474264Y-12710650D02*
X10436168Y-12710650D01*
X10436168Y-12710650D02*
X10417121Y-12720174D01*
X10502835Y-12834460D02*
X10483787Y-12843984D01*
X10483787Y-12843984D02*
X10436168Y-12843984D01*
X10436168Y-12843984D02*
X10417121Y-12834460D01*
X10417121Y-12834460D02*
X10407597Y-12815412D01*
X10407597Y-12815412D02*
X10407597Y-12796365D01*
X10407597Y-12796365D02*
X10417121Y-12777317D01*
X10417121Y-12777317D02*
X10436168Y-12767793D01*
X10436168Y-12767793D02*
X10483787Y-12767793D01*
X10483787Y-12767793D02*
X10502835Y-12758269D01*
X10598073Y-12710650D02*
X10598073Y-12910650D01*
X10598073Y-12720174D02*
X10617121Y-12710650D01*
X10617121Y-12710650D02*
X10655216Y-12710650D01*
X10655216Y-12710650D02*
X10674264Y-12720174D01*
X10674264Y-12720174D02*
X10683787Y-12729698D01*
X10683787Y-12729698D02*
X10693311Y-12748746D01*
X10693311Y-12748746D02*
X10693311Y-12805888D01*
X10693311Y-12805888D02*
X10683787Y-12824936D01*
X10683787Y-12824936D02*
X10674264Y-12834460D01*
X10674264Y-12834460D02*
X10655216Y-12843984D01*
X10655216Y-12843984D02*
X10617121Y-12843984D01*
X10617121Y-12843984D02*
X10598073Y-12834460D01*
X10779025Y-12824936D02*
X10788549Y-12834460D01*
X10788549Y-12834460D02*
X10779025Y-12843984D01*
X10779025Y-12843984D02*
X10769502Y-12834460D01*
X10769502Y-12834460D02*
X10779025Y-12824936D01*
X10779025Y-12824936D02*
X10779025Y-12843984D01*
X10779025Y-12720174D02*
X10788549Y-12729698D01*
X10788549Y-12729698D02*
X10779025Y-12739222D01*
X10779025Y-12739222D02*
X10769502Y-12729698D01*
X10769502Y-12729698D02*
X10779025Y-12720174D01*
X10779025Y-12720174D02*
X10779025Y-12739222D01*
D12*
X9126820Y-13162500D02*
X9146820Y-13182500D01*
X9146820Y-13162500D02*
X9126820Y-13182500D01*
D11*
X9445692Y-13063984D02*
X9464740Y-13063984D01*
X9464740Y-13063984D02*
X9483787Y-13073508D01*
X9483787Y-13073508D02*
X9493311Y-13083031D01*
X9493311Y-13083031D02*
X9502835Y-13102079D01*
X9502835Y-13102079D02*
X9512359Y-13140174D01*
X9512359Y-13140174D02*
X9512359Y-13187793D01*
X9512359Y-13187793D02*
X9502835Y-13225888D01*
X9502835Y-13225888D02*
X9493311Y-13244936D01*
X9493311Y-13244936D02*
X9483787Y-13254460D01*
X9483787Y-13254460D02*
X9464740Y-13263984D01*
X9464740Y-13263984D02*
X9445692Y-13263984D01*
X9445692Y-13263984D02*
X9426644Y-13254460D01*
X9426644Y-13254460D02*
X9417121Y-13244936D01*
X9417121Y-13244936D02*
X9407597Y-13225888D01*
X9407597Y-13225888D02*
X9398073Y-13187793D01*
X9398073Y-13187793D02*
X9398073Y-13140174D01*
X9398073Y-13140174D02*
X9407597Y-13102079D01*
X9407597Y-13102079D02*
X9417121Y-13083031D01*
X9417121Y-13083031D02*
X9426644Y-13073508D01*
X9426644Y-13073508D02*
X9445692Y-13063984D01*
X9598073Y-13244936D02*
X9607597Y-13254460D01*
X9607597Y-13254460D02*
X9598073Y-13263984D01*
X9598073Y-13263984D02*
X9588549Y-13254460D01*
X9588549Y-13254460D02*
X9598073Y-13244936D01*
X9598073Y-13244936D02*
X9598073Y-13263984D01*
X9683787Y-13083031D02*
X9693311Y-13073508D01*
X9693311Y-13073508D02*
X9712359Y-13063984D01*
X9712359Y-13063984D02*
X9759978Y-13063984D01*
X9759978Y-13063984D02*
X9779025Y-13073508D01*
X9779025Y-13073508D02*
X9788549Y-13083031D01*
X9788549Y-13083031D02*
X9798073Y-13102079D01*
X9798073Y-13102079D02*
X9798073Y-13121127D01*
X9798073Y-13121127D02*
X9788549Y-13149698D01*
X9788549Y-13149698D02*
X9674264Y-13263984D01*
X9674264Y-13263984D02*
X9798073Y-13263984D01*
X9921883Y-13063984D02*
X9940930Y-13063984D01*
X9940930Y-13063984D02*
X9959978Y-13073508D01*
X9959978Y-13073508D02*
X9969502Y-13083031D01*
X9969502Y-13083031D02*
X9979025Y-13102079D01*
X9979025Y-13102079D02*
X9988549Y-13140174D01*
X9988549Y-13140174D02*
X9988549Y-13187793D01*
X9988549Y-13187793D02*
X9979025Y-13225888D01*
X9979025Y-13225888D02*
X9969502Y-13244936D01*
X9969502Y-13244936D02*
X9959978Y-13254460D01*
X9959978Y-13254460D02*
X9940930Y-13263984D01*
X9940930Y-13263984D02*
X9921883Y-13263984D01*
X9921883Y-13263984D02*
X9902835Y-13254460D01*
X9902835Y-13254460D02*
X9893311Y-13244936D01*
X9893311Y-13244936D02*
X9883787Y-13225888D01*
X9883787Y-13225888D02*
X9874264Y-13187793D01*
X9874264Y-13187793D02*
X9874264Y-13140174D01*
X9874264Y-13140174D02*
X9883787Y-13102079D01*
X9883787Y-13102079D02*
X9893311Y-13083031D01*
X9893311Y-13083031D02*
X9902835Y-13073508D01*
X9902835Y-13073508D02*
X9921883Y-13063984D01*
X10112359Y-13063984D02*
X10131406Y-13063984D01*
X10131406Y-13063984D02*
X10150454Y-13073508D01*
X10150454Y-13073508D02*
X10159978Y-13083031D01*
X10159978Y-13083031D02*
X10169502Y-13102079D01*
X10169502Y-13102079D02*
X10179025Y-13140174D01*
X10179025Y-13140174D02*
X10179025Y-13187793D01*
X10179025Y-13187793D02*
X10169502Y-13225888D01*
X10169502Y-13225888D02*
X10159978Y-13244936D01*
X10159978Y-13244936D02*
X10150454Y-13254460D01*
X10150454Y-13254460D02*
X10131406Y-13263984D01*
X10131406Y-13263984D02*
X10112359Y-13263984D01*
X10112359Y-13263984D02*
X10093311Y-13254460D01*
X10093311Y-13254460D02*
X10083787Y-13244936D01*
X10083787Y-13244936D02*
X10074264Y-13225888D01*
X10074264Y-13225888D02*
X10064740Y-13187793D01*
X10064740Y-13187793D02*
X10064740Y-13140174D01*
X10064740Y-13140174D02*
X10074264Y-13102079D01*
X10074264Y-13102079D02*
X10083787Y-13083031D01*
X10083787Y-13083031D02*
X10093311Y-13073508D01*
X10093311Y-13073508D02*
X10112359Y-13063984D01*
X10264740Y-13263984D02*
X10264740Y-13130650D01*
X10264740Y-13149698D02*
X10274264Y-13140174D01*
X10274264Y-13140174D02*
X10293311Y-13130650D01*
X10293311Y-13130650D02*
X10321883Y-13130650D01*
X10321883Y-13130650D02*
X10340930Y-13140174D01*
X10340930Y-13140174D02*
X10350454Y-13159222D01*
X10350454Y-13159222D02*
X10350454Y-13263984D01*
X10350454Y-13159222D02*
X10359978Y-13140174D01*
X10359978Y-13140174D02*
X10379025Y-13130650D01*
X10379025Y-13130650D02*
X10407597Y-13130650D01*
X10407597Y-13130650D02*
X10426645Y-13140174D01*
X10426645Y-13140174D02*
X10436168Y-13159222D01*
X10436168Y-13159222D02*
X10436168Y-13263984D01*
X10531406Y-13263984D02*
X10531406Y-13130650D01*
X10531406Y-13149698D02*
X10540930Y-13140174D01*
X10540930Y-13140174D02*
X10559978Y-13130650D01*
X10559978Y-13130650D02*
X10588549Y-13130650D01*
X10588549Y-13130650D02*
X10607597Y-13140174D01*
X10607597Y-13140174D02*
X10617121Y-13159222D01*
X10617121Y-13159222D02*
X10617121Y-13263984D01*
X10617121Y-13159222D02*
X10626645Y-13140174D01*
X10626645Y-13140174D02*
X10645692Y-13130650D01*
X10645692Y-13130650D02*
X10674264Y-13130650D01*
X10674264Y-13130650D02*
X10693311Y-13140174D01*
X10693311Y-13140174D02*
X10702835Y-13159222D01*
X10702835Y-13159222D02*
X10702835Y-13263984D01*
X11093311Y-13054460D02*
X10921883Y-13311603D01*
X11350454Y-13063984D02*
X11369502Y-13063984D01*
X11369502Y-13063984D02*
X11388549Y-13073508D01*
X11388549Y-13073508D02*
X11398073Y-13083031D01*
X11398073Y-13083031D02*
X11407597Y-13102079D01*
X11407597Y-13102079D02*
X11417121Y-13140174D01*
X11417121Y-13140174D02*
X11417121Y-13187793D01*
X11417121Y-13187793D02*
X11407597Y-13225888D01*
X11407597Y-13225888D02*
X11398073Y-13244936D01*
X11398073Y-13244936D02*
X11388549Y-13254460D01*
X11388549Y-13254460D02*
X11369502Y-13263984D01*
X11369502Y-13263984D02*
X11350454Y-13263984D01*
X11350454Y-13263984D02*
X11331406Y-13254460D01*
X11331406Y-13254460D02*
X11321883Y-13244936D01*
X11321883Y-13244936D02*
X11312359Y-13225888D01*
X11312359Y-13225888D02*
X11302835Y-13187793D01*
X11302835Y-13187793D02*
X11302835Y-13140174D01*
X11302835Y-13140174D02*
X11312359Y-13102079D01*
X11312359Y-13102079D02*
X11321883Y-13083031D01*
X11321883Y-13083031D02*
X11331406Y-13073508D01*
X11331406Y-13073508D02*
X11350454Y-13063984D01*
X11502835Y-13244936D02*
X11512359Y-13254460D01*
X11512359Y-13254460D02*
X11502835Y-13263984D01*
X11502835Y-13263984D02*
X11493311Y-13254460D01*
X11493311Y-13254460D02*
X11502835Y-13244936D01*
X11502835Y-13244936D02*
X11502835Y-13263984D01*
X11636168Y-13063984D02*
X11655216Y-13063984D01*
X11655216Y-13063984D02*
X11674264Y-13073508D01*
X11674264Y-13073508D02*
X11683787Y-13083031D01*
X11683787Y-13083031D02*
X11693311Y-13102079D01*
X11693311Y-13102079D02*
X11702835Y-13140174D01*
X11702835Y-13140174D02*
X11702835Y-13187793D01*
X11702835Y-13187793D02*
X11693311Y-13225888D01*
X11693311Y-13225888D02*
X11683787Y-13244936D01*
X11683787Y-13244936D02*
X11674264Y-13254460D01*
X11674264Y-13254460D02*
X11655216Y-13263984D01*
X11655216Y-13263984D02*
X11636168Y-13263984D01*
X11636168Y-13263984D02*
X11617121Y-13254460D01*
X11617121Y-13254460D02*
X11607597Y-13244936D01*
X11607597Y-13244936D02*
X11598073Y-13225888D01*
X11598073Y-13225888D02*
X11588549Y-13187793D01*
X11588549Y-13187793D02*
X11588549Y-13140174D01*
X11588549Y-13140174D02*
X11598073Y-13102079D01*
X11598073Y-13102079D02*
X11607597Y-13083031D01*
X11607597Y-13083031D02*
X11617121Y-13073508D01*
X11617121Y-13073508D02*
X11636168Y-13063984D01*
X11826645Y-13063984D02*
X11845692Y-13063984D01*
X11845692Y-13063984D02*
X11864740Y-13073508D01*
X11864740Y-13073508D02*
X11874264Y-13083031D01*
X11874264Y-13083031D02*
X11883787Y-13102079D01*
X11883787Y-13102079D02*
X11893311Y-13140174D01*
X11893311Y-13140174D02*
X11893311Y-13187793D01*
X11893311Y-13187793D02*
X11883787Y-13225888D01*
X11883787Y-13225888D02*
X11874264Y-13244936D01*
X11874264Y-13244936D02*
X11864740Y-13254460D01*
X11864740Y-13254460D02*
X11845692Y-13263984D01*
X11845692Y-13263984D02*
X11826645Y-13263984D01*
X11826645Y-13263984D02*
X11807597Y-13254460D01*
X11807597Y-13254460D02*
X11798073Y-13244936D01*
X11798073Y-13244936D02*
X11788549Y-13225888D01*
X11788549Y-13225888D02*
X11779026Y-13187793D01*
X11779026Y-13187793D02*
X11779026Y-13140174D01*
X11779026Y-13140174D02*
X11788549Y-13102079D01*
X11788549Y-13102079D02*
X11798073Y-13083031D01*
X11798073Y-13083031D02*
X11807597Y-13073508D01*
X11807597Y-13073508D02*
X11826645Y-13063984D01*
X11959978Y-13063984D02*
X12093311Y-13063984D01*
X12093311Y-13063984D02*
X12007597Y-13263984D01*
X12179026Y-13263984D02*
X12217121Y-13263984D01*
X12217121Y-13263984D02*
X12236168Y-13254460D01*
X12236168Y-13254460D02*
X12245692Y-13244936D01*
X12245692Y-13244936D02*
X12264740Y-13216365D01*
X12264740Y-13216365D02*
X12274264Y-13178269D01*
X12274264Y-13178269D02*
X12274264Y-13102079D01*
X12274264Y-13102079D02*
X12264740Y-13083031D01*
X12264740Y-13083031D02*
X12255216Y-13073508D01*
X12255216Y-13073508D02*
X12236168Y-13063984D01*
X12236168Y-13063984D02*
X12198073Y-13063984D01*
X12198073Y-13063984D02*
X12179026Y-13073508D01*
X12179026Y-13073508D02*
X12169502Y-13083031D01*
X12169502Y-13083031D02*
X12159978Y-13102079D01*
X12159978Y-13102079D02*
X12159978Y-13149698D01*
X12159978Y-13149698D02*
X12169502Y-13168746D01*
X12169502Y-13168746D02*
X12179026Y-13178269D01*
X12179026Y-13178269D02*
X12198073Y-13187793D01*
X12198073Y-13187793D02*
X12236168Y-13187793D01*
X12236168Y-13187793D02*
X12255216Y-13178269D01*
X12255216Y-13178269D02*
X12264740Y-13168746D01*
X12264740Y-13168746D02*
X12274264Y-13149698D01*
X12350454Y-13063984D02*
X12350454Y-13102079D01*
X12426645Y-13063984D02*
X12426645Y-13102079D01*
X12721883Y-13340174D02*
X12712359Y-13330650D01*
X12712359Y-13330650D02*
X12693311Y-13302079D01*
X12693311Y-13302079D02*
X12683788Y-13283031D01*
X12683788Y-13283031D02*
X12674264Y-13254460D01*
X12674264Y-13254460D02*
X12664740Y-13206841D01*
X12664740Y-13206841D02*
X12664740Y-13168746D01*
X12664740Y-13168746D02*
X12674264Y-13121127D01*
X12674264Y-13121127D02*
X12683788Y-13092555D01*
X12683788Y-13092555D02*
X12693311Y-13073508D01*
X12693311Y-13073508D02*
X12712359Y-13044936D01*
X12712359Y-13044936D02*
X12721883Y-13035412D01*
X12883788Y-13130650D02*
X12883788Y-13263984D01*
X12836168Y-13054460D02*
X12788549Y-13197317D01*
X12788549Y-13197317D02*
X12912359Y-13197317D01*
X13026645Y-13063984D02*
X13045692Y-13063984D01*
X13045692Y-13063984D02*
X13064740Y-13073508D01*
X13064740Y-13073508D02*
X13074264Y-13083031D01*
X13074264Y-13083031D02*
X13083788Y-13102079D01*
X13083788Y-13102079D02*
X13093311Y-13140174D01*
X13093311Y-13140174D02*
X13093311Y-13187793D01*
X13093311Y-13187793D02*
X13083788Y-13225888D01*
X13083788Y-13225888D02*
X13074264Y-13244936D01*
X13074264Y-13244936D02*
X13064740Y-13254460D01*
X13064740Y-13254460D02*
X13045692Y-13263984D01*
X13045692Y-13263984D02*
X13026645Y-13263984D01*
X13026645Y-13263984D02*
X13007597Y-13254460D01*
X13007597Y-13254460D02*
X12998073Y-13244936D01*
X12998073Y-13244936D02*
X12988549Y-13225888D01*
X12988549Y-13225888D02*
X12979026Y-13187793D01*
X12979026Y-13187793D02*
X12979026Y-13140174D01*
X12979026Y-13140174D02*
X12988549Y-13102079D01*
X12988549Y-13102079D02*
X12998073Y-13083031D01*
X12998073Y-13083031D02*
X13007597Y-13073508D01*
X13007597Y-13073508D02*
X13026645Y-13063984D01*
X13264740Y-13130650D02*
X13264740Y-13263984D01*
X13217121Y-13054460D02*
X13169502Y-13197317D01*
X13169502Y-13197317D02*
X13293311Y-13197317D01*
X13521883Y-13263984D02*
X13521883Y-13063984D01*
X13607597Y-13263984D02*
X13607597Y-13159222D01*
X13607597Y-13159222D02*
X13598073Y-13140174D01*
X13598073Y-13140174D02*
X13579026Y-13130650D01*
X13579026Y-13130650D02*
X13550454Y-13130650D01*
X13550454Y-13130650D02*
X13531407Y-13140174D01*
X13531407Y-13140174D02*
X13521883Y-13149698D01*
X13731407Y-13263984D02*
X13712359Y-13254460D01*
X13712359Y-13254460D02*
X13702835Y-13244936D01*
X13702835Y-13244936D02*
X13693311Y-13225888D01*
X13693311Y-13225888D02*
X13693311Y-13168746D01*
X13693311Y-13168746D02*
X13702835Y-13149698D01*
X13702835Y-13149698D02*
X13712359Y-13140174D01*
X13712359Y-13140174D02*
X13731407Y-13130650D01*
X13731407Y-13130650D02*
X13759978Y-13130650D01*
X13759978Y-13130650D02*
X13779026Y-13140174D01*
X13779026Y-13140174D02*
X13788550Y-13149698D01*
X13788550Y-13149698D02*
X13798073Y-13168746D01*
X13798073Y-13168746D02*
X13798073Y-13225888D01*
X13798073Y-13225888D02*
X13788550Y-13244936D01*
X13788550Y-13244936D02*
X13779026Y-13254460D01*
X13779026Y-13254460D02*
X13759978Y-13263984D01*
X13759978Y-13263984D02*
X13731407Y-13263984D01*
X13912359Y-13263984D02*
X13893311Y-13254460D01*
X13893311Y-13254460D02*
X13883788Y-13235412D01*
X13883788Y-13235412D02*
X13883788Y-13063984D01*
X14064740Y-13254460D02*
X14045692Y-13263984D01*
X14045692Y-13263984D02*
X14007597Y-13263984D01*
X14007597Y-13263984D02*
X13988550Y-13254460D01*
X13988550Y-13254460D02*
X13979026Y-13235412D01*
X13979026Y-13235412D02*
X13979026Y-13159222D01*
X13979026Y-13159222D02*
X13988550Y-13140174D01*
X13988550Y-13140174D02*
X14007597Y-13130650D01*
X14007597Y-13130650D02*
X14045692Y-13130650D01*
X14045692Y-13130650D02*
X14064740Y-13140174D01*
X14064740Y-13140174D02*
X14074264Y-13159222D01*
X14074264Y-13159222D02*
X14074264Y-13178269D01*
X14074264Y-13178269D02*
X13979026Y-13197317D01*
X14150454Y-13254460D02*
X14169502Y-13263984D01*
X14169502Y-13263984D02*
X14207597Y-13263984D01*
X14207597Y-13263984D02*
X14226645Y-13254460D01*
X14226645Y-13254460D02*
X14236169Y-13235412D01*
X14236169Y-13235412D02*
X14236169Y-13225888D01*
X14236169Y-13225888D02*
X14226645Y-13206841D01*
X14226645Y-13206841D02*
X14207597Y-13197317D01*
X14207597Y-13197317D02*
X14179026Y-13197317D01*
X14179026Y-13197317D02*
X14159978Y-13187793D01*
X14159978Y-13187793D02*
X14150454Y-13168746D01*
X14150454Y-13168746D02*
X14150454Y-13159222D01*
X14150454Y-13159222D02*
X14159978Y-13140174D01*
X14159978Y-13140174D02*
X14179026Y-13130650D01*
X14179026Y-13130650D02*
X14207597Y-13130650D01*
X14207597Y-13130650D02*
X14226645Y-13140174D01*
X14302835Y-13340174D02*
X14312359Y-13330650D01*
X14312359Y-13330650D02*
X14331407Y-13302079D01*
X14331407Y-13302079D02*
X14340931Y-13283031D01*
X14340931Y-13283031D02*
X14350454Y-13254460D01*
X14350454Y-13254460D02*
X14359978Y-13206841D01*
X14359978Y-13206841D02*
X14359978Y-13168746D01*
X14359978Y-13168746D02*
X14350454Y-13121127D01*
X14350454Y-13121127D02*
X14340931Y-13092555D01*
X14340931Y-13092555D02*
X14331407Y-13073508D01*
X14331407Y-13073508D02*
X14312359Y-13044936D01*
X14312359Y-13044936D02*
X14302835Y-13035412D01*
D12*
X9146820Y-13436500D02*
G75*
G02*
X9126820Y-13436500I-10000J0D01*
G01*
X9126820Y-13436500D02*
G75*
G02*
X9146820Y-13436500I10000J0D01*
G01*
D11*
X9445692Y-13327984D02*
X9464740Y-13327984D01*
X9464740Y-13327984D02*
X9483787Y-13337508D01*
X9483787Y-13337508D02*
X9493311Y-13347031D01*
X9493311Y-13347031D02*
X9502835Y-13366079D01*
X9502835Y-13366079D02*
X9512359Y-13404174D01*
X9512359Y-13404174D02*
X9512359Y-13451793D01*
X9512359Y-13451793D02*
X9502835Y-13489888D01*
X9502835Y-13489888D02*
X9493311Y-13508936D01*
X9493311Y-13508936D02*
X9483787Y-13518460D01*
X9483787Y-13518460D02*
X9464740Y-13527984D01*
X9464740Y-13527984D02*
X9445692Y-13527984D01*
X9445692Y-13527984D02*
X9426644Y-13518460D01*
X9426644Y-13518460D02*
X9417121Y-13508936D01*
X9417121Y-13508936D02*
X9407597Y-13489888D01*
X9407597Y-13489888D02*
X9398073Y-13451793D01*
X9398073Y-13451793D02*
X9398073Y-13404174D01*
X9398073Y-13404174D02*
X9407597Y-13366079D01*
X9407597Y-13366079D02*
X9417121Y-13347031D01*
X9417121Y-13347031D02*
X9426644Y-13337508D01*
X9426644Y-13337508D02*
X9445692Y-13327984D01*
X9598073Y-13508936D02*
X9607597Y-13518460D01*
X9607597Y-13518460D02*
X9598073Y-13527984D01*
X9598073Y-13527984D02*
X9588549Y-13518460D01*
X9588549Y-13518460D02*
X9598073Y-13508936D01*
X9598073Y-13508936D02*
X9598073Y-13527984D01*
X9683787Y-13347031D02*
X9693311Y-13337508D01*
X9693311Y-13337508D02*
X9712359Y-13327984D01*
X9712359Y-13327984D02*
X9759978Y-13327984D01*
X9759978Y-13327984D02*
X9779025Y-13337508D01*
X9779025Y-13337508D02*
X9788549Y-13347031D01*
X9788549Y-13347031D02*
X9798073Y-13366079D01*
X9798073Y-13366079D02*
X9798073Y-13385127D01*
X9798073Y-13385127D02*
X9788549Y-13413698D01*
X9788549Y-13413698D02*
X9674264Y-13527984D01*
X9674264Y-13527984D02*
X9798073Y-13527984D01*
X9921883Y-13327984D02*
X9940930Y-13327984D01*
X9940930Y-13327984D02*
X9959978Y-13337508D01*
X9959978Y-13337508D02*
X9969502Y-13347031D01*
X9969502Y-13347031D02*
X9979025Y-13366079D01*
X9979025Y-13366079D02*
X9988549Y-13404174D01*
X9988549Y-13404174D02*
X9988549Y-13451793D01*
X9988549Y-13451793D02*
X9979025Y-13489888D01*
X9979025Y-13489888D02*
X9969502Y-13508936D01*
X9969502Y-13508936D02*
X9959978Y-13518460D01*
X9959978Y-13518460D02*
X9940930Y-13527984D01*
X9940930Y-13527984D02*
X9921883Y-13527984D01*
X9921883Y-13527984D02*
X9902835Y-13518460D01*
X9902835Y-13518460D02*
X9893311Y-13508936D01*
X9893311Y-13508936D02*
X9883787Y-13489888D01*
X9883787Y-13489888D02*
X9874264Y-13451793D01*
X9874264Y-13451793D02*
X9874264Y-13404174D01*
X9874264Y-13404174D02*
X9883787Y-13366079D01*
X9883787Y-13366079D02*
X9893311Y-13347031D01*
X9893311Y-13347031D02*
X9902835Y-13337508D01*
X9902835Y-13337508D02*
X9921883Y-13327984D01*
X10112359Y-13327984D02*
X10131406Y-13327984D01*
X10131406Y-13327984D02*
X10150454Y-13337508D01*
X10150454Y-13337508D02*
X10159978Y-13347031D01*
X10159978Y-13347031D02*
X10169502Y-13366079D01*
X10169502Y-13366079D02*
X10179025Y-13404174D01*
X10179025Y-13404174D02*
X10179025Y-13451793D01*
X10179025Y-13451793D02*
X10169502Y-13489888D01*
X10169502Y-13489888D02*
X10159978Y-13508936D01*
X10159978Y-13508936D02*
X10150454Y-13518460D01*
X10150454Y-13518460D02*
X10131406Y-13527984D01*
X10131406Y-13527984D02*
X10112359Y-13527984D01*
X10112359Y-13527984D02*
X10093311Y-13518460D01*
X10093311Y-13518460D02*
X10083787Y-13508936D01*
X10083787Y-13508936D02*
X10074264Y-13489888D01*
X10074264Y-13489888D02*
X10064740Y-13451793D01*
X10064740Y-13451793D02*
X10064740Y-13404174D01*
X10064740Y-13404174D02*
X10074264Y-13366079D01*
X10074264Y-13366079D02*
X10083787Y-13347031D01*
X10083787Y-13347031D02*
X10093311Y-13337508D01*
X10093311Y-13337508D02*
X10112359Y-13327984D01*
X10264740Y-13527984D02*
X10264740Y-13394650D01*
X10264740Y-13413698D02*
X10274264Y-13404174D01*
X10274264Y-13404174D02*
X10293311Y-13394650D01*
X10293311Y-13394650D02*
X10321883Y-13394650D01*
X10321883Y-13394650D02*
X10340930Y-13404174D01*
X10340930Y-13404174D02*
X10350454Y-13423222D01*
X10350454Y-13423222D02*
X10350454Y-13527984D01*
X10350454Y-13423222D02*
X10359978Y-13404174D01*
X10359978Y-13404174D02*
X10379025Y-13394650D01*
X10379025Y-13394650D02*
X10407597Y-13394650D01*
X10407597Y-13394650D02*
X10426645Y-13404174D01*
X10426645Y-13404174D02*
X10436168Y-13423222D01*
X10436168Y-13423222D02*
X10436168Y-13527984D01*
X10531406Y-13527984D02*
X10531406Y-13394650D01*
X10531406Y-13413698D02*
X10540930Y-13404174D01*
X10540930Y-13404174D02*
X10559978Y-13394650D01*
X10559978Y-13394650D02*
X10588549Y-13394650D01*
X10588549Y-13394650D02*
X10607597Y-13404174D01*
X10607597Y-13404174D02*
X10617121Y-13423222D01*
X10617121Y-13423222D02*
X10617121Y-13527984D01*
X10617121Y-13423222D02*
X10626645Y-13404174D01*
X10626645Y-13404174D02*
X10645692Y-13394650D01*
X10645692Y-13394650D02*
X10674264Y-13394650D01*
X10674264Y-13394650D02*
X10693311Y-13404174D01*
X10693311Y-13404174D02*
X10702835Y-13423222D01*
X10702835Y-13423222D02*
X10702835Y-13527984D01*
X11093311Y-13318460D02*
X10921883Y-13575603D01*
X11350454Y-13327984D02*
X11369502Y-13327984D01*
X11369502Y-13327984D02*
X11388549Y-13337508D01*
X11388549Y-13337508D02*
X11398073Y-13347031D01*
X11398073Y-13347031D02*
X11407597Y-13366079D01*
X11407597Y-13366079D02*
X11417121Y-13404174D01*
X11417121Y-13404174D02*
X11417121Y-13451793D01*
X11417121Y-13451793D02*
X11407597Y-13489888D01*
X11407597Y-13489888D02*
X11398073Y-13508936D01*
X11398073Y-13508936D02*
X11388549Y-13518460D01*
X11388549Y-13518460D02*
X11369502Y-13527984D01*
X11369502Y-13527984D02*
X11350454Y-13527984D01*
X11350454Y-13527984D02*
X11331406Y-13518460D01*
X11331406Y-13518460D02*
X11321883Y-13508936D01*
X11321883Y-13508936D02*
X11312359Y-13489888D01*
X11312359Y-13489888D02*
X11302835Y-13451793D01*
X11302835Y-13451793D02*
X11302835Y-13404174D01*
X11302835Y-13404174D02*
X11312359Y-13366079D01*
X11312359Y-13366079D02*
X11321883Y-13347031D01*
X11321883Y-13347031D02*
X11331406Y-13337508D01*
X11331406Y-13337508D02*
X11350454Y-13327984D01*
X11502835Y-13508936D02*
X11512359Y-13518460D01*
X11512359Y-13518460D02*
X11502835Y-13527984D01*
X11502835Y-13527984D02*
X11493311Y-13518460D01*
X11493311Y-13518460D02*
X11502835Y-13508936D01*
X11502835Y-13508936D02*
X11502835Y-13527984D01*
X11636168Y-13327984D02*
X11655216Y-13327984D01*
X11655216Y-13327984D02*
X11674264Y-13337508D01*
X11674264Y-13337508D02*
X11683787Y-13347031D01*
X11683787Y-13347031D02*
X11693311Y-13366079D01*
X11693311Y-13366079D02*
X11702835Y-13404174D01*
X11702835Y-13404174D02*
X11702835Y-13451793D01*
X11702835Y-13451793D02*
X11693311Y-13489888D01*
X11693311Y-13489888D02*
X11683787Y-13508936D01*
X11683787Y-13508936D02*
X11674264Y-13518460D01*
X11674264Y-13518460D02*
X11655216Y-13527984D01*
X11655216Y-13527984D02*
X11636168Y-13527984D01*
X11636168Y-13527984D02*
X11617121Y-13518460D01*
X11617121Y-13518460D02*
X11607597Y-13508936D01*
X11607597Y-13508936D02*
X11598073Y-13489888D01*
X11598073Y-13489888D02*
X11588549Y-13451793D01*
X11588549Y-13451793D02*
X11588549Y-13404174D01*
X11588549Y-13404174D02*
X11598073Y-13366079D01*
X11598073Y-13366079D02*
X11607597Y-13347031D01*
X11607597Y-13347031D02*
X11617121Y-13337508D01*
X11617121Y-13337508D02*
X11636168Y-13327984D01*
X11826645Y-13327984D02*
X11845692Y-13327984D01*
X11845692Y-13327984D02*
X11864740Y-13337508D01*
X11864740Y-13337508D02*
X11874264Y-13347031D01*
X11874264Y-13347031D02*
X11883787Y-13366079D01*
X11883787Y-13366079D02*
X11893311Y-13404174D01*
X11893311Y-13404174D02*
X11893311Y-13451793D01*
X11893311Y-13451793D02*
X11883787Y-13489888D01*
X11883787Y-13489888D02*
X11874264Y-13508936D01*
X11874264Y-13508936D02*
X11864740Y-13518460D01*
X11864740Y-13518460D02*
X11845692Y-13527984D01*
X11845692Y-13527984D02*
X11826645Y-13527984D01*
X11826645Y-13527984D02*
X11807597Y-13518460D01*
X11807597Y-13518460D02*
X11798073Y-13508936D01*
X11798073Y-13508936D02*
X11788549Y-13489888D01*
X11788549Y-13489888D02*
X11779026Y-13451793D01*
X11779026Y-13451793D02*
X11779026Y-13404174D01*
X11779026Y-13404174D02*
X11788549Y-13366079D01*
X11788549Y-13366079D02*
X11798073Y-13347031D01*
X11798073Y-13347031D02*
X11807597Y-13337508D01*
X11807597Y-13337508D02*
X11826645Y-13327984D01*
X11959978Y-13327984D02*
X12093311Y-13327984D01*
X12093311Y-13327984D02*
X12007597Y-13527984D01*
X12179026Y-13527984D02*
X12217121Y-13527984D01*
X12217121Y-13527984D02*
X12236168Y-13518460D01*
X12236168Y-13518460D02*
X12245692Y-13508936D01*
X12245692Y-13508936D02*
X12264740Y-13480365D01*
X12264740Y-13480365D02*
X12274264Y-13442269D01*
X12274264Y-13442269D02*
X12274264Y-13366079D01*
X12274264Y-13366079D02*
X12264740Y-13347031D01*
X12264740Y-13347031D02*
X12255216Y-13337508D01*
X12255216Y-13337508D02*
X12236168Y-13327984D01*
X12236168Y-13327984D02*
X12198073Y-13327984D01*
X12198073Y-13327984D02*
X12179026Y-13337508D01*
X12179026Y-13337508D02*
X12169502Y-13347031D01*
X12169502Y-13347031D02*
X12159978Y-13366079D01*
X12159978Y-13366079D02*
X12159978Y-13413698D01*
X12159978Y-13413698D02*
X12169502Y-13432746D01*
X12169502Y-13432746D02*
X12179026Y-13442269D01*
X12179026Y-13442269D02*
X12198073Y-13451793D01*
X12198073Y-13451793D02*
X12236168Y-13451793D01*
X12236168Y-13451793D02*
X12255216Y-13442269D01*
X12255216Y-13442269D02*
X12264740Y-13432746D01*
X12264740Y-13432746D02*
X12274264Y-13413698D01*
X12350454Y-13327984D02*
X12350454Y-13366079D01*
X12426645Y-13327984D02*
X12426645Y-13366079D01*
X12721883Y-13604174D02*
X12712359Y-13594650D01*
X12712359Y-13594650D02*
X12693311Y-13566079D01*
X12693311Y-13566079D02*
X12683788Y-13547031D01*
X12683788Y-13547031D02*
X12674264Y-13518460D01*
X12674264Y-13518460D02*
X12664740Y-13470841D01*
X12664740Y-13470841D02*
X12664740Y-13432746D01*
X12664740Y-13432746D02*
X12674264Y-13385127D01*
X12674264Y-13385127D02*
X12683788Y-13356555D01*
X12683788Y-13356555D02*
X12693311Y-13337508D01*
X12693311Y-13337508D02*
X12712359Y-13308936D01*
X12712359Y-13308936D02*
X12721883Y-13299412D01*
X12893311Y-13327984D02*
X12798073Y-13327984D01*
X12798073Y-13327984D02*
X12788549Y-13423222D01*
X12788549Y-13423222D02*
X12798073Y-13413698D01*
X12798073Y-13413698D02*
X12817121Y-13404174D01*
X12817121Y-13404174D02*
X12864740Y-13404174D01*
X12864740Y-13404174D02*
X12883788Y-13413698D01*
X12883788Y-13413698D02*
X12893311Y-13423222D01*
X12893311Y-13423222D02*
X12902835Y-13442269D01*
X12902835Y-13442269D02*
X12902835Y-13489888D01*
X12902835Y-13489888D02*
X12893311Y-13508936D01*
X12893311Y-13508936D02*
X12883788Y-13518460D01*
X12883788Y-13518460D02*
X12864740Y-13527984D01*
X12864740Y-13527984D02*
X12817121Y-13527984D01*
X12817121Y-13527984D02*
X12798073Y-13518460D01*
X12798073Y-13518460D02*
X12788549Y-13508936D01*
X13083788Y-13327984D02*
X12988549Y-13327984D01*
X12988549Y-13327984D02*
X12979026Y-13423222D01*
X12979026Y-13423222D02*
X12988549Y-13413698D01*
X12988549Y-13413698D02*
X13007597Y-13404174D01*
X13007597Y-13404174D02*
X13055216Y-13404174D01*
X13055216Y-13404174D02*
X13074264Y-13413698D01*
X13074264Y-13413698D02*
X13083788Y-13423222D01*
X13083788Y-13423222D02*
X13093311Y-13442269D01*
X13093311Y-13442269D02*
X13093311Y-13489888D01*
X13093311Y-13489888D02*
X13083788Y-13508936D01*
X13083788Y-13508936D02*
X13074264Y-13518460D01*
X13074264Y-13518460D02*
X13055216Y-13527984D01*
X13055216Y-13527984D02*
X13007597Y-13527984D01*
X13007597Y-13527984D02*
X12988549Y-13518460D01*
X12988549Y-13518460D02*
X12979026Y-13508936D01*
X13331407Y-13527984D02*
X13331407Y-13327984D01*
X13417121Y-13527984D02*
X13417121Y-13423222D01*
X13417121Y-13423222D02*
X13407597Y-13404174D01*
X13407597Y-13404174D02*
X13388550Y-13394650D01*
X13388550Y-13394650D02*
X13359978Y-13394650D01*
X13359978Y-13394650D02*
X13340930Y-13404174D01*
X13340930Y-13404174D02*
X13331407Y-13413698D01*
X13540930Y-13527984D02*
X13521883Y-13518460D01*
X13521883Y-13518460D02*
X13512359Y-13508936D01*
X13512359Y-13508936D02*
X13502835Y-13489888D01*
X13502835Y-13489888D02*
X13502835Y-13432746D01*
X13502835Y-13432746D02*
X13512359Y-13413698D01*
X13512359Y-13413698D02*
X13521883Y-13404174D01*
X13521883Y-13404174D02*
X13540930Y-13394650D01*
X13540930Y-13394650D02*
X13569502Y-13394650D01*
X13569502Y-13394650D02*
X13588550Y-13404174D01*
X13588550Y-13404174D02*
X13598073Y-13413698D01*
X13598073Y-13413698D02*
X13607597Y-13432746D01*
X13607597Y-13432746D02*
X13607597Y-13489888D01*
X13607597Y-13489888D02*
X13598073Y-13508936D01*
X13598073Y-13508936D02*
X13588550Y-13518460D01*
X13588550Y-13518460D02*
X13569502Y-13527984D01*
X13569502Y-13527984D02*
X13540930Y-13527984D01*
X13721883Y-13527984D02*
X13702835Y-13518460D01*
X13702835Y-13518460D02*
X13693311Y-13499412D01*
X13693311Y-13499412D02*
X13693311Y-13327984D01*
X13874264Y-13518460D02*
X13855216Y-13527984D01*
X13855216Y-13527984D02*
X13817121Y-13527984D01*
X13817121Y-13527984D02*
X13798073Y-13518460D01*
X13798073Y-13518460D02*
X13788550Y-13499412D01*
X13788550Y-13499412D02*
X13788550Y-13423222D01*
X13788550Y-13423222D02*
X13798073Y-13404174D01*
X13798073Y-13404174D02*
X13817121Y-13394650D01*
X13817121Y-13394650D02*
X13855216Y-13394650D01*
X13855216Y-13394650D02*
X13874264Y-13404174D01*
X13874264Y-13404174D02*
X13883788Y-13423222D01*
X13883788Y-13423222D02*
X13883788Y-13442269D01*
X13883788Y-13442269D02*
X13788550Y-13461317D01*
X13959978Y-13518460D02*
X13979026Y-13527984D01*
X13979026Y-13527984D02*
X14017121Y-13527984D01*
X14017121Y-13527984D02*
X14036169Y-13518460D01*
X14036169Y-13518460D02*
X14045692Y-13499412D01*
X14045692Y-13499412D02*
X14045692Y-13489888D01*
X14045692Y-13489888D02*
X14036169Y-13470841D01*
X14036169Y-13470841D02*
X14017121Y-13461317D01*
X14017121Y-13461317D02*
X13988550Y-13461317D01*
X13988550Y-13461317D02*
X13969502Y-13451793D01*
X13969502Y-13451793D02*
X13959978Y-13432746D01*
X13959978Y-13432746D02*
X13959978Y-13423222D01*
X13959978Y-13423222D02*
X13969502Y-13404174D01*
X13969502Y-13404174D02*
X13988550Y-13394650D01*
X13988550Y-13394650D02*
X14017121Y-13394650D01*
X14017121Y-13394650D02*
X14036169Y-13404174D01*
X14112359Y-13604174D02*
X14121883Y-13594650D01*
X14121883Y-13594650D02*
X14140931Y-13566079D01*
X14140931Y-13566079D02*
X14150454Y-13547031D01*
X14150454Y-13547031D02*
X14159978Y-13518460D01*
X14159978Y-13518460D02*
X14169502Y-13470841D01*
X14169502Y-13470841D02*
X14169502Y-13432746D01*
X14169502Y-13432746D02*
X14159978Y-13385127D01*
X14159978Y-13385127D02*
X14150454Y-13356555D01*
X14150454Y-13356555D02*
X14140931Y-13337508D01*
X14140931Y-13337508D02*
X14121883Y-13308936D01*
X14121883Y-13308936D02*
X14112359Y-13299412D01*
D12*
X9106820Y-13660500D02*
X9106820Y-13740500D01*
X9066820Y-13700500D02*
X9146820Y-13700500D01*
D11*
X9445692Y-13591984D02*
X9464740Y-13591984D01*
X9464740Y-13591984D02*
X9483787Y-13601508D01*
X9483787Y-13601508D02*
X9493311Y-13611031D01*
X9493311Y-13611031D02*
X9502835Y-13630079D01*
X9502835Y-13630079D02*
X9512359Y-13668174D01*
X9512359Y-13668174D02*
X9512359Y-13715793D01*
X9512359Y-13715793D02*
X9502835Y-13753888D01*
X9502835Y-13753888D02*
X9493311Y-13772936D01*
X9493311Y-13772936D02*
X9483787Y-13782460D01*
X9483787Y-13782460D02*
X9464740Y-13791984D01*
X9464740Y-13791984D02*
X9445692Y-13791984D01*
X9445692Y-13791984D02*
X9426644Y-13782460D01*
X9426644Y-13782460D02*
X9417121Y-13772936D01*
X9417121Y-13772936D02*
X9407597Y-13753888D01*
X9407597Y-13753888D02*
X9398073Y-13715793D01*
X9398073Y-13715793D02*
X9398073Y-13668174D01*
X9398073Y-13668174D02*
X9407597Y-13630079D01*
X9407597Y-13630079D02*
X9417121Y-13611031D01*
X9417121Y-13611031D02*
X9426644Y-13601508D01*
X9426644Y-13601508D02*
X9445692Y-13591984D01*
X9598073Y-13772936D02*
X9607597Y-13782460D01*
X9607597Y-13782460D02*
X9598073Y-13791984D01*
X9598073Y-13791984D02*
X9588549Y-13782460D01*
X9588549Y-13782460D02*
X9598073Y-13772936D01*
X9598073Y-13772936D02*
X9598073Y-13791984D01*
X9721883Y-13677698D02*
X9702835Y-13668174D01*
X9702835Y-13668174D02*
X9693311Y-13658650D01*
X9693311Y-13658650D02*
X9683787Y-13639603D01*
X9683787Y-13639603D02*
X9683787Y-13630079D01*
X9683787Y-13630079D02*
X9693311Y-13611031D01*
X9693311Y-13611031D02*
X9702835Y-13601508D01*
X9702835Y-13601508D02*
X9721883Y-13591984D01*
X9721883Y-13591984D02*
X9759978Y-13591984D01*
X9759978Y-13591984D02*
X9779025Y-13601508D01*
X9779025Y-13601508D02*
X9788549Y-13611031D01*
X9788549Y-13611031D02*
X9798073Y-13630079D01*
X9798073Y-13630079D02*
X9798073Y-13639603D01*
X9798073Y-13639603D02*
X9788549Y-13658650D01*
X9788549Y-13658650D02*
X9779025Y-13668174D01*
X9779025Y-13668174D02*
X9759978Y-13677698D01*
X9759978Y-13677698D02*
X9721883Y-13677698D01*
X9721883Y-13677698D02*
X9702835Y-13687222D01*
X9702835Y-13687222D02*
X9693311Y-13696746D01*
X9693311Y-13696746D02*
X9683787Y-13715793D01*
X9683787Y-13715793D02*
X9683787Y-13753888D01*
X9683787Y-13753888D02*
X9693311Y-13772936D01*
X9693311Y-13772936D02*
X9702835Y-13782460D01*
X9702835Y-13782460D02*
X9721883Y-13791984D01*
X9721883Y-13791984D02*
X9759978Y-13791984D01*
X9759978Y-13791984D02*
X9779025Y-13782460D01*
X9779025Y-13782460D02*
X9788549Y-13772936D01*
X9788549Y-13772936D02*
X9798073Y-13753888D01*
X9798073Y-13753888D02*
X9798073Y-13715793D01*
X9798073Y-13715793D02*
X9788549Y-13696746D01*
X9788549Y-13696746D02*
X9779025Y-13687222D01*
X9779025Y-13687222D02*
X9759978Y-13677698D01*
X9921883Y-13591984D02*
X9940930Y-13591984D01*
X9940930Y-13591984D02*
X9959978Y-13601508D01*
X9959978Y-13601508D02*
X9969502Y-13611031D01*
X9969502Y-13611031D02*
X9979025Y-13630079D01*
X9979025Y-13630079D02*
X9988549Y-13668174D01*
X9988549Y-13668174D02*
X9988549Y-13715793D01*
X9988549Y-13715793D02*
X9979025Y-13753888D01*
X9979025Y-13753888D02*
X9969502Y-13772936D01*
X9969502Y-13772936D02*
X9959978Y-13782460D01*
X9959978Y-13782460D02*
X9940930Y-13791984D01*
X9940930Y-13791984D02*
X9921883Y-13791984D01*
X9921883Y-13791984D02*
X9902835Y-13782460D01*
X9902835Y-13782460D02*
X9893311Y-13772936D01*
X9893311Y-13772936D02*
X9883787Y-13753888D01*
X9883787Y-13753888D02*
X9874264Y-13715793D01*
X9874264Y-13715793D02*
X9874264Y-13668174D01*
X9874264Y-13668174D02*
X9883787Y-13630079D01*
X9883787Y-13630079D02*
X9893311Y-13611031D01*
X9893311Y-13611031D02*
X9902835Y-13601508D01*
X9902835Y-13601508D02*
X9921883Y-13591984D01*
X10112359Y-13591984D02*
X10131406Y-13591984D01*
X10131406Y-13591984D02*
X10150454Y-13601508D01*
X10150454Y-13601508D02*
X10159978Y-13611031D01*
X10159978Y-13611031D02*
X10169502Y-13630079D01*
X10169502Y-13630079D02*
X10179025Y-13668174D01*
X10179025Y-13668174D02*
X10179025Y-13715793D01*
X10179025Y-13715793D02*
X10169502Y-13753888D01*
X10169502Y-13753888D02*
X10159978Y-13772936D01*
X10159978Y-13772936D02*
X10150454Y-13782460D01*
X10150454Y-13782460D02*
X10131406Y-13791984D01*
X10131406Y-13791984D02*
X10112359Y-13791984D01*
X10112359Y-13791984D02*
X10093311Y-13782460D01*
X10093311Y-13782460D02*
X10083787Y-13772936D01*
X10083787Y-13772936D02*
X10074264Y-13753888D01*
X10074264Y-13753888D02*
X10064740Y-13715793D01*
X10064740Y-13715793D02*
X10064740Y-13668174D01*
X10064740Y-13668174D02*
X10074264Y-13630079D01*
X10074264Y-13630079D02*
X10083787Y-13611031D01*
X10083787Y-13611031D02*
X10093311Y-13601508D01*
X10093311Y-13601508D02*
X10112359Y-13591984D01*
X10264740Y-13791984D02*
X10264740Y-13658650D01*
X10264740Y-13677698D02*
X10274264Y-13668174D01*
X10274264Y-13668174D02*
X10293311Y-13658650D01*
X10293311Y-13658650D02*
X10321883Y-13658650D01*
X10321883Y-13658650D02*
X10340930Y-13668174D01*
X10340930Y-13668174D02*
X10350454Y-13687222D01*
X10350454Y-13687222D02*
X10350454Y-13791984D01*
X10350454Y-13687222D02*
X10359978Y-13668174D01*
X10359978Y-13668174D02*
X10379025Y-13658650D01*
X10379025Y-13658650D02*
X10407597Y-13658650D01*
X10407597Y-13658650D02*
X10426645Y-13668174D01*
X10426645Y-13668174D02*
X10436168Y-13687222D01*
X10436168Y-13687222D02*
X10436168Y-13791984D01*
X10531406Y-13791984D02*
X10531406Y-13658650D01*
X10531406Y-13677698D02*
X10540930Y-13668174D01*
X10540930Y-13668174D02*
X10559978Y-13658650D01*
X10559978Y-13658650D02*
X10588549Y-13658650D01*
X10588549Y-13658650D02*
X10607597Y-13668174D01*
X10607597Y-13668174D02*
X10617121Y-13687222D01*
X10617121Y-13687222D02*
X10617121Y-13791984D01*
X10617121Y-13687222D02*
X10626645Y-13668174D01*
X10626645Y-13668174D02*
X10645692Y-13658650D01*
X10645692Y-13658650D02*
X10674264Y-13658650D01*
X10674264Y-13658650D02*
X10693311Y-13668174D01*
X10693311Y-13668174D02*
X10702835Y-13687222D01*
X10702835Y-13687222D02*
X10702835Y-13791984D01*
X11093311Y-13582460D02*
X10921883Y-13839603D01*
X11350454Y-13591984D02*
X11369502Y-13591984D01*
X11369502Y-13591984D02*
X11388549Y-13601508D01*
X11388549Y-13601508D02*
X11398073Y-13611031D01*
X11398073Y-13611031D02*
X11407597Y-13630079D01*
X11407597Y-13630079D02*
X11417121Y-13668174D01*
X11417121Y-13668174D02*
X11417121Y-13715793D01*
X11417121Y-13715793D02*
X11407597Y-13753888D01*
X11407597Y-13753888D02*
X11398073Y-13772936D01*
X11398073Y-13772936D02*
X11388549Y-13782460D01*
X11388549Y-13782460D02*
X11369502Y-13791984D01*
X11369502Y-13791984D02*
X11350454Y-13791984D01*
X11350454Y-13791984D02*
X11331406Y-13782460D01*
X11331406Y-13782460D02*
X11321883Y-13772936D01*
X11321883Y-13772936D02*
X11312359Y-13753888D01*
X11312359Y-13753888D02*
X11302835Y-13715793D01*
X11302835Y-13715793D02*
X11302835Y-13668174D01*
X11302835Y-13668174D02*
X11312359Y-13630079D01*
X11312359Y-13630079D02*
X11321883Y-13611031D01*
X11321883Y-13611031D02*
X11331406Y-13601508D01*
X11331406Y-13601508D02*
X11350454Y-13591984D01*
X11502835Y-13772936D02*
X11512359Y-13782460D01*
X11512359Y-13782460D02*
X11502835Y-13791984D01*
X11502835Y-13791984D02*
X11493311Y-13782460D01*
X11493311Y-13782460D02*
X11502835Y-13772936D01*
X11502835Y-13772936D02*
X11502835Y-13791984D01*
X11636168Y-13591984D02*
X11655216Y-13591984D01*
X11655216Y-13591984D02*
X11674264Y-13601508D01*
X11674264Y-13601508D02*
X11683787Y-13611031D01*
X11683787Y-13611031D02*
X11693311Y-13630079D01*
X11693311Y-13630079D02*
X11702835Y-13668174D01*
X11702835Y-13668174D02*
X11702835Y-13715793D01*
X11702835Y-13715793D02*
X11693311Y-13753888D01*
X11693311Y-13753888D02*
X11683787Y-13772936D01*
X11683787Y-13772936D02*
X11674264Y-13782460D01*
X11674264Y-13782460D02*
X11655216Y-13791984D01*
X11655216Y-13791984D02*
X11636168Y-13791984D01*
X11636168Y-13791984D02*
X11617121Y-13782460D01*
X11617121Y-13782460D02*
X11607597Y-13772936D01*
X11607597Y-13772936D02*
X11598073Y-13753888D01*
X11598073Y-13753888D02*
X11588549Y-13715793D01*
X11588549Y-13715793D02*
X11588549Y-13668174D01*
X11588549Y-13668174D02*
X11598073Y-13630079D01*
X11598073Y-13630079D02*
X11607597Y-13611031D01*
X11607597Y-13611031D02*
X11617121Y-13601508D01*
X11617121Y-13601508D02*
X11636168Y-13591984D01*
X11769502Y-13591984D02*
X11893311Y-13591984D01*
X11893311Y-13591984D02*
X11826645Y-13668174D01*
X11826645Y-13668174D02*
X11855216Y-13668174D01*
X11855216Y-13668174D02*
X11874264Y-13677698D01*
X11874264Y-13677698D02*
X11883787Y-13687222D01*
X11883787Y-13687222D02*
X11893311Y-13706269D01*
X11893311Y-13706269D02*
X11893311Y-13753888D01*
X11893311Y-13753888D02*
X11883787Y-13772936D01*
X11883787Y-13772936D02*
X11874264Y-13782460D01*
X11874264Y-13782460D02*
X11855216Y-13791984D01*
X11855216Y-13791984D02*
X11798073Y-13791984D01*
X11798073Y-13791984D02*
X11779026Y-13782460D01*
X11779026Y-13782460D02*
X11769502Y-13772936D01*
X12083787Y-13791984D02*
X11969502Y-13791984D01*
X12026645Y-13791984D02*
X12026645Y-13591984D01*
X12026645Y-13591984D02*
X12007597Y-13620555D01*
X12007597Y-13620555D02*
X11988549Y-13639603D01*
X11988549Y-13639603D02*
X11969502Y-13649127D01*
X12264740Y-13591984D02*
X12169502Y-13591984D01*
X12169502Y-13591984D02*
X12159978Y-13687222D01*
X12159978Y-13687222D02*
X12169502Y-13677698D01*
X12169502Y-13677698D02*
X12188549Y-13668174D01*
X12188549Y-13668174D02*
X12236168Y-13668174D01*
X12236168Y-13668174D02*
X12255216Y-13677698D01*
X12255216Y-13677698D02*
X12264740Y-13687222D01*
X12264740Y-13687222D02*
X12274264Y-13706269D01*
X12274264Y-13706269D02*
X12274264Y-13753888D01*
X12274264Y-13753888D02*
X12264740Y-13772936D01*
X12264740Y-13772936D02*
X12255216Y-13782460D01*
X12255216Y-13782460D02*
X12236168Y-13791984D01*
X12236168Y-13791984D02*
X12188549Y-13791984D01*
X12188549Y-13791984D02*
X12169502Y-13782460D01*
X12169502Y-13782460D02*
X12159978Y-13772936D01*
X12350454Y-13591984D02*
X12350454Y-13630079D01*
X12426645Y-13591984D02*
X12426645Y-13630079D01*
X12721883Y-13868174D02*
X12712359Y-13858650D01*
X12712359Y-13858650D02*
X12693311Y-13830079D01*
X12693311Y-13830079D02*
X12683788Y-13811031D01*
X12683788Y-13811031D02*
X12674264Y-13782460D01*
X12674264Y-13782460D02*
X12664740Y-13734841D01*
X12664740Y-13734841D02*
X12664740Y-13696746D01*
X12664740Y-13696746D02*
X12674264Y-13649127D01*
X12674264Y-13649127D02*
X12683788Y-13620555D01*
X12683788Y-13620555D02*
X12693311Y-13601508D01*
X12693311Y-13601508D02*
X12712359Y-13572936D01*
X12712359Y-13572936D02*
X12721883Y-13563412D01*
X12788549Y-13611031D02*
X12798073Y-13601508D01*
X12798073Y-13601508D02*
X12817121Y-13591984D01*
X12817121Y-13591984D02*
X12864740Y-13591984D01*
X12864740Y-13591984D02*
X12883788Y-13601508D01*
X12883788Y-13601508D02*
X12893311Y-13611031D01*
X12893311Y-13611031D02*
X12902835Y-13630079D01*
X12902835Y-13630079D02*
X12902835Y-13649127D01*
X12902835Y-13649127D02*
X12893311Y-13677698D01*
X12893311Y-13677698D02*
X12779026Y-13791984D01*
X12779026Y-13791984D02*
X12902835Y-13791984D01*
X12969502Y-13591984D02*
X13102835Y-13591984D01*
X13102835Y-13591984D02*
X13017121Y-13791984D01*
X13331407Y-13791984D02*
X13331407Y-13591984D01*
X13417121Y-13791984D02*
X13417121Y-13687222D01*
X13417121Y-13687222D02*
X13407597Y-13668174D01*
X13407597Y-13668174D02*
X13388550Y-13658650D01*
X13388550Y-13658650D02*
X13359978Y-13658650D01*
X13359978Y-13658650D02*
X13340930Y-13668174D01*
X13340930Y-13668174D02*
X13331407Y-13677698D01*
X13540930Y-13791984D02*
X13521883Y-13782460D01*
X13521883Y-13782460D02*
X13512359Y-13772936D01*
X13512359Y-13772936D02*
X13502835Y-13753888D01*
X13502835Y-13753888D02*
X13502835Y-13696746D01*
X13502835Y-13696746D02*
X13512359Y-13677698D01*
X13512359Y-13677698D02*
X13521883Y-13668174D01*
X13521883Y-13668174D02*
X13540930Y-13658650D01*
X13540930Y-13658650D02*
X13569502Y-13658650D01*
X13569502Y-13658650D02*
X13588550Y-13668174D01*
X13588550Y-13668174D02*
X13598073Y-13677698D01*
X13598073Y-13677698D02*
X13607597Y-13696746D01*
X13607597Y-13696746D02*
X13607597Y-13753888D01*
X13607597Y-13753888D02*
X13598073Y-13772936D01*
X13598073Y-13772936D02*
X13588550Y-13782460D01*
X13588550Y-13782460D02*
X13569502Y-13791984D01*
X13569502Y-13791984D02*
X13540930Y-13791984D01*
X13721883Y-13791984D02*
X13702835Y-13782460D01*
X13702835Y-13782460D02*
X13693311Y-13763412D01*
X13693311Y-13763412D02*
X13693311Y-13591984D01*
X13874264Y-13782460D02*
X13855216Y-13791984D01*
X13855216Y-13791984D02*
X13817121Y-13791984D01*
X13817121Y-13791984D02*
X13798073Y-13782460D01*
X13798073Y-13782460D02*
X13788550Y-13763412D01*
X13788550Y-13763412D02*
X13788550Y-13687222D01*
X13788550Y-13687222D02*
X13798073Y-13668174D01*
X13798073Y-13668174D02*
X13817121Y-13658650D01*
X13817121Y-13658650D02*
X13855216Y-13658650D01*
X13855216Y-13658650D02*
X13874264Y-13668174D01*
X13874264Y-13668174D02*
X13883788Y-13687222D01*
X13883788Y-13687222D02*
X13883788Y-13706269D01*
X13883788Y-13706269D02*
X13788550Y-13725317D01*
X13959978Y-13782460D02*
X13979026Y-13791984D01*
X13979026Y-13791984D02*
X14017121Y-13791984D01*
X14017121Y-13791984D02*
X14036169Y-13782460D01*
X14036169Y-13782460D02*
X14045692Y-13763412D01*
X14045692Y-13763412D02*
X14045692Y-13753888D01*
X14045692Y-13753888D02*
X14036169Y-13734841D01*
X14036169Y-13734841D02*
X14017121Y-13725317D01*
X14017121Y-13725317D02*
X13988550Y-13725317D01*
X13988550Y-13725317D02*
X13969502Y-13715793D01*
X13969502Y-13715793D02*
X13959978Y-13696746D01*
X13959978Y-13696746D02*
X13959978Y-13687222D01*
X13959978Y-13687222D02*
X13969502Y-13668174D01*
X13969502Y-13668174D02*
X13988550Y-13658650D01*
X13988550Y-13658650D02*
X14017121Y-13658650D01*
X14017121Y-13658650D02*
X14036169Y-13668174D01*
X14112359Y-13868174D02*
X14121883Y-13858650D01*
X14121883Y-13858650D02*
X14140931Y-13830079D01*
X14140931Y-13830079D02*
X14150454Y-13811031D01*
X14150454Y-13811031D02*
X14159978Y-13782460D01*
X14159978Y-13782460D02*
X14169502Y-13734841D01*
X14169502Y-13734841D02*
X14169502Y-13696746D01*
X14169502Y-13696746D02*
X14159978Y-13649127D01*
X14159978Y-13649127D02*
X14150454Y-13620555D01*
X14150454Y-13620555D02*
X14140931Y-13601508D01*
X14140931Y-13601508D02*
X14121883Y-13572936D01*
X14121883Y-13572936D02*
X14112359Y-13563412D01*
D12*
X9132176Y-13999856D02*
X9132176Y-13929144D01*
X9061464Y-13929144D01*
X9061464Y-13999856D01*
X9132176Y-13999856D01*
D11*
X9512359Y-14055984D02*
X9398073Y-14055984D01*
X9455216Y-14055984D02*
X9455216Y-13855984D01*
X9455216Y-13855984D02*
X9436168Y-13884555D01*
X9436168Y-13884555D02*
X9417121Y-13903603D01*
X9417121Y-13903603D02*
X9398073Y-13913127D01*
X9598073Y-14036936D02*
X9607597Y-14046460D01*
X9607597Y-14046460D02*
X9598073Y-14055984D01*
X9598073Y-14055984D02*
X9588549Y-14046460D01*
X9588549Y-14046460D02*
X9598073Y-14036936D01*
X9598073Y-14036936D02*
X9598073Y-14055984D01*
X9731406Y-13855984D02*
X9750454Y-13855984D01*
X9750454Y-13855984D02*
X9769502Y-13865508D01*
X9769502Y-13865508D02*
X9779025Y-13875031D01*
X9779025Y-13875031D02*
X9788549Y-13894079D01*
X9788549Y-13894079D02*
X9798073Y-13932174D01*
X9798073Y-13932174D02*
X9798073Y-13979793D01*
X9798073Y-13979793D02*
X9788549Y-14017888D01*
X9788549Y-14017888D02*
X9779025Y-14036936D01*
X9779025Y-14036936D02*
X9769502Y-14046460D01*
X9769502Y-14046460D02*
X9750454Y-14055984D01*
X9750454Y-14055984D02*
X9731406Y-14055984D01*
X9731406Y-14055984D02*
X9712359Y-14046460D01*
X9712359Y-14046460D02*
X9702835Y-14036936D01*
X9702835Y-14036936D02*
X9693311Y-14017888D01*
X9693311Y-14017888D02*
X9683787Y-13979793D01*
X9683787Y-13979793D02*
X9683787Y-13932174D01*
X9683787Y-13932174D02*
X9693311Y-13894079D01*
X9693311Y-13894079D02*
X9702835Y-13875031D01*
X9702835Y-13875031D02*
X9712359Y-13865508D01*
X9712359Y-13865508D02*
X9731406Y-13855984D01*
X9921883Y-13855984D02*
X9940930Y-13855984D01*
X9940930Y-13855984D02*
X9959978Y-13865508D01*
X9959978Y-13865508D02*
X9969502Y-13875031D01*
X9969502Y-13875031D02*
X9979025Y-13894079D01*
X9979025Y-13894079D02*
X9988549Y-13932174D01*
X9988549Y-13932174D02*
X9988549Y-13979793D01*
X9988549Y-13979793D02*
X9979025Y-14017888D01*
X9979025Y-14017888D02*
X9969502Y-14036936D01*
X9969502Y-14036936D02*
X9959978Y-14046460D01*
X9959978Y-14046460D02*
X9940930Y-14055984D01*
X9940930Y-14055984D02*
X9921883Y-14055984D01*
X9921883Y-14055984D02*
X9902835Y-14046460D01*
X9902835Y-14046460D02*
X9893311Y-14036936D01*
X9893311Y-14036936D02*
X9883787Y-14017888D01*
X9883787Y-14017888D02*
X9874264Y-13979793D01*
X9874264Y-13979793D02*
X9874264Y-13932174D01*
X9874264Y-13932174D02*
X9883787Y-13894079D01*
X9883787Y-13894079D02*
X9893311Y-13875031D01*
X9893311Y-13875031D02*
X9902835Y-13865508D01*
X9902835Y-13865508D02*
X9921883Y-13855984D01*
X10112359Y-13855984D02*
X10131406Y-13855984D01*
X10131406Y-13855984D02*
X10150454Y-13865508D01*
X10150454Y-13865508D02*
X10159978Y-13875031D01*
X10159978Y-13875031D02*
X10169502Y-13894079D01*
X10169502Y-13894079D02*
X10179025Y-13932174D01*
X10179025Y-13932174D02*
X10179025Y-13979793D01*
X10179025Y-13979793D02*
X10169502Y-14017888D01*
X10169502Y-14017888D02*
X10159978Y-14036936D01*
X10159978Y-14036936D02*
X10150454Y-14046460D01*
X10150454Y-14046460D02*
X10131406Y-14055984D01*
X10131406Y-14055984D02*
X10112359Y-14055984D01*
X10112359Y-14055984D02*
X10093311Y-14046460D01*
X10093311Y-14046460D02*
X10083787Y-14036936D01*
X10083787Y-14036936D02*
X10074264Y-14017888D01*
X10074264Y-14017888D02*
X10064740Y-13979793D01*
X10064740Y-13979793D02*
X10064740Y-13932174D01*
X10064740Y-13932174D02*
X10074264Y-13894079D01*
X10074264Y-13894079D02*
X10083787Y-13875031D01*
X10083787Y-13875031D02*
X10093311Y-13865508D01*
X10093311Y-13865508D02*
X10112359Y-13855984D01*
X10264740Y-14055984D02*
X10264740Y-13922650D01*
X10264740Y-13941698D02*
X10274264Y-13932174D01*
X10274264Y-13932174D02*
X10293311Y-13922650D01*
X10293311Y-13922650D02*
X10321883Y-13922650D01*
X10321883Y-13922650D02*
X10340930Y-13932174D01*
X10340930Y-13932174D02*
X10350454Y-13951222D01*
X10350454Y-13951222D02*
X10350454Y-14055984D01*
X10350454Y-13951222D02*
X10359978Y-13932174D01*
X10359978Y-13932174D02*
X10379025Y-13922650D01*
X10379025Y-13922650D02*
X10407597Y-13922650D01*
X10407597Y-13922650D02*
X10426645Y-13932174D01*
X10426645Y-13932174D02*
X10436168Y-13951222D01*
X10436168Y-13951222D02*
X10436168Y-14055984D01*
X10531406Y-14055984D02*
X10531406Y-13922650D01*
X10531406Y-13941698D02*
X10540930Y-13932174D01*
X10540930Y-13932174D02*
X10559978Y-13922650D01*
X10559978Y-13922650D02*
X10588549Y-13922650D01*
X10588549Y-13922650D02*
X10607597Y-13932174D01*
X10607597Y-13932174D02*
X10617121Y-13951222D01*
X10617121Y-13951222D02*
X10617121Y-14055984D01*
X10617121Y-13951222D02*
X10626645Y-13932174D01*
X10626645Y-13932174D02*
X10645692Y-13922650D01*
X10645692Y-13922650D02*
X10674264Y-13922650D01*
X10674264Y-13922650D02*
X10693311Y-13932174D01*
X10693311Y-13932174D02*
X10702835Y-13951222D01*
X10702835Y-13951222D02*
X10702835Y-14055984D01*
X11093311Y-13846460D02*
X10921883Y-14103603D01*
X11350454Y-13855984D02*
X11369502Y-13855984D01*
X11369502Y-13855984D02*
X11388549Y-13865508D01*
X11388549Y-13865508D02*
X11398073Y-13875031D01*
X11398073Y-13875031D02*
X11407597Y-13894079D01*
X11407597Y-13894079D02*
X11417121Y-13932174D01*
X11417121Y-13932174D02*
X11417121Y-13979793D01*
X11417121Y-13979793D02*
X11407597Y-14017888D01*
X11407597Y-14017888D02*
X11398073Y-14036936D01*
X11398073Y-14036936D02*
X11388549Y-14046460D01*
X11388549Y-14046460D02*
X11369502Y-14055984D01*
X11369502Y-14055984D02*
X11350454Y-14055984D01*
X11350454Y-14055984D02*
X11331406Y-14046460D01*
X11331406Y-14046460D02*
X11321883Y-14036936D01*
X11321883Y-14036936D02*
X11312359Y-14017888D01*
X11312359Y-14017888D02*
X11302835Y-13979793D01*
X11302835Y-13979793D02*
X11302835Y-13932174D01*
X11302835Y-13932174D02*
X11312359Y-13894079D01*
X11312359Y-13894079D02*
X11321883Y-13875031D01*
X11321883Y-13875031D02*
X11331406Y-13865508D01*
X11331406Y-13865508D02*
X11350454Y-13855984D01*
X11502835Y-14036936D02*
X11512359Y-14046460D01*
X11512359Y-14046460D02*
X11502835Y-14055984D01*
X11502835Y-14055984D02*
X11493311Y-14046460D01*
X11493311Y-14046460D02*
X11502835Y-14036936D01*
X11502835Y-14036936D02*
X11502835Y-14055984D01*
X11636168Y-13855984D02*
X11655216Y-13855984D01*
X11655216Y-13855984D02*
X11674264Y-13865508D01*
X11674264Y-13865508D02*
X11683787Y-13875031D01*
X11683787Y-13875031D02*
X11693311Y-13894079D01*
X11693311Y-13894079D02*
X11702835Y-13932174D01*
X11702835Y-13932174D02*
X11702835Y-13979793D01*
X11702835Y-13979793D02*
X11693311Y-14017888D01*
X11693311Y-14017888D02*
X11683787Y-14036936D01*
X11683787Y-14036936D02*
X11674264Y-14046460D01*
X11674264Y-14046460D02*
X11655216Y-14055984D01*
X11655216Y-14055984D02*
X11636168Y-14055984D01*
X11636168Y-14055984D02*
X11617121Y-14046460D01*
X11617121Y-14046460D02*
X11607597Y-14036936D01*
X11607597Y-14036936D02*
X11598073Y-14017888D01*
X11598073Y-14017888D02*
X11588549Y-13979793D01*
X11588549Y-13979793D02*
X11588549Y-13932174D01*
X11588549Y-13932174D02*
X11598073Y-13894079D01*
X11598073Y-13894079D02*
X11607597Y-13875031D01*
X11607597Y-13875031D02*
X11617121Y-13865508D01*
X11617121Y-13865508D02*
X11636168Y-13855984D01*
X11769502Y-13855984D02*
X11893311Y-13855984D01*
X11893311Y-13855984D02*
X11826645Y-13932174D01*
X11826645Y-13932174D02*
X11855216Y-13932174D01*
X11855216Y-13932174D02*
X11874264Y-13941698D01*
X11874264Y-13941698D02*
X11883787Y-13951222D01*
X11883787Y-13951222D02*
X11893311Y-13970269D01*
X11893311Y-13970269D02*
X11893311Y-14017888D01*
X11893311Y-14017888D02*
X11883787Y-14036936D01*
X11883787Y-14036936D02*
X11874264Y-14046460D01*
X11874264Y-14046460D02*
X11855216Y-14055984D01*
X11855216Y-14055984D02*
X11798073Y-14055984D01*
X11798073Y-14055984D02*
X11779026Y-14046460D01*
X11779026Y-14046460D02*
X11769502Y-14036936D01*
X11988549Y-14055984D02*
X12026645Y-14055984D01*
X12026645Y-14055984D02*
X12045692Y-14046460D01*
X12045692Y-14046460D02*
X12055216Y-14036936D01*
X12055216Y-14036936D02*
X12074264Y-14008365D01*
X12074264Y-14008365D02*
X12083787Y-13970269D01*
X12083787Y-13970269D02*
X12083787Y-13894079D01*
X12083787Y-13894079D02*
X12074264Y-13875031D01*
X12074264Y-13875031D02*
X12064740Y-13865508D01*
X12064740Y-13865508D02*
X12045692Y-13855984D01*
X12045692Y-13855984D02*
X12007597Y-13855984D01*
X12007597Y-13855984D02*
X11988549Y-13865508D01*
X11988549Y-13865508D02*
X11979026Y-13875031D01*
X11979026Y-13875031D02*
X11969502Y-13894079D01*
X11969502Y-13894079D02*
X11969502Y-13941698D01*
X11969502Y-13941698D02*
X11979026Y-13960746D01*
X11979026Y-13960746D02*
X11988549Y-13970269D01*
X11988549Y-13970269D02*
X12007597Y-13979793D01*
X12007597Y-13979793D02*
X12045692Y-13979793D01*
X12045692Y-13979793D02*
X12064740Y-13970269D01*
X12064740Y-13970269D02*
X12074264Y-13960746D01*
X12074264Y-13960746D02*
X12083787Y-13941698D01*
X12255216Y-13922650D02*
X12255216Y-14055984D01*
X12207597Y-13846460D02*
X12159978Y-13989317D01*
X12159978Y-13989317D02*
X12283787Y-13989317D01*
X12350454Y-13855984D02*
X12350454Y-13894079D01*
X12426645Y-13855984D02*
X12426645Y-13894079D01*
X12721883Y-14132174D02*
X12712359Y-14122650D01*
X12712359Y-14122650D02*
X12693311Y-14094079D01*
X12693311Y-14094079D02*
X12683788Y-14075031D01*
X12683788Y-14075031D02*
X12674264Y-14046460D01*
X12674264Y-14046460D02*
X12664740Y-13998841D01*
X12664740Y-13998841D02*
X12664740Y-13960746D01*
X12664740Y-13960746D02*
X12674264Y-13913127D01*
X12674264Y-13913127D02*
X12683788Y-13884555D01*
X12683788Y-13884555D02*
X12693311Y-13865508D01*
X12693311Y-13865508D02*
X12712359Y-13836936D01*
X12712359Y-13836936D02*
X12721883Y-13827412D01*
X12836168Y-13855984D02*
X12855216Y-13855984D01*
X12855216Y-13855984D02*
X12874264Y-13865508D01*
X12874264Y-13865508D02*
X12883788Y-13875031D01*
X12883788Y-13875031D02*
X12893311Y-13894079D01*
X12893311Y-13894079D02*
X12902835Y-13932174D01*
X12902835Y-13932174D02*
X12902835Y-13979793D01*
X12902835Y-13979793D02*
X12893311Y-14017888D01*
X12893311Y-14017888D02*
X12883788Y-14036936D01*
X12883788Y-14036936D02*
X12874264Y-14046460D01*
X12874264Y-14046460D02*
X12855216Y-14055984D01*
X12855216Y-14055984D02*
X12836168Y-14055984D01*
X12836168Y-14055984D02*
X12817121Y-14046460D01*
X12817121Y-14046460D02*
X12807597Y-14036936D01*
X12807597Y-14036936D02*
X12798073Y-14017888D01*
X12798073Y-14017888D02*
X12788549Y-13979793D01*
X12788549Y-13979793D02*
X12788549Y-13932174D01*
X12788549Y-13932174D02*
X12798073Y-13894079D01*
X12798073Y-13894079D02*
X12807597Y-13875031D01*
X12807597Y-13875031D02*
X12817121Y-13865508D01*
X12817121Y-13865508D02*
X12836168Y-13855984D01*
X13140930Y-14055984D02*
X13140930Y-13855984D01*
X13226645Y-14055984D02*
X13226645Y-13951222D01*
X13226645Y-13951222D02*
X13217121Y-13932174D01*
X13217121Y-13932174D02*
X13198073Y-13922650D01*
X13198073Y-13922650D02*
X13169502Y-13922650D01*
X13169502Y-13922650D02*
X13150454Y-13932174D01*
X13150454Y-13932174D02*
X13140930Y-13941698D01*
X13350454Y-14055984D02*
X13331407Y-14046460D01*
X13331407Y-14046460D02*
X13321883Y-14036936D01*
X13321883Y-14036936D02*
X13312359Y-14017888D01*
X13312359Y-14017888D02*
X13312359Y-13960746D01*
X13312359Y-13960746D02*
X13321883Y-13941698D01*
X13321883Y-13941698D02*
X13331407Y-13932174D01*
X13331407Y-13932174D02*
X13350454Y-13922650D01*
X13350454Y-13922650D02*
X13379026Y-13922650D01*
X13379026Y-13922650D02*
X13398073Y-13932174D01*
X13398073Y-13932174D02*
X13407597Y-13941698D01*
X13407597Y-13941698D02*
X13417121Y-13960746D01*
X13417121Y-13960746D02*
X13417121Y-14017888D01*
X13417121Y-14017888D02*
X13407597Y-14036936D01*
X13407597Y-14036936D02*
X13398073Y-14046460D01*
X13398073Y-14046460D02*
X13379026Y-14055984D01*
X13379026Y-14055984D02*
X13350454Y-14055984D01*
X13531407Y-14055984D02*
X13512359Y-14046460D01*
X13512359Y-14046460D02*
X13502835Y-14027412D01*
X13502835Y-14027412D02*
X13502835Y-13855984D01*
X13683788Y-14046460D02*
X13664740Y-14055984D01*
X13664740Y-14055984D02*
X13626645Y-14055984D01*
X13626645Y-14055984D02*
X13607597Y-14046460D01*
X13607597Y-14046460D02*
X13598073Y-14027412D01*
X13598073Y-14027412D02*
X13598073Y-13951222D01*
X13598073Y-13951222D02*
X13607597Y-13932174D01*
X13607597Y-13932174D02*
X13626645Y-13922650D01*
X13626645Y-13922650D02*
X13664740Y-13922650D01*
X13664740Y-13922650D02*
X13683788Y-13932174D01*
X13683788Y-13932174D02*
X13693311Y-13951222D01*
X13693311Y-13951222D02*
X13693311Y-13970269D01*
X13693311Y-13970269D02*
X13598073Y-13989317D01*
X13769502Y-14046460D02*
X13788550Y-14055984D01*
X13788550Y-14055984D02*
X13826645Y-14055984D01*
X13826645Y-14055984D02*
X13845692Y-14046460D01*
X13845692Y-14046460D02*
X13855216Y-14027412D01*
X13855216Y-14027412D02*
X13855216Y-14017888D01*
X13855216Y-14017888D02*
X13845692Y-13998841D01*
X13845692Y-13998841D02*
X13826645Y-13989317D01*
X13826645Y-13989317D02*
X13798073Y-13989317D01*
X13798073Y-13989317D02*
X13779026Y-13979793D01*
X13779026Y-13979793D02*
X13769502Y-13960746D01*
X13769502Y-13960746D02*
X13769502Y-13951222D01*
X13769502Y-13951222D02*
X13779026Y-13932174D01*
X13779026Y-13932174D02*
X13798073Y-13922650D01*
X13798073Y-13922650D02*
X13826645Y-13922650D01*
X13826645Y-13922650D02*
X13845692Y-13932174D01*
X14093312Y-13979793D02*
X14245693Y-13979793D01*
X14169502Y-14055984D02*
X14169502Y-13903603D01*
X14598073Y-14055984D02*
X14483788Y-14055984D01*
X14540931Y-14055984D02*
X14540931Y-13855984D01*
X14540931Y-13855984D02*
X14521883Y-13884555D01*
X14521883Y-13884555D02*
X14502835Y-13903603D01*
X14502835Y-13903603D02*
X14483788Y-13913127D01*
X14674264Y-13875031D02*
X14683788Y-13865508D01*
X14683788Y-13865508D02*
X14702835Y-13855984D01*
X14702835Y-13855984D02*
X14750454Y-13855984D01*
X14750454Y-13855984D02*
X14769502Y-13865508D01*
X14769502Y-13865508D02*
X14779026Y-13875031D01*
X14779026Y-13875031D02*
X14788550Y-13894079D01*
X14788550Y-13894079D02*
X14788550Y-13913127D01*
X14788550Y-13913127D02*
X14779026Y-13941698D01*
X14779026Y-13941698D02*
X14664740Y-14055984D01*
X14664740Y-14055984D02*
X14788550Y-14055984D01*
X15017121Y-14046460D02*
X15036169Y-14055984D01*
X15036169Y-14055984D02*
X15074264Y-14055984D01*
X15074264Y-14055984D02*
X15093312Y-14046460D01*
X15093312Y-14046460D02*
X15102835Y-14027412D01*
X15102835Y-14027412D02*
X15102835Y-14017888D01*
X15102835Y-14017888D02*
X15093312Y-13998841D01*
X15093312Y-13998841D02*
X15074264Y-13989317D01*
X15074264Y-13989317D02*
X15045693Y-13989317D01*
X15045693Y-13989317D02*
X15026645Y-13979793D01*
X15026645Y-13979793D02*
X15017121Y-13960746D01*
X15017121Y-13960746D02*
X15017121Y-13951222D01*
X15017121Y-13951222D02*
X15026645Y-13932174D01*
X15026645Y-13932174D02*
X15045693Y-13922650D01*
X15045693Y-13922650D02*
X15074264Y-13922650D01*
X15074264Y-13922650D02*
X15093312Y-13932174D01*
X15217121Y-14055984D02*
X15198074Y-14046460D01*
X15198074Y-14046460D02*
X15188550Y-14027412D01*
X15188550Y-14027412D02*
X15188550Y-13855984D01*
X15321883Y-14055984D02*
X15302835Y-14046460D01*
X15302835Y-14046460D02*
X15293312Y-14036936D01*
X15293312Y-14036936D02*
X15283788Y-14017888D01*
X15283788Y-14017888D02*
X15283788Y-13960746D01*
X15283788Y-13960746D02*
X15293312Y-13941698D01*
X15293312Y-13941698D02*
X15302835Y-13932174D01*
X15302835Y-13932174D02*
X15321883Y-13922650D01*
X15321883Y-13922650D02*
X15350455Y-13922650D01*
X15350455Y-13922650D02*
X15369502Y-13932174D01*
X15369502Y-13932174D02*
X15379026Y-13941698D01*
X15379026Y-13941698D02*
X15388550Y-13960746D01*
X15388550Y-13960746D02*
X15388550Y-14017888D01*
X15388550Y-14017888D02*
X15379026Y-14036936D01*
X15379026Y-14036936D02*
X15369502Y-14046460D01*
X15369502Y-14046460D02*
X15350455Y-14055984D01*
X15350455Y-14055984D02*
X15321883Y-14055984D01*
X15445693Y-13922650D02*
X15521883Y-13922650D01*
X15474264Y-13855984D02*
X15474264Y-14027412D01*
X15474264Y-14027412D02*
X15483788Y-14046460D01*
X15483788Y-14046460D02*
X15502835Y-14055984D01*
X15502835Y-14055984D02*
X15521883Y-14055984D01*
X15579026Y-14046460D02*
X15598074Y-14055984D01*
X15598074Y-14055984D02*
X15636169Y-14055984D01*
X15636169Y-14055984D02*
X15655216Y-14046460D01*
X15655216Y-14046460D02*
X15664740Y-14027412D01*
X15664740Y-14027412D02*
X15664740Y-14017888D01*
X15664740Y-14017888D02*
X15655216Y-13998841D01*
X15655216Y-13998841D02*
X15636169Y-13989317D01*
X15636169Y-13989317D02*
X15607597Y-13989317D01*
X15607597Y-13989317D02*
X15588550Y-13979793D01*
X15588550Y-13979793D02*
X15579026Y-13960746D01*
X15579026Y-13960746D02*
X15579026Y-13951222D01*
X15579026Y-13951222D02*
X15588550Y-13932174D01*
X15588550Y-13932174D02*
X15607597Y-13922650D01*
X15607597Y-13922650D02*
X15636169Y-13922650D01*
X15636169Y-13922650D02*
X15655216Y-13932174D01*
X15731407Y-14132174D02*
X15740931Y-14122650D01*
X15740931Y-14122650D02*
X15759978Y-14094079D01*
X15759978Y-14094079D02*
X15769502Y-14075031D01*
X15769502Y-14075031D02*
X15779026Y-14046460D01*
X15779026Y-14046460D02*
X15788550Y-13998841D01*
X15788550Y-13998841D02*
X15788550Y-13960746D01*
X15788550Y-13960746D02*
X15779026Y-13913127D01*
X15779026Y-13913127D02*
X15769502Y-13884555D01*
X15769502Y-13884555D02*
X15759978Y-13865508D01*
X15759978Y-13865508D02*
X15740931Y-13836936D01*
X15740931Y-13836936D02*
X15731407Y-13827412D01*
D13*
X9056820Y-14318500D02*
X9146820Y-14228500D01*
X9056820Y-14138500D01*
X8966820Y-14228500D01*
X9056820Y-14318500D01*
D11*
X9512359Y-14319984D02*
X9398073Y-14319984D01*
X9455216Y-14319984D02*
X9455216Y-14119984D01*
X9455216Y-14119984D02*
X9436168Y-14148555D01*
X9436168Y-14148555D02*
X9417121Y-14167603D01*
X9417121Y-14167603D02*
X9398073Y-14177127D01*
X9598073Y-14300936D02*
X9607597Y-14310460D01*
X9607597Y-14310460D02*
X9598073Y-14319984D01*
X9598073Y-14319984D02*
X9588549Y-14310460D01*
X9588549Y-14310460D02*
X9598073Y-14300936D01*
X9598073Y-14300936D02*
X9598073Y-14319984D01*
X9721883Y-14205698D02*
X9702835Y-14196174D01*
X9702835Y-14196174D02*
X9693311Y-14186650D01*
X9693311Y-14186650D02*
X9683787Y-14167603D01*
X9683787Y-14167603D02*
X9683787Y-14158079D01*
X9683787Y-14158079D02*
X9693311Y-14139031D01*
X9693311Y-14139031D02*
X9702835Y-14129508D01*
X9702835Y-14129508D02*
X9721883Y-14119984D01*
X9721883Y-14119984D02*
X9759978Y-14119984D01*
X9759978Y-14119984D02*
X9779025Y-14129508D01*
X9779025Y-14129508D02*
X9788549Y-14139031D01*
X9788549Y-14139031D02*
X9798073Y-14158079D01*
X9798073Y-14158079D02*
X9798073Y-14167603D01*
X9798073Y-14167603D02*
X9788549Y-14186650D01*
X9788549Y-14186650D02*
X9779025Y-14196174D01*
X9779025Y-14196174D02*
X9759978Y-14205698D01*
X9759978Y-14205698D02*
X9721883Y-14205698D01*
X9721883Y-14205698D02*
X9702835Y-14215222D01*
X9702835Y-14215222D02*
X9693311Y-14224746D01*
X9693311Y-14224746D02*
X9683787Y-14243793D01*
X9683787Y-14243793D02*
X9683787Y-14281888D01*
X9683787Y-14281888D02*
X9693311Y-14300936D01*
X9693311Y-14300936D02*
X9702835Y-14310460D01*
X9702835Y-14310460D02*
X9721883Y-14319984D01*
X9721883Y-14319984D02*
X9759978Y-14319984D01*
X9759978Y-14319984D02*
X9779025Y-14310460D01*
X9779025Y-14310460D02*
X9788549Y-14300936D01*
X9788549Y-14300936D02*
X9798073Y-14281888D01*
X9798073Y-14281888D02*
X9798073Y-14243793D01*
X9798073Y-14243793D02*
X9788549Y-14224746D01*
X9788549Y-14224746D02*
X9779025Y-14215222D01*
X9779025Y-14215222D02*
X9759978Y-14205698D01*
X9921883Y-14119984D02*
X9940930Y-14119984D01*
X9940930Y-14119984D02*
X9959978Y-14129508D01*
X9959978Y-14129508D02*
X9969502Y-14139031D01*
X9969502Y-14139031D02*
X9979025Y-14158079D01*
X9979025Y-14158079D02*
X9988549Y-14196174D01*
X9988549Y-14196174D02*
X9988549Y-14243793D01*
X9988549Y-14243793D02*
X9979025Y-14281888D01*
X9979025Y-14281888D02*
X9969502Y-14300936D01*
X9969502Y-14300936D02*
X9959978Y-14310460D01*
X9959978Y-14310460D02*
X9940930Y-14319984D01*
X9940930Y-14319984D02*
X9921883Y-14319984D01*
X9921883Y-14319984D02*
X9902835Y-14310460D01*
X9902835Y-14310460D02*
X9893311Y-14300936D01*
X9893311Y-14300936D02*
X9883787Y-14281888D01*
X9883787Y-14281888D02*
X9874264Y-14243793D01*
X9874264Y-14243793D02*
X9874264Y-14196174D01*
X9874264Y-14196174D02*
X9883787Y-14158079D01*
X9883787Y-14158079D02*
X9893311Y-14139031D01*
X9893311Y-14139031D02*
X9902835Y-14129508D01*
X9902835Y-14129508D02*
X9921883Y-14119984D01*
X10112359Y-14119984D02*
X10131406Y-14119984D01*
X10131406Y-14119984D02*
X10150454Y-14129508D01*
X10150454Y-14129508D02*
X10159978Y-14139031D01*
X10159978Y-14139031D02*
X10169502Y-14158079D01*
X10169502Y-14158079D02*
X10179025Y-14196174D01*
X10179025Y-14196174D02*
X10179025Y-14243793D01*
X10179025Y-14243793D02*
X10169502Y-14281888D01*
X10169502Y-14281888D02*
X10159978Y-14300936D01*
X10159978Y-14300936D02*
X10150454Y-14310460D01*
X10150454Y-14310460D02*
X10131406Y-14319984D01*
X10131406Y-14319984D02*
X10112359Y-14319984D01*
X10112359Y-14319984D02*
X10093311Y-14310460D01*
X10093311Y-14310460D02*
X10083787Y-14300936D01*
X10083787Y-14300936D02*
X10074264Y-14281888D01*
X10074264Y-14281888D02*
X10064740Y-14243793D01*
X10064740Y-14243793D02*
X10064740Y-14196174D01*
X10064740Y-14196174D02*
X10074264Y-14158079D01*
X10074264Y-14158079D02*
X10083787Y-14139031D01*
X10083787Y-14139031D02*
X10093311Y-14129508D01*
X10093311Y-14129508D02*
X10112359Y-14119984D01*
X10264740Y-14319984D02*
X10264740Y-14186650D01*
X10264740Y-14205698D02*
X10274264Y-14196174D01*
X10274264Y-14196174D02*
X10293311Y-14186650D01*
X10293311Y-14186650D02*
X10321883Y-14186650D01*
X10321883Y-14186650D02*
X10340930Y-14196174D01*
X10340930Y-14196174D02*
X10350454Y-14215222D01*
X10350454Y-14215222D02*
X10350454Y-14319984D01*
X10350454Y-14215222D02*
X10359978Y-14196174D01*
X10359978Y-14196174D02*
X10379025Y-14186650D01*
X10379025Y-14186650D02*
X10407597Y-14186650D01*
X10407597Y-14186650D02*
X10426645Y-14196174D01*
X10426645Y-14196174D02*
X10436168Y-14215222D01*
X10436168Y-14215222D02*
X10436168Y-14319984D01*
X10531406Y-14319984D02*
X10531406Y-14186650D01*
X10531406Y-14205698D02*
X10540930Y-14196174D01*
X10540930Y-14196174D02*
X10559978Y-14186650D01*
X10559978Y-14186650D02*
X10588549Y-14186650D01*
X10588549Y-14186650D02*
X10607597Y-14196174D01*
X10607597Y-14196174D02*
X10617121Y-14215222D01*
X10617121Y-14215222D02*
X10617121Y-14319984D01*
X10617121Y-14215222D02*
X10626645Y-14196174D01*
X10626645Y-14196174D02*
X10645692Y-14186650D01*
X10645692Y-14186650D02*
X10674264Y-14186650D01*
X10674264Y-14186650D02*
X10693311Y-14196174D01*
X10693311Y-14196174D02*
X10702835Y-14215222D01*
X10702835Y-14215222D02*
X10702835Y-14319984D01*
X11093311Y-14110460D02*
X10921883Y-14367603D01*
X11350454Y-14119984D02*
X11369502Y-14119984D01*
X11369502Y-14119984D02*
X11388549Y-14129508D01*
X11388549Y-14129508D02*
X11398073Y-14139031D01*
X11398073Y-14139031D02*
X11407597Y-14158079D01*
X11407597Y-14158079D02*
X11417121Y-14196174D01*
X11417121Y-14196174D02*
X11417121Y-14243793D01*
X11417121Y-14243793D02*
X11407597Y-14281888D01*
X11407597Y-14281888D02*
X11398073Y-14300936D01*
X11398073Y-14300936D02*
X11388549Y-14310460D01*
X11388549Y-14310460D02*
X11369502Y-14319984D01*
X11369502Y-14319984D02*
X11350454Y-14319984D01*
X11350454Y-14319984D02*
X11331406Y-14310460D01*
X11331406Y-14310460D02*
X11321883Y-14300936D01*
X11321883Y-14300936D02*
X11312359Y-14281888D01*
X11312359Y-14281888D02*
X11302835Y-14243793D01*
X11302835Y-14243793D02*
X11302835Y-14196174D01*
X11302835Y-14196174D02*
X11312359Y-14158079D01*
X11312359Y-14158079D02*
X11321883Y-14139031D01*
X11321883Y-14139031D02*
X11331406Y-14129508D01*
X11331406Y-14129508D02*
X11350454Y-14119984D01*
X11502835Y-14300936D02*
X11512359Y-14310460D01*
X11512359Y-14310460D02*
X11502835Y-14319984D01*
X11502835Y-14319984D02*
X11493311Y-14310460D01*
X11493311Y-14310460D02*
X11502835Y-14300936D01*
X11502835Y-14300936D02*
X11502835Y-14319984D01*
X11636168Y-14119984D02*
X11655216Y-14119984D01*
X11655216Y-14119984D02*
X11674264Y-14129508D01*
X11674264Y-14129508D02*
X11683787Y-14139031D01*
X11683787Y-14139031D02*
X11693311Y-14158079D01*
X11693311Y-14158079D02*
X11702835Y-14196174D01*
X11702835Y-14196174D02*
X11702835Y-14243793D01*
X11702835Y-14243793D02*
X11693311Y-14281888D01*
X11693311Y-14281888D02*
X11683787Y-14300936D01*
X11683787Y-14300936D02*
X11674264Y-14310460D01*
X11674264Y-14310460D02*
X11655216Y-14319984D01*
X11655216Y-14319984D02*
X11636168Y-14319984D01*
X11636168Y-14319984D02*
X11617121Y-14310460D01*
X11617121Y-14310460D02*
X11607597Y-14300936D01*
X11607597Y-14300936D02*
X11598073Y-14281888D01*
X11598073Y-14281888D02*
X11588549Y-14243793D01*
X11588549Y-14243793D02*
X11588549Y-14196174D01*
X11588549Y-14196174D02*
X11598073Y-14158079D01*
X11598073Y-14158079D02*
X11607597Y-14139031D01*
X11607597Y-14139031D02*
X11617121Y-14129508D01*
X11617121Y-14129508D02*
X11636168Y-14119984D01*
X11769502Y-14119984D02*
X11902835Y-14119984D01*
X11902835Y-14119984D02*
X11817121Y-14319984D01*
X12017121Y-14119984D02*
X12036168Y-14119984D01*
X12036168Y-14119984D02*
X12055216Y-14129508D01*
X12055216Y-14129508D02*
X12064740Y-14139031D01*
X12064740Y-14139031D02*
X12074264Y-14158079D01*
X12074264Y-14158079D02*
X12083787Y-14196174D01*
X12083787Y-14196174D02*
X12083787Y-14243793D01*
X12083787Y-14243793D02*
X12074264Y-14281888D01*
X12074264Y-14281888D02*
X12064740Y-14300936D01*
X12064740Y-14300936D02*
X12055216Y-14310460D01*
X12055216Y-14310460D02*
X12036168Y-14319984D01*
X12036168Y-14319984D02*
X12017121Y-14319984D01*
X12017121Y-14319984D02*
X11998073Y-14310460D01*
X11998073Y-14310460D02*
X11988549Y-14300936D01*
X11988549Y-14300936D02*
X11979026Y-14281888D01*
X11979026Y-14281888D02*
X11969502Y-14243793D01*
X11969502Y-14243793D02*
X11969502Y-14196174D01*
X11969502Y-14196174D02*
X11979026Y-14158079D01*
X11979026Y-14158079D02*
X11988549Y-14139031D01*
X11988549Y-14139031D02*
X11998073Y-14129508D01*
X11998073Y-14129508D02*
X12017121Y-14119984D01*
X12179026Y-14319984D02*
X12217121Y-14319984D01*
X12217121Y-14319984D02*
X12236168Y-14310460D01*
X12236168Y-14310460D02*
X12245692Y-14300936D01*
X12245692Y-14300936D02*
X12264740Y-14272365D01*
X12264740Y-14272365D02*
X12274264Y-14234269D01*
X12274264Y-14234269D02*
X12274264Y-14158079D01*
X12274264Y-14158079D02*
X12264740Y-14139031D01*
X12264740Y-14139031D02*
X12255216Y-14129508D01*
X12255216Y-14129508D02*
X12236168Y-14119984D01*
X12236168Y-14119984D02*
X12198073Y-14119984D01*
X12198073Y-14119984D02*
X12179026Y-14129508D01*
X12179026Y-14129508D02*
X12169502Y-14139031D01*
X12169502Y-14139031D02*
X12159978Y-14158079D01*
X12159978Y-14158079D02*
X12159978Y-14205698D01*
X12159978Y-14205698D02*
X12169502Y-14224746D01*
X12169502Y-14224746D02*
X12179026Y-14234269D01*
X12179026Y-14234269D02*
X12198073Y-14243793D01*
X12198073Y-14243793D02*
X12236168Y-14243793D01*
X12236168Y-14243793D02*
X12255216Y-14234269D01*
X12255216Y-14234269D02*
X12264740Y-14224746D01*
X12264740Y-14224746D02*
X12274264Y-14205698D01*
X12350454Y-14119984D02*
X12350454Y-14158079D01*
X12426645Y-14119984D02*
X12426645Y-14158079D01*
X12721883Y-14396174D02*
X12712359Y-14386650D01*
X12712359Y-14386650D02*
X12693311Y-14358079D01*
X12693311Y-14358079D02*
X12683788Y-14339031D01*
X12683788Y-14339031D02*
X12674264Y-14310460D01*
X12674264Y-14310460D02*
X12664740Y-14262841D01*
X12664740Y-14262841D02*
X12664740Y-14224746D01*
X12664740Y-14224746D02*
X12674264Y-14177127D01*
X12674264Y-14177127D02*
X12683788Y-14148555D01*
X12683788Y-14148555D02*
X12693311Y-14129508D01*
X12693311Y-14129508D02*
X12712359Y-14100936D01*
X12712359Y-14100936D02*
X12721883Y-14091412D01*
X12788549Y-14139031D02*
X12798073Y-14129508D01*
X12798073Y-14129508D02*
X12817121Y-14119984D01*
X12817121Y-14119984D02*
X12864740Y-14119984D01*
X12864740Y-14119984D02*
X12883788Y-14129508D01*
X12883788Y-14129508D02*
X12893311Y-14139031D01*
X12893311Y-14139031D02*
X12902835Y-14158079D01*
X12902835Y-14158079D02*
X12902835Y-14177127D01*
X12902835Y-14177127D02*
X12893311Y-14205698D01*
X12893311Y-14205698D02*
X12779026Y-14319984D01*
X12779026Y-14319984D02*
X12902835Y-14319984D01*
X13140930Y-14319984D02*
X13140930Y-14119984D01*
X13226645Y-14319984D02*
X13226645Y-14215222D01*
X13226645Y-14215222D02*
X13217121Y-14196174D01*
X13217121Y-14196174D02*
X13198073Y-14186650D01*
X13198073Y-14186650D02*
X13169502Y-14186650D01*
X13169502Y-14186650D02*
X13150454Y-14196174D01*
X13150454Y-14196174D02*
X13140930Y-14205698D01*
X13350454Y-14319984D02*
X13331407Y-14310460D01*
X13331407Y-14310460D02*
X13321883Y-14300936D01*
X13321883Y-14300936D02*
X13312359Y-14281888D01*
X13312359Y-14281888D02*
X13312359Y-14224746D01*
X13312359Y-14224746D02*
X13321883Y-14205698D01*
X13321883Y-14205698D02*
X13331407Y-14196174D01*
X13331407Y-14196174D02*
X13350454Y-14186650D01*
X13350454Y-14186650D02*
X13379026Y-14186650D01*
X13379026Y-14186650D02*
X13398073Y-14196174D01*
X13398073Y-14196174D02*
X13407597Y-14205698D01*
X13407597Y-14205698D02*
X13417121Y-14224746D01*
X13417121Y-14224746D02*
X13417121Y-14281888D01*
X13417121Y-14281888D02*
X13407597Y-14300936D01*
X13407597Y-14300936D02*
X13398073Y-14310460D01*
X13398073Y-14310460D02*
X13379026Y-14319984D01*
X13379026Y-14319984D02*
X13350454Y-14319984D01*
X13531407Y-14319984D02*
X13512359Y-14310460D01*
X13512359Y-14310460D02*
X13502835Y-14291412D01*
X13502835Y-14291412D02*
X13502835Y-14119984D01*
X13683788Y-14310460D02*
X13664740Y-14319984D01*
X13664740Y-14319984D02*
X13626645Y-14319984D01*
X13626645Y-14319984D02*
X13607597Y-14310460D01*
X13607597Y-14310460D02*
X13598073Y-14291412D01*
X13598073Y-14291412D02*
X13598073Y-14215222D01*
X13598073Y-14215222D02*
X13607597Y-14196174D01*
X13607597Y-14196174D02*
X13626645Y-14186650D01*
X13626645Y-14186650D02*
X13664740Y-14186650D01*
X13664740Y-14186650D02*
X13683788Y-14196174D01*
X13683788Y-14196174D02*
X13693311Y-14215222D01*
X13693311Y-14215222D02*
X13693311Y-14234269D01*
X13693311Y-14234269D02*
X13598073Y-14253317D01*
X13769502Y-14310460D02*
X13788550Y-14319984D01*
X13788550Y-14319984D02*
X13826645Y-14319984D01*
X13826645Y-14319984D02*
X13845692Y-14310460D01*
X13845692Y-14310460D02*
X13855216Y-14291412D01*
X13855216Y-14291412D02*
X13855216Y-14281888D01*
X13855216Y-14281888D02*
X13845692Y-14262841D01*
X13845692Y-14262841D02*
X13826645Y-14253317D01*
X13826645Y-14253317D02*
X13798073Y-14253317D01*
X13798073Y-14253317D02*
X13779026Y-14243793D01*
X13779026Y-14243793D02*
X13769502Y-14224746D01*
X13769502Y-14224746D02*
X13769502Y-14215222D01*
X13769502Y-14215222D02*
X13779026Y-14196174D01*
X13779026Y-14196174D02*
X13798073Y-14186650D01*
X13798073Y-14186650D02*
X13826645Y-14186650D01*
X13826645Y-14186650D02*
X13845692Y-14196174D01*
X13921883Y-14396174D02*
X13931407Y-14386650D01*
X13931407Y-14386650D02*
X13950454Y-14358079D01*
X13950454Y-14358079D02*
X13959978Y-14339031D01*
X13959978Y-14339031D02*
X13969502Y-14310460D01*
X13969502Y-14310460D02*
X13979026Y-14262841D01*
X13979026Y-14262841D02*
X13979026Y-14224746D01*
X13979026Y-14224746D02*
X13969502Y-14177127D01*
X13969502Y-14177127D02*
X13959978Y-14148555D01*
X13959978Y-14148555D02*
X13950454Y-14129508D01*
X13950454Y-14129508D02*
X13931407Y-14100936D01*
X13931407Y-14100936D02*
X13921883Y-14091412D01*
M02*
