%TF.GenerationSoftware,KiCad,Pcbnew,7.0.7*%
%TF.CreationDate,2023-08-19T17:10:16-04:00*%
%TF.ProjectId,baseboard,62617365-626f-4617-9264-2e6b69636164,A*%
%TF.SameCoordinates,Original*%
%TF.FileFunction,Copper,L4,Inr*%
%TF.FilePolarity,Positive*%
%FSLAX46Y46*%
G04 Gerber Fmt 4.6, Leading zero omitted, Abs format (unit mm)*
G04 Created by KiCad (PCBNEW 7.0.7) date 2023-08-19 17:10:16*
%MOMM*%
%LPD*%
G01*
G04 APERTURE LIST*
G04 Aperture macros list*
%AMRoundRect*
0 Rectangle with rounded corners*
0 $1 Rounding radius*
0 $2 $3 $4 $5 $6 $7 $8 $9 X,Y pos of 4 corners*
0 Add a 4 corners polygon primitive as box body*
4,1,4,$2,$3,$4,$5,$6,$7,$8,$9,$2,$3,0*
0 Add four circle primitives for the rounded corners*
1,1,$1+$1,$2,$3*
1,1,$1+$1,$4,$5*
1,1,$1+$1,$6,$7*
1,1,$1+$1,$8,$9*
0 Add four rect primitives between the rounded corners*
20,1,$1+$1,$2,$3,$4,$5,0*
20,1,$1+$1,$4,$5,$6,$7,0*
20,1,$1+$1,$6,$7,$8,$9,0*
20,1,$1+$1,$8,$9,$2,$3,0*%
G04 Aperture macros list end*
%ADD10C,0.100000*%
%ADD11C,0.150000*%
%ADD12C,0.300000*%
%TA.AperFunction,EtchedComponent*%
%ADD13C,0.200000*%
%TD*%
%TA.AperFunction,ComponentPad*%
%ADD14C,1.600000*%
%TD*%
%TA.AperFunction,ComponentPad*%
%ADD15O,4.500000X2.250000*%
%TD*%
%TA.AperFunction,ComponentPad*%
%ADD16O,4.000000X2.000000*%
%TD*%
%TA.AperFunction,ComponentPad*%
%ADD17O,2.000000X4.000000*%
%TD*%
%TA.AperFunction,ComponentPad*%
%ADD18RoundRect,0.500000X-0.500000X-2.300000X0.500000X-2.300000X0.500000X2.300000X-0.500000X2.300000X0*%
%TD*%
%TA.AperFunction,ComponentPad*%
%ADD19C,0.600000*%
%TD*%
%TA.AperFunction,ViaPad*%
%ADD20C,0.550000*%
%TD*%
%TA.AperFunction,Profile*%
%ADD21C,0.050000*%
%TD*%
G04 APERTURE END LIST*
D10*
D11*
X259813572Y-199154128D02*
X258956429Y-199154128D01*
X259385000Y-199154128D02*
X259385000Y-197654128D01*
X259385000Y-197654128D02*
X259242143Y-197868414D01*
X259242143Y-197868414D02*
X259099286Y-198011271D01*
X259099286Y-198011271D02*
X258956429Y-198082700D01*
X261527857Y-197582700D02*
X260242143Y-199511271D01*
X262813572Y-199154128D02*
X261956429Y-199154128D01*
X262385000Y-199154128D02*
X262385000Y-197654128D01*
X262385000Y-197654128D02*
X262242143Y-197868414D01*
X262242143Y-197868414D02*
X262099286Y-198011271D01*
X262099286Y-198011271D02*
X261956429Y-198082700D01*
D10*
D11*
X140409874Y-188759295D02*
X140867017Y-188759295D01*
X140638445Y-189559295D02*
X140638445Y-188759295D01*
X141133684Y-189559295D02*
X141133684Y-188759295D01*
X141400350Y-188759295D02*
X141857493Y-188759295D01*
X141628921Y-189559295D02*
X141628921Y-188759295D01*
X142505112Y-189559295D02*
X142124160Y-189559295D01*
X142124160Y-189559295D02*
X142124160Y-188759295D01*
X142771779Y-189140247D02*
X143038445Y-189140247D01*
X143152731Y-189559295D02*
X142771779Y-189559295D01*
X142771779Y-189559295D02*
X142771779Y-188759295D01*
X142771779Y-188759295D02*
X143152731Y-188759295D01*
D10*
D11*
X235596303Y-195909295D02*
X235329636Y-195528342D01*
X235139160Y-195909295D02*
X235139160Y-195109295D01*
X235139160Y-195109295D02*
X235443922Y-195109295D01*
X235443922Y-195109295D02*
X235520112Y-195147390D01*
X235520112Y-195147390D02*
X235558207Y-195185485D01*
X235558207Y-195185485D02*
X235596303Y-195261676D01*
X235596303Y-195261676D02*
X235596303Y-195375961D01*
X235596303Y-195375961D02*
X235558207Y-195452152D01*
X235558207Y-195452152D02*
X235520112Y-195490247D01*
X235520112Y-195490247D02*
X235443922Y-195528342D01*
X235443922Y-195528342D02*
X235139160Y-195528342D01*
X235939160Y-195490247D02*
X236205826Y-195490247D01*
X236320112Y-195909295D02*
X235939160Y-195909295D01*
X235939160Y-195909295D02*
X235939160Y-195109295D01*
X235939160Y-195109295D02*
X236320112Y-195109295D01*
X236548684Y-195109295D02*
X236815351Y-195909295D01*
X236815351Y-195909295D02*
X237082017Y-195109295D01*
X237348684Y-195909295D02*
X237348684Y-195109295D01*
X237691540Y-195871200D02*
X237805826Y-195909295D01*
X237805826Y-195909295D02*
X237996302Y-195909295D01*
X237996302Y-195909295D02*
X238072493Y-195871200D01*
X238072493Y-195871200D02*
X238110588Y-195833104D01*
X238110588Y-195833104D02*
X238148683Y-195756914D01*
X238148683Y-195756914D02*
X238148683Y-195680723D01*
X238148683Y-195680723D02*
X238110588Y-195604533D01*
X238110588Y-195604533D02*
X238072493Y-195566438D01*
X238072493Y-195566438D02*
X237996302Y-195528342D01*
X237996302Y-195528342D02*
X237843921Y-195490247D01*
X237843921Y-195490247D02*
X237767731Y-195452152D01*
X237767731Y-195452152D02*
X237729636Y-195414057D01*
X237729636Y-195414057D02*
X237691540Y-195337866D01*
X237691540Y-195337866D02*
X237691540Y-195261676D01*
X237691540Y-195261676D02*
X237729636Y-195185485D01*
X237729636Y-195185485D02*
X237767731Y-195147390D01*
X237767731Y-195147390D02*
X237843921Y-195109295D01*
X237843921Y-195109295D02*
X238034398Y-195109295D01*
X238034398Y-195109295D02*
X238148683Y-195147390D01*
X238491541Y-195909295D02*
X238491541Y-195109295D01*
X239024874Y-195109295D02*
X239177255Y-195109295D01*
X239177255Y-195109295D02*
X239253445Y-195147390D01*
X239253445Y-195147390D02*
X239329636Y-195223580D01*
X239329636Y-195223580D02*
X239367731Y-195375961D01*
X239367731Y-195375961D02*
X239367731Y-195642628D01*
X239367731Y-195642628D02*
X239329636Y-195795009D01*
X239329636Y-195795009D02*
X239253445Y-195871200D01*
X239253445Y-195871200D02*
X239177255Y-195909295D01*
X239177255Y-195909295D02*
X239024874Y-195909295D01*
X239024874Y-195909295D02*
X238948683Y-195871200D01*
X238948683Y-195871200D02*
X238872493Y-195795009D01*
X238872493Y-195795009D02*
X238834397Y-195642628D01*
X238834397Y-195642628D02*
X238834397Y-195375961D01*
X238834397Y-195375961D02*
X238872493Y-195223580D01*
X238872493Y-195223580D02*
X238948683Y-195147390D01*
X238948683Y-195147390D02*
X239024874Y-195109295D01*
X239710588Y-195909295D02*
X239710588Y-195109295D01*
X239710588Y-195109295D02*
X240167731Y-195909295D01*
X240167731Y-195909295D02*
X240167731Y-195109295D01*
D10*
D11*
X241489160Y-195909295D02*
X241489160Y-195109295D01*
X241489160Y-195109295D02*
X241679636Y-195109295D01*
X241679636Y-195109295D02*
X241793922Y-195147390D01*
X241793922Y-195147390D02*
X241870112Y-195223580D01*
X241870112Y-195223580D02*
X241908207Y-195299771D01*
X241908207Y-195299771D02*
X241946303Y-195452152D01*
X241946303Y-195452152D02*
X241946303Y-195566438D01*
X241946303Y-195566438D02*
X241908207Y-195718819D01*
X241908207Y-195718819D02*
X241870112Y-195795009D01*
X241870112Y-195795009D02*
X241793922Y-195871200D01*
X241793922Y-195871200D02*
X241679636Y-195909295D01*
X241679636Y-195909295D02*
X241489160Y-195909295D01*
X242251064Y-195680723D02*
X242632017Y-195680723D01*
X242174874Y-195909295D02*
X242441541Y-195109295D01*
X242441541Y-195109295D02*
X242708207Y-195909295D01*
X242860588Y-195109295D02*
X243317731Y-195109295D01*
X243089159Y-195909295D02*
X243089159Y-195109295D01*
X243584398Y-195490247D02*
X243851064Y-195490247D01*
X243965350Y-195909295D02*
X243584398Y-195909295D01*
X243584398Y-195909295D02*
X243584398Y-195109295D01*
X243584398Y-195109295D02*
X243965350Y-195109295D01*
X245070113Y-195109295D02*
X245222494Y-195109295D01*
X245222494Y-195109295D02*
X245298684Y-195147390D01*
X245298684Y-195147390D02*
X245374875Y-195223580D01*
X245374875Y-195223580D02*
X245412970Y-195375961D01*
X245412970Y-195375961D02*
X245412970Y-195642628D01*
X245412970Y-195642628D02*
X245374875Y-195795009D01*
X245374875Y-195795009D02*
X245298684Y-195871200D01*
X245298684Y-195871200D02*
X245222494Y-195909295D01*
X245222494Y-195909295D02*
X245070113Y-195909295D01*
X245070113Y-195909295D02*
X244993922Y-195871200D01*
X244993922Y-195871200D02*
X244917732Y-195795009D01*
X244917732Y-195795009D02*
X244879636Y-195642628D01*
X244879636Y-195642628D02*
X244879636Y-195375961D01*
X244879636Y-195375961D02*
X244917732Y-195223580D01*
X244917732Y-195223580D02*
X244993922Y-195147390D01*
X244993922Y-195147390D02*
X245070113Y-195109295D01*
X246022493Y-195490247D02*
X245755827Y-195490247D01*
X245755827Y-195909295D02*
X245755827Y-195109295D01*
X245755827Y-195109295D02*
X246136779Y-195109295D01*
X247051065Y-195909295D02*
X247051065Y-195109295D01*
X247393921Y-195871200D02*
X247508207Y-195909295D01*
X247508207Y-195909295D02*
X247698683Y-195909295D01*
X247698683Y-195909295D02*
X247774874Y-195871200D01*
X247774874Y-195871200D02*
X247812969Y-195833104D01*
X247812969Y-195833104D02*
X247851064Y-195756914D01*
X247851064Y-195756914D02*
X247851064Y-195680723D01*
X247851064Y-195680723D02*
X247812969Y-195604533D01*
X247812969Y-195604533D02*
X247774874Y-195566438D01*
X247774874Y-195566438D02*
X247698683Y-195528342D01*
X247698683Y-195528342D02*
X247546302Y-195490247D01*
X247546302Y-195490247D02*
X247470112Y-195452152D01*
X247470112Y-195452152D02*
X247432017Y-195414057D01*
X247432017Y-195414057D02*
X247393921Y-195337866D01*
X247393921Y-195337866D02*
X247393921Y-195261676D01*
X247393921Y-195261676D02*
X247432017Y-195185485D01*
X247432017Y-195185485D02*
X247470112Y-195147390D01*
X247470112Y-195147390D02*
X247546302Y-195109295D01*
X247546302Y-195109295D02*
X247736779Y-195109295D01*
X247736779Y-195109295D02*
X247851064Y-195147390D01*
X248155826Y-195871200D02*
X248270112Y-195909295D01*
X248270112Y-195909295D02*
X248460588Y-195909295D01*
X248460588Y-195909295D02*
X248536779Y-195871200D01*
X248536779Y-195871200D02*
X248574874Y-195833104D01*
X248574874Y-195833104D02*
X248612969Y-195756914D01*
X248612969Y-195756914D02*
X248612969Y-195680723D01*
X248612969Y-195680723D02*
X248574874Y-195604533D01*
X248574874Y-195604533D02*
X248536779Y-195566438D01*
X248536779Y-195566438D02*
X248460588Y-195528342D01*
X248460588Y-195528342D02*
X248308207Y-195490247D01*
X248308207Y-195490247D02*
X248232017Y-195452152D01*
X248232017Y-195452152D02*
X248193922Y-195414057D01*
X248193922Y-195414057D02*
X248155826Y-195337866D01*
X248155826Y-195337866D02*
X248155826Y-195261676D01*
X248155826Y-195261676D02*
X248193922Y-195185485D01*
X248193922Y-195185485D02*
X248232017Y-195147390D01*
X248232017Y-195147390D02*
X248308207Y-195109295D01*
X248308207Y-195109295D02*
X248498684Y-195109295D01*
X248498684Y-195109295D02*
X248612969Y-195147390D01*
X248955827Y-195109295D02*
X248955827Y-195756914D01*
X248955827Y-195756914D02*
X248993922Y-195833104D01*
X248993922Y-195833104D02*
X249032017Y-195871200D01*
X249032017Y-195871200D02*
X249108208Y-195909295D01*
X249108208Y-195909295D02*
X249260589Y-195909295D01*
X249260589Y-195909295D02*
X249336779Y-195871200D01*
X249336779Y-195871200D02*
X249374874Y-195833104D01*
X249374874Y-195833104D02*
X249412970Y-195756914D01*
X249412970Y-195756914D02*
X249412970Y-195109295D01*
X249793922Y-195490247D02*
X250060588Y-195490247D01*
X250174874Y-195909295D02*
X249793922Y-195909295D01*
X249793922Y-195909295D02*
X249793922Y-195109295D01*
X249793922Y-195109295D02*
X250174874Y-195109295D01*
D10*
D11*
X258596064Y-195871200D02*
X258710350Y-195909295D01*
X258710350Y-195909295D02*
X258900826Y-195909295D01*
X258900826Y-195909295D02*
X258977017Y-195871200D01*
X258977017Y-195871200D02*
X259015112Y-195833104D01*
X259015112Y-195833104D02*
X259053207Y-195756914D01*
X259053207Y-195756914D02*
X259053207Y-195680723D01*
X259053207Y-195680723D02*
X259015112Y-195604533D01*
X259015112Y-195604533D02*
X258977017Y-195566438D01*
X258977017Y-195566438D02*
X258900826Y-195528342D01*
X258900826Y-195528342D02*
X258748445Y-195490247D01*
X258748445Y-195490247D02*
X258672255Y-195452152D01*
X258672255Y-195452152D02*
X258634160Y-195414057D01*
X258634160Y-195414057D02*
X258596064Y-195337866D01*
X258596064Y-195337866D02*
X258596064Y-195261676D01*
X258596064Y-195261676D02*
X258634160Y-195185485D01*
X258634160Y-195185485D02*
X258672255Y-195147390D01*
X258672255Y-195147390D02*
X258748445Y-195109295D01*
X258748445Y-195109295D02*
X258938922Y-195109295D01*
X258938922Y-195109295D02*
X259053207Y-195147390D01*
X259396065Y-195909295D02*
X259396065Y-195109295D01*
X259396065Y-195490247D02*
X259853208Y-195490247D01*
X259853208Y-195909295D02*
X259853208Y-195109295D01*
X260234160Y-195490247D02*
X260500826Y-195490247D01*
X260615112Y-195909295D02*
X260234160Y-195909295D01*
X260234160Y-195909295D02*
X260234160Y-195109295D01*
X260234160Y-195109295D02*
X260615112Y-195109295D01*
X260957970Y-195490247D02*
X261224636Y-195490247D01*
X261338922Y-195909295D02*
X260957970Y-195909295D01*
X260957970Y-195909295D02*
X260957970Y-195109295D01*
X260957970Y-195109295D02*
X261338922Y-195109295D01*
X261567494Y-195109295D02*
X262024637Y-195109295D01*
X261796065Y-195909295D02*
X261796065Y-195109295D01*
D10*
D11*
X239299285Y-192804128D02*
X239299285Y-191304128D01*
X239299285Y-191304128D02*
X239870714Y-191304128D01*
X239870714Y-191304128D02*
X240013571Y-191375557D01*
X240013571Y-191375557D02*
X240085000Y-191446985D01*
X240085000Y-191446985D02*
X240156428Y-191589842D01*
X240156428Y-191589842D02*
X240156428Y-191804128D01*
X240156428Y-191804128D02*
X240085000Y-191946985D01*
X240085000Y-191946985D02*
X240013571Y-192018414D01*
X240013571Y-192018414D02*
X239870714Y-192089842D01*
X239870714Y-192089842D02*
X239299285Y-192089842D01*
X241656428Y-192661271D02*
X241585000Y-192732700D01*
X241585000Y-192732700D02*
X241370714Y-192804128D01*
X241370714Y-192804128D02*
X241227857Y-192804128D01*
X241227857Y-192804128D02*
X241013571Y-192732700D01*
X241013571Y-192732700D02*
X240870714Y-192589842D01*
X240870714Y-192589842D02*
X240799285Y-192446985D01*
X240799285Y-192446985D02*
X240727857Y-192161271D01*
X240727857Y-192161271D02*
X240727857Y-191946985D01*
X240727857Y-191946985D02*
X240799285Y-191661271D01*
X240799285Y-191661271D02*
X240870714Y-191518414D01*
X240870714Y-191518414D02*
X241013571Y-191375557D01*
X241013571Y-191375557D02*
X241227857Y-191304128D01*
X241227857Y-191304128D02*
X241370714Y-191304128D01*
X241370714Y-191304128D02*
X241585000Y-191375557D01*
X241585000Y-191375557D02*
X241656428Y-191446985D01*
X242799285Y-192018414D02*
X243013571Y-192089842D01*
X243013571Y-192089842D02*
X243085000Y-192161271D01*
X243085000Y-192161271D02*
X243156428Y-192304128D01*
X243156428Y-192304128D02*
X243156428Y-192518414D01*
X243156428Y-192518414D02*
X243085000Y-192661271D01*
X243085000Y-192661271D02*
X243013571Y-192732700D01*
X243013571Y-192732700D02*
X242870714Y-192804128D01*
X242870714Y-192804128D02*
X242299285Y-192804128D01*
X242299285Y-192804128D02*
X242299285Y-191304128D01*
X242299285Y-191304128D02*
X242799285Y-191304128D01*
X242799285Y-191304128D02*
X242942143Y-191375557D01*
X242942143Y-191375557D02*
X243013571Y-191446985D01*
X243013571Y-191446985D02*
X243085000Y-191589842D01*
X243085000Y-191589842D02*
X243085000Y-191732700D01*
X243085000Y-191732700D02*
X243013571Y-191875557D01*
X243013571Y-191875557D02*
X242942143Y-191946985D01*
X242942143Y-191946985D02*
X242799285Y-192018414D01*
X242799285Y-192018414D02*
X242299285Y-192018414D01*
X243727857Y-192375557D02*
X244442143Y-192375557D01*
X243585000Y-192804128D02*
X244085000Y-191304128D01*
X244085000Y-191304128D02*
X244585000Y-192804128D01*
D10*
D11*
X225068064Y-195680723D02*
X225449017Y-195680723D01*
X224991874Y-195909295D02*
X225258541Y-195109295D01*
X225258541Y-195109295D02*
X225525207Y-195909295D01*
X225791874Y-195909295D02*
X225791874Y-195109295D01*
X225791874Y-195109295D02*
X226096636Y-195109295D01*
X226096636Y-195109295D02*
X226172826Y-195147390D01*
X226172826Y-195147390D02*
X226210921Y-195185485D01*
X226210921Y-195185485D02*
X226249017Y-195261676D01*
X226249017Y-195261676D02*
X226249017Y-195375961D01*
X226249017Y-195375961D02*
X226210921Y-195452152D01*
X226210921Y-195452152D02*
X226172826Y-195490247D01*
X226172826Y-195490247D02*
X226096636Y-195528342D01*
X226096636Y-195528342D02*
X225791874Y-195528342D01*
X226591874Y-195909295D02*
X226591874Y-195109295D01*
X226591874Y-195109295D02*
X226896636Y-195109295D01*
X226896636Y-195109295D02*
X226972826Y-195147390D01*
X226972826Y-195147390D02*
X227010921Y-195185485D01*
X227010921Y-195185485D02*
X227049017Y-195261676D01*
X227049017Y-195261676D02*
X227049017Y-195375961D01*
X227049017Y-195375961D02*
X227010921Y-195452152D01*
X227010921Y-195452152D02*
X226972826Y-195490247D01*
X226972826Y-195490247D02*
X226896636Y-195528342D01*
X226896636Y-195528342D02*
X226591874Y-195528342D01*
X227849017Y-195909295D02*
X227582350Y-195528342D01*
X227391874Y-195909295D02*
X227391874Y-195109295D01*
X227391874Y-195109295D02*
X227696636Y-195109295D01*
X227696636Y-195109295D02*
X227772826Y-195147390D01*
X227772826Y-195147390D02*
X227810921Y-195185485D01*
X227810921Y-195185485D02*
X227849017Y-195261676D01*
X227849017Y-195261676D02*
X227849017Y-195375961D01*
X227849017Y-195375961D02*
X227810921Y-195452152D01*
X227810921Y-195452152D02*
X227772826Y-195490247D01*
X227772826Y-195490247D02*
X227696636Y-195528342D01*
X227696636Y-195528342D02*
X227391874Y-195528342D01*
X228344255Y-195109295D02*
X228496636Y-195109295D01*
X228496636Y-195109295D02*
X228572826Y-195147390D01*
X228572826Y-195147390D02*
X228649017Y-195223580D01*
X228649017Y-195223580D02*
X228687112Y-195375961D01*
X228687112Y-195375961D02*
X228687112Y-195642628D01*
X228687112Y-195642628D02*
X228649017Y-195795009D01*
X228649017Y-195795009D02*
X228572826Y-195871200D01*
X228572826Y-195871200D02*
X228496636Y-195909295D01*
X228496636Y-195909295D02*
X228344255Y-195909295D01*
X228344255Y-195909295D02*
X228268064Y-195871200D01*
X228268064Y-195871200D02*
X228191874Y-195795009D01*
X228191874Y-195795009D02*
X228153778Y-195642628D01*
X228153778Y-195642628D02*
X228153778Y-195375961D01*
X228153778Y-195375961D02*
X228191874Y-195223580D01*
X228191874Y-195223580D02*
X228268064Y-195147390D01*
X228268064Y-195147390D02*
X228344255Y-195109295D01*
X228915683Y-195109295D02*
X229182350Y-195909295D01*
X229182350Y-195909295D02*
X229449016Y-195109295D01*
X229715683Y-195490247D02*
X229982349Y-195490247D01*
X230096635Y-195909295D02*
X229715683Y-195909295D01*
X229715683Y-195909295D02*
X229715683Y-195109295D01*
X229715683Y-195109295D02*
X230096635Y-195109295D01*
X230439493Y-195909295D02*
X230439493Y-195109295D01*
X230439493Y-195109295D02*
X230629969Y-195109295D01*
X230629969Y-195109295D02*
X230744255Y-195147390D01*
X230744255Y-195147390D02*
X230820445Y-195223580D01*
X230820445Y-195223580D02*
X230858540Y-195299771D01*
X230858540Y-195299771D02*
X230896636Y-195452152D01*
X230896636Y-195452152D02*
X230896636Y-195566438D01*
X230896636Y-195566438D02*
X230858540Y-195718819D01*
X230858540Y-195718819D02*
X230820445Y-195795009D01*
X230820445Y-195795009D02*
X230744255Y-195871200D01*
X230744255Y-195871200D02*
X230629969Y-195909295D01*
X230629969Y-195909295D02*
X230439493Y-195909295D01*
X232115683Y-195490247D02*
X232229969Y-195528342D01*
X232229969Y-195528342D02*
X232268064Y-195566438D01*
X232268064Y-195566438D02*
X232306160Y-195642628D01*
X232306160Y-195642628D02*
X232306160Y-195756914D01*
X232306160Y-195756914D02*
X232268064Y-195833104D01*
X232268064Y-195833104D02*
X232229969Y-195871200D01*
X232229969Y-195871200D02*
X232153779Y-195909295D01*
X232153779Y-195909295D02*
X231849017Y-195909295D01*
X231849017Y-195909295D02*
X231849017Y-195109295D01*
X231849017Y-195109295D02*
X232115683Y-195109295D01*
X232115683Y-195109295D02*
X232191874Y-195147390D01*
X232191874Y-195147390D02*
X232229969Y-195185485D01*
X232229969Y-195185485D02*
X232268064Y-195261676D01*
X232268064Y-195261676D02*
X232268064Y-195337866D01*
X232268064Y-195337866D02*
X232229969Y-195414057D01*
X232229969Y-195414057D02*
X232191874Y-195452152D01*
X232191874Y-195452152D02*
X232115683Y-195490247D01*
X232115683Y-195490247D02*
X231849017Y-195490247D01*
X232801398Y-195528342D02*
X232801398Y-195909295D01*
X232534731Y-195109295D02*
X232801398Y-195528342D01*
X232801398Y-195528342D02*
X233068064Y-195109295D01*
D10*
D11*
X144445112Y-196918271D02*
X144302255Y-196846842D01*
X144302255Y-196846842D02*
X144016541Y-196846842D01*
X144016541Y-196846842D02*
X143873684Y-196918271D01*
X143873684Y-196918271D02*
X143730826Y-197061128D01*
X143730826Y-197061128D02*
X143659398Y-197203985D01*
X143659398Y-197203985D02*
X143659398Y-197489700D01*
X143659398Y-197489700D02*
X143730826Y-197632557D01*
X143730826Y-197632557D02*
X143873684Y-197775414D01*
X143873684Y-197775414D02*
X144016541Y-197846842D01*
X144016541Y-197846842D02*
X144302255Y-197846842D01*
X144302255Y-197846842D02*
X144445112Y-197775414D01*
X144159398Y-196346842D02*
X143802255Y-196418271D01*
X143802255Y-196418271D02*
X143445112Y-196632557D01*
X143445112Y-196632557D02*
X143230826Y-196989700D01*
X143230826Y-196989700D02*
X143159398Y-197346842D01*
X143159398Y-197346842D02*
X143230826Y-197703985D01*
X143230826Y-197703985D02*
X143445112Y-198061128D01*
X143445112Y-198061128D02*
X143802255Y-198275414D01*
X143802255Y-198275414D02*
X144159398Y-198346842D01*
X144159398Y-198346842D02*
X144516541Y-198275414D01*
X144516541Y-198275414D02*
X144873684Y-198061128D01*
X144873684Y-198061128D02*
X145087969Y-197703985D01*
X145087969Y-197703985D02*
X145159398Y-197346842D01*
X145159398Y-197346842D02*
X145087969Y-196989700D01*
X145087969Y-196989700D02*
X144873684Y-196632557D01*
X144873684Y-196632557D02*
X144516541Y-196418271D01*
X144516541Y-196418271D02*
X144159398Y-196346842D01*
X146873684Y-197632557D02*
X147587970Y-197632557D01*
X146730827Y-198061128D02*
X147230827Y-196561128D01*
X147230827Y-196561128D02*
X147730827Y-198061128D01*
X148445112Y-198061128D02*
X148302255Y-197989700D01*
X148302255Y-197989700D02*
X148230826Y-197846842D01*
X148230826Y-197846842D02*
X148230826Y-196561128D01*
X149587969Y-197989700D02*
X149445112Y-198061128D01*
X149445112Y-198061128D02*
X149159398Y-198061128D01*
X149159398Y-198061128D02*
X149016540Y-197989700D01*
X149016540Y-197989700D02*
X148945112Y-197846842D01*
X148945112Y-197846842D02*
X148945112Y-197275414D01*
X148945112Y-197275414D02*
X149016540Y-197132557D01*
X149016540Y-197132557D02*
X149159398Y-197061128D01*
X149159398Y-197061128D02*
X149445112Y-197061128D01*
X149445112Y-197061128D02*
X149587969Y-197132557D01*
X149587969Y-197132557D02*
X149659398Y-197275414D01*
X149659398Y-197275414D02*
X149659398Y-197418271D01*
X149659398Y-197418271D02*
X148945112Y-197561128D01*
X150230826Y-197989700D02*
X150373683Y-198061128D01*
X150373683Y-198061128D02*
X150659397Y-198061128D01*
X150659397Y-198061128D02*
X150802254Y-197989700D01*
X150802254Y-197989700D02*
X150873683Y-197846842D01*
X150873683Y-197846842D02*
X150873683Y-197775414D01*
X150873683Y-197775414D02*
X150802254Y-197632557D01*
X150802254Y-197632557D02*
X150659397Y-197561128D01*
X150659397Y-197561128D02*
X150445112Y-197561128D01*
X150445112Y-197561128D02*
X150302254Y-197489700D01*
X150302254Y-197489700D02*
X150230826Y-197346842D01*
X150230826Y-197346842D02*
X150230826Y-197275414D01*
X150230826Y-197275414D02*
X150302254Y-197132557D01*
X150302254Y-197132557D02*
X150445112Y-197061128D01*
X150445112Y-197061128D02*
X150659397Y-197061128D01*
X150659397Y-197061128D02*
X150802254Y-197132557D01*
X151445112Y-197989700D02*
X151587969Y-198061128D01*
X151587969Y-198061128D02*
X151873683Y-198061128D01*
X151873683Y-198061128D02*
X152016540Y-197989700D01*
X152016540Y-197989700D02*
X152087969Y-197846842D01*
X152087969Y-197846842D02*
X152087969Y-197775414D01*
X152087969Y-197775414D02*
X152016540Y-197632557D01*
X152016540Y-197632557D02*
X151873683Y-197561128D01*
X151873683Y-197561128D02*
X151659398Y-197561128D01*
X151659398Y-197561128D02*
X151516540Y-197489700D01*
X151516540Y-197489700D02*
X151445112Y-197346842D01*
X151445112Y-197346842D02*
X151445112Y-197275414D01*
X151445112Y-197275414D02*
X151516540Y-197132557D01*
X151516540Y-197132557D02*
X151659398Y-197061128D01*
X151659398Y-197061128D02*
X151873683Y-197061128D01*
X151873683Y-197061128D02*
X152016540Y-197132557D01*
X153373684Y-198061128D02*
X153373684Y-197275414D01*
X153373684Y-197275414D02*
X153302255Y-197132557D01*
X153302255Y-197132557D02*
X153159398Y-197061128D01*
X153159398Y-197061128D02*
X152873684Y-197061128D01*
X152873684Y-197061128D02*
X152730826Y-197132557D01*
X153373684Y-197989700D02*
X153230826Y-198061128D01*
X153230826Y-198061128D02*
X152873684Y-198061128D01*
X152873684Y-198061128D02*
X152730826Y-197989700D01*
X152730826Y-197989700D02*
X152659398Y-197846842D01*
X152659398Y-197846842D02*
X152659398Y-197703985D01*
X152659398Y-197703985D02*
X152730826Y-197561128D01*
X152730826Y-197561128D02*
X152873684Y-197489700D01*
X152873684Y-197489700D02*
X153230826Y-197489700D01*
X153230826Y-197489700D02*
X153373684Y-197418271D01*
X154087969Y-197061128D02*
X154087969Y-198061128D01*
X154087969Y-197203985D02*
X154159398Y-197132557D01*
X154159398Y-197132557D02*
X154302255Y-197061128D01*
X154302255Y-197061128D02*
X154516541Y-197061128D01*
X154516541Y-197061128D02*
X154659398Y-197132557D01*
X154659398Y-197132557D02*
X154730827Y-197275414D01*
X154730827Y-197275414D02*
X154730827Y-198061128D01*
X156087970Y-198061128D02*
X156087970Y-196561128D01*
X156087970Y-197989700D02*
X155945112Y-198061128D01*
X155945112Y-198061128D02*
X155659398Y-198061128D01*
X155659398Y-198061128D02*
X155516541Y-197989700D01*
X155516541Y-197989700D02*
X155445112Y-197918271D01*
X155445112Y-197918271D02*
X155373684Y-197775414D01*
X155373684Y-197775414D02*
X155373684Y-197346842D01*
X155373684Y-197346842D02*
X155445112Y-197203985D01*
X155445112Y-197203985D02*
X155516541Y-197132557D01*
X155516541Y-197132557D02*
X155659398Y-197061128D01*
X155659398Y-197061128D02*
X155945112Y-197061128D01*
X155945112Y-197061128D02*
X156087970Y-197132557D01*
X156802255Y-198061128D02*
X156802255Y-197061128D01*
X156802255Y-197346842D02*
X156873684Y-197203985D01*
X156873684Y-197203985D02*
X156945113Y-197132557D01*
X156945113Y-197132557D02*
X157087970Y-197061128D01*
X157087970Y-197061128D02*
X157230827Y-197061128D01*
X157945112Y-198061128D02*
X157802255Y-197989700D01*
X157802255Y-197989700D02*
X157730826Y-197918271D01*
X157730826Y-197918271D02*
X157659398Y-197775414D01*
X157659398Y-197775414D02*
X157659398Y-197346842D01*
X157659398Y-197346842D02*
X157730826Y-197203985D01*
X157730826Y-197203985D02*
X157802255Y-197132557D01*
X157802255Y-197132557D02*
X157945112Y-197061128D01*
X157945112Y-197061128D02*
X158159398Y-197061128D01*
X158159398Y-197061128D02*
X158302255Y-197132557D01*
X158302255Y-197132557D02*
X158373684Y-197203985D01*
X158373684Y-197203985D02*
X158445112Y-197346842D01*
X158445112Y-197346842D02*
X158445112Y-197775414D01*
X158445112Y-197775414D02*
X158373684Y-197918271D01*
X158373684Y-197918271D02*
X158302255Y-197989700D01*
X158302255Y-197989700D02*
X158159398Y-198061128D01*
X158159398Y-198061128D02*
X157945112Y-198061128D01*
X161087969Y-198061128D02*
X160587969Y-197346842D01*
X160230826Y-198061128D02*
X160230826Y-196561128D01*
X160230826Y-196561128D02*
X160802255Y-196561128D01*
X160802255Y-196561128D02*
X160945112Y-196632557D01*
X160945112Y-196632557D02*
X161016541Y-196703985D01*
X161016541Y-196703985D02*
X161087969Y-196846842D01*
X161087969Y-196846842D02*
X161087969Y-197061128D01*
X161087969Y-197061128D02*
X161016541Y-197203985D01*
X161016541Y-197203985D02*
X160945112Y-197275414D01*
X160945112Y-197275414D02*
X160802255Y-197346842D01*
X160802255Y-197346842D02*
X160230826Y-197346842D01*
X161730826Y-198061128D02*
X161730826Y-197061128D01*
X161730826Y-196561128D02*
X161659398Y-196632557D01*
X161659398Y-196632557D02*
X161730826Y-196703985D01*
X161730826Y-196703985D02*
X161802255Y-196632557D01*
X161802255Y-196632557D02*
X161730826Y-196561128D01*
X161730826Y-196561128D02*
X161730826Y-196703985D01*
X162302255Y-197061128D02*
X163087970Y-197061128D01*
X163087970Y-197061128D02*
X162302255Y-198061128D01*
X162302255Y-198061128D02*
X163087970Y-198061128D01*
X163516541Y-197061128D02*
X164302256Y-197061128D01*
X164302256Y-197061128D02*
X163516541Y-198061128D01*
X163516541Y-198061128D02*
X164302256Y-198061128D01*
X165087970Y-198061128D02*
X164945113Y-197989700D01*
X164945113Y-197989700D02*
X164873684Y-197918271D01*
X164873684Y-197918271D02*
X164802256Y-197775414D01*
X164802256Y-197775414D02*
X164802256Y-197346842D01*
X164802256Y-197346842D02*
X164873684Y-197203985D01*
X164873684Y-197203985D02*
X164945113Y-197132557D01*
X164945113Y-197132557D02*
X165087970Y-197061128D01*
X165087970Y-197061128D02*
X165302256Y-197061128D01*
X165302256Y-197061128D02*
X165445113Y-197132557D01*
X165445113Y-197132557D02*
X165516542Y-197203985D01*
X165516542Y-197203985D02*
X165587970Y-197346842D01*
X165587970Y-197346842D02*
X165587970Y-197775414D01*
X165587970Y-197775414D02*
X165516542Y-197918271D01*
X165516542Y-197918271D02*
X165445113Y-197989700D01*
X165445113Y-197989700D02*
X165302256Y-198061128D01*
X165302256Y-198061128D02*
X165087970Y-198061128D01*
X166230827Y-197061128D02*
X166230827Y-198061128D01*
X166230827Y-197203985D02*
X166302256Y-197132557D01*
X166302256Y-197132557D02*
X166445113Y-197061128D01*
X166445113Y-197061128D02*
X166659399Y-197061128D01*
X166659399Y-197061128D02*
X166802256Y-197132557D01*
X166802256Y-197132557D02*
X166873685Y-197275414D01*
X166873685Y-197275414D02*
X166873685Y-198061128D01*
X167587970Y-198061128D02*
X167587970Y-197061128D01*
X167587970Y-196561128D02*
X167516542Y-196632557D01*
X167516542Y-196632557D02*
X167587970Y-196703985D01*
X167587970Y-196703985D02*
X167659399Y-196632557D01*
X167659399Y-196632557D02*
X167587970Y-196561128D01*
X167587970Y-196561128D02*
X167587970Y-196703985D01*
D10*
D11*
X227670714Y-192375557D02*
X228385000Y-192375557D01*
X227527857Y-192804128D02*
X228027857Y-191304128D01*
X228027857Y-191304128D02*
X228527857Y-192804128D01*
X229027856Y-192804128D02*
X229027856Y-191304128D01*
X230599285Y-192804128D02*
X230099285Y-192089842D01*
X229742142Y-192804128D02*
X229742142Y-191304128D01*
X229742142Y-191304128D02*
X230313571Y-191304128D01*
X230313571Y-191304128D02*
X230456428Y-191375557D01*
X230456428Y-191375557D02*
X230527857Y-191446985D01*
X230527857Y-191446985D02*
X230599285Y-191589842D01*
X230599285Y-191589842D02*
X230599285Y-191804128D01*
X230599285Y-191804128D02*
X230527857Y-191946985D01*
X230527857Y-191946985D02*
X230456428Y-192018414D01*
X230456428Y-192018414D02*
X230313571Y-192089842D01*
X230313571Y-192089842D02*
X229742142Y-192089842D01*
D10*
D11*
D10*
D11*
X250379160Y-189559295D02*
X250379160Y-188759295D01*
X250379160Y-188759295D02*
X250569636Y-188759295D01*
X250569636Y-188759295D02*
X250683922Y-188797390D01*
X250683922Y-188797390D02*
X250760112Y-188873580D01*
X250760112Y-188873580D02*
X250798207Y-188949771D01*
X250798207Y-188949771D02*
X250836303Y-189102152D01*
X250836303Y-189102152D02*
X250836303Y-189216438D01*
X250836303Y-189216438D02*
X250798207Y-189368819D01*
X250798207Y-189368819D02*
X250760112Y-189445009D01*
X250760112Y-189445009D02*
X250683922Y-189521200D01*
X250683922Y-189521200D02*
X250569636Y-189559295D01*
X250569636Y-189559295D02*
X250379160Y-189559295D01*
X251331541Y-188759295D02*
X251483922Y-188759295D01*
X251483922Y-188759295D02*
X251560112Y-188797390D01*
X251560112Y-188797390D02*
X251636303Y-188873580D01*
X251636303Y-188873580D02*
X251674398Y-189025961D01*
X251674398Y-189025961D02*
X251674398Y-189292628D01*
X251674398Y-189292628D02*
X251636303Y-189445009D01*
X251636303Y-189445009D02*
X251560112Y-189521200D01*
X251560112Y-189521200D02*
X251483922Y-189559295D01*
X251483922Y-189559295D02*
X251331541Y-189559295D01*
X251331541Y-189559295D02*
X251255350Y-189521200D01*
X251255350Y-189521200D02*
X251179160Y-189445009D01*
X251179160Y-189445009D02*
X251141064Y-189292628D01*
X251141064Y-189292628D02*
X251141064Y-189025961D01*
X251141064Y-189025961D02*
X251179160Y-188873580D01*
X251179160Y-188873580D02*
X251255350Y-188797390D01*
X251255350Y-188797390D02*
X251331541Y-188759295D01*
X252474398Y-189483104D02*
X252436302Y-189521200D01*
X252436302Y-189521200D02*
X252322017Y-189559295D01*
X252322017Y-189559295D02*
X252245826Y-189559295D01*
X252245826Y-189559295D02*
X252131540Y-189521200D01*
X252131540Y-189521200D02*
X252055350Y-189445009D01*
X252055350Y-189445009D02*
X252017255Y-189368819D01*
X252017255Y-189368819D02*
X251979159Y-189216438D01*
X251979159Y-189216438D02*
X251979159Y-189102152D01*
X251979159Y-189102152D02*
X252017255Y-188949771D01*
X252017255Y-188949771D02*
X252055350Y-188873580D01*
X252055350Y-188873580D02*
X252131540Y-188797390D01*
X252131540Y-188797390D02*
X252245826Y-188759295D01*
X252245826Y-188759295D02*
X252322017Y-188759295D01*
X252322017Y-188759295D02*
X252436302Y-188797390D01*
X252436302Y-188797390D02*
X252474398Y-188835485D01*
X252817255Y-188759295D02*
X252817255Y-189406914D01*
X252817255Y-189406914D02*
X252855350Y-189483104D01*
X252855350Y-189483104D02*
X252893445Y-189521200D01*
X252893445Y-189521200D02*
X252969636Y-189559295D01*
X252969636Y-189559295D02*
X253122017Y-189559295D01*
X253122017Y-189559295D02*
X253198207Y-189521200D01*
X253198207Y-189521200D02*
X253236302Y-189483104D01*
X253236302Y-189483104D02*
X253274398Y-189406914D01*
X253274398Y-189406914D02*
X253274398Y-188759295D01*
X253655350Y-189559295D02*
X253655350Y-188759295D01*
X253655350Y-188759295D02*
X253922016Y-189330723D01*
X253922016Y-189330723D02*
X254188683Y-188759295D01*
X254188683Y-188759295D02*
X254188683Y-189559295D01*
X254569636Y-189140247D02*
X254836302Y-189140247D01*
X254950588Y-189559295D02*
X254569636Y-189559295D01*
X254569636Y-189559295D02*
X254569636Y-188759295D01*
X254569636Y-188759295D02*
X254950588Y-188759295D01*
X255293446Y-189559295D02*
X255293446Y-188759295D01*
X255293446Y-188759295D02*
X255750589Y-189559295D01*
X255750589Y-189559295D02*
X255750589Y-188759295D01*
X256017255Y-188759295D02*
X256474398Y-188759295D01*
X256245826Y-189559295D02*
X256245826Y-188759295D01*
X257312493Y-189521200D02*
X257426779Y-189559295D01*
X257426779Y-189559295D02*
X257617255Y-189559295D01*
X257617255Y-189559295D02*
X257693446Y-189521200D01*
X257693446Y-189521200D02*
X257731541Y-189483104D01*
X257731541Y-189483104D02*
X257769636Y-189406914D01*
X257769636Y-189406914D02*
X257769636Y-189330723D01*
X257769636Y-189330723D02*
X257731541Y-189254533D01*
X257731541Y-189254533D02*
X257693446Y-189216438D01*
X257693446Y-189216438D02*
X257617255Y-189178342D01*
X257617255Y-189178342D02*
X257464874Y-189140247D01*
X257464874Y-189140247D02*
X257388684Y-189102152D01*
X257388684Y-189102152D02*
X257350589Y-189064057D01*
X257350589Y-189064057D02*
X257312493Y-188987866D01*
X257312493Y-188987866D02*
X257312493Y-188911676D01*
X257312493Y-188911676D02*
X257350589Y-188835485D01*
X257350589Y-188835485D02*
X257388684Y-188797390D01*
X257388684Y-188797390D02*
X257464874Y-188759295D01*
X257464874Y-188759295D02*
X257655351Y-188759295D01*
X257655351Y-188759295D02*
X257769636Y-188797390D01*
X257998208Y-188759295D02*
X258455351Y-188759295D01*
X258226779Y-189559295D02*
X258226779Y-188759295D01*
X258683922Y-189330723D02*
X259064875Y-189330723D01*
X258607732Y-189559295D02*
X258874399Y-188759295D01*
X258874399Y-188759295D02*
X259141065Y-189559295D01*
X259293446Y-188759295D02*
X259750589Y-188759295D01*
X259522017Y-189559295D02*
X259522017Y-188759295D01*
X260017256Y-188759295D02*
X260017256Y-189406914D01*
X260017256Y-189406914D02*
X260055351Y-189483104D01*
X260055351Y-189483104D02*
X260093446Y-189521200D01*
X260093446Y-189521200D02*
X260169637Y-189559295D01*
X260169637Y-189559295D02*
X260322018Y-189559295D01*
X260322018Y-189559295D02*
X260398208Y-189521200D01*
X260398208Y-189521200D02*
X260436303Y-189483104D01*
X260436303Y-189483104D02*
X260474399Y-189406914D01*
X260474399Y-189406914D02*
X260474399Y-188759295D01*
X260817255Y-189521200D02*
X260931541Y-189559295D01*
X260931541Y-189559295D02*
X261122017Y-189559295D01*
X261122017Y-189559295D02*
X261198208Y-189521200D01*
X261198208Y-189521200D02*
X261236303Y-189483104D01*
X261236303Y-189483104D02*
X261274398Y-189406914D01*
X261274398Y-189406914D02*
X261274398Y-189330723D01*
X261274398Y-189330723D02*
X261236303Y-189254533D01*
X261236303Y-189254533D02*
X261198208Y-189216438D01*
X261198208Y-189216438D02*
X261122017Y-189178342D01*
X261122017Y-189178342D02*
X260969636Y-189140247D01*
X260969636Y-189140247D02*
X260893446Y-189102152D01*
X260893446Y-189102152D02*
X260855351Y-189064057D01*
X260855351Y-189064057D02*
X260817255Y-188987866D01*
X260817255Y-188987866D02*
X260817255Y-188911676D01*
X260817255Y-188911676D02*
X260855351Y-188835485D01*
X260855351Y-188835485D02*
X260893446Y-188797390D01*
X260893446Y-188797390D02*
X260969636Y-188759295D01*
X260969636Y-188759295D02*
X261160113Y-188759295D01*
X261160113Y-188759295D02*
X261274398Y-188797390D01*
D10*
D11*
X224979160Y-189559295D02*
X224979160Y-188759295D01*
X224979160Y-188759295D02*
X225169636Y-188759295D01*
X225169636Y-188759295D02*
X225283922Y-188797390D01*
X225283922Y-188797390D02*
X225360112Y-188873580D01*
X225360112Y-188873580D02*
X225398207Y-188949771D01*
X225398207Y-188949771D02*
X225436303Y-189102152D01*
X225436303Y-189102152D02*
X225436303Y-189216438D01*
X225436303Y-189216438D02*
X225398207Y-189368819D01*
X225398207Y-189368819D02*
X225360112Y-189445009D01*
X225360112Y-189445009D02*
X225283922Y-189521200D01*
X225283922Y-189521200D02*
X225169636Y-189559295D01*
X225169636Y-189559295D02*
X224979160Y-189559295D01*
X226236303Y-189559295D02*
X225969636Y-189178342D01*
X225779160Y-189559295D02*
X225779160Y-188759295D01*
X225779160Y-188759295D02*
X226083922Y-188759295D01*
X226083922Y-188759295D02*
X226160112Y-188797390D01*
X226160112Y-188797390D02*
X226198207Y-188835485D01*
X226198207Y-188835485D02*
X226236303Y-188911676D01*
X226236303Y-188911676D02*
X226236303Y-189025961D01*
X226236303Y-189025961D02*
X226198207Y-189102152D01*
X226198207Y-189102152D02*
X226160112Y-189140247D01*
X226160112Y-189140247D02*
X226083922Y-189178342D01*
X226083922Y-189178342D02*
X225779160Y-189178342D01*
X226541064Y-189330723D02*
X226922017Y-189330723D01*
X226464874Y-189559295D02*
X226731541Y-188759295D01*
X226731541Y-188759295D02*
X226998207Y-189559295D01*
X227188683Y-188759295D02*
X227379159Y-189559295D01*
X227379159Y-189559295D02*
X227531540Y-188987866D01*
X227531540Y-188987866D02*
X227683921Y-189559295D01*
X227683921Y-189559295D02*
X227874398Y-188759295D01*
X228179160Y-189559295D02*
X228179160Y-188759295D01*
X228179160Y-188759295D02*
X228636303Y-189559295D01*
X228636303Y-189559295D02*
X228636303Y-188759295D01*
X229893445Y-189140247D02*
X230007731Y-189178342D01*
X230007731Y-189178342D02*
X230045826Y-189216438D01*
X230045826Y-189216438D02*
X230083922Y-189292628D01*
X230083922Y-189292628D02*
X230083922Y-189406914D01*
X230083922Y-189406914D02*
X230045826Y-189483104D01*
X230045826Y-189483104D02*
X230007731Y-189521200D01*
X230007731Y-189521200D02*
X229931541Y-189559295D01*
X229931541Y-189559295D02*
X229626779Y-189559295D01*
X229626779Y-189559295D02*
X229626779Y-188759295D01*
X229626779Y-188759295D02*
X229893445Y-188759295D01*
X229893445Y-188759295D02*
X229969636Y-188797390D01*
X229969636Y-188797390D02*
X230007731Y-188835485D01*
X230007731Y-188835485D02*
X230045826Y-188911676D01*
X230045826Y-188911676D02*
X230045826Y-188987866D01*
X230045826Y-188987866D02*
X230007731Y-189064057D01*
X230007731Y-189064057D02*
X229969636Y-189102152D01*
X229969636Y-189102152D02*
X229893445Y-189140247D01*
X229893445Y-189140247D02*
X229626779Y-189140247D01*
X230579160Y-189178342D02*
X230579160Y-189559295D01*
X230312493Y-188759295D02*
X230579160Y-189178342D01*
X230579160Y-189178342D02*
X230845826Y-188759295D01*
D10*
D11*
X235139160Y-189559295D02*
X235139160Y-188759295D01*
X235139160Y-188759295D02*
X235329636Y-188759295D01*
X235329636Y-188759295D02*
X235443922Y-188797390D01*
X235443922Y-188797390D02*
X235520112Y-188873580D01*
X235520112Y-188873580D02*
X235558207Y-188949771D01*
X235558207Y-188949771D02*
X235596303Y-189102152D01*
X235596303Y-189102152D02*
X235596303Y-189216438D01*
X235596303Y-189216438D02*
X235558207Y-189368819D01*
X235558207Y-189368819D02*
X235520112Y-189445009D01*
X235520112Y-189445009D02*
X235443922Y-189521200D01*
X235443922Y-189521200D02*
X235329636Y-189559295D01*
X235329636Y-189559295D02*
X235139160Y-189559295D01*
X236091541Y-188759295D02*
X236243922Y-188759295D01*
X236243922Y-188759295D02*
X236320112Y-188797390D01*
X236320112Y-188797390D02*
X236396303Y-188873580D01*
X236396303Y-188873580D02*
X236434398Y-189025961D01*
X236434398Y-189025961D02*
X236434398Y-189292628D01*
X236434398Y-189292628D02*
X236396303Y-189445009D01*
X236396303Y-189445009D02*
X236320112Y-189521200D01*
X236320112Y-189521200D02*
X236243922Y-189559295D01*
X236243922Y-189559295D02*
X236091541Y-189559295D01*
X236091541Y-189559295D02*
X236015350Y-189521200D01*
X236015350Y-189521200D02*
X235939160Y-189445009D01*
X235939160Y-189445009D02*
X235901064Y-189292628D01*
X235901064Y-189292628D02*
X235901064Y-189025961D01*
X235901064Y-189025961D02*
X235939160Y-188873580D01*
X235939160Y-188873580D02*
X236015350Y-188797390D01*
X236015350Y-188797390D02*
X236091541Y-188759295D01*
X237234398Y-189483104D02*
X237196302Y-189521200D01*
X237196302Y-189521200D02*
X237082017Y-189559295D01*
X237082017Y-189559295D02*
X237005826Y-189559295D01*
X237005826Y-189559295D02*
X236891540Y-189521200D01*
X236891540Y-189521200D02*
X236815350Y-189445009D01*
X236815350Y-189445009D02*
X236777255Y-189368819D01*
X236777255Y-189368819D02*
X236739159Y-189216438D01*
X236739159Y-189216438D02*
X236739159Y-189102152D01*
X236739159Y-189102152D02*
X236777255Y-188949771D01*
X236777255Y-188949771D02*
X236815350Y-188873580D01*
X236815350Y-188873580D02*
X236891540Y-188797390D01*
X236891540Y-188797390D02*
X237005826Y-188759295D01*
X237005826Y-188759295D02*
X237082017Y-188759295D01*
X237082017Y-188759295D02*
X237196302Y-188797390D01*
X237196302Y-188797390D02*
X237234398Y-188835485D01*
X237577255Y-188759295D02*
X237577255Y-189406914D01*
X237577255Y-189406914D02*
X237615350Y-189483104D01*
X237615350Y-189483104D02*
X237653445Y-189521200D01*
X237653445Y-189521200D02*
X237729636Y-189559295D01*
X237729636Y-189559295D02*
X237882017Y-189559295D01*
X237882017Y-189559295D02*
X237958207Y-189521200D01*
X237958207Y-189521200D02*
X237996302Y-189483104D01*
X237996302Y-189483104D02*
X238034398Y-189406914D01*
X238034398Y-189406914D02*
X238034398Y-188759295D01*
X238415350Y-189559295D02*
X238415350Y-188759295D01*
X238415350Y-188759295D02*
X238682016Y-189330723D01*
X238682016Y-189330723D02*
X238948683Y-188759295D01*
X238948683Y-188759295D02*
X238948683Y-189559295D01*
X239329636Y-189140247D02*
X239596302Y-189140247D01*
X239710588Y-189559295D02*
X239329636Y-189559295D01*
X239329636Y-189559295D02*
X239329636Y-188759295D01*
X239329636Y-188759295D02*
X239710588Y-188759295D01*
X240053446Y-189559295D02*
X240053446Y-188759295D01*
X240053446Y-188759295D02*
X240510589Y-189559295D01*
X240510589Y-189559295D02*
X240510589Y-188759295D01*
X240777255Y-188759295D02*
X241234398Y-188759295D01*
X241005826Y-189559295D02*
X241005826Y-188759295D01*
X241996303Y-188759295D02*
X242453446Y-188759295D01*
X242224874Y-189559295D02*
X242224874Y-188759295D01*
X242872494Y-189178342D02*
X242872494Y-189559295D01*
X242605827Y-188759295D02*
X242872494Y-189178342D01*
X242872494Y-189178342D02*
X243139160Y-188759295D01*
X243405827Y-189559295D02*
X243405827Y-188759295D01*
X243405827Y-188759295D02*
X243710589Y-188759295D01*
X243710589Y-188759295D02*
X243786779Y-188797390D01*
X243786779Y-188797390D02*
X243824874Y-188835485D01*
X243824874Y-188835485D02*
X243862970Y-188911676D01*
X243862970Y-188911676D02*
X243862970Y-189025961D01*
X243862970Y-189025961D02*
X243824874Y-189102152D01*
X243824874Y-189102152D02*
X243786779Y-189140247D01*
X243786779Y-189140247D02*
X243710589Y-189178342D01*
X243710589Y-189178342D02*
X243405827Y-189178342D01*
X244205827Y-189140247D02*
X244472493Y-189140247D01*
X244586779Y-189559295D02*
X244205827Y-189559295D01*
X244205827Y-189559295D02*
X244205827Y-188759295D01*
X244205827Y-188759295D02*
X244586779Y-188759295D01*
D10*
D11*
X253821000Y-192804128D02*
X253821000Y-191304128D01*
X253821000Y-191304128D02*
X254178143Y-191304128D01*
X254178143Y-191304128D02*
X254392429Y-191375557D01*
X254392429Y-191375557D02*
X254535286Y-191518414D01*
X254535286Y-191518414D02*
X254606715Y-191661271D01*
X254606715Y-191661271D02*
X254678143Y-191946985D01*
X254678143Y-191946985D02*
X254678143Y-192161271D01*
X254678143Y-192161271D02*
X254606715Y-192446985D01*
X254606715Y-192446985D02*
X254535286Y-192589842D01*
X254535286Y-192589842D02*
X254392429Y-192732700D01*
X254392429Y-192732700D02*
X254178143Y-192804128D01*
X254178143Y-192804128D02*
X253821000Y-192804128D01*
X256178143Y-192804128D02*
X255678143Y-192089842D01*
X255321000Y-192804128D02*
X255321000Y-191304128D01*
X255321000Y-191304128D02*
X255892429Y-191304128D01*
X255892429Y-191304128D02*
X256035286Y-191375557D01*
X256035286Y-191375557D02*
X256106715Y-191446985D01*
X256106715Y-191446985D02*
X256178143Y-191589842D01*
X256178143Y-191589842D02*
X256178143Y-191804128D01*
X256178143Y-191804128D02*
X256106715Y-191946985D01*
X256106715Y-191946985D02*
X256035286Y-192018414D01*
X256035286Y-192018414D02*
X255892429Y-192089842D01*
X255892429Y-192089842D02*
X255321000Y-192089842D01*
X256749572Y-192375557D02*
X257463858Y-192375557D01*
X256606715Y-192804128D02*
X257106715Y-191304128D01*
X257106715Y-191304128D02*
X257606715Y-192804128D01*
X258606714Y-192018414D02*
X258106714Y-192018414D01*
X258106714Y-192804128D02*
X258106714Y-191304128D01*
X258106714Y-191304128D02*
X258821000Y-191304128D01*
X259178143Y-191304128D02*
X260035286Y-191304128D01*
X259606714Y-192804128D02*
X259606714Y-191304128D01*
D10*
D11*
X241915287Y-197796985D02*
X241986715Y-197725557D01*
X241986715Y-197725557D02*
X242129573Y-197654128D01*
X242129573Y-197654128D02*
X242486715Y-197654128D01*
X242486715Y-197654128D02*
X242629573Y-197725557D01*
X242629573Y-197725557D02*
X242701001Y-197796985D01*
X242701001Y-197796985D02*
X242772430Y-197939842D01*
X242772430Y-197939842D02*
X242772430Y-198082700D01*
X242772430Y-198082700D02*
X242701001Y-198296985D01*
X242701001Y-198296985D02*
X241843858Y-199154128D01*
X241843858Y-199154128D02*
X242772430Y-199154128D01*
X243701001Y-197654128D02*
X243843858Y-197654128D01*
X243843858Y-197654128D02*
X243986715Y-197725557D01*
X243986715Y-197725557D02*
X244058144Y-197796985D01*
X244058144Y-197796985D02*
X244129572Y-197939842D01*
X244129572Y-197939842D02*
X244201001Y-198225557D01*
X244201001Y-198225557D02*
X244201001Y-198582700D01*
X244201001Y-198582700D02*
X244129572Y-198868414D01*
X244129572Y-198868414D02*
X244058144Y-199011271D01*
X244058144Y-199011271D02*
X243986715Y-199082700D01*
X243986715Y-199082700D02*
X243843858Y-199154128D01*
X243843858Y-199154128D02*
X243701001Y-199154128D01*
X243701001Y-199154128D02*
X243558144Y-199082700D01*
X243558144Y-199082700D02*
X243486715Y-199011271D01*
X243486715Y-199011271D02*
X243415286Y-198868414D01*
X243415286Y-198868414D02*
X243343858Y-198582700D01*
X243343858Y-198582700D02*
X243343858Y-198225557D01*
X243343858Y-198225557D02*
X243415286Y-197939842D01*
X243415286Y-197939842D02*
X243486715Y-197796985D01*
X243486715Y-197796985D02*
X243558144Y-197725557D01*
X243558144Y-197725557D02*
X243701001Y-197654128D01*
X244772429Y-197796985D02*
X244843857Y-197725557D01*
X244843857Y-197725557D02*
X244986715Y-197654128D01*
X244986715Y-197654128D02*
X245343857Y-197654128D01*
X245343857Y-197654128D02*
X245486715Y-197725557D01*
X245486715Y-197725557D02*
X245558143Y-197796985D01*
X245558143Y-197796985D02*
X245629572Y-197939842D01*
X245629572Y-197939842D02*
X245629572Y-198082700D01*
X245629572Y-198082700D02*
X245558143Y-198296985D01*
X245558143Y-198296985D02*
X244701000Y-199154128D01*
X244701000Y-199154128D02*
X245629572Y-199154128D01*
X246129571Y-197654128D02*
X247058143Y-197654128D01*
X247058143Y-197654128D02*
X246558143Y-198225557D01*
X246558143Y-198225557D02*
X246772428Y-198225557D01*
X246772428Y-198225557D02*
X246915286Y-198296985D01*
X246915286Y-198296985D02*
X246986714Y-198368414D01*
X246986714Y-198368414D02*
X247058143Y-198511271D01*
X247058143Y-198511271D02*
X247058143Y-198868414D01*
X247058143Y-198868414D02*
X246986714Y-199011271D01*
X246986714Y-199011271D02*
X246915286Y-199082700D01*
X246915286Y-199082700D02*
X246772428Y-199154128D01*
X246772428Y-199154128D02*
X246343857Y-199154128D01*
X246343857Y-199154128D02*
X246201000Y-199082700D01*
X246201000Y-199082700D02*
X246129571Y-199011271D01*
X247700999Y-198582700D02*
X248843857Y-198582700D01*
X249843857Y-197654128D02*
X249986714Y-197654128D01*
X249986714Y-197654128D02*
X250129571Y-197725557D01*
X250129571Y-197725557D02*
X250201000Y-197796985D01*
X250201000Y-197796985D02*
X250272428Y-197939842D01*
X250272428Y-197939842D02*
X250343857Y-198225557D01*
X250343857Y-198225557D02*
X250343857Y-198582700D01*
X250343857Y-198582700D02*
X250272428Y-198868414D01*
X250272428Y-198868414D02*
X250201000Y-199011271D01*
X250201000Y-199011271D02*
X250129571Y-199082700D01*
X250129571Y-199082700D02*
X249986714Y-199154128D01*
X249986714Y-199154128D02*
X249843857Y-199154128D01*
X249843857Y-199154128D02*
X249701000Y-199082700D01*
X249701000Y-199082700D02*
X249629571Y-199011271D01*
X249629571Y-199011271D02*
X249558142Y-198868414D01*
X249558142Y-198868414D02*
X249486714Y-198582700D01*
X249486714Y-198582700D02*
X249486714Y-198225557D01*
X249486714Y-198225557D02*
X249558142Y-197939842D01*
X249558142Y-197939842D02*
X249629571Y-197796985D01*
X249629571Y-197796985D02*
X249701000Y-197725557D01*
X249701000Y-197725557D02*
X249843857Y-197654128D01*
X251700999Y-197654128D02*
X250986713Y-197654128D01*
X250986713Y-197654128D02*
X250915285Y-198368414D01*
X250915285Y-198368414D02*
X250986713Y-198296985D01*
X250986713Y-198296985D02*
X251129571Y-198225557D01*
X251129571Y-198225557D02*
X251486713Y-198225557D01*
X251486713Y-198225557D02*
X251629571Y-198296985D01*
X251629571Y-198296985D02*
X251700999Y-198368414D01*
X251700999Y-198368414D02*
X251772428Y-198511271D01*
X251772428Y-198511271D02*
X251772428Y-198868414D01*
X251772428Y-198868414D02*
X251700999Y-199011271D01*
X251700999Y-199011271D02*
X251629571Y-199082700D01*
X251629571Y-199082700D02*
X251486713Y-199154128D01*
X251486713Y-199154128D02*
X251129571Y-199154128D01*
X251129571Y-199154128D02*
X250986713Y-199082700D01*
X250986713Y-199082700D02*
X250915285Y-199011271D01*
X252415284Y-198582700D02*
X253558142Y-198582700D01*
X254200999Y-197796985D02*
X254272427Y-197725557D01*
X254272427Y-197725557D02*
X254415285Y-197654128D01*
X254415285Y-197654128D02*
X254772427Y-197654128D01*
X254772427Y-197654128D02*
X254915285Y-197725557D01*
X254915285Y-197725557D02*
X254986713Y-197796985D01*
X254986713Y-197796985D02*
X255058142Y-197939842D01*
X255058142Y-197939842D02*
X255058142Y-198082700D01*
X255058142Y-198082700D02*
X254986713Y-198296985D01*
X254986713Y-198296985D02*
X254129570Y-199154128D01*
X254129570Y-199154128D02*
X255058142Y-199154128D01*
X256486713Y-199154128D02*
X255629570Y-199154128D01*
X256058141Y-199154128D02*
X256058141Y-197654128D01*
X256058141Y-197654128D02*
X255915284Y-197868414D01*
X255915284Y-197868414D02*
X255772427Y-198011271D01*
X255772427Y-198011271D02*
X255629570Y-198082700D01*
D10*
D11*
X237032857Y-198725557D02*
X237747143Y-198725557D01*
X236890000Y-199154128D02*
X237390000Y-197654128D01*
X237390000Y-197654128D02*
X237890000Y-199154128D01*
D10*
D12*
X144115225Y-192288328D02*
X143258082Y-192288328D01*
X143686653Y-192288328D02*
X143686653Y-190788328D01*
X143686653Y-190788328D02*
X143543796Y-191002614D01*
X143543796Y-191002614D02*
X143400939Y-191145471D01*
X143400939Y-191145471D02*
X143258082Y-191216900D01*
X145472367Y-190788328D02*
X144758081Y-190788328D01*
X144758081Y-190788328D02*
X144686653Y-191502614D01*
X144686653Y-191502614D02*
X144758081Y-191431185D01*
X144758081Y-191431185D02*
X144900939Y-191359757D01*
X144900939Y-191359757D02*
X145258081Y-191359757D01*
X145258081Y-191359757D02*
X145400939Y-191431185D01*
X145400939Y-191431185D02*
X145472367Y-191502614D01*
X145472367Y-191502614D02*
X145543796Y-191645471D01*
X145543796Y-191645471D02*
X145543796Y-192002614D01*
X145543796Y-192002614D02*
X145472367Y-192145471D01*
X145472367Y-192145471D02*
X145400939Y-192216900D01*
X145400939Y-192216900D02*
X145258081Y-192288328D01*
X145258081Y-192288328D02*
X144900939Y-192288328D01*
X144900939Y-192288328D02*
X144758081Y-192216900D01*
X144758081Y-192216900D02*
X144686653Y-192145471D01*
X146258081Y-192288328D02*
X146543795Y-192288328D01*
X146543795Y-192288328D02*
X146686652Y-192216900D01*
X146686652Y-192216900D02*
X146758081Y-192145471D01*
X146758081Y-192145471D02*
X146900938Y-191931185D01*
X146900938Y-191931185D02*
X146972367Y-191645471D01*
X146972367Y-191645471D02*
X146972367Y-191074042D01*
X146972367Y-191074042D02*
X146900938Y-190931185D01*
X146900938Y-190931185D02*
X146829510Y-190859757D01*
X146829510Y-190859757D02*
X146686652Y-190788328D01*
X146686652Y-190788328D02*
X146400938Y-190788328D01*
X146400938Y-190788328D02*
X146258081Y-190859757D01*
X146258081Y-190859757D02*
X146186652Y-190931185D01*
X146186652Y-190931185D02*
X146115224Y-191074042D01*
X146115224Y-191074042D02*
X146115224Y-191431185D01*
X146115224Y-191431185D02*
X146186652Y-191574042D01*
X146186652Y-191574042D02*
X146258081Y-191645471D01*
X146258081Y-191645471D02*
X146400938Y-191716900D01*
X146400938Y-191716900D02*
X146686652Y-191716900D01*
X146686652Y-191716900D02*
X146829510Y-191645471D01*
X146829510Y-191645471D02*
X146900938Y-191574042D01*
X146900938Y-191574042D02*
X146972367Y-191431185D01*
X147900938Y-190788328D02*
X148043795Y-190788328D01*
X148043795Y-190788328D02*
X148186652Y-190859757D01*
X148186652Y-190859757D02*
X148258081Y-190931185D01*
X148258081Y-190931185D02*
X148329509Y-191074042D01*
X148329509Y-191074042D02*
X148400938Y-191359757D01*
X148400938Y-191359757D02*
X148400938Y-191716900D01*
X148400938Y-191716900D02*
X148329509Y-192002614D01*
X148329509Y-192002614D02*
X148258081Y-192145471D01*
X148258081Y-192145471D02*
X148186652Y-192216900D01*
X148186652Y-192216900D02*
X148043795Y-192288328D01*
X148043795Y-192288328D02*
X147900938Y-192288328D01*
X147900938Y-192288328D02*
X147758081Y-192216900D01*
X147758081Y-192216900D02*
X147686652Y-192145471D01*
X147686652Y-192145471D02*
X147615223Y-192002614D01*
X147615223Y-192002614D02*
X147543795Y-191716900D01*
X147543795Y-191716900D02*
X147543795Y-191359757D01*
X147543795Y-191359757D02*
X147615223Y-191074042D01*
X147615223Y-191074042D02*
X147686652Y-190931185D01*
X147686652Y-190931185D02*
X147758081Y-190859757D01*
X147758081Y-190859757D02*
X147900938Y-190788328D01*
X149043794Y-192288328D02*
X149043794Y-190788328D01*
X149043794Y-190788328D02*
X149900937Y-192288328D01*
X149900937Y-192288328D02*
X149900937Y-190788328D01*
X151400938Y-192288328D02*
X150543795Y-192288328D01*
X150972366Y-192288328D02*
X150972366Y-190788328D01*
X150972366Y-190788328D02*
X150829509Y-191002614D01*
X150829509Y-191002614D02*
X150686652Y-191145471D01*
X150686652Y-191145471D02*
X150543795Y-191216900D01*
X153686651Y-191502614D02*
X153900937Y-191574042D01*
X153900937Y-191574042D02*
X153972366Y-191645471D01*
X153972366Y-191645471D02*
X154043794Y-191788328D01*
X154043794Y-191788328D02*
X154043794Y-192002614D01*
X154043794Y-192002614D02*
X153972366Y-192145471D01*
X153972366Y-192145471D02*
X153900937Y-192216900D01*
X153900937Y-192216900D02*
X153758080Y-192288328D01*
X153758080Y-192288328D02*
X153186651Y-192288328D01*
X153186651Y-192288328D02*
X153186651Y-190788328D01*
X153186651Y-190788328D02*
X153686651Y-190788328D01*
X153686651Y-190788328D02*
X153829509Y-190859757D01*
X153829509Y-190859757D02*
X153900937Y-190931185D01*
X153900937Y-190931185D02*
X153972366Y-191074042D01*
X153972366Y-191074042D02*
X153972366Y-191216900D01*
X153972366Y-191216900D02*
X153900937Y-191359757D01*
X153900937Y-191359757D02*
X153829509Y-191431185D01*
X153829509Y-191431185D02*
X153686651Y-191502614D01*
X153686651Y-191502614D02*
X153186651Y-191502614D01*
X154615223Y-191859757D02*
X155329509Y-191859757D01*
X154472366Y-192288328D02*
X154972366Y-190788328D01*
X154972366Y-190788328D02*
X155472366Y-192288328D01*
X155900937Y-192216900D02*
X156115223Y-192288328D01*
X156115223Y-192288328D02*
X156472365Y-192288328D01*
X156472365Y-192288328D02*
X156615223Y-192216900D01*
X156615223Y-192216900D02*
X156686651Y-192145471D01*
X156686651Y-192145471D02*
X156758080Y-192002614D01*
X156758080Y-192002614D02*
X156758080Y-191859757D01*
X156758080Y-191859757D02*
X156686651Y-191716900D01*
X156686651Y-191716900D02*
X156615223Y-191645471D01*
X156615223Y-191645471D02*
X156472365Y-191574042D01*
X156472365Y-191574042D02*
X156186651Y-191502614D01*
X156186651Y-191502614D02*
X156043794Y-191431185D01*
X156043794Y-191431185D02*
X155972365Y-191359757D01*
X155972365Y-191359757D02*
X155900937Y-191216900D01*
X155900937Y-191216900D02*
X155900937Y-191074042D01*
X155900937Y-191074042D02*
X155972365Y-190931185D01*
X155972365Y-190931185D02*
X156043794Y-190859757D01*
X156043794Y-190859757D02*
X156186651Y-190788328D01*
X156186651Y-190788328D02*
X156543794Y-190788328D01*
X156543794Y-190788328D02*
X156758080Y-190859757D01*
X157400936Y-191502614D02*
X157900936Y-191502614D01*
X158115222Y-192288328D02*
X157400936Y-192288328D01*
X157400936Y-192288328D02*
X157400936Y-190788328D01*
X157400936Y-190788328D02*
X158115222Y-190788328D01*
X159258079Y-191502614D02*
X159472365Y-191574042D01*
X159472365Y-191574042D02*
X159543794Y-191645471D01*
X159543794Y-191645471D02*
X159615222Y-191788328D01*
X159615222Y-191788328D02*
X159615222Y-192002614D01*
X159615222Y-192002614D02*
X159543794Y-192145471D01*
X159543794Y-192145471D02*
X159472365Y-192216900D01*
X159472365Y-192216900D02*
X159329508Y-192288328D01*
X159329508Y-192288328D02*
X158758079Y-192288328D01*
X158758079Y-192288328D02*
X158758079Y-190788328D01*
X158758079Y-190788328D02*
X159258079Y-190788328D01*
X159258079Y-190788328D02*
X159400937Y-190859757D01*
X159400937Y-190859757D02*
X159472365Y-190931185D01*
X159472365Y-190931185D02*
X159543794Y-191074042D01*
X159543794Y-191074042D02*
X159543794Y-191216900D01*
X159543794Y-191216900D02*
X159472365Y-191359757D01*
X159472365Y-191359757D02*
X159400937Y-191431185D01*
X159400937Y-191431185D02*
X159258079Y-191502614D01*
X159258079Y-191502614D02*
X158758079Y-191502614D01*
X160543794Y-190788328D02*
X160829508Y-190788328D01*
X160829508Y-190788328D02*
X160972365Y-190859757D01*
X160972365Y-190859757D02*
X161115222Y-191002614D01*
X161115222Y-191002614D02*
X161186651Y-191288328D01*
X161186651Y-191288328D02*
X161186651Y-191788328D01*
X161186651Y-191788328D02*
X161115222Y-192074042D01*
X161115222Y-192074042D02*
X160972365Y-192216900D01*
X160972365Y-192216900D02*
X160829508Y-192288328D01*
X160829508Y-192288328D02*
X160543794Y-192288328D01*
X160543794Y-192288328D02*
X160400937Y-192216900D01*
X160400937Y-192216900D02*
X160258079Y-192074042D01*
X160258079Y-192074042D02*
X160186651Y-191788328D01*
X160186651Y-191788328D02*
X160186651Y-191288328D01*
X160186651Y-191288328D02*
X160258079Y-191002614D01*
X160258079Y-191002614D02*
X160400937Y-190859757D01*
X160400937Y-190859757D02*
X160543794Y-190788328D01*
X161758080Y-191859757D02*
X162472366Y-191859757D01*
X161615223Y-192288328D02*
X162115223Y-190788328D01*
X162115223Y-190788328D02*
X162615223Y-192288328D01*
X163972365Y-192288328D02*
X163472365Y-191574042D01*
X163115222Y-192288328D02*
X163115222Y-190788328D01*
X163115222Y-190788328D02*
X163686651Y-190788328D01*
X163686651Y-190788328D02*
X163829508Y-190859757D01*
X163829508Y-190859757D02*
X163900937Y-190931185D01*
X163900937Y-190931185D02*
X163972365Y-191074042D01*
X163972365Y-191074042D02*
X163972365Y-191288328D01*
X163972365Y-191288328D02*
X163900937Y-191431185D01*
X163900937Y-191431185D02*
X163829508Y-191502614D01*
X163829508Y-191502614D02*
X163686651Y-191574042D01*
X163686651Y-191574042D02*
X163115222Y-191574042D01*
X164615222Y-192288328D02*
X164615222Y-190788328D01*
X164615222Y-190788328D02*
X164972365Y-190788328D01*
X164972365Y-190788328D02*
X165186651Y-190859757D01*
X165186651Y-190859757D02*
X165329508Y-191002614D01*
X165329508Y-191002614D02*
X165400937Y-191145471D01*
X165400937Y-191145471D02*
X165472365Y-191431185D01*
X165472365Y-191431185D02*
X165472365Y-191645471D01*
X165472365Y-191645471D02*
X165400937Y-191931185D01*
X165400937Y-191931185D02*
X165329508Y-192074042D01*
X165329508Y-192074042D02*
X165186651Y-192216900D01*
X165186651Y-192216900D02*
X164972365Y-192288328D01*
X164972365Y-192288328D02*
X164615222Y-192288328D01*
X167258079Y-191716900D02*
X168400937Y-191716900D01*
X170258079Y-192288328D02*
X170258079Y-190788328D01*
X170258079Y-190788328D02*
X170829508Y-190788328D01*
X170829508Y-190788328D02*
X170972365Y-190859757D01*
X170972365Y-190859757D02*
X171043794Y-190931185D01*
X171043794Y-190931185D02*
X171115222Y-191074042D01*
X171115222Y-191074042D02*
X171115222Y-191288328D01*
X171115222Y-191288328D02*
X171043794Y-191431185D01*
X171043794Y-191431185D02*
X170972365Y-191502614D01*
X170972365Y-191502614D02*
X170829508Y-191574042D01*
X170829508Y-191574042D02*
X170258079Y-191574042D01*
X172615222Y-192145471D02*
X172543794Y-192216900D01*
X172543794Y-192216900D02*
X172329508Y-192288328D01*
X172329508Y-192288328D02*
X172186651Y-192288328D01*
X172186651Y-192288328D02*
X171972365Y-192216900D01*
X171972365Y-192216900D02*
X171829508Y-192074042D01*
X171829508Y-192074042D02*
X171758079Y-191931185D01*
X171758079Y-191931185D02*
X171686651Y-191645471D01*
X171686651Y-191645471D02*
X171686651Y-191431185D01*
X171686651Y-191431185D02*
X171758079Y-191145471D01*
X171758079Y-191145471D02*
X171829508Y-191002614D01*
X171829508Y-191002614D02*
X171972365Y-190859757D01*
X171972365Y-190859757D02*
X172186651Y-190788328D01*
X172186651Y-190788328D02*
X172329508Y-190788328D01*
X172329508Y-190788328D02*
X172543794Y-190859757D01*
X172543794Y-190859757D02*
X172615222Y-190931185D01*
X173758079Y-191502614D02*
X173972365Y-191574042D01*
X173972365Y-191574042D02*
X174043794Y-191645471D01*
X174043794Y-191645471D02*
X174115222Y-191788328D01*
X174115222Y-191788328D02*
X174115222Y-192002614D01*
X174115222Y-192002614D02*
X174043794Y-192145471D01*
X174043794Y-192145471D02*
X173972365Y-192216900D01*
X173972365Y-192216900D02*
X173829508Y-192288328D01*
X173829508Y-192288328D02*
X173258079Y-192288328D01*
X173258079Y-192288328D02*
X173258079Y-190788328D01*
X173258079Y-190788328D02*
X173758079Y-190788328D01*
X173758079Y-190788328D02*
X173900937Y-190859757D01*
X173900937Y-190859757D02*
X173972365Y-190931185D01*
X173972365Y-190931185D02*
X174043794Y-191074042D01*
X174043794Y-191074042D02*
X174043794Y-191216900D01*
X174043794Y-191216900D02*
X173972365Y-191359757D01*
X173972365Y-191359757D02*
X173900937Y-191431185D01*
X173900937Y-191431185D02*
X173758079Y-191502614D01*
X173758079Y-191502614D02*
X173258079Y-191502614D01*
X174686651Y-191859757D02*
X175400937Y-191859757D01*
X174543794Y-192288328D02*
X175043794Y-190788328D01*
X175043794Y-190788328D02*
X175543794Y-192288328D01*
D10*
D11*
X140524160Y-174954295D02*
X140524160Y-174154295D01*
X140524160Y-174154295D02*
X140981303Y-174954295D01*
X140981303Y-174954295D02*
X140981303Y-174154295D01*
X141514636Y-174154295D02*
X141667017Y-174154295D01*
X141667017Y-174154295D02*
X141743207Y-174192390D01*
X141743207Y-174192390D02*
X141819398Y-174268580D01*
X141819398Y-174268580D02*
X141857493Y-174420961D01*
X141857493Y-174420961D02*
X141857493Y-174687628D01*
X141857493Y-174687628D02*
X141819398Y-174840009D01*
X141819398Y-174840009D02*
X141743207Y-174916200D01*
X141743207Y-174916200D02*
X141667017Y-174954295D01*
X141667017Y-174954295D02*
X141514636Y-174954295D01*
X141514636Y-174954295D02*
X141438445Y-174916200D01*
X141438445Y-174916200D02*
X141362255Y-174840009D01*
X141362255Y-174840009D02*
X141324159Y-174687628D01*
X141324159Y-174687628D02*
X141324159Y-174420961D01*
X141324159Y-174420961D02*
X141362255Y-174268580D01*
X141362255Y-174268580D02*
X141438445Y-174192390D01*
X141438445Y-174192390D02*
X141514636Y-174154295D01*
X142086064Y-174154295D02*
X142543207Y-174154295D01*
X142314635Y-174954295D02*
X142314635Y-174154295D01*
X142809874Y-174535247D02*
X143076540Y-174535247D01*
X143190826Y-174954295D02*
X142809874Y-174954295D01*
X142809874Y-174954295D02*
X142809874Y-174154295D01*
X142809874Y-174154295D02*
X143190826Y-174154295D01*
X143495588Y-174916200D02*
X143609874Y-174954295D01*
X143609874Y-174954295D02*
X143800350Y-174954295D01*
X143800350Y-174954295D02*
X143876541Y-174916200D01*
X143876541Y-174916200D02*
X143914636Y-174878104D01*
X143914636Y-174878104D02*
X143952731Y-174801914D01*
X143952731Y-174801914D02*
X143952731Y-174725723D01*
X143952731Y-174725723D02*
X143914636Y-174649533D01*
X143914636Y-174649533D02*
X143876541Y-174611438D01*
X143876541Y-174611438D02*
X143800350Y-174573342D01*
X143800350Y-174573342D02*
X143647969Y-174535247D01*
X143647969Y-174535247D02*
X143571779Y-174497152D01*
X143571779Y-174497152D02*
X143533684Y-174459057D01*
X143533684Y-174459057D02*
X143495588Y-174382866D01*
X143495588Y-174382866D02*
X143495588Y-174306676D01*
X143495588Y-174306676D02*
X143533684Y-174230485D01*
X143533684Y-174230485D02*
X143571779Y-174192390D01*
X143571779Y-174192390D02*
X143647969Y-174154295D01*
X143647969Y-174154295D02*
X143838446Y-174154295D01*
X143838446Y-174154295D02*
X143952731Y-174192390D01*
X144295589Y-174878104D02*
X144333684Y-174916200D01*
X144333684Y-174916200D02*
X144295589Y-174954295D01*
X144295589Y-174954295D02*
X144257493Y-174916200D01*
X144257493Y-174916200D02*
X144295589Y-174878104D01*
X144295589Y-174878104D02*
X144295589Y-174954295D01*
X144295589Y-174459057D02*
X144333684Y-174497152D01*
X144333684Y-174497152D02*
X144295589Y-174535247D01*
X144295589Y-174535247D02*
X144257493Y-174497152D01*
X144257493Y-174497152D02*
X144295589Y-174459057D01*
X144295589Y-174459057D02*
X144295589Y-174535247D01*
X145286065Y-174154295D02*
X145286065Y-174801914D01*
X145286065Y-174801914D02*
X145324160Y-174878104D01*
X145324160Y-174878104D02*
X145362255Y-174916200D01*
X145362255Y-174916200D02*
X145438446Y-174954295D01*
X145438446Y-174954295D02*
X145590827Y-174954295D01*
X145590827Y-174954295D02*
X145667017Y-174916200D01*
X145667017Y-174916200D02*
X145705112Y-174878104D01*
X145705112Y-174878104D02*
X145743208Y-174801914D01*
X145743208Y-174801914D02*
X145743208Y-174154295D01*
X146124160Y-174954295D02*
X146124160Y-174154295D01*
X146124160Y-174154295D02*
X146581303Y-174954295D01*
X146581303Y-174954295D02*
X146581303Y-174154295D01*
X147343207Y-174954295D02*
X146962255Y-174954295D01*
X146962255Y-174954295D02*
X146962255Y-174154295D01*
X147609874Y-174535247D02*
X147876540Y-174535247D01*
X147990826Y-174954295D02*
X147609874Y-174954295D01*
X147609874Y-174954295D02*
X147609874Y-174154295D01*
X147609874Y-174154295D02*
X147990826Y-174154295D01*
X148295588Y-174916200D02*
X148409874Y-174954295D01*
X148409874Y-174954295D02*
X148600350Y-174954295D01*
X148600350Y-174954295D02*
X148676541Y-174916200D01*
X148676541Y-174916200D02*
X148714636Y-174878104D01*
X148714636Y-174878104D02*
X148752731Y-174801914D01*
X148752731Y-174801914D02*
X148752731Y-174725723D01*
X148752731Y-174725723D02*
X148714636Y-174649533D01*
X148714636Y-174649533D02*
X148676541Y-174611438D01*
X148676541Y-174611438D02*
X148600350Y-174573342D01*
X148600350Y-174573342D02*
X148447969Y-174535247D01*
X148447969Y-174535247D02*
X148371779Y-174497152D01*
X148371779Y-174497152D02*
X148333684Y-174459057D01*
X148333684Y-174459057D02*
X148295588Y-174382866D01*
X148295588Y-174382866D02*
X148295588Y-174306676D01*
X148295588Y-174306676D02*
X148333684Y-174230485D01*
X148333684Y-174230485D02*
X148371779Y-174192390D01*
X148371779Y-174192390D02*
X148447969Y-174154295D01*
X148447969Y-174154295D02*
X148638446Y-174154295D01*
X148638446Y-174154295D02*
X148752731Y-174192390D01*
X149057493Y-174916200D02*
X149171779Y-174954295D01*
X149171779Y-174954295D02*
X149362255Y-174954295D01*
X149362255Y-174954295D02*
X149438446Y-174916200D01*
X149438446Y-174916200D02*
X149476541Y-174878104D01*
X149476541Y-174878104D02*
X149514636Y-174801914D01*
X149514636Y-174801914D02*
X149514636Y-174725723D01*
X149514636Y-174725723D02*
X149476541Y-174649533D01*
X149476541Y-174649533D02*
X149438446Y-174611438D01*
X149438446Y-174611438D02*
X149362255Y-174573342D01*
X149362255Y-174573342D02*
X149209874Y-174535247D01*
X149209874Y-174535247D02*
X149133684Y-174497152D01*
X149133684Y-174497152D02*
X149095589Y-174459057D01*
X149095589Y-174459057D02*
X149057493Y-174382866D01*
X149057493Y-174382866D02*
X149057493Y-174306676D01*
X149057493Y-174306676D02*
X149095589Y-174230485D01*
X149095589Y-174230485D02*
X149133684Y-174192390D01*
X149133684Y-174192390D02*
X149209874Y-174154295D01*
X149209874Y-174154295D02*
X149400351Y-174154295D01*
X149400351Y-174154295D02*
X149514636Y-174192390D01*
X150619399Y-174154295D02*
X150771780Y-174154295D01*
X150771780Y-174154295D02*
X150847970Y-174192390D01*
X150847970Y-174192390D02*
X150924161Y-174268580D01*
X150924161Y-174268580D02*
X150962256Y-174420961D01*
X150962256Y-174420961D02*
X150962256Y-174687628D01*
X150962256Y-174687628D02*
X150924161Y-174840009D01*
X150924161Y-174840009D02*
X150847970Y-174916200D01*
X150847970Y-174916200D02*
X150771780Y-174954295D01*
X150771780Y-174954295D02*
X150619399Y-174954295D01*
X150619399Y-174954295D02*
X150543208Y-174916200D01*
X150543208Y-174916200D02*
X150467018Y-174840009D01*
X150467018Y-174840009D02*
X150428922Y-174687628D01*
X150428922Y-174687628D02*
X150428922Y-174420961D01*
X150428922Y-174420961D02*
X150467018Y-174268580D01*
X150467018Y-174268580D02*
X150543208Y-174192390D01*
X150543208Y-174192390D02*
X150619399Y-174154295D01*
X151190827Y-174154295D02*
X151647970Y-174154295D01*
X151419398Y-174954295D02*
X151419398Y-174154295D01*
X151914637Y-174954295D02*
X151914637Y-174154295D01*
X151914637Y-174535247D02*
X152371780Y-174535247D01*
X152371780Y-174954295D02*
X152371780Y-174154295D01*
X152752732Y-174535247D02*
X153019398Y-174535247D01*
X153133684Y-174954295D02*
X152752732Y-174954295D01*
X152752732Y-174954295D02*
X152752732Y-174154295D01*
X152752732Y-174154295D02*
X153133684Y-174154295D01*
X153933685Y-174954295D02*
X153667018Y-174573342D01*
X153476542Y-174954295D02*
X153476542Y-174154295D01*
X153476542Y-174154295D02*
X153781304Y-174154295D01*
X153781304Y-174154295D02*
X153857494Y-174192390D01*
X153857494Y-174192390D02*
X153895589Y-174230485D01*
X153895589Y-174230485D02*
X153933685Y-174306676D01*
X153933685Y-174306676D02*
X153933685Y-174420961D01*
X153933685Y-174420961D02*
X153895589Y-174497152D01*
X153895589Y-174497152D02*
X153857494Y-174535247D01*
X153857494Y-174535247D02*
X153781304Y-174573342D01*
X153781304Y-174573342D02*
X153476542Y-174573342D01*
X154200351Y-174154295D02*
X154390827Y-174954295D01*
X154390827Y-174954295D02*
X154543208Y-174382866D01*
X154543208Y-174382866D02*
X154695589Y-174954295D01*
X154695589Y-174954295D02*
X154886066Y-174154295D01*
X155190828Y-174954295D02*
X155190828Y-174154295D01*
X155533684Y-174916200D02*
X155647970Y-174954295D01*
X155647970Y-174954295D02*
X155838446Y-174954295D01*
X155838446Y-174954295D02*
X155914637Y-174916200D01*
X155914637Y-174916200D02*
X155952732Y-174878104D01*
X155952732Y-174878104D02*
X155990827Y-174801914D01*
X155990827Y-174801914D02*
X155990827Y-174725723D01*
X155990827Y-174725723D02*
X155952732Y-174649533D01*
X155952732Y-174649533D02*
X155914637Y-174611438D01*
X155914637Y-174611438D02*
X155838446Y-174573342D01*
X155838446Y-174573342D02*
X155686065Y-174535247D01*
X155686065Y-174535247D02*
X155609875Y-174497152D01*
X155609875Y-174497152D02*
X155571780Y-174459057D01*
X155571780Y-174459057D02*
X155533684Y-174382866D01*
X155533684Y-174382866D02*
X155533684Y-174306676D01*
X155533684Y-174306676D02*
X155571780Y-174230485D01*
X155571780Y-174230485D02*
X155609875Y-174192390D01*
X155609875Y-174192390D02*
X155686065Y-174154295D01*
X155686065Y-174154295D02*
X155876542Y-174154295D01*
X155876542Y-174154295D02*
X155990827Y-174192390D01*
X156333685Y-174535247D02*
X156600351Y-174535247D01*
X156714637Y-174954295D02*
X156333685Y-174954295D01*
X156333685Y-174954295D02*
X156333685Y-174154295D01*
X156333685Y-174154295D02*
X156714637Y-174154295D01*
X157628923Y-174916200D02*
X157743209Y-174954295D01*
X157743209Y-174954295D02*
X157933685Y-174954295D01*
X157933685Y-174954295D02*
X158009876Y-174916200D01*
X158009876Y-174916200D02*
X158047971Y-174878104D01*
X158047971Y-174878104D02*
X158086066Y-174801914D01*
X158086066Y-174801914D02*
X158086066Y-174725723D01*
X158086066Y-174725723D02*
X158047971Y-174649533D01*
X158047971Y-174649533D02*
X158009876Y-174611438D01*
X158009876Y-174611438D02*
X157933685Y-174573342D01*
X157933685Y-174573342D02*
X157781304Y-174535247D01*
X157781304Y-174535247D02*
X157705114Y-174497152D01*
X157705114Y-174497152D02*
X157667019Y-174459057D01*
X157667019Y-174459057D02*
X157628923Y-174382866D01*
X157628923Y-174382866D02*
X157628923Y-174306676D01*
X157628923Y-174306676D02*
X157667019Y-174230485D01*
X157667019Y-174230485D02*
X157705114Y-174192390D01*
X157705114Y-174192390D02*
X157781304Y-174154295D01*
X157781304Y-174154295D02*
X157971781Y-174154295D01*
X157971781Y-174154295D02*
X158086066Y-174192390D01*
X158428924Y-174954295D02*
X158428924Y-174154295D01*
X158428924Y-174154295D02*
X158733686Y-174154295D01*
X158733686Y-174154295D02*
X158809876Y-174192390D01*
X158809876Y-174192390D02*
X158847971Y-174230485D01*
X158847971Y-174230485D02*
X158886067Y-174306676D01*
X158886067Y-174306676D02*
X158886067Y-174420961D01*
X158886067Y-174420961D02*
X158847971Y-174497152D01*
X158847971Y-174497152D02*
X158809876Y-174535247D01*
X158809876Y-174535247D02*
X158733686Y-174573342D01*
X158733686Y-174573342D02*
X158428924Y-174573342D01*
X159228924Y-174535247D02*
X159495590Y-174535247D01*
X159609876Y-174954295D02*
X159228924Y-174954295D01*
X159228924Y-174954295D02*
X159228924Y-174154295D01*
X159228924Y-174154295D02*
X159609876Y-174154295D01*
X160409877Y-174878104D02*
X160371781Y-174916200D01*
X160371781Y-174916200D02*
X160257496Y-174954295D01*
X160257496Y-174954295D02*
X160181305Y-174954295D01*
X160181305Y-174954295D02*
X160067019Y-174916200D01*
X160067019Y-174916200D02*
X159990829Y-174840009D01*
X159990829Y-174840009D02*
X159952734Y-174763819D01*
X159952734Y-174763819D02*
X159914638Y-174611438D01*
X159914638Y-174611438D02*
X159914638Y-174497152D01*
X159914638Y-174497152D02*
X159952734Y-174344771D01*
X159952734Y-174344771D02*
X159990829Y-174268580D01*
X159990829Y-174268580D02*
X160067019Y-174192390D01*
X160067019Y-174192390D02*
X160181305Y-174154295D01*
X160181305Y-174154295D02*
X160257496Y-174154295D01*
X160257496Y-174154295D02*
X160371781Y-174192390D01*
X160371781Y-174192390D02*
X160409877Y-174230485D01*
X160752734Y-174954295D02*
X160752734Y-174154295D01*
X161400352Y-174535247D02*
X161133686Y-174535247D01*
X161133686Y-174954295D02*
X161133686Y-174154295D01*
X161133686Y-174154295D02*
X161514638Y-174154295D01*
X161819400Y-174954295D02*
X161819400Y-174154295D01*
X162200352Y-174535247D02*
X162467018Y-174535247D01*
X162581304Y-174954295D02*
X162200352Y-174954295D01*
X162200352Y-174954295D02*
X162200352Y-174154295D01*
X162200352Y-174154295D02*
X162581304Y-174154295D01*
X162924162Y-174954295D02*
X162924162Y-174154295D01*
X162924162Y-174154295D02*
X163114638Y-174154295D01*
X163114638Y-174154295D02*
X163228924Y-174192390D01*
X163228924Y-174192390D02*
X163305114Y-174268580D01*
X163305114Y-174268580D02*
X163343209Y-174344771D01*
X163343209Y-174344771D02*
X163381305Y-174497152D01*
X163381305Y-174497152D02*
X163381305Y-174611438D01*
X163381305Y-174611438D02*
X163343209Y-174763819D01*
X163343209Y-174763819D02*
X163305114Y-174840009D01*
X163305114Y-174840009D02*
X163228924Y-174916200D01*
X163228924Y-174916200D02*
X163114638Y-174954295D01*
X163114638Y-174954295D02*
X162924162Y-174954295D01*
D10*
D11*
X143481541Y-187376128D02*
X142624398Y-187376128D01*
X143052969Y-187376128D02*
X143052969Y-185876128D01*
X143052969Y-185876128D02*
X142910112Y-186090414D01*
X142910112Y-186090414D02*
X142767255Y-186233271D01*
X142767255Y-186233271D02*
X142624398Y-186304700D01*
X144124397Y-187233271D02*
X144195826Y-187304700D01*
X144195826Y-187304700D02*
X144124397Y-187376128D01*
X144124397Y-187376128D02*
X144052969Y-187304700D01*
X144052969Y-187304700D02*
X144124397Y-187233271D01*
X144124397Y-187233271D02*
X144124397Y-187376128D01*
X144124397Y-186447557D02*
X144195826Y-186518985D01*
X144195826Y-186518985D02*
X144124397Y-186590414D01*
X144124397Y-186590414D02*
X144052969Y-186518985D01*
X144052969Y-186518985D02*
X144124397Y-186447557D01*
X144124397Y-186447557D02*
X144124397Y-186590414D01*
X145981540Y-187376128D02*
X145981540Y-185876128D01*
X145981540Y-185876128D02*
X146481540Y-186947557D01*
X146481540Y-186947557D02*
X146981540Y-185876128D01*
X146981540Y-185876128D02*
X146981540Y-187376128D01*
X147624398Y-186947557D02*
X148338684Y-186947557D01*
X147481541Y-187376128D02*
X147981541Y-185876128D01*
X147981541Y-185876128D02*
X148481541Y-187376128D01*
X148981540Y-187376128D02*
X148981540Y-185876128D01*
X148981540Y-185876128D02*
X149838683Y-187376128D01*
X149838683Y-187376128D02*
X149838683Y-185876128D01*
X150552969Y-185876128D02*
X150552969Y-187090414D01*
X150552969Y-187090414D02*
X150624398Y-187233271D01*
X150624398Y-187233271D02*
X150695827Y-187304700D01*
X150695827Y-187304700D02*
X150838684Y-187376128D01*
X150838684Y-187376128D02*
X151124398Y-187376128D01*
X151124398Y-187376128D02*
X151267255Y-187304700D01*
X151267255Y-187304700D02*
X151338684Y-187233271D01*
X151338684Y-187233271D02*
X151410112Y-187090414D01*
X151410112Y-187090414D02*
X151410112Y-185876128D01*
X152624398Y-186590414D02*
X152124398Y-186590414D01*
X152124398Y-187376128D02*
X152124398Y-185876128D01*
X152124398Y-185876128D02*
X152838684Y-185876128D01*
X153338684Y-186947557D02*
X154052970Y-186947557D01*
X153195827Y-187376128D02*
X153695827Y-185876128D01*
X153695827Y-185876128D02*
X154195827Y-187376128D01*
X155552969Y-187233271D02*
X155481541Y-187304700D01*
X155481541Y-187304700D02*
X155267255Y-187376128D01*
X155267255Y-187376128D02*
X155124398Y-187376128D01*
X155124398Y-187376128D02*
X154910112Y-187304700D01*
X154910112Y-187304700D02*
X154767255Y-187161842D01*
X154767255Y-187161842D02*
X154695826Y-187018985D01*
X154695826Y-187018985D02*
X154624398Y-186733271D01*
X154624398Y-186733271D02*
X154624398Y-186518985D01*
X154624398Y-186518985D02*
X154695826Y-186233271D01*
X154695826Y-186233271D02*
X154767255Y-186090414D01*
X154767255Y-186090414D02*
X154910112Y-185947557D01*
X154910112Y-185947557D02*
X155124398Y-185876128D01*
X155124398Y-185876128D02*
X155267255Y-185876128D01*
X155267255Y-185876128D02*
X155481541Y-185947557D01*
X155481541Y-185947557D02*
X155552969Y-186018985D01*
X155981541Y-185876128D02*
X156838684Y-185876128D01*
X156410112Y-187376128D02*
X156410112Y-185876128D01*
X157338683Y-185876128D02*
X157338683Y-187090414D01*
X157338683Y-187090414D02*
X157410112Y-187233271D01*
X157410112Y-187233271D02*
X157481541Y-187304700D01*
X157481541Y-187304700D02*
X157624398Y-187376128D01*
X157624398Y-187376128D02*
X157910112Y-187376128D01*
X157910112Y-187376128D02*
X158052969Y-187304700D01*
X158052969Y-187304700D02*
X158124398Y-187233271D01*
X158124398Y-187233271D02*
X158195826Y-187090414D01*
X158195826Y-187090414D02*
X158195826Y-185876128D01*
X159767255Y-187376128D02*
X159267255Y-186661842D01*
X158910112Y-187376128D02*
X158910112Y-185876128D01*
X158910112Y-185876128D02*
X159481541Y-185876128D01*
X159481541Y-185876128D02*
X159624398Y-185947557D01*
X159624398Y-185947557D02*
X159695827Y-186018985D01*
X159695827Y-186018985D02*
X159767255Y-186161842D01*
X159767255Y-186161842D02*
X159767255Y-186376128D01*
X159767255Y-186376128D02*
X159695827Y-186518985D01*
X159695827Y-186518985D02*
X159624398Y-186590414D01*
X159624398Y-186590414D02*
X159481541Y-186661842D01*
X159481541Y-186661842D02*
X158910112Y-186661842D01*
X160410112Y-186590414D02*
X160910112Y-186590414D01*
X161124398Y-187376128D02*
X160410112Y-187376128D01*
X160410112Y-187376128D02*
X160410112Y-185876128D01*
X160410112Y-185876128D02*
X161124398Y-185876128D01*
X162695827Y-185876128D02*
X163552970Y-185876128D01*
X163124398Y-187376128D02*
X163124398Y-185876128D01*
X164338684Y-185876128D02*
X164624398Y-185876128D01*
X164624398Y-185876128D02*
X164767255Y-185947557D01*
X164767255Y-185947557D02*
X164910112Y-186090414D01*
X164910112Y-186090414D02*
X164981541Y-186376128D01*
X164981541Y-186376128D02*
X164981541Y-186876128D01*
X164981541Y-186876128D02*
X164910112Y-187161842D01*
X164910112Y-187161842D02*
X164767255Y-187304700D01*
X164767255Y-187304700D02*
X164624398Y-187376128D01*
X164624398Y-187376128D02*
X164338684Y-187376128D01*
X164338684Y-187376128D02*
X164195827Y-187304700D01*
X164195827Y-187304700D02*
X164052969Y-187161842D01*
X164052969Y-187161842D02*
X163981541Y-186876128D01*
X163981541Y-186876128D02*
X163981541Y-186376128D01*
X163981541Y-186376128D02*
X164052969Y-186090414D01*
X164052969Y-186090414D02*
X164195827Y-185947557D01*
X164195827Y-185947557D02*
X164338684Y-185876128D01*
X166767255Y-187376128D02*
X166767255Y-185876128D01*
X167481541Y-187376128D02*
X167481541Y-185876128D01*
X167481541Y-185876128D02*
X168052970Y-185876128D01*
X168052970Y-185876128D02*
X168195827Y-185947557D01*
X168195827Y-185947557D02*
X168267256Y-186018985D01*
X168267256Y-186018985D02*
X168338684Y-186161842D01*
X168338684Y-186161842D02*
X168338684Y-186376128D01*
X168338684Y-186376128D02*
X168267256Y-186518985D01*
X168267256Y-186518985D02*
X168195827Y-186590414D01*
X168195827Y-186590414D02*
X168052970Y-186661842D01*
X168052970Y-186661842D02*
X167481541Y-186661842D01*
X169838684Y-187233271D02*
X169767256Y-187304700D01*
X169767256Y-187304700D02*
X169552970Y-187376128D01*
X169552970Y-187376128D02*
X169410113Y-187376128D01*
X169410113Y-187376128D02*
X169195827Y-187304700D01*
X169195827Y-187304700D02*
X169052970Y-187161842D01*
X169052970Y-187161842D02*
X168981541Y-187018985D01*
X168981541Y-187018985D02*
X168910113Y-186733271D01*
X168910113Y-186733271D02*
X168910113Y-186518985D01*
X168910113Y-186518985D02*
X168981541Y-186233271D01*
X168981541Y-186233271D02*
X169052970Y-186090414D01*
X169052970Y-186090414D02*
X169195827Y-185947557D01*
X169195827Y-185947557D02*
X169410113Y-185876128D01*
X169410113Y-185876128D02*
X169552970Y-185876128D01*
X169552970Y-185876128D02*
X169767256Y-185947557D01*
X169767256Y-185947557D02*
X169838684Y-186018985D01*
X172481541Y-187233271D02*
X172410113Y-187304700D01*
X172410113Y-187304700D02*
X172195827Y-187376128D01*
X172195827Y-187376128D02*
X172052970Y-187376128D01*
X172052970Y-187376128D02*
X171838684Y-187304700D01*
X171838684Y-187304700D02*
X171695827Y-187161842D01*
X171695827Y-187161842D02*
X171624398Y-187018985D01*
X171624398Y-187018985D02*
X171552970Y-186733271D01*
X171552970Y-186733271D02*
X171552970Y-186518985D01*
X171552970Y-186518985D02*
X171624398Y-186233271D01*
X171624398Y-186233271D02*
X171695827Y-186090414D01*
X171695827Y-186090414D02*
X171838684Y-185947557D01*
X171838684Y-185947557D02*
X172052970Y-185876128D01*
X172052970Y-185876128D02*
X172195827Y-185876128D01*
X172195827Y-185876128D02*
X172410113Y-185947557D01*
X172410113Y-185947557D02*
X172481541Y-186018985D01*
X173838684Y-187376128D02*
X173124398Y-187376128D01*
X173124398Y-187376128D02*
X173124398Y-185876128D01*
X174267256Y-186947557D02*
X174981542Y-186947557D01*
X174124399Y-187376128D02*
X174624399Y-185876128D01*
X174624399Y-185876128D02*
X175124399Y-187376128D01*
X175552970Y-187304700D02*
X175767256Y-187376128D01*
X175767256Y-187376128D02*
X176124398Y-187376128D01*
X176124398Y-187376128D02*
X176267256Y-187304700D01*
X176267256Y-187304700D02*
X176338684Y-187233271D01*
X176338684Y-187233271D02*
X176410113Y-187090414D01*
X176410113Y-187090414D02*
X176410113Y-186947557D01*
X176410113Y-186947557D02*
X176338684Y-186804700D01*
X176338684Y-186804700D02*
X176267256Y-186733271D01*
X176267256Y-186733271D02*
X176124398Y-186661842D01*
X176124398Y-186661842D02*
X175838684Y-186590414D01*
X175838684Y-186590414D02*
X175695827Y-186518985D01*
X175695827Y-186518985D02*
X175624398Y-186447557D01*
X175624398Y-186447557D02*
X175552970Y-186304700D01*
X175552970Y-186304700D02*
X175552970Y-186161842D01*
X175552970Y-186161842D02*
X175624398Y-186018985D01*
X175624398Y-186018985D02*
X175695827Y-185947557D01*
X175695827Y-185947557D02*
X175838684Y-185876128D01*
X175838684Y-185876128D02*
X176195827Y-185876128D01*
X176195827Y-185876128D02*
X176410113Y-185947557D01*
X176981541Y-187304700D02*
X177195827Y-187376128D01*
X177195827Y-187376128D02*
X177552969Y-187376128D01*
X177552969Y-187376128D02*
X177695827Y-187304700D01*
X177695827Y-187304700D02*
X177767255Y-187233271D01*
X177767255Y-187233271D02*
X177838684Y-187090414D01*
X177838684Y-187090414D02*
X177838684Y-186947557D01*
X177838684Y-186947557D02*
X177767255Y-186804700D01*
X177767255Y-186804700D02*
X177695827Y-186733271D01*
X177695827Y-186733271D02*
X177552969Y-186661842D01*
X177552969Y-186661842D02*
X177267255Y-186590414D01*
X177267255Y-186590414D02*
X177124398Y-186518985D01*
X177124398Y-186518985D02*
X177052969Y-186447557D01*
X177052969Y-186447557D02*
X176981541Y-186304700D01*
X176981541Y-186304700D02*
X176981541Y-186161842D01*
X176981541Y-186161842D02*
X177052969Y-186018985D01*
X177052969Y-186018985D02*
X177124398Y-185947557D01*
X177124398Y-185947557D02*
X177267255Y-185876128D01*
X177267255Y-185876128D02*
X177624398Y-185876128D01*
X177624398Y-185876128D02*
X177838684Y-185947557D01*
X179552969Y-186018985D02*
X179624397Y-185947557D01*
X179624397Y-185947557D02*
X179767255Y-185876128D01*
X179767255Y-185876128D02*
X180124397Y-185876128D01*
X180124397Y-185876128D02*
X180267255Y-185947557D01*
X180267255Y-185947557D02*
X180338683Y-186018985D01*
X180338683Y-186018985D02*
X180410112Y-186161842D01*
X180410112Y-186161842D02*
X180410112Y-186304700D01*
X180410112Y-186304700D02*
X180338683Y-186518985D01*
X180338683Y-186518985D02*
X179481540Y-187376128D01*
X179481540Y-187376128D02*
X180410112Y-187376128D01*
D10*
D11*
D10*
D11*
D10*
D11*
D10*
D11*
D10*
D11*
X12700000Y-12700000D02*
X266700000Y-12700000D01*
X266700000Y-203200000D01*
X12700000Y-203200000D01*
X12700000Y-12700000D01*
D10*
D11*
X15240000Y-15240000D02*
X264160000Y-15240000D01*
X264160000Y-200660000D01*
X15240000Y-200660000D01*
X15240000Y-15240000D01*
D10*
D11*
X15240000Y-200660000D02*
X12700000Y-203200000D01*
D10*
D11*
X264160000Y-200660000D02*
X266700000Y-203200000D01*
D10*
D11*
X264160000Y-15240000D02*
X266700000Y-12700000D01*
D10*
D11*
X15240000Y-15240000D02*
X12700000Y-12700000D01*
D10*
D11*
X139700000Y-15240000D02*
X139700000Y-12700000D01*
D10*
D11*
X139700000Y-203200000D02*
X139700000Y-200660000D01*
D10*
D11*
X12700000Y-107950000D02*
X15240000Y-107950000D01*
D10*
D11*
X266700000Y-107950000D02*
X264160000Y-107950000D01*
D10*
D11*
X77470000Y-12700000D02*
X77470000Y-15240000D01*
D10*
D11*
X201930000Y-12700000D02*
X201930000Y-15240000D01*
D10*
D11*
X77470000Y-200660000D02*
X77470000Y-203200000D01*
D10*
D11*
X201930000Y-200660000D02*
X201930000Y-203200000D01*
D10*
D11*
X12700000Y-61595000D02*
X15240000Y-61595000D01*
D10*
D11*
X15240000Y-154305000D02*
X12700000Y-154305000D01*
D10*
D11*
X264160000Y-154305000D02*
X266700000Y-154305000D01*
D10*
D11*
X264160000Y-61595000D02*
X266700000Y-61595000D01*
D10*
D11*
X139700000Y-187960000D02*
X139700000Y-173355000D01*
D10*
D11*
X264160000Y-173355000D02*
X139700000Y-173355000D01*
D10*
D11*
X139700000Y-194310000D02*
X264160000Y-194310000D01*
D10*
D11*
X139700000Y-187960000D02*
X264160000Y-187960000D01*
D10*
D11*
X257810000Y-194310000D02*
X257810000Y-200660000D01*
D10*
D11*
X240665000Y-194310000D02*
X240665000Y-200660000D01*
D10*
D11*
X234315000Y-194310000D02*
X234315000Y-200660000D01*
D10*
D11*
X249555000Y-187960000D02*
X249555000Y-194310000D01*
D10*
D11*
X234315000Y-187960000D02*
X234315000Y-194310000D01*
D10*
D11*
X224155000Y-187960000D02*
X224155000Y-194310000D01*
D10*
D11*
X224155000Y-194310000D02*
X224155000Y-200660000D01*
D10*
D11*
D10*
D11*
X232687857Y-14354557D02*
X233402143Y-14354557D01*
X232545000Y-14783128D02*
X233045000Y-13283128D01*
X233045000Y-13283128D02*
X233545000Y-14783128D01*
D10*
D11*
X170795142Y-13997414D02*
X171009428Y-14068842D01*
X171009428Y-14068842D02*
X171080857Y-14140271D01*
X171080857Y-14140271D02*
X171152285Y-14283128D01*
X171152285Y-14283128D02*
X171152285Y-14497414D01*
X171152285Y-14497414D02*
X171080857Y-14640271D01*
X171080857Y-14640271D02*
X171009428Y-14711700D01*
X171009428Y-14711700D02*
X170866571Y-14783128D01*
X170866571Y-14783128D02*
X170295142Y-14783128D01*
X170295142Y-14783128D02*
X170295142Y-13283128D01*
X170295142Y-13283128D02*
X170795142Y-13283128D01*
X170795142Y-13283128D02*
X170938000Y-13354557D01*
X170938000Y-13354557D02*
X171009428Y-13425985D01*
X171009428Y-13425985D02*
X171080857Y-13568842D01*
X171080857Y-13568842D02*
X171080857Y-13711700D01*
X171080857Y-13711700D02*
X171009428Y-13854557D01*
X171009428Y-13854557D02*
X170938000Y-13925985D01*
X170938000Y-13925985D02*
X170795142Y-13997414D01*
X170795142Y-13997414D02*
X170295142Y-13997414D01*
D10*
D11*
X108922285Y-14640271D02*
X108850857Y-14711700D01*
X108850857Y-14711700D02*
X108636571Y-14783128D01*
X108636571Y-14783128D02*
X108493714Y-14783128D01*
X108493714Y-14783128D02*
X108279428Y-14711700D01*
X108279428Y-14711700D02*
X108136571Y-14568842D01*
X108136571Y-14568842D02*
X108065142Y-14425985D01*
X108065142Y-14425985D02*
X107993714Y-14140271D01*
X107993714Y-14140271D02*
X107993714Y-13925985D01*
X107993714Y-13925985D02*
X108065142Y-13640271D01*
X108065142Y-13640271D02*
X108136571Y-13497414D01*
X108136571Y-13497414D02*
X108279428Y-13354557D01*
X108279428Y-13354557D02*
X108493714Y-13283128D01*
X108493714Y-13283128D02*
X108636571Y-13283128D01*
X108636571Y-13283128D02*
X108850857Y-13354557D01*
X108850857Y-13354557D02*
X108922285Y-13425985D01*
D10*
D11*
X45708142Y-14783128D02*
X45708142Y-13283128D01*
X45708142Y-13283128D02*
X46065285Y-13283128D01*
X46065285Y-13283128D02*
X46279571Y-13354557D01*
X46279571Y-13354557D02*
X46422428Y-13497414D01*
X46422428Y-13497414D02*
X46493857Y-13640271D01*
X46493857Y-13640271D02*
X46565285Y-13925985D01*
X46565285Y-13925985D02*
X46565285Y-14140271D01*
X46565285Y-14140271D02*
X46493857Y-14425985D01*
X46493857Y-14425985D02*
X46422428Y-14568842D01*
X46422428Y-14568842D02*
X46279571Y-14711700D01*
X46279571Y-14711700D02*
X46065285Y-14783128D01*
X46065285Y-14783128D02*
X45708142Y-14783128D01*
D10*
D11*
X13389429Y-130238985D02*
X13460857Y-130167557D01*
X13460857Y-130167557D02*
X13603715Y-130096128D01*
X13603715Y-130096128D02*
X13960857Y-130096128D01*
X13960857Y-130096128D02*
X14103715Y-130167557D01*
X14103715Y-130167557D02*
X14175143Y-130238985D01*
X14175143Y-130238985D02*
X14246572Y-130381842D01*
X14246572Y-130381842D02*
X14246572Y-130524700D01*
X14246572Y-130524700D02*
X14175143Y-130738985D01*
X14175143Y-130738985D02*
X13318000Y-131596128D01*
X13318000Y-131596128D02*
X14246572Y-131596128D01*
D10*
D11*
X13316000Y-84172128D02*
X14244572Y-84172128D01*
X14244572Y-84172128D02*
X13744572Y-84743557D01*
X13744572Y-84743557D02*
X13958857Y-84743557D01*
X13958857Y-84743557D02*
X14101715Y-84814985D01*
X14101715Y-84814985D02*
X14173143Y-84886414D01*
X14173143Y-84886414D02*
X14244572Y-85029271D01*
X14244572Y-85029271D02*
X14244572Y-85386414D01*
X14244572Y-85386414D02*
X14173143Y-85529271D01*
X14173143Y-85529271D02*
X14101715Y-85600700D01*
X14101715Y-85600700D02*
X13958857Y-85672128D01*
X13958857Y-85672128D02*
X13530286Y-85672128D01*
X13530286Y-85672128D02*
X13387429Y-85600700D01*
X13387429Y-85600700D02*
X13316000Y-85529271D01*
D10*
D11*
X45708142Y-202743128D02*
X45708142Y-201243128D01*
X45708142Y-201243128D02*
X46065285Y-201243128D01*
X46065285Y-201243128D02*
X46279571Y-201314557D01*
X46279571Y-201314557D02*
X46422428Y-201457414D01*
X46422428Y-201457414D02*
X46493857Y-201600271D01*
X46493857Y-201600271D02*
X46565285Y-201885985D01*
X46565285Y-201885985D02*
X46565285Y-202100271D01*
X46565285Y-202100271D02*
X46493857Y-202385985D01*
X46493857Y-202385985D02*
X46422428Y-202528842D01*
X46422428Y-202528842D02*
X46279571Y-202671700D01*
X46279571Y-202671700D02*
X46065285Y-202743128D01*
X46065285Y-202743128D02*
X45708142Y-202743128D01*
D10*
D11*
X232687857Y-202314557D02*
X233402143Y-202314557D01*
X232545000Y-202743128D02*
X233045000Y-201243128D01*
X233045000Y-201243128D02*
X233545000Y-202743128D01*
D10*
D11*
X170795142Y-201932414D02*
X171009428Y-202003842D01*
X171009428Y-202003842D02*
X171080857Y-202075271D01*
X171080857Y-202075271D02*
X171152285Y-202218128D01*
X171152285Y-202218128D02*
X171152285Y-202432414D01*
X171152285Y-202432414D02*
X171080857Y-202575271D01*
X171080857Y-202575271D02*
X171009428Y-202646700D01*
X171009428Y-202646700D02*
X170866571Y-202718128D01*
X170866571Y-202718128D02*
X170295142Y-202718128D01*
X170295142Y-202718128D02*
X170295142Y-201218128D01*
X170295142Y-201218128D02*
X170795142Y-201218128D01*
X170795142Y-201218128D02*
X170938000Y-201289557D01*
X170938000Y-201289557D02*
X171009428Y-201360985D01*
X171009428Y-201360985D02*
X171080857Y-201503842D01*
X171080857Y-201503842D02*
X171080857Y-201646700D01*
X171080857Y-201646700D02*
X171009428Y-201789557D01*
X171009428Y-201789557D02*
X170938000Y-201860985D01*
X170938000Y-201860985D02*
X170795142Y-201932414D01*
X170795142Y-201932414D02*
X170295142Y-201932414D01*
D10*
D11*
X108922285Y-202600271D02*
X108850857Y-202671700D01*
X108850857Y-202671700D02*
X108636571Y-202743128D01*
X108636571Y-202743128D02*
X108493714Y-202743128D01*
X108493714Y-202743128D02*
X108279428Y-202671700D01*
X108279428Y-202671700D02*
X108136571Y-202528842D01*
X108136571Y-202528842D02*
X108065142Y-202385985D01*
X108065142Y-202385985D02*
X107993714Y-202100271D01*
X107993714Y-202100271D02*
X107993714Y-201885985D01*
X107993714Y-201885985D02*
X108065142Y-201600271D01*
X108065142Y-201600271D02*
X108136571Y-201457414D01*
X108136571Y-201457414D02*
X108279428Y-201314557D01*
X108279428Y-201314557D02*
X108493714Y-201243128D01*
X108493714Y-201243128D02*
X108636571Y-201243128D01*
X108636571Y-201243128D02*
X108850857Y-201314557D01*
X108850857Y-201314557D02*
X108922285Y-201385985D01*
D10*
D11*
X14026715Y-38138128D02*
X14026715Y-39138128D01*
X13669572Y-37566700D02*
X13312429Y-38638128D01*
X13312429Y-38638128D02*
X14241000Y-38638128D01*
D10*
D11*
X14271572Y-177953128D02*
X13414429Y-177953128D01*
X13843000Y-177953128D02*
X13843000Y-176453128D01*
X13843000Y-176453128D02*
X13700143Y-176667414D01*
X13700143Y-176667414D02*
X13557286Y-176810271D01*
X13557286Y-176810271D02*
X13414429Y-176881700D01*
D10*
D11*
X15240000Y-154305000D02*
X12700000Y-154305000D01*
D10*
D11*
X12700000Y-107950000D02*
X15240000Y-107950000D01*
D10*
D11*
X12700000Y-61595000D02*
X15240000Y-61595000D01*
D10*
D11*
X264878000Y-83820128D02*
X265806572Y-83820128D01*
X265806572Y-83820128D02*
X265306572Y-84391557D01*
X265306572Y-84391557D02*
X265520857Y-84391557D01*
X265520857Y-84391557D02*
X265663715Y-84462985D01*
X265663715Y-84462985D02*
X265735143Y-84534414D01*
X265735143Y-84534414D02*
X265806572Y-84677271D01*
X265806572Y-84677271D02*
X265806572Y-85034414D01*
X265806572Y-85034414D02*
X265735143Y-85177271D01*
X265735143Y-85177271D02*
X265663715Y-85248700D01*
X265663715Y-85248700D02*
X265520857Y-85320128D01*
X265520857Y-85320128D02*
X265092286Y-85320128D01*
X265092286Y-85320128D02*
X264949429Y-85248700D01*
X264949429Y-85248700D02*
X264878000Y-85177271D01*
D10*
D11*
X265833572Y-177601128D02*
X264976429Y-177601128D01*
X265405000Y-177601128D02*
X265405000Y-176101128D01*
X265405000Y-176101128D02*
X265262143Y-176315414D01*
X265262143Y-176315414D02*
X265119286Y-176458271D01*
X265119286Y-176458271D02*
X264976429Y-176529700D01*
D10*
D11*
X265588715Y-37786128D02*
X265588715Y-38786128D01*
X265231572Y-37214700D02*
X264874429Y-38286128D01*
X264874429Y-38286128D02*
X265803000Y-38286128D01*
D10*
D11*
X264951429Y-129886985D02*
X265022857Y-129815557D01*
X265022857Y-129815557D02*
X265165715Y-129744128D01*
X265165715Y-129744128D02*
X265522857Y-129744128D01*
X265522857Y-129744128D02*
X265665715Y-129815557D01*
X265665715Y-129815557D02*
X265737143Y-129886985D01*
X265737143Y-129886985D02*
X265808572Y-130029842D01*
X265808572Y-130029842D02*
X265808572Y-130172700D01*
X265808572Y-130172700D02*
X265737143Y-130386985D01*
X265737143Y-130386985D02*
X264880000Y-131244128D01*
X264880000Y-131244128D02*
X265808572Y-131244128D01*
D10*
D11*
X139700000Y-27940000D02*
X139700000Y-14986000D01*
D10*
D11*
X264160000Y-21590000D02*
X139700000Y-21590000D01*
D10*
D11*
X192894285Y-19101128D02*
X192394285Y-18386842D01*
X192037142Y-19101128D02*
X192037142Y-17601128D01*
X192037142Y-17601128D02*
X192608571Y-17601128D01*
X192608571Y-17601128D02*
X192751428Y-17672557D01*
X192751428Y-17672557D02*
X192822857Y-17743985D01*
X192822857Y-17743985D02*
X192894285Y-17886842D01*
X192894285Y-17886842D02*
X192894285Y-18101128D01*
X192894285Y-18101128D02*
X192822857Y-18243985D01*
X192822857Y-18243985D02*
X192751428Y-18315414D01*
X192751428Y-18315414D02*
X192608571Y-18386842D01*
X192608571Y-18386842D02*
X192037142Y-18386842D01*
X193537142Y-18315414D02*
X194037142Y-18315414D01*
X194251428Y-19101128D02*
X193537142Y-19101128D01*
X193537142Y-19101128D02*
X193537142Y-17601128D01*
X193537142Y-17601128D02*
X194251428Y-17601128D01*
X194680000Y-17601128D02*
X195180000Y-19101128D01*
X195180000Y-19101128D02*
X195680000Y-17601128D01*
X196179999Y-19101128D02*
X196179999Y-17601128D01*
X196822857Y-19029700D02*
X197037143Y-19101128D01*
X197037143Y-19101128D02*
X197394285Y-19101128D01*
X197394285Y-19101128D02*
X197537143Y-19029700D01*
X197537143Y-19029700D02*
X197608571Y-18958271D01*
X197608571Y-18958271D02*
X197680000Y-18815414D01*
X197680000Y-18815414D02*
X197680000Y-18672557D01*
X197680000Y-18672557D02*
X197608571Y-18529700D01*
X197608571Y-18529700D02*
X197537143Y-18458271D01*
X197537143Y-18458271D02*
X197394285Y-18386842D01*
X197394285Y-18386842D02*
X197108571Y-18315414D01*
X197108571Y-18315414D02*
X196965714Y-18243985D01*
X196965714Y-18243985D02*
X196894285Y-18172557D01*
X196894285Y-18172557D02*
X196822857Y-18029700D01*
X196822857Y-18029700D02*
X196822857Y-17886842D01*
X196822857Y-17886842D02*
X196894285Y-17743985D01*
X196894285Y-17743985D02*
X196965714Y-17672557D01*
X196965714Y-17672557D02*
X197108571Y-17601128D01*
X197108571Y-17601128D02*
X197465714Y-17601128D01*
X197465714Y-17601128D02*
X197680000Y-17672557D01*
X198322856Y-19101128D02*
X198322856Y-17601128D01*
X199322857Y-17601128D02*
X199608571Y-17601128D01*
X199608571Y-17601128D02*
X199751428Y-17672557D01*
X199751428Y-17672557D02*
X199894285Y-17815414D01*
X199894285Y-17815414D02*
X199965714Y-18101128D01*
X199965714Y-18101128D02*
X199965714Y-18601128D01*
X199965714Y-18601128D02*
X199894285Y-18886842D01*
X199894285Y-18886842D02*
X199751428Y-19029700D01*
X199751428Y-19029700D02*
X199608571Y-19101128D01*
X199608571Y-19101128D02*
X199322857Y-19101128D01*
X199322857Y-19101128D02*
X199180000Y-19029700D01*
X199180000Y-19029700D02*
X199037142Y-18886842D01*
X199037142Y-18886842D02*
X198965714Y-18601128D01*
X198965714Y-18601128D02*
X198965714Y-18101128D01*
X198965714Y-18101128D02*
X199037142Y-17815414D01*
X199037142Y-17815414D02*
X199180000Y-17672557D01*
X199180000Y-17672557D02*
X199322857Y-17601128D01*
X200608571Y-19101128D02*
X200608571Y-17601128D01*
X200608571Y-17601128D02*
X201465714Y-19101128D01*
X201465714Y-19101128D02*
X201465714Y-17601128D01*
X203322857Y-19101128D02*
X203322857Y-17601128D01*
X203322857Y-18315414D02*
X204180000Y-18315414D01*
X204180000Y-19101128D02*
X204180000Y-17601128D01*
X204894286Y-19101128D02*
X204894286Y-17601128D01*
X205537144Y-19029700D02*
X205751430Y-19101128D01*
X205751430Y-19101128D02*
X206108572Y-19101128D01*
X206108572Y-19101128D02*
X206251430Y-19029700D01*
X206251430Y-19029700D02*
X206322858Y-18958271D01*
X206322858Y-18958271D02*
X206394287Y-18815414D01*
X206394287Y-18815414D02*
X206394287Y-18672557D01*
X206394287Y-18672557D02*
X206322858Y-18529700D01*
X206322858Y-18529700D02*
X206251430Y-18458271D01*
X206251430Y-18458271D02*
X206108572Y-18386842D01*
X206108572Y-18386842D02*
X205822858Y-18315414D01*
X205822858Y-18315414D02*
X205680001Y-18243985D01*
X205680001Y-18243985D02*
X205608572Y-18172557D01*
X205608572Y-18172557D02*
X205537144Y-18029700D01*
X205537144Y-18029700D02*
X205537144Y-17886842D01*
X205537144Y-17886842D02*
X205608572Y-17743985D01*
X205608572Y-17743985D02*
X205680001Y-17672557D01*
X205680001Y-17672557D02*
X205822858Y-17601128D01*
X205822858Y-17601128D02*
X206180001Y-17601128D01*
X206180001Y-17601128D02*
X206394287Y-17672557D01*
X206822858Y-17601128D02*
X207680001Y-17601128D01*
X207251429Y-19101128D02*
X207251429Y-17601128D01*
X208465715Y-17601128D02*
X208751429Y-17601128D01*
X208751429Y-17601128D02*
X208894286Y-17672557D01*
X208894286Y-17672557D02*
X209037143Y-17815414D01*
X209037143Y-17815414D02*
X209108572Y-18101128D01*
X209108572Y-18101128D02*
X209108572Y-18601128D01*
X209108572Y-18601128D02*
X209037143Y-18886842D01*
X209037143Y-18886842D02*
X208894286Y-19029700D01*
X208894286Y-19029700D02*
X208751429Y-19101128D01*
X208751429Y-19101128D02*
X208465715Y-19101128D01*
X208465715Y-19101128D02*
X208322858Y-19029700D01*
X208322858Y-19029700D02*
X208180000Y-18886842D01*
X208180000Y-18886842D02*
X208108572Y-18601128D01*
X208108572Y-18601128D02*
X208108572Y-18101128D01*
X208108572Y-18101128D02*
X208180000Y-17815414D01*
X208180000Y-17815414D02*
X208322858Y-17672557D01*
X208322858Y-17672557D02*
X208465715Y-17601128D01*
X210608572Y-19101128D02*
X210108572Y-18386842D01*
X209751429Y-19101128D02*
X209751429Y-17601128D01*
X209751429Y-17601128D02*
X210322858Y-17601128D01*
X210322858Y-17601128D02*
X210465715Y-17672557D01*
X210465715Y-17672557D02*
X210537144Y-17743985D01*
X210537144Y-17743985D02*
X210608572Y-17886842D01*
X210608572Y-17886842D02*
X210608572Y-18101128D01*
X210608572Y-18101128D02*
X210537144Y-18243985D01*
X210537144Y-18243985D02*
X210465715Y-18315414D01*
X210465715Y-18315414D02*
X210322858Y-18386842D01*
X210322858Y-18386842D02*
X209751429Y-18386842D01*
X211537144Y-18386842D02*
X211537144Y-19101128D01*
X211037144Y-17601128D02*
X211537144Y-18386842D01*
X211537144Y-18386842D02*
X212037144Y-17601128D01*
D10*
D11*
X264160000Y-27940000D02*
X139700000Y-27940000D01*
D10*
D11*
X152400000Y-21590000D02*
X152400000Y-27940000D01*
D10*
D11*
X139700000Y-200660000D02*
X139700000Y-187960000D01*
D10*
D11*
X143728571Y-25451128D02*
X143228571Y-24736842D01*
X142871428Y-25451128D02*
X142871428Y-23951128D01*
X142871428Y-23951128D02*
X143442857Y-23951128D01*
X143442857Y-23951128D02*
X143585714Y-24022557D01*
X143585714Y-24022557D02*
X143657143Y-24093985D01*
X143657143Y-24093985D02*
X143728571Y-24236842D01*
X143728571Y-24236842D02*
X143728571Y-24451128D01*
X143728571Y-24451128D02*
X143657143Y-24593985D01*
X143657143Y-24593985D02*
X143585714Y-24665414D01*
X143585714Y-24665414D02*
X143442857Y-24736842D01*
X143442857Y-24736842D02*
X142871428Y-24736842D01*
X144942857Y-25379700D02*
X144800000Y-25451128D01*
X144800000Y-25451128D02*
X144514286Y-25451128D01*
X144514286Y-25451128D02*
X144371428Y-25379700D01*
X144371428Y-25379700D02*
X144300000Y-25236842D01*
X144300000Y-25236842D02*
X144300000Y-24665414D01*
X144300000Y-24665414D02*
X144371428Y-24522557D01*
X144371428Y-24522557D02*
X144514286Y-24451128D01*
X144514286Y-24451128D02*
X144800000Y-24451128D01*
X144800000Y-24451128D02*
X144942857Y-24522557D01*
X144942857Y-24522557D02*
X145014286Y-24665414D01*
X145014286Y-24665414D02*
X145014286Y-24808271D01*
X145014286Y-24808271D02*
X144300000Y-24951128D01*
X145514285Y-24451128D02*
X145871428Y-25451128D01*
X145871428Y-25451128D02*
X146228571Y-24451128D01*
X146799999Y-25308271D02*
X146871428Y-25379700D01*
X146871428Y-25379700D02*
X146799999Y-25451128D01*
X146799999Y-25451128D02*
X146728571Y-25379700D01*
X146728571Y-25379700D02*
X146799999Y-25308271D01*
X146799999Y-25308271D02*
X146799999Y-25451128D01*
X148585714Y-25022557D02*
X149300000Y-25022557D01*
X148442857Y-25451128D02*
X148942857Y-23951128D01*
X148942857Y-23951128D02*
X149442857Y-25451128D01*
D10*
D11*
X261125125Y-204353390D02*
X261029887Y-204305771D01*
X261029887Y-204305771D02*
X260982268Y-204258152D01*
X260982268Y-204258152D02*
X260934649Y-204162914D01*
X260934649Y-204162914D02*
X260934649Y-204115295D01*
X260934649Y-204115295D02*
X260982268Y-204020057D01*
X260982268Y-204020057D02*
X261029887Y-203972438D01*
X261029887Y-203972438D02*
X261125125Y-203924819D01*
X261125125Y-203924819D02*
X261315601Y-203924819D01*
X261315601Y-203924819D02*
X261410839Y-203972438D01*
X261410839Y-203972438D02*
X261458458Y-204020057D01*
X261458458Y-204020057D02*
X261506077Y-204115295D01*
X261506077Y-204115295D02*
X261506077Y-204162914D01*
X261506077Y-204162914D02*
X261458458Y-204258152D01*
X261458458Y-204258152D02*
X261410839Y-204305771D01*
X261410839Y-204305771D02*
X261315601Y-204353390D01*
X261315601Y-204353390D02*
X261125125Y-204353390D01*
X261125125Y-204353390D02*
X261029887Y-204401009D01*
X261029887Y-204401009D02*
X260982268Y-204448628D01*
X260982268Y-204448628D02*
X260934649Y-204543866D01*
X260934649Y-204543866D02*
X260934649Y-204734342D01*
X260934649Y-204734342D02*
X260982268Y-204829580D01*
X260982268Y-204829580D02*
X261029887Y-204877200D01*
X261029887Y-204877200D02*
X261125125Y-204924819D01*
X261125125Y-204924819D02*
X261315601Y-204924819D01*
X261315601Y-204924819D02*
X261410839Y-204877200D01*
X261410839Y-204877200D02*
X261458458Y-204829580D01*
X261458458Y-204829580D02*
X261506077Y-204734342D01*
X261506077Y-204734342D02*
X261506077Y-204543866D01*
X261506077Y-204543866D02*
X261458458Y-204448628D01*
X261458458Y-204448628D02*
X261410839Y-204401009D01*
X261410839Y-204401009D02*
X261315601Y-204353390D01*
X261934649Y-204829580D02*
X261982268Y-204877200D01*
X261982268Y-204877200D02*
X261934649Y-204924819D01*
X261934649Y-204924819D02*
X261887030Y-204877200D01*
X261887030Y-204877200D02*
X261934649Y-204829580D01*
X261934649Y-204829580D02*
X261934649Y-204924819D01*
X262887029Y-203924819D02*
X262410839Y-203924819D01*
X262410839Y-203924819D02*
X262363220Y-204401009D01*
X262363220Y-204401009D02*
X262410839Y-204353390D01*
X262410839Y-204353390D02*
X262506077Y-204305771D01*
X262506077Y-204305771D02*
X262744172Y-204305771D01*
X262744172Y-204305771D02*
X262839410Y-204353390D01*
X262839410Y-204353390D02*
X262887029Y-204401009D01*
X262887029Y-204401009D02*
X262934648Y-204496247D01*
X262934648Y-204496247D02*
X262934648Y-204734342D01*
X262934648Y-204734342D02*
X262887029Y-204829580D01*
X262887029Y-204829580D02*
X262839410Y-204877200D01*
X262839410Y-204877200D02*
X262744172Y-204924819D01*
X262744172Y-204924819D02*
X262506077Y-204924819D01*
X262506077Y-204924819D02*
X262410839Y-204877200D01*
X262410839Y-204877200D02*
X262363220Y-204829580D01*
X263267982Y-204924819D02*
X263791791Y-204258152D01*
X263267982Y-204258152D02*
X263791791Y-204924819D01*
X264696553Y-204924819D02*
X264125125Y-204924819D01*
X264410839Y-204924819D02*
X264410839Y-203924819D01*
X264410839Y-203924819D02*
X264315601Y-204067676D01*
X264315601Y-204067676D02*
X264220363Y-204162914D01*
X264220363Y-204162914D02*
X264125125Y-204210533D01*
X265648934Y-204924819D02*
X265077506Y-204924819D01*
X265363220Y-204924819D02*
X265363220Y-203924819D01*
X265363220Y-203924819D02*
X265267982Y-204067676D01*
X265267982Y-204067676D02*
X265172744Y-204162914D01*
X265172744Y-204162914D02*
X265077506Y-204210533D01*
X266029887Y-203924819D02*
X266029887Y-204115295D01*
X266410839Y-203924819D02*
X266410839Y-204115295D01*
D13*
%TO.C,NT301*%
X126325000Y-90900000D02*
X124425000Y-90900000D01*
X124425000Y-90900000D02*
X124425000Y-90200000D01*
X124425000Y-90200000D02*
X126325000Y-90200000D01*
X126325000Y-90200000D02*
X126325000Y-90900000D01*
G36*
X126325000Y-90900000D02*
G01*
X124425000Y-90900000D01*
X124425000Y-90200000D01*
X126325000Y-90200000D01*
X126325000Y-90900000D01*
G37*
%TD*%
D14*
%TO.N,/MICROCONTROLLER/V_FTSW_RAW_B*%
%TO.C,J401*%
X109500000Y-64300000D03*
%TO.N,+3V3*%
X111500000Y-64300000D03*
%TD*%
D15*
%TO.N,GND*%
%TO.C,J301*%
X131300000Y-70562100D03*
D16*
%TO.N,/POWER/DC_IN_RAW*%
X131300000Y-64562100D03*
D17*
%TO.N,GND*%
X126800000Y-63562100D03*
X135800000Y-63562100D03*
%TD*%
D14*
%TO.N,/MICROCONTROLLER/V_LEDA*%
%TO.C,J408*%
X100500000Y-64300000D03*
%TO.N,+3V3*%
X102500000Y-64300000D03*
%TD*%
%TO.N,/MICROCONTROLLER/V_FTSW_RAW_A*%
%TO.C,J406*%
X91500000Y-64300000D03*
%TO.N,+3V3*%
X93500000Y-64300000D03*
%TD*%
D18*
%TO.N,GND*%
%TO.C,J203*%
X85500000Y-68650000D03*
X69500000Y-68650000D03*
X85500000Y-62800000D03*
X69500000Y-62800000D03*
%TO.N,/AUDIO/AUDIO_OUT*%
X85500000Y-74500000D03*
%TO.N,GND*%
X69500000Y-74500000D03*
%TD*%
D14*
%TO.N,/MICROCONTROLLER/V_LEDB*%
%TO.C,J404*%
X118500000Y-64300000D03*
%TO.N,+3V3*%
X120500000Y-64300000D03*
%TD*%
D18*
%TO.N,GND*%
%TO.C,J201*%
X63500000Y-68650000D03*
X47500000Y-68650000D03*
X63500000Y-62800000D03*
X47500000Y-62800000D03*
%TO.N,/AUDIO/AUDIO_IN-*%
X63500000Y-74500000D03*
%TO.N,GND*%
X47500000Y-74500000D03*
%TD*%
D19*
%TO.N,GND1*%
%TO.C,NT301*%
X126000000Y-90550000D03*
X124750000Y-90550000D03*
%TO.N,GND*%
X125375000Y-90550000D03*
%TD*%
D20*
%TO.N,DC_IN*%
X131400000Y-79125000D03*
X131400000Y-78575000D03*
X118050000Y-88650000D03*
X131400000Y-79675000D03*
X120525000Y-88100000D03*
X118050000Y-89200000D03*
X120525000Y-89200000D03*
X126950000Y-84675000D03*
X120525000Y-88650000D03*
X118050000Y-88100000D03*
%TO.N,+9V*%
X122050000Y-112100000D03*
X65925000Y-109750000D03*
X65400000Y-109750000D03*
X123825000Y-112650000D03*
X123825000Y-111550000D03*
X70465000Y-94300000D03*
X123825000Y-112100000D03*
X135025000Y-109875000D03*
%TO.N,-9V*%
X67600000Y-109750000D03*
X67075000Y-109750000D03*
X111730000Y-113810000D03*
X113375000Y-100425000D03*
X112280000Y-113810000D03*
X110300000Y-112100000D03*
X111180000Y-113820000D03*
X62775000Y-94075000D03*
%TO.N,+3V3*%
X104000000Y-87525000D03*
X111500000Y-67225000D03*
X115625000Y-81075000D03*
X104875000Y-96975000D03*
X116175000Y-79300000D03*
X119350000Y-72512500D03*
X120500000Y-67225000D03*
X116725000Y-81075000D03*
X102500000Y-67225000D03*
X101319999Y-72497500D03*
X116175000Y-81075000D03*
X93500000Y-67225000D03*
X103600000Y-76675000D03*
%TO.N,+12V_RAW*%
X129475000Y-81975000D03*
X130600000Y-103725000D03*
%TO.N,-12V_RAW*%
X121825000Y-103625000D03*
X118925000Y-84200000D03*
%TO.N,/AUDIO/AUDIO_A_TO_B*%
X69410000Y-96425000D03*
X64800000Y-97100000D03*
%TO.N,-9V_EN*%
X123700000Y-81450000D03*
X103600000Y-81200000D03*
%TO.N,+9V_EN*%
X124750000Y-81450000D03*
X104300000Y-80500000D03*
%TO.N,GND*%
X119830000Y-67230000D03*
X94450000Y-67237500D03*
X136674999Y-76175000D03*
X102925000Y-76000000D03*
X130620000Y-79675000D03*
X130620000Y-78575000D03*
X126850000Y-112100000D03*
X80250000Y-84300000D03*
X110750000Y-70825000D03*
X111180000Y-114490000D03*
X106500000Y-80300000D03*
X124225000Y-79225000D03*
X67630000Y-109090000D03*
X124490000Y-111540000D03*
X120325000Y-71712500D03*
X119750000Y-89210000D03*
X69875000Y-95825000D03*
X120020000Y-72510000D03*
X63250000Y-114500000D03*
X68750000Y-114500000D03*
X62110000Y-94080000D03*
X109960000Y-111520000D03*
X79150000Y-85800000D03*
X66500000Y-114500000D03*
X92830000Y-67230000D03*
X136350000Y-107975000D03*
X69750000Y-114500000D03*
X121500000Y-84175000D03*
X125225000Y-76300000D03*
X99599999Y-68700000D03*
X119750000Y-88660000D03*
X112280000Y-114490000D03*
X68875000Y-109850000D03*
X118175000Y-85375000D03*
X137975000Y-103925000D03*
X105625000Y-96975000D03*
X116675000Y-68425000D03*
X119650000Y-71550000D03*
X118820000Y-88660000D03*
X135550000Y-110270000D03*
X130620000Y-79125000D03*
X101830000Y-67220000D03*
X124490000Y-112640000D03*
X116760000Y-78990000D03*
X104000000Y-86850000D03*
X95975000Y-94430000D03*
X101630000Y-71560000D03*
X118820000Y-88110000D03*
X114075000Y-101675000D03*
X112750000Y-103600000D03*
X69100000Y-111925000D03*
X109500000Y-70100000D03*
X116175000Y-92525000D03*
X136674999Y-73849999D03*
X116170000Y-81740000D03*
X136879504Y-79119758D03*
X102324999Y-71712500D03*
X71075000Y-94750000D03*
X136980000Y-97070000D03*
X106750000Y-87500000D03*
X127450000Y-72980000D03*
X101990000Y-72500000D03*
X126950000Y-83675000D03*
X58250000Y-84300000D03*
X115100000Y-112100000D03*
X92750000Y-70762500D03*
X111730000Y-114490000D03*
X115620000Y-81740000D03*
X115225000Y-101800000D03*
X127450000Y-73530000D03*
X104100000Y-76200000D03*
X124490000Y-112090000D03*
X116175000Y-84100000D03*
X65390000Y-109080000D03*
X67080000Y-109090000D03*
X116720000Y-81740000D03*
X127250000Y-81975000D03*
X123225000Y-76300000D03*
X127450000Y-74080000D03*
X98674999Y-68412500D03*
X57150000Y-85800000D03*
X91500000Y-70062500D03*
X100360000Y-91690000D03*
X62250000Y-114500000D03*
X70750000Y-114500000D03*
X65940000Y-109080000D03*
X110830000Y-67220000D03*
X105250000Y-86800000D03*
X64125000Y-109850000D03*
X117600000Y-68675000D03*
X103450000Y-67237500D03*
X113370000Y-99750000D03*
X121740000Y-111520000D03*
X62770000Y-95030000D03*
X112450000Y-67237500D03*
X64250000Y-114500000D03*
X63900000Y-111925000D03*
X121450000Y-67237500D03*
X135650000Y-106725000D03*
%TO.N,/POWER/DC_IN_RAW*%
X128225000Y-73525000D03*
X128225000Y-72975000D03*
X128225000Y-74075000D03*
%TO.N,/MICROCONTROLLER/VG_FTSW_B*%
X112000000Y-70112500D03*
X120325000Y-69512500D03*
%TO.N,/MICROCONTROLLER/VG_FTSW_A*%
X102324999Y-69437500D03*
X94000000Y-70062500D03*
%TO.N,/AUDIO/BYPASS_B*%
X69160000Y-94825000D03*
X68400000Y-91200000D03*
%TO.N,/AUDIO/BYPASS_A*%
X63030000Y-93130000D03*
X65735000Y-97225000D03*
%TO.N,SW_IN2*%
X66210000Y-98100000D03*
X98100000Y-82100000D03*
%TO.N,SW_IN3*%
X67310000Y-97425000D03*
X97200000Y-82400000D03*
%TO.N,SW_IN4*%
X96475000Y-81725000D03*
X67400000Y-91100000D03*
%TO.N,~{SW_EN}*%
X96500000Y-80800000D03*
X66500000Y-90800000D03*
%TO.N,SW_IN1*%
X65710000Y-91325000D03*
X95500000Y-79600000D03*
%TD*%
%TA.AperFunction,Conductor*%
%TO.N,GND*%
G36*
X89501448Y-58600614D02*
G01*
X89515765Y-58601740D01*
X89619269Y-58609886D01*
X89630731Y-58611702D01*
X89741401Y-58638271D01*
X89752429Y-58641854D01*
X89824956Y-58671896D01*
X89857586Y-58685412D01*
X89867932Y-58690684D01*
X89964967Y-58750147D01*
X89974361Y-58756972D01*
X90064132Y-58833643D01*
X90066375Y-58835725D01*
X91371307Y-60151595D01*
X91373111Y-60153715D01*
X91376042Y-60156646D01*
X91376043Y-60156648D01*
X91409328Y-60189934D01*
X91426809Y-60207561D01*
X91428645Y-60209413D01*
X91430559Y-60211166D01*
X91454180Y-60234786D01*
X91474605Y-60255211D01*
X91620254Y-60366972D01*
X91779246Y-60458765D01*
X91948858Y-60529021D01*
X92126190Y-60576537D01*
X92126196Y-60576537D01*
X92126197Y-60576538D01*
X92126196Y-60576538D01*
X92206969Y-60587171D01*
X92308206Y-60600500D01*
X92308208Y-60600500D01*
X119629645Y-60600500D01*
X119629665Y-60600499D01*
X119691792Y-60600499D01*
X119691794Y-60600499D01*
X119873795Y-60576538D01*
X119873803Y-60576537D01*
X119873803Y-60576536D01*
X119873810Y-60576536D01*
X120051142Y-60529020D01*
X120220754Y-60458764D01*
X120379745Y-60366971D01*
X120525394Y-60255210D01*
X120545823Y-60234779D01*
X120547977Y-60232985D01*
X120551630Y-60229301D01*
X120551633Y-60229300D01*
X120590647Y-60189958D01*
X120623957Y-60156648D01*
X120623958Y-60156645D01*
X120626914Y-60153690D01*
X120628722Y-60151563D01*
X121933623Y-58835725D01*
X121935836Y-58833670D01*
X122025650Y-58756963D01*
X122035009Y-58750162D01*
X122132080Y-58690677D01*
X122142409Y-58685414D01*
X122247573Y-58641854D01*
X122258594Y-58638273D01*
X122369270Y-58611702D01*
X122380730Y-58609887D01*
X122432822Y-58605787D01*
X122498569Y-58600614D01*
X122501473Y-58600500D01*
X122547595Y-58600500D01*
X137752405Y-58600500D01*
X137800000Y-58600500D01*
X138207977Y-58618313D01*
X138211184Y-58618593D01*
X138500709Y-58656709D01*
X138614456Y-58671685D01*
X138617636Y-58672246D01*
X139014745Y-58760283D01*
X139017846Y-58761113D01*
X139405804Y-58883435D01*
X139408803Y-58884527D01*
X139628544Y-58975547D01*
X139784602Y-59040189D01*
X139787529Y-59041554D01*
X140148317Y-59229368D01*
X140151107Y-59230978D01*
X140183814Y-59251815D01*
X140494161Y-59449528D01*
X140496802Y-59451377D01*
X140819506Y-59698996D01*
X140821964Y-59701059D01*
X141121864Y-59975867D01*
X141124132Y-59978135D01*
X141378024Y-60255209D01*
X141398935Y-60278029D01*
X141401004Y-60280495D01*
X141586976Y-60522858D01*
X141648619Y-60603193D01*
X141650471Y-60605838D01*
X141869017Y-60948886D01*
X141870631Y-60951682D01*
X142058445Y-61312470D01*
X142059810Y-61315397D01*
X142215467Y-61691184D01*
X142216568Y-61694208D01*
X142302766Y-61967592D01*
X142338881Y-62082135D01*
X142339716Y-62085254D01*
X142427753Y-62482363D01*
X142428314Y-62485543D01*
X142481405Y-62888805D01*
X142481686Y-62892022D01*
X142499500Y-63299999D01*
X142499500Y-113300000D01*
X142481686Y-113707977D01*
X142481405Y-113711194D01*
X142428314Y-114114456D01*
X142427753Y-114117636D01*
X142339716Y-114514745D01*
X142338881Y-114517864D01*
X142216572Y-114905780D01*
X142215467Y-114908815D01*
X142059810Y-115284602D01*
X142058445Y-115287529D01*
X141870631Y-115648317D01*
X141869017Y-115651113D01*
X141650471Y-115994161D01*
X141648619Y-115996806D01*
X141401011Y-116319496D01*
X141398935Y-116321970D01*
X141124140Y-116621856D01*
X141121856Y-116624140D01*
X140821970Y-116898935D01*
X140819496Y-116901011D01*
X140496806Y-117148619D01*
X140494161Y-117150471D01*
X140151113Y-117369017D01*
X140148317Y-117370631D01*
X139787529Y-117558445D01*
X139784602Y-117559810D01*
X139408815Y-117715467D01*
X139405783Y-117716570D01*
X139211821Y-117777726D01*
X139017864Y-117838881D01*
X139014745Y-117839716D01*
X138617636Y-117927753D01*
X138614456Y-117928314D01*
X138211194Y-117981405D01*
X138207977Y-117981686D01*
X137800000Y-117999500D01*
X45500000Y-117999500D01*
X45092022Y-117981686D01*
X45088805Y-117981405D01*
X44685543Y-117928314D01*
X44682363Y-117927753D01*
X44285254Y-117839716D01*
X44282135Y-117838881D01*
X43894208Y-117716568D01*
X43891184Y-117715467D01*
X43515397Y-117559810D01*
X43512470Y-117558445D01*
X43151682Y-117370631D01*
X43148886Y-117369017D01*
X42805838Y-117150471D01*
X42803193Y-117148619D01*
X42676265Y-117051224D01*
X42480495Y-116901004D01*
X42478029Y-116898935D01*
X42292183Y-116728638D01*
X42178135Y-116624132D01*
X42175867Y-116621864D01*
X41901059Y-116321964D01*
X41898996Y-116319506D01*
X41651377Y-115996802D01*
X41649528Y-115994161D01*
X41456589Y-115691308D01*
X41430978Y-115651107D01*
X41429368Y-115648317D01*
X41241554Y-115287529D01*
X41240189Y-115284602D01*
X41227835Y-115254777D01*
X42665827Y-115254777D01*
X42675607Y-115435149D01*
X42723936Y-115609212D01*
X42808550Y-115768813D01*
X42808551Y-115768814D01*
X42925494Y-115906491D01*
X43069308Y-116015816D01*
X43069310Y-116015817D01*
X43160888Y-116058186D01*
X43233256Y-116091667D01*
X43409678Y-116130500D01*
X43409683Y-116130500D01*
X43545019Y-116130500D01*
X43545028Y-116130500D01*
X43679586Y-116115866D01*
X43850774Y-116058186D01*
X44005561Y-115965054D01*
X44136708Y-115840825D01*
X44238083Y-115691307D01*
X44304947Y-115523492D01*
X44334172Y-115345227D01*
X44329268Y-115254777D01*
X138665827Y-115254777D01*
X138675607Y-115435149D01*
X138723936Y-115609212D01*
X138808550Y-115768813D01*
X138808551Y-115768814D01*
X138925494Y-115906491D01*
X139069308Y-116015816D01*
X139069310Y-116015817D01*
X139160888Y-116058186D01*
X139233256Y-116091667D01*
X139409678Y-116130500D01*
X139409683Y-116130500D01*
X139545019Y-116130500D01*
X139545028Y-116130500D01*
X139679586Y-116115866D01*
X139850774Y-116058186D01*
X140005561Y-115965054D01*
X140136708Y-115840825D01*
X140238083Y-115691307D01*
X140304947Y-115523492D01*
X140334172Y-115345227D01*
X140324392Y-115164848D01*
X140276064Y-114990788D01*
X140191449Y-114831186D01*
X140179317Y-114816904D01*
X140074505Y-114693508D01*
X139930691Y-114584183D01*
X139930689Y-114584182D01*
X139766754Y-114508337D01*
X139766749Y-114508335D01*
X139766744Y-114508333D01*
X139590322Y-114469500D01*
X139454972Y-114469500D01*
X139454966Y-114469500D01*
X139454958Y-114469501D01*
X139343591Y-114481613D01*
X139320414Y-114484134D01*
X139320411Y-114484134D01*
X139320411Y-114484135D01*
X139149228Y-114541813D01*
X138994438Y-114634946D01*
X138863288Y-114759178D01*
X138761917Y-114908691D01*
X138695053Y-115076507D01*
X138695052Y-115076508D01*
X138665828Y-115254773D01*
X138665827Y-115254777D01*
X44329268Y-115254777D01*
X44324392Y-115164848D01*
X44276064Y-114990788D01*
X44191449Y-114831186D01*
X44179317Y-114816904D01*
X44074505Y-114693508D01*
X43930691Y-114584183D01*
X43930689Y-114584182D01*
X43766754Y-114508337D01*
X43766749Y-114508335D01*
X43766744Y-114508333D01*
X43590322Y-114469500D01*
X43454972Y-114469500D01*
X43454966Y-114469500D01*
X43454958Y-114469501D01*
X43343591Y-114481613D01*
X43320414Y-114484134D01*
X43320411Y-114484134D01*
X43320411Y-114484135D01*
X43149228Y-114541813D01*
X42994438Y-114634946D01*
X42863288Y-114759178D01*
X42761917Y-114908691D01*
X42695053Y-115076507D01*
X42695052Y-115076508D01*
X42665828Y-115254773D01*
X42665827Y-115254777D01*
X41227835Y-115254777D01*
X41118486Y-114990787D01*
X41084527Y-114908803D01*
X41083435Y-114905804D01*
X40961113Y-114517846D01*
X40960283Y-114514745D01*
X40872246Y-114117636D01*
X40871685Y-114114456D01*
X40847234Y-113928731D01*
X40832919Y-113820000D01*
X110795769Y-113820000D01*
X110814574Y-113938730D01*
X110814574Y-113938731D01*
X110814574Y-113938732D01*
X110814575Y-113938734D01*
X110869151Y-114045845D01*
X110954155Y-114130849D01*
X111061266Y-114185425D01*
X111180000Y-114204231D01*
X111298734Y-114185425D01*
X111405845Y-114130849D01*
X111408310Y-114128383D01*
X111454180Y-114106986D01*
X111498617Y-114118885D01*
X111498965Y-114118204D01*
X111502167Y-114119835D01*
X111503076Y-114120079D01*
X111504139Y-114120837D01*
X111504151Y-114120845D01*
X111504155Y-114120849D01*
X111611266Y-114175425D01*
X111730000Y-114194231D01*
X111848734Y-114175425D01*
X111955845Y-114120849D01*
X111955847Y-114120846D01*
X111960558Y-114117425D01*
X111962146Y-114119610D01*
X111998512Y-114102630D01*
X112047413Y-114115705D01*
X112049596Y-114117536D01*
X112054151Y-114120846D01*
X112054153Y-114120847D01*
X112054155Y-114120849D01*
X112161266Y-114175425D01*
X112280000Y-114194231D01*
X112398734Y-114175425D01*
X112505845Y-114120849D01*
X112590849Y-114035845D01*
X112645425Y-113928734D01*
X112664231Y-113810000D01*
X112645425Y-113691266D01*
X112590849Y-113584155D01*
X112505845Y-113499151D01*
X112398734Y-113444575D01*
X112398731Y-113444574D01*
X112398730Y-113444574D01*
X112280000Y-113425769D01*
X112161269Y-113444574D01*
X112161268Y-113444574D01*
X112054151Y-113499153D01*
X112049442Y-113502575D01*
X112047858Y-113500394D01*
X112011450Y-113517372D01*
X111962555Y-113504271D01*
X111960377Y-113502443D01*
X111955848Y-113499153D01*
X111955845Y-113499151D01*
X111848734Y-113444575D01*
X111848731Y-113444574D01*
X111848730Y-113444574D01*
X111730000Y-113425769D01*
X111611269Y-113444574D01*
X111611268Y-113444574D01*
X111504152Y-113499152D01*
X111501680Y-113501625D01*
X111455802Y-113523014D01*
X111411385Y-113511108D01*
X111411035Y-113511796D01*
X111407800Y-113510147D01*
X111406909Y-113509909D01*
X111405871Y-113509169D01*
X111405851Y-113509154D01*
X111386219Y-113499151D01*
X111298734Y-113454575D01*
X111298731Y-113454574D01*
X111298730Y-113454574D01*
X111180000Y-113435769D01*
X111061269Y-113454574D01*
X111061268Y-113454574D01*
X110954153Y-113509152D01*
X110869152Y-113594153D01*
X110814574Y-113701268D01*
X110814574Y-113701269D01*
X110795769Y-113820000D01*
X40832919Y-113820000D01*
X40818593Y-113711184D01*
X40818313Y-113707977D01*
X40800500Y-113300000D01*
X40800500Y-112650000D01*
X123440769Y-112650000D01*
X123459574Y-112768730D01*
X123459574Y-112768731D01*
X123459574Y-112768732D01*
X123459575Y-112768734D01*
X123514151Y-112875845D01*
X123599155Y-112960849D01*
X123706266Y-113015425D01*
X123825000Y-113034231D01*
X123943734Y-113015425D01*
X124050845Y-112960849D01*
X124135849Y-112875845D01*
X124190425Y-112768734D01*
X124209231Y-112650000D01*
X124190425Y-112531266D01*
X124135849Y-112424155D01*
X124135847Y-112424153D01*
X124135846Y-112424151D01*
X124132425Y-112419442D01*
X124134598Y-112417862D01*
X124117624Y-112381410D01*
X124130751Y-112332522D01*
X124132579Y-112330345D01*
X124135846Y-112325848D01*
X124135845Y-112325848D01*
X124135849Y-112325845D01*
X124190425Y-112218734D01*
X124209231Y-112100000D01*
X124190425Y-111981266D01*
X124135849Y-111874155D01*
X124135847Y-111874153D01*
X124135846Y-111874151D01*
X124132425Y-111869442D01*
X124134598Y-111867862D01*
X124117624Y-111831410D01*
X124130751Y-111782522D01*
X124132579Y-111780345D01*
X124135846Y-111775848D01*
X124135845Y-111775848D01*
X124135849Y-111775845D01*
X124190425Y-111668734D01*
X124209231Y-111550000D01*
X124190425Y-111431266D01*
X124135849Y-111324155D01*
X124050845Y-111239151D01*
X123943734Y-111184575D01*
X123943731Y-111184574D01*
X123943730Y-111184574D01*
X123825000Y-111165769D01*
X123706269Y-111184574D01*
X123706268Y-111184574D01*
X123599153Y-111239152D01*
X123514152Y-111324153D01*
X123459574Y-111431268D01*
X123459574Y-111431269D01*
X123440769Y-111549999D01*
X123459574Y-111668730D01*
X123459574Y-111668731D01*
X123459574Y-111668732D01*
X123459575Y-111668734D01*
X123493123Y-111734575D01*
X123514153Y-111775848D01*
X123517575Y-111780558D01*
X123515394Y-111782141D01*
X123532372Y-111818550D01*
X123519271Y-111867445D01*
X123517443Y-111869622D01*
X123514153Y-111874151D01*
X123459574Y-111981268D01*
X123459574Y-111981269D01*
X123440769Y-112100000D01*
X123459574Y-112218730D01*
X123459574Y-112218731D01*
X123459574Y-112218732D01*
X123459575Y-112218734D01*
X123514151Y-112325845D01*
X123514153Y-112325848D01*
X123517575Y-112330558D01*
X123515394Y-112332141D01*
X123532372Y-112368550D01*
X123519271Y-112417445D01*
X123517443Y-112419622D01*
X123514153Y-112424151D01*
X123459574Y-112531268D01*
X123459574Y-112531269D01*
X123440769Y-112650000D01*
X40800500Y-112650000D01*
X40800500Y-112100000D01*
X109915769Y-112100000D01*
X109934574Y-112218730D01*
X109934574Y-112218731D01*
X109934574Y-112218732D01*
X109934575Y-112218734D01*
X109989151Y-112325845D01*
X110074155Y-112410849D01*
X110181266Y-112465425D01*
X110300000Y-112484231D01*
X110418734Y-112465425D01*
X110525845Y-112410849D01*
X110610849Y-112325845D01*
X110665425Y-112218734D01*
X110684231Y-112100000D01*
X121665769Y-112100000D01*
X121684574Y-112218730D01*
X121684574Y-112218731D01*
X121684574Y-112218732D01*
X121684575Y-112218734D01*
X121739151Y-112325845D01*
X121824155Y-112410849D01*
X121931266Y-112465425D01*
X122050000Y-112484231D01*
X122168734Y-112465425D01*
X122275845Y-112410849D01*
X122360849Y-112325845D01*
X122415425Y-112218734D01*
X122434231Y-112100000D01*
X122415425Y-111981266D01*
X122360849Y-111874155D01*
X122275845Y-111789151D01*
X122168734Y-111734575D01*
X122168731Y-111734574D01*
X122168730Y-111734574D01*
X122050000Y-111715769D01*
X121931269Y-111734574D01*
X121931268Y-111734574D01*
X121824153Y-111789152D01*
X121739152Y-111874153D01*
X121684574Y-111981268D01*
X121684574Y-111981269D01*
X121665769Y-112100000D01*
X110684231Y-112100000D01*
X110665425Y-111981266D01*
X110610849Y-111874155D01*
X110525845Y-111789151D01*
X110418734Y-111734575D01*
X110418731Y-111734574D01*
X110418730Y-111734574D01*
X110300000Y-111715769D01*
X110181269Y-111734574D01*
X110181268Y-111734574D01*
X110074153Y-111789152D01*
X109989152Y-111874153D01*
X109934574Y-111981268D01*
X109934574Y-111981269D01*
X109915769Y-112100000D01*
X40800500Y-112100000D01*
X40800500Y-109750000D01*
X65015769Y-109750000D01*
X65034574Y-109868730D01*
X65034574Y-109868731D01*
X65034574Y-109868732D01*
X65034575Y-109868734D01*
X65089151Y-109975845D01*
X65174155Y-110060849D01*
X65281266Y-110115425D01*
X65400000Y-110134231D01*
X65518734Y-110115425D01*
X65625845Y-110060849D01*
X65625846Y-110060847D01*
X65628903Y-110059290D01*
X65679145Y-110053121D01*
X65696094Y-110059289D01*
X65699154Y-110060848D01*
X65699155Y-110060849D01*
X65806266Y-110115425D01*
X65925000Y-110134231D01*
X66043734Y-110115425D01*
X66150845Y-110060849D01*
X66235849Y-109975845D01*
X66290425Y-109868734D01*
X66309231Y-109750000D01*
X66690769Y-109750000D01*
X66709574Y-109868730D01*
X66709574Y-109868731D01*
X66709574Y-109868732D01*
X66709575Y-109868734D01*
X66764151Y-109975845D01*
X66849155Y-110060849D01*
X66956266Y-110115425D01*
X67075000Y-110134231D01*
X67193734Y-110115425D01*
X67300845Y-110060849D01*
X67300844Y-110060849D01*
X67303905Y-110059290D01*
X67354146Y-110053121D01*
X67371095Y-110059290D01*
X67374155Y-110060849D01*
X67481266Y-110115425D01*
X67600000Y-110134231D01*
X67718734Y-110115425D01*
X67825845Y-110060849D01*
X67910849Y-109975845D01*
X67962233Y-109874999D01*
X134640769Y-109874999D01*
X134659574Y-109993730D01*
X134659574Y-109993731D01*
X134659574Y-109993732D01*
X134659575Y-109993734D01*
X134714151Y-110100845D01*
X134799155Y-110185849D01*
X134906266Y-110240425D01*
X135025000Y-110259231D01*
X135143734Y-110240425D01*
X135250845Y-110185849D01*
X135335849Y-110100845D01*
X135390425Y-109993734D01*
X135409231Y-109875000D01*
X135390425Y-109756266D01*
X135335849Y-109649155D01*
X135250845Y-109564151D01*
X135143734Y-109509575D01*
X135143731Y-109509574D01*
X135143730Y-109509574D01*
X135025000Y-109490769D01*
X134906269Y-109509574D01*
X134906268Y-109509574D01*
X134799153Y-109564152D01*
X134714152Y-109649153D01*
X134659574Y-109756268D01*
X134659574Y-109756269D01*
X134640769Y-109874999D01*
X67962233Y-109874999D01*
X67965425Y-109868734D01*
X67984231Y-109750000D01*
X67965425Y-109631266D01*
X67910849Y-109524155D01*
X67825845Y-109439151D01*
X67718734Y-109384575D01*
X67718731Y-109384574D01*
X67718730Y-109384574D01*
X67600000Y-109365769D01*
X67481269Y-109384574D01*
X67481268Y-109384574D01*
X67371094Y-109440710D01*
X67320852Y-109446878D01*
X67303904Y-109440710D01*
X67300845Y-109439151D01*
X67193734Y-109384575D01*
X67193731Y-109384574D01*
X67193730Y-109384574D01*
X67075000Y-109365769D01*
X66956269Y-109384574D01*
X66956268Y-109384574D01*
X66849153Y-109439152D01*
X66764152Y-109524153D01*
X66709574Y-109631268D01*
X66709574Y-109631269D01*
X66690769Y-109750000D01*
X66309231Y-109750000D01*
X66290425Y-109631266D01*
X66235849Y-109524155D01*
X66150845Y-109439151D01*
X66043734Y-109384575D01*
X66043731Y-109384574D01*
X66043730Y-109384574D01*
X65925000Y-109365769D01*
X65806269Y-109384574D01*
X65806268Y-109384574D01*
X65696095Y-109440710D01*
X65645853Y-109446878D01*
X65628905Y-109440710D01*
X65614660Y-109433452D01*
X65518734Y-109384575D01*
X65518731Y-109384574D01*
X65518730Y-109384574D01*
X65400000Y-109365769D01*
X65281269Y-109384574D01*
X65281268Y-109384574D01*
X65174153Y-109439152D01*
X65089152Y-109524153D01*
X65034574Y-109631268D01*
X65034574Y-109631269D01*
X65015769Y-109750000D01*
X40800500Y-109750000D01*
X40800500Y-103624999D01*
X121440769Y-103624999D01*
X121459574Y-103743730D01*
X121459574Y-103743731D01*
X121459574Y-103743732D01*
X121459575Y-103743734D01*
X121514151Y-103850845D01*
X121599155Y-103935849D01*
X121706266Y-103990425D01*
X121825000Y-104009231D01*
X121943734Y-103990425D01*
X122050845Y-103935849D01*
X122135849Y-103850845D01*
X122190425Y-103743734D01*
X122193392Y-103725000D01*
X130215769Y-103725000D01*
X130234574Y-103843730D01*
X130234574Y-103843731D01*
X130234574Y-103843732D01*
X130234575Y-103843734D01*
X130289151Y-103950845D01*
X130374155Y-104035849D01*
X130481266Y-104090425D01*
X130600000Y-104109231D01*
X130718734Y-104090425D01*
X130825845Y-104035849D01*
X130910849Y-103950845D01*
X130965425Y-103843734D01*
X130984231Y-103725000D01*
X130965425Y-103606266D01*
X130910849Y-103499155D01*
X130825845Y-103414151D01*
X130718734Y-103359575D01*
X130718731Y-103359574D01*
X130718730Y-103359574D01*
X130600000Y-103340769D01*
X130481269Y-103359574D01*
X130481268Y-103359574D01*
X130374153Y-103414152D01*
X130289152Y-103499153D01*
X130234574Y-103606268D01*
X130234574Y-103606269D01*
X130215769Y-103725000D01*
X122193392Y-103725000D01*
X122209231Y-103625000D01*
X122190425Y-103506266D01*
X122135849Y-103399155D01*
X122050845Y-103314151D01*
X121943734Y-103259575D01*
X121943731Y-103259574D01*
X121943730Y-103259574D01*
X121825000Y-103240769D01*
X121706269Y-103259574D01*
X121706268Y-103259574D01*
X121599153Y-103314152D01*
X121514152Y-103399153D01*
X121459574Y-103506268D01*
X121459574Y-103506269D01*
X121440769Y-103624999D01*
X40800500Y-103624999D01*
X40800500Y-100425000D01*
X112990769Y-100425000D01*
X113009574Y-100543730D01*
X113009574Y-100543731D01*
X113009574Y-100543732D01*
X113009575Y-100543734D01*
X113064151Y-100650845D01*
X113149155Y-100735849D01*
X113256266Y-100790425D01*
X113375000Y-100809231D01*
X113493734Y-100790425D01*
X113600845Y-100735849D01*
X113685849Y-100650845D01*
X113740425Y-100543734D01*
X113759231Y-100425000D01*
X113740425Y-100306266D01*
X113685849Y-100199155D01*
X113600845Y-100114151D01*
X113493734Y-100059575D01*
X113493731Y-100059574D01*
X113493730Y-100059574D01*
X113375000Y-100040769D01*
X113256269Y-100059574D01*
X113256268Y-100059574D01*
X113149153Y-100114152D01*
X113064152Y-100199153D01*
X113009574Y-100306268D01*
X113009574Y-100306269D01*
X112990769Y-100425000D01*
X40800500Y-100425000D01*
X40800500Y-98099999D01*
X65825769Y-98099999D01*
X65844574Y-98218730D01*
X65844574Y-98218731D01*
X65844574Y-98218732D01*
X65844575Y-98218734D01*
X65899151Y-98325845D01*
X65984155Y-98410849D01*
X66091266Y-98465425D01*
X66210000Y-98484231D01*
X66328734Y-98465425D01*
X66435845Y-98410849D01*
X66520849Y-98325845D01*
X66575425Y-98218734D01*
X66594231Y-98100000D01*
X66575425Y-97981266D01*
X66520849Y-97874155D01*
X66435845Y-97789151D01*
X66328734Y-97734575D01*
X66328731Y-97734574D01*
X66328730Y-97734574D01*
X66210000Y-97715769D01*
X66091269Y-97734574D01*
X66091268Y-97734574D01*
X65984153Y-97789152D01*
X65899152Y-97874153D01*
X65844574Y-97981268D01*
X65844574Y-97981269D01*
X65825769Y-98099999D01*
X40800500Y-98099999D01*
X40800500Y-97100000D01*
X64415769Y-97100000D01*
X64434574Y-97218730D01*
X64434574Y-97218731D01*
X64434574Y-97218732D01*
X64434575Y-97218734D01*
X64489151Y-97325845D01*
X64574155Y-97410849D01*
X64681266Y-97465425D01*
X64800000Y-97484231D01*
X64918734Y-97465425D01*
X65025845Y-97410849D01*
X65110849Y-97325845D01*
X65162233Y-97224999D01*
X65350769Y-97224999D01*
X65369574Y-97343730D01*
X65369574Y-97343731D01*
X65369574Y-97343732D01*
X65369575Y-97343734D01*
X65424151Y-97450845D01*
X65509155Y-97535849D01*
X65616266Y-97590425D01*
X65735000Y-97609231D01*
X65853734Y-97590425D01*
X65960845Y-97535849D01*
X66045849Y-97450845D01*
X66059018Y-97425000D01*
X66925769Y-97425000D01*
X66944574Y-97543730D01*
X66944574Y-97543731D01*
X66944574Y-97543732D01*
X66944575Y-97543734D01*
X66999151Y-97650845D01*
X67084155Y-97735849D01*
X67191266Y-97790425D01*
X67310000Y-97809231D01*
X67428734Y-97790425D01*
X67535845Y-97735849D01*
X67620849Y-97650845D01*
X67675425Y-97543734D01*
X67694231Y-97425000D01*
X67675425Y-97306266D01*
X67620849Y-97199155D01*
X67535845Y-97114151D01*
X67428734Y-97059575D01*
X67428731Y-97059574D01*
X67428730Y-97059574D01*
X67310000Y-97040769D01*
X67191269Y-97059574D01*
X67191268Y-97059574D01*
X67084153Y-97114152D01*
X66999152Y-97199153D01*
X66944574Y-97306268D01*
X66944574Y-97306269D01*
X66925769Y-97425000D01*
X66059018Y-97425000D01*
X66100425Y-97343734D01*
X66119231Y-97225000D01*
X66100425Y-97106266D01*
X66045849Y-96999155D01*
X66021694Y-96975000D01*
X104490769Y-96975000D01*
X104491762Y-96981268D01*
X104509574Y-97093730D01*
X104509574Y-97093731D01*
X104509574Y-97093732D01*
X104509575Y-97093734D01*
X104564151Y-97200845D01*
X104649155Y-97285849D01*
X104756266Y-97340425D01*
X104875000Y-97359231D01*
X104993734Y-97340425D01*
X105100845Y-97285849D01*
X105185849Y-97200845D01*
X105240425Y-97093734D01*
X105259231Y-96975000D01*
X105240425Y-96856266D01*
X105185849Y-96749155D01*
X105100845Y-96664151D01*
X104993734Y-96609575D01*
X104993731Y-96609574D01*
X104993730Y-96609574D01*
X104875000Y-96590769D01*
X104756269Y-96609574D01*
X104756268Y-96609574D01*
X104649153Y-96664152D01*
X104564152Y-96749153D01*
X104509574Y-96856268D01*
X104509574Y-96856269D01*
X104490769Y-96974999D01*
X104490769Y-96975000D01*
X66021694Y-96975000D01*
X65960845Y-96914151D01*
X65853734Y-96859575D01*
X65853731Y-96859574D01*
X65853730Y-96859574D01*
X65735000Y-96840769D01*
X65616269Y-96859574D01*
X65616268Y-96859574D01*
X65509153Y-96914152D01*
X65424152Y-96999153D01*
X65369574Y-97106268D01*
X65369574Y-97106269D01*
X65350769Y-97224999D01*
X65162233Y-97224999D01*
X65165425Y-97218734D01*
X65184231Y-97100000D01*
X65165425Y-96981266D01*
X65110849Y-96874155D01*
X65025845Y-96789151D01*
X64918734Y-96734575D01*
X64918731Y-96734574D01*
X64918730Y-96734574D01*
X64800000Y-96715769D01*
X64681269Y-96734574D01*
X64681268Y-96734574D01*
X64574153Y-96789152D01*
X64489152Y-96874153D01*
X64434574Y-96981268D01*
X64434574Y-96981269D01*
X64415769Y-97100000D01*
X40800500Y-97100000D01*
X40800500Y-96425000D01*
X69025769Y-96425000D01*
X69044574Y-96543730D01*
X69044574Y-96543731D01*
X69044574Y-96543732D01*
X69044575Y-96543734D01*
X69099151Y-96650845D01*
X69184155Y-96735849D01*
X69291266Y-96790425D01*
X69410000Y-96809231D01*
X69528734Y-96790425D01*
X69635845Y-96735849D01*
X69720849Y-96650845D01*
X69775425Y-96543734D01*
X69794231Y-96425000D01*
X69775425Y-96306266D01*
X69720849Y-96199155D01*
X69635845Y-96114151D01*
X69528734Y-96059575D01*
X69528731Y-96059574D01*
X69528730Y-96059574D01*
X69410000Y-96040769D01*
X69291269Y-96059574D01*
X69291268Y-96059574D01*
X69184153Y-96114152D01*
X69099152Y-96199153D01*
X69044574Y-96306268D01*
X69044574Y-96306269D01*
X69025769Y-96425000D01*
X40800500Y-96425000D01*
X40800500Y-94824999D01*
X68775769Y-94824999D01*
X68794574Y-94943730D01*
X68794574Y-94943731D01*
X68794574Y-94943732D01*
X68794575Y-94943734D01*
X68849151Y-95050845D01*
X68934155Y-95135849D01*
X69041266Y-95190425D01*
X69160000Y-95209231D01*
X69278734Y-95190425D01*
X69385845Y-95135849D01*
X69470849Y-95050845D01*
X69525425Y-94943734D01*
X69544231Y-94825000D01*
X69525425Y-94706266D01*
X69470849Y-94599155D01*
X69385845Y-94514151D01*
X69278734Y-94459575D01*
X69278731Y-94459574D01*
X69278730Y-94459574D01*
X69160000Y-94440769D01*
X69041269Y-94459574D01*
X69041268Y-94459574D01*
X68934153Y-94514152D01*
X68849152Y-94599153D01*
X68794574Y-94706268D01*
X68794574Y-94706269D01*
X68775769Y-94824999D01*
X40800500Y-94824999D01*
X40800500Y-94075000D01*
X62390769Y-94075000D01*
X62409574Y-94193730D01*
X62409574Y-94193731D01*
X62409574Y-94193732D01*
X62409575Y-94193734D01*
X62464151Y-94300845D01*
X62549155Y-94385849D01*
X62656266Y-94440425D01*
X62775000Y-94459231D01*
X62893734Y-94440425D01*
X63000845Y-94385849D01*
X63085849Y-94300845D01*
X63086280Y-94300000D01*
X70080769Y-94300000D01*
X70099574Y-94418730D01*
X70099574Y-94418731D01*
X70099574Y-94418732D01*
X70099575Y-94418734D01*
X70154151Y-94525845D01*
X70239155Y-94610849D01*
X70346266Y-94665425D01*
X70465000Y-94684231D01*
X70583734Y-94665425D01*
X70690845Y-94610849D01*
X70775849Y-94525845D01*
X70830425Y-94418734D01*
X70849231Y-94300000D01*
X70830425Y-94181266D01*
X70775849Y-94074155D01*
X70690845Y-93989151D01*
X70583734Y-93934575D01*
X70583731Y-93934574D01*
X70583730Y-93934574D01*
X70465000Y-93915769D01*
X70346269Y-93934574D01*
X70346268Y-93934574D01*
X70239153Y-93989152D01*
X70154152Y-94074153D01*
X70099574Y-94181268D01*
X70099574Y-94181269D01*
X70080769Y-94300000D01*
X63086280Y-94300000D01*
X63140425Y-94193734D01*
X63159231Y-94075000D01*
X63140425Y-93956266D01*
X63085849Y-93849155D01*
X63000845Y-93764151D01*
X62893734Y-93709575D01*
X62893731Y-93709574D01*
X62893730Y-93709574D01*
X62775000Y-93690769D01*
X62656269Y-93709574D01*
X62656268Y-93709574D01*
X62549153Y-93764152D01*
X62464152Y-93849153D01*
X62409574Y-93956268D01*
X62409574Y-93956269D01*
X62390769Y-94075000D01*
X40800500Y-94075000D01*
X40800500Y-93130000D01*
X62645769Y-93130000D01*
X62664574Y-93248730D01*
X62664574Y-93248731D01*
X62664574Y-93248732D01*
X62664575Y-93248734D01*
X62719151Y-93355845D01*
X62804155Y-93440849D01*
X62911266Y-93495425D01*
X63030000Y-93514231D01*
X63148734Y-93495425D01*
X63255845Y-93440849D01*
X63340849Y-93355845D01*
X63395425Y-93248734D01*
X63414231Y-93130000D01*
X63395425Y-93011266D01*
X63340849Y-92904155D01*
X63255845Y-92819151D01*
X63148734Y-92764575D01*
X63148731Y-92764574D01*
X63148730Y-92764574D01*
X63030000Y-92745769D01*
X62911269Y-92764574D01*
X62911268Y-92764574D01*
X62804153Y-92819152D01*
X62719152Y-92904153D01*
X62664574Y-93011268D01*
X62664574Y-93011269D01*
X62645769Y-93130000D01*
X40800500Y-93130000D01*
X40800500Y-91324999D01*
X65325769Y-91324999D01*
X65344574Y-91443730D01*
X65344574Y-91443731D01*
X65344574Y-91443732D01*
X65344575Y-91443734D01*
X65399151Y-91550845D01*
X65484155Y-91635849D01*
X65591266Y-91690425D01*
X65710000Y-91709231D01*
X65828734Y-91690425D01*
X65935845Y-91635849D01*
X66020849Y-91550845D01*
X66075425Y-91443734D01*
X66094231Y-91325000D01*
X66075425Y-91206266D01*
X66020849Y-91099155D01*
X65935845Y-91014151D01*
X65828734Y-90959575D01*
X65828731Y-90959574D01*
X65828730Y-90959574D01*
X65710000Y-90940769D01*
X65591269Y-90959574D01*
X65591268Y-90959574D01*
X65484153Y-91014152D01*
X65399152Y-91099153D01*
X65344574Y-91206268D01*
X65344574Y-91206269D01*
X65325769Y-91324999D01*
X40800500Y-91324999D01*
X40800500Y-90800000D01*
X66115769Y-90800000D01*
X66134574Y-90918730D01*
X66134574Y-90918731D01*
X66134574Y-90918732D01*
X66134575Y-90918734D01*
X66189151Y-91025845D01*
X66274155Y-91110849D01*
X66381266Y-91165425D01*
X66500000Y-91184231D01*
X66618734Y-91165425D01*
X66725845Y-91110849D01*
X66736694Y-91100000D01*
X67015769Y-91100000D01*
X67034574Y-91218730D01*
X67034574Y-91218731D01*
X67034574Y-91218732D01*
X67034575Y-91218734D01*
X67089151Y-91325845D01*
X67174155Y-91410849D01*
X67281266Y-91465425D01*
X67400000Y-91484231D01*
X67518734Y-91465425D01*
X67625845Y-91410849D01*
X67710849Y-91325845D01*
X67765425Y-91218734D01*
X67768392Y-91200000D01*
X68015769Y-91200000D01*
X68034574Y-91318730D01*
X68034574Y-91318731D01*
X68034574Y-91318732D01*
X68034575Y-91318734D01*
X68089151Y-91425845D01*
X68174155Y-91510849D01*
X68281266Y-91565425D01*
X68400000Y-91584231D01*
X68518734Y-91565425D01*
X68625845Y-91510849D01*
X68710849Y-91425845D01*
X68765425Y-91318734D01*
X68784231Y-91200000D01*
X68765425Y-91081266D01*
X68710849Y-90974155D01*
X68625845Y-90889151D01*
X68518734Y-90834575D01*
X68518731Y-90834574D01*
X68518730Y-90834574D01*
X68400000Y-90815769D01*
X68281269Y-90834574D01*
X68281268Y-90834574D01*
X68174153Y-90889152D01*
X68089152Y-90974153D01*
X68034574Y-91081268D01*
X68034574Y-91081269D01*
X68015769Y-91200000D01*
X67768392Y-91200000D01*
X67784231Y-91100000D01*
X67765425Y-90981266D01*
X67710849Y-90874155D01*
X67625845Y-90789151D01*
X67518734Y-90734575D01*
X67518731Y-90734574D01*
X67518730Y-90734574D01*
X67400000Y-90715769D01*
X67281269Y-90734574D01*
X67281268Y-90734574D01*
X67174153Y-90789152D01*
X67089152Y-90874153D01*
X67034574Y-90981268D01*
X67034574Y-90981269D01*
X67015769Y-91100000D01*
X66736694Y-91100000D01*
X66810849Y-91025845D01*
X66865425Y-90918734D01*
X66884231Y-90800000D01*
X66865425Y-90681266D01*
X66810849Y-90574155D01*
X66786694Y-90550000D01*
X124354632Y-90550000D01*
X124373982Y-90672171D01*
X124373982Y-90672172D01*
X124373982Y-90672173D01*
X124373983Y-90672175D01*
X124430141Y-90782391D01*
X124517609Y-90869859D01*
X124627825Y-90926017D01*
X124750000Y-90945368D01*
X124872175Y-90926017D01*
X124982391Y-90869859D01*
X125069859Y-90782391D01*
X125126017Y-90672175D01*
X125145368Y-90550000D01*
X125604632Y-90550000D01*
X125623982Y-90672171D01*
X125623982Y-90672172D01*
X125623982Y-90672173D01*
X125623983Y-90672175D01*
X125680141Y-90782391D01*
X125767609Y-90869859D01*
X125877825Y-90926017D01*
X126000000Y-90945368D01*
X126122175Y-90926017D01*
X126232391Y-90869859D01*
X126319859Y-90782391D01*
X126376017Y-90672175D01*
X126395368Y-90550000D01*
X126376017Y-90427825D01*
X126319859Y-90317609D01*
X126232391Y-90230141D01*
X126122175Y-90173983D01*
X126122172Y-90173982D01*
X126122171Y-90173982D01*
X126000000Y-90154632D01*
X125877828Y-90173982D01*
X125877827Y-90173982D01*
X125767607Y-90230142D01*
X125680142Y-90317607D01*
X125623982Y-90427827D01*
X125623982Y-90427828D01*
X125604632Y-90550000D01*
X125145368Y-90550000D01*
X125126017Y-90427825D01*
X125069859Y-90317609D01*
X124982391Y-90230141D01*
X124872175Y-90173983D01*
X124872172Y-90173982D01*
X124872171Y-90173982D01*
X124750000Y-90154632D01*
X124627828Y-90173982D01*
X124627827Y-90173982D01*
X124517607Y-90230142D01*
X124430142Y-90317607D01*
X124373982Y-90427827D01*
X124373982Y-90427828D01*
X124354632Y-90550000D01*
X66786694Y-90550000D01*
X66725845Y-90489151D01*
X66618734Y-90434575D01*
X66618731Y-90434574D01*
X66618730Y-90434574D01*
X66500000Y-90415769D01*
X66381269Y-90434574D01*
X66381268Y-90434574D01*
X66274153Y-90489152D01*
X66189152Y-90574153D01*
X66134574Y-90681268D01*
X66134574Y-90681269D01*
X66115769Y-90800000D01*
X40800500Y-90800000D01*
X40800500Y-89200000D01*
X117665769Y-89200000D01*
X117684574Y-89318730D01*
X117684574Y-89318731D01*
X117684574Y-89318732D01*
X117684575Y-89318734D01*
X117739151Y-89425845D01*
X117824155Y-89510849D01*
X117931266Y-89565425D01*
X118050000Y-89584231D01*
X118168734Y-89565425D01*
X118275845Y-89510849D01*
X118360849Y-89425845D01*
X118415425Y-89318734D01*
X118434231Y-89200000D01*
X120140769Y-89200000D01*
X120159574Y-89318730D01*
X120159574Y-89318731D01*
X120159574Y-89318732D01*
X120159575Y-89318734D01*
X120214151Y-89425845D01*
X120299155Y-89510849D01*
X120406266Y-89565425D01*
X120525000Y-89584231D01*
X120643734Y-89565425D01*
X120750845Y-89510849D01*
X120835849Y-89425845D01*
X120890425Y-89318734D01*
X120909231Y-89200000D01*
X120890425Y-89081266D01*
X120835849Y-88974155D01*
X120835847Y-88974153D01*
X120835846Y-88974151D01*
X120832425Y-88969442D01*
X120834605Y-88967858D01*
X120817628Y-88931450D01*
X120830729Y-88882555D01*
X120832556Y-88880377D01*
X120835846Y-88875848D01*
X120835845Y-88875848D01*
X120835849Y-88875845D01*
X120890425Y-88768734D01*
X120909231Y-88650000D01*
X120890425Y-88531266D01*
X120835849Y-88424155D01*
X120835847Y-88424153D01*
X120835846Y-88424151D01*
X120832425Y-88419442D01*
X120834598Y-88417862D01*
X120817624Y-88381410D01*
X120830751Y-88332522D01*
X120832579Y-88330345D01*
X120835846Y-88325848D01*
X120835846Y-88325847D01*
X120835849Y-88325845D01*
X120890425Y-88218734D01*
X120909231Y-88100000D01*
X120890425Y-87981266D01*
X120835849Y-87874155D01*
X120750845Y-87789151D01*
X120643734Y-87734575D01*
X120643731Y-87734574D01*
X120643730Y-87734574D01*
X120525000Y-87715769D01*
X120406269Y-87734574D01*
X120406268Y-87734574D01*
X120406266Y-87734574D01*
X120406266Y-87734575D01*
X120352710Y-87761862D01*
X120299153Y-87789152D01*
X120214152Y-87874153D01*
X120159574Y-87981268D01*
X120159574Y-87981269D01*
X120140769Y-88100000D01*
X120159574Y-88218730D01*
X120159574Y-88218731D01*
X120159574Y-88218732D01*
X120159575Y-88218734D01*
X120214151Y-88325845D01*
X120214153Y-88325848D01*
X120217575Y-88330558D01*
X120215394Y-88332142D01*
X120232371Y-88368549D01*
X120219270Y-88417444D01*
X120217442Y-88419623D01*
X120214153Y-88424151D01*
X120159574Y-88531268D01*
X120159574Y-88531269D01*
X120140769Y-88650000D01*
X120159574Y-88768730D01*
X120159574Y-88768731D01*
X120159574Y-88768732D01*
X120159575Y-88768734D01*
X120214151Y-88875845D01*
X120214153Y-88875848D01*
X120217575Y-88880558D01*
X120215400Y-88882137D01*
X120232375Y-88918589D01*
X120219248Y-88967477D01*
X120217419Y-88969656D01*
X120214153Y-88974151D01*
X120159574Y-89081268D01*
X120159574Y-89081269D01*
X120140769Y-89200000D01*
X118434231Y-89200000D01*
X118415425Y-89081266D01*
X118360849Y-88974155D01*
X118360847Y-88974153D01*
X118360846Y-88974151D01*
X118357425Y-88969442D01*
X118359604Y-88967858D01*
X118342627Y-88931449D01*
X118355728Y-88882554D01*
X118357555Y-88880378D01*
X118360846Y-88875848D01*
X118360846Y-88875847D01*
X118360849Y-88875845D01*
X118415425Y-88768734D01*
X118434231Y-88650000D01*
X118415425Y-88531266D01*
X118360849Y-88424155D01*
X118360847Y-88424153D01*
X118360846Y-88424151D01*
X118357425Y-88419442D01*
X118359610Y-88417853D01*
X118342630Y-88381488D01*
X118355705Y-88332587D01*
X118357536Y-88330403D01*
X118360846Y-88325848D01*
X118360846Y-88325847D01*
X118360849Y-88325845D01*
X118415425Y-88218734D01*
X118434231Y-88100000D01*
X118415425Y-87981266D01*
X118360849Y-87874155D01*
X118275845Y-87789151D01*
X118168734Y-87734575D01*
X118168731Y-87734574D01*
X118168730Y-87734574D01*
X118050000Y-87715769D01*
X117931269Y-87734574D01*
X117931268Y-87734574D01*
X117931266Y-87734574D01*
X117931266Y-87734575D01*
X117877710Y-87761862D01*
X117824153Y-87789152D01*
X117739152Y-87874153D01*
X117684574Y-87981268D01*
X117684574Y-87981269D01*
X117665769Y-88100000D01*
X117684574Y-88218730D01*
X117684574Y-88218731D01*
X117684574Y-88218732D01*
X117684575Y-88218734D01*
X117739151Y-88325845D01*
X117739153Y-88325848D01*
X117742575Y-88330558D01*
X117740394Y-88332142D01*
X117757371Y-88368549D01*
X117744270Y-88417444D01*
X117742442Y-88419623D01*
X117739153Y-88424151D01*
X117684574Y-88531268D01*
X117684574Y-88531269D01*
X117665769Y-88650000D01*
X117684574Y-88768730D01*
X117684574Y-88768731D01*
X117684574Y-88768732D01*
X117684575Y-88768734D01*
X117739151Y-88875845D01*
X117739153Y-88875848D01*
X117742575Y-88880558D01*
X117740400Y-88882137D01*
X117757375Y-88918589D01*
X117744248Y-88967477D01*
X117742419Y-88969656D01*
X117739153Y-88974151D01*
X117684574Y-89081268D01*
X117684574Y-89081269D01*
X117665769Y-89200000D01*
X40800500Y-89200000D01*
X40800500Y-87525000D01*
X103615769Y-87525000D01*
X103634574Y-87643730D01*
X103634574Y-87643731D01*
X103634574Y-87643732D01*
X103634575Y-87643734D01*
X103689151Y-87750845D01*
X103774155Y-87835849D01*
X103881266Y-87890425D01*
X104000000Y-87909231D01*
X104118734Y-87890425D01*
X104225845Y-87835849D01*
X104310849Y-87750845D01*
X104365425Y-87643734D01*
X104384231Y-87525000D01*
X104365425Y-87406266D01*
X104310849Y-87299155D01*
X104225845Y-87214151D01*
X104118734Y-87159575D01*
X104118731Y-87159574D01*
X104118730Y-87159574D01*
X104000000Y-87140769D01*
X103881269Y-87159574D01*
X103881268Y-87159574D01*
X103774153Y-87214152D01*
X103689152Y-87299153D01*
X103634574Y-87406268D01*
X103634574Y-87406269D01*
X103615769Y-87525000D01*
X40800500Y-87525000D01*
X40800500Y-84675000D01*
X126565769Y-84675000D01*
X126584574Y-84793730D01*
X126584574Y-84793731D01*
X126584574Y-84793732D01*
X126584575Y-84793734D01*
X126639151Y-84900845D01*
X126724155Y-84985849D01*
X126831266Y-85040425D01*
X126950000Y-85059231D01*
X127068734Y-85040425D01*
X127175845Y-84985849D01*
X127260849Y-84900845D01*
X127315425Y-84793734D01*
X127334231Y-84675000D01*
X127315425Y-84556266D01*
X127260849Y-84449155D01*
X127175845Y-84364151D01*
X127068734Y-84309575D01*
X127068731Y-84309574D01*
X127068730Y-84309574D01*
X126950000Y-84290769D01*
X126831269Y-84309574D01*
X126831268Y-84309574D01*
X126724153Y-84364152D01*
X126639152Y-84449153D01*
X126584574Y-84556268D01*
X126584574Y-84556269D01*
X126565769Y-84675000D01*
X40800500Y-84675000D01*
X40800500Y-84200000D01*
X118540769Y-84200000D01*
X118559574Y-84318730D01*
X118559574Y-84318731D01*
X118559574Y-84318732D01*
X118559575Y-84318734D01*
X118614151Y-84425845D01*
X118699155Y-84510849D01*
X118806266Y-84565425D01*
X118925000Y-84584231D01*
X119043734Y-84565425D01*
X119150845Y-84510849D01*
X119235849Y-84425845D01*
X119290425Y-84318734D01*
X119309231Y-84200000D01*
X119290425Y-84081266D01*
X119235849Y-83974155D01*
X119150845Y-83889151D01*
X119043734Y-83834575D01*
X119043731Y-83834574D01*
X119043730Y-83834574D01*
X118925000Y-83815769D01*
X118806269Y-83834574D01*
X118806268Y-83834574D01*
X118699153Y-83889152D01*
X118614152Y-83974153D01*
X118559574Y-84081268D01*
X118559574Y-84081269D01*
X118540769Y-84200000D01*
X40800500Y-84200000D01*
X40800500Y-82400000D01*
X96815769Y-82400000D01*
X96834574Y-82518730D01*
X96834574Y-82518731D01*
X96834574Y-82518732D01*
X96834575Y-82518734D01*
X96889151Y-82625845D01*
X96974155Y-82710849D01*
X97081266Y-82765425D01*
X97200000Y-82784231D01*
X97318734Y-82765425D01*
X97425845Y-82710849D01*
X97510849Y-82625845D01*
X97565425Y-82518734D01*
X97584231Y-82400000D01*
X97565425Y-82281266D01*
X97510849Y-82174155D01*
X97436694Y-82100000D01*
X97715769Y-82100000D01*
X97734574Y-82218730D01*
X97734574Y-82218731D01*
X97734574Y-82218732D01*
X97734575Y-82218734D01*
X97789151Y-82325845D01*
X97874155Y-82410849D01*
X97981266Y-82465425D01*
X98100000Y-82484231D01*
X98218734Y-82465425D01*
X98325845Y-82410849D01*
X98410849Y-82325845D01*
X98465425Y-82218734D01*
X98484231Y-82100000D01*
X98465425Y-81981266D01*
X98462232Y-81975000D01*
X129090769Y-81975000D01*
X129091762Y-81981268D01*
X129109574Y-82093730D01*
X129109574Y-82093731D01*
X129109574Y-82093732D01*
X129109575Y-82093734D01*
X129164151Y-82200845D01*
X129249155Y-82285849D01*
X129356266Y-82340425D01*
X129475000Y-82359231D01*
X129593734Y-82340425D01*
X129700845Y-82285849D01*
X129785849Y-82200845D01*
X129840425Y-82093734D01*
X129859231Y-81975000D01*
X129840425Y-81856266D01*
X129785849Y-81749155D01*
X129700845Y-81664151D01*
X129593734Y-81609575D01*
X129593731Y-81609574D01*
X129593730Y-81609574D01*
X129475000Y-81590769D01*
X129356269Y-81609574D01*
X129356268Y-81609574D01*
X129249153Y-81664152D01*
X129164152Y-81749153D01*
X129109574Y-81856268D01*
X129109574Y-81856269D01*
X129090769Y-81974999D01*
X129090769Y-81975000D01*
X98462232Y-81975000D01*
X98410849Y-81874155D01*
X98325845Y-81789151D01*
X98218734Y-81734575D01*
X98218731Y-81734574D01*
X98218730Y-81734574D01*
X98100000Y-81715769D01*
X97981269Y-81734574D01*
X97981268Y-81734574D01*
X97874153Y-81789152D01*
X97789152Y-81874153D01*
X97734574Y-81981268D01*
X97734574Y-81981269D01*
X97715769Y-82100000D01*
X97436694Y-82100000D01*
X97425845Y-82089151D01*
X97318734Y-82034575D01*
X97318731Y-82034574D01*
X97318730Y-82034574D01*
X97200000Y-82015769D01*
X97081269Y-82034574D01*
X97081268Y-82034574D01*
X96974153Y-82089152D01*
X96889152Y-82174153D01*
X96834574Y-82281268D01*
X96834574Y-82281269D01*
X96815769Y-82400000D01*
X40800500Y-82400000D01*
X40800500Y-81725000D01*
X96090769Y-81725000D01*
X96109574Y-81843730D01*
X96109574Y-81843731D01*
X96109574Y-81843732D01*
X96109575Y-81843734D01*
X96164151Y-81950845D01*
X96249155Y-82035849D01*
X96356266Y-82090425D01*
X96475000Y-82109231D01*
X96593734Y-82090425D01*
X96700845Y-82035849D01*
X96785849Y-81950845D01*
X96840425Y-81843734D01*
X96859231Y-81725000D01*
X96840425Y-81606266D01*
X96785849Y-81499155D01*
X96700845Y-81414151D01*
X96593734Y-81359575D01*
X96593731Y-81359574D01*
X96593730Y-81359574D01*
X96475000Y-81340769D01*
X96356269Y-81359574D01*
X96356268Y-81359574D01*
X96249153Y-81414152D01*
X96164152Y-81499153D01*
X96109574Y-81606268D01*
X96109574Y-81606269D01*
X96090769Y-81725000D01*
X40800500Y-81725000D01*
X40800500Y-81200000D01*
X103215769Y-81200000D01*
X103234574Y-81318730D01*
X103234574Y-81318731D01*
X103234574Y-81318732D01*
X103234575Y-81318734D01*
X103289151Y-81425845D01*
X103374155Y-81510849D01*
X103481266Y-81565425D01*
X103600000Y-81584231D01*
X103718734Y-81565425D01*
X103825845Y-81510849D01*
X103910849Y-81425845D01*
X103965425Y-81318734D01*
X103984231Y-81200000D01*
X103965425Y-81081266D01*
X103962232Y-81075000D01*
X115240769Y-81075000D01*
X115242286Y-81084575D01*
X115259574Y-81193730D01*
X115259574Y-81193731D01*
X115259574Y-81193732D01*
X115259575Y-81193734D01*
X115314151Y-81300845D01*
X115399155Y-81385849D01*
X115506266Y-81440425D01*
X115625000Y-81459231D01*
X115743734Y-81440425D01*
X115850845Y-81385849D01*
X115850847Y-81385846D01*
X115855558Y-81382425D01*
X115857150Y-81384616D01*
X115893472Y-81367633D01*
X115942380Y-81380683D01*
X115944563Y-81382513D01*
X115949151Y-81385846D01*
X115949153Y-81385847D01*
X115949155Y-81385849D01*
X116056266Y-81440425D01*
X116175000Y-81459231D01*
X116293734Y-81440425D01*
X116400845Y-81385849D01*
X116400847Y-81385846D01*
X116405558Y-81382425D01*
X116407146Y-81384610D01*
X116443512Y-81367630D01*
X116492413Y-81380705D01*
X116494596Y-81382536D01*
X116499151Y-81385846D01*
X116499153Y-81385847D01*
X116499155Y-81385849D01*
X116606266Y-81440425D01*
X116725000Y-81459231D01*
X116783281Y-81450000D01*
X123315769Y-81450000D01*
X123334574Y-81568730D01*
X123334574Y-81568731D01*
X123334574Y-81568732D01*
X123334575Y-81568734D01*
X123389151Y-81675845D01*
X123474155Y-81760849D01*
X123581266Y-81815425D01*
X123700000Y-81834231D01*
X123818734Y-81815425D01*
X123925845Y-81760849D01*
X124010849Y-81675845D01*
X124065425Y-81568734D01*
X124084231Y-81450000D01*
X124084231Y-81449999D01*
X124365769Y-81449999D01*
X124384574Y-81568730D01*
X124384574Y-81568731D01*
X124384574Y-81568732D01*
X124384575Y-81568734D01*
X124439151Y-81675845D01*
X124524155Y-81760849D01*
X124631266Y-81815425D01*
X124750000Y-81834231D01*
X124868734Y-81815425D01*
X124975845Y-81760849D01*
X125060849Y-81675845D01*
X125115425Y-81568734D01*
X125134231Y-81450000D01*
X125115425Y-81331266D01*
X125060849Y-81224155D01*
X124975845Y-81139151D01*
X124868734Y-81084575D01*
X124868731Y-81084574D01*
X124868730Y-81084574D01*
X124750000Y-81065769D01*
X124631269Y-81084574D01*
X124631268Y-81084574D01*
X124524153Y-81139152D01*
X124439152Y-81224153D01*
X124384574Y-81331268D01*
X124384574Y-81331269D01*
X124365769Y-81449999D01*
X124084231Y-81449999D01*
X124065425Y-81331266D01*
X124010849Y-81224155D01*
X123925845Y-81139151D01*
X123818734Y-81084575D01*
X123818731Y-81084574D01*
X123818730Y-81084574D01*
X123700000Y-81065769D01*
X123581269Y-81084574D01*
X123581268Y-81084574D01*
X123474153Y-81139152D01*
X123389152Y-81224153D01*
X123334574Y-81331268D01*
X123334574Y-81331269D01*
X123315769Y-81450000D01*
X116783281Y-81450000D01*
X116843734Y-81440425D01*
X116950845Y-81385849D01*
X117035849Y-81300845D01*
X117090425Y-81193734D01*
X117109231Y-81075000D01*
X117090425Y-80956266D01*
X117035849Y-80849155D01*
X116950845Y-80764151D01*
X116843734Y-80709575D01*
X116843731Y-80709574D01*
X116843730Y-80709574D01*
X116725000Y-80690769D01*
X116606269Y-80709574D01*
X116606268Y-80709574D01*
X116499151Y-80764153D01*
X116494442Y-80767575D01*
X116492858Y-80765394D01*
X116456450Y-80782372D01*
X116407555Y-80769271D01*
X116405377Y-80767443D01*
X116400848Y-80764153D01*
X116400845Y-80764151D01*
X116293734Y-80709575D01*
X116293731Y-80709574D01*
X116293730Y-80709574D01*
X116175000Y-80690769D01*
X116056269Y-80709574D01*
X116056268Y-80709574D01*
X115949151Y-80764153D01*
X115944442Y-80767575D01*
X115942858Y-80765394D01*
X115906450Y-80782372D01*
X115857555Y-80769271D01*
X115855377Y-80767443D01*
X115850848Y-80764153D01*
X115850845Y-80764151D01*
X115743734Y-80709575D01*
X115743731Y-80709574D01*
X115743730Y-80709574D01*
X115625000Y-80690769D01*
X115506269Y-80709574D01*
X115506268Y-80709574D01*
X115506266Y-80709574D01*
X115506266Y-80709575D01*
X115452710Y-80736863D01*
X115399153Y-80764152D01*
X115314152Y-80849153D01*
X115259574Y-80956268D01*
X115259574Y-80956269D01*
X115248554Y-81025846D01*
X115240769Y-81075000D01*
X103962232Y-81075000D01*
X103910849Y-80974155D01*
X103825845Y-80889151D01*
X103718734Y-80834575D01*
X103718731Y-80834574D01*
X103718730Y-80834574D01*
X103600000Y-80815769D01*
X103481269Y-80834574D01*
X103481268Y-80834574D01*
X103374153Y-80889152D01*
X103289152Y-80974153D01*
X103234574Y-81081268D01*
X103234574Y-81081269D01*
X103215769Y-81200000D01*
X40800500Y-81200000D01*
X40800500Y-80800000D01*
X96115769Y-80800000D01*
X96134574Y-80918730D01*
X96134574Y-80918731D01*
X96134574Y-80918732D01*
X96134575Y-80918734D01*
X96189151Y-81025845D01*
X96274155Y-81110849D01*
X96381266Y-81165425D01*
X96500000Y-81184231D01*
X96618734Y-81165425D01*
X96725845Y-81110849D01*
X96810849Y-81025845D01*
X96865425Y-80918734D01*
X96884231Y-80800000D01*
X96865425Y-80681266D01*
X96810849Y-80574155D01*
X96736694Y-80500000D01*
X103915769Y-80500000D01*
X103934574Y-80618730D01*
X103934574Y-80618731D01*
X103934574Y-80618732D01*
X103934575Y-80618734D01*
X103989151Y-80725845D01*
X104074155Y-80810849D01*
X104181266Y-80865425D01*
X104300000Y-80884231D01*
X104418734Y-80865425D01*
X104525845Y-80810849D01*
X104610849Y-80725845D01*
X104665425Y-80618734D01*
X104684231Y-80500000D01*
X104665425Y-80381266D01*
X104610849Y-80274155D01*
X104525845Y-80189151D01*
X104418734Y-80134575D01*
X104418731Y-80134574D01*
X104418730Y-80134574D01*
X104300000Y-80115769D01*
X104181269Y-80134574D01*
X104181268Y-80134574D01*
X104074153Y-80189152D01*
X103989152Y-80274153D01*
X103934574Y-80381268D01*
X103934574Y-80381269D01*
X103915769Y-80500000D01*
X96736694Y-80500000D01*
X96725845Y-80489151D01*
X96618734Y-80434575D01*
X96618731Y-80434574D01*
X96618730Y-80434574D01*
X96500000Y-80415769D01*
X96381269Y-80434574D01*
X96381268Y-80434574D01*
X96274153Y-80489152D01*
X96189152Y-80574153D01*
X96134574Y-80681268D01*
X96134574Y-80681269D01*
X96115769Y-80800000D01*
X40800500Y-80800000D01*
X40800500Y-79600000D01*
X95115769Y-79600000D01*
X95134574Y-79718730D01*
X95134574Y-79718731D01*
X95134574Y-79718732D01*
X95134575Y-79718734D01*
X95189151Y-79825845D01*
X95274155Y-79910849D01*
X95381266Y-79965425D01*
X95500000Y-79984231D01*
X95618734Y-79965425D01*
X95725845Y-79910849D01*
X95810849Y-79825845D01*
X95865425Y-79718734D01*
X95884231Y-79600000D01*
X95865425Y-79481266D01*
X95810849Y-79374155D01*
X95736694Y-79300000D01*
X115790769Y-79300000D01*
X115809574Y-79418730D01*
X115809574Y-79418731D01*
X115809574Y-79418732D01*
X115809575Y-79418734D01*
X115864151Y-79525845D01*
X115949155Y-79610849D01*
X116056266Y-79665425D01*
X116175000Y-79684231D01*
X116233281Y-79675000D01*
X131015769Y-79675000D01*
X131034574Y-79793730D01*
X131034574Y-79793731D01*
X131034574Y-79793732D01*
X131034575Y-79793734D01*
X131089151Y-79900845D01*
X131174155Y-79985849D01*
X131281266Y-80040425D01*
X131400000Y-80059231D01*
X131518734Y-80040425D01*
X131625845Y-79985849D01*
X131710849Y-79900845D01*
X131765425Y-79793734D01*
X131784231Y-79675000D01*
X131765425Y-79556266D01*
X131710849Y-79449155D01*
X131710847Y-79449153D01*
X131710846Y-79449151D01*
X131707425Y-79444442D01*
X131709605Y-79442858D01*
X131692628Y-79406450D01*
X131705729Y-79357555D01*
X131707556Y-79355377D01*
X131710846Y-79350848D01*
X131710845Y-79350848D01*
X131710849Y-79350845D01*
X131765425Y-79243734D01*
X131784231Y-79125000D01*
X131765425Y-79006266D01*
X131710849Y-78899155D01*
X131710847Y-78899153D01*
X131710846Y-78899151D01*
X131707425Y-78894442D01*
X131709605Y-78892858D01*
X131692628Y-78856450D01*
X131705729Y-78807555D01*
X131707556Y-78805377D01*
X131710846Y-78800848D01*
X131710846Y-78800847D01*
X131710849Y-78800845D01*
X131765425Y-78693734D01*
X131784231Y-78575000D01*
X131765425Y-78456266D01*
X131710849Y-78349155D01*
X131625845Y-78264151D01*
X131518734Y-78209575D01*
X131518731Y-78209574D01*
X131518730Y-78209574D01*
X131400000Y-78190769D01*
X131281269Y-78209574D01*
X131281268Y-78209574D01*
X131174153Y-78264152D01*
X131089152Y-78349153D01*
X131034574Y-78456268D01*
X131034574Y-78456269D01*
X131015769Y-78574999D01*
X131034574Y-78693730D01*
X131034574Y-78693731D01*
X131034574Y-78693732D01*
X131034575Y-78693734D01*
X131089151Y-78800845D01*
X131089153Y-78800848D01*
X131092575Y-78805558D01*
X131090400Y-78807137D01*
X131107375Y-78843589D01*
X131094248Y-78892477D01*
X131092419Y-78894656D01*
X131089153Y-78899151D01*
X131034574Y-79006268D01*
X131034574Y-79006269D01*
X131015769Y-79125000D01*
X131034574Y-79243730D01*
X131034574Y-79243731D01*
X131034574Y-79243732D01*
X131034575Y-79243734D01*
X131089151Y-79350845D01*
X131089153Y-79350848D01*
X131092575Y-79355558D01*
X131090400Y-79357137D01*
X131107375Y-79393589D01*
X131094248Y-79442477D01*
X131092419Y-79444656D01*
X131089153Y-79449151D01*
X131034574Y-79556268D01*
X131034574Y-79556269D01*
X131015769Y-79675000D01*
X116233281Y-79675000D01*
X116293734Y-79665425D01*
X116400845Y-79610849D01*
X116485849Y-79525845D01*
X116540425Y-79418734D01*
X116559231Y-79300000D01*
X116540425Y-79181266D01*
X116485849Y-79074155D01*
X116400845Y-78989151D01*
X116293734Y-78934575D01*
X116293731Y-78934574D01*
X116293730Y-78934574D01*
X116175000Y-78915769D01*
X116056269Y-78934574D01*
X116056268Y-78934574D01*
X115949153Y-78989152D01*
X115864152Y-79074153D01*
X115809574Y-79181268D01*
X115809574Y-79181269D01*
X115790769Y-79300000D01*
X95736694Y-79300000D01*
X95725845Y-79289151D01*
X95618734Y-79234575D01*
X95618731Y-79234574D01*
X95618730Y-79234574D01*
X95500000Y-79215769D01*
X95381269Y-79234574D01*
X95381268Y-79234574D01*
X95274153Y-79289152D01*
X95189152Y-79374153D01*
X95134574Y-79481268D01*
X95134574Y-79481269D01*
X95115769Y-79600000D01*
X40800500Y-79600000D01*
X40800500Y-76838698D01*
X62409500Y-76838698D01*
X62424698Y-76954148D01*
X62424698Y-76954149D01*
X62424699Y-76954151D01*
X62484200Y-77097798D01*
X62578851Y-77221149D01*
X62702202Y-77315800D01*
X62845849Y-77375301D01*
X62961299Y-77390500D01*
X64038700Y-77390499D01*
X64154151Y-77375301D01*
X64297798Y-77315800D01*
X64421149Y-77221149D01*
X64515800Y-77097798D01*
X64575301Y-76954151D01*
X64590500Y-76838701D01*
X64590500Y-76838698D01*
X84409500Y-76838698D01*
X84424698Y-76954148D01*
X84424698Y-76954149D01*
X84424699Y-76954151D01*
X84484200Y-77097798D01*
X84578851Y-77221149D01*
X84702202Y-77315800D01*
X84845849Y-77375301D01*
X84961299Y-77390500D01*
X86038700Y-77390499D01*
X86154151Y-77375301D01*
X86297798Y-77315800D01*
X86421149Y-77221149D01*
X86515800Y-77097798D01*
X86575301Y-76954151D01*
X86590500Y-76838701D01*
X86590500Y-76674999D01*
X103215769Y-76674999D01*
X103234574Y-76793730D01*
X103234574Y-76793731D01*
X103234574Y-76793732D01*
X103234575Y-76793734D01*
X103289151Y-76900845D01*
X103374155Y-76985849D01*
X103481266Y-77040425D01*
X103600000Y-77059231D01*
X103718734Y-77040425D01*
X103825845Y-76985849D01*
X103910849Y-76900845D01*
X103965425Y-76793734D01*
X103984231Y-76675000D01*
X103965425Y-76556266D01*
X103910849Y-76449155D01*
X103825845Y-76364151D01*
X103718734Y-76309575D01*
X103718731Y-76309574D01*
X103718730Y-76309574D01*
X103600000Y-76290769D01*
X103481269Y-76309574D01*
X103481268Y-76309574D01*
X103374153Y-76364152D01*
X103289152Y-76449153D01*
X103234574Y-76556268D01*
X103234574Y-76556269D01*
X103215769Y-76674999D01*
X86590500Y-76674999D01*
X86590499Y-74074999D01*
X127840769Y-74074999D01*
X127859574Y-74193730D01*
X127859574Y-74193731D01*
X127859574Y-74193732D01*
X127859575Y-74193734D01*
X127914151Y-74300845D01*
X127999155Y-74385849D01*
X128106266Y-74440425D01*
X128225000Y-74459231D01*
X128343734Y-74440425D01*
X128450845Y-74385849D01*
X128535849Y-74300845D01*
X128590425Y-74193734D01*
X128609231Y-74075000D01*
X128590425Y-73956266D01*
X128535849Y-73849155D01*
X128535847Y-73849153D01*
X128535846Y-73849151D01*
X128532425Y-73844442D01*
X128534604Y-73842858D01*
X128517627Y-73806449D01*
X128530728Y-73757554D01*
X128532555Y-73755378D01*
X128535846Y-73750848D01*
X128535846Y-73750847D01*
X128535849Y-73750845D01*
X128590425Y-73643734D01*
X128609231Y-73525000D01*
X128590425Y-73406266D01*
X128535849Y-73299155D01*
X128535847Y-73299153D01*
X128535846Y-73299151D01*
X128532425Y-73294442D01*
X128534604Y-73292858D01*
X128517627Y-73256449D01*
X128530728Y-73207554D01*
X128532555Y-73205378D01*
X128535846Y-73200848D01*
X128535846Y-73200847D01*
X128535849Y-73200845D01*
X128590425Y-73093734D01*
X128609231Y-72975000D01*
X128590425Y-72856266D01*
X128535849Y-72749155D01*
X128450845Y-72664151D01*
X128343734Y-72609575D01*
X128343731Y-72609574D01*
X128343730Y-72609574D01*
X128225000Y-72590769D01*
X128106269Y-72609574D01*
X128106268Y-72609574D01*
X127999153Y-72664152D01*
X127914152Y-72749153D01*
X127859574Y-72856268D01*
X127859574Y-72856269D01*
X127840769Y-72974999D01*
X127859574Y-73093730D01*
X127859574Y-73093731D01*
X127859574Y-73093732D01*
X127859575Y-73093734D01*
X127914151Y-73200845D01*
X127914153Y-73200848D01*
X127917575Y-73205558D01*
X127915394Y-73207141D01*
X127932372Y-73243550D01*
X127919271Y-73292445D01*
X127917443Y-73294622D01*
X127914153Y-73299151D01*
X127859574Y-73406268D01*
X127859574Y-73406269D01*
X127840769Y-73525000D01*
X127859574Y-73643730D01*
X127859574Y-73643731D01*
X127859574Y-73643732D01*
X127859575Y-73643734D01*
X127914151Y-73750845D01*
X127914153Y-73750848D01*
X127917575Y-73755558D01*
X127915394Y-73757141D01*
X127932372Y-73793550D01*
X127919271Y-73842445D01*
X127917443Y-73844622D01*
X127914153Y-73849151D01*
X127859574Y-73956268D01*
X127859574Y-73956269D01*
X127840769Y-74074999D01*
X86590499Y-74074999D01*
X86590499Y-72497500D01*
X100935768Y-72497500D01*
X100954573Y-72616230D01*
X100954573Y-72616231D01*
X100954573Y-72616232D01*
X100954574Y-72616234D01*
X101009150Y-72723345D01*
X101094154Y-72808349D01*
X101201265Y-72862925D01*
X101319999Y-72881731D01*
X101438733Y-72862925D01*
X101545844Y-72808349D01*
X101630848Y-72723345D01*
X101685424Y-72616234D01*
X101701854Y-72512500D01*
X118965769Y-72512500D01*
X118984574Y-72631230D01*
X118984574Y-72631231D01*
X118984574Y-72631232D01*
X118984575Y-72631234D01*
X119039151Y-72738345D01*
X119124155Y-72823349D01*
X119231266Y-72877925D01*
X119350000Y-72896731D01*
X119468734Y-72877925D01*
X119575845Y-72823349D01*
X119660849Y-72738345D01*
X119715425Y-72631234D01*
X119734231Y-72512500D01*
X119715425Y-72393766D01*
X119660849Y-72286655D01*
X119575845Y-72201651D01*
X119468734Y-72147075D01*
X119468731Y-72147074D01*
X119468730Y-72147074D01*
X119350000Y-72128269D01*
X119231269Y-72147074D01*
X119231268Y-72147074D01*
X119124153Y-72201652D01*
X119039152Y-72286653D01*
X118984574Y-72393768D01*
X118984574Y-72393769D01*
X118965769Y-72512500D01*
X101701854Y-72512500D01*
X101704230Y-72497500D01*
X101685424Y-72378766D01*
X101630848Y-72271655D01*
X101545844Y-72186651D01*
X101438733Y-72132075D01*
X101438730Y-72132074D01*
X101438729Y-72132074D01*
X101319999Y-72113269D01*
X101201268Y-72132074D01*
X101201267Y-72132074D01*
X101094152Y-72186652D01*
X101009151Y-72271653D01*
X100954573Y-72378768D01*
X100954573Y-72378769D01*
X100935768Y-72497500D01*
X86590499Y-72497500D01*
X86590499Y-72161300D01*
X86575301Y-72045849D01*
X86515800Y-71902202D01*
X86421149Y-71778851D01*
X86297798Y-71684200D01*
X86297797Y-71684199D01*
X86154150Y-71624698D01*
X86065560Y-71613036D01*
X86038701Y-71609500D01*
X86038699Y-71609500D01*
X84961300Y-71609500D01*
X84845851Y-71624698D01*
X84845850Y-71624698D01*
X84702201Y-71684200D01*
X84578851Y-71778851D01*
X84484200Y-71902201D01*
X84424698Y-72045849D01*
X84409500Y-72161300D01*
X84409500Y-76838698D01*
X64590500Y-76838698D01*
X64590499Y-72161300D01*
X64575301Y-72045849D01*
X64515800Y-71902202D01*
X64421149Y-71778851D01*
X64297798Y-71684200D01*
X64297797Y-71684199D01*
X64154150Y-71624698D01*
X64065560Y-71613036D01*
X64038701Y-71609500D01*
X64038699Y-71609500D01*
X62961300Y-71609500D01*
X62845851Y-71624698D01*
X62845850Y-71624698D01*
X62702201Y-71684200D01*
X62578851Y-71778851D01*
X62484200Y-71902201D01*
X62424698Y-72045849D01*
X62409500Y-72161300D01*
X62409500Y-76838698D01*
X40800500Y-76838698D01*
X40800500Y-70062500D01*
X93615769Y-70062500D01*
X93634574Y-70181230D01*
X93634574Y-70181231D01*
X93634574Y-70181232D01*
X93634575Y-70181234D01*
X93689151Y-70288345D01*
X93774155Y-70373349D01*
X93881266Y-70427925D01*
X94000000Y-70446731D01*
X94118734Y-70427925D01*
X94225845Y-70373349D01*
X94310849Y-70288345D01*
X94365425Y-70181234D01*
X94376312Y-70112500D01*
X111615769Y-70112500D01*
X111634574Y-70231230D01*
X111634574Y-70231231D01*
X111634574Y-70231232D01*
X111634575Y-70231234D01*
X111689151Y-70338345D01*
X111774155Y-70423349D01*
X111881266Y-70477925D01*
X112000000Y-70496731D01*
X112118734Y-70477925D01*
X112225845Y-70423349D01*
X112310849Y-70338345D01*
X112365425Y-70231234D01*
X112384231Y-70112500D01*
X112365425Y-69993766D01*
X112310849Y-69886655D01*
X112225845Y-69801651D01*
X112118734Y-69747075D01*
X112118731Y-69747074D01*
X112118730Y-69747074D01*
X112000000Y-69728269D01*
X111881269Y-69747074D01*
X111881268Y-69747074D01*
X111774153Y-69801652D01*
X111689152Y-69886653D01*
X111634574Y-69993768D01*
X111634574Y-69993769D01*
X111615769Y-70112500D01*
X94376312Y-70112500D01*
X94384231Y-70062500D01*
X94365425Y-69943766D01*
X94310849Y-69836655D01*
X94225845Y-69751651D01*
X94118734Y-69697075D01*
X94118731Y-69697074D01*
X94118730Y-69697074D01*
X94000000Y-69678269D01*
X93881269Y-69697074D01*
X93881268Y-69697074D01*
X93774153Y-69751652D01*
X93689152Y-69836653D01*
X93634574Y-69943768D01*
X93634574Y-69943769D01*
X93615769Y-70062500D01*
X40800500Y-70062500D01*
X40800500Y-69437500D01*
X101940768Y-69437500D01*
X101959573Y-69556230D01*
X101959573Y-69556231D01*
X101959573Y-69556232D01*
X101959574Y-69556234D01*
X102014150Y-69663345D01*
X102099154Y-69748349D01*
X102206265Y-69802925D01*
X102324999Y-69821731D01*
X102443733Y-69802925D01*
X102550844Y-69748349D01*
X102635848Y-69663345D01*
X102690424Y-69556234D01*
X102697351Y-69512500D01*
X119940769Y-69512500D01*
X119959574Y-69631230D01*
X119959574Y-69631231D01*
X119959574Y-69631232D01*
X119959575Y-69631234D01*
X120014151Y-69738345D01*
X120099155Y-69823349D01*
X120206266Y-69877925D01*
X120325000Y-69896731D01*
X120443734Y-69877925D01*
X120550845Y-69823349D01*
X120635849Y-69738345D01*
X120690425Y-69631234D01*
X120709231Y-69512500D01*
X120690425Y-69393766D01*
X120635849Y-69286655D01*
X120550845Y-69201651D01*
X120443734Y-69147075D01*
X120443731Y-69147074D01*
X120443730Y-69147074D01*
X120325000Y-69128269D01*
X120206269Y-69147074D01*
X120206268Y-69147074D01*
X120099153Y-69201652D01*
X120014152Y-69286653D01*
X119959574Y-69393768D01*
X119959574Y-69393769D01*
X119940769Y-69512500D01*
X102697351Y-69512500D01*
X102709230Y-69437500D01*
X102690424Y-69318766D01*
X102635848Y-69211655D01*
X102550844Y-69126651D01*
X102443733Y-69072075D01*
X102443730Y-69072074D01*
X102443729Y-69072074D01*
X102324999Y-69053269D01*
X102206268Y-69072074D01*
X102206267Y-69072074D01*
X102099152Y-69126652D01*
X102014151Y-69211653D01*
X101959573Y-69318768D01*
X101959573Y-69318769D01*
X101940768Y-69437500D01*
X40800500Y-69437500D01*
X40800500Y-67224999D01*
X93115769Y-67224999D01*
X93134574Y-67343730D01*
X93134574Y-67343731D01*
X93134574Y-67343732D01*
X93134575Y-67343734D01*
X93189151Y-67450845D01*
X93274155Y-67535849D01*
X93381266Y-67590425D01*
X93500000Y-67609231D01*
X93618734Y-67590425D01*
X93725845Y-67535849D01*
X93810849Y-67450845D01*
X93865425Y-67343734D01*
X93884231Y-67225000D01*
X102115769Y-67225000D01*
X102134574Y-67343730D01*
X102134574Y-67343731D01*
X102134574Y-67343732D01*
X102134575Y-67343734D01*
X102189151Y-67450845D01*
X102274155Y-67535849D01*
X102381266Y-67590425D01*
X102500000Y-67609231D01*
X102618734Y-67590425D01*
X102725845Y-67535849D01*
X102810849Y-67450845D01*
X102865425Y-67343734D01*
X102884231Y-67225000D01*
X111115769Y-67225000D01*
X111134574Y-67343730D01*
X111134574Y-67343731D01*
X111134574Y-67343732D01*
X111134575Y-67343734D01*
X111189151Y-67450845D01*
X111274155Y-67535849D01*
X111381266Y-67590425D01*
X111500000Y-67609231D01*
X111618734Y-67590425D01*
X111725845Y-67535849D01*
X111810849Y-67450845D01*
X111865425Y-67343734D01*
X111884231Y-67225000D01*
X120115769Y-67225000D01*
X120134574Y-67343730D01*
X120134574Y-67343731D01*
X120134574Y-67343732D01*
X120134575Y-67343734D01*
X120189151Y-67450845D01*
X120274155Y-67535849D01*
X120381266Y-67590425D01*
X120500000Y-67609231D01*
X120618734Y-67590425D01*
X120725845Y-67535849D01*
X120810849Y-67450845D01*
X120865425Y-67343734D01*
X120884231Y-67225000D01*
X120865425Y-67106266D01*
X120810849Y-66999155D01*
X120725845Y-66914151D01*
X120618734Y-66859575D01*
X120618731Y-66859574D01*
X120618730Y-66859574D01*
X120500000Y-66840769D01*
X120381269Y-66859574D01*
X120381268Y-66859574D01*
X120274153Y-66914152D01*
X120189152Y-66999153D01*
X120134574Y-67106268D01*
X120134574Y-67106269D01*
X120115769Y-67225000D01*
X111884231Y-67225000D01*
X111865425Y-67106266D01*
X111810849Y-66999155D01*
X111725845Y-66914151D01*
X111618734Y-66859575D01*
X111618731Y-66859574D01*
X111618730Y-66859574D01*
X111500000Y-66840769D01*
X111381269Y-66859574D01*
X111381268Y-66859574D01*
X111274153Y-66914152D01*
X111189152Y-66999153D01*
X111134574Y-67106268D01*
X111134574Y-67106269D01*
X111115769Y-67225000D01*
X102884231Y-67225000D01*
X102865425Y-67106266D01*
X102810849Y-66999155D01*
X102725845Y-66914151D01*
X102618734Y-66859575D01*
X102618731Y-66859574D01*
X102618730Y-66859574D01*
X102500000Y-66840769D01*
X102381269Y-66859574D01*
X102381268Y-66859574D01*
X102274153Y-66914152D01*
X102189152Y-66999153D01*
X102134574Y-67106268D01*
X102134574Y-67106269D01*
X102115769Y-67225000D01*
X93884231Y-67225000D01*
X93865425Y-67106266D01*
X93810849Y-66999155D01*
X93725845Y-66914151D01*
X93618734Y-66859575D01*
X93618731Y-66859574D01*
X93618730Y-66859574D01*
X93500000Y-66840769D01*
X93381269Y-66859574D01*
X93381268Y-66859574D01*
X93274153Y-66914152D01*
X93189152Y-66999153D01*
X93134574Y-67106268D01*
X93134574Y-67106269D01*
X93115769Y-67224999D01*
X40800500Y-67224999D01*
X40800500Y-64300000D01*
X90604595Y-64300000D01*
X90624163Y-64486170D01*
X90682005Y-64664190D01*
X90682006Y-64664192D01*
X90682007Y-64664194D01*
X90775602Y-64826306D01*
X90860315Y-64920390D01*
X90900859Y-64965418D01*
X91052290Y-65075439D01*
X91052297Y-65075443D01*
X91223305Y-65151581D01*
X91406405Y-65190500D01*
X91406406Y-65190500D01*
X91593594Y-65190500D01*
X91593595Y-65190500D01*
X91776695Y-65151581D01*
X91947703Y-65075443D01*
X92099143Y-64965416D01*
X92224398Y-64826306D01*
X92317993Y-64664194D01*
X92375838Y-64486165D01*
X92395405Y-64300000D01*
X92604595Y-64300000D01*
X92615757Y-64406200D01*
X92624163Y-64486170D01*
X92682005Y-64664190D01*
X92682006Y-64664192D01*
X92682007Y-64664194D01*
X92775602Y-64826306D01*
X92860315Y-64920390D01*
X92900859Y-64965418D01*
X93052290Y-65075439D01*
X93052297Y-65075443D01*
X93223305Y-65151581D01*
X93406405Y-65190500D01*
X93406406Y-65190500D01*
X93593594Y-65190500D01*
X93593595Y-65190500D01*
X93776695Y-65151581D01*
X93947703Y-65075443D01*
X94099143Y-64965416D01*
X94224398Y-64826306D01*
X94317993Y-64664194D01*
X94375838Y-64486165D01*
X94395405Y-64300000D01*
X99604595Y-64300000D01*
X99615757Y-64406200D01*
X99624163Y-64486170D01*
X99682005Y-64664190D01*
X99682006Y-64664192D01*
X99682007Y-64664194D01*
X99775602Y-64826306D01*
X99860315Y-64920390D01*
X99900859Y-64965418D01*
X100052290Y-65075439D01*
X100052297Y-65075443D01*
X100223305Y-65151581D01*
X100406405Y-65190500D01*
X100406406Y-65190500D01*
X100593594Y-65190500D01*
X100593595Y-65190500D01*
X100776695Y-65151581D01*
X100947703Y-65075443D01*
X101099143Y-64965416D01*
X101224398Y-64826306D01*
X101317993Y-64664194D01*
X101375838Y-64486165D01*
X101395405Y-64300000D01*
X101604595Y-64300000D01*
X101615757Y-64406200D01*
X101624163Y-64486170D01*
X101682005Y-64664190D01*
X101682006Y-64664192D01*
X101682007Y-64664194D01*
X101775602Y-64826306D01*
X101860315Y-64920390D01*
X101900859Y-64965418D01*
X102052290Y-65075439D01*
X102052297Y-65075443D01*
X102223305Y-65151581D01*
X102406405Y-65190500D01*
X102406406Y-65190500D01*
X102593594Y-65190500D01*
X102593595Y-65190500D01*
X102776695Y-65151581D01*
X102947703Y-65075443D01*
X103099143Y-64965416D01*
X103224398Y-64826306D01*
X103317993Y-64664194D01*
X103375838Y-64486165D01*
X103395405Y-64300000D01*
X108604595Y-64300000D01*
X108615757Y-64406200D01*
X108624163Y-64486170D01*
X108682005Y-64664190D01*
X108682006Y-64664192D01*
X108682007Y-64664194D01*
X108775602Y-64826306D01*
X108860315Y-64920390D01*
X108900859Y-64965418D01*
X109052290Y-65075439D01*
X109052297Y-65075443D01*
X109223305Y-65151581D01*
X109406405Y-65190500D01*
X109406406Y-65190500D01*
X109593594Y-65190500D01*
X109593595Y-65190500D01*
X109776695Y-65151581D01*
X109947703Y-65075443D01*
X110099143Y-64965416D01*
X110224398Y-64826306D01*
X110317993Y-64664194D01*
X110375838Y-64486165D01*
X110395405Y-64300000D01*
X110604595Y-64300000D01*
X110615757Y-64406200D01*
X110624163Y-64486170D01*
X110682005Y-64664190D01*
X110682006Y-64664192D01*
X110682007Y-64664194D01*
X110775602Y-64826306D01*
X110860315Y-64920390D01*
X110900859Y-64965418D01*
X111052290Y-65075439D01*
X111052297Y-65075443D01*
X111223305Y-65151581D01*
X111406405Y-65190500D01*
X111406406Y-65190500D01*
X111593594Y-65190500D01*
X111593595Y-65190500D01*
X111776695Y-65151581D01*
X111947703Y-65075443D01*
X112099143Y-64965416D01*
X112224398Y-64826306D01*
X112317993Y-64664194D01*
X112375838Y-64486165D01*
X112395405Y-64300000D01*
X117604595Y-64300000D01*
X117624163Y-64486170D01*
X117682005Y-64664190D01*
X117682006Y-64664192D01*
X117682007Y-64664194D01*
X117775602Y-64826306D01*
X117860315Y-64920390D01*
X117900859Y-64965418D01*
X118052290Y-65075439D01*
X118052297Y-65075443D01*
X118223305Y-65151581D01*
X118406405Y-65190500D01*
X118406406Y-65190500D01*
X118593594Y-65190500D01*
X118593595Y-65190500D01*
X118776695Y-65151581D01*
X118947703Y-65075443D01*
X119099143Y-64965416D01*
X119224398Y-64826306D01*
X119317993Y-64664194D01*
X119375838Y-64486165D01*
X119395405Y-64300000D01*
X119604595Y-64300000D01*
X119624163Y-64486170D01*
X119682005Y-64664190D01*
X119682006Y-64664192D01*
X119682007Y-64664194D01*
X119775602Y-64826306D01*
X119860315Y-64920390D01*
X119900859Y-64965418D01*
X120052290Y-65075439D01*
X120052297Y-65075443D01*
X120223305Y-65151581D01*
X120406405Y-65190500D01*
X120406406Y-65190500D01*
X120593594Y-65190500D01*
X120593595Y-65190500D01*
X120776695Y-65151581D01*
X120947703Y-65075443D01*
X121099143Y-64965416D01*
X121224398Y-64826306D01*
X121317993Y-64664194D01*
X121368100Y-64509980D01*
X129205780Y-64509980D01*
X129213127Y-64664190D01*
X129215690Y-64718000D01*
X129264789Y-64920390D01*
X129351304Y-65109830D01*
X129413754Y-65197529D01*
X129472107Y-65279474D01*
X129622828Y-65423187D01*
X129622830Y-65423188D01*
X129622832Y-65423190D01*
X129798031Y-65535784D01*
X129991373Y-65613186D01*
X130195870Y-65652600D01*
X130195871Y-65652600D01*
X132351936Y-65652600D01*
X132351944Y-65652600D01*
X132507317Y-65637764D01*
X132707141Y-65579090D01*
X132892250Y-65483660D01*
X133055954Y-65354922D01*
X133192335Y-65197529D01*
X133296465Y-65017171D01*
X133364581Y-64820364D01*
X133394219Y-64614224D01*
X133384310Y-64406200D01*
X133335211Y-64203810D01*
X133248696Y-64014370D01*
X133127893Y-63844726D01*
X133053396Y-63773693D01*
X132977171Y-63701012D01*
X132873808Y-63634584D01*
X132801969Y-63588416D01*
X132693793Y-63545109D01*
X132608625Y-63511013D01*
X132452952Y-63481009D01*
X132404130Y-63471600D01*
X130248056Y-63471600D01*
X130216981Y-63474567D01*
X130092679Y-63486436D01*
X129892860Y-63545109D01*
X129707751Y-63640539D01*
X129544048Y-63769276D01*
X129544046Y-63769277D01*
X129544046Y-63769278D01*
X129540220Y-63773694D01*
X129407665Y-63926671D01*
X129303535Y-64107029D01*
X129303533Y-64107033D01*
X129235420Y-64303832D01*
X129235419Y-64303835D01*
X129205780Y-64509980D01*
X121368100Y-64509980D01*
X121375838Y-64486165D01*
X121395405Y-64300000D01*
X121375838Y-64113835D01*
X121317993Y-63935806D01*
X121224398Y-63773694D01*
X121099143Y-63634584D01*
X121099142Y-63634583D01*
X121099140Y-63634581D01*
X120947709Y-63524560D01*
X120947702Y-63524556D01*
X120776696Y-63448419D01*
X120776694Y-63448418D01*
X120632512Y-63417772D01*
X120593595Y-63409500D01*
X120406405Y-63409500D01*
X120374309Y-63416322D01*
X120223305Y-63448418D01*
X120223303Y-63448419D01*
X120052301Y-63524555D01*
X119900854Y-63634586D01*
X119775602Y-63773693D01*
X119682005Y-63935809D01*
X119624163Y-64113829D01*
X119604595Y-64300000D01*
X119395405Y-64300000D01*
X119375838Y-64113835D01*
X119317993Y-63935806D01*
X119224398Y-63773694D01*
X119099143Y-63634584D01*
X119099142Y-63634583D01*
X119099140Y-63634581D01*
X118947709Y-63524560D01*
X118947702Y-63524556D01*
X118776696Y-63448419D01*
X118776694Y-63448418D01*
X118632512Y-63417772D01*
X118593595Y-63409500D01*
X118406405Y-63409500D01*
X118374309Y-63416322D01*
X118223305Y-63448418D01*
X118223303Y-63448419D01*
X118052301Y-63524555D01*
X117900854Y-63634586D01*
X117775602Y-63773693D01*
X117682005Y-63935809D01*
X117624163Y-64113829D01*
X117604595Y-64300000D01*
X112395405Y-64300000D01*
X112375838Y-64113835D01*
X112317993Y-63935806D01*
X112224398Y-63773694D01*
X112099143Y-63634584D01*
X112099142Y-63634583D01*
X112099140Y-63634581D01*
X111947709Y-63524560D01*
X111947702Y-63524556D01*
X111776696Y-63448419D01*
X111776694Y-63448418D01*
X111632512Y-63417772D01*
X111593595Y-63409500D01*
X111406405Y-63409500D01*
X111374309Y-63416322D01*
X111223305Y-63448418D01*
X111223303Y-63448419D01*
X111052301Y-63524555D01*
X110900854Y-63634586D01*
X110775602Y-63773693D01*
X110682005Y-63935809D01*
X110624163Y-64113829D01*
X110624162Y-64113833D01*
X110624162Y-64113835D01*
X110604595Y-64300000D01*
X110395405Y-64300000D01*
X110375838Y-64113835D01*
X110317993Y-63935806D01*
X110224398Y-63773694D01*
X110099143Y-63634584D01*
X110099142Y-63634583D01*
X110099140Y-63634581D01*
X109947709Y-63524560D01*
X109947702Y-63524556D01*
X109776696Y-63448419D01*
X109776694Y-63448418D01*
X109632512Y-63417772D01*
X109593595Y-63409500D01*
X109406405Y-63409500D01*
X109374309Y-63416322D01*
X109223305Y-63448418D01*
X109223303Y-63448419D01*
X109052301Y-63524555D01*
X108900854Y-63634586D01*
X108775602Y-63773693D01*
X108682005Y-63935809D01*
X108624163Y-64113829D01*
X108624162Y-64113833D01*
X108624162Y-64113835D01*
X108604595Y-64300000D01*
X103395405Y-64300000D01*
X103375838Y-64113835D01*
X103317993Y-63935806D01*
X103224398Y-63773694D01*
X103099143Y-63634584D01*
X103099142Y-63634583D01*
X103099140Y-63634581D01*
X102947709Y-63524560D01*
X102947702Y-63524556D01*
X102776696Y-63448419D01*
X102776694Y-63448418D01*
X102632512Y-63417772D01*
X102593595Y-63409500D01*
X102406405Y-63409500D01*
X102374309Y-63416322D01*
X102223305Y-63448418D01*
X102223303Y-63448419D01*
X102052301Y-63524555D01*
X101900854Y-63634586D01*
X101775602Y-63773693D01*
X101682005Y-63935809D01*
X101624163Y-64113829D01*
X101624162Y-64113833D01*
X101624162Y-64113835D01*
X101604595Y-64300000D01*
X101395405Y-64300000D01*
X101375838Y-64113835D01*
X101317993Y-63935806D01*
X101224398Y-63773694D01*
X101099143Y-63634584D01*
X101099142Y-63634583D01*
X101099140Y-63634581D01*
X100947709Y-63524560D01*
X100947702Y-63524556D01*
X100776696Y-63448419D01*
X100776694Y-63448418D01*
X100632512Y-63417772D01*
X100593595Y-63409500D01*
X100406405Y-63409500D01*
X100374309Y-63416322D01*
X100223305Y-63448418D01*
X100223303Y-63448419D01*
X100052301Y-63524555D01*
X99900854Y-63634586D01*
X99775602Y-63773693D01*
X99682005Y-63935809D01*
X99624163Y-64113829D01*
X99624162Y-64113833D01*
X99624162Y-64113835D01*
X99604595Y-64300000D01*
X94395405Y-64300000D01*
X94375838Y-64113835D01*
X94317993Y-63935806D01*
X94224398Y-63773694D01*
X94099143Y-63634584D01*
X94099142Y-63634583D01*
X94099140Y-63634581D01*
X93947709Y-63524560D01*
X93947702Y-63524556D01*
X93776696Y-63448419D01*
X93776694Y-63448418D01*
X93632512Y-63417772D01*
X93593595Y-63409500D01*
X93406405Y-63409500D01*
X93374309Y-63416322D01*
X93223305Y-63448418D01*
X93223303Y-63448419D01*
X93052301Y-63524555D01*
X92900854Y-63634586D01*
X92775602Y-63773693D01*
X92682005Y-63935809D01*
X92624163Y-64113829D01*
X92624162Y-64113833D01*
X92624162Y-64113835D01*
X92604595Y-64300000D01*
X92395405Y-64300000D01*
X92375838Y-64113835D01*
X92317993Y-63935806D01*
X92224398Y-63773694D01*
X92099143Y-63634584D01*
X92099142Y-63634583D01*
X92099140Y-63634581D01*
X91947709Y-63524560D01*
X91947702Y-63524556D01*
X91776696Y-63448419D01*
X91776694Y-63448418D01*
X91632512Y-63417772D01*
X91593595Y-63409500D01*
X91406405Y-63409500D01*
X91374309Y-63416322D01*
X91223305Y-63448418D01*
X91223303Y-63448419D01*
X91052301Y-63524555D01*
X90900854Y-63634586D01*
X90775602Y-63773693D01*
X90682005Y-63935809D01*
X90624163Y-64113829D01*
X90604595Y-64300000D01*
X40800500Y-64300000D01*
X40800500Y-63300000D01*
X40818313Y-62892022D01*
X40818592Y-62888817D01*
X40871684Y-62485543D01*
X40872246Y-62482363D01*
X40958861Y-62091667D01*
X40960283Y-62085252D01*
X40961111Y-62082158D01*
X41083438Y-61694188D01*
X41084524Y-61691204D01*
X41240188Y-61315397D01*
X41241554Y-61312470D01*
X41271587Y-61254777D01*
X42665827Y-61254777D01*
X42675607Y-61435149D01*
X42723936Y-61609212D01*
X42808550Y-61768813D01*
X42808551Y-61768814D01*
X42925494Y-61906491D01*
X43069308Y-62015816D01*
X43069310Y-62015817D01*
X43219394Y-62085254D01*
X43233256Y-62091667D01*
X43409678Y-62130500D01*
X43409683Y-62130500D01*
X43545019Y-62130500D01*
X43545028Y-62130500D01*
X43679586Y-62115866D01*
X43850774Y-62058186D01*
X44005561Y-61965054D01*
X44136708Y-61840825D01*
X44238083Y-61691307D01*
X44289564Y-61562099D01*
X130240398Y-61562099D01*
X130260758Y-61768819D01*
X130282600Y-61840821D01*
X130321055Y-61967592D01*
X130418973Y-62150783D01*
X130550748Y-62311352D01*
X130711317Y-62443127D01*
X130894508Y-62541045D01*
X131093282Y-62601342D01*
X131248199Y-62616600D01*
X131248201Y-62616600D01*
X131351799Y-62616600D01*
X131351801Y-62616600D01*
X131506718Y-62601342D01*
X131705492Y-62541045D01*
X131888683Y-62443127D01*
X132049252Y-62311352D01*
X132181027Y-62150783D01*
X132278945Y-61967592D01*
X132339242Y-61768818D01*
X132359602Y-61562100D01*
X132339242Y-61355382D01*
X132308724Y-61254777D01*
X138665827Y-61254777D01*
X138675607Y-61435149D01*
X138723936Y-61609212D01*
X138808550Y-61768813D01*
X138808551Y-61768814D01*
X138925494Y-61906491D01*
X139069308Y-62015816D01*
X139069310Y-62015817D01*
X139219394Y-62085254D01*
X139233256Y-62091667D01*
X139409678Y-62130500D01*
X139409683Y-62130500D01*
X139545019Y-62130500D01*
X139545028Y-62130500D01*
X139679586Y-62115866D01*
X139850774Y-62058186D01*
X140005561Y-61965054D01*
X140136708Y-61840825D01*
X140238083Y-61691307D01*
X140304947Y-61523492D01*
X140334172Y-61345227D01*
X140324392Y-61164848D01*
X140276064Y-60990788D01*
X140191449Y-60831186D01*
X140179317Y-60816904D01*
X140074505Y-60693508D01*
X139930691Y-60584183D01*
X139930689Y-60584182D01*
X139766754Y-60508337D01*
X139766749Y-60508335D01*
X139766744Y-60508333D01*
X139590322Y-60469500D01*
X139454972Y-60469500D01*
X139454966Y-60469500D01*
X139454958Y-60469501D01*
X139343591Y-60481613D01*
X139320414Y-60484134D01*
X139320411Y-60484134D01*
X139320411Y-60484135D01*
X139149228Y-60541813D01*
X138994438Y-60634946D01*
X138863288Y-60759178D01*
X138761917Y-60908691D01*
X138695053Y-61076507D01*
X138695052Y-61076508D01*
X138665828Y-61254773D01*
X138665827Y-61254777D01*
X132308724Y-61254777D01*
X132278945Y-61156608D01*
X132181027Y-60973417D01*
X132049252Y-60812848D01*
X131888683Y-60681073D01*
X131707415Y-60584183D01*
X131705494Y-60583156D01*
X131705493Y-60583155D01*
X131705492Y-60583155D01*
X131569205Y-60541813D01*
X131506719Y-60522858D01*
X131455079Y-60517771D01*
X131351801Y-60507600D01*
X131248199Y-60507600D01*
X131170740Y-60515228D01*
X131093280Y-60522858D01*
X130920174Y-60575369D01*
X130916322Y-60576538D01*
X130894505Y-60583156D01*
X130711316Y-60681073D01*
X130550748Y-60812847D01*
X130550747Y-60812848D01*
X130418973Y-60973416D01*
X130321056Y-61156605D01*
X130321055Y-61156607D01*
X130321055Y-61156608D01*
X130318555Y-61164850D01*
X130260758Y-61355380D01*
X130240398Y-61562099D01*
X44289564Y-61562099D01*
X44304947Y-61523492D01*
X44334172Y-61345227D01*
X44324392Y-61164848D01*
X44276064Y-60990788D01*
X44191449Y-60831186D01*
X44179317Y-60816904D01*
X44074505Y-60693508D01*
X43930691Y-60584183D01*
X43930689Y-60584182D01*
X43766754Y-60508337D01*
X43766749Y-60508335D01*
X43766744Y-60508333D01*
X43590322Y-60469500D01*
X43454972Y-60469500D01*
X43454966Y-60469500D01*
X43454958Y-60469501D01*
X43343591Y-60481613D01*
X43320414Y-60484134D01*
X43320411Y-60484134D01*
X43320411Y-60484135D01*
X43149228Y-60541813D01*
X42994438Y-60634946D01*
X42863288Y-60759178D01*
X42761917Y-60908691D01*
X42695053Y-61076507D01*
X42695052Y-61076508D01*
X42665828Y-61254773D01*
X42665827Y-61254777D01*
X41271587Y-61254777D01*
X41318401Y-61164848D01*
X41429373Y-60951672D01*
X41430972Y-60948902D01*
X41649534Y-60605828D01*
X41651369Y-60603208D01*
X41899005Y-60280481D01*
X41901049Y-60278046D01*
X42175878Y-59978123D01*
X42178123Y-59975878D01*
X42478046Y-59701049D01*
X42480481Y-59699005D01*
X42803208Y-59451369D01*
X42805828Y-59449534D01*
X43148902Y-59230972D01*
X43151672Y-59229373D01*
X43512470Y-59041553D01*
X43515397Y-59040189D01*
X43517734Y-59039220D01*
X43891204Y-58884524D01*
X43894188Y-58883438D01*
X44282158Y-58761111D01*
X44285254Y-58760283D01*
X44300185Y-58756973D01*
X44364606Y-58742691D01*
X44682363Y-58672246D01*
X44685543Y-58671685D01*
X44711404Y-58668280D01*
X45088817Y-58618592D01*
X45092022Y-58618313D01*
X45500000Y-58600500D01*
X45547595Y-58600500D01*
X89452405Y-58600500D01*
X89498544Y-58600500D01*
X89501448Y-58600614D01*
G37*
%TD.AperFunction*%
%TD*%
D21*
X92400000Y-60300000D02*
X119600000Y-60300000D01*
X120377817Y-59977817D02*
X121722183Y-58622183D01*
X119600000Y-60299999D02*
G75*
G03*
X120377817Y-59977817I0J1099999D01*
G01*
X91622183Y-59977817D02*
X90277817Y-58622183D01*
X137800000Y-118300000D02*
G75*
G03*
X142800000Y-113300000I0J5000000D01*
G01*
X45500000Y-58300000D02*
G75*
G03*
X40500000Y-63300000I0J-5000000D01*
G01*
X40500000Y-113300000D02*
G75*
G03*
X45500000Y-118300000I5000000J0D01*
G01*
X90277817Y-58622183D02*
G75*
G03*
X89500000Y-58300000I-777817J-777817D01*
G01*
X40500000Y-63300000D02*
X40500000Y-113300000D01*
X45500000Y-118300000D02*
X137800000Y-118300000D01*
X91622183Y-59977817D02*
G75*
G03*
X92400000Y-60300000I777817J777817D01*
G01*
X89500000Y-58300000D02*
X45500000Y-58300000D01*
X122500000Y-58300000D02*
X137800000Y-58300000D01*
X122500000Y-58300001D02*
G75*
G03*
X121722183Y-58622183I0J-1099999D01*
G01*
X142800000Y-63300000D02*
G75*
G03*
X137800000Y-58300000I-5000000J0D01*
G01*
X142800000Y-113300000D02*
X142800000Y-63300000D01*
M02*
