%TF.GenerationSoftware,KiCad,Pcbnew,7.0.7*%
%TF.CreationDate,2023-08-19T17:10:16-04:00*%
%TF.ProjectId,baseboard,62617365-626f-4617-9264-2e6b69636164,A*%
%TF.SameCoordinates,Original*%
%TF.FileFunction,Profile,NP*%
%FSLAX46Y46*%
G04 Gerber Fmt 4.6, Leading zero omitted, Abs format (unit mm)*
G04 Created by KiCad (PCBNEW 7.0.7) date 2023-08-19 17:10:16*
%MOMM*%
%LPD*%
G01*
G04 APERTURE LIST*
%ADD10C,0.100000*%
%ADD11C,0.150000*%
%ADD12C,0.300000*%
%TA.AperFunction,Profile*%
%ADD13C,0.050000*%
%TD*%
G04 APERTURE END LIST*
D10*
D11*
X259813572Y-199154128D02*
X258956429Y-199154128D01*
X259385000Y-199154128D02*
X259385000Y-197654128D01*
X259385000Y-197654128D02*
X259242143Y-197868414D01*
X259242143Y-197868414D02*
X259099286Y-198011271D01*
X259099286Y-198011271D02*
X258956429Y-198082700D01*
X261527857Y-197582700D02*
X260242143Y-199511271D01*
X262813572Y-199154128D02*
X261956429Y-199154128D01*
X262385000Y-199154128D02*
X262385000Y-197654128D01*
X262385000Y-197654128D02*
X262242143Y-197868414D01*
X262242143Y-197868414D02*
X262099286Y-198011271D01*
X262099286Y-198011271D02*
X261956429Y-198082700D01*
D10*
D11*
X140409874Y-188759295D02*
X140867017Y-188759295D01*
X140638445Y-189559295D02*
X140638445Y-188759295D01*
X141133684Y-189559295D02*
X141133684Y-188759295D01*
X141400350Y-188759295D02*
X141857493Y-188759295D01*
X141628921Y-189559295D02*
X141628921Y-188759295D01*
X142505112Y-189559295D02*
X142124160Y-189559295D01*
X142124160Y-189559295D02*
X142124160Y-188759295D01*
X142771779Y-189140247D02*
X143038445Y-189140247D01*
X143152731Y-189559295D02*
X142771779Y-189559295D01*
X142771779Y-189559295D02*
X142771779Y-188759295D01*
X142771779Y-188759295D02*
X143152731Y-188759295D01*
D10*
D11*
X235596303Y-195909295D02*
X235329636Y-195528342D01*
X235139160Y-195909295D02*
X235139160Y-195109295D01*
X235139160Y-195109295D02*
X235443922Y-195109295D01*
X235443922Y-195109295D02*
X235520112Y-195147390D01*
X235520112Y-195147390D02*
X235558207Y-195185485D01*
X235558207Y-195185485D02*
X235596303Y-195261676D01*
X235596303Y-195261676D02*
X235596303Y-195375961D01*
X235596303Y-195375961D02*
X235558207Y-195452152D01*
X235558207Y-195452152D02*
X235520112Y-195490247D01*
X235520112Y-195490247D02*
X235443922Y-195528342D01*
X235443922Y-195528342D02*
X235139160Y-195528342D01*
X235939160Y-195490247D02*
X236205826Y-195490247D01*
X236320112Y-195909295D02*
X235939160Y-195909295D01*
X235939160Y-195909295D02*
X235939160Y-195109295D01*
X235939160Y-195109295D02*
X236320112Y-195109295D01*
X236548684Y-195109295D02*
X236815351Y-195909295D01*
X236815351Y-195909295D02*
X237082017Y-195109295D01*
X237348684Y-195909295D02*
X237348684Y-195109295D01*
X237691540Y-195871200D02*
X237805826Y-195909295D01*
X237805826Y-195909295D02*
X237996302Y-195909295D01*
X237996302Y-195909295D02*
X238072493Y-195871200D01*
X238072493Y-195871200D02*
X238110588Y-195833104D01*
X238110588Y-195833104D02*
X238148683Y-195756914D01*
X238148683Y-195756914D02*
X238148683Y-195680723D01*
X238148683Y-195680723D02*
X238110588Y-195604533D01*
X238110588Y-195604533D02*
X238072493Y-195566438D01*
X238072493Y-195566438D02*
X237996302Y-195528342D01*
X237996302Y-195528342D02*
X237843921Y-195490247D01*
X237843921Y-195490247D02*
X237767731Y-195452152D01*
X237767731Y-195452152D02*
X237729636Y-195414057D01*
X237729636Y-195414057D02*
X237691540Y-195337866D01*
X237691540Y-195337866D02*
X237691540Y-195261676D01*
X237691540Y-195261676D02*
X237729636Y-195185485D01*
X237729636Y-195185485D02*
X237767731Y-195147390D01*
X237767731Y-195147390D02*
X237843921Y-195109295D01*
X237843921Y-195109295D02*
X238034398Y-195109295D01*
X238034398Y-195109295D02*
X238148683Y-195147390D01*
X238491541Y-195909295D02*
X238491541Y-195109295D01*
X239024874Y-195109295D02*
X239177255Y-195109295D01*
X239177255Y-195109295D02*
X239253445Y-195147390D01*
X239253445Y-195147390D02*
X239329636Y-195223580D01*
X239329636Y-195223580D02*
X239367731Y-195375961D01*
X239367731Y-195375961D02*
X239367731Y-195642628D01*
X239367731Y-195642628D02*
X239329636Y-195795009D01*
X239329636Y-195795009D02*
X239253445Y-195871200D01*
X239253445Y-195871200D02*
X239177255Y-195909295D01*
X239177255Y-195909295D02*
X239024874Y-195909295D01*
X239024874Y-195909295D02*
X238948683Y-195871200D01*
X238948683Y-195871200D02*
X238872493Y-195795009D01*
X238872493Y-195795009D02*
X238834397Y-195642628D01*
X238834397Y-195642628D02*
X238834397Y-195375961D01*
X238834397Y-195375961D02*
X238872493Y-195223580D01*
X238872493Y-195223580D02*
X238948683Y-195147390D01*
X238948683Y-195147390D02*
X239024874Y-195109295D01*
X239710588Y-195909295D02*
X239710588Y-195109295D01*
X239710588Y-195109295D02*
X240167731Y-195909295D01*
X240167731Y-195909295D02*
X240167731Y-195109295D01*
D10*
D11*
X241489160Y-195909295D02*
X241489160Y-195109295D01*
X241489160Y-195109295D02*
X241679636Y-195109295D01*
X241679636Y-195109295D02*
X241793922Y-195147390D01*
X241793922Y-195147390D02*
X241870112Y-195223580D01*
X241870112Y-195223580D02*
X241908207Y-195299771D01*
X241908207Y-195299771D02*
X241946303Y-195452152D01*
X241946303Y-195452152D02*
X241946303Y-195566438D01*
X241946303Y-195566438D02*
X241908207Y-195718819D01*
X241908207Y-195718819D02*
X241870112Y-195795009D01*
X241870112Y-195795009D02*
X241793922Y-195871200D01*
X241793922Y-195871200D02*
X241679636Y-195909295D01*
X241679636Y-195909295D02*
X241489160Y-195909295D01*
X242251064Y-195680723D02*
X242632017Y-195680723D01*
X242174874Y-195909295D02*
X242441541Y-195109295D01*
X242441541Y-195109295D02*
X242708207Y-195909295D01*
X242860588Y-195109295D02*
X243317731Y-195109295D01*
X243089159Y-195909295D02*
X243089159Y-195109295D01*
X243584398Y-195490247D02*
X243851064Y-195490247D01*
X243965350Y-195909295D02*
X243584398Y-195909295D01*
X243584398Y-195909295D02*
X243584398Y-195109295D01*
X243584398Y-195109295D02*
X243965350Y-195109295D01*
X245070113Y-195109295D02*
X245222494Y-195109295D01*
X245222494Y-195109295D02*
X245298684Y-195147390D01*
X245298684Y-195147390D02*
X245374875Y-195223580D01*
X245374875Y-195223580D02*
X245412970Y-195375961D01*
X245412970Y-195375961D02*
X245412970Y-195642628D01*
X245412970Y-195642628D02*
X245374875Y-195795009D01*
X245374875Y-195795009D02*
X245298684Y-195871200D01*
X245298684Y-195871200D02*
X245222494Y-195909295D01*
X245222494Y-195909295D02*
X245070113Y-195909295D01*
X245070113Y-195909295D02*
X244993922Y-195871200D01*
X244993922Y-195871200D02*
X244917732Y-195795009D01*
X244917732Y-195795009D02*
X244879636Y-195642628D01*
X244879636Y-195642628D02*
X244879636Y-195375961D01*
X244879636Y-195375961D02*
X244917732Y-195223580D01*
X244917732Y-195223580D02*
X244993922Y-195147390D01*
X244993922Y-195147390D02*
X245070113Y-195109295D01*
X246022493Y-195490247D02*
X245755827Y-195490247D01*
X245755827Y-195909295D02*
X245755827Y-195109295D01*
X245755827Y-195109295D02*
X246136779Y-195109295D01*
X247051065Y-195909295D02*
X247051065Y-195109295D01*
X247393921Y-195871200D02*
X247508207Y-195909295D01*
X247508207Y-195909295D02*
X247698683Y-195909295D01*
X247698683Y-195909295D02*
X247774874Y-195871200D01*
X247774874Y-195871200D02*
X247812969Y-195833104D01*
X247812969Y-195833104D02*
X247851064Y-195756914D01*
X247851064Y-195756914D02*
X247851064Y-195680723D01*
X247851064Y-195680723D02*
X247812969Y-195604533D01*
X247812969Y-195604533D02*
X247774874Y-195566438D01*
X247774874Y-195566438D02*
X247698683Y-195528342D01*
X247698683Y-195528342D02*
X247546302Y-195490247D01*
X247546302Y-195490247D02*
X247470112Y-195452152D01*
X247470112Y-195452152D02*
X247432017Y-195414057D01*
X247432017Y-195414057D02*
X247393921Y-195337866D01*
X247393921Y-195337866D02*
X247393921Y-195261676D01*
X247393921Y-195261676D02*
X247432017Y-195185485D01*
X247432017Y-195185485D02*
X247470112Y-195147390D01*
X247470112Y-195147390D02*
X247546302Y-195109295D01*
X247546302Y-195109295D02*
X247736779Y-195109295D01*
X247736779Y-195109295D02*
X247851064Y-195147390D01*
X248155826Y-195871200D02*
X248270112Y-195909295D01*
X248270112Y-195909295D02*
X248460588Y-195909295D01*
X248460588Y-195909295D02*
X248536779Y-195871200D01*
X248536779Y-195871200D02*
X248574874Y-195833104D01*
X248574874Y-195833104D02*
X248612969Y-195756914D01*
X248612969Y-195756914D02*
X248612969Y-195680723D01*
X248612969Y-195680723D02*
X248574874Y-195604533D01*
X248574874Y-195604533D02*
X248536779Y-195566438D01*
X248536779Y-195566438D02*
X248460588Y-195528342D01*
X248460588Y-195528342D02*
X248308207Y-195490247D01*
X248308207Y-195490247D02*
X248232017Y-195452152D01*
X248232017Y-195452152D02*
X248193922Y-195414057D01*
X248193922Y-195414057D02*
X248155826Y-195337866D01*
X248155826Y-195337866D02*
X248155826Y-195261676D01*
X248155826Y-195261676D02*
X248193922Y-195185485D01*
X248193922Y-195185485D02*
X248232017Y-195147390D01*
X248232017Y-195147390D02*
X248308207Y-195109295D01*
X248308207Y-195109295D02*
X248498684Y-195109295D01*
X248498684Y-195109295D02*
X248612969Y-195147390D01*
X248955827Y-195109295D02*
X248955827Y-195756914D01*
X248955827Y-195756914D02*
X248993922Y-195833104D01*
X248993922Y-195833104D02*
X249032017Y-195871200D01*
X249032017Y-195871200D02*
X249108208Y-195909295D01*
X249108208Y-195909295D02*
X249260589Y-195909295D01*
X249260589Y-195909295D02*
X249336779Y-195871200D01*
X249336779Y-195871200D02*
X249374874Y-195833104D01*
X249374874Y-195833104D02*
X249412970Y-195756914D01*
X249412970Y-195756914D02*
X249412970Y-195109295D01*
X249793922Y-195490247D02*
X250060588Y-195490247D01*
X250174874Y-195909295D02*
X249793922Y-195909295D01*
X249793922Y-195909295D02*
X249793922Y-195109295D01*
X249793922Y-195109295D02*
X250174874Y-195109295D01*
D10*
D11*
X258596064Y-195871200D02*
X258710350Y-195909295D01*
X258710350Y-195909295D02*
X258900826Y-195909295D01*
X258900826Y-195909295D02*
X258977017Y-195871200D01*
X258977017Y-195871200D02*
X259015112Y-195833104D01*
X259015112Y-195833104D02*
X259053207Y-195756914D01*
X259053207Y-195756914D02*
X259053207Y-195680723D01*
X259053207Y-195680723D02*
X259015112Y-195604533D01*
X259015112Y-195604533D02*
X258977017Y-195566438D01*
X258977017Y-195566438D02*
X258900826Y-195528342D01*
X258900826Y-195528342D02*
X258748445Y-195490247D01*
X258748445Y-195490247D02*
X258672255Y-195452152D01*
X258672255Y-195452152D02*
X258634160Y-195414057D01*
X258634160Y-195414057D02*
X258596064Y-195337866D01*
X258596064Y-195337866D02*
X258596064Y-195261676D01*
X258596064Y-195261676D02*
X258634160Y-195185485D01*
X258634160Y-195185485D02*
X258672255Y-195147390D01*
X258672255Y-195147390D02*
X258748445Y-195109295D01*
X258748445Y-195109295D02*
X258938922Y-195109295D01*
X258938922Y-195109295D02*
X259053207Y-195147390D01*
X259396065Y-195909295D02*
X259396065Y-195109295D01*
X259396065Y-195490247D02*
X259853208Y-195490247D01*
X259853208Y-195909295D02*
X259853208Y-195109295D01*
X260234160Y-195490247D02*
X260500826Y-195490247D01*
X260615112Y-195909295D02*
X260234160Y-195909295D01*
X260234160Y-195909295D02*
X260234160Y-195109295D01*
X260234160Y-195109295D02*
X260615112Y-195109295D01*
X260957970Y-195490247D02*
X261224636Y-195490247D01*
X261338922Y-195909295D02*
X260957970Y-195909295D01*
X260957970Y-195909295D02*
X260957970Y-195109295D01*
X260957970Y-195109295D02*
X261338922Y-195109295D01*
X261567494Y-195109295D02*
X262024637Y-195109295D01*
X261796065Y-195909295D02*
X261796065Y-195109295D01*
D10*
D11*
X239299285Y-192804128D02*
X239299285Y-191304128D01*
X239299285Y-191304128D02*
X239870714Y-191304128D01*
X239870714Y-191304128D02*
X240013571Y-191375557D01*
X240013571Y-191375557D02*
X240085000Y-191446985D01*
X240085000Y-191446985D02*
X240156428Y-191589842D01*
X240156428Y-191589842D02*
X240156428Y-191804128D01*
X240156428Y-191804128D02*
X240085000Y-191946985D01*
X240085000Y-191946985D02*
X240013571Y-192018414D01*
X240013571Y-192018414D02*
X239870714Y-192089842D01*
X239870714Y-192089842D02*
X239299285Y-192089842D01*
X241656428Y-192661271D02*
X241585000Y-192732700D01*
X241585000Y-192732700D02*
X241370714Y-192804128D01*
X241370714Y-192804128D02*
X241227857Y-192804128D01*
X241227857Y-192804128D02*
X241013571Y-192732700D01*
X241013571Y-192732700D02*
X240870714Y-192589842D01*
X240870714Y-192589842D02*
X240799285Y-192446985D01*
X240799285Y-192446985D02*
X240727857Y-192161271D01*
X240727857Y-192161271D02*
X240727857Y-191946985D01*
X240727857Y-191946985D02*
X240799285Y-191661271D01*
X240799285Y-191661271D02*
X240870714Y-191518414D01*
X240870714Y-191518414D02*
X241013571Y-191375557D01*
X241013571Y-191375557D02*
X241227857Y-191304128D01*
X241227857Y-191304128D02*
X241370714Y-191304128D01*
X241370714Y-191304128D02*
X241585000Y-191375557D01*
X241585000Y-191375557D02*
X241656428Y-191446985D01*
X242799285Y-192018414D02*
X243013571Y-192089842D01*
X243013571Y-192089842D02*
X243085000Y-192161271D01*
X243085000Y-192161271D02*
X243156428Y-192304128D01*
X243156428Y-192304128D02*
X243156428Y-192518414D01*
X243156428Y-192518414D02*
X243085000Y-192661271D01*
X243085000Y-192661271D02*
X243013571Y-192732700D01*
X243013571Y-192732700D02*
X242870714Y-192804128D01*
X242870714Y-192804128D02*
X242299285Y-192804128D01*
X242299285Y-192804128D02*
X242299285Y-191304128D01*
X242299285Y-191304128D02*
X242799285Y-191304128D01*
X242799285Y-191304128D02*
X242942143Y-191375557D01*
X242942143Y-191375557D02*
X243013571Y-191446985D01*
X243013571Y-191446985D02*
X243085000Y-191589842D01*
X243085000Y-191589842D02*
X243085000Y-191732700D01*
X243085000Y-191732700D02*
X243013571Y-191875557D01*
X243013571Y-191875557D02*
X242942143Y-191946985D01*
X242942143Y-191946985D02*
X242799285Y-192018414D01*
X242799285Y-192018414D02*
X242299285Y-192018414D01*
X243727857Y-192375557D02*
X244442143Y-192375557D01*
X243585000Y-192804128D02*
X244085000Y-191304128D01*
X244085000Y-191304128D02*
X244585000Y-192804128D01*
D10*
D11*
X225068064Y-195680723D02*
X225449017Y-195680723D01*
X224991874Y-195909295D02*
X225258541Y-195109295D01*
X225258541Y-195109295D02*
X225525207Y-195909295D01*
X225791874Y-195909295D02*
X225791874Y-195109295D01*
X225791874Y-195109295D02*
X226096636Y-195109295D01*
X226096636Y-195109295D02*
X226172826Y-195147390D01*
X226172826Y-195147390D02*
X226210921Y-195185485D01*
X226210921Y-195185485D02*
X226249017Y-195261676D01*
X226249017Y-195261676D02*
X226249017Y-195375961D01*
X226249017Y-195375961D02*
X226210921Y-195452152D01*
X226210921Y-195452152D02*
X226172826Y-195490247D01*
X226172826Y-195490247D02*
X226096636Y-195528342D01*
X226096636Y-195528342D02*
X225791874Y-195528342D01*
X226591874Y-195909295D02*
X226591874Y-195109295D01*
X226591874Y-195109295D02*
X226896636Y-195109295D01*
X226896636Y-195109295D02*
X226972826Y-195147390D01*
X226972826Y-195147390D02*
X227010921Y-195185485D01*
X227010921Y-195185485D02*
X227049017Y-195261676D01*
X227049017Y-195261676D02*
X227049017Y-195375961D01*
X227049017Y-195375961D02*
X227010921Y-195452152D01*
X227010921Y-195452152D02*
X226972826Y-195490247D01*
X226972826Y-195490247D02*
X226896636Y-195528342D01*
X226896636Y-195528342D02*
X226591874Y-195528342D01*
X227849017Y-195909295D02*
X227582350Y-195528342D01*
X227391874Y-195909295D02*
X227391874Y-195109295D01*
X227391874Y-195109295D02*
X227696636Y-195109295D01*
X227696636Y-195109295D02*
X227772826Y-195147390D01*
X227772826Y-195147390D02*
X227810921Y-195185485D01*
X227810921Y-195185485D02*
X227849017Y-195261676D01*
X227849017Y-195261676D02*
X227849017Y-195375961D01*
X227849017Y-195375961D02*
X227810921Y-195452152D01*
X227810921Y-195452152D02*
X227772826Y-195490247D01*
X227772826Y-195490247D02*
X227696636Y-195528342D01*
X227696636Y-195528342D02*
X227391874Y-195528342D01*
X228344255Y-195109295D02*
X228496636Y-195109295D01*
X228496636Y-195109295D02*
X228572826Y-195147390D01*
X228572826Y-195147390D02*
X228649017Y-195223580D01*
X228649017Y-195223580D02*
X228687112Y-195375961D01*
X228687112Y-195375961D02*
X228687112Y-195642628D01*
X228687112Y-195642628D02*
X228649017Y-195795009D01*
X228649017Y-195795009D02*
X228572826Y-195871200D01*
X228572826Y-195871200D02*
X228496636Y-195909295D01*
X228496636Y-195909295D02*
X228344255Y-195909295D01*
X228344255Y-195909295D02*
X228268064Y-195871200D01*
X228268064Y-195871200D02*
X228191874Y-195795009D01*
X228191874Y-195795009D02*
X228153778Y-195642628D01*
X228153778Y-195642628D02*
X228153778Y-195375961D01*
X228153778Y-195375961D02*
X228191874Y-195223580D01*
X228191874Y-195223580D02*
X228268064Y-195147390D01*
X228268064Y-195147390D02*
X228344255Y-195109295D01*
X228915683Y-195109295D02*
X229182350Y-195909295D01*
X229182350Y-195909295D02*
X229449016Y-195109295D01*
X229715683Y-195490247D02*
X229982349Y-195490247D01*
X230096635Y-195909295D02*
X229715683Y-195909295D01*
X229715683Y-195909295D02*
X229715683Y-195109295D01*
X229715683Y-195109295D02*
X230096635Y-195109295D01*
X230439493Y-195909295D02*
X230439493Y-195109295D01*
X230439493Y-195109295D02*
X230629969Y-195109295D01*
X230629969Y-195109295D02*
X230744255Y-195147390D01*
X230744255Y-195147390D02*
X230820445Y-195223580D01*
X230820445Y-195223580D02*
X230858540Y-195299771D01*
X230858540Y-195299771D02*
X230896636Y-195452152D01*
X230896636Y-195452152D02*
X230896636Y-195566438D01*
X230896636Y-195566438D02*
X230858540Y-195718819D01*
X230858540Y-195718819D02*
X230820445Y-195795009D01*
X230820445Y-195795009D02*
X230744255Y-195871200D01*
X230744255Y-195871200D02*
X230629969Y-195909295D01*
X230629969Y-195909295D02*
X230439493Y-195909295D01*
X232115683Y-195490247D02*
X232229969Y-195528342D01*
X232229969Y-195528342D02*
X232268064Y-195566438D01*
X232268064Y-195566438D02*
X232306160Y-195642628D01*
X232306160Y-195642628D02*
X232306160Y-195756914D01*
X232306160Y-195756914D02*
X232268064Y-195833104D01*
X232268064Y-195833104D02*
X232229969Y-195871200D01*
X232229969Y-195871200D02*
X232153779Y-195909295D01*
X232153779Y-195909295D02*
X231849017Y-195909295D01*
X231849017Y-195909295D02*
X231849017Y-195109295D01*
X231849017Y-195109295D02*
X232115683Y-195109295D01*
X232115683Y-195109295D02*
X232191874Y-195147390D01*
X232191874Y-195147390D02*
X232229969Y-195185485D01*
X232229969Y-195185485D02*
X232268064Y-195261676D01*
X232268064Y-195261676D02*
X232268064Y-195337866D01*
X232268064Y-195337866D02*
X232229969Y-195414057D01*
X232229969Y-195414057D02*
X232191874Y-195452152D01*
X232191874Y-195452152D02*
X232115683Y-195490247D01*
X232115683Y-195490247D02*
X231849017Y-195490247D01*
X232801398Y-195528342D02*
X232801398Y-195909295D01*
X232534731Y-195109295D02*
X232801398Y-195528342D01*
X232801398Y-195528342D02*
X233068064Y-195109295D01*
D10*
D11*
X144445112Y-196918271D02*
X144302255Y-196846842D01*
X144302255Y-196846842D02*
X144016541Y-196846842D01*
X144016541Y-196846842D02*
X143873684Y-196918271D01*
X143873684Y-196918271D02*
X143730826Y-197061128D01*
X143730826Y-197061128D02*
X143659398Y-197203985D01*
X143659398Y-197203985D02*
X143659398Y-197489700D01*
X143659398Y-197489700D02*
X143730826Y-197632557D01*
X143730826Y-197632557D02*
X143873684Y-197775414D01*
X143873684Y-197775414D02*
X144016541Y-197846842D01*
X144016541Y-197846842D02*
X144302255Y-197846842D01*
X144302255Y-197846842D02*
X144445112Y-197775414D01*
X144159398Y-196346842D02*
X143802255Y-196418271D01*
X143802255Y-196418271D02*
X143445112Y-196632557D01*
X143445112Y-196632557D02*
X143230826Y-196989700D01*
X143230826Y-196989700D02*
X143159398Y-197346842D01*
X143159398Y-197346842D02*
X143230826Y-197703985D01*
X143230826Y-197703985D02*
X143445112Y-198061128D01*
X143445112Y-198061128D02*
X143802255Y-198275414D01*
X143802255Y-198275414D02*
X144159398Y-198346842D01*
X144159398Y-198346842D02*
X144516541Y-198275414D01*
X144516541Y-198275414D02*
X144873684Y-198061128D01*
X144873684Y-198061128D02*
X145087969Y-197703985D01*
X145087969Y-197703985D02*
X145159398Y-197346842D01*
X145159398Y-197346842D02*
X145087969Y-196989700D01*
X145087969Y-196989700D02*
X144873684Y-196632557D01*
X144873684Y-196632557D02*
X144516541Y-196418271D01*
X144516541Y-196418271D02*
X144159398Y-196346842D01*
X146873684Y-197632557D02*
X147587970Y-197632557D01*
X146730827Y-198061128D02*
X147230827Y-196561128D01*
X147230827Y-196561128D02*
X147730827Y-198061128D01*
X148445112Y-198061128D02*
X148302255Y-197989700D01*
X148302255Y-197989700D02*
X148230826Y-197846842D01*
X148230826Y-197846842D02*
X148230826Y-196561128D01*
X149587969Y-197989700D02*
X149445112Y-198061128D01*
X149445112Y-198061128D02*
X149159398Y-198061128D01*
X149159398Y-198061128D02*
X149016540Y-197989700D01*
X149016540Y-197989700D02*
X148945112Y-197846842D01*
X148945112Y-197846842D02*
X148945112Y-197275414D01*
X148945112Y-197275414D02*
X149016540Y-197132557D01*
X149016540Y-197132557D02*
X149159398Y-197061128D01*
X149159398Y-197061128D02*
X149445112Y-197061128D01*
X149445112Y-197061128D02*
X149587969Y-197132557D01*
X149587969Y-197132557D02*
X149659398Y-197275414D01*
X149659398Y-197275414D02*
X149659398Y-197418271D01*
X149659398Y-197418271D02*
X148945112Y-197561128D01*
X150230826Y-197989700D02*
X150373683Y-198061128D01*
X150373683Y-198061128D02*
X150659397Y-198061128D01*
X150659397Y-198061128D02*
X150802254Y-197989700D01*
X150802254Y-197989700D02*
X150873683Y-197846842D01*
X150873683Y-197846842D02*
X150873683Y-197775414D01*
X150873683Y-197775414D02*
X150802254Y-197632557D01*
X150802254Y-197632557D02*
X150659397Y-197561128D01*
X150659397Y-197561128D02*
X150445112Y-197561128D01*
X150445112Y-197561128D02*
X150302254Y-197489700D01*
X150302254Y-197489700D02*
X150230826Y-197346842D01*
X150230826Y-197346842D02*
X150230826Y-197275414D01*
X150230826Y-197275414D02*
X150302254Y-197132557D01*
X150302254Y-197132557D02*
X150445112Y-197061128D01*
X150445112Y-197061128D02*
X150659397Y-197061128D01*
X150659397Y-197061128D02*
X150802254Y-197132557D01*
X151445112Y-197989700D02*
X151587969Y-198061128D01*
X151587969Y-198061128D02*
X151873683Y-198061128D01*
X151873683Y-198061128D02*
X152016540Y-197989700D01*
X152016540Y-197989700D02*
X152087969Y-197846842D01*
X152087969Y-197846842D02*
X152087969Y-197775414D01*
X152087969Y-197775414D02*
X152016540Y-197632557D01*
X152016540Y-197632557D02*
X151873683Y-197561128D01*
X151873683Y-197561128D02*
X151659398Y-197561128D01*
X151659398Y-197561128D02*
X151516540Y-197489700D01*
X151516540Y-197489700D02*
X151445112Y-197346842D01*
X151445112Y-197346842D02*
X151445112Y-197275414D01*
X151445112Y-197275414D02*
X151516540Y-197132557D01*
X151516540Y-197132557D02*
X151659398Y-197061128D01*
X151659398Y-197061128D02*
X151873683Y-197061128D01*
X151873683Y-197061128D02*
X152016540Y-197132557D01*
X153373684Y-198061128D02*
X153373684Y-197275414D01*
X153373684Y-197275414D02*
X153302255Y-197132557D01*
X153302255Y-197132557D02*
X153159398Y-197061128D01*
X153159398Y-197061128D02*
X152873684Y-197061128D01*
X152873684Y-197061128D02*
X152730826Y-197132557D01*
X153373684Y-197989700D02*
X153230826Y-198061128D01*
X153230826Y-198061128D02*
X152873684Y-198061128D01*
X152873684Y-198061128D02*
X152730826Y-197989700D01*
X152730826Y-197989700D02*
X152659398Y-197846842D01*
X152659398Y-197846842D02*
X152659398Y-197703985D01*
X152659398Y-197703985D02*
X152730826Y-197561128D01*
X152730826Y-197561128D02*
X152873684Y-197489700D01*
X152873684Y-197489700D02*
X153230826Y-197489700D01*
X153230826Y-197489700D02*
X153373684Y-197418271D01*
X154087969Y-197061128D02*
X154087969Y-198061128D01*
X154087969Y-197203985D02*
X154159398Y-197132557D01*
X154159398Y-197132557D02*
X154302255Y-197061128D01*
X154302255Y-197061128D02*
X154516541Y-197061128D01*
X154516541Y-197061128D02*
X154659398Y-197132557D01*
X154659398Y-197132557D02*
X154730827Y-197275414D01*
X154730827Y-197275414D02*
X154730827Y-198061128D01*
X156087970Y-198061128D02*
X156087970Y-196561128D01*
X156087970Y-197989700D02*
X155945112Y-198061128D01*
X155945112Y-198061128D02*
X155659398Y-198061128D01*
X155659398Y-198061128D02*
X155516541Y-197989700D01*
X155516541Y-197989700D02*
X155445112Y-197918271D01*
X155445112Y-197918271D02*
X155373684Y-197775414D01*
X155373684Y-197775414D02*
X155373684Y-197346842D01*
X155373684Y-197346842D02*
X155445112Y-197203985D01*
X155445112Y-197203985D02*
X155516541Y-197132557D01*
X155516541Y-197132557D02*
X155659398Y-197061128D01*
X155659398Y-197061128D02*
X155945112Y-197061128D01*
X155945112Y-197061128D02*
X156087970Y-197132557D01*
X156802255Y-198061128D02*
X156802255Y-197061128D01*
X156802255Y-197346842D02*
X156873684Y-197203985D01*
X156873684Y-197203985D02*
X156945113Y-197132557D01*
X156945113Y-197132557D02*
X157087970Y-197061128D01*
X157087970Y-197061128D02*
X157230827Y-197061128D01*
X157945112Y-198061128D02*
X157802255Y-197989700D01*
X157802255Y-197989700D02*
X157730826Y-197918271D01*
X157730826Y-197918271D02*
X157659398Y-197775414D01*
X157659398Y-197775414D02*
X157659398Y-197346842D01*
X157659398Y-197346842D02*
X157730826Y-197203985D01*
X157730826Y-197203985D02*
X157802255Y-197132557D01*
X157802255Y-197132557D02*
X157945112Y-197061128D01*
X157945112Y-197061128D02*
X158159398Y-197061128D01*
X158159398Y-197061128D02*
X158302255Y-197132557D01*
X158302255Y-197132557D02*
X158373684Y-197203985D01*
X158373684Y-197203985D02*
X158445112Y-197346842D01*
X158445112Y-197346842D02*
X158445112Y-197775414D01*
X158445112Y-197775414D02*
X158373684Y-197918271D01*
X158373684Y-197918271D02*
X158302255Y-197989700D01*
X158302255Y-197989700D02*
X158159398Y-198061128D01*
X158159398Y-198061128D02*
X157945112Y-198061128D01*
X161087969Y-198061128D02*
X160587969Y-197346842D01*
X160230826Y-198061128D02*
X160230826Y-196561128D01*
X160230826Y-196561128D02*
X160802255Y-196561128D01*
X160802255Y-196561128D02*
X160945112Y-196632557D01*
X160945112Y-196632557D02*
X161016541Y-196703985D01*
X161016541Y-196703985D02*
X161087969Y-196846842D01*
X161087969Y-196846842D02*
X161087969Y-197061128D01*
X161087969Y-197061128D02*
X161016541Y-197203985D01*
X161016541Y-197203985D02*
X160945112Y-197275414D01*
X160945112Y-197275414D02*
X160802255Y-197346842D01*
X160802255Y-197346842D02*
X160230826Y-197346842D01*
X161730826Y-198061128D02*
X161730826Y-197061128D01*
X161730826Y-196561128D02*
X161659398Y-196632557D01*
X161659398Y-196632557D02*
X161730826Y-196703985D01*
X161730826Y-196703985D02*
X161802255Y-196632557D01*
X161802255Y-196632557D02*
X161730826Y-196561128D01*
X161730826Y-196561128D02*
X161730826Y-196703985D01*
X162302255Y-197061128D02*
X163087970Y-197061128D01*
X163087970Y-197061128D02*
X162302255Y-198061128D01*
X162302255Y-198061128D02*
X163087970Y-198061128D01*
X163516541Y-197061128D02*
X164302256Y-197061128D01*
X164302256Y-197061128D02*
X163516541Y-198061128D01*
X163516541Y-198061128D02*
X164302256Y-198061128D01*
X165087970Y-198061128D02*
X164945113Y-197989700D01*
X164945113Y-197989700D02*
X164873684Y-197918271D01*
X164873684Y-197918271D02*
X164802256Y-197775414D01*
X164802256Y-197775414D02*
X164802256Y-197346842D01*
X164802256Y-197346842D02*
X164873684Y-197203985D01*
X164873684Y-197203985D02*
X164945113Y-197132557D01*
X164945113Y-197132557D02*
X165087970Y-197061128D01*
X165087970Y-197061128D02*
X165302256Y-197061128D01*
X165302256Y-197061128D02*
X165445113Y-197132557D01*
X165445113Y-197132557D02*
X165516542Y-197203985D01*
X165516542Y-197203985D02*
X165587970Y-197346842D01*
X165587970Y-197346842D02*
X165587970Y-197775414D01*
X165587970Y-197775414D02*
X165516542Y-197918271D01*
X165516542Y-197918271D02*
X165445113Y-197989700D01*
X165445113Y-197989700D02*
X165302256Y-198061128D01*
X165302256Y-198061128D02*
X165087970Y-198061128D01*
X166230827Y-197061128D02*
X166230827Y-198061128D01*
X166230827Y-197203985D02*
X166302256Y-197132557D01*
X166302256Y-197132557D02*
X166445113Y-197061128D01*
X166445113Y-197061128D02*
X166659399Y-197061128D01*
X166659399Y-197061128D02*
X166802256Y-197132557D01*
X166802256Y-197132557D02*
X166873685Y-197275414D01*
X166873685Y-197275414D02*
X166873685Y-198061128D01*
X167587970Y-198061128D02*
X167587970Y-197061128D01*
X167587970Y-196561128D02*
X167516542Y-196632557D01*
X167516542Y-196632557D02*
X167587970Y-196703985D01*
X167587970Y-196703985D02*
X167659399Y-196632557D01*
X167659399Y-196632557D02*
X167587970Y-196561128D01*
X167587970Y-196561128D02*
X167587970Y-196703985D01*
D10*
D11*
X227670714Y-192375557D02*
X228385000Y-192375557D01*
X227527857Y-192804128D02*
X228027857Y-191304128D01*
X228027857Y-191304128D02*
X228527857Y-192804128D01*
X229027856Y-192804128D02*
X229027856Y-191304128D01*
X230599285Y-192804128D02*
X230099285Y-192089842D01*
X229742142Y-192804128D02*
X229742142Y-191304128D01*
X229742142Y-191304128D02*
X230313571Y-191304128D01*
X230313571Y-191304128D02*
X230456428Y-191375557D01*
X230456428Y-191375557D02*
X230527857Y-191446985D01*
X230527857Y-191446985D02*
X230599285Y-191589842D01*
X230599285Y-191589842D02*
X230599285Y-191804128D01*
X230599285Y-191804128D02*
X230527857Y-191946985D01*
X230527857Y-191946985D02*
X230456428Y-192018414D01*
X230456428Y-192018414D02*
X230313571Y-192089842D01*
X230313571Y-192089842D02*
X229742142Y-192089842D01*
D10*
D11*
D10*
D11*
X250379160Y-189559295D02*
X250379160Y-188759295D01*
X250379160Y-188759295D02*
X250569636Y-188759295D01*
X250569636Y-188759295D02*
X250683922Y-188797390D01*
X250683922Y-188797390D02*
X250760112Y-188873580D01*
X250760112Y-188873580D02*
X250798207Y-188949771D01*
X250798207Y-188949771D02*
X250836303Y-189102152D01*
X250836303Y-189102152D02*
X250836303Y-189216438D01*
X250836303Y-189216438D02*
X250798207Y-189368819D01*
X250798207Y-189368819D02*
X250760112Y-189445009D01*
X250760112Y-189445009D02*
X250683922Y-189521200D01*
X250683922Y-189521200D02*
X250569636Y-189559295D01*
X250569636Y-189559295D02*
X250379160Y-189559295D01*
X251331541Y-188759295D02*
X251483922Y-188759295D01*
X251483922Y-188759295D02*
X251560112Y-188797390D01*
X251560112Y-188797390D02*
X251636303Y-188873580D01*
X251636303Y-188873580D02*
X251674398Y-189025961D01*
X251674398Y-189025961D02*
X251674398Y-189292628D01*
X251674398Y-189292628D02*
X251636303Y-189445009D01*
X251636303Y-189445009D02*
X251560112Y-189521200D01*
X251560112Y-189521200D02*
X251483922Y-189559295D01*
X251483922Y-189559295D02*
X251331541Y-189559295D01*
X251331541Y-189559295D02*
X251255350Y-189521200D01*
X251255350Y-189521200D02*
X251179160Y-189445009D01*
X251179160Y-189445009D02*
X251141064Y-189292628D01*
X251141064Y-189292628D02*
X251141064Y-189025961D01*
X251141064Y-189025961D02*
X251179160Y-188873580D01*
X251179160Y-188873580D02*
X251255350Y-188797390D01*
X251255350Y-188797390D02*
X251331541Y-188759295D01*
X252474398Y-189483104D02*
X252436302Y-189521200D01*
X252436302Y-189521200D02*
X252322017Y-189559295D01*
X252322017Y-189559295D02*
X252245826Y-189559295D01*
X252245826Y-189559295D02*
X252131540Y-189521200D01*
X252131540Y-189521200D02*
X252055350Y-189445009D01*
X252055350Y-189445009D02*
X252017255Y-189368819D01*
X252017255Y-189368819D02*
X251979159Y-189216438D01*
X251979159Y-189216438D02*
X251979159Y-189102152D01*
X251979159Y-189102152D02*
X252017255Y-188949771D01*
X252017255Y-188949771D02*
X252055350Y-188873580D01*
X252055350Y-188873580D02*
X252131540Y-188797390D01*
X252131540Y-188797390D02*
X252245826Y-188759295D01*
X252245826Y-188759295D02*
X252322017Y-188759295D01*
X252322017Y-188759295D02*
X252436302Y-188797390D01*
X252436302Y-188797390D02*
X252474398Y-188835485D01*
X252817255Y-188759295D02*
X252817255Y-189406914D01*
X252817255Y-189406914D02*
X252855350Y-189483104D01*
X252855350Y-189483104D02*
X252893445Y-189521200D01*
X252893445Y-189521200D02*
X252969636Y-189559295D01*
X252969636Y-189559295D02*
X253122017Y-189559295D01*
X253122017Y-189559295D02*
X253198207Y-189521200D01*
X253198207Y-189521200D02*
X253236302Y-189483104D01*
X253236302Y-189483104D02*
X253274398Y-189406914D01*
X253274398Y-189406914D02*
X253274398Y-188759295D01*
X253655350Y-189559295D02*
X253655350Y-188759295D01*
X253655350Y-188759295D02*
X253922016Y-189330723D01*
X253922016Y-189330723D02*
X254188683Y-188759295D01*
X254188683Y-188759295D02*
X254188683Y-189559295D01*
X254569636Y-189140247D02*
X254836302Y-189140247D01*
X254950588Y-189559295D02*
X254569636Y-189559295D01*
X254569636Y-189559295D02*
X254569636Y-188759295D01*
X254569636Y-188759295D02*
X254950588Y-188759295D01*
X255293446Y-189559295D02*
X255293446Y-188759295D01*
X255293446Y-188759295D02*
X255750589Y-189559295D01*
X255750589Y-189559295D02*
X255750589Y-188759295D01*
X256017255Y-188759295D02*
X256474398Y-188759295D01*
X256245826Y-189559295D02*
X256245826Y-188759295D01*
X257312493Y-189521200D02*
X257426779Y-189559295D01*
X257426779Y-189559295D02*
X257617255Y-189559295D01*
X257617255Y-189559295D02*
X257693446Y-189521200D01*
X257693446Y-189521200D02*
X257731541Y-189483104D01*
X257731541Y-189483104D02*
X257769636Y-189406914D01*
X257769636Y-189406914D02*
X257769636Y-189330723D01*
X257769636Y-189330723D02*
X257731541Y-189254533D01*
X257731541Y-189254533D02*
X257693446Y-189216438D01*
X257693446Y-189216438D02*
X257617255Y-189178342D01*
X257617255Y-189178342D02*
X257464874Y-189140247D01*
X257464874Y-189140247D02*
X257388684Y-189102152D01*
X257388684Y-189102152D02*
X257350589Y-189064057D01*
X257350589Y-189064057D02*
X257312493Y-188987866D01*
X257312493Y-188987866D02*
X257312493Y-188911676D01*
X257312493Y-188911676D02*
X257350589Y-188835485D01*
X257350589Y-188835485D02*
X257388684Y-188797390D01*
X257388684Y-188797390D02*
X257464874Y-188759295D01*
X257464874Y-188759295D02*
X257655351Y-188759295D01*
X257655351Y-188759295D02*
X257769636Y-188797390D01*
X257998208Y-188759295D02*
X258455351Y-188759295D01*
X258226779Y-189559295D02*
X258226779Y-188759295D01*
X258683922Y-189330723D02*
X259064875Y-189330723D01*
X258607732Y-189559295D02*
X258874399Y-188759295D01*
X258874399Y-188759295D02*
X259141065Y-189559295D01*
X259293446Y-188759295D02*
X259750589Y-188759295D01*
X259522017Y-189559295D02*
X259522017Y-188759295D01*
X260017256Y-188759295D02*
X260017256Y-189406914D01*
X260017256Y-189406914D02*
X260055351Y-189483104D01*
X260055351Y-189483104D02*
X260093446Y-189521200D01*
X260093446Y-189521200D02*
X260169637Y-189559295D01*
X260169637Y-189559295D02*
X260322018Y-189559295D01*
X260322018Y-189559295D02*
X260398208Y-189521200D01*
X260398208Y-189521200D02*
X260436303Y-189483104D01*
X260436303Y-189483104D02*
X260474399Y-189406914D01*
X260474399Y-189406914D02*
X260474399Y-188759295D01*
X260817255Y-189521200D02*
X260931541Y-189559295D01*
X260931541Y-189559295D02*
X261122017Y-189559295D01*
X261122017Y-189559295D02*
X261198208Y-189521200D01*
X261198208Y-189521200D02*
X261236303Y-189483104D01*
X261236303Y-189483104D02*
X261274398Y-189406914D01*
X261274398Y-189406914D02*
X261274398Y-189330723D01*
X261274398Y-189330723D02*
X261236303Y-189254533D01*
X261236303Y-189254533D02*
X261198208Y-189216438D01*
X261198208Y-189216438D02*
X261122017Y-189178342D01*
X261122017Y-189178342D02*
X260969636Y-189140247D01*
X260969636Y-189140247D02*
X260893446Y-189102152D01*
X260893446Y-189102152D02*
X260855351Y-189064057D01*
X260855351Y-189064057D02*
X260817255Y-188987866D01*
X260817255Y-188987866D02*
X260817255Y-188911676D01*
X260817255Y-188911676D02*
X260855351Y-188835485D01*
X260855351Y-188835485D02*
X260893446Y-188797390D01*
X260893446Y-188797390D02*
X260969636Y-188759295D01*
X260969636Y-188759295D02*
X261160113Y-188759295D01*
X261160113Y-188759295D02*
X261274398Y-188797390D01*
D10*
D11*
X224979160Y-189559295D02*
X224979160Y-188759295D01*
X224979160Y-188759295D02*
X225169636Y-188759295D01*
X225169636Y-188759295D02*
X225283922Y-188797390D01*
X225283922Y-188797390D02*
X225360112Y-188873580D01*
X225360112Y-188873580D02*
X225398207Y-188949771D01*
X225398207Y-188949771D02*
X225436303Y-189102152D01*
X225436303Y-189102152D02*
X225436303Y-189216438D01*
X225436303Y-189216438D02*
X225398207Y-189368819D01*
X225398207Y-189368819D02*
X225360112Y-189445009D01*
X225360112Y-189445009D02*
X225283922Y-189521200D01*
X225283922Y-189521200D02*
X225169636Y-189559295D01*
X225169636Y-189559295D02*
X224979160Y-189559295D01*
X226236303Y-189559295D02*
X225969636Y-189178342D01*
X225779160Y-189559295D02*
X225779160Y-188759295D01*
X225779160Y-188759295D02*
X226083922Y-188759295D01*
X226083922Y-188759295D02*
X226160112Y-188797390D01*
X226160112Y-188797390D02*
X226198207Y-188835485D01*
X226198207Y-188835485D02*
X226236303Y-188911676D01*
X226236303Y-188911676D02*
X226236303Y-189025961D01*
X226236303Y-189025961D02*
X226198207Y-189102152D01*
X226198207Y-189102152D02*
X226160112Y-189140247D01*
X226160112Y-189140247D02*
X226083922Y-189178342D01*
X226083922Y-189178342D02*
X225779160Y-189178342D01*
X226541064Y-189330723D02*
X226922017Y-189330723D01*
X226464874Y-189559295D02*
X226731541Y-188759295D01*
X226731541Y-188759295D02*
X226998207Y-189559295D01*
X227188683Y-188759295D02*
X227379159Y-189559295D01*
X227379159Y-189559295D02*
X227531540Y-188987866D01*
X227531540Y-188987866D02*
X227683921Y-189559295D01*
X227683921Y-189559295D02*
X227874398Y-188759295D01*
X228179160Y-189559295D02*
X228179160Y-188759295D01*
X228179160Y-188759295D02*
X228636303Y-189559295D01*
X228636303Y-189559295D02*
X228636303Y-188759295D01*
X229893445Y-189140247D02*
X230007731Y-189178342D01*
X230007731Y-189178342D02*
X230045826Y-189216438D01*
X230045826Y-189216438D02*
X230083922Y-189292628D01*
X230083922Y-189292628D02*
X230083922Y-189406914D01*
X230083922Y-189406914D02*
X230045826Y-189483104D01*
X230045826Y-189483104D02*
X230007731Y-189521200D01*
X230007731Y-189521200D02*
X229931541Y-189559295D01*
X229931541Y-189559295D02*
X229626779Y-189559295D01*
X229626779Y-189559295D02*
X229626779Y-188759295D01*
X229626779Y-188759295D02*
X229893445Y-188759295D01*
X229893445Y-188759295D02*
X229969636Y-188797390D01*
X229969636Y-188797390D02*
X230007731Y-188835485D01*
X230007731Y-188835485D02*
X230045826Y-188911676D01*
X230045826Y-188911676D02*
X230045826Y-188987866D01*
X230045826Y-188987866D02*
X230007731Y-189064057D01*
X230007731Y-189064057D02*
X229969636Y-189102152D01*
X229969636Y-189102152D02*
X229893445Y-189140247D01*
X229893445Y-189140247D02*
X229626779Y-189140247D01*
X230579160Y-189178342D02*
X230579160Y-189559295D01*
X230312493Y-188759295D02*
X230579160Y-189178342D01*
X230579160Y-189178342D02*
X230845826Y-188759295D01*
D10*
D11*
X235139160Y-189559295D02*
X235139160Y-188759295D01*
X235139160Y-188759295D02*
X235329636Y-188759295D01*
X235329636Y-188759295D02*
X235443922Y-188797390D01*
X235443922Y-188797390D02*
X235520112Y-188873580D01*
X235520112Y-188873580D02*
X235558207Y-188949771D01*
X235558207Y-188949771D02*
X235596303Y-189102152D01*
X235596303Y-189102152D02*
X235596303Y-189216438D01*
X235596303Y-189216438D02*
X235558207Y-189368819D01*
X235558207Y-189368819D02*
X235520112Y-189445009D01*
X235520112Y-189445009D02*
X235443922Y-189521200D01*
X235443922Y-189521200D02*
X235329636Y-189559295D01*
X235329636Y-189559295D02*
X235139160Y-189559295D01*
X236091541Y-188759295D02*
X236243922Y-188759295D01*
X236243922Y-188759295D02*
X236320112Y-188797390D01*
X236320112Y-188797390D02*
X236396303Y-188873580D01*
X236396303Y-188873580D02*
X236434398Y-189025961D01*
X236434398Y-189025961D02*
X236434398Y-189292628D01*
X236434398Y-189292628D02*
X236396303Y-189445009D01*
X236396303Y-189445009D02*
X236320112Y-189521200D01*
X236320112Y-189521200D02*
X236243922Y-189559295D01*
X236243922Y-189559295D02*
X236091541Y-189559295D01*
X236091541Y-189559295D02*
X236015350Y-189521200D01*
X236015350Y-189521200D02*
X235939160Y-189445009D01*
X235939160Y-189445009D02*
X235901064Y-189292628D01*
X235901064Y-189292628D02*
X235901064Y-189025961D01*
X235901064Y-189025961D02*
X235939160Y-188873580D01*
X235939160Y-188873580D02*
X236015350Y-188797390D01*
X236015350Y-188797390D02*
X236091541Y-188759295D01*
X237234398Y-189483104D02*
X237196302Y-189521200D01*
X237196302Y-189521200D02*
X237082017Y-189559295D01*
X237082017Y-189559295D02*
X237005826Y-189559295D01*
X237005826Y-189559295D02*
X236891540Y-189521200D01*
X236891540Y-189521200D02*
X236815350Y-189445009D01*
X236815350Y-189445009D02*
X236777255Y-189368819D01*
X236777255Y-189368819D02*
X236739159Y-189216438D01*
X236739159Y-189216438D02*
X236739159Y-189102152D01*
X236739159Y-189102152D02*
X236777255Y-188949771D01*
X236777255Y-188949771D02*
X236815350Y-188873580D01*
X236815350Y-188873580D02*
X236891540Y-188797390D01*
X236891540Y-188797390D02*
X237005826Y-188759295D01*
X237005826Y-188759295D02*
X237082017Y-188759295D01*
X237082017Y-188759295D02*
X237196302Y-188797390D01*
X237196302Y-188797390D02*
X237234398Y-188835485D01*
X237577255Y-188759295D02*
X237577255Y-189406914D01*
X237577255Y-189406914D02*
X237615350Y-189483104D01*
X237615350Y-189483104D02*
X237653445Y-189521200D01*
X237653445Y-189521200D02*
X237729636Y-189559295D01*
X237729636Y-189559295D02*
X237882017Y-189559295D01*
X237882017Y-189559295D02*
X237958207Y-189521200D01*
X237958207Y-189521200D02*
X237996302Y-189483104D01*
X237996302Y-189483104D02*
X238034398Y-189406914D01*
X238034398Y-189406914D02*
X238034398Y-188759295D01*
X238415350Y-189559295D02*
X238415350Y-188759295D01*
X238415350Y-188759295D02*
X238682016Y-189330723D01*
X238682016Y-189330723D02*
X238948683Y-188759295D01*
X238948683Y-188759295D02*
X238948683Y-189559295D01*
X239329636Y-189140247D02*
X239596302Y-189140247D01*
X239710588Y-189559295D02*
X239329636Y-189559295D01*
X239329636Y-189559295D02*
X239329636Y-188759295D01*
X239329636Y-188759295D02*
X239710588Y-188759295D01*
X240053446Y-189559295D02*
X240053446Y-188759295D01*
X240053446Y-188759295D02*
X240510589Y-189559295D01*
X240510589Y-189559295D02*
X240510589Y-188759295D01*
X240777255Y-188759295D02*
X241234398Y-188759295D01*
X241005826Y-189559295D02*
X241005826Y-188759295D01*
X241996303Y-188759295D02*
X242453446Y-188759295D01*
X242224874Y-189559295D02*
X242224874Y-188759295D01*
X242872494Y-189178342D02*
X242872494Y-189559295D01*
X242605827Y-188759295D02*
X242872494Y-189178342D01*
X242872494Y-189178342D02*
X243139160Y-188759295D01*
X243405827Y-189559295D02*
X243405827Y-188759295D01*
X243405827Y-188759295D02*
X243710589Y-188759295D01*
X243710589Y-188759295D02*
X243786779Y-188797390D01*
X243786779Y-188797390D02*
X243824874Y-188835485D01*
X243824874Y-188835485D02*
X243862970Y-188911676D01*
X243862970Y-188911676D02*
X243862970Y-189025961D01*
X243862970Y-189025961D02*
X243824874Y-189102152D01*
X243824874Y-189102152D02*
X243786779Y-189140247D01*
X243786779Y-189140247D02*
X243710589Y-189178342D01*
X243710589Y-189178342D02*
X243405827Y-189178342D01*
X244205827Y-189140247D02*
X244472493Y-189140247D01*
X244586779Y-189559295D02*
X244205827Y-189559295D01*
X244205827Y-189559295D02*
X244205827Y-188759295D01*
X244205827Y-188759295D02*
X244586779Y-188759295D01*
D10*
D11*
X253821000Y-192804128D02*
X253821000Y-191304128D01*
X253821000Y-191304128D02*
X254178143Y-191304128D01*
X254178143Y-191304128D02*
X254392429Y-191375557D01*
X254392429Y-191375557D02*
X254535286Y-191518414D01*
X254535286Y-191518414D02*
X254606715Y-191661271D01*
X254606715Y-191661271D02*
X254678143Y-191946985D01*
X254678143Y-191946985D02*
X254678143Y-192161271D01*
X254678143Y-192161271D02*
X254606715Y-192446985D01*
X254606715Y-192446985D02*
X254535286Y-192589842D01*
X254535286Y-192589842D02*
X254392429Y-192732700D01*
X254392429Y-192732700D02*
X254178143Y-192804128D01*
X254178143Y-192804128D02*
X253821000Y-192804128D01*
X256178143Y-192804128D02*
X255678143Y-192089842D01*
X255321000Y-192804128D02*
X255321000Y-191304128D01*
X255321000Y-191304128D02*
X255892429Y-191304128D01*
X255892429Y-191304128D02*
X256035286Y-191375557D01*
X256035286Y-191375557D02*
X256106715Y-191446985D01*
X256106715Y-191446985D02*
X256178143Y-191589842D01*
X256178143Y-191589842D02*
X256178143Y-191804128D01*
X256178143Y-191804128D02*
X256106715Y-191946985D01*
X256106715Y-191946985D02*
X256035286Y-192018414D01*
X256035286Y-192018414D02*
X255892429Y-192089842D01*
X255892429Y-192089842D02*
X255321000Y-192089842D01*
X256749572Y-192375557D02*
X257463858Y-192375557D01*
X256606715Y-192804128D02*
X257106715Y-191304128D01*
X257106715Y-191304128D02*
X257606715Y-192804128D01*
X258606714Y-192018414D02*
X258106714Y-192018414D01*
X258106714Y-192804128D02*
X258106714Y-191304128D01*
X258106714Y-191304128D02*
X258821000Y-191304128D01*
X259178143Y-191304128D02*
X260035286Y-191304128D01*
X259606714Y-192804128D02*
X259606714Y-191304128D01*
D10*
D11*
X241915287Y-197796985D02*
X241986715Y-197725557D01*
X241986715Y-197725557D02*
X242129573Y-197654128D01*
X242129573Y-197654128D02*
X242486715Y-197654128D01*
X242486715Y-197654128D02*
X242629573Y-197725557D01*
X242629573Y-197725557D02*
X242701001Y-197796985D01*
X242701001Y-197796985D02*
X242772430Y-197939842D01*
X242772430Y-197939842D02*
X242772430Y-198082700D01*
X242772430Y-198082700D02*
X242701001Y-198296985D01*
X242701001Y-198296985D02*
X241843858Y-199154128D01*
X241843858Y-199154128D02*
X242772430Y-199154128D01*
X243701001Y-197654128D02*
X243843858Y-197654128D01*
X243843858Y-197654128D02*
X243986715Y-197725557D01*
X243986715Y-197725557D02*
X244058144Y-197796985D01*
X244058144Y-197796985D02*
X244129572Y-197939842D01*
X244129572Y-197939842D02*
X244201001Y-198225557D01*
X244201001Y-198225557D02*
X244201001Y-198582700D01*
X244201001Y-198582700D02*
X244129572Y-198868414D01*
X244129572Y-198868414D02*
X244058144Y-199011271D01*
X244058144Y-199011271D02*
X243986715Y-199082700D01*
X243986715Y-199082700D02*
X243843858Y-199154128D01*
X243843858Y-199154128D02*
X243701001Y-199154128D01*
X243701001Y-199154128D02*
X243558144Y-199082700D01*
X243558144Y-199082700D02*
X243486715Y-199011271D01*
X243486715Y-199011271D02*
X243415286Y-198868414D01*
X243415286Y-198868414D02*
X243343858Y-198582700D01*
X243343858Y-198582700D02*
X243343858Y-198225557D01*
X243343858Y-198225557D02*
X243415286Y-197939842D01*
X243415286Y-197939842D02*
X243486715Y-197796985D01*
X243486715Y-197796985D02*
X243558144Y-197725557D01*
X243558144Y-197725557D02*
X243701001Y-197654128D01*
X244772429Y-197796985D02*
X244843857Y-197725557D01*
X244843857Y-197725557D02*
X244986715Y-197654128D01*
X244986715Y-197654128D02*
X245343857Y-197654128D01*
X245343857Y-197654128D02*
X245486715Y-197725557D01*
X245486715Y-197725557D02*
X245558143Y-197796985D01*
X245558143Y-197796985D02*
X245629572Y-197939842D01*
X245629572Y-197939842D02*
X245629572Y-198082700D01*
X245629572Y-198082700D02*
X245558143Y-198296985D01*
X245558143Y-198296985D02*
X244701000Y-199154128D01*
X244701000Y-199154128D02*
X245629572Y-199154128D01*
X246129571Y-197654128D02*
X247058143Y-197654128D01*
X247058143Y-197654128D02*
X246558143Y-198225557D01*
X246558143Y-198225557D02*
X246772428Y-198225557D01*
X246772428Y-198225557D02*
X246915286Y-198296985D01*
X246915286Y-198296985D02*
X246986714Y-198368414D01*
X246986714Y-198368414D02*
X247058143Y-198511271D01*
X247058143Y-198511271D02*
X247058143Y-198868414D01*
X247058143Y-198868414D02*
X246986714Y-199011271D01*
X246986714Y-199011271D02*
X246915286Y-199082700D01*
X246915286Y-199082700D02*
X246772428Y-199154128D01*
X246772428Y-199154128D02*
X246343857Y-199154128D01*
X246343857Y-199154128D02*
X246201000Y-199082700D01*
X246201000Y-199082700D02*
X246129571Y-199011271D01*
X247700999Y-198582700D02*
X248843857Y-198582700D01*
X249843857Y-197654128D02*
X249986714Y-197654128D01*
X249986714Y-197654128D02*
X250129571Y-197725557D01*
X250129571Y-197725557D02*
X250201000Y-197796985D01*
X250201000Y-197796985D02*
X250272428Y-197939842D01*
X250272428Y-197939842D02*
X250343857Y-198225557D01*
X250343857Y-198225557D02*
X250343857Y-198582700D01*
X250343857Y-198582700D02*
X250272428Y-198868414D01*
X250272428Y-198868414D02*
X250201000Y-199011271D01*
X250201000Y-199011271D02*
X250129571Y-199082700D01*
X250129571Y-199082700D02*
X249986714Y-199154128D01*
X249986714Y-199154128D02*
X249843857Y-199154128D01*
X249843857Y-199154128D02*
X249701000Y-199082700D01*
X249701000Y-199082700D02*
X249629571Y-199011271D01*
X249629571Y-199011271D02*
X249558142Y-198868414D01*
X249558142Y-198868414D02*
X249486714Y-198582700D01*
X249486714Y-198582700D02*
X249486714Y-198225557D01*
X249486714Y-198225557D02*
X249558142Y-197939842D01*
X249558142Y-197939842D02*
X249629571Y-197796985D01*
X249629571Y-197796985D02*
X249701000Y-197725557D01*
X249701000Y-197725557D02*
X249843857Y-197654128D01*
X251700999Y-197654128D02*
X250986713Y-197654128D01*
X250986713Y-197654128D02*
X250915285Y-198368414D01*
X250915285Y-198368414D02*
X250986713Y-198296985D01*
X250986713Y-198296985D02*
X251129571Y-198225557D01*
X251129571Y-198225557D02*
X251486713Y-198225557D01*
X251486713Y-198225557D02*
X251629571Y-198296985D01*
X251629571Y-198296985D02*
X251700999Y-198368414D01*
X251700999Y-198368414D02*
X251772428Y-198511271D01*
X251772428Y-198511271D02*
X251772428Y-198868414D01*
X251772428Y-198868414D02*
X251700999Y-199011271D01*
X251700999Y-199011271D02*
X251629571Y-199082700D01*
X251629571Y-199082700D02*
X251486713Y-199154128D01*
X251486713Y-199154128D02*
X251129571Y-199154128D01*
X251129571Y-199154128D02*
X250986713Y-199082700D01*
X250986713Y-199082700D02*
X250915285Y-199011271D01*
X252415284Y-198582700D02*
X253558142Y-198582700D01*
X254200999Y-197796985D02*
X254272427Y-197725557D01*
X254272427Y-197725557D02*
X254415285Y-197654128D01*
X254415285Y-197654128D02*
X254772427Y-197654128D01*
X254772427Y-197654128D02*
X254915285Y-197725557D01*
X254915285Y-197725557D02*
X254986713Y-197796985D01*
X254986713Y-197796985D02*
X255058142Y-197939842D01*
X255058142Y-197939842D02*
X255058142Y-198082700D01*
X255058142Y-198082700D02*
X254986713Y-198296985D01*
X254986713Y-198296985D02*
X254129570Y-199154128D01*
X254129570Y-199154128D02*
X255058142Y-199154128D01*
X256486713Y-199154128D02*
X255629570Y-199154128D01*
X256058141Y-199154128D02*
X256058141Y-197654128D01*
X256058141Y-197654128D02*
X255915284Y-197868414D01*
X255915284Y-197868414D02*
X255772427Y-198011271D01*
X255772427Y-198011271D02*
X255629570Y-198082700D01*
D10*
D11*
X237032857Y-198725557D02*
X237747143Y-198725557D01*
X236890000Y-199154128D02*
X237390000Y-197654128D01*
X237390000Y-197654128D02*
X237890000Y-199154128D01*
D10*
D12*
X144115225Y-192288328D02*
X143258082Y-192288328D01*
X143686653Y-192288328D02*
X143686653Y-190788328D01*
X143686653Y-190788328D02*
X143543796Y-191002614D01*
X143543796Y-191002614D02*
X143400939Y-191145471D01*
X143400939Y-191145471D02*
X143258082Y-191216900D01*
X145472367Y-190788328D02*
X144758081Y-190788328D01*
X144758081Y-190788328D02*
X144686653Y-191502614D01*
X144686653Y-191502614D02*
X144758081Y-191431185D01*
X144758081Y-191431185D02*
X144900939Y-191359757D01*
X144900939Y-191359757D02*
X145258081Y-191359757D01*
X145258081Y-191359757D02*
X145400939Y-191431185D01*
X145400939Y-191431185D02*
X145472367Y-191502614D01*
X145472367Y-191502614D02*
X145543796Y-191645471D01*
X145543796Y-191645471D02*
X145543796Y-192002614D01*
X145543796Y-192002614D02*
X145472367Y-192145471D01*
X145472367Y-192145471D02*
X145400939Y-192216900D01*
X145400939Y-192216900D02*
X145258081Y-192288328D01*
X145258081Y-192288328D02*
X144900939Y-192288328D01*
X144900939Y-192288328D02*
X144758081Y-192216900D01*
X144758081Y-192216900D02*
X144686653Y-192145471D01*
X146258081Y-192288328D02*
X146543795Y-192288328D01*
X146543795Y-192288328D02*
X146686652Y-192216900D01*
X146686652Y-192216900D02*
X146758081Y-192145471D01*
X146758081Y-192145471D02*
X146900938Y-191931185D01*
X146900938Y-191931185D02*
X146972367Y-191645471D01*
X146972367Y-191645471D02*
X146972367Y-191074042D01*
X146972367Y-191074042D02*
X146900938Y-190931185D01*
X146900938Y-190931185D02*
X146829510Y-190859757D01*
X146829510Y-190859757D02*
X146686652Y-190788328D01*
X146686652Y-190788328D02*
X146400938Y-190788328D01*
X146400938Y-190788328D02*
X146258081Y-190859757D01*
X146258081Y-190859757D02*
X146186652Y-190931185D01*
X146186652Y-190931185D02*
X146115224Y-191074042D01*
X146115224Y-191074042D02*
X146115224Y-191431185D01*
X146115224Y-191431185D02*
X146186652Y-191574042D01*
X146186652Y-191574042D02*
X146258081Y-191645471D01*
X146258081Y-191645471D02*
X146400938Y-191716900D01*
X146400938Y-191716900D02*
X146686652Y-191716900D01*
X146686652Y-191716900D02*
X146829510Y-191645471D01*
X146829510Y-191645471D02*
X146900938Y-191574042D01*
X146900938Y-191574042D02*
X146972367Y-191431185D01*
X147900938Y-190788328D02*
X148043795Y-190788328D01*
X148043795Y-190788328D02*
X148186652Y-190859757D01*
X148186652Y-190859757D02*
X148258081Y-190931185D01*
X148258081Y-190931185D02*
X148329509Y-191074042D01*
X148329509Y-191074042D02*
X148400938Y-191359757D01*
X148400938Y-191359757D02*
X148400938Y-191716900D01*
X148400938Y-191716900D02*
X148329509Y-192002614D01*
X148329509Y-192002614D02*
X148258081Y-192145471D01*
X148258081Y-192145471D02*
X148186652Y-192216900D01*
X148186652Y-192216900D02*
X148043795Y-192288328D01*
X148043795Y-192288328D02*
X147900938Y-192288328D01*
X147900938Y-192288328D02*
X147758081Y-192216900D01*
X147758081Y-192216900D02*
X147686652Y-192145471D01*
X147686652Y-192145471D02*
X147615223Y-192002614D01*
X147615223Y-192002614D02*
X147543795Y-191716900D01*
X147543795Y-191716900D02*
X147543795Y-191359757D01*
X147543795Y-191359757D02*
X147615223Y-191074042D01*
X147615223Y-191074042D02*
X147686652Y-190931185D01*
X147686652Y-190931185D02*
X147758081Y-190859757D01*
X147758081Y-190859757D02*
X147900938Y-190788328D01*
X149043794Y-192288328D02*
X149043794Y-190788328D01*
X149043794Y-190788328D02*
X149900937Y-192288328D01*
X149900937Y-192288328D02*
X149900937Y-190788328D01*
X151400938Y-192288328D02*
X150543795Y-192288328D01*
X150972366Y-192288328D02*
X150972366Y-190788328D01*
X150972366Y-190788328D02*
X150829509Y-191002614D01*
X150829509Y-191002614D02*
X150686652Y-191145471D01*
X150686652Y-191145471D02*
X150543795Y-191216900D01*
X153686651Y-191502614D02*
X153900937Y-191574042D01*
X153900937Y-191574042D02*
X153972366Y-191645471D01*
X153972366Y-191645471D02*
X154043794Y-191788328D01*
X154043794Y-191788328D02*
X154043794Y-192002614D01*
X154043794Y-192002614D02*
X153972366Y-192145471D01*
X153972366Y-192145471D02*
X153900937Y-192216900D01*
X153900937Y-192216900D02*
X153758080Y-192288328D01*
X153758080Y-192288328D02*
X153186651Y-192288328D01*
X153186651Y-192288328D02*
X153186651Y-190788328D01*
X153186651Y-190788328D02*
X153686651Y-190788328D01*
X153686651Y-190788328D02*
X153829509Y-190859757D01*
X153829509Y-190859757D02*
X153900937Y-190931185D01*
X153900937Y-190931185D02*
X153972366Y-191074042D01*
X153972366Y-191074042D02*
X153972366Y-191216900D01*
X153972366Y-191216900D02*
X153900937Y-191359757D01*
X153900937Y-191359757D02*
X153829509Y-191431185D01*
X153829509Y-191431185D02*
X153686651Y-191502614D01*
X153686651Y-191502614D02*
X153186651Y-191502614D01*
X154615223Y-191859757D02*
X155329509Y-191859757D01*
X154472366Y-192288328D02*
X154972366Y-190788328D01*
X154972366Y-190788328D02*
X155472366Y-192288328D01*
X155900937Y-192216900D02*
X156115223Y-192288328D01*
X156115223Y-192288328D02*
X156472365Y-192288328D01*
X156472365Y-192288328D02*
X156615223Y-192216900D01*
X156615223Y-192216900D02*
X156686651Y-192145471D01*
X156686651Y-192145471D02*
X156758080Y-192002614D01*
X156758080Y-192002614D02*
X156758080Y-191859757D01*
X156758080Y-191859757D02*
X156686651Y-191716900D01*
X156686651Y-191716900D02*
X156615223Y-191645471D01*
X156615223Y-191645471D02*
X156472365Y-191574042D01*
X156472365Y-191574042D02*
X156186651Y-191502614D01*
X156186651Y-191502614D02*
X156043794Y-191431185D01*
X156043794Y-191431185D02*
X155972365Y-191359757D01*
X155972365Y-191359757D02*
X155900937Y-191216900D01*
X155900937Y-191216900D02*
X155900937Y-191074042D01*
X155900937Y-191074042D02*
X155972365Y-190931185D01*
X155972365Y-190931185D02*
X156043794Y-190859757D01*
X156043794Y-190859757D02*
X156186651Y-190788328D01*
X156186651Y-190788328D02*
X156543794Y-190788328D01*
X156543794Y-190788328D02*
X156758080Y-190859757D01*
X157400936Y-191502614D02*
X157900936Y-191502614D01*
X158115222Y-192288328D02*
X157400936Y-192288328D01*
X157400936Y-192288328D02*
X157400936Y-190788328D01*
X157400936Y-190788328D02*
X158115222Y-190788328D01*
X159258079Y-191502614D02*
X159472365Y-191574042D01*
X159472365Y-191574042D02*
X159543794Y-191645471D01*
X159543794Y-191645471D02*
X159615222Y-191788328D01*
X159615222Y-191788328D02*
X159615222Y-192002614D01*
X159615222Y-192002614D02*
X159543794Y-192145471D01*
X159543794Y-192145471D02*
X159472365Y-192216900D01*
X159472365Y-192216900D02*
X159329508Y-192288328D01*
X159329508Y-192288328D02*
X158758079Y-192288328D01*
X158758079Y-192288328D02*
X158758079Y-190788328D01*
X158758079Y-190788328D02*
X159258079Y-190788328D01*
X159258079Y-190788328D02*
X159400937Y-190859757D01*
X159400937Y-190859757D02*
X159472365Y-190931185D01*
X159472365Y-190931185D02*
X159543794Y-191074042D01*
X159543794Y-191074042D02*
X159543794Y-191216900D01*
X159543794Y-191216900D02*
X159472365Y-191359757D01*
X159472365Y-191359757D02*
X159400937Y-191431185D01*
X159400937Y-191431185D02*
X159258079Y-191502614D01*
X159258079Y-191502614D02*
X158758079Y-191502614D01*
X160543794Y-190788328D02*
X160829508Y-190788328D01*
X160829508Y-190788328D02*
X160972365Y-190859757D01*
X160972365Y-190859757D02*
X161115222Y-191002614D01*
X161115222Y-191002614D02*
X161186651Y-191288328D01*
X161186651Y-191288328D02*
X161186651Y-191788328D01*
X161186651Y-191788328D02*
X161115222Y-192074042D01*
X161115222Y-192074042D02*
X160972365Y-192216900D01*
X160972365Y-192216900D02*
X160829508Y-192288328D01*
X160829508Y-192288328D02*
X160543794Y-192288328D01*
X160543794Y-192288328D02*
X160400937Y-192216900D01*
X160400937Y-192216900D02*
X160258079Y-192074042D01*
X160258079Y-192074042D02*
X160186651Y-191788328D01*
X160186651Y-191788328D02*
X160186651Y-191288328D01*
X160186651Y-191288328D02*
X160258079Y-191002614D01*
X160258079Y-191002614D02*
X160400937Y-190859757D01*
X160400937Y-190859757D02*
X160543794Y-190788328D01*
X161758080Y-191859757D02*
X162472366Y-191859757D01*
X161615223Y-192288328D02*
X162115223Y-190788328D01*
X162115223Y-190788328D02*
X162615223Y-192288328D01*
X163972365Y-192288328D02*
X163472365Y-191574042D01*
X163115222Y-192288328D02*
X163115222Y-190788328D01*
X163115222Y-190788328D02*
X163686651Y-190788328D01*
X163686651Y-190788328D02*
X163829508Y-190859757D01*
X163829508Y-190859757D02*
X163900937Y-190931185D01*
X163900937Y-190931185D02*
X163972365Y-191074042D01*
X163972365Y-191074042D02*
X163972365Y-191288328D01*
X163972365Y-191288328D02*
X163900937Y-191431185D01*
X163900937Y-191431185D02*
X163829508Y-191502614D01*
X163829508Y-191502614D02*
X163686651Y-191574042D01*
X163686651Y-191574042D02*
X163115222Y-191574042D01*
X164615222Y-192288328D02*
X164615222Y-190788328D01*
X164615222Y-190788328D02*
X164972365Y-190788328D01*
X164972365Y-190788328D02*
X165186651Y-190859757D01*
X165186651Y-190859757D02*
X165329508Y-191002614D01*
X165329508Y-191002614D02*
X165400937Y-191145471D01*
X165400937Y-191145471D02*
X165472365Y-191431185D01*
X165472365Y-191431185D02*
X165472365Y-191645471D01*
X165472365Y-191645471D02*
X165400937Y-191931185D01*
X165400937Y-191931185D02*
X165329508Y-192074042D01*
X165329508Y-192074042D02*
X165186651Y-192216900D01*
X165186651Y-192216900D02*
X164972365Y-192288328D01*
X164972365Y-192288328D02*
X164615222Y-192288328D01*
X167258079Y-191716900D02*
X168400937Y-191716900D01*
X170258079Y-192288328D02*
X170258079Y-190788328D01*
X170258079Y-190788328D02*
X170829508Y-190788328D01*
X170829508Y-190788328D02*
X170972365Y-190859757D01*
X170972365Y-190859757D02*
X171043794Y-190931185D01*
X171043794Y-190931185D02*
X171115222Y-191074042D01*
X171115222Y-191074042D02*
X171115222Y-191288328D01*
X171115222Y-191288328D02*
X171043794Y-191431185D01*
X171043794Y-191431185D02*
X170972365Y-191502614D01*
X170972365Y-191502614D02*
X170829508Y-191574042D01*
X170829508Y-191574042D02*
X170258079Y-191574042D01*
X172615222Y-192145471D02*
X172543794Y-192216900D01*
X172543794Y-192216900D02*
X172329508Y-192288328D01*
X172329508Y-192288328D02*
X172186651Y-192288328D01*
X172186651Y-192288328D02*
X171972365Y-192216900D01*
X171972365Y-192216900D02*
X171829508Y-192074042D01*
X171829508Y-192074042D02*
X171758079Y-191931185D01*
X171758079Y-191931185D02*
X171686651Y-191645471D01*
X171686651Y-191645471D02*
X171686651Y-191431185D01*
X171686651Y-191431185D02*
X171758079Y-191145471D01*
X171758079Y-191145471D02*
X171829508Y-191002614D01*
X171829508Y-191002614D02*
X171972365Y-190859757D01*
X171972365Y-190859757D02*
X172186651Y-190788328D01*
X172186651Y-190788328D02*
X172329508Y-190788328D01*
X172329508Y-190788328D02*
X172543794Y-190859757D01*
X172543794Y-190859757D02*
X172615222Y-190931185D01*
X173758079Y-191502614D02*
X173972365Y-191574042D01*
X173972365Y-191574042D02*
X174043794Y-191645471D01*
X174043794Y-191645471D02*
X174115222Y-191788328D01*
X174115222Y-191788328D02*
X174115222Y-192002614D01*
X174115222Y-192002614D02*
X174043794Y-192145471D01*
X174043794Y-192145471D02*
X173972365Y-192216900D01*
X173972365Y-192216900D02*
X173829508Y-192288328D01*
X173829508Y-192288328D02*
X173258079Y-192288328D01*
X173258079Y-192288328D02*
X173258079Y-190788328D01*
X173258079Y-190788328D02*
X173758079Y-190788328D01*
X173758079Y-190788328D02*
X173900937Y-190859757D01*
X173900937Y-190859757D02*
X173972365Y-190931185D01*
X173972365Y-190931185D02*
X174043794Y-191074042D01*
X174043794Y-191074042D02*
X174043794Y-191216900D01*
X174043794Y-191216900D02*
X173972365Y-191359757D01*
X173972365Y-191359757D02*
X173900937Y-191431185D01*
X173900937Y-191431185D02*
X173758079Y-191502614D01*
X173758079Y-191502614D02*
X173258079Y-191502614D01*
X174686651Y-191859757D02*
X175400937Y-191859757D01*
X174543794Y-192288328D02*
X175043794Y-190788328D01*
X175043794Y-190788328D02*
X175543794Y-192288328D01*
D10*
D11*
X140524160Y-174954295D02*
X140524160Y-174154295D01*
X140524160Y-174154295D02*
X140981303Y-174954295D01*
X140981303Y-174954295D02*
X140981303Y-174154295D01*
X141514636Y-174154295D02*
X141667017Y-174154295D01*
X141667017Y-174154295D02*
X141743207Y-174192390D01*
X141743207Y-174192390D02*
X141819398Y-174268580D01*
X141819398Y-174268580D02*
X141857493Y-174420961D01*
X141857493Y-174420961D02*
X141857493Y-174687628D01*
X141857493Y-174687628D02*
X141819398Y-174840009D01*
X141819398Y-174840009D02*
X141743207Y-174916200D01*
X141743207Y-174916200D02*
X141667017Y-174954295D01*
X141667017Y-174954295D02*
X141514636Y-174954295D01*
X141514636Y-174954295D02*
X141438445Y-174916200D01*
X141438445Y-174916200D02*
X141362255Y-174840009D01*
X141362255Y-174840009D02*
X141324159Y-174687628D01*
X141324159Y-174687628D02*
X141324159Y-174420961D01*
X141324159Y-174420961D02*
X141362255Y-174268580D01*
X141362255Y-174268580D02*
X141438445Y-174192390D01*
X141438445Y-174192390D02*
X141514636Y-174154295D01*
X142086064Y-174154295D02*
X142543207Y-174154295D01*
X142314635Y-174954295D02*
X142314635Y-174154295D01*
X142809874Y-174535247D02*
X143076540Y-174535247D01*
X143190826Y-174954295D02*
X142809874Y-174954295D01*
X142809874Y-174954295D02*
X142809874Y-174154295D01*
X142809874Y-174154295D02*
X143190826Y-174154295D01*
X143495588Y-174916200D02*
X143609874Y-174954295D01*
X143609874Y-174954295D02*
X143800350Y-174954295D01*
X143800350Y-174954295D02*
X143876541Y-174916200D01*
X143876541Y-174916200D02*
X143914636Y-174878104D01*
X143914636Y-174878104D02*
X143952731Y-174801914D01*
X143952731Y-174801914D02*
X143952731Y-174725723D01*
X143952731Y-174725723D02*
X143914636Y-174649533D01*
X143914636Y-174649533D02*
X143876541Y-174611438D01*
X143876541Y-174611438D02*
X143800350Y-174573342D01*
X143800350Y-174573342D02*
X143647969Y-174535247D01*
X143647969Y-174535247D02*
X143571779Y-174497152D01*
X143571779Y-174497152D02*
X143533684Y-174459057D01*
X143533684Y-174459057D02*
X143495588Y-174382866D01*
X143495588Y-174382866D02*
X143495588Y-174306676D01*
X143495588Y-174306676D02*
X143533684Y-174230485D01*
X143533684Y-174230485D02*
X143571779Y-174192390D01*
X143571779Y-174192390D02*
X143647969Y-174154295D01*
X143647969Y-174154295D02*
X143838446Y-174154295D01*
X143838446Y-174154295D02*
X143952731Y-174192390D01*
X144295589Y-174878104D02*
X144333684Y-174916200D01*
X144333684Y-174916200D02*
X144295589Y-174954295D01*
X144295589Y-174954295D02*
X144257493Y-174916200D01*
X144257493Y-174916200D02*
X144295589Y-174878104D01*
X144295589Y-174878104D02*
X144295589Y-174954295D01*
X144295589Y-174459057D02*
X144333684Y-174497152D01*
X144333684Y-174497152D02*
X144295589Y-174535247D01*
X144295589Y-174535247D02*
X144257493Y-174497152D01*
X144257493Y-174497152D02*
X144295589Y-174459057D01*
X144295589Y-174459057D02*
X144295589Y-174535247D01*
X145286065Y-174154295D02*
X145286065Y-174801914D01*
X145286065Y-174801914D02*
X145324160Y-174878104D01*
X145324160Y-174878104D02*
X145362255Y-174916200D01*
X145362255Y-174916200D02*
X145438446Y-174954295D01*
X145438446Y-174954295D02*
X145590827Y-174954295D01*
X145590827Y-174954295D02*
X145667017Y-174916200D01*
X145667017Y-174916200D02*
X145705112Y-174878104D01*
X145705112Y-174878104D02*
X145743208Y-174801914D01*
X145743208Y-174801914D02*
X145743208Y-174154295D01*
X146124160Y-174954295D02*
X146124160Y-174154295D01*
X146124160Y-174154295D02*
X146581303Y-174954295D01*
X146581303Y-174954295D02*
X146581303Y-174154295D01*
X147343207Y-174954295D02*
X146962255Y-174954295D01*
X146962255Y-174954295D02*
X146962255Y-174154295D01*
X147609874Y-174535247D02*
X147876540Y-174535247D01*
X147990826Y-174954295D02*
X147609874Y-174954295D01*
X147609874Y-174954295D02*
X147609874Y-174154295D01*
X147609874Y-174154295D02*
X147990826Y-174154295D01*
X148295588Y-174916200D02*
X148409874Y-174954295D01*
X148409874Y-174954295D02*
X148600350Y-174954295D01*
X148600350Y-174954295D02*
X148676541Y-174916200D01*
X148676541Y-174916200D02*
X148714636Y-174878104D01*
X148714636Y-174878104D02*
X148752731Y-174801914D01*
X148752731Y-174801914D02*
X148752731Y-174725723D01*
X148752731Y-174725723D02*
X148714636Y-174649533D01*
X148714636Y-174649533D02*
X148676541Y-174611438D01*
X148676541Y-174611438D02*
X148600350Y-174573342D01*
X148600350Y-174573342D02*
X148447969Y-174535247D01*
X148447969Y-174535247D02*
X148371779Y-174497152D01*
X148371779Y-174497152D02*
X148333684Y-174459057D01*
X148333684Y-174459057D02*
X148295588Y-174382866D01*
X148295588Y-174382866D02*
X148295588Y-174306676D01*
X148295588Y-174306676D02*
X148333684Y-174230485D01*
X148333684Y-174230485D02*
X148371779Y-174192390D01*
X148371779Y-174192390D02*
X148447969Y-174154295D01*
X148447969Y-174154295D02*
X148638446Y-174154295D01*
X148638446Y-174154295D02*
X148752731Y-174192390D01*
X149057493Y-174916200D02*
X149171779Y-174954295D01*
X149171779Y-174954295D02*
X149362255Y-174954295D01*
X149362255Y-174954295D02*
X149438446Y-174916200D01*
X149438446Y-174916200D02*
X149476541Y-174878104D01*
X149476541Y-174878104D02*
X149514636Y-174801914D01*
X149514636Y-174801914D02*
X149514636Y-174725723D01*
X149514636Y-174725723D02*
X149476541Y-174649533D01*
X149476541Y-174649533D02*
X149438446Y-174611438D01*
X149438446Y-174611438D02*
X149362255Y-174573342D01*
X149362255Y-174573342D02*
X149209874Y-174535247D01*
X149209874Y-174535247D02*
X149133684Y-174497152D01*
X149133684Y-174497152D02*
X149095589Y-174459057D01*
X149095589Y-174459057D02*
X149057493Y-174382866D01*
X149057493Y-174382866D02*
X149057493Y-174306676D01*
X149057493Y-174306676D02*
X149095589Y-174230485D01*
X149095589Y-174230485D02*
X149133684Y-174192390D01*
X149133684Y-174192390D02*
X149209874Y-174154295D01*
X149209874Y-174154295D02*
X149400351Y-174154295D01*
X149400351Y-174154295D02*
X149514636Y-174192390D01*
X150619399Y-174154295D02*
X150771780Y-174154295D01*
X150771780Y-174154295D02*
X150847970Y-174192390D01*
X150847970Y-174192390D02*
X150924161Y-174268580D01*
X150924161Y-174268580D02*
X150962256Y-174420961D01*
X150962256Y-174420961D02*
X150962256Y-174687628D01*
X150962256Y-174687628D02*
X150924161Y-174840009D01*
X150924161Y-174840009D02*
X150847970Y-174916200D01*
X150847970Y-174916200D02*
X150771780Y-174954295D01*
X150771780Y-174954295D02*
X150619399Y-174954295D01*
X150619399Y-174954295D02*
X150543208Y-174916200D01*
X150543208Y-174916200D02*
X150467018Y-174840009D01*
X150467018Y-174840009D02*
X150428922Y-174687628D01*
X150428922Y-174687628D02*
X150428922Y-174420961D01*
X150428922Y-174420961D02*
X150467018Y-174268580D01*
X150467018Y-174268580D02*
X150543208Y-174192390D01*
X150543208Y-174192390D02*
X150619399Y-174154295D01*
X151190827Y-174154295D02*
X151647970Y-174154295D01*
X151419398Y-174954295D02*
X151419398Y-174154295D01*
X151914637Y-174954295D02*
X151914637Y-174154295D01*
X151914637Y-174535247D02*
X152371780Y-174535247D01*
X152371780Y-174954295D02*
X152371780Y-174154295D01*
X152752732Y-174535247D02*
X153019398Y-174535247D01*
X153133684Y-174954295D02*
X152752732Y-174954295D01*
X152752732Y-174954295D02*
X152752732Y-174154295D01*
X152752732Y-174154295D02*
X153133684Y-174154295D01*
X153933685Y-174954295D02*
X153667018Y-174573342D01*
X153476542Y-174954295D02*
X153476542Y-174154295D01*
X153476542Y-174154295D02*
X153781304Y-174154295D01*
X153781304Y-174154295D02*
X153857494Y-174192390D01*
X153857494Y-174192390D02*
X153895589Y-174230485D01*
X153895589Y-174230485D02*
X153933685Y-174306676D01*
X153933685Y-174306676D02*
X153933685Y-174420961D01*
X153933685Y-174420961D02*
X153895589Y-174497152D01*
X153895589Y-174497152D02*
X153857494Y-174535247D01*
X153857494Y-174535247D02*
X153781304Y-174573342D01*
X153781304Y-174573342D02*
X153476542Y-174573342D01*
X154200351Y-174154295D02*
X154390827Y-174954295D01*
X154390827Y-174954295D02*
X154543208Y-174382866D01*
X154543208Y-174382866D02*
X154695589Y-174954295D01*
X154695589Y-174954295D02*
X154886066Y-174154295D01*
X155190828Y-174954295D02*
X155190828Y-174154295D01*
X155533684Y-174916200D02*
X155647970Y-174954295D01*
X155647970Y-174954295D02*
X155838446Y-174954295D01*
X155838446Y-174954295D02*
X155914637Y-174916200D01*
X155914637Y-174916200D02*
X155952732Y-174878104D01*
X155952732Y-174878104D02*
X155990827Y-174801914D01*
X155990827Y-174801914D02*
X155990827Y-174725723D01*
X155990827Y-174725723D02*
X155952732Y-174649533D01*
X155952732Y-174649533D02*
X155914637Y-174611438D01*
X155914637Y-174611438D02*
X155838446Y-174573342D01*
X155838446Y-174573342D02*
X155686065Y-174535247D01*
X155686065Y-174535247D02*
X155609875Y-174497152D01*
X155609875Y-174497152D02*
X155571780Y-174459057D01*
X155571780Y-174459057D02*
X155533684Y-174382866D01*
X155533684Y-174382866D02*
X155533684Y-174306676D01*
X155533684Y-174306676D02*
X155571780Y-174230485D01*
X155571780Y-174230485D02*
X155609875Y-174192390D01*
X155609875Y-174192390D02*
X155686065Y-174154295D01*
X155686065Y-174154295D02*
X155876542Y-174154295D01*
X155876542Y-174154295D02*
X155990827Y-174192390D01*
X156333685Y-174535247D02*
X156600351Y-174535247D01*
X156714637Y-174954295D02*
X156333685Y-174954295D01*
X156333685Y-174954295D02*
X156333685Y-174154295D01*
X156333685Y-174154295D02*
X156714637Y-174154295D01*
X157628923Y-174916200D02*
X157743209Y-174954295D01*
X157743209Y-174954295D02*
X157933685Y-174954295D01*
X157933685Y-174954295D02*
X158009876Y-174916200D01*
X158009876Y-174916200D02*
X158047971Y-174878104D01*
X158047971Y-174878104D02*
X158086066Y-174801914D01*
X158086066Y-174801914D02*
X158086066Y-174725723D01*
X158086066Y-174725723D02*
X158047971Y-174649533D01*
X158047971Y-174649533D02*
X158009876Y-174611438D01*
X158009876Y-174611438D02*
X157933685Y-174573342D01*
X157933685Y-174573342D02*
X157781304Y-174535247D01*
X157781304Y-174535247D02*
X157705114Y-174497152D01*
X157705114Y-174497152D02*
X157667019Y-174459057D01*
X157667019Y-174459057D02*
X157628923Y-174382866D01*
X157628923Y-174382866D02*
X157628923Y-174306676D01*
X157628923Y-174306676D02*
X157667019Y-174230485D01*
X157667019Y-174230485D02*
X157705114Y-174192390D01*
X157705114Y-174192390D02*
X157781304Y-174154295D01*
X157781304Y-174154295D02*
X157971781Y-174154295D01*
X157971781Y-174154295D02*
X158086066Y-174192390D01*
X158428924Y-174954295D02*
X158428924Y-174154295D01*
X158428924Y-174154295D02*
X158733686Y-174154295D01*
X158733686Y-174154295D02*
X158809876Y-174192390D01*
X158809876Y-174192390D02*
X158847971Y-174230485D01*
X158847971Y-174230485D02*
X158886067Y-174306676D01*
X158886067Y-174306676D02*
X158886067Y-174420961D01*
X158886067Y-174420961D02*
X158847971Y-174497152D01*
X158847971Y-174497152D02*
X158809876Y-174535247D01*
X158809876Y-174535247D02*
X158733686Y-174573342D01*
X158733686Y-174573342D02*
X158428924Y-174573342D01*
X159228924Y-174535247D02*
X159495590Y-174535247D01*
X159609876Y-174954295D02*
X159228924Y-174954295D01*
X159228924Y-174954295D02*
X159228924Y-174154295D01*
X159228924Y-174154295D02*
X159609876Y-174154295D01*
X160409877Y-174878104D02*
X160371781Y-174916200D01*
X160371781Y-174916200D02*
X160257496Y-174954295D01*
X160257496Y-174954295D02*
X160181305Y-174954295D01*
X160181305Y-174954295D02*
X160067019Y-174916200D01*
X160067019Y-174916200D02*
X159990829Y-174840009D01*
X159990829Y-174840009D02*
X159952734Y-174763819D01*
X159952734Y-174763819D02*
X159914638Y-174611438D01*
X159914638Y-174611438D02*
X159914638Y-174497152D01*
X159914638Y-174497152D02*
X159952734Y-174344771D01*
X159952734Y-174344771D02*
X159990829Y-174268580D01*
X159990829Y-174268580D02*
X160067019Y-174192390D01*
X160067019Y-174192390D02*
X160181305Y-174154295D01*
X160181305Y-174154295D02*
X160257496Y-174154295D01*
X160257496Y-174154295D02*
X160371781Y-174192390D01*
X160371781Y-174192390D02*
X160409877Y-174230485D01*
X160752734Y-174954295D02*
X160752734Y-174154295D01*
X161400352Y-174535247D02*
X161133686Y-174535247D01*
X161133686Y-174954295D02*
X161133686Y-174154295D01*
X161133686Y-174154295D02*
X161514638Y-174154295D01*
X161819400Y-174954295D02*
X161819400Y-174154295D01*
X162200352Y-174535247D02*
X162467018Y-174535247D01*
X162581304Y-174954295D02*
X162200352Y-174954295D01*
X162200352Y-174954295D02*
X162200352Y-174154295D01*
X162200352Y-174154295D02*
X162581304Y-174154295D01*
X162924162Y-174954295D02*
X162924162Y-174154295D01*
X162924162Y-174154295D02*
X163114638Y-174154295D01*
X163114638Y-174154295D02*
X163228924Y-174192390D01*
X163228924Y-174192390D02*
X163305114Y-174268580D01*
X163305114Y-174268580D02*
X163343209Y-174344771D01*
X163343209Y-174344771D02*
X163381305Y-174497152D01*
X163381305Y-174497152D02*
X163381305Y-174611438D01*
X163381305Y-174611438D02*
X163343209Y-174763819D01*
X163343209Y-174763819D02*
X163305114Y-174840009D01*
X163305114Y-174840009D02*
X163228924Y-174916200D01*
X163228924Y-174916200D02*
X163114638Y-174954295D01*
X163114638Y-174954295D02*
X162924162Y-174954295D01*
D10*
D11*
X143481541Y-187376128D02*
X142624398Y-187376128D01*
X143052969Y-187376128D02*
X143052969Y-185876128D01*
X143052969Y-185876128D02*
X142910112Y-186090414D01*
X142910112Y-186090414D02*
X142767255Y-186233271D01*
X142767255Y-186233271D02*
X142624398Y-186304700D01*
X144124397Y-187233271D02*
X144195826Y-187304700D01*
X144195826Y-187304700D02*
X144124397Y-187376128D01*
X144124397Y-187376128D02*
X144052969Y-187304700D01*
X144052969Y-187304700D02*
X144124397Y-187233271D01*
X144124397Y-187233271D02*
X144124397Y-187376128D01*
X144124397Y-186447557D02*
X144195826Y-186518985D01*
X144195826Y-186518985D02*
X144124397Y-186590414D01*
X144124397Y-186590414D02*
X144052969Y-186518985D01*
X144052969Y-186518985D02*
X144124397Y-186447557D01*
X144124397Y-186447557D02*
X144124397Y-186590414D01*
X145981540Y-187376128D02*
X145981540Y-185876128D01*
X145981540Y-185876128D02*
X146481540Y-186947557D01*
X146481540Y-186947557D02*
X146981540Y-185876128D01*
X146981540Y-185876128D02*
X146981540Y-187376128D01*
X147624398Y-186947557D02*
X148338684Y-186947557D01*
X147481541Y-187376128D02*
X147981541Y-185876128D01*
X147981541Y-185876128D02*
X148481541Y-187376128D01*
X148981540Y-187376128D02*
X148981540Y-185876128D01*
X148981540Y-185876128D02*
X149838683Y-187376128D01*
X149838683Y-187376128D02*
X149838683Y-185876128D01*
X150552969Y-185876128D02*
X150552969Y-187090414D01*
X150552969Y-187090414D02*
X150624398Y-187233271D01*
X150624398Y-187233271D02*
X150695827Y-187304700D01*
X150695827Y-187304700D02*
X150838684Y-187376128D01*
X150838684Y-187376128D02*
X151124398Y-187376128D01*
X151124398Y-187376128D02*
X151267255Y-187304700D01*
X151267255Y-187304700D02*
X151338684Y-187233271D01*
X151338684Y-187233271D02*
X151410112Y-187090414D01*
X151410112Y-187090414D02*
X151410112Y-185876128D01*
X152624398Y-186590414D02*
X152124398Y-186590414D01*
X152124398Y-187376128D02*
X152124398Y-185876128D01*
X152124398Y-185876128D02*
X152838684Y-185876128D01*
X153338684Y-186947557D02*
X154052970Y-186947557D01*
X153195827Y-187376128D02*
X153695827Y-185876128D01*
X153695827Y-185876128D02*
X154195827Y-187376128D01*
X155552969Y-187233271D02*
X155481541Y-187304700D01*
X155481541Y-187304700D02*
X155267255Y-187376128D01*
X155267255Y-187376128D02*
X155124398Y-187376128D01*
X155124398Y-187376128D02*
X154910112Y-187304700D01*
X154910112Y-187304700D02*
X154767255Y-187161842D01*
X154767255Y-187161842D02*
X154695826Y-187018985D01*
X154695826Y-187018985D02*
X154624398Y-186733271D01*
X154624398Y-186733271D02*
X154624398Y-186518985D01*
X154624398Y-186518985D02*
X154695826Y-186233271D01*
X154695826Y-186233271D02*
X154767255Y-186090414D01*
X154767255Y-186090414D02*
X154910112Y-185947557D01*
X154910112Y-185947557D02*
X155124398Y-185876128D01*
X155124398Y-185876128D02*
X155267255Y-185876128D01*
X155267255Y-185876128D02*
X155481541Y-185947557D01*
X155481541Y-185947557D02*
X155552969Y-186018985D01*
X155981541Y-185876128D02*
X156838684Y-185876128D01*
X156410112Y-187376128D02*
X156410112Y-185876128D01*
X157338683Y-185876128D02*
X157338683Y-187090414D01*
X157338683Y-187090414D02*
X157410112Y-187233271D01*
X157410112Y-187233271D02*
X157481541Y-187304700D01*
X157481541Y-187304700D02*
X157624398Y-187376128D01*
X157624398Y-187376128D02*
X157910112Y-187376128D01*
X157910112Y-187376128D02*
X158052969Y-187304700D01*
X158052969Y-187304700D02*
X158124398Y-187233271D01*
X158124398Y-187233271D02*
X158195826Y-187090414D01*
X158195826Y-187090414D02*
X158195826Y-185876128D01*
X159767255Y-187376128D02*
X159267255Y-186661842D01*
X158910112Y-187376128D02*
X158910112Y-185876128D01*
X158910112Y-185876128D02*
X159481541Y-185876128D01*
X159481541Y-185876128D02*
X159624398Y-185947557D01*
X159624398Y-185947557D02*
X159695827Y-186018985D01*
X159695827Y-186018985D02*
X159767255Y-186161842D01*
X159767255Y-186161842D02*
X159767255Y-186376128D01*
X159767255Y-186376128D02*
X159695827Y-186518985D01*
X159695827Y-186518985D02*
X159624398Y-186590414D01*
X159624398Y-186590414D02*
X159481541Y-186661842D01*
X159481541Y-186661842D02*
X158910112Y-186661842D01*
X160410112Y-186590414D02*
X160910112Y-186590414D01*
X161124398Y-187376128D02*
X160410112Y-187376128D01*
X160410112Y-187376128D02*
X160410112Y-185876128D01*
X160410112Y-185876128D02*
X161124398Y-185876128D01*
X162695827Y-185876128D02*
X163552970Y-185876128D01*
X163124398Y-187376128D02*
X163124398Y-185876128D01*
X164338684Y-185876128D02*
X164624398Y-185876128D01*
X164624398Y-185876128D02*
X164767255Y-185947557D01*
X164767255Y-185947557D02*
X164910112Y-186090414D01*
X164910112Y-186090414D02*
X164981541Y-186376128D01*
X164981541Y-186376128D02*
X164981541Y-186876128D01*
X164981541Y-186876128D02*
X164910112Y-187161842D01*
X164910112Y-187161842D02*
X164767255Y-187304700D01*
X164767255Y-187304700D02*
X164624398Y-187376128D01*
X164624398Y-187376128D02*
X164338684Y-187376128D01*
X164338684Y-187376128D02*
X164195827Y-187304700D01*
X164195827Y-187304700D02*
X164052969Y-187161842D01*
X164052969Y-187161842D02*
X163981541Y-186876128D01*
X163981541Y-186876128D02*
X163981541Y-186376128D01*
X163981541Y-186376128D02*
X164052969Y-186090414D01*
X164052969Y-186090414D02*
X164195827Y-185947557D01*
X164195827Y-185947557D02*
X164338684Y-185876128D01*
X166767255Y-187376128D02*
X166767255Y-185876128D01*
X167481541Y-187376128D02*
X167481541Y-185876128D01*
X167481541Y-185876128D02*
X168052970Y-185876128D01*
X168052970Y-185876128D02*
X168195827Y-185947557D01*
X168195827Y-185947557D02*
X168267256Y-186018985D01*
X168267256Y-186018985D02*
X168338684Y-186161842D01*
X168338684Y-186161842D02*
X168338684Y-186376128D01*
X168338684Y-186376128D02*
X168267256Y-186518985D01*
X168267256Y-186518985D02*
X168195827Y-186590414D01*
X168195827Y-186590414D02*
X168052970Y-186661842D01*
X168052970Y-186661842D02*
X167481541Y-186661842D01*
X169838684Y-187233271D02*
X169767256Y-187304700D01*
X169767256Y-187304700D02*
X169552970Y-187376128D01*
X169552970Y-187376128D02*
X169410113Y-187376128D01*
X169410113Y-187376128D02*
X169195827Y-187304700D01*
X169195827Y-187304700D02*
X169052970Y-187161842D01*
X169052970Y-187161842D02*
X168981541Y-187018985D01*
X168981541Y-187018985D02*
X168910113Y-186733271D01*
X168910113Y-186733271D02*
X168910113Y-186518985D01*
X168910113Y-186518985D02*
X168981541Y-186233271D01*
X168981541Y-186233271D02*
X169052970Y-186090414D01*
X169052970Y-186090414D02*
X169195827Y-185947557D01*
X169195827Y-185947557D02*
X169410113Y-185876128D01*
X169410113Y-185876128D02*
X169552970Y-185876128D01*
X169552970Y-185876128D02*
X169767256Y-185947557D01*
X169767256Y-185947557D02*
X169838684Y-186018985D01*
X172481541Y-187233271D02*
X172410113Y-187304700D01*
X172410113Y-187304700D02*
X172195827Y-187376128D01*
X172195827Y-187376128D02*
X172052970Y-187376128D01*
X172052970Y-187376128D02*
X171838684Y-187304700D01*
X171838684Y-187304700D02*
X171695827Y-187161842D01*
X171695827Y-187161842D02*
X171624398Y-187018985D01*
X171624398Y-187018985D02*
X171552970Y-186733271D01*
X171552970Y-186733271D02*
X171552970Y-186518985D01*
X171552970Y-186518985D02*
X171624398Y-186233271D01*
X171624398Y-186233271D02*
X171695827Y-186090414D01*
X171695827Y-186090414D02*
X171838684Y-185947557D01*
X171838684Y-185947557D02*
X172052970Y-185876128D01*
X172052970Y-185876128D02*
X172195827Y-185876128D01*
X172195827Y-185876128D02*
X172410113Y-185947557D01*
X172410113Y-185947557D02*
X172481541Y-186018985D01*
X173838684Y-187376128D02*
X173124398Y-187376128D01*
X173124398Y-187376128D02*
X173124398Y-185876128D01*
X174267256Y-186947557D02*
X174981542Y-186947557D01*
X174124399Y-187376128D02*
X174624399Y-185876128D01*
X174624399Y-185876128D02*
X175124399Y-187376128D01*
X175552970Y-187304700D02*
X175767256Y-187376128D01*
X175767256Y-187376128D02*
X176124398Y-187376128D01*
X176124398Y-187376128D02*
X176267256Y-187304700D01*
X176267256Y-187304700D02*
X176338684Y-187233271D01*
X176338684Y-187233271D02*
X176410113Y-187090414D01*
X176410113Y-187090414D02*
X176410113Y-186947557D01*
X176410113Y-186947557D02*
X176338684Y-186804700D01*
X176338684Y-186804700D02*
X176267256Y-186733271D01*
X176267256Y-186733271D02*
X176124398Y-186661842D01*
X176124398Y-186661842D02*
X175838684Y-186590414D01*
X175838684Y-186590414D02*
X175695827Y-186518985D01*
X175695827Y-186518985D02*
X175624398Y-186447557D01*
X175624398Y-186447557D02*
X175552970Y-186304700D01*
X175552970Y-186304700D02*
X175552970Y-186161842D01*
X175552970Y-186161842D02*
X175624398Y-186018985D01*
X175624398Y-186018985D02*
X175695827Y-185947557D01*
X175695827Y-185947557D02*
X175838684Y-185876128D01*
X175838684Y-185876128D02*
X176195827Y-185876128D01*
X176195827Y-185876128D02*
X176410113Y-185947557D01*
X176981541Y-187304700D02*
X177195827Y-187376128D01*
X177195827Y-187376128D02*
X177552969Y-187376128D01*
X177552969Y-187376128D02*
X177695827Y-187304700D01*
X177695827Y-187304700D02*
X177767255Y-187233271D01*
X177767255Y-187233271D02*
X177838684Y-187090414D01*
X177838684Y-187090414D02*
X177838684Y-186947557D01*
X177838684Y-186947557D02*
X177767255Y-186804700D01*
X177767255Y-186804700D02*
X177695827Y-186733271D01*
X177695827Y-186733271D02*
X177552969Y-186661842D01*
X177552969Y-186661842D02*
X177267255Y-186590414D01*
X177267255Y-186590414D02*
X177124398Y-186518985D01*
X177124398Y-186518985D02*
X177052969Y-186447557D01*
X177052969Y-186447557D02*
X176981541Y-186304700D01*
X176981541Y-186304700D02*
X176981541Y-186161842D01*
X176981541Y-186161842D02*
X177052969Y-186018985D01*
X177052969Y-186018985D02*
X177124398Y-185947557D01*
X177124398Y-185947557D02*
X177267255Y-185876128D01*
X177267255Y-185876128D02*
X177624398Y-185876128D01*
X177624398Y-185876128D02*
X177838684Y-185947557D01*
X179552969Y-186018985D02*
X179624397Y-185947557D01*
X179624397Y-185947557D02*
X179767255Y-185876128D01*
X179767255Y-185876128D02*
X180124397Y-185876128D01*
X180124397Y-185876128D02*
X180267255Y-185947557D01*
X180267255Y-185947557D02*
X180338683Y-186018985D01*
X180338683Y-186018985D02*
X180410112Y-186161842D01*
X180410112Y-186161842D02*
X180410112Y-186304700D01*
X180410112Y-186304700D02*
X180338683Y-186518985D01*
X180338683Y-186518985D02*
X179481540Y-187376128D01*
X179481540Y-187376128D02*
X180410112Y-187376128D01*
D10*
D11*
D10*
D11*
D10*
D11*
D10*
D11*
D10*
D11*
X12700000Y-12700000D02*
X266700000Y-12700000D01*
X266700000Y-203200000D01*
X12700000Y-203200000D01*
X12700000Y-12700000D01*
D10*
D11*
X15240000Y-15240000D02*
X264160000Y-15240000D01*
X264160000Y-200660000D01*
X15240000Y-200660000D01*
X15240000Y-15240000D01*
D10*
D11*
X15240000Y-200660000D02*
X12700000Y-203200000D01*
D10*
D11*
X264160000Y-200660000D02*
X266700000Y-203200000D01*
D10*
D11*
X264160000Y-15240000D02*
X266700000Y-12700000D01*
D10*
D11*
X15240000Y-15240000D02*
X12700000Y-12700000D01*
D10*
D11*
X139700000Y-15240000D02*
X139700000Y-12700000D01*
D10*
D11*
X139700000Y-203200000D02*
X139700000Y-200660000D01*
D10*
D11*
X12700000Y-107950000D02*
X15240000Y-107950000D01*
D10*
D11*
X266700000Y-107950000D02*
X264160000Y-107950000D01*
D10*
D11*
X77470000Y-12700000D02*
X77470000Y-15240000D01*
D10*
D11*
X201930000Y-12700000D02*
X201930000Y-15240000D01*
D10*
D11*
X77470000Y-200660000D02*
X77470000Y-203200000D01*
D10*
D11*
X201930000Y-200660000D02*
X201930000Y-203200000D01*
D10*
D11*
X12700000Y-61595000D02*
X15240000Y-61595000D01*
D10*
D11*
X15240000Y-154305000D02*
X12700000Y-154305000D01*
D10*
D11*
X264160000Y-154305000D02*
X266700000Y-154305000D01*
D10*
D11*
X264160000Y-61595000D02*
X266700000Y-61595000D01*
D10*
D11*
X139700000Y-187960000D02*
X139700000Y-173355000D01*
D10*
D11*
X264160000Y-173355000D02*
X139700000Y-173355000D01*
D10*
D11*
X139700000Y-194310000D02*
X264160000Y-194310000D01*
D10*
D11*
X139700000Y-187960000D02*
X264160000Y-187960000D01*
D10*
D11*
X257810000Y-194310000D02*
X257810000Y-200660000D01*
D10*
D11*
X240665000Y-194310000D02*
X240665000Y-200660000D01*
D10*
D11*
X234315000Y-194310000D02*
X234315000Y-200660000D01*
D10*
D11*
X249555000Y-187960000D02*
X249555000Y-194310000D01*
D10*
D11*
X234315000Y-187960000D02*
X234315000Y-194310000D01*
D10*
D11*
X224155000Y-187960000D02*
X224155000Y-194310000D01*
D10*
D11*
X224155000Y-194310000D02*
X224155000Y-200660000D01*
D10*
D11*
D10*
D11*
X232687857Y-14354557D02*
X233402143Y-14354557D01*
X232545000Y-14783128D02*
X233045000Y-13283128D01*
X233045000Y-13283128D02*
X233545000Y-14783128D01*
D10*
D11*
X170795142Y-13997414D02*
X171009428Y-14068842D01*
X171009428Y-14068842D02*
X171080857Y-14140271D01*
X171080857Y-14140271D02*
X171152285Y-14283128D01*
X171152285Y-14283128D02*
X171152285Y-14497414D01*
X171152285Y-14497414D02*
X171080857Y-14640271D01*
X171080857Y-14640271D02*
X171009428Y-14711700D01*
X171009428Y-14711700D02*
X170866571Y-14783128D01*
X170866571Y-14783128D02*
X170295142Y-14783128D01*
X170295142Y-14783128D02*
X170295142Y-13283128D01*
X170295142Y-13283128D02*
X170795142Y-13283128D01*
X170795142Y-13283128D02*
X170938000Y-13354557D01*
X170938000Y-13354557D02*
X171009428Y-13425985D01*
X171009428Y-13425985D02*
X171080857Y-13568842D01*
X171080857Y-13568842D02*
X171080857Y-13711700D01*
X171080857Y-13711700D02*
X171009428Y-13854557D01*
X171009428Y-13854557D02*
X170938000Y-13925985D01*
X170938000Y-13925985D02*
X170795142Y-13997414D01*
X170795142Y-13997414D02*
X170295142Y-13997414D01*
D10*
D11*
X108922285Y-14640271D02*
X108850857Y-14711700D01*
X108850857Y-14711700D02*
X108636571Y-14783128D01*
X108636571Y-14783128D02*
X108493714Y-14783128D01*
X108493714Y-14783128D02*
X108279428Y-14711700D01*
X108279428Y-14711700D02*
X108136571Y-14568842D01*
X108136571Y-14568842D02*
X108065142Y-14425985D01*
X108065142Y-14425985D02*
X107993714Y-14140271D01*
X107993714Y-14140271D02*
X107993714Y-13925985D01*
X107993714Y-13925985D02*
X108065142Y-13640271D01*
X108065142Y-13640271D02*
X108136571Y-13497414D01*
X108136571Y-13497414D02*
X108279428Y-13354557D01*
X108279428Y-13354557D02*
X108493714Y-13283128D01*
X108493714Y-13283128D02*
X108636571Y-13283128D01*
X108636571Y-13283128D02*
X108850857Y-13354557D01*
X108850857Y-13354557D02*
X108922285Y-13425985D01*
D10*
D11*
X45708142Y-14783128D02*
X45708142Y-13283128D01*
X45708142Y-13283128D02*
X46065285Y-13283128D01*
X46065285Y-13283128D02*
X46279571Y-13354557D01*
X46279571Y-13354557D02*
X46422428Y-13497414D01*
X46422428Y-13497414D02*
X46493857Y-13640271D01*
X46493857Y-13640271D02*
X46565285Y-13925985D01*
X46565285Y-13925985D02*
X46565285Y-14140271D01*
X46565285Y-14140271D02*
X46493857Y-14425985D01*
X46493857Y-14425985D02*
X46422428Y-14568842D01*
X46422428Y-14568842D02*
X46279571Y-14711700D01*
X46279571Y-14711700D02*
X46065285Y-14783128D01*
X46065285Y-14783128D02*
X45708142Y-14783128D01*
D10*
D11*
X13389429Y-130238985D02*
X13460857Y-130167557D01*
X13460857Y-130167557D02*
X13603715Y-130096128D01*
X13603715Y-130096128D02*
X13960857Y-130096128D01*
X13960857Y-130096128D02*
X14103715Y-130167557D01*
X14103715Y-130167557D02*
X14175143Y-130238985D01*
X14175143Y-130238985D02*
X14246572Y-130381842D01*
X14246572Y-130381842D02*
X14246572Y-130524700D01*
X14246572Y-130524700D02*
X14175143Y-130738985D01*
X14175143Y-130738985D02*
X13318000Y-131596128D01*
X13318000Y-131596128D02*
X14246572Y-131596128D01*
D10*
D11*
X13316000Y-84172128D02*
X14244572Y-84172128D01*
X14244572Y-84172128D02*
X13744572Y-84743557D01*
X13744572Y-84743557D02*
X13958857Y-84743557D01*
X13958857Y-84743557D02*
X14101715Y-84814985D01*
X14101715Y-84814985D02*
X14173143Y-84886414D01*
X14173143Y-84886414D02*
X14244572Y-85029271D01*
X14244572Y-85029271D02*
X14244572Y-85386414D01*
X14244572Y-85386414D02*
X14173143Y-85529271D01*
X14173143Y-85529271D02*
X14101715Y-85600700D01*
X14101715Y-85600700D02*
X13958857Y-85672128D01*
X13958857Y-85672128D02*
X13530286Y-85672128D01*
X13530286Y-85672128D02*
X13387429Y-85600700D01*
X13387429Y-85600700D02*
X13316000Y-85529271D01*
D10*
D11*
X45708142Y-202743128D02*
X45708142Y-201243128D01*
X45708142Y-201243128D02*
X46065285Y-201243128D01*
X46065285Y-201243128D02*
X46279571Y-201314557D01*
X46279571Y-201314557D02*
X46422428Y-201457414D01*
X46422428Y-201457414D02*
X46493857Y-201600271D01*
X46493857Y-201600271D02*
X46565285Y-201885985D01*
X46565285Y-201885985D02*
X46565285Y-202100271D01*
X46565285Y-202100271D02*
X46493857Y-202385985D01*
X46493857Y-202385985D02*
X46422428Y-202528842D01*
X46422428Y-202528842D02*
X46279571Y-202671700D01*
X46279571Y-202671700D02*
X46065285Y-202743128D01*
X46065285Y-202743128D02*
X45708142Y-202743128D01*
D10*
D11*
X232687857Y-202314557D02*
X233402143Y-202314557D01*
X232545000Y-202743128D02*
X233045000Y-201243128D01*
X233045000Y-201243128D02*
X233545000Y-202743128D01*
D10*
D11*
X170795142Y-201932414D02*
X171009428Y-202003842D01*
X171009428Y-202003842D02*
X171080857Y-202075271D01*
X171080857Y-202075271D02*
X171152285Y-202218128D01*
X171152285Y-202218128D02*
X171152285Y-202432414D01*
X171152285Y-202432414D02*
X171080857Y-202575271D01*
X171080857Y-202575271D02*
X171009428Y-202646700D01*
X171009428Y-202646700D02*
X170866571Y-202718128D01*
X170866571Y-202718128D02*
X170295142Y-202718128D01*
X170295142Y-202718128D02*
X170295142Y-201218128D01*
X170295142Y-201218128D02*
X170795142Y-201218128D01*
X170795142Y-201218128D02*
X170938000Y-201289557D01*
X170938000Y-201289557D02*
X171009428Y-201360985D01*
X171009428Y-201360985D02*
X171080857Y-201503842D01*
X171080857Y-201503842D02*
X171080857Y-201646700D01*
X171080857Y-201646700D02*
X171009428Y-201789557D01*
X171009428Y-201789557D02*
X170938000Y-201860985D01*
X170938000Y-201860985D02*
X170795142Y-201932414D01*
X170795142Y-201932414D02*
X170295142Y-201932414D01*
D10*
D11*
X108922285Y-202600271D02*
X108850857Y-202671700D01*
X108850857Y-202671700D02*
X108636571Y-202743128D01*
X108636571Y-202743128D02*
X108493714Y-202743128D01*
X108493714Y-202743128D02*
X108279428Y-202671700D01*
X108279428Y-202671700D02*
X108136571Y-202528842D01*
X108136571Y-202528842D02*
X108065142Y-202385985D01*
X108065142Y-202385985D02*
X107993714Y-202100271D01*
X107993714Y-202100271D02*
X107993714Y-201885985D01*
X107993714Y-201885985D02*
X108065142Y-201600271D01*
X108065142Y-201600271D02*
X108136571Y-201457414D01*
X108136571Y-201457414D02*
X108279428Y-201314557D01*
X108279428Y-201314557D02*
X108493714Y-201243128D01*
X108493714Y-201243128D02*
X108636571Y-201243128D01*
X108636571Y-201243128D02*
X108850857Y-201314557D01*
X108850857Y-201314557D02*
X108922285Y-201385985D01*
D10*
D11*
X14026715Y-38138128D02*
X14026715Y-39138128D01*
X13669572Y-37566700D02*
X13312429Y-38638128D01*
X13312429Y-38638128D02*
X14241000Y-38638128D01*
D10*
D11*
X14271572Y-177953128D02*
X13414429Y-177953128D01*
X13843000Y-177953128D02*
X13843000Y-176453128D01*
X13843000Y-176453128D02*
X13700143Y-176667414D01*
X13700143Y-176667414D02*
X13557286Y-176810271D01*
X13557286Y-176810271D02*
X13414429Y-176881700D01*
D10*
D11*
X15240000Y-154305000D02*
X12700000Y-154305000D01*
D10*
D11*
X12700000Y-107950000D02*
X15240000Y-107950000D01*
D10*
D11*
X12700000Y-61595000D02*
X15240000Y-61595000D01*
D10*
D11*
X264878000Y-83820128D02*
X265806572Y-83820128D01*
X265806572Y-83820128D02*
X265306572Y-84391557D01*
X265306572Y-84391557D02*
X265520857Y-84391557D01*
X265520857Y-84391557D02*
X265663715Y-84462985D01*
X265663715Y-84462985D02*
X265735143Y-84534414D01*
X265735143Y-84534414D02*
X265806572Y-84677271D01*
X265806572Y-84677271D02*
X265806572Y-85034414D01*
X265806572Y-85034414D02*
X265735143Y-85177271D01*
X265735143Y-85177271D02*
X265663715Y-85248700D01*
X265663715Y-85248700D02*
X265520857Y-85320128D01*
X265520857Y-85320128D02*
X265092286Y-85320128D01*
X265092286Y-85320128D02*
X264949429Y-85248700D01*
X264949429Y-85248700D02*
X264878000Y-85177271D01*
D10*
D11*
X265833572Y-177601128D02*
X264976429Y-177601128D01*
X265405000Y-177601128D02*
X265405000Y-176101128D01*
X265405000Y-176101128D02*
X265262143Y-176315414D01*
X265262143Y-176315414D02*
X265119286Y-176458271D01*
X265119286Y-176458271D02*
X264976429Y-176529700D01*
D10*
D11*
X265588715Y-37786128D02*
X265588715Y-38786128D01*
X265231572Y-37214700D02*
X264874429Y-38286128D01*
X264874429Y-38286128D02*
X265803000Y-38286128D01*
D10*
D11*
X264951429Y-129886985D02*
X265022857Y-129815557D01*
X265022857Y-129815557D02*
X265165715Y-129744128D01*
X265165715Y-129744128D02*
X265522857Y-129744128D01*
X265522857Y-129744128D02*
X265665715Y-129815557D01*
X265665715Y-129815557D02*
X265737143Y-129886985D01*
X265737143Y-129886985D02*
X265808572Y-130029842D01*
X265808572Y-130029842D02*
X265808572Y-130172700D01*
X265808572Y-130172700D02*
X265737143Y-130386985D01*
X265737143Y-130386985D02*
X264880000Y-131244128D01*
X264880000Y-131244128D02*
X265808572Y-131244128D01*
D10*
D11*
X139700000Y-27940000D02*
X139700000Y-14986000D01*
D10*
D11*
X264160000Y-21590000D02*
X139700000Y-21590000D01*
D10*
D11*
X192894285Y-19101128D02*
X192394285Y-18386842D01*
X192037142Y-19101128D02*
X192037142Y-17601128D01*
X192037142Y-17601128D02*
X192608571Y-17601128D01*
X192608571Y-17601128D02*
X192751428Y-17672557D01*
X192751428Y-17672557D02*
X192822857Y-17743985D01*
X192822857Y-17743985D02*
X192894285Y-17886842D01*
X192894285Y-17886842D02*
X192894285Y-18101128D01*
X192894285Y-18101128D02*
X192822857Y-18243985D01*
X192822857Y-18243985D02*
X192751428Y-18315414D01*
X192751428Y-18315414D02*
X192608571Y-18386842D01*
X192608571Y-18386842D02*
X192037142Y-18386842D01*
X193537142Y-18315414D02*
X194037142Y-18315414D01*
X194251428Y-19101128D02*
X193537142Y-19101128D01*
X193537142Y-19101128D02*
X193537142Y-17601128D01*
X193537142Y-17601128D02*
X194251428Y-17601128D01*
X194680000Y-17601128D02*
X195180000Y-19101128D01*
X195180000Y-19101128D02*
X195680000Y-17601128D01*
X196179999Y-19101128D02*
X196179999Y-17601128D01*
X196822857Y-19029700D02*
X197037143Y-19101128D01*
X197037143Y-19101128D02*
X197394285Y-19101128D01*
X197394285Y-19101128D02*
X197537143Y-19029700D01*
X197537143Y-19029700D02*
X197608571Y-18958271D01*
X197608571Y-18958271D02*
X197680000Y-18815414D01*
X197680000Y-18815414D02*
X197680000Y-18672557D01*
X197680000Y-18672557D02*
X197608571Y-18529700D01*
X197608571Y-18529700D02*
X197537143Y-18458271D01*
X197537143Y-18458271D02*
X197394285Y-18386842D01*
X197394285Y-18386842D02*
X197108571Y-18315414D01*
X197108571Y-18315414D02*
X196965714Y-18243985D01*
X196965714Y-18243985D02*
X196894285Y-18172557D01*
X196894285Y-18172557D02*
X196822857Y-18029700D01*
X196822857Y-18029700D02*
X196822857Y-17886842D01*
X196822857Y-17886842D02*
X196894285Y-17743985D01*
X196894285Y-17743985D02*
X196965714Y-17672557D01*
X196965714Y-17672557D02*
X197108571Y-17601128D01*
X197108571Y-17601128D02*
X197465714Y-17601128D01*
X197465714Y-17601128D02*
X197680000Y-17672557D01*
X198322856Y-19101128D02*
X198322856Y-17601128D01*
X199322857Y-17601128D02*
X199608571Y-17601128D01*
X199608571Y-17601128D02*
X199751428Y-17672557D01*
X199751428Y-17672557D02*
X199894285Y-17815414D01*
X199894285Y-17815414D02*
X199965714Y-18101128D01*
X199965714Y-18101128D02*
X199965714Y-18601128D01*
X199965714Y-18601128D02*
X199894285Y-18886842D01*
X199894285Y-18886842D02*
X199751428Y-19029700D01*
X199751428Y-19029700D02*
X199608571Y-19101128D01*
X199608571Y-19101128D02*
X199322857Y-19101128D01*
X199322857Y-19101128D02*
X199180000Y-19029700D01*
X199180000Y-19029700D02*
X199037142Y-18886842D01*
X199037142Y-18886842D02*
X198965714Y-18601128D01*
X198965714Y-18601128D02*
X198965714Y-18101128D01*
X198965714Y-18101128D02*
X199037142Y-17815414D01*
X199037142Y-17815414D02*
X199180000Y-17672557D01*
X199180000Y-17672557D02*
X199322857Y-17601128D01*
X200608571Y-19101128D02*
X200608571Y-17601128D01*
X200608571Y-17601128D02*
X201465714Y-19101128D01*
X201465714Y-19101128D02*
X201465714Y-17601128D01*
X203322857Y-19101128D02*
X203322857Y-17601128D01*
X203322857Y-18315414D02*
X204180000Y-18315414D01*
X204180000Y-19101128D02*
X204180000Y-17601128D01*
X204894286Y-19101128D02*
X204894286Y-17601128D01*
X205537144Y-19029700D02*
X205751430Y-19101128D01*
X205751430Y-19101128D02*
X206108572Y-19101128D01*
X206108572Y-19101128D02*
X206251430Y-19029700D01*
X206251430Y-19029700D02*
X206322858Y-18958271D01*
X206322858Y-18958271D02*
X206394287Y-18815414D01*
X206394287Y-18815414D02*
X206394287Y-18672557D01*
X206394287Y-18672557D02*
X206322858Y-18529700D01*
X206322858Y-18529700D02*
X206251430Y-18458271D01*
X206251430Y-18458271D02*
X206108572Y-18386842D01*
X206108572Y-18386842D02*
X205822858Y-18315414D01*
X205822858Y-18315414D02*
X205680001Y-18243985D01*
X205680001Y-18243985D02*
X205608572Y-18172557D01*
X205608572Y-18172557D02*
X205537144Y-18029700D01*
X205537144Y-18029700D02*
X205537144Y-17886842D01*
X205537144Y-17886842D02*
X205608572Y-17743985D01*
X205608572Y-17743985D02*
X205680001Y-17672557D01*
X205680001Y-17672557D02*
X205822858Y-17601128D01*
X205822858Y-17601128D02*
X206180001Y-17601128D01*
X206180001Y-17601128D02*
X206394287Y-17672557D01*
X206822858Y-17601128D02*
X207680001Y-17601128D01*
X207251429Y-19101128D02*
X207251429Y-17601128D01*
X208465715Y-17601128D02*
X208751429Y-17601128D01*
X208751429Y-17601128D02*
X208894286Y-17672557D01*
X208894286Y-17672557D02*
X209037143Y-17815414D01*
X209037143Y-17815414D02*
X209108572Y-18101128D01*
X209108572Y-18101128D02*
X209108572Y-18601128D01*
X209108572Y-18601128D02*
X209037143Y-18886842D01*
X209037143Y-18886842D02*
X208894286Y-19029700D01*
X208894286Y-19029700D02*
X208751429Y-19101128D01*
X208751429Y-19101128D02*
X208465715Y-19101128D01*
X208465715Y-19101128D02*
X208322858Y-19029700D01*
X208322858Y-19029700D02*
X208180000Y-18886842D01*
X208180000Y-18886842D02*
X208108572Y-18601128D01*
X208108572Y-18601128D02*
X208108572Y-18101128D01*
X208108572Y-18101128D02*
X208180000Y-17815414D01*
X208180000Y-17815414D02*
X208322858Y-17672557D01*
X208322858Y-17672557D02*
X208465715Y-17601128D01*
X210608572Y-19101128D02*
X210108572Y-18386842D01*
X209751429Y-19101128D02*
X209751429Y-17601128D01*
X209751429Y-17601128D02*
X210322858Y-17601128D01*
X210322858Y-17601128D02*
X210465715Y-17672557D01*
X210465715Y-17672557D02*
X210537144Y-17743985D01*
X210537144Y-17743985D02*
X210608572Y-17886842D01*
X210608572Y-17886842D02*
X210608572Y-18101128D01*
X210608572Y-18101128D02*
X210537144Y-18243985D01*
X210537144Y-18243985D02*
X210465715Y-18315414D01*
X210465715Y-18315414D02*
X210322858Y-18386842D01*
X210322858Y-18386842D02*
X209751429Y-18386842D01*
X211537144Y-18386842D02*
X211537144Y-19101128D01*
X211037144Y-17601128D02*
X211537144Y-18386842D01*
X211537144Y-18386842D02*
X212037144Y-17601128D01*
D10*
D11*
X264160000Y-27940000D02*
X139700000Y-27940000D01*
D10*
D11*
X152400000Y-21590000D02*
X152400000Y-27940000D01*
D10*
D11*
X139700000Y-200660000D02*
X139700000Y-187960000D01*
D10*
D11*
X143728571Y-25451128D02*
X143228571Y-24736842D01*
X142871428Y-25451128D02*
X142871428Y-23951128D01*
X142871428Y-23951128D02*
X143442857Y-23951128D01*
X143442857Y-23951128D02*
X143585714Y-24022557D01*
X143585714Y-24022557D02*
X143657143Y-24093985D01*
X143657143Y-24093985D02*
X143728571Y-24236842D01*
X143728571Y-24236842D02*
X143728571Y-24451128D01*
X143728571Y-24451128D02*
X143657143Y-24593985D01*
X143657143Y-24593985D02*
X143585714Y-24665414D01*
X143585714Y-24665414D02*
X143442857Y-24736842D01*
X143442857Y-24736842D02*
X142871428Y-24736842D01*
X144942857Y-25379700D02*
X144800000Y-25451128D01*
X144800000Y-25451128D02*
X144514286Y-25451128D01*
X144514286Y-25451128D02*
X144371428Y-25379700D01*
X144371428Y-25379700D02*
X144300000Y-25236842D01*
X144300000Y-25236842D02*
X144300000Y-24665414D01*
X144300000Y-24665414D02*
X144371428Y-24522557D01*
X144371428Y-24522557D02*
X144514286Y-24451128D01*
X144514286Y-24451128D02*
X144800000Y-24451128D01*
X144800000Y-24451128D02*
X144942857Y-24522557D01*
X144942857Y-24522557D02*
X145014286Y-24665414D01*
X145014286Y-24665414D02*
X145014286Y-24808271D01*
X145014286Y-24808271D02*
X144300000Y-24951128D01*
X145514285Y-24451128D02*
X145871428Y-25451128D01*
X145871428Y-25451128D02*
X146228571Y-24451128D01*
X146799999Y-25308271D02*
X146871428Y-25379700D01*
X146871428Y-25379700D02*
X146799999Y-25451128D01*
X146799999Y-25451128D02*
X146728571Y-25379700D01*
X146728571Y-25379700D02*
X146799999Y-25308271D01*
X146799999Y-25308271D02*
X146799999Y-25451128D01*
X148585714Y-25022557D02*
X149300000Y-25022557D01*
X148442857Y-25451128D02*
X148942857Y-23951128D01*
X148942857Y-23951128D02*
X149442857Y-25451128D01*
D10*
D11*
X261125125Y-204353390D02*
X261029887Y-204305771D01*
X261029887Y-204305771D02*
X260982268Y-204258152D01*
X260982268Y-204258152D02*
X260934649Y-204162914D01*
X260934649Y-204162914D02*
X260934649Y-204115295D01*
X260934649Y-204115295D02*
X260982268Y-204020057D01*
X260982268Y-204020057D02*
X261029887Y-203972438D01*
X261029887Y-203972438D02*
X261125125Y-203924819D01*
X261125125Y-203924819D02*
X261315601Y-203924819D01*
X261315601Y-203924819D02*
X261410839Y-203972438D01*
X261410839Y-203972438D02*
X261458458Y-204020057D01*
X261458458Y-204020057D02*
X261506077Y-204115295D01*
X261506077Y-204115295D02*
X261506077Y-204162914D01*
X261506077Y-204162914D02*
X261458458Y-204258152D01*
X261458458Y-204258152D02*
X261410839Y-204305771D01*
X261410839Y-204305771D02*
X261315601Y-204353390D01*
X261315601Y-204353390D02*
X261125125Y-204353390D01*
X261125125Y-204353390D02*
X261029887Y-204401009D01*
X261029887Y-204401009D02*
X260982268Y-204448628D01*
X260982268Y-204448628D02*
X260934649Y-204543866D01*
X260934649Y-204543866D02*
X260934649Y-204734342D01*
X260934649Y-204734342D02*
X260982268Y-204829580D01*
X260982268Y-204829580D02*
X261029887Y-204877200D01*
X261029887Y-204877200D02*
X261125125Y-204924819D01*
X261125125Y-204924819D02*
X261315601Y-204924819D01*
X261315601Y-204924819D02*
X261410839Y-204877200D01*
X261410839Y-204877200D02*
X261458458Y-204829580D01*
X261458458Y-204829580D02*
X261506077Y-204734342D01*
X261506077Y-204734342D02*
X261506077Y-204543866D01*
X261506077Y-204543866D02*
X261458458Y-204448628D01*
X261458458Y-204448628D02*
X261410839Y-204401009D01*
X261410839Y-204401009D02*
X261315601Y-204353390D01*
X261934649Y-204829580D02*
X261982268Y-204877200D01*
X261982268Y-204877200D02*
X261934649Y-204924819D01*
X261934649Y-204924819D02*
X261887030Y-204877200D01*
X261887030Y-204877200D02*
X261934649Y-204829580D01*
X261934649Y-204829580D02*
X261934649Y-204924819D01*
X262887029Y-203924819D02*
X262410839Y-203924819D01*
X262410839Y-203924819D02*
X262363220Y-204401009D01*
X262363220Y-204401009D02*
X262410839Y-204353390D01*
X262410839Y-204353390D02*
X262506077Y-204305771D01*
X262506077Y-204305771D02*
X262744172Y-204305771D01*
X262744172Y-204305771D02*
X262839410Y-204353390D01*
X262839410Y-204353390D02*
X262887029Y-204401009D01*
X262887029Y-204401009D02*
X262934648Y-204496247D01*
X262934648Y-204496247D02*
X262934648Y-204734342D01*
X262934648Y-204734342D02*
X262887029Y-204829580D01*
X262887029Y-204829580D02*
X262839410Y-204877200D01*
X262839410Y-204877200D02*
X262744172Y-204924819D01*
X262744172Y-204924819D02*
X262506077Y-204924819D01*
X262506077Y-204924819D02*
X262410839Y-204877200D01*
X262410839Y-204877200D02*
X262363220Y-204829580D01*
X263267982Y-204924819D02*
X263791791Y-204258152D01*
X263267982Y-204258152D02*
X263791791Y-204924819D01*
X264696553Y-204924819D02*
X264125125Y-204924819D01*
X264410839Y-204924819D02*
X264410839Y-203924819D01*
X264410839Y-203924819D02*
X264315601Y-204067676D01*
X264315601Y-204067676D02*
X264220363Y-204162914D01*
X264220363Y-204162914D02*
X264125125Y-204210533D01*
X265648934Y-204924819D02*
X265077506Y-204924819D01*
X265363220Y-204924819D02*
X265363220Y-203924819D01*
X265363220Y-203924819D02*
X265267982Y-204067676D01*
X265267982Y-204067676D02*
X265172744Y-204162914D01*
X265172744Y-204162914D02*
X265077506Y-204210533D01*
X266029887Y-203924819D02*
X266029887Y-204115295D01*
X266410839Y-203924819D02*
X266410839Y-204115295D01*
D13*
X92400000Y-60300000D02*
X119600000Y-60300000D01*
X120377817Y-59977817D02*
X121722183Y-58622183D01*
X119600000Y-60299999D02*
G75*
G03*
X120377817Y-59977817I0J1099999D01*
G01*
X91622183Y-59977817D02*
X90277817Y-58622183D01*
X137800000Y-118300000D02*
G75*
G03*
X142800000Y-113300000I0J5000000D01*
G01*
X45500000Y-58300000D02*
G75*
G03*
X40500000Y-63300000I0J-5000000D01*
G01*
X40500000Y-113300000D02*
G75*
G03*
X45500000Y-118300000I5000000J0D01*
G01*
X90277817Y-58622183D02*
G75*
G03*
X89500000Y-58300000I-777817J-777817D01*
G01*
X40500000Y-63300000D02*
X40500000Y-113300000D01*
X45500000Y-118300000D02*
X137800000Y-118300000D01*
X91622183Y-59977817D02*
G75*
G03*
X92400000Y-60300000I777817J777817D01*
G01*
X89500000Y-58300000D02*
X45500000Y-58300000D01*
X122500000Y-58300000D02*
X137800000Y-58300000D01*
X122500000Y-58300001D02*
G75*
G03*
X121722183Y-58622183I0J-1099999D01*
G01*
X142800000Y-63300000D02*
G75*
G03*
X137800000Y-58300000I-5000000J0D01*
G01*
X142800000Y-113300000D02*
X142800000Y-63300000D01*
M02*
