999
dxfrw 0.6.3
  0
SECTION
  2
HEADER
  9
$ACADVER
  1
AC1015
  9
$DWGCODEPAGE
  3
ANSI_1252
  9
$INSBASE
 10
0
 20
0
 30
0
  9
$EXTMIN
 10
53.6866
 20
-67.4312
 30
0
  9
$EXTMAX
 10
125.415
 20
-58.94
 30
0
  9
$LIMMIN
 10
0
 20
0
  9
$LIMMAX
 10
420
 20
297
  9
$ORTHOMODE
 70
    0
  9
$REGENMODE
 70
    1
  9
$FILLMODE
 70
    1
  9
$QTEXTMODE
 70
    0
  9
$MIRRTEXT
 70
    0
  9
$LTSCALE
 40
1
  9
$ATTMODE
 70
    0
  9
$TEXTSIZE
 40
2.5
  9
$TRACEWID
 40
15.68
  9
$TEXTSTYLE
  7
STANDARD
  9
$CLAYER
  8
0
  9
$CELTYPE
  6
BYLAYER
  9
$CECOLOR
 62
  256
  9
$CELTSCALE
 40
1
  9
$DISPSILH
 70
    0
  9
$DIMSCALE
 40
2.5
  9
$DIMASZ
 40
2.5
  9
$DIMEXO
 40
0.625
  9
$DIMDLI
 40
3.75
  9
$DIMRND
 40
0
  9
$DIMDLE
 40
0
  9
$DIMEXE
 40
1.25
  9
$DIMTP
 40
0
  9
$DIMTM
 40
0
  9
$DIMTXT
 40
2.5
  9
$DIMCEN
 40
2.5
  9
$DIMTSZ
 40
0
  9
$DIMTOL
 70
    0
  9
$DIMLIM
 70
    0
  9
$DIMTIH
 70
    0
  9
$DIMTOH
 70
    0
  9
$DIMSE1
 70
    0
  9
$DIMSE2
 70
    0
  9
$DIMTAD
 70
    1
  9
$DIMZIN
 70
    8
  9
$DIMBLK
  1

  9
$DIMASO
 70
    1
  9
$DIMSHO
 70
    1
  9
$DIMPOST
  1

  9
$DIMAPOST
  1

  9
$DIMALT
 70
    0
  9
$DIMALTD
 70
    3
  9
$DIMALTF
 40
0.03937
  9
$DIMLFAC
 40
1
  9
$DIMTOFL
 70
    1
  9
$DIMTVP
 40
0
  9
$DIMTIX
 70
    0
  9
$DIMSOXD
 70
    0
  9
$DIMSAH
 70
    0
  9
$DIMBLK1
  1

  9
$DIMBLK2
  1

  9
$DIMSTYLE
  2
Standard
  9
$DIMCLRD
 70
    0
  9
$DIMCLRE
 70
    0
  9
$DIMCLRT
 70
    0
  9
$DIMTFAC
 40
1
  9
$DIMGAP
 40
0.625
  9
$DIMJUST
 70
    0
  9
$DIMSD1
 70
    0
  9
$DIMSD2
 70
    0
  9
$DIMTOLJ
 70
    0
  9
$DIMTZIN
 70
    8
  9
$DIMALTZ
 70
    0
  9
$DIMALTTZ
 70
    0
  9
$DIMUPT
 70
    0
  9
$DIMDEC
 70
    2
  9
$DIMTDEC
 70
    2
  9
$DIMALTU
 70
    2
  9
$DIMALTTD
 70
    3
  9
$DIMTXSTY
  7
STANDARD
  9
$DIMAUNIT
 70
    0
  9
$DIMADEC
 70
    0
  9
$DIMALTRND
 40
0
  9
$DIMAZIN
 70
    0
  9
$DIMDSEP
 70
   44
  9
$DIMATFIT
 70
    3
  9
$DIMFRAC
 70
    0
  9
$DIMLDRBLK
  1
STANDARD
  9
$DIMLUNIT
 70
    2
  9
$DIMLWD
 70
   -2
  9
$DIMLWE
 70
   -2
  9
$DIMTMOVE
 70
    0
  9
$LUNITS
 70
    2
  9
$LUPREC
 70
    4
  9
$SKETCHINC
 40
1
  9
$FILLETRAD
 40
0
  9
$AUNITS
 70
    0
  9
$AUPREC
 70
    2
  9
$MENU
  1
.
  9
$ELEVATION
 40
0
  9
$PELEVATION
 40
0
  9
$THICKNESS
 40
0
  9
$LIMCHECK
 70
    0
  9
$CHAMFERA
 40
0
  9
$CHAMFERB
 40
0
  9
$CHAMFERC
 40
0
  9
$CHAMFERD
 40
0
  9
$SKPOLY
 70
    0
  9
$USRTIMER
 70
    1
  9
$ANGBASE
 50
0
  9
$ANGDIR
 70
    1
  9
$PDMODE
 70
   34
  9
$PDSIZE
 40
0
  9
$PLINEWID
 40
0
  9
$SPLFRAME
 70
    0
  9
$SPLINETYPE
 70
    2
  9
$SPLINESEGS
 70
    8
  9
$HANDSEED
  5
20000
  9
$SURFTAB1
 70
    6
  9
$SURFTAB2
 70
    6
  9
$SURFTYPE
 70
    6
  9
$SURFU
 70
    6
  9
$SURFV
 70
    6
  9
$UCSBASE
  2

  9
$UCSNAME
  2

  9
$UCSORG
 10
0
 20
0
 30
0
  9
$UCSXDIR
 10
1
 20
0
 30
0
  9
$UCSYDIR
 10
0
 20
1
 30
0
  9
$UCSORTHOREF
  2

  9
$UCSORTHOVIEW
 70
    0
  9
$UCSORGTOP
 10
0
 20
0
 30
0
  9
$UCSORGBOTTOM
 10
0
 20
0
 30
0
  9
$UCSORGLEFT
 10
0
 20
0
 30
0
  9
$UCSORGRIGHT
 10
0
 20
0
 30
0
  9
$UCSORGFRONT
 10
0
 20
0
 30
0
  9
$UCSORGBACK
 10
0
 20
0
 30
0
  9
$PUCSBASE
  2

  9
$PUCSNAME
  2

  9
$PUCSORG
 10
0
 20
0
 30
0
  9
$PUCSXDIR
 10
1
 20
0
 30
0
  9
$PUCSYDIR
 10
0
 20
1
 30
0
  9
$PUCSORTHOREF
  2

  9
$PUCSORTHOVIEW
 70
    0
  9
$PUCSORGTOP
 10
0
 20
0
 30
0
  9
$PUCSORGBOTTOM
 10
0
 20
0
 30
0
  9
$PUCSORGLEFT
 10
0
 20
0
 30
0
  9
$PUCSORGRIGHT
 10
0
 20
0
 30
0
  9
$PUCSORGFRONT
 10
0
 20
0
 30
0
  9
$PUCSORGBACK
 10
0
 20
0
 30
0
  9
$USERI1
 70
    0
  9
$USERI2
 70
    0
  9
$USERI3
 70
    0
  9
$USERI4
 70
    0
  9
$USERI5
 70
    0
  9
$USERR1
 40
0
  9
$USERR2
 40
0
  9
$USERR3
 40
0
  9
$USERR4
 40
0
  9
$USERR5
 40
0
  9
$WORLDVIEW
 70
    1
  9
$SHADEDGE
 70
    3
  9
$SHADEDIF
 70
   70
  9
$TILEMODE
 70
    1
  9
$MAXACTVP
 70
   64
  9
$PINSBASE
 10
0
 20
0
 30
0
  9
$PLIMCHECK
 70
    0
  9
$PEXTMIN
 10
0
 20
0
 30
0
  9
$PEXTMAX
 10
0
 20
0
 30
0
  9
$SNAPSTYLE
 70
    0
  9
$PLIMMIN
 10
0
 20
0
  9
$PLIMMAX
 10
279.4
 20
215.9
  9
$UNITMODE
 70
    0
  9
$VISRETAIN
 70
    1
  9
$PLINEGEN
 70
    0
  9
$PSLTSCALE
 70
    1
  9
$TREEDEPTH
 70
 3020
  9
$CMLSTYLE
  2
Standard
  9
$CMLJUST
 70
    0
  9
$CMLSCALE
 40
20
  9
$PROXYGRAPHICS
 70
    1
  9
$MEASUREMENT
 70
    1
  9
$CELWEIGHT
370
   -1
  9
$ENDCAPS
280
    0
  9
$JOINSTYLE
280
    0
  9
$LWDISPLAY
290
    0
  9
$INSUNITS
 70
    4
  9
$HYPERLINKBASE
  1

  9
$STYLESHEET
  1

  9
$XEDIT
290
    1
  9
$CEPSNTYPE
380
    0
  9
$PSTYLEMODE
290
    1
  9
$EXTNAMES
290
    1
  9
$PSVPSCALE
 40
1
  9
$OLESTARTUP
290
    0
  0
ENDSEC
  0
SECTION
  2
CLASSES
  0
ENDSEC
  0
SECTION
  2
TABLES
  0
TABLE
  2
VPORT
  5
8
330
0
100
AcDbSymbolTable
 70
    1
  0
VPORT
  5
31
330
2
100
AcDbSymbolTableRecord
100
AcDbViewportTableRecord
  2
*ACTIVE
 70
    0
 10
0
 20
0
 11
1
 21
1
 12
109.264057021917
 22
32.1674436386017
 13
0
 23
0
 14
10
 24
10
 15
10
 25
10
 16
0
 26
0
 36
1
 17
0
 27
0
 37
0
 40
237.6049211096715
 41
1.002768549280177
 42
50
 43
0
 44
0
 50
0
 51
0
 71
    0
 72
  100
 73
    1
 74
    3
 75
    0
 76
    1
 77
    0
 78
    0
281
    0
 65
    1
110
0
120
0
130
0
111
1
121
0
131
0
112
0
122
1
132
0
 79
    0
146
0
  0
ENDTAB
  0
TABLE
  2
LTYPE
  5
5
330
0
100
AcDbSymbolTable
 70
    4
  0
LTYPE
  5
14
330
5
100
AcDbSymbolTableRecord
100
AcDbLinetypeTableRecord
  2
ByBlock
 70
    0
  3

 72
   65
 73
    0
 40
0
  0
LTYPE
  5
15
330
5
100
AcDbSymbolTableRecord
100
AcDbLinetypeTableRecord
  2
ByLayer
 70
    0
  3

 72
   65
 73
    0
 40
0
  0
LTYPE
  5
16
330
5
100
AcDbSymbolTableRecord
100
AcDbLinetypeTableRecord
  2
Continuous
 70
    0
  3
Solid line
 72
   65
 73
    0
 40
0
  0
LTYPE
  5
32
330
5
100
AcDbSymbolTableRecord
100
AcDbLinetypeTableRecord
  2
DOT
 70
    0
  3
Dot . . . . . . . . . . . . . . . . . . . . . .
 72
   65
 73
    2
 40
6.35
 49
0
 74
    0
 49
-6.35
 74
    0
  0
LTYPE
  5
33
330
5
100
AcDbSymbolTableRecord
100
AcDbLinetypeTableRecord
  2
DOTTINY
 70
    0
  3
Dot (.15x) .....................................
 72
   65
 73
    2
 40
0.9525
 49
0
 74
    0
 49
-0.9525
 74
    0
  0
LTYPE
  5
34
330
5
100
AcDbSymbolTableRecord
100
AcDbLinetypeTableRecord
  2
DOT2
 70
    0
  3
Dot (.5x) .....................................
 72
   65
 73
    2
 40
3.175
 49
0
 74
    0
 49
-3.175
 74
    0
  0
LTYPE
  5
35
330
5
100
AcDbSymbolTableRecord
100
AcDbLinetypeTableRecord
  2
DOTX2
 70
    0
  3
Dot (2x) .  .  .  .  .  .  .  .  .  .  .  .  .
 72
   65
 73
    2
 40
12.7
 49
0
 74
    0
 49
-12.7
 74
    0
  0
LTYPE
  5
36
330
5
100
AcDbSymbolTableRecord
100
AcDbLinetypeTableRecord
  2
DASHED
 70
    0
  3
Dashed _ _ _ _ _ _ _ _ _ _ _ _ _ _ _ _ _
 72
   65
 73
    2
 40
19.05
 49
12.7
 74
    0
 49
-6.35
 74
    0
  0
LTYPE
  5
37
330
5
100
AcDbSymbolTableRecord
100
AcDbLinetypeTableRecord
  2
DASHEDTINY
 70
    0
  3
Dashed (.15x) _ _ _ _ _ _ _ _ _ _ _ _ _ _ _ _ _
 72
   65
 73
    2
 40
2.8575
 49
1.905
 74
    0
 49
-0.9525
 74
    0
  0
LTYPE
  5
38
330
5
100
AcDbSymbolTableRecord
100
AcDbLinetypeTableRecord
  2
DASHED2
 70
    0
  3
Dashed (.5x) _ _ _ _ _ _ _ _ _ _ _ _ _ _ _ _ _
 72
   65
 73
    2
 40
9.524999999999999
 49
6.35
 74
    0
 49
-3.175
 74
    0
  0
LTYPE
  5
39
330
5
100
AcDbSymbolTableRecord
100
AcDbLinetypeTableRecord
  2
DASHEDX2
 70
    0
  3
Dashed (2x) ____  ____  ____  ____  ____  ___
 72
   65
 73
    2
 40
38.09999999999999
 49
25.4
 74
    0
 49
-12.7
 74
    0
  0
LTYPE
  5
3A
330
5
100
AcDbSymbolTableRecord
100
AcDbLinetypeTableRecord
  2
DASHDOT
 70
    0
  3
Dash dot __ . __ . __ . __ . __ . __ . __ . __
 72
   65
 73
    4
 40
25.4
 49
12.7
 74
    0
 49
-6.35
 74
    0
 49
0
 74
    0
 49
-6.35
 74
    0
  0
LTYPE
  5
3B
330
5
100
AcDbSymbolTableRecord
100
AcDbLinetypeTableRecord
  2
DASHDOTTINY
 70
    0
  3
Dash dot (.15x) _._._._._._._._._._._._._._._.
 72
   65
 73
    4
 40
3.81
 49
1.905
 74
    0
 49
-0.9525
 74
    0
 49
0
 74
    0
 49
-0.9525
 74
    0
  0
LTYPE
  5
3C
330
5
100
AcDbSymbolTableRecord
100
AcDbLinetypeTableRecord
  2
DASHDOT2
 70
    0
  3
Dash dot (.5x) _._._._._._._._._._._._._._._.
 72
   65
 73
    4
 40
12.7
 49
6.35
 74
    0
 49
-3.175
 74
    0
 49
0
 74
    0
 49
-3.175
 74
    0
  0
LTYPE
  5
3D
330
5
100
AcDbSymbolTableRecord
100
AcDbLinetypeTableRecord
  2
DASHDOTX2
 70
    0
  3
Dash dot (2x) ____  .  ____  .  ____  .  ___
 72
   65
 73
    4
 40
50.8
 49
25.4
 74
    0
 49
-12.7
 74
    0
 49
0
 74
    0
 49
-12.7
 74
    0
  0
LTYPE
  5
3E
330
5
100
AcDbSymbolTableRecord
100
AcDbLinetypeTableRecord
  2
DIVIDE
 70
    0
  3
Divide ____ . . ____ . . ____ . . ____ . . ____
 72
   65
 73
    6
 40
31.75
 49
12.7
 74
    0
 49
-6.35
 74
    0
 49
0
 74
    0
 49
-6.35
 74
    0
 49
0
 74
    0
 49
-6.35
 74
    0
  0
LTYPE
  5
3F
330
5
100
AcDbSymbolTableRecord
100
AcDbLinetypeTableRecord
  2
DIVIDETINY
 70
    0
  3
Divide (.15x) __..__..__..__..__..__..__..__.._
 72
   65
 73
    6
 40
4.7625
 49
1.905
 74
    0
 49
-0.9525
 74
    0
 49
0
 74
    0
 49
-0.9525
 74
    0
 49
0
 74
    0
 49
-0.9525
 74
    0
  0
LTYPE
  5
40
330
5
100
AcDbSymbolTableRecord
100
AcDbLinetypeTableRecord
  2
DIVIDE2
 70
    0
  3
Divide (.5x) __..__..__..__..__..__..__..__.._
 72
   65
 73
    6
 40
15.875
 49
6.35
 74
    0
 49
-3.175
 74
    0
 49
0
 74
    0
 49
-3.175
 74
    0
 49
0
 74
    0
 49
-3.175
 74
    0
  0
LTYPE
  5
41
330
5
100
AcDbSymbolTableRecord
100
AcDbLinetypeTableRecord
  2
DIVIDEX2
 70
    0
  3
Divide (2x) ________  .  .  ________  .  .  _
 72
   65
 73
    6
 40
63.5
 49
25.4
 74
    0
 49
-12.7
 74
    0
 49
0
 74
    0
 49
-12.7
 74
    0
 49
0
 74
    0
 49
-12.7
 74
    0
  0
LTYPE
  5
42
330
5
100
AcDbSymbolTableRecord
100
AcDbLinetypeTableRecord
  2
BORDER
 70
    0
  3
Border __ __ . __ __ . __ __ . __ __ . __ __ .
 72
   65
 73
    6
 40
44.45
 49
12.7
 74
    0
 49
-6.35
 74
    0
 49
12.7
 74
    0
 49
-6.35
 74
    0
 49
0
 74
    0
 49
-6.35
 74
    0
  0
LTYPE
  5
43
330
5
100
AcDbSymbolTableRecord
100
AcDbLinetypeTableRecord
  2
BORDERTINY
 70
    0
  3
Border (.15x) __.__.__.__.__.__.__.__.__.__.__.
 72
   65
 73
    6
 40
6.6675
 49
1.905
 74
    0
 49
-0.9525
 74
    0
 49
1.905
 74
    0
 49
-0.9525
 74
    0
 49
0
 74
    0
 49
-0.9525
 74
    0
  0
LTYPE
  5
44
330
5
100
AcDbSymbolTableRecord
100
AcDbLinetypeTableRecord
  2
BORDER2
 70
    0
  3
Border (.5x) __.__.__.__.__.__.__.__.__.__.__.
 72
   65
 73
    6
 40
22.225
 49
6.35
 74
    0
 49
-3.175
 74
    0
 49
6.35
 74
    0
 49
-3.175
 74
    0
 49
0
 74
    0
 49
-3.175
 74
    0
  0
LTYPE
  5
45
330
5
100
AcDbSymbolTableRecord
100
AcDbLinetypeTableRecord
  2
BORDERX2
 70
    0
  3
Border (2x) ____  ____  .  ____  ____  .  ___
 72
   65
 73
    6
 40
88.89999999999999
 49
25.4
 74
    0
 49
-12.7
 74
    0
 49
25.4
 74
    0
 49
-12.7
 74
    0
 49
0
 74
    0
 49
-12.7
 74
    0
  0
LTYPE
  5
46
330
5
100
AcDbSymbolTableRecord
100
AcDbLinetypeTableRecord
  2
CENTER
 70
    0
  3
Center ____ _ ____ _ ____ _ ____ _ ____ _ ____
 72
   65
 73
    4
 40
50.8
 49
31.75
 74
    0
 49
-6.35
 74
    0
 49
6.35
 74
    0
 49
-6.35
 74
    0
  0
LTYPE
  5
47
330
5
100
AcDbSymbolTableRecord
100
AcDbLinetypeTableRecord
  2
CENTERTINY
 70
    0
  3
Center (.15x) ___ _ ___ _ ___ _ ___ _ ___ _ ___
 72
   65
 73
    4
 40
7.619999999999999
 49
4.7625
 74
    0
 49
-0.9525
 74
    0
 49
0.9525
 74
    0
 49
-0.9525
 74
    0
  0
LTYPE
  5
48
330
5
100
AcDbSymbolTableRecord
100
AcDbLinetypeTableRecord
  2
CENTER2
 70
    0
  3
Center (.5x) ___ _ ___ _ ___ _ ___ _ ___ _ ___
 72
   65
 73
    4
 40
28.575
 49
19.05
 74
    0
 49
-3.175
 74
    0
 49
3.175
 74
    0
 49
-3.175
 74
    0
  0
LTYPE
  5
49
330
5
100
AcDbSymbolTableRecord
100
AcDbLinetypeTableRecord
  2
CENTERX2
 70
    0
  3
Center (2x) ________  __  ________  __  _____
 72
   65
 73
    4
 40
101.6
 49
63.5
 74
    0
 49
-12.7
 74
    0
 49
12.7
 74
    0
 49
-12.7
 74
    0
  0
ENDTAB
  0
TABLE
  2
LAYER
  5
2
330
0
100
AcDbSymbolTable
 70
    1
  0
LAYER
  5
10
330
2
100
AcDbSymbolTableRecord
100
AcDbLayerTableRecord
  2
0
 70
    0
 62
    7
  6
CONTINUOUS
370
    0
390
F
  0
LAYER
  5
4A
330
2
100
AcDbSymbolTableRecord
100
AcDbLayerTableRecord
  2
BLACK
 70
    0
 62
    7
  6
CONTINUOUS
370
   -3
390
F
  0
ENDTAB
  0
TABLE
  2
STYLE
  5
3
330
0
100
AcDbSymbolTable
 70
    3
  0
STYLE
  5
4B
330
2
100
AcDbSymbolTableRecord
100
AcDbTextStyleTableRecord
  2
Standard
 70
    0
 40
0
 41
1
 50
0
 71
    0
 42
1
  3
txt
  4

  0
ENDTAB
  0
TABLE
  2
VIEW
  5
6
330
0
100
AcDbSymbolTable
 70
    0
  0
ENDTAB
  0
TABLE
  2
UCS
  5
7
330
0
100
AcDbSymbolTable
 70
    0
  0
ENDTAB
  0
TABLE
  2
APPID
  5
9
330
0
100
AcDbSymbolTable
 70
    1
  0
APPID
  5
12
330
9
100
AcDbSymbolTableRecord
100
AcDbRegAppTableRecord
  2
ACAD
 70
    0
  0
APPID
  5
4C
330
9
100
AcDbSymbolTableRecord
100
AcDbRegAppTableRecord
  2
LibreCad
 70
    0
  0
ENDTAB
  0
TABLE
  2
DIMSTYLE
  5
A
330
0
100
AcDbSymbolTable
 70
    1
100
AcDbDimStyleTable
 71
    1
  0
DIMSTYLE
105
4D
330
A
100
AcDbSymbolTableRecord
100
AcDbDimStyleTableRecord
  2
Standard
 70
    0
 40
1
 41
2.5
 42
0.625
 43
0.38
 44
1.25
 45
0
 46
0
 47
0
 48
0
 49
1
140
2.5
141
0.09
142
2.5
143
25.4
144
1
145
0
146
1
147
0.625
148
0
 71
    0
 72
    0
 73
    0
 74
    1
 75
    0
 76
    0
 77
    0
 78
    1
 79
    0
170
    0
171
    2
172
    0
173
    0
174
    0
175
    0
176
    0
177
    0
178
    0
179
    0
271
    2
272
    4
273
    2
274
    2
275
    0
276
    0
277
    2
278
    0
279
    0
280
    0
281
    0
282
    0
283
    1
284
    0
285
    0
286
    0
288
    0
289
    3
340
standard
341

371
   -2
372
   -2
  0
ENDTAB
  0
TABLE
  2
BLOCK_RECORD
  5
1
330
0
100
AcDbSymbolTable
 70
    2
  0
BLOCK_RECORD
  5
1F
330
1
100
AcDbSymbolTableRecord
100
AcDbBlockTableRecord
  2
*Model_Space
  0
BLOCK_RECORD
  5
1E
330
1
100
AcDbSymbolTableRecord
100
AcDbBlockTableRecord
  2
*Paper_Space
  0
ENDTAB
  0
ENDSEC
  0
SECTION
  2
BLOCKS
  0
BLOCK
  5
20
330
1F
100
AcDbEntity
  8
0
100
AcDbBlockBegin
  2
*Model_Space
 70
    0
 10
0
 20
0
 30
0
  3
*Model_Space
  1

  0
ENDBLK
  5
21
330
1F
100
AcDbEntity
  8
0
100
AcDbBlockEnd
  0
BLOCK
  5
1C
330
1B
100
AcDbEntity
  8
0
100
AcDbBlockBegin
  2
*Paper_Space
 70
    0
 10
0
 20
0
 30
0
  3
*Paper_Space
  1

  0
ENDBLK
  5
1D
330
1F
100
AcDbEntity
  8
0
100
AcDbBlockEnd
  0
ENDSEC
  0
SECTION
  2
ENTITIES
  0
LINE
  5
4E
100
AcDbEntity
  8
BLACK
  6
CONTINUOUS
 62
  256
370
   -1
100
AcDbLine
 10
54.0647
 20
-66.28149999999999
 11
54.0691
 21
-66.2812
  0
LINE
  5
4F
100
AcDbEntity
  8
BLACK
  6
CONTINUOUS
 62
  256
370
   -1
100
AcDbLine
 10
54.0691
 20
-66.2812
 11
54.087
 21
-66.2944
  0
LINE
  5
50
100
AcDbEntity
  8
BLACK
  6
CONTINUOUS
 62
  256
370
   -1
100
AcDbLine
 10
54.087
 20
-66.2944
 11
54.1062
 21
-66.30549999999999
  0
LINE
  5
51
100
AcDbEntity
  8
BLACK
  6
CONTINUOUS
 62
  256
370
   -1
100
AcDbLine
 10
54.1062
 20
-66.30549999999999
 11
54.1077
 21
-66.3096
  0
LINE
  5
52
100
AcDbEntity
  8
BLACK
  6
CONTINUOUS
 62
  256
370
   -1
100
AcDbLine
 10
54.1077
 20
-66.3096
 11
54.1113
 21
-66.3122
  0
LINE
  5
53
100
AcDbEntity
  8
BLACK
  6
CONTINUOUS
 62
  256
370
   -1
100
AcDbLine
 10
54.1113
 20
-66.3122
 11
54.2023
 21
-66.44880000000001
  0
LINE
  5
54
100
AcDbEntity
  8
BLACK
  6
CONTINUOUS
 62
  256
370
   -1
100
AcDbLine
 10
54.2023
 20
-66.44880000000001
 11
54.2834
 21
-66.5299
  0
LINE
  5
55
100
AcDbEntity
  8
BLACK
  6
CONTINUOUS
 62
  256
370
   -1
100
AcDbLine
 10
54.2834
 20
-66.5299
 11
54.3675
 21
-66.572
  0
LINE
  5
56
100
AcDbEntity
  8
BLACK
  6
CONTINUOUS
 62
  256
370
   -1
100
AcDbLine
 10
54.3675
 20
-66.572
 11
54.3889
 21
-66.5878
  0
LINE
  5
57
100
AcDbEntity
  8
BLACK
  6
CONTINUOUS
 62
  256
370
   -1
100
AcDbLine
 10
54.3889
 20
-66.5878
 11
54.4097
 21
-66.6358
  0
LINE
  5
58
100
AcDbEntity
  8
BLACK
  6
CONTINUOUS
 62
  256
370
   -1
100
AcDbLine
 10
54.4097
 20
-66.6358
 11
54.3948
 21
-66.68600000000001
  0
LINE
  5
59
100
AcDbEntity
  8
BLACK
  6
CONTINUOUS
 62
  256
370
   -1
100
AcDbLine
 10
54.3948
 20
-66.68600000000001
 11
54.3511
 21
-66.7148
  0
LINE
  5
5A
100
AcDbEntity
  8
BLACK
  6
CONTINUOUS
 62
  256
370
   -1
100
AcDbLine
 10
54.3511
 20
-66.7148
 11
54.2991
 21
-66.7088
  0
LINE
  5
5B
100
AcDbEntity
  8
BLACK
  6
CONTINUOUS
 62
  256
370
   -1
100
AcDbLine
 10
54.2991
 20
-66.7088
 11
54.2039
 21
-66.66119999999999
  0
LINE
  5
5C
100
AcDbEntity
  8
BLACK
  6
CONTINUOUS
 62
  256
370
   -1
100
AcDbLine
 10
54.2039
 20
-66.66119999999999
 11
54.1855
 21
-66.6476
  0
LINE
  5
5D
100
AcDbEntity
  8
BLACK
  6
CONTINUOUS
 62
  256
370
   -1
100
AcDbLine
 10
54.1855
 20
-66.6476
 11
54.184
 21
-66.6469
  0
LINE
  5
5E
100
AcDbEntity
  8
BLACK
  6
CONTINUOUS
 62
  256
370
   -1
100
AcDbLine
 10
54.184
 20
-66.6469
 11
54.1241
 21
-66.587
  0
LINE
  5
5F
100
AcDbEntity
  8
BLACK
  6
CONTINUOUS
 62
  256
370
   -1
100
AcDbLine
 10
54.1241
 20
-66.587
 11
54.1241
 21
-67.2782
  0
LINE
  5
60
100
AcDbEntity
  8
BLACK
  6
CONTINUOUS
 62
  256
370
   -1
100
AcDbLine
 10
54.1241
 20
-67.2782
 11
54.3333
 21
-67.2782
  0
LINE
  5
61
100
AcDbEntity
  8
BLACK
  6
CONTINUOUS
 62
  256
370
   -1
100
AcDbLine
 10
54.3333
 20
-67.2782
 11
54.3595
 21
-67.28279999999999
  0
LINE
  5
62
100
AcDbEntity
  8
BLACK
  6
CONTINUOUS
 62
  256
370
   -1
100
AcDbLine
 10
54.3595
 20
-67.28279999999999
 11
54.3996
 21
-67.3164
  0
LINE
  5
63
100
AcDbEntity
  8
BLACK
  6
CONTINUOUS
 62
  256
370
   -1
100
AcDbLine
 10
54.3996
 20
-67.3164
 11
54.4087
 21
-67.36790000000001
  0
LINE
  5
64
100
AcDbEntity
  8
BLACK
  6
CONTINUOUS
 62
  256
370
   -1
100
AcDbLine
 10
54.4087
 20
-67.36790000000001
 11
54.3825
 21
-67.41330000000001
  0
LINE
  5
65
100
AcDbEntity
  8
BLACK
  6
CONTINUOUS
 62
  256
370
   -1
100
AcDbLine
 10
54.3825
 20
-67.41330000000001
 11
54.3333
 21
-67.4312
  0
LINE
  5
66
100
AcDbEntity
  8
BLACK
  6
CONTINUOUS
 62
  256
370
   -1
100
AcDbLine
 10
54.3333
 20
-67.4312
 11
53.7619
 21
-67.4312
  0
LINE
  5
67
100
AcDbEntity
  8
BLACK
  6
CONTINUOUS
 62
  256
370
   -1
100
AcDbLine
 10
53.7619
 20
-67.4312
 11
53.7357
 21
-67.4265
  0
LINE
  5
68
100
AcDbEntity
  8
BLACK
  6
CONTINUOUS
 62
  256
370
   -1
100
AcDbLine
 10
53.7357
 20
-67.4265
 11
53.6957
 21
-67.3929
  0
LINE
  5
69
100
AcDbEntity
  8
BLACK
  6
CONTINUOUS
 62
  256
370
   -1
100
AcDbLine
 10
53.6957
 20
-67.3929
 11
53.6866
 21
-67.34139999999999
  0
LINE
  5
6A
100
AcDbEntity
  8
BLACK
  6
CONTINUOUS
 62
  256
370
   -1
100
AcDbLine
 10
53.6866
 20
-67.34139999999999
 11
53.7127
 21
-67.2961
  0
LINE
  5
6B
100
AcDbEntity
  8
BLACK
  6
CONTINUOUS
 62
  256
370
   -1
100
AcDbLine
 10
53.7127
 20
-67.2961
 11
53.7619
 21
-67.2782
  0
LINE
  5
6C
100
AcDbEntity
  8
BLACK
  6
CONTINUOUS
 62
  256
370
   -1
100
AcDbLine
 10
53.7619
 20
-67.2782
 11
53.9711
 21
-67.2782
  0
LINE
  5
6D
100
AcDbEntity
  8
BLACK
  6
CONTINUOUS
 62
  256
370
   -1
100
AcDbLine
 10
53.9711
 20
-67.2782
 11
53.9711
 21
-66.35469999999999
  0
LINE
  5
6E
100
AcDbEntity
  8
BLACK
  6
CONTINUOUS
 62
  256
370
   -1
100
AcDbLine
 10
53.9711
 20
-66.35469999999999
 11
53.9757
 21
-66.32850000000001
  0
LINE
  5
6F
100
AcDbEntity
  8
BLACK
  6
CONTINUOUS
 62
  256
370
   -1
100
AcDbLine
 10
53.9757
 20
-66.32850000000001
 11
53.9786
 21
-66.32510000000001
  0
LINE
  5
70
100
AcDbEntity
  8
BLACK
  6
CONTINUOUS
 62
  256
370
   -1
100
AcDbLine
 10
53.9786
 20
-66.32510000000001
 11
53.979
 21
-66.32080000000001
  0
LINE
  5
71
100
AcDbEntity
  8
BLACK
  6
CONTINUOUS
 62
  256
370
   -1
100
AcDbLine
 10
53.979
 20
-66.32080000000001
 11
53.9951
 21
-66.30540000000001
  0
LINE
  5
72
100
AcDbEntity
  8
BLACK
  6
CONTINUOUS
 62
  256
370
   -1
100
AcDbLine
 10
53.9951
 20
-66.30540000000001
 11
54.0094
 21
-66.2884
  0
LINE
  5
73
100
AcDbEntity
  8
BLACK
  6
CONTINUOUS
 62
  256
370
   -1
100
AcDbLine
 10
54.0094
 20
-66.2884
 11
54.0137
 21
-66.2876
  0
LINE
  5
74
100
AcDbEntity
  8
BLACK
  6
CONTINUOUS
 62
  256
370
   -1
100
AcDbLine
 10
54.0137
 20
-66.2876
 11
54.0169
 21
-66.2846
  0
LINE
  5
75
100
AcDbEntity
  8
BLACK
  6
CONTINUOUS
 62
  256
370
   -1
100
AcDbLine
 10
54.0169
 20
-66.2846
 11
54.039
 21
-66.28319999999999
  0
LINE
  5
76
100
AcDbEntity
  8
BLACK
  6
CONTINUOUS
 62
  256
370
   -1
100
AcDbLine
 10
54.039
 20
-66.28319999999999
 11
54.0609
 21
-66.27930000000001
  0
LINE
  5
77
100
AcDbEntity
  8
BLACK
  6
CONTINUOUS
 62
  256
370
   -1
100
AcDbLine
 10
54.0609
 20
-66.27930000000001
 11
54.0647
 21
-66.28149999999999
  0
LINE
  5
78
100
AcDbEntity
  8
BLACK
  6
CONTINUOUS
 62
  256
370
   -1
100
AcDbLine
 10
55.0738
 20
-66.28279999999999
 11
55.0773
 21
-66.28570000000001
  0
LINE
  5
79
100
AcDbEntity
  8
BLACK
  6
CONTINUOUS
 62
  256
370
   -1
100
AcDbLine
 10
55.0773
 20
-66.28570000000001
 11
55.0818
 21
-66.28619999999999
  0
LINE
  5
7A
100
AcDbEntity
  8
BLACK
  6
CONTINUOUS
 62
  256
370
   -1
100
AcDbLine
 10
55.0818
 20
-66.28619999999999
 11
55.1771
 21
-66.3339
  0
LINE
  5
7B
100
AcDbEntity
  8
BLACK
  6
CONTINUOUS
 62
  256
370
   -1
100
AcDbLine
 10
55.1771
 20
-66.3339
 11
55.1954
 21
-66.3475
  0
LINE
  5
7C
100
AcDbEntity
  8
BLACK
  6
CONTINUOUS
 62
  256
370
   -1
100
AcDbLine
 10
55.1954
 20
-66.3475
 11
55.1969
 21
-66.34820000000001
  0
LINE
  5
7D
100
AcDbEntity
  8
BLACK
  6
CONTINUOUS
 62
  256
370
   -1
100
AcDbLine
 10
55.1969
 20
-66.34820000000001
 11
55.2446
 21
-66.39579999999999
  0
LINE
  5
7E
100
AcDbEntity
  8
BLACK
  6
CONTINUOUS
 62
  256
370
   -1
100
AcDbLine
 10
55.2446
 20
-66.39579999999999
 11
55.2577
 21
-66.4145
  0
LINE
  5
7F
100
AcDbEntity
  8
BLACK
  6
CONTINUOUS
 62
  256
370
   -1
100
AcDbLine
 10
55.2577
 20
-66.4145
 11
55.2589
 21
-66.4157
  0
LINE
  5
80
100
AcDbEntity
  8
BLACK
  6
CONTINUOUS
 62
  256
370
   -1
100
AcDbLine
 10
55.2589
 20
-66.4157
 11
55.3065
 21
-66.51090000000001
  0
LINE
  5
81
100
AcDbEntity
  8
BLACK
  6
CONTINUOUS
 62
  256
370
   -1
100
AcDbLine
 10
55.3065
 20
-66.51090000000001
 11
55.3103
 21
-66.5236
  0
LINE
  5
82
100
AcDbEntity
  8
BLACK
  6
CONTINUOUS
 62
  256
370
   -1
100
AcDbLine
 10
55.3103
 20
-66.5236
 11
55.3123
 21
-66.5266
  0
LINE
  5
83
100
AcDbEntity
  8
BLACK
  6
CONTINUOUS
 62
  256
370
   -1
100
AcDbLine
 10
55.3123
 20
-66.5266
 11
55.3599
 21
-66.7171
  0
LINE
  5
84
100
AcDbEntity
  8
BLACK
  6
CONTINUOUS
 62
  256
370
   -1
100
AcDbLine
 10
55.3599
 20
-66.7171
 11
55.361
 21
-66.7323
  0
LINE
  5
85
100
AcDbEntity
  8
BLACK
  6
CONTINUOUS
 62
  256
370
   -1
100
AcDbLine
 10
55.361
 20
-66.7323
 11
55.3622
 21
-66.73560000000001
  0
LINE
  5
86
100
AcDbEntity
  8
BLACK
  6
CONTINUOUS
 62
  256
370
   -1
100
AcDbLine
 10
55.3622
 20
-66.73560000000001
 11
55.3622
 21
-66.97369999999999
  0
LINE
  5
87
100
AcDbEntity
  8
BLACK
  6
CONTINUOUS
 62
  256
370
   -1
100
AcDbLine
 10
55.3622
 20
-66.97369999999999
 11
55.3596
 21
-66.98869999999999
  0
LINE
  5
88
100
AcDbEntity
  8
BLACK
  6
CONTINUOUS
 62
  256
370
   -1
100
AcDbLine
 10
55.3596
 20
-66.98869999999999
 11
55.3599
 21
-66.9923
  0
LINE
  5
89
100
AcDbEntity
  8
BLACK
  6
CONTINUOUS
 62
  256
370
   -1
100
AcDbLine
 10
55.3599
 20
-66.9923
 11
55.3123
 21
-67.1827
  0
LINE
  5
8A
100
AcDbEntity
  8
BLACK
  6
CONTINUOUS
 62
  256
370
   -1
100
AcDbLine
 10
55.3123
 20
-67.1827
 11
55.3069
 21
-67.1948
  0
LINE
  5
8B
100
AcDbEntity
  8
BLACK
  6
CONTINUOUS
 62
  256
370
   -1
100
AcDbLine
 10
55.3069
 20
-67.1948
 11
55.3065
 21
-67.19840000000001
  0
LINE
  5
8C
100
AcDbEntity
  8
BLACK
  6
CONTINUOUS
 62
  256
370
   -1
100
AcDbLine
 10
55.3065
 20
-67.19840000000001
 11
55.2589
 21
-67.2936
  0
LINE
  5
8D
100
AcDbEntity
  8
BLACK
  6
CONTINUOUS
 62
  256
370
   -1
100
AcDbLine
 10
55.2589
 20
-67.2936
 11
55.2453
 21
-67.312
  0
LINE
  5
8E
100
AcDbEntity
  8
BLACK
  6
CONTINUOUS
 62
  256
370
   -1
100
AcDbLine
 10
55.2453
 20
-67.312
 11
55.2446
 21
-67.3135
  0
LINE
  5
8F
100
AcDbEntity
  8
BLACK
  6
CONTINUOUS
 62
  256
370
   -1
100
AcDbLine
 10
55.2446
 20
-67.3135
 11
55.1969
 21
-67.36109999999999
  0
LINE
  5
90
100
AcDbEntity
  8
BLACK
  6
CONTINUOUS
 62
  256
370
   -1
100
AcDbLine
 10
55.1969
 20
-67.36109999999999
 11
55.1782
 21
-67.37430000000001
  0
LINE
  5
91
100
AcDbEntity
  8
BLACK
  6
CONTINUOUS
 62
  256
370
   -1
100
AcDbLine
 10
55.1782
 20
-67.37430000000001
 11
55.1771
 21
-67.3755
  0
LINE
  5
92
100
AcDbEntity
  8
BLACK
  6
CONTINUOUS
 62
  256
370
   -1
100
AcDbLine
 10
55.1771
 20
-67.3755
 11
55.0818
 21
-67.42310000000001
  0
LINE
  5
93
100
AcDbEntity
  8
BLACK
  6
CONTINUOUS
 62
  256
370
   -1
100
AcDbLine
 10
55.0818
 20
-67.42310000000001
 11
55.0564
 21
-67.4307
  0
LINE
  5
94
100
AcDbEntity
  8
BLACK
  6
CONTINUOUS
 62
  256
370
   -1
100
AcDbLine
 10
55.0564
 20
-67.4307
 11
55.0519
 21
-67.42959999999999
  0
LINE
  5
95
100
AcDbEntity
  8
BLACK
  6
CONTINUOUS
 62
  256
370
   -1
100
AcDbLine
 10
55.0519
 20
-67.42959999999999
 11
55.0476
 21
-67.4312
  0
LINE
  5
96
100
AcDbEntity
  8
BLACK
  6
CONTINUOUS
 62
  256
370
   -1
100
AcDbLine
 10
55.0476
 20
-67.4312
 11
54.9524
 21
-67.4312
  0
LINE
  5
97
100
AcDbEntity
  8
BLACK
  6
CONTINUOUS
 62
  256
370
   -1
100
AcDbLine
 10
54.9524
 20
-67.4312
 11
54.9262
 21
-67.4265
  0
LINE
  5
98
100
AcDbEntity
  8
BLACK
  6
CONTINUOUS
 62
  256
370
   -1
100
AcDbLine
 10
54.9262
 20
-67.4265
 11
54.9227
 21
-67.42359999999999
  0
LINE
  5
99
100
AcDbEntity
  8
BLACK
  6
CONTINUOUS
 62
  256
370
   -1
100
AcDbLine
 10
54.9227
 20
-67.42359999999999
 11
54.9182
 21
-67.42310000000001
  0
LINE
  5
9A
100
AcDbEntity
  8
BLACK
  6
CONTINUOUS
 62
  256
370
   -1
100
AcDbLine
 10
54.9182
 20
-67.42310000000001
 11
54.8229
 21
-67.3755
  0
LINE
  5
9B
100
AcDbEntity
  8
BLACK
  6
CONTINUOUS
 62
  256
370
   -1
100
AcDbLine
 10
54.8229
 20
-67.3755
 11
54.8046
 21
-67.3618
  0
LINE
  5
9C
100
AcDbEntity
  8
BLACK
  6
CONTINUOUS
 62
  256
370
   -1
100
AcDbLine
 10
54.8046
 20
-67.3618
 11
54.803
 21
-67.36109999999999
  0
LINE
  5
9D
100
AcDbEntity
  8
BLACK
  6
CONTINUOUS
 62
  256
370
   -1
100
AcDbLine
 10
54.803
 20
-67.36109999999999
 11
54.7554
 21
-67.3135
  0
LINE
  5
9E
100
AcDbEntity
  8
BLACK
  6
CONTINUOUS
 62
  256
370
   -1
100
AcDbLine
 10
54.7554
 20
-67.3135
 11
54.7423
 21
-67.2948
  0
LINE
  5
9F
100
AcDbEntity
  8
BLACK
  6
CONTINUOUS
 62
  256
370
   -1
100
AcDbLine
 10
54.7423
 20
-67.2948
 11
54.7411
 21
-67.2936
  0
LINE
  5
A0
100
AcDbEntity
  8
BLACK
  6
CONTINUOUS
 62
  256
370
   -1
100
AcDbLine
 10
54.7411
 20
-67.2936
 11
54.6935
 21
-67.19840000000001
  0
LINE
  5
A1
100
AcDbEntity
  8
BLACK
  6
CONTINUOUS
 62
  256
370
   -1
100
AcDbLine
 10
54.6935
 20
-67.19840000000001
 11
54.6897
 21
-67.1857
  0
LINE
  5
A2
100
AcDbEntity
  8
BLACK
  6
CONTINUOUS
 62
  256
370
   -1
100
AcDbLine
 10
54.6897
 20
-67.1857
 11
54.6877
 21
-67.1827
  0
LINE
  5
A3
100
AcDbEntity
  8
BLACK
  6
CONTINUOUS
 62
  256
370
   -1
100
AcDbLine
 10
54.6877
 20
-67.1827
 11
54.6401
 21
-66.9923
  0
LINE
  5
A4
100
AcDbEntity
  8
BLACK
  6
CONTINUOUS
 62
  256
370
   -1
100
AcDbLine
 10
54.6401
 20
-66.9923
 11
54.639
 21
-66.977
  0
LINE
  5
A5
100
AcDbEntity
  8
BLACK
  6
CONTINUOUS
 62
  256
370
   -1
100
AcDbLine
 10
54.639
 20
-66.977
 11
54.6378
 21
-66.97369999999999
  0
LINE
  5
A6
100
AcDbEntity
  8
BLACK
  6
CONTINUOUS
 62
  256
370
   -1
100
AcDbLine
 10
54.6378
 20
-66.97369999999999
 11
54.6378
 21
-66.73560000000001
  0
LINE
  5
A7
100
AcDbEntity
  8
BLACK
  6
CONTINUOUS
 62
  256
370
   -1
100
AcDbLine
 10
54.6378
 20
-66.73560000000001
 11
54.6404
 21
-66.7206
  0
LINE
  5
A8
100
AcDbEntity
  8
BLACK
  6
CONTINUOUS
 62
  256
370
   -1
100
AcDbLine
 10
54.6404
 20
-66.7206
 11
54.6401
 21
-66.7171
  0
LINE
  5
A9
100
AcDbEntity
  8
BLACK
  6
CONTINUOUS
 62
  256
370
   -1
100
AcDbLine
 10
54.6401
 20
-66.7171
 11
54.6877
 21
-66.5266
  0
LINE
  5
AA
100
AcDbEntity
  8
BLACK
  6
CONTINUOUS
 62
  256
370
   -1
100
AcDbLine
 10
54.6877
 20
-66.5266
 11
54.6931
 21
-66.5145
  0
LINE
  5
AB
100
AcDbEntity
  8
BLACK
  6
CONTINUOUS
 62
  256
370
   -1
100
AcDbLine
 10
54.6931
 20
-66.5145
 11
54.6935
 21
-66.51090000000001
  0
LINE
  5
AC
100
AcDbEntity
  8
BLACK
  6
CONTINUOUS
 62
  256
370
   -1
100
AcDbLine
 10
54.6935
 20
-66.51090000000001
 11
54.7411
 21
-66.4157
  0
LINE
  5
AD
100
AcDbEntity
  8
BLACK
  6
CONTINUOUS
 62
  256
370
   -1
100
AcDbLine
 10
54.7411
 20
-66.4157
 11
54.7547
 21
-66.3973
  0
LINE
  5
AE
100
AcDbEntity
  8
BLACK
  6
CONTINUOUS
 62
  256
370
   -1
100
AcDbLine
 10
54.7547
 20
-66.3973
 11
54.7554
 21
-66.39579999999999
  0
LINE
  5
AF
100
AcDbEntity
  8
BLACK
  6
CONTINUOUS
 62
  256
370
   -1
100
AcDbLine
 10
54.7554
 20
-66.39579999999999
 11
54.803
 21
-66.34820000000001
  0
LINE
  5
B0
100
AcDbEntity
  8
BLACK
  6
CONTINUOUS
 62
  256
370
   -1
100
AcDbLine
 10
54.803
 20
-66.34820000000001
 11
54.8218
 21
-66.3351
  0
LINE
  5
B1
100
AcDbEntity
  8
BLACK
  6
CONTINUOUS
 62
  256
370
   -1
100
AcDbLine
 10
54.8218
 20
-66.3351
 11
54.8229
 21
-66.3339
  0
LINE
  5
B2
100
AcDbEntity
  8
BLACK
  6
CONTINUOUS
 62
  256
370
   -1
100
AcDbLine
 10
54.8229
 20
-66.3339
 11
54.9182
 21
-66.28619999999999
  0
LINE
  5
B3
100
AcDbEntity
  8
BLACK
  6
CONTINUOUS
 62
  256
370
   -1
100
AcDbLine
 10
54.9182
 20
-66.28619999999999
 11
54.9436
 21
-66.2787
  0
LINE
  5
B4
100
AcDbEntity
  8
BLACK
  6
CONTINUOUS
 62
  256
370
   -1
100
AcDbLine
 10
54.9436
 20
-66.2787
 11
54.9481
 21
-66.27970000000001
  0
LINE
  5
B5
100
AcDbEntity
  8
BLACK
  6
CONTINUOUS
 62
  256
370
   -1
100
AcDbLine
 10
54.9481
 20
-66.27970000000001
 11
54.9524
 21
-66.2782
  0
LINE
  5
B6
100
AcDbEntity
  8
BLACK
  6
CONTINUOUS
 62
  256
370
   -1
100
AcDbLine
 10
54.9524
 20
-66.2782
 11
55.0476
 21
-66.2782
  0
LINE
  5
B7
100
AcDbEntity
  8
BLACK
  6
CONTINUOUS
 62
  256
370
   -1
100
AcDbLine
 10
55.0476
 20
-66.2782
 11
55.0738
 21
-66.28279999999999
  0
LINE
  5
B8
100
AcDbEntity
  8
BLACK
  6
CONTINUOUS
 62
  256
370
   -1
100
AcDbLine
 10
54.9025
 20
-66.4652
 11
54.8724
 21
-66.4952
  0
LINE
  5
B9
100
AcDbEntity
  8
BLACK
  6
CONTINUOUS
 62
  256
370
   -1
100
AcDbLine
 10
54.8724
 20
-66.4952
 11
54.8341
 21
-66.5718
  0
LINE
  5
BA
100
AcDbEntity
  8
BLACK
  6
CONTINUOUS
 62
  256
370
   -1
100
AcDbLine
 10
54.8341
 20
-66.5718
 11
54.7908
 21
-66.745
  0
LINE
  5
BB
100
AcDbEntity
  8
BLACK
  6
CONTINUOUS
 62
  256
370
   -1
100
AcDbLine
 10
54.7908
 20
-66.745
 11
54.7908
 21
-66.96429999999999
  0
LINE
  5
BC
100
AcDbEntity
  8
BLACK
  6
CONTINUOUS
 62
  256
370
   -1
100
AcDbLine
 10
54.7908
 20
-66.96429999999999
 11
54.8341
 21
-67.1375
  0
LINE
  5
BD
100
AcDbEntity
  8
BLACK
  6
CONTINUOUS
 62
  256
370
   -1
100
AcDbLine
 10
54.8341
 20
-67.1375
 11
54.8724
 21
-67.2141
  0
LINE
  5
BE
100
AcDbEntity
  8
BLACK
  6
CONTINUOUS
 62
  256
370
   -1
100
AcDbLine
 10
54.8724
 20
-67.2141
 11
54.9025
 21
-67.24420000000001
  0
LINE
  5
BF
100
AcDbEntity
  8
BLACK
  6
CONTINUOUS
 62
  256
370
   -1
100
AcDbLine
 10
54.9025
 20
-67.24420000000001
 11
54.9704
 21
-67.2782
  0
LINE
  5
C0
100
AcDbEntity
  8
BLACK
  6
CONTINUOUS
 62
  256
370
   -1
100
AcDbLine
 10
54.9704
 20
-67.2782
 11
55.0296
 21
-67.2782
  0
LINE
  5
C1
100
AcDbEntity
  8
BLACK
  6
CONTINUOUS
 62
  256
370
   -1
100
AcDbLine
 10
55.0296
 20
-67.2782
 11
55.0975
 21
-67.24420000000001
  0
LINE
  5
C2
100
AcDbEntity
  8
BLACK
  6
CONTINUOUS
 62
  256
370
   -1
100
AcDbLine
 10
55.0975
 20
-67.24420000000001
 11
55.1276
 21
-67.2141
  0
LINE
  5
C3
100
AcDbEntity
  8
BLACK
  6
CONTINUOUS
 62
  256
370
   -1
100
AcDbLine
 10
55.1276
 20
-67.2141
 11
55.1659
 21
-67.1375
  0
LINE
  5
C4
100
AcDbEntity
  8
BLACK
  6
CONTINUOUS
 62
  256
370
   -1
100
AcDbLine
 10
55.1659
 20
-67.1375
 11
55.2092
 21
-66.96429999999999
  0
LINE
  5
C5
100
AcDbEntity
  8
BLACK
  6
CONTINUOUS
 62
  256
370
   -1
100
AcDbLine
 10
55.2092
 20
-66.96429999999999
 11
55.2092
 21
-66.745
  0
LINE
  5
C6
100
AcDbEntity
  8
BLACK
  6
CONTINUOUS
 62
  256
370
   -1
100
AcDbLine
 10
55.2092
 20
-66.745
 11
55.1659
 21
-66.5718
  0
LINE
  5
C7
100
AcDbEntity
  8
BLACK
  6
CONTINUOUS
 62
  256
370
   -1
100
AcDbLine
 10
55.1659
 20
-66.5718
 11
55.1276
 21
-66.4952
  0
LINE
  5
C8
100
AcDbEntity
  8
BLACK
  6
CONTINUOUS
 62
  256
370
   -1
100
AcDbLine
 10
55.1276
 20
-66.4952
 11
55.0975
 21
-66.4652
  0
LINE
  5
C9
100
AcDbEntity
  8
BLACK
  6
CONTINUOUS
 62
  256
370
   -1
100
AcDbLine
 10
55.0975
 20
-66.4652
 11
55.0296
 21
-66.4312
  0
LINE
  5
CA
100
AcDbEntity
  8
BLACK
  6
CONTINUOUS
 62
  256
370
   -1
100
AcDbLine
 10
55.0296
 20
-66.4312
 11
54.9704
 21
-66.4312
  0
LINE
  5
CB
100
AcDbEntity
  8
BLACK
  6
CONTINUOUS
 62
  256
370
   -1
100
AcDbLine
 10
54.9704
 20
-66.4312
 11
54.9025
 21
-66.4652
  0
LINE
  5
CC
100
AcDbEntity
  8
BLACK
  6
CONTINUOUS
 62
  256
370
   -1
100
AcDbLine
 10
56.1214
 20
-66.28279999999999
 11
56.1249
 21
-66.28570000000001
  0
LINE
  5
CD
100
AcDbEntity
  8
BLACK
  6
CONTINUOUS
 62
  256
370
   -1
100
AcDbLine
 10
56.1249
 20
-66.28570000000001
 11
56.1294
 21
-66.28619999999999
  0
LINE
  5
CE
100
AcDbEntity
  8
BLACK
  6
CONTINUOUS
 62
  256
370
   -1
100
AcDbLine
 10
56.1294
 20
-66.28619999999999
 11
56.2247
 21
-66.3339
  0
LINE
  5
CF
100
AcDbEntity
  8
BLACK
  6
CONTINUOUS
 62
  256
370
   -1
100
AcDbLine
 10
56.2247
 20
-66.3339
 11
56.2431
 21
-66.3475
  0
LINE
  5
D0
100
AcDbEntity
  8
BLACK
  6
CONTINUOUS
 62
  256
370
   -1
100
AcDbLine
 10
56.2431
 20
-66.3475
 11
56.2446
 21
-66.34820000000001
  0
LINE
  5
D1
100
AcDbEntity
  8
BLACK
  6
CONTINUOUS
 62
  256
370
   -1
100
AcDbLine
 10
56.2446
 20
-66.34820000000001
 11
56.2922
 21
-66.39579999999999
  0
LINE
  5
D2
100
AcDbEntity
  8
BLACK
  6
CONTINUOUS
 62
  256
370
   -1
100
AcDbLine
 10
56.2922
 20
-66.39579999999999
 11
56.3074
 21
-66.41759999999999
  0
LINE
  5
D3
100
AcDbEntity
  8
BLACK
  6
CONTINUOUS
 62
  256
370
   -1
100
AcDbLine
 10
56.3074
 20
-66.41759999999999
 11
56.312
 21
-66.4697
  0
LINE
  5
D4
100
AcDbEntity
  8
BLACK
  6
CONTINUOUS
 62
  256
370
   -1
100
AcDbLine
 10
56.312
 20
-66.4697
 11
56.282
 21
-66.51260000000001
  0
LINE
  5
D5
100
AcDbEntity
  8
BLACK
  6
CONTINUOUS
 62
  256
370
   -1
100
AcDbLine
 10
56.282
 20
-66.51260000000001
 11
56.2314
 21
-66.5261
  0
LINE
  5
D6
100
AcDbEntity
  8
BLACK
  6
CONTINUOUS
 62
  256
370
   -1
100
AcDbLine
 10
56.2314
 20
-66.5261
 11
56.184
 21
-66.504
  0
LINE
  5
D7
100
AcDbEntity
  8
BLACK
  6
CONTINUOUS
 62
  256
370
   -1
100
AcDbLine
 10
56.184
 20
-66.504
 11
56.1452
 21
-66.4652
  0
LINE
  5
D8
100
AcDbEntity
  8
BLACK
  6
CONTINUOUS
 62
  256
370
   -1
100
AcDbLine
 10
56.1452
 20
-66.4652
 11
56.0772
 21
-66.4312
  0
LINE
  5
D9
100
AcDbEntity
  8
BLACK
  6
CONTINUOUS
 62
  256
370
   -1
100
AcDbLine
 10
56.0772
 20
-66.4312
 11
55.8752
 21
-66.4312
  0
LINE
  5
DA
100
AcDbEntity
  8
BLACK
  6
CONTINUOUS
 62
  256
370
   -1
100
AcDbLine
 10
55.8752
 20
-66.4312
 11
55.8072
 21
-66.4652
  0
LINE
  5
DB
100
AcDbEntity
  8
BLACK
  6
CONTINUOUS
 62
  256
370
   -1
100
AcDbLine
 10
55.8072
 20
-66.4652
 11
55.7772
 21
-66.4952
  0
LINE
  5
DC
100
AcDbEntity
  8
BLACK
  6
CONTINUOUS
 62
  256
370
   -1
100
AcDbLine
 10
55.7772
 20
-66.4952
 11
55.7432
 21
-66.56319999999999
  0
LINE
  5
DD
100
AcDbEntity
  8
BLACK
  6
CONTINUOUS
 62
  256
370
   -1
100
AcDbLine
 10
55.7432
 20
-66.56319999999999
 11
55.7432
 21
-66.628
  0
LINE
  5
DE
100
AcDbEntity
  8
BLACK
  6
CONTINUOUS
 62
  256
370
   -1
100
AcDbLine
 10
55.7432
 20
-66.628
 11
55.7811
 21
-66.7419
  0
LINE
  5
DF
100
AcDbEntity
  8
BLACK
  6
CONTINUOUS
 62
  256
370
   -1
100
AcDbLine
 10
55.7811
 20
-66.7419
 11
56.3398
 21
-67.3006
  0
LINE
  5
E0
100
AcDbEntity
  8
BLACK
  6
CONTINUOUS
 62
  256
370
   -1
100
AcDbLine
 10
56.3398
 20
-67.3006
 11
56.3494
 21
-67.3143
  0
LINE
  5
E1
100
AcDbEntity
  8
BLACK
  6
CONTINUOUS
 62
  256
370
   -1
100
AcDbLine
 10
56.3494
 20
-67.3143
 11
56.352
 21
-67.3164
  0
LINE
  5
E2
100
AcDbEntity
  8
BLACK
  6
CONTINUOUS
 62
  256
370
   -1
100
AcDbLine
 10
56.352
 20
-67.3164
 11
56.3523
 21
-67.3184
  0
LINE
  5
E3
100
AcDbEntity
  8
BLACK
  6
CONTINUOUS
 62
  256
370
   -1
100
AcDbLine
 10
56.3523
 20
-67.3184
 11
56.355
 21
-67.3223
  0
LINE
  5
E4
100
AcDbEntity
  8
BLACK
  6
CONTINUOUS
 62
  256
370
   -1
100
AcDbLine
 10
56.355
 20
-67.3223
 11
56.3571
 21
-67.34529999999999
  0
LINE
  5
E5
100
AcDbEntity
  8
BLACK
  6
CONTINUOUS
 62
  256
370
   -1
100
AcDbLine
 10
56.3571
 20
-67.34529999999999
 11
56.3611
 21
-67.36790000000001
  0
LINE
  5
E6
100
AcDbEntity
  8
BLACK
  6
CONTINUOUS
 62
  256
370
   -1
100
AcDbLine
 10
56.3611
 20
-67.36790000000001
 11
56.3593
 21
-67.371
  0
LINE
  5
E7
100
AcDbEntity
  8
BLACK
  6
CONTINUOUS
 62
  256
370
   -1
100
AcDbLine
 10
56.3593
 20
-67.371
 11
56.3596
 21
-67.3745
  0
LINE
  5
E8
100
AcDbEntity
  8
BLACK
  6
CONTINUOUS
 62
  256
370
   -1
100
AcDbLine
 10
56.3596
 20
-67.3745
 11
56.3464
 21
-67.3933
  0
LINE
  5
E9
100
AcDbEntity
  8
BLACK
  6
CONTINUOUS
 62
  256
370
   -1
100
AcDbLine
 10
56.3464
 20
-67.3933
 11
56.3349
 21
-67.41330000000001
  0
LINE
  5
EA
100
AcDbEntity
  8
BLACK
  6
CONTINUOUS
 62
  256
370
   -1
100
AcDbLine
 10
56.3349
 20
-67.41330000000001
 11
56.3316
 21
-67.4145
  0
LINE
  5
EB
100
AcDbEntity
  8
BLACK
  6
CONTINUOUS
 62
  256
370
   -1
100
AcDbLine
 10
56.3316
 20
-67.4145
 11
56.3296
 21
-67.4173
  0
LINE
  5
EC
100
AcDbEntity
  8
BLACK
  6
CONTINUOUS
 62
  256
370
   -1
100
AcDbLine
 10
56.3296
 20
-67.4173
 11
56.3074
 21
-67.4233
  0
LINE
  5
ED
100
AcDbEntity
  8
BLACK
  6
CONTINUOUS
 62
  256
370
   -1
100
AcDbLine
 10
56.3074
 20
-67.4233
 11
56.2857
 21
-67.4312
  0
LINE
  5
EE
100
AcDbEntity
  8
BLACK
  6
CONTINUOUS
 62
  256
370
   -1
100
AcDbLine
 10
56.2857
 20
-67.4312
 11
55.6667
 21
-67.4312
  0
LINE
  5
EF
100
AcDbEntity
  8
BLACK
  6
CONTINUOUS
 62
  256
370
   -1
100
AcDbLine
 10
55.6667
 20
-67.4312
 11
55.6405
 21
-67.4265
  0
LINE
  5
F0
100
AcDbEntity
  8
BLACK
  6
CONTINUOUS
 62
  256
370
   -1
100
AcDbLine
 10
55.6405
 20
-67.4265
 11
55.6004
 21
-67.3929
  0
LINE
  5
F1
100
AcDbEntity
  8
BLACK
  6
CONTINUOUS
 62
  256
370
   -1
100
AcDbLine
 10
55.6004
 20
-67.3929
 11
55.5913
 21
-67.34139999999999
  0
LINE
  5
F2
100
AcDbEntity
  8
BLACK
  6
CONTINUOUS
 62
  256
370
   -1
100
AcDbLine
 10
55.5913
 20
-67.34139999999999
 11
55.6175
 21
-67.2961
  0
LINE
  5
F3
100
AcDbEntity
  8
BLACK
  6
CONTINUOUS
 62
  256
370
   -1
100
AcDbLine
 10
55.6175
 20
-67.2961
 11
55.6667
 21
-67.2782
  0
LINE
  5
F4
100
AcDbEntity
  8
BLACK
  6
CONTINUOUS
 62
  256
370
   -1
100
AcDbLine
 10
55.6667
 20
-67.2782
 11
56.101
 21
-67.2782
  0
LINE
  5
F5
100
AcDbEntity
  8
BLACK
  6
CONTINUOUS
 62
  256
370
   -1
100
AcDbLine
 10
56.101
 20
-67.2782
 11
55.6602
 21
-66.8373
  0
LINE
  5
F6
100
AcDbEntity
  8
BLACK
  6
CONTINUOUS
 62
  256
370
   -1
100
AcDbLine
 10
55.6602
 20
-66.8373
 11
55.645
 21
-66.8156
  0
LINE
  5
F7
100
AcDbEntity
  8
BLACK
  6
CONTINUOUS
 62
  256
370
   -1
100
AcDbLine
 10
55.645
 20
-66.8156
 11
55.6446
 21
-66.81100000000001
  0
LINE
  5
F8
100
AcDbEntity
  8
BLACK
  6
CONTINUOUS
 62
  256
370
   -1
100
AcDbLine
 10
55.6446
 20
-66.81100000000001
 11
55.6417
 21
-66.8074
  0
LINE
  5
F9
100
AcDbEntity
  8
BLACK
  6
CONTINUOUS
 62
  256
370
   -1
100
AcDbLine
 10
55.6417
 20
-66.8074
 11
55.5941
 21
-66.66459999999999
  0
LINE
  5
FA
100
AcDbEntity
  8
BLACK
  6
CONTINUOUS
 62
  256
370
   -1
100
AcDbLine
 10
55.5941
 20
-66.66459999999999
 11
55.5907
 21
-66.64190000000001
  0
LINE
  5
FB
100
AcDbEntity
  8
BLACK
  6
CONTINUOUS
 62
  256
370
   -1
100
AcDbLine
 10
55.5907
 20
-66.64190000000001
 11
55.5902
 21
-66.6404
  0
LINE
  5
FC
100
AcDbEntity
  8
BLACK
  6
CONTINUOUS
 62
  256
370
   -1
100
AcDbLine
 10
55.5902
 20
-66.6404
 11
55.5902
 21
-66.54510000000001
  0
LINE
  5
FD
100
AcDbEntity
  8
BLACK
  6
CONTINUOUS
 62
  256
370
   -1
100
AcDbLine
 10
55.5902
 20
-66.54510000000001
 11
55.5948
 21
-66.51900000000001
  0
LINE
  5
FE
100
AcDbEntity
  8
BLACK
  6
CONTINUOUS
 62
  256
370
   -1
100
AcDbLine
 10
55.5948
 20
-66.51900000000001
 11
55.5977
 21
-66.5155
  0
LINE
  5
FF
100
AcDbEntity
  8
BLACK
  6
CONTINUOUS
 62
  256
370
   -1
100
AcDbLine
 10
55.5977
 20
-66.5155
 11
55.5982
 21
-66.51090000000001
  0
LINE
  5
100
100
AcDbEntity
  8
BLACK
  6
CONTINUOUS
 62
  256
370
   -1
100
AcDbLine
 10
55.5982
 20
-66.51090000000001
 11
55.6459
 21
-66.4157
  0
LINE
  5
101
100
AcDbEntity
  8
BLACK
  6
CONTINUOUS
 62
  256
370
   -1
100
AcDbLine
 10
55.6459
 20
-66.4157
 11
55.6595
 21
-66.3973
  0
LINE
  5
102
100
AcDbEntity
  8
BLACK
  6
CONTINUOUS
 62
  256
370
   -1
100
AcDbLine
 10
55.6595
 20
-66.3973
 11
55.6602
 21
-66.39579999999999
  0
LINE
  5
103
100
AcDbEntity
  8
BLACK
  6
CONTINUOUS
 62
  256
370
   -1
100
AcDbLine
 10
55.6602
 20
-66.39579999999999
 11
55.7078
 21
-66.34820000000001
  0
LINE
  5
104
100
AcDbEntity
  8
BLACK
  6
CONTINUOUS
 62
  256
370
   -1
100
AcDbLine
 10
55.7078
 20
-66.34820000000001
 11
55.7265
 21
-66.3351
  0
LINE
  5
105
100
AcDbEntity
  8
BLACK
  6
CONTINUOUS
 62
  256
370
   -1
100
AcDbLine
 10
55.7265
 20
-66.3351
 11
55.7277
 21
-66.3339
  0
LINE
  5
106
100
AcDbEntity
  8
BLACK
  6
CONTINUOUS
 62
  256
370
   -1
100
AcDbLine
 10
55.7277
 20
-66.3339
 11
55.8229
 21
-66.28619999999999
  0
LINE
  5
107
100
AcDbEntity
  8
BLACK
  6
CONTINUOUS
 62
  256
370
   -1
100
AcDbLine
 10
55.8229
 20
-66.28619999999999
 11
55.8484
 21
-66.2787
  0
LINE
  5
108
100
AcDbEntity
  8
BLACK
  6
CONTINUOUS
 62
  256
370
   -1
100
AcDbLine
 10
55.8484
 20
-66.2787
 11
55.8528
 21
-66.27970000000001
  0
LINE
  5
109
100
AcDbEntity
  8
BLACK
  6
CONTINUOUS
 62
  256
370
   -1
100
AcDbLine
 10
55.8528
 20
-66.27970000000001
 11
55.8571
 21
-66.2782
  0
LINE
  5
10A
100
AcDbEntity
  8
BLACK
  6
CONTINUOUS
 62
  256
370
   -1
100
AcDbLine
 10
55.8571
 20
-66.2782
 11
56.0952
 21
-66.2782
  0
LINE
  5
10B
100
AcDbEntity
  8
BLACK
  6
CONTINUOUS
 62
  256
370
   -1
100
AcDbLine
 10
56.0952
 20
-66.2782
 11
56.1214
 21
-66.28279999999999
  0
LINE
  5
10C
100
AcDbEntity
  8
BLACK
  6
CONTINUOUS
 62
  256
370
   -1
100
AcDbLine
 10
56.9273
 20
-66.2821
 11
56.929
 21
-66.2821
  0
LINE
  5
10D
100
AcDbEntity
  8
BLACK
  6
CONTINUOUS
 62
  256
370
   -1
100
AcDbLine
 10
56.929
 20
-66.2821
 11
57.0718
 21
-66.3297
  0
LINE
  5
10E
100
AcDbEntity
  8
BLACK
  6
CONTINUOUS
 62
  256
370
   -1
100
AcDbLine
 10
57.0718
 20
-66.3297
 11
57.0952
 21
-66.3424
  0
LINE
  5
10F
100
AcDbEntity
  8
BLACK
  6
CONTINUOUS
 62
  256
370
   -1
100
AcDbLine
 10
57.0952
 20
-66.3424
 11
57.0976
 21
-66.3463
  0
LINE
  5
110
100
AcDbEntity
  8
BLACK
  6
CONTINUOUS
 62
  256
370
   -1
100
AcDbLine
 10
57.0976
 20
-66.3463
 11
57.1017
 21
-66.34820000000001
  0
LINE
  5
111
100
AcDbEntity
  8
BLACK
  6
CONTINUOUS
 62
  256
370
   -1
100
AcDbLine
 10
57.1017
 20
-66.34820000000001
 11
57.1969
 21
-66.4434
  0
LINE
  5
112
100
AcDbEntity
  8
BLACK
  6
CONTINUOUS
 62
  256
370
   -1
100
AcDbLine
 10
57.1969
 20
-66.4434
 11
57.2101
 21
-66.4622
  0
LINE
  5
113
100
AcDbEntity
  8
BLACK
  6
CONTINUOUS
 62
  256
370
   -1
100
AcDbLine
 10
57.2101
 20
-66.4622
 11
57.2113
 21
-66.4633
  0
LINE
  5
114
100
AcDbEntity
  8
BLACK
  6
CONTINUOUS
 62
  256
370
   -1
100
AcDbLine
 10
57.2113
 20
-66.4633
 11
57.2589
 21
-66.5585
  0
LINE
  5
115
100
AcDbEntity
  8
BLACK
  6
CONTINUOUS
 62
  256
370
   -1
100
AcDbLine
 10
57.2589
 20
-66.5585
 11
57.2627
 21
-66.5712
  0
LINE
  5
116
100
AcDbEntity
  8
BLACK
  6
CONTINUOUS
 62
  256
370
   -1
100
AcDbLine
 10
57.2627
 20
-66.5712
 11
57.2647
 21
-66.5742
  0
LINE
  5
117
100
AcDbEntity
  8
BLACK
  6
CONTINUOUS
 62
  256
370
   -1
100
AcDbLine
 10
57.2647
 20
-66.5742
 11
57.3123
 21
-66.7647
  0
LINE
  5
118
100
AcDbEntity
  8
BLACK
  6
CONTINUOUS
 62
  256
370
   -1
100
AcDbLine
 10
57.3123
 20
-66.7647
 11
57.3134
 21
-66.7799
  0
LINE
  5
119
100
AcDbEntity
  8
BLACK
  6
CONTINUOUS
 62
  256
370
   -1
100
AcDbLine
 10
57.3134
 20
-66.7799
 11
57.3146
 21
-66.78319999999999
  0
LINE
  5
11A
100
AcDbEntity
  8
BLACK
  6
CONTINUOUS
 62
  256
370
   -1
100
AcDbLine
 10
57.3146
 20
-66.78319999999999
 11
57.3146
 21
-66.92610000000001
  0
LINE
  5
11B
100
AcDbEntity
  8
BLACK
  6
CONTINUOUS
 62
  256
370
   -1
100
AcDbLine
 10
57.3146
 20
-66.92610000000001
 11
57.3119
 21
-66.94110000000001
  0
LINE
  5
11C
100
AcDbEntity
  8
BLACK
  6
CONTINUOUS
 62
  256
370
   -1
100
AcDbLine
 10
57.3119
 20
-66.94110000000001
 11
57.3123
 21
-66.94459999999999
  0
LINE
  5
11D
100
AcDbEntity
  8
BLACK
  6
CONTINUOUS
 62
  256
370
   -1
100
AcDbLine
 10
57.3123
 20
-66.94459999999999
 11
57.2647
 21
-67.13509999999999
  0
LINE
  5
11E
100
AcDbEntity
  8
BLACK
  6
CONTINUOUS
 62
  256
370
   -1
100
AcDbLine
 10
57.2647
 20
-67.13509999999999
 11
57.2593
 21
-67.1472
  0
LINE
  5
11F
100
AcDbEntity
  8
BLACK
  6
CONTINUOUS
 62
  256
370
   -1
100
AcDbLine
 10
57.2593
 20
-67.1472
 11
57.2589
 21
-67.1508
  0
LINE
  5
120
100
AcDbEntity
  8
BLACK
  6
CONTINUOUS
 62
  256
370
   -1
100
AcDbLine
 10
57.2589
 20
-67.1508
 11
57.2113
 21
-67.246
  0
LINE
  5
121
100
AcDbEntity
  8
BLACK
  6
CONTINUOUS
 62
  256
370
   -1
100
AcDbLine
 10
57.2113
 20
-67.246
 11
57.1977
 21
-67.26439999999999
  0
LINE
  5
122
100
AcDbEntity
  8
BLACK
  6
CONTINUOUS
 62
  256
370
   -1
100
AcDbLine
 10
57.1977
 20
-67.26439999999999
 11
57.1969
 21
-67.2659
  0
LINE
  5
123
100
AcDbEntity
  8
BLACK
  6
CONTINUOUS
 62
  256
370
   -1
100
AcDbLine
 10
57.1969
 20
-67.2659
 11
57.1017
 21
-67.36109999999999
  0
LINE
  5
124
100
AcDbEntity
  8
BLACK
  6
CONTINUOUS
 62
  256
370
   -1
100
AcDbLine
 10
57.1017
 20
-67.36109999999999
 11
57.0799
 21
-67.3764
  0
LINE
  5
125
100
AcDbEntity
  8
BLACK
  6
CONTINUOUS
 62
  256
370
   -1
100
AcDbLine
 10
57.0799
 20
-67.3764
 11
57.0754
 21
-67.3768
  0
LINE
  5
126
100
AcDbEntity
  8
BLACK
  6
CONTINUOUS
 62
  256
370
   -1
100
AcDbLine
 10
57.0754
 20
-67.3768
 11
57.0718
 21
-67.3796
  0
LINE
  5
127
100
AcDbEntity
  8
BLACK
  6
CONTINUOUS
 62
  256
370
   -1
100
AcDbLine
 10
57.0718
 20
-67.3796
 11
56.929
 21
-67.4272
  0
LINE
  5
128
100
AcDbEntity
  8
BLACK
  6
CONTINUOUS
 62
  256
370
   -1
100
AcDbLine
 10
56.929
 20
-67.4272
 11
56.9063
 21
-67.4306
  0
LINE
  5
129
100
AcDbEntity
  8
BLACK
  6
CONTINUOUS
 62
  256
370
   -1
100
AcDbLine
 10
56.9063
 20
-67.4306
 11
56.9048
 21
-67.4312
  0
LINE
  5
12A
100
AcDbEntity
  8
BLACK
  6
CONTINUOUS
 62
  256
370
   -1
100
AcDbLine
 10
56.9048
 20
-67.4312
 11
56.8095
 21
-67.4312
  0
LINE
  5
12B
100
AcDbEntity
  8
BLACK
  6
CONTINUOUS
 62
  256
370
   -1
100
AcDbLine
 10
56.8095
 20
-67.4312
 11
56.787
 21
-67.4272
  0
LINE
  5
12C
100
AcDbEntity
  8
BLACK
  6
CONTINUOUS
 62
  256
370
   -1
100
AcDbLine
 10
56.787
 20
-67.4272
 11
56.7853
 21
-67.4272
  0
LINE
  5
12D
100
AcDbEntity
  8
BLACK
  6
CONTINUOUS
 62
  256
370
   -1
100
AcDbLine
 10
56.7853
 20
-67.4272
 11
56.6425
 21
-67.3796
  0
LINE
  5
12E
100
AcDbEntity
  8
BLACK
  6
CONTINUOUS
 62
  256
370
   -1
100
AcDbLine
 10
56.6425
 20
-67.3796
 11
56.6191
 21
-67.367
  0
LINE
  5
12F
100
AcDbEntity
  8
BLACK
  6
CONTINUOUS
 62
  256
370
   -1
100
AcDbLine
 10
56.6191
 20
-67.367
 11
56.6167
 21
-67.3631
  0
LINE
  5
130
100
AcDbEntity
  8
BLACK
  6
CONTINUOUS
 62
  256
370
   -1
100
AcDbLine
 10
56.6167
 20
-67.3631
 11
56.6126
 21
-67.36109999999999
  0
LINE
  5
131
100
AcDbEntity
  8
BLACK
  6
CONTINUOUS
 62
  256
370
   -1
100
AcDbLine
 10
56.6126
 20
-67.36109999999999
 11
56.565
 21
-67.3135
  0
LINE
  5
132
100
AcDbEntity
  8
BLACK
  6
CONTINUOUS
 62
  256
370
   -1
100
AcDbLine
 10
56.565
 20
-67.3135
 11
56.5622
 21
-67.3096
  0
LINE
  5
133
100
AcDbEntity
  8
BLACK
  6
CONTINUOUS
 62
  256
370
   -1
100
AcDbLine
 10
56.5622
 20
-67.3096
 11
56.5604
 21
-67.3086
  0
LINE
  5
134
100
AcDbEntity
  8
BLACK
  6
CONTINUOUS
 62
  256
370
   -1
100
AcDbLine
 10
56.5604
 20
-67.3086
 11
56.5593
 21
-67.30540000000001
  0
LINE
  5
135
100
AcDbEntity
  8
BLACK
  6
CONTINUOUS
 62
  256
370
   -1
100
AcDbLine
 10
56.5593
 20
-67.30540000000001
 11
56.5497
 21
-67.29179999999999
  0
LINE
  5
136
100
AcDbEntity
  8
BLACK
  6
CONTINUOUS
 62
  256
370
   -1
100
AcDbLine
 10
56.5497
 20
-67.29179999999999
 11
56.5483
 21
-67.27509999999999
  0
LINE
  5
137
100
AcDbEntity
  8
BLACK
  6
CONTINUOUS
 62
  256
370
   -1
100
AcDbLine
 10
56.5483
 20
-67.27509999999999
 11
56.5425
 21
-67.2594
  0
LINE
  5
138
100
AcDbEntity
  8
BLACK
  6
CONTINUOUS
 62
  256
370
   -1
100
AcDbLine
 10
56.5425
 20
-67.2594
 11
56.5425
 21
-66.92610000000001
  0
LINE
  5
139
100
AcDbEntity
  8
BLACK
  6
CONTINUOUS
 62
  256
370
   -1
100
AcDbLine
 10
56.5425
 20
-66.92610000000001
 11
56.5443
 21
-66.9162
  0
LINE
  5
13A
100
AcDbEntity
  8
BLACK
  6
CONTINUOUS
 62
  256
370
   -1
100
AcDbLine
 10
56.5443
 20
-66.9162
 11
56.5437
 21
-66.9128
  0
LINE
  5
13B
100
AcDbEntity
  8
BLACK
  6
CONTINUOUS
 62
  256
370
   -1
100
AcDbLine
 10
56.5437
 20
-66.9128
 11
56.5454
 21
-66.90989999999999
  0
LINE
  5
13C
100
AcDbEntity
  8
BLACK
  6
CONTINUOUS
 62
  256
370
   -1
100
AcDbLine
 10
56.5454
 20
-66.90989999999999
 11
56.5472
 21
-66.8999
  0
LINE
  5
13D
100
AcDbEntity
  8
BLACK
  6
CONTINUOUS
 62
  256
370
   -1
100
AcDbLine
 10
56.5472
 20
-66.8999
 11
56.5599
 21
-66.8847
  0
LINE
  5
13E
100
AcDbEntity
  8
BLACK
  6
CONTINUOUS
 62
  256
370
   -1
100
AcDbLine
 10
56.5599
 20
-66.8847
 11
56.5699
 21
-66.86750000000001
  0
LINE
  5
13F
100
AcDbEntity
  8
BLACK
  6
CONTINUOUS
 62
  256
370
   -1
100
AcDbLine
 10
56.5699
 20
-66.86750000000001
 11
56.5764
 21
-66.8651
  0
LINE
  5
140
100
AcDbEntity
  8
BLACK
  6
CONTINUOUS
 62
  256
370
   -1
100
AcDbLine
 10
56.5764
 20
-66.8651
 11
56.5808
 21
-66.85980000000001
  0
LINE
  5
141
100
AcDbEntity
  8
BLACK
  6
CONTINUOUS
 62
  256
370
   -1
100
AcDbLine
 10
56.5808
 20
-66.85980000000001
 11
56.6004
 21
-66.85639999999999
  0
LINE
  5
142
100
AcDbEntity
  8
BLACK
  6
CONTINUOUS
 62
  256
370
   -1
100
AcDbLine
 10
56.6004
 20
-66.85639999999999
 11
56.619
 21
-66.8496
  0
LINE
  5
143
100
AcDbEntity
  8
BLACK
  6
CONTINUOUS
 62
  256
370
   -1
100
AcDbLine
 10
56.619
 20
-66.8496
 11
56.8095
 21
-66.8496
  0
LINE
  5
144
100
AcDbEntity
  8
BLACK
  6
CONTINUOUS
 62
  256
370
   -1
100
AcDbLine
 10
56.8095
 20
-66.8496
 11
56.8357
 21
-66.85420000000001
  0
LINE
  5
145
100
AcDbEntity
  8
BLACK
  6
CONTINUOUS
 62
  256
370
   -1
100
AcDbLine
 10
56.8357
 20
-66.85420000000001
 11
56.8758
 21
-66.8878
  0
LINE
  5
146
100
AcDbEntity
  8
BLACK
  6
CONTINUOUS
 62
  256
370
   -1
100
AcDbLine
 10
56.8758
 20
-66.8878
 11
56.8849
 21
-66.93940000000001
  0
LINE
  5
147
100
AcDbEntity
  8
BLACK
  6
CONTINUOUS
 62
  256
370
   -1
100
AcDbLine
 10
56.8849
 20
-66.93940000000001
 11
56.8587
 21
-66.9847
  0
LINE
  5
148
100
AcDbEntity
  8
BLACK
  6
CONTINUOUS
 62
  256
370
   -1
100
AcDbLine
 10
56.8587
 20
-66.9847
 11
56.8095
 21
-67.0026
  0
LINE
  5
149
100
AcDbEntity
  8
BLACK
  6
CONTINUOUS
 62
  256
370
   -1
100
AcDbLine
 10
56.8095
 20
-67.0026
 11
56.6955
 21
-67.0026
  0
LINE
  5
14A
100
AcDbEntity
  8
BLACK
  6
CONTINUOUS
 62
  256
370
   -1
100
AcDbLine
 10
56.6955
 20
-67.0026
 11
56.6955
 21
-67.2277
  0
LINE
  5
14B
100
AcDbEntity
  8
BLACK
  6
CONTINUOUS
 62
  256
370
   -1
100
AcDbLine
 10
56.6955
 20
-67.2277
 11
56.708
 21
-67.2402
  0
LINE
  5
14C
100
AcDbEntity
  8
BLACK
  6
CONTINUOUS
 62
  256
370
   -1
100
AcDbLine
 10
56.708
 20
-67.2402
 11
56.8219
 21
-67.2782
  0
LINE
  5
14D
100
AcDbEntity
  8
BLACK
  6
CONTINUOUS
 62
  256
370
   -1
100
AcDbLine
 10
56.8219
 20
-67.2782
 11
56.8923
 21
-67.2782
  0
LINE
  5
14E
100
AcDbEntity
  8
BLACK
  6
CONTINUOUS
 62
  256
370
   -1
100
AcDbLine
 10
56.8923
 20
-67.2782
 11
57.0063
 21
-67.2402
  0
LINE
  5
14F
100
AcDbEntity
  8
BLACK
  6
CONTINUOUS
 62
  256
370
   -1
100
AcDbLine
 10
57.0063
 20
-67.2402
 11
57.08
 21
-67.1665
  0
LINE
  5
150
100
AcDbEntity
  8
BLACK
  6
CONTINUOUS
 62
  256
370
   -1
100
AcDbLine
 10
57.08
 20
-67.1665
 11
57.1183
 21
-67.0899
  0
LINE
  5
151
100
AcDbEntity
  8
BLACK
  6
CONTINUOUS
 62
  256
370
   -1
100
AcDbLine
 10
57.1183
 20
-67.0899
 11
57.1616
 21
-66.91670000000001
  0
LINE
  5
152
100
AcDbEntity
  8
BLACK
  6
CONTINUOUS
 62
  256
370
   -1
100
AcDbLine
 10
57.1616
 20
-66.91670000000001
 11
57.1616
 21
-66.7927
  0
LINE
  5
153
100
AcDbEntity
  8
BLACK
  6
CONTINUOUS
 62
  256
370
   -1
100
AcDbLine
 10
57.1616
 20
-66.7927
 11
57.1183
 21
-66.6195
  0
LINE
  5
154
100
AcDbEntity
  8
BLACK
  6
CONTINUOUS
 62
  256
370
   -1
100
AcDbLine
 10
57.1183
 20
-66.6195
 11
57.08
 21
-66.5428
  0
LINE
  5
155
100
AcDbEntity
  8
BLACK
  6
CONTINUOUS
 62
  256
370
   -1
100
AcDbLine
 10
57.08
 20
-66.5428
 11
57.0063
 21
-66.4691
  0
LINE
  5
156
100
AcDbEntity
  8
BLACK
  6
CONTINUOUS
 62
  256
370
   -1
100
AcDbLine
 10
57.0063
 20
-66.4691
 11
56.8923
 21
-66.4312
  0
LINE
  5
157
100
AcDbEntity
  8
BLACK
  6
CONTINUOUS
 62
  256
370
   -1
100
AcDbLine
 10
56.8923
 20
-66.4312
 11
56.78
 21
-66.4312
  0
LINE
  5
158
100
AcDbEntity
  8
BLACK
  6
CONTINUOUS
 62
  256
370
   -1
100
AcDbLine
 10
56.78
 20
-66.4312
 11
56.7009
 21
-66.47069999999999
  0
LINE
  5
159
100
AcDbEntity
  8
BLACK
  6
CONTINUOUS
 62
  256
370
   -1
100
AcDbLine
 10
56.7009
 20
-66.47069999999999
 11
56.6754
 21
-66.4783
  0
LINE
  5
15A
100
AcDbEntity
  8
BLACK
  6
CONTINUOUS
 62
  256
370
   -1
100
AcDbLine
 10
56.6754
 20
-66.4783
 11
56.6245
 21
-66.4661
  0
LINE
  5
15B
100
AcDbEntity
  8
BLACK
  6
CONTINUOUS
 62
  256
370
   -1
100
AcDbLine
 10
56.6245
 20
-66.4661
 11
56.5933
 21
-66.4241
  0
LINE
  5
15C
100
AcDbEntity
  8
BLACK
  6
CONTINUOUS
 62
  256
370
   -1
100
AcDbLine
 10
56.5933
 20
-66.4241
 11
56.5965
 21
-66.3719
  0
LINE
  5
15D
100
AcDbEntity
  8
BLACK
  6
CONTINUOUS
 62
  256
370
   -1
100
AcDbLine
 10
56.5965
 20
-66.3719
 11
56.6325
 21
-66.3339
  0
LINE
  5
15E
100
AcDbEntity
  8
BLACK
  6
CONTINUOUS
 62
  256
370
   -1
100
AcDbLine
 10
56.6325
 20
-66.3339
 11
56.7277
 21
-66.28619999999999
  0
LINE
  5
15F
100
AcDbEntity
  8
BLACK
  6
CONTINUOUS
 62
  256
370
   -1
100
AcDbLine
 10
56.7277
 20
-66.28619999999999
 11
56.7532
 21
-66.2787
  0
LINE
  5
160
100
AcDbEntity
  8
BLACK
  6
CONTINUOUS
 62
  256
370
   -1
100
AcDbLine
 10
56.7532
 20
-66.2787
 11
56.7576
 21
-66.27970000000001
  0
LINE
  5
161
100
AcDbEntity
  8
BLACK
  6
CONTINUOUS
 62
  256
370
   -1
100
AcDbLine
 10
56.7576
 20
-66.27970000000001
 11
56.7619
 21
-66.2782
  0
LINE
  5
162
100
AcDbEntity
  8
BLACK
  6
CONTINUOUS
 62
  256
370
   -1
100
AcDbLine
 10
56.7619
 20
-66.2782
 11
56.9048
 21
-66.2782
  0
LINE
  5
163
100
AcDbEntity
  8
BLACK
  6
CONTINUOUS
 62
  256
370
   -1
100
AcDbLine
 10
56.9048
 20
-66.2782
 11
56.9273
 21
-66.2821
  0
LINE
  5
164
100
AcDbEntity
  8
BLACK
  6
CONTINUOUS
 62
  256
370
   -1
100
AcDbLine
 10
76.2166
 20
-66.28279999999999
 11
76.2201
 21
-66.28570000000001
  0
LINE
  5
165
100
AcDbEntity
  8
BLACK
  6
CONTINUOUS
 62
  256
370
   -1
100
AcDbLine
 10
76.2201
 20
-66.28570000000001
 11
76.2247
 21
-66.28619999999999
  0
LINE
  5
166
100
AcDbEntity
  8
BLACK
  6
CONTINUOUS
 62
  256
370
   -1
100
AcDbLine
 10
76.2247
 20
-66.28619999999999
 11
76.3199
 21
-66.3339
  0
LINE
  5
167
100
AcDbEntity
  8
BLACK
  6
CONTINUOUS
 62
  256
370
   -1
100
AcDbLine
 10
76.3199
 20
-66.3339
 11
76.3383
 21
-66.3475
  0
LINE
  5
168
100
AcDbEntity
  8
BLACK
  6
CONTINUOUS
 62
  256
370
   -1
100
AcDbLine
 10
76.3383
 20
-66.3475
 11
76.3398
 21
-66.34820000000001
  0
LINE
  5
169
100
AcDbEntity
  8
BLACK
  6
CONTINUOUS
 62
  256
370
   -1
100
AcDbLine
 10
76.3398
 20
-66.34820000000001
 11
76.3874
 21
-66.39579999999999
  0
LINE
  5
16A
100
AcDbEntity
  8
BLACK
  6
CONTINUOUS
 62
  256
370
   -1
100
AcDbLine
 10
76.3874
 20
-66.39579999999999
 11
76.4027
 21
-66.41759999999999
  0
LINE
  5
16B
100
AcDbEntity
  8
BLACK
  6
CONTINUOUS
 62
  256
370
   -1
100
AcDbLine
 10
76.4027
 20
-66.41759999999999
 11
76.4072
 21
-66.4697
  0
LINE
  5
16C
100
AcDbEntity
  8
BLACK
  6
CONTINUOUS
 62
  256
370
   -1
100
AcDbLine
 10
76.4072
 20
-66.4697
 11
76.3772
 21
-66.51260000000001
  0
LINE
  5
16D
100
AcDbEntity
  8
BLACK
  6
CONTINUOUS
 62
  256
370
   -1
100
AcDbLine
 10
76.3772
 20
-66.51260000000001
 11
76.3267
 21
-66.5261
  0
LINE
  5
16E
100
AcDbEntity
  8
BLACK
  6
CONTINUOUS
 62
  256
370
   -1
100
AcDbLine
 10
76.3267
 20
-66.5261
 11
76.2792
 21
-66.504
  0
LINE
  5
16F
100
AcDbEntity
  8
BLACK
  6
CONTINUOUS
 62
  256
370
   -1
100
AcDbLine
 10
76.2792
 20
-66.504
 11
76.24039999999999
 21
-66.4652
  0
LINE
  5
170
100
AcDbEntity
  8
BLACK
  6
CONTINUOUS
 62
  256
370
   -1
100
AcDbLine
 10
76.24039999999999
 20
-66.4652
 11
76.1724
 21
-66.4312
  0
LINE
  5
171
100
AcDbEntity
  8
BLACK
  6
CONTINUOUS
 62
  256
370
   -1
100
AcDbLine
 10
76.1724
 20
-66.4312
 11
75.9704
 21
-66.4312
  0
LINE
  5
172
100
AcDbEntity
  8
BLACK
  6
CONTINUOUS
 62
  256
370
   -1
100
AcDbLine
 10
75.9704
 20
-66.4312
 11
75.9025
 21
-66.4652
  0
LINE
  5
173
100
AcDbEntity
  8
BLACK
  6
CONTINUOUS
 62
  256
370
   -1
100
AcDbLine
 10
75.9025
 20
-66.4652
 11
75.8724
 21
-66.4952
  0
LINE
  5
174
100
AcDbEntity
  8
BLACK
  6
CONTINUOUS
 62
  256
370
   -1
100
AcDbLine
 10
75.8724
 20
-66.4952
 11
75.83839999999999
 21
-66.56319999999999
  0
LINE
  5
175
100
AcDbEntity
  8
BLACK
  6
CONTINUOUS
 62
  256
370
   -1
100
AcDbLine
 10
75.83839999999999
 20
-66.56319999999999
 11
75.83839999999999
 21
-66.628
  0
LINE
  5
176
100
AcDbEntity
  8
BLACK
  6
CONTINUOUS
 62
  256
370
   -1
100
AcDbLine
 10
75.83839999999999
 20
-66.628
 11
75.8764
 21
-66.7419
  0
LINE
  5
177
100
AcDbEntity
  8
BLACK
  6
CONTINUOUS
 62
  256
370
   -1
100
AcDbLine
 10
75.8764
 20
-66.7419
 11
76.435
 21
-67.3006
  0
LINE
  5
178
100
AcDbEntity
  8
BLACK
  6
CONTINUOUS
 62
  256
370
   -1
100
AcDbLine
 10
76.435
 20
-67.3006
 11
76.44459999999999
 21
-67.3143
  0
LINE
  5
179
100
AcDbEntity
  8
BLACK
  6
CONTINUOUS
 62
  256
370
   -1
100
AcDbLine
 10
76.44459999999999
 20
-67.3143
 11
76.4472
 21
-67.3164
  0
LINE
  5
17A
100
AcDbEntity
  8
BLACK
  6
CONTINUOUS
 62
  256
370
   -1
100
AcDbLine
 10
76.4472
 20
-67.3164
 11
76.44759999999999
 21
-67.3184
  0
LINE
  5
17B
100
AcDbEntity
  8
BLACK
  6
CONTINUOUS
 62
  256
370
   -1
100
AcDbLine
 10
76.44759999999999
 20
-67.3184
 11
76.4503
 21
-67.3223
  0
LINE
  5
17C
100
AcDbEntity
  8
BLACK
  6
CONTINUOUS
 62
  256
370
   -1
100
AcDbLine
 10
76.4503
 20
-67.3223
 11
76.45229999999999
 21
-67.34529999999999
  0
LINE
  5
17D
100
AcDbEntity
  8
BLACK
  6
CONTINUOUS
 62
  256
370
   -1
100
AcDbLine
 10
76.45229999999999
 20
-67.34529999999999
 11
76.4563
 21
-67.36790000000001
  0
LINE
  5
17E
100
AcDbEntity
  8
BLACK
  6
CONTINUOUS
 62
  256
370
   -1
100
AcDbLine
 10
76.4563
 20
-67.36790000000001
 11
76.4545
 21
-67.371
  0
LINE
  5
17F
100
AcDbEntity
  8
BLACK
  6
CONTINUOUS
 62
  256
370
   -1
100
AcDbLine
 10
76.4545
 20
-67.371
 11
76.45480000000001
 21
-67.3745
  0
LINE
  5
180
100
AcDbEntity
  8
BLACK
  6
CONTINUOUS
 62
  256
370
   -1
100
AcDbLine
 10
76.45480000000001
 20
-67.3745
 11
76.44159999999999
 21
-67.3933
  0
LINE
  5
181
100
AcDbEntity
  8
BLACK
  6
CONTINUOUS
 62
  256
370
   -1
100
AcDbLine
 10
76.44159999999999
 20
-67.3933
 11
76.4301
 21
-67.41330000000001
  0
LINE
  5
182
100
AcDbEntity
  8
BLACK
  6
CONTINUOUS
 62
  256
370
   -1
100
AcDbLine
 10
76.4301
 20
-67.41330000000001
 11
76.4268
 21
-67.4145
  0
LINE
  5
183
100
AcDbEntity
  8
BLACK
  6
CONTINUOUS
 62
  256
370
   -1
100
AcDbLine
 10
76.4268
 20
-67.4145
 11
76.4248
 21
-67.4173
  0
LINE
  5
184
100
AcDbEntity
  8
BLACK
  6
CONTINUOUS
 62
  256
370
   -1
100
AcDbLine
 10
76.4248
 20
-67.4173
 11
76.40260000000001
 21
-67.4233
  0
LINE
  5
185
100
AcDbEntity
  8
BLACK
  6
CONTINUOUS
 62
  256
370
   -1
100
AcDbLine
 10
76.40260000000001
 20
-67.4233
 11
76.381
 21
-67.4312
  0
LINE
  5
186
100
AcDbEntity
  8
BLACK
  6
CONTINUOUS
 62
  256
370
   -1
100
AcDbLine
 10
76.381
 20
-67.4312
 11
75.7619
 21
-67.4312
  0
LINE
  5
187
100
AcDbEntity
  8
BLACK
  6
CONTINUOUS
 62
  256
370
   -1
100
AcDbLine
 10
75.7619
 20
-67.4312
 11
75.73569999999999
 21
-67.4265
  0
LINE
  5
188
100
AcDbEntity
  8
BLACK
  6
CONTINUOUS
 62
  256
370
   -1
100
AcDbLine
 10
75.73569999999999
 20
-67.4265
 11
75.6957
 21
-67.3929
  0
LINE
  5
189
100
AcDbEntity
  8
BLACK
  6
CONTINUOUS
 62
  256
370
   -1
100
AcDbLine
 10
75.6957
 20
-67.3929
 11
75.6866
 21
-67.34139999999999
  0
LINE
  5
18A
100
AcDbEntity
  8
BLACK
  6
CONTINUOUS
 62
  256
370
   -1
100
AcDbLine
 10
75.6866
 20
-67.34139999999999
 11
75.7127
 21
-67.2961
  0
LINE
  5
18B
100
AcDbEntity
  8
BLACK
  6
CONTINUOUS
 62
  256
370
   -1
100
AcDbLine
 10
75.7127
 20
-67.2961
 11
75.7619
 21
-67.2782
  0
LINE
  5
18C
100
AcDbEntity
  8
BLACK
  6
CONTINUOUS
 62
  256
370
   -1
100
AcDbLine
 10
75.7619
 20
-67.2782
 11
76.19629999999999
 21
-67.2782
  0
LINE
  5
18D
100
AcDbEntity
  8
BLACK
  6
CONTINUOUS
 62
  256
370
   -1
100
AcDbLine
 10
76.19629999999999
 20
-67.2782
 11
75.75539999999999
 21
-66.8373
  0
LINE
  5
18E
100
AcDbEntity
  8
BLACK
  6
CONTINUOUS
 62
  256
370
   -1
100
AcDbLine
 10
75.75539999999999
 20
-66.8373
 11
75.7402
 21
-66.8156
  0
LINE
  5
18F
100
AcDbEntity
  8
BLACK
  6
CONTINUOUS
 62
  256
370
   -1
100
AcDbLine
 10
75.7402
 20
-66.8156
 11
75.7398
 21
-66.81100000000001
  0
LINE
  5
190
100
AcDbEntity
  8
BLACK
  6
CONTINUOUS
 62
  256
370
   -1
100
AcDbLine
 10
75.7398
 20
-66.81100000000001
 11
75.73690000000001
 21
-66.8074
  0
LINE
  5
191
100
AcDbEntity
  8
BLACK
  6
CONTINUOUS
 62
  256
370
   -1
100
AcDbLine
 10
75.73690000000001
 20
-66.8074
 11
75.6893
 21
-66.66459999999999
  0
LINE
  5
192
100
AcDbEntity
  8
BLACK
  6
CONTINUOUS
 62
  256
370
   -1
100
AcDbLine
 10
75.6893
 20
-66.66459999999999
 11
75.68600000000001
 21
-66.64190000000001
  0
LINE
  5
193
100
AcDbEntity
  8
BLACK
  6
CONTINUOUS
 62
  256
370
   -1
100
AcDbLine
 10
75.68600000000001
 20
-66.64190000000001
 11
75.6854
 21
-66.6404
  0
LINE
  5
194
100
AcDbEntity
  8
BLACK
  6
CONTINUOUS
 62
  256
370
   -1
100
AcDbLine
 10
75.6854
 20
-66.6404
 11
75.6854
 21
-66.54510000000001
  0
LINE
  5
195
100
AcDbEntity
  8
BLACK
  6
CONTINUOUS
 62
  256
370
   -1
100
AcDbLine
 10
75.6854
 20
-66.54510000000001
 11
75.69
 21
-66.51900000000001
  0
LINE
  5
196
100
AcDbEntity
  8
BLACK
  6
CONTINUOUS
 62
  256
370
   -1
100
AcDbLine
 10
75.69
 20
-66.51900000000001
 11
75.693
 21
-66.5155
  0
LINE
  5
197
100
AcDbEntity
  8
BLACK
  6
CONTINUOUS
 62
  256
370
   -1
100
AcDbLine
 10
75.693
 20
-66.5155
 11
75.6935
 21
-66.51090000000001
  0
LINE
  5
198
100
AcDbEntity
  8
BLACK
  6
CONTINUOUS
 62
  256
370
   -1
100
AcDbLine
 10
75.6935
 20
-66.51090000000001
 11
75.7411
 21
-66.4157
  0
LINE
  5
199
100
AcDbEntity
  8
BLACK
  6
CONTINUOUS
 62
  256
370
   -1
100
AcDbLine
 10
75.7411
 20
-66.4157
 11
75.7547
 21
-66.3973
  0
LINE
  5
19A
100
AcDbEntity
  8
BLACK
  6
CONTINUOUS
 62
  256
370
   -1
100
AcDbLine
 10
75.7547
 20
-66.3973
 11
75.75539999999999
 21
-66.39579999999999
  0
LINE
  5
19B
100
AcDbEntity
  8
BLACK
  6
CONTINUOUS
 62
  256
370
   -1
100
AcDbLine
 10
75.75539999999999
 20
-66.39579999999999
 11
75.803
 21
-66.34820000000001
  0
LINE
  5
19C
100
AcDbEntity
  8
BLACK
  6
CONTINUOUS
 62
  256
370
   -1
100
AcDbLine
 10
75.803
 20
-66.34820000000001
 11
75.8218
 21
-66.3351
  0
LINE
  5
19D
100
AcDbEntity
  8
BLACK
  6
CONTINUOUS
 62
  256
370
   -1
100
AcDbLine
 10
75.8218
 20
-66.3351
 11
75.8229
 21
-66.3339
  0
LINE
  5
19E
100
AcDbEntity
  8
BLACK
  6
CONTINUOUS
 62
  256
370
   -1
100
AcDbLine
 10
75.8229
 20
-66.3339
 11
75.9182
 21
-66.28619999999999
  0
LINE
  5
19F
100
AcDbEntity
  8
BLACK
  6
CONTINUOUS
 62
  256
370
   -1
100
AcDbLine
 10
75.9182
 20
-66.28619999999999
 11
75.9436
 21
-66.2787
  0
LINE
  5
1A0
100
AcDbEntity
  8
BLACK
  6
CONTINUOUS
 62
  256
370
   -1
100
AcDbLine
 10
75.9436
 20
-66.2787
 11
75.9481
 21
-66.27970000000001
  0
LINE
  5
1A1
100
AcDbEntity
  8
BLACK
  6
CONTINUOUS
 62
  256
370
   -1
100
AcDbLine
 10
75.9481
 20
-66.27970000000001
 11
75.9524
 21
-66.2782
  0
LINE
  5
1A2
100
AcDbEntity
  8
BLACK
  6
CONTINUOUS
 62
  256
370
   -1
100
AcDbLine
 10
75.9524
 20
-66.2782
 11
76.1905
 21
-66.2782
  0
LINE
  5
1A3
100
AcDbEntity
  8
BLACK
  6
CONTINUOUS
 62
  256
370
   -1
100
AcDbLine
 10
76.1905
 20
-66.2782
 11
76.2166
 21
-66.28279999999999
  0
LINE
  5
1A4
100
AcDbEntity
  8
BLACK
  6
CONTINUOUS
 62
  256
370
   -1
100
AcDbLine
 10
77.07380000000001
 20
-66.28279999999999
 11
77.07729999999999
 21
-66.28570000000001
  0
LINE
  5
1A5
100
AcDbEntity
  8
BLACK
  6
CONTINUOUS
 62
  256
370
   -1
100
AcDbLine
 10
77.07729999999999
 20
-66.28570000000001
 11
77.0818
 21
-66.28619999999999
  0
LINE
  5
1A6
100
AcDbEntity
  8
BLACK
  6
CONTINUOUS
 62
  256
370
   -1
100
AcDbLine
 10
77.0818
 20
-66.28619999999999
 11
77.1771
 21
-66.3339
  0
LINE
  5
1A7
100
AcDbEntity
  8
BLACK
  6
CONTINUOUS
 62
  256
370
   -1
100
AcDbLine
 10
77.1771
 20
-66.3339
 11
77.19540000000001
 21
-66.3475
  0
LINE
  5
1A8
100
AcDbEntity
  8
BLACK
  6
CONTINUOUS
 62
  256
370
   -1
100
AcDbLine
 10
77.19540000000001
 20
-66.3475
 11
77.197
 21
-66.34820000000001
  0
LINE
  5
1A9
100
AcDbEntity
  8
BLACK
  6
CONTINUOUS
 62
  256
370
   -1
100
AcDbLine
 10
77.197
 20
-66.34820000000001
 11
77.24460000000001
 21
-66.39579999999999
  0
LINE
  5
1AA
100
AcDbEntity
  8
BLACK
  6
CONTINUOUS
 62
  256
370
   -1
100
AcDbLine
 10
77.24460000000001
 20
-66.39579999999999
 11
77.2577
 21
-66.4145
  0
LINE
  5
1AB
100
AcDbEntity
  8
BLACK
  6
CONTINUOUS
 62
  256
370
   -1
100
AcDbLine
 10
77.2577
 20
-66.4145
 11
77.2589
 21
-66.4157
  0
LINE
  5
1AC
100
AcDbEntity
  8
BLACK
  6
CONTINUOUS
 62
  256
370
   -1
100
AcDbLine
 10
77.2589
 20
-66.4157
 11
77.3065
 21
-66.51090000000001
  0
LINE
  5
1AD
100
AcDbEntity
  8
BLACK
  6
CONTINUOUS
 62
  256
370
   -1
100
AcDbLine
 10
77.3065
 20
-66.51090000000001
 11
77.3103
 21
-66.5236
  0
LINE
  5
1AE
100
AcDbEntity
  8
BLACK
  6
CONTINUOUS
 62
  256
370
   -1
100
AcDbLine
 10
77.3103
 20
-66.5236
 11
77.31229999999999
 21
-66.5266
  0
LINE
  5
1AF
100
AcDbEntity
  8
BLACK
  6
CONTINUOUS
 62
  256
370
   -1
100
AcDbLine
 10
77.31229999999999
 20
-66.5266
 11
77.3599
 21
-66.7171
  0
LINE
  5
1B0
100
AcDbEntity
  8
BLACK
  6
CONTINUOUS
 62
  256
370
   -1
100
AcDbLine
 10
77.3599
 20
-66.7171
 11
77.361
 21
-66.7323
  0
LINE
  5
1B1
100
AcDbEntity
  8
BLACK
  6
CONTINUOUS
 62
  256
370
   -1
100
AcDbLine
 10
77.361
 20
-66.7323
 11
77.3622
 21
-66.73560000000001
  0
LINE
  5
1B2
100
AcDbEntity
  8
BLACK
  6
CONTINUOUS
 62
  256
370
   -1
100
AcDbLine
 10
77.3622
 20
-66.73560000000001
 11
77.3622
 21
-66.97369999999999
  0
LINE
  5
1B3
100
AcDbEntity
  8
BLACK
  6
CONTINUOUS
 62
  256
370
   -1
100
AcDbLine
 10
77.3622
 20
-66.97369999999999
 11
77.3596
 21
-66.98869999999999
  0
LINE
  5
1B4
100
AcDbEntity
  8
BLACK
  6
CONTINUOUS
 62
  256
370
   -1
100
AcDbLine
 10
77.3596
 20
-66.98869999999999
 11
77.3599
 21
-66.9923
  0
LINE
  5
1B5
100
AcDbEntity
  8
BLACK
  6
CONTINUOUS
 62
  256
370
   -1
100
AcDbLine
 10
77.3599
 20
-66.9923
 11
77.31229999999999
 21
-67.1827
  0
LINE
  5
1B6
100
AcDbEntity
  8
BLACK
  6
CONTINUOUS
 62
  256
370
   -1
100
AcDbLine
 10
77.31229999999999
 20
-67.1827
 11
77.3069
 21
-67.1948
  0
LINE
  5
1B7
100
AcDbEntity
  8
BLACK
  6
CONTINUOUS
 62
  256
370
   -1
100
AcDbLine
 10
77.3069
 20
-67.1948
 11
77.3065
 21
-67.19840000000001
  0
LINE
  5
1B8
100
AcDbEntity
  8
BLACK
  6
CONTINUOUS
 62
  256
370
   -1
100
AcDbLine
 10
77.3065
 20
-67.19840000000001
 11
77.2589
 21
-67.2936
  0
LINE
  5
1B9
100
AcDbEntity
  8
BLACK
  6
CONTINUOUS
 62
  256
370
   -1
100
AcDbLine
 10
77.2589
 20
-67.2936
 11
77.2453
 21
-67.312
  0
LINE
  5
1BA
100
AcDbEntity
  8
BLACK
  6
CONTINUOUS
 62
  256
370
   -1
100
AcDbLine
 10
77.2453
 20
-67.312
 11
77.24460000000001
 21
-67.3135
  0
LINE
  5
1BB
100
AcDbEntity
  8
BLACK
  6
CONTINUOUS
 62
  256
370
   -1
100
AcDbLine
 10
77.24460000000001
 20
-67.3135
 11
77.197
 21
-67.36109999999999
  0
LINE
  5
1BC
100
AcDbEntity
  8
BLACK
  6
CONTINUOUS
 62
  256
370
   -1
100
AcDbLine
 10
77.197
 20
-67.36109999999999
 11
77.1782
 21
-67.37430000000001
  0
LINE
  5
1BD
100
AcDbEntity
  8
BLACK
  6
CONTINUOUS
 62
  256
370
   -1
100
AcDbLine
 10
77.1782
 20
-67.37430000000001
 11
77.1771
 21
-67.3755
  0
LINE
  5
1BE
100
AcDbEntity
  8
BLACK
  6
CONTINUOUS
 62
  256
370
   -1
100
AcDbLine
 10
77.1771
 20
-67.3755
 11
77.0818
 21
-67.42310000000001
  0
LINE
  5
1BF
100
AcDbEntity
  8
BLACK
  6
CONTINUOUS
 62
  256
370
   -1
100
AcDbLine
 10
77.0818
 20
-67.42310000000001
 11
77.0564
 21
-67.4307
  0
LINE
  5
1C0
100
AcDbEntity
  8
BLACK
  6
CONTINUOUS
 62
  256
370
   -1
100
AcDbLine
 10
77.0564
 20
-67.4307
 11
77.0519
 21
-67.42959999999999
  0
LINE
  5
1C1
100
AcDbEntity
  8
BLACK
  6
CONTINUOUS
 62
  256
370
   -1
100
AcDbLine
 10
77.0519
 20
-67.42959999999999
 11
77.0476
 21
-67.4312
  0
LINE
  5
1C2
100
AcDbEntity
  8
BLACK
  6
CONTINUOUS
 62
  256
370
   -1
100
AcDbLine
 10
77.0476
 20
-67.4312
 11
76.9524
 21
-67.4312
  0
LINE
  5
1C3
100
AcDbEntity
  8
BLACK
  6
CONTINUOUS
 62
  256
370
   -1
100
AcDbLine
 10
76.9524
 20
-67.4312
 11
76.92619999999999
 21
-67.4265
  0
LINE
  5
1C4
100
AcDbEntity
  8
BLACK
  6
CONTINUOUS
 62
  256
370
   -1
100
AcDbLine
 10
76.92619999999999
 20
-67.4265
 11
76.92270000000001
 21
-67.42359999999999
  0
LINE
  5
1C5
100
AcDbEntity
  8
BLACK
  6
CONTINUOUS
 62
  256
370
   -1
100
AcDbLine
 10
76.92270000000001
 20
-67.42359999999999
 11
76.9182
 21
-67.42310000000001
  0
LINE
  5
1C6
100
AcDbEntity
  8
BLACK
  6
CONTINUOUS
 62
  256
370
   -1
100
AcDbLine
 10
76.9182
 20
-67.42310000000001
 11
76.8229
 21
-67.3755
  0
LINE
  5
1C7
100
AcDbEntity
  8
BLACK
  6
CONTINUOUS
 62
  256
370
   -1
100
AcDbLine
 10
76.8229
 20
-67.3755
 11
76.80459999999999
 21
-67.3618
  0
LINE
  5
1C8
100
AcDbEntity
  8
BLACK
  6
CONTINUOUS
 62
  256
370
   -1
100
AcDbLine
 10
76.80459999999999
 20
-67.3618
 11
76.803
 21
-67.36109999999999
  0
LINE
  5
1C9
100
AcDbEntity
  8
BLACK
  6
CONTINUOUS
 62
  256
370
   -1
100
AcDbLine
 10
76.803
 20
-67.36109999999999
 11
76.75539999999999
 21
-67.3135
  0
LINE
  5
1CA
100
AcDbEntity
  8
BLACK
  6
CONTINUOUS
 62
  256
370
   -1
100
AcDbLine
 10
76.75539999999999
 20
-67.3135
 11
76.7423
 21
-67.2948
  0
LINE
  5
1CB
100
AcDbEntity
  8
BLACK
  6
CONTINUOUS
 62
  256
370
   -1
100
AcDbLine
 10
76.7423
 20
-67.2948
 11
76.7411
 21
-67.2936
  0
LINE
  5
1CC
100
AcDbEntity
  8
BLACK
  6
CONTINUOUS
 62
  256
370
   -1
100
AcDbLine
 10
76.7411
 20
-67.2936
 11
76.6935
 21
-67.19840000000001
  0
LINE
  5
1CD
100
AcDbEntity
  8
BLACK
  6
CONTINUOUS
 62
  256
370
   -1
100
AcDbLine
 10
76.6935
 20
-67.19840000000001
 11
76.6897
 21
-67.1857
  0
LINE
  5
1CE
100
AcDbEntity
  8
BLACK
  6
CONTINUOUS
 62
  256
370
   -1
100
AcDbLine
 10
76.6897
 20
-67.1857
 11
76.68770000000001
 21
-67.1827
  0
LINE
  5
1CF
100
AcDbEntity
  8
BLACK
  6
CONTINUOUS
 62
  256
370
   -1
100
AcDbLine
 10
76.68770000000001
 20
-67.1827
 11
76.6401
 21
-66.9923
  0
LINE
  5
1D0
100
AcDbEntity
  8
BLACK
  6
CONTINUOUS
 62
  256
370
   -1
100
AcDbLine
 10
76.6401
 20
-66.9923
 11
76.639
 21
-66.977
  0
LINE
  5
1D1
100
AcDbEntity
  8
BLACK
  6
CONTINUOUS
 62
  256
370
   -1
100
AcDbLine
 10
76.639
 20
-66.977
 11
76.6378
 21
-66.97369999999999
  0
LINE
  5
1D2
100
AcDbEntity
  8
BLACK
  6
CONTINUOUS
 62
  256
370
   -1
100
AcDbLine
 10
76.6378
 20
-66.97369999999999
 11
76.6378
 21
-66.73560000000001
  0
LINE
  5
1D3
100
AcDbEntity
  8
BLACK
  6
CONTINUOUS
 62
  256
370
   -1
100
AcDbLine
 10
76.6378
 20
-66.73560000000001
 11
76.6404
 21
-66.7206
  0
LINE
  5
1D4
100
AcDbEntity
  8
BLACK
  6
CONTINUOUS
 62
  256
370
   -1
100
AcDbLine
 10
76.6404
 20
-66.7206
 11
76.6401
 21
-66.7171
  0
LINE
  5
1D5
100
AcDbEntity
  8
BLACK
  6
CONTINUOUS
 62
  256
370
   -1
100
AcDbLine
 10
76.6401
 20
-66.7171
 11
76.68770000000001
 21
-66.5266
  0
LINE
  5
1D6
100
AcDbEntity
  8
BLACK
  6
CONTINUOUS
 62
  256
370
   -1
100
AcDbLine
 10
76.68770000000001
 20
-66.5266
 11
76.6931
 21
-66.5145
  0
LINE
  5
1D7
100
AcDbEntity
  8
BLACK
  6
CONTINUOUS
 62
  256
370
   -1
100
AcDbLine
 10
76.6931
 20
-66.5145
 11
76.6935
 21
-66.51090000000001
  0
LINE
  5
1D8
100
AcDbEntity
  8
BLACK
  6
CONTINUOUS
 62
  256
370
   -1
100
AcDbLine
 10
76.6935
 20
-66.51090000000001
 11
76.7411
 21
-66.4157
  0
LINE
  5
1D9
100
AcDbEntity
  8
BLACK
  6
CONTINUOUS
 62
  256
370
   -1
100
AcDbLine
 10
76.7411
 20
-66.4157
 11
76.7547
 21
-66.3973
  0
LINE
  5
1DA
100
AcDbEntity
  8
BLACK
  6
CONTINUOUS
 62
  256
370
   -1
100
AcDbLine
 10
76.7547
 20
-66.3973
 11
76.75539999999999
 21
-66.39579999999999
  0
LINE
  5
1DB
100
AcDbEntity
  8
BLACK
  6
CONTINUOUS
 62
  256
370
   -1
100
AcDbLine
 10
76.75539999999999
 20
-66.39579999999999
 11
76.803
 21
-66.34820000000001
  0
LINE
  5
1DC
100
AcDbEntity
  8
BLACK
  6
CONTINUOUS
 62
  256
370
   -1
100
AcDbLine
 10
76.803
 20
-66.34820000000001
 11
76.8218
 21
-66.3351
  0
LINE
  5
1DD
100
AcDbEntity
  8
BLACK
  6
CONTINUOUS
 62
  256
370
   -1
100
AcDbLine
 10
76.8218
 20
-66.3351
 11
76.8229
 21
-66.3339
  0
LINE
  5
1DE
100
AcDbEntity
  8
BLACK
  6
CONTINUOUS
 62
  256
370
   -1
100
AcDbLine
 10
76.8229
 20
-66.3339
 11
76.9182
 21
-66.28619999999999
  0
LINE
  5
1DF
100
AcDbEntity
  8
BLACK
  6
CONTINUOUS
 62
  256
370
   -1
100
AcDbLine
 10
76.9182
 20
-66.28619999999999
 11
76.9436
 21
-66.2787
  0
LINE
  5
1E0
100
AcDbEntity
  8
BLACK
  6
CONTINUOUS
 62
  256
370
   -1
100
AcDbLine
 10
76.9436
 20
-66.2787
 11
76.9481
 21
-66.27970000000001
  0
LINE
  5
1E1
100
AcDbEntity
  8
BLACK
  6
CONTINUOUS
 62
  256
370
   -1
100
AcDbLine
 10
76.9481
 20
-66.27970000000001
 11
76.9524
 21
-66.2782
  0
LINE
  5
1E2
100
AcDbEntity
  8
BLACK
  6
CONTINUOUS
 62
  256
370
   -1
100
AcDbLine
 10
76.9524
 20
-66.2782
 11
77.0476
 21
-66.2782
  0
LINE
  5
1E3
100
AcDbEntity
  8
BLACK
  6
CONTINUOUS
 62
  256
370
   -1
100
AcDbLine
 10
77.0476
 20
-66.2782
 11
77.07380000000001
 21
-66.28279999999999
  0
LINE
  5
1E4
100
AcDbEntity
  8
BLACK
  6
CONTINUOUS
 62
  256
370
   -1
100
AcDbLine
 10
76.9025
 20
-66.4652
 11
76.8724
 21
-66.4952
  0
LINE
  5
1E5
100
AcDbEntity
  8
BLACK
  6
CONTINUOUS
 62
  256
370
   -1
100
AcDbLine
 10
76.8724
 20
-66.4952
 11
76.83410000000001
 21
-66.5718
  0
LINE
  5
1E6
100
AcDbEntity
  8
BLACK
  6
CONTINUOUS
 62
  256
370
   -1
100
AcDbLine
 10
76.83410000000001
 20
-66.5718
 11
76.7908
 21
-66.745
  0
LINE
  5
1E7
100
AcDbEntity
  8
BLACK
  6
CONTINUOUS
 62
  256
370
   -1
100
AcDbLine
 10
76.7908
 20
-66.745
 11
76.7908
 21
-66.96429999999999
  0
LINE
  5
1E8
100
AcDbEntity
  8
BLACK
  6
CONTINUOUS
 62
  256
370
   -1
100
AcDbLine
 10
76.7908
 20
-66.96429999999999
 11
76.83410000000001
 21
-67.1375
  0
LINE
  5
1E9
100
AcDbEntity
  8
BLACK
  6
CONTINUOUS
 62
  256
370
   -1
100
AcDbLine
 10
76.83410000000001
 20
-67.1375
 11
76.8724
 21
-67.2141
  0
LINE
  5
1EA
100
AcDbEntity
  8
BLACK
  6
CONTINUOUS
 62
  256
370
   -1
100
AcDbLine
 10
76.8724
 20
-67.2141
 11
76.9025
 21
-67.24420000000001
  0
LINE
  5
1EB
100
AcDbEntity
  8
BLACK
  6
CONTINUOUS
 62
  256
370
   -1
100
AcDbLine
 10
76.9025
 20
-67.24420000000001
 11
76.9704
 21
-67.2782
  0
LINE
  5
1EC
100
AcDbEntity
  8
BLACK
  6
CONTINUOUS
 62
  256
370
   -1
100
AcDbLine
 10
76.9704
 20
-67.2782
 11
77.0296
 21
-67.2782
  0
LINE
  5
1ED
100
AcDbEntity
  8
BLACK
  6
CONTINUOUS
 62
  256
370
   -1
100
AcDbLine
 10
77.0296
 20
-67.2782
 11
77.0975
 21
-67.24420000000001
  0
LINE
  5
1EE
100
AcDbEntity
  8
BLACK
  6
CONTINUOUS
 62
  256
370
   -1
100
AcDbLine
 10
77.0975
 20
-67.24420000000001
 11
77.1276
 21
-67.2141
  0
LINE
  5
1EF
100
AcDbEntity
  8
BLACK
  6
CONTINUOUS
 62
  256
370
   -1
100
AcDbLine
 10
77.1276
 20
-67.2141
 11
77.16589999999999
 21
-67.1375
  0
LINE
  5
1F0
100
AcDbEntity
  8
BLACK
  6
CONTINUOUS
 62
  256
370
   -1
100
AcDbLine
 10
77.16589999999999
 20
-67.1375
 11
77.2092
 21
-66.96429999999999
  0
LINE
  5
1F1
100
AcDbEntity
  8
BLACK
  6
CONTINUOUS
 62
  256
370
   -1
100
AcDbLine
 10
77.2092
 20
-66.96429999999999
 11
77.2092
 21
-66.745
  0
LINE
  5
1F2
100
AcDbEntity
  8
BLACK
  6
CONTINUOUS
 62
  256
370
   -1
100
AcDbLine
 10
77.2092
 20
-66.745
 11
77.16589999999999
 21
-66.5718
  0
LINE
  5
1F3
100
AcDbEntity
  8
BLACK
  6
CONTINUOUS
 62
  256
370
   -1
100
AcDbLine
 10
77.16589999999999
 20
-66.5718
 11
77.1276
 21
-66.4952
  0
LINE
  5
1F4
100
AcDbEntity
  8
BLACK
  6
CONTINUOUS
 62
  256
370
   -1
100
AcDbLine
 10
77.1276
 20
-66.4952
 11
77.0975
 21
-66.4652
  0
LINE
  5
1F5
100
AcDbEntity
  8
BLACK
  6
CONTINUOUS
 62
  256
370
   -1
100
AcDbLine
 10
77.0975
 20
-66.4652
 11
77.0296
 21
-66.4312
  0
LINE
  5
1F6
100
AcDbEntity
  8
BLACK
  6
CONTINUOUS
 62
  256
370
   -1
100
AcDbLine
 10
77.0296
 20
-66.4312
 11
76.9704
 21
-66.4312
  0
LINE
  5
1F7
100
AcDbEntity
  8
BLACK
  6
CONTINUOUS
 62
  256
370
   -1
100
AcDbLine
 10
76.9704
 20
-66.4312
 11
76.9025
 21
-66.4652
  0
LINE
  5
1F8
100
AcDbEntity
  8
BLACK
  6
CONTINUOUS
 62
  256
370
   -1
100
AcDbLine
 10
78.12139999999999
 20
-66.28279999999999
 11
78.1249
 21
-66.28570000000001
  0
LINE
  5
1F9
100
AcDbEntity
  8
BLACK
  6
CONTINUOUS
 62
  256
370
   -1
100
AcDbLine
 10
78.1249
 20
-66.28570000000001
 11
78.1294
 21
-66.28619999999999
  0
LINE
  5
1FA
100
AcDbEntity
  8
BLACK
  6
CONTINUOUS
 62
  256
370
   -1
100
AcDbLine
 10
78.1294
 20
-66.28619999999999
 11
78.2247
 21
-66.3339
  0
LINE
  5
1FB
100
AcDbEntity
  8
BLACK
  6
CONTINUOUS
 62
  256
370
   -1
100
AcDbLine
 10
78.2247
 20
-66.3339
 11
78.2431
 21
-66.3475
  0
LINE
  5
1FC
100
AcDbEntity
  8
BLACK
  6
CONTINUOUS
 62
  256
370
   -1
100
AcDbLine
 10
78.2431
 20
-66.3475
 11
78.24460000000001
 21
-66.34820000000001
  0
LINE
  5
1FD
100
AcDbEntity
  8
BLACK
  6
CONTINUOUS
 62
  256
370
   -1
100
AcDbLine
 10
78.24460000000001
 20
-66.34820000000001
 11
78.29219999999999
 21
-66.39579999999999
  0
LINE
  5
1FE
100
AcDbEntity
  8
BLACK
  6
CONTINUOUS
 62
  256
370
   -1
100
AcDbLine
 10
78.29219999999999
 20
-66.39579999999999
 11
78.3074
 21
-66.41759999999999
  0
LINE
  5
1FF
100
AcDbEntity
  8
BLACK
  6
CONTINUOUS
 62
  256
370
   -1
100
AcDbLine
 10
78.3074
 20
-66.41759999999999
 11
78.312
 21
-66.4697
  0
LINE
  5
200
100
AcDbEntity
  8
BLACK
  6
CONTINUOUS
 62
  256
370
   -1
100
AcDbLine
 10
78.312
 20
-66.4697
 11
78.282
 21
-66.51260000000001
  0
LINE
  5
201
100
AcDbEntity
  8
BLACK
  6
CONTINUOUS
 62
  256
370
   -1
100
AcDbLine
 10
78.282
 20
-66.51260000000001
 11
78.23139999999999
 21
-66.5261
  0
LINE
  5
202
100
AcDbEntity
  8
BLACK
  6
CONTINUOUS
 62
  256
370
   -1
100
AcDbLine
 10
78.23139999999999
 20
-66.5261
 11
78.184
 21
-66.504
  0
LINE
  5
203
100
AcDbEntity
  8
BLACK
  6
CONTINUOUS
 62
  256
370
   -1
100
AcDbLine
 10
78.184
 20
-66.504
 11
78.1452
 21
-66.4652
  0
LINE
  5
204
100
AcDbEntity
  8
BLACK
  6
CONTINUOUS
 62
  256
370
   -1
100
AcDbLine
 10
78.1452
 20
-66.4652
 11
78.0772
 21
-66.4312
  0
LINE
  5
205
100
AcDbEntity
  8
BLACK
  6
CONTINUOUS
 62
  256
370
   -1
100
AcDbLine
 10
78.0772
 20
-66.4312
 11
77.87520000000001
 21
-66.4312
  0
LINE
  5
206
100
AcDbEntity
  8
BLACK
  6
CONTINUOUS
 62
  256
370
   -1
100
AcDbLine
 10
77.87520000000001
 20
-66.4312
 11
77.80719999999999
 21
-66.4652
  0
LINE
  5
207
100
AcDbEntity
  8
BLACK
  6
CONTINUOUS
 62
  256
370
   -1
100
AcDbLine
 10
77.80719999999999
 20
-66.4652
 11
77.77719999999999
 21
-66.4952
  0
LINE
  5
208
100
AcDbEntity
  8
BLACK
  6
CONTINUOUS
 62
  256
370
   -1
100
AcDbLine
 10
77.77719999999999
 20
-66.4952
 11
77.7432
 21
-66.56319999999999
  0
LINE
  5
209
100
AcDbEntity
  8
BLACK
  6
CONTINUOUS
 62
  256
370
   -1
100
AcDbLine
 10
77.7432
 20
-66.56319999999999
 11
77.7432
 21
-66.628
  0
LINE
  5
20A
100
AcDbEntity
  8
BLACK
  6
CONTINUOUS
 62
  256
370
   -1
100
AcDbLine
 10
77.7432
 20
-66.628
 11
77.7811
 21
-66.7419
  0
LINE
  5
20B
100
AcDbEntity
  8
BLACK
  6
CONTINUOUS
 62
  256
370
   -1
100
AcDbLine
 10
77.7811
 20
-66.7419
 11
78.3398
 21
-67.3006
  0
LINE
  5
20C
100
AcDbEntity
  8
BLACK
  6
CONTINUOUS
 62
  256
370
   -1
100
AcDbLine
 10
78.3398
 20
-67.3006
 11
78.3494
 21
-67.3143
  0
LINE
  5
20D
100
AcDbEntity
  8
BLACK
  6
CONTINUOUS
 62
  256
370
   -1
100
AcDbLine
 10
78.3494
 20
-67.3143
 11
78.352
 21
-67.3164
  0
LINE
  5
20E
100
AcDbEntity
  8
BLACK
  6
CONTINUOUS
 62
  256
370
   -1
100
AcDbLine
 10
78.352
 20
-67.3164
 11
78.3523
 21
-67.3184
  0
LINE
  5
20F
100
AcDbEntity
  8
BLACK
  6
CONTINUOUS
 62
  256
370
   -1
100
AcDbLine
 10
78.3523
 20
-67.3184
 11
78.355
 21
-67.3223
  0
LINE
  5
210
100
AcDbEntity
  8
BLACK
  6
CONTINUOUS
 62
  256
370
   -1
100
AcDbLine
 10
78.355
 20
-67.3223
 11
78.3571
 21
-67.34529999999999
  0
LINE
  5
211
100
AcDbEntity
  8
BLACK
  6
CONTINUOUS
 62
  256
370
   -1
100
AcDbLine
 10
78.3571
 20
-67.34529999999999
 11
78.36109999999999
 21
-67.36790000000001
  0
LINE
  5
212
100
AcDbEntity
  8
BLACK
  6
CONTINUOUS
 62
  256
370
   -1
100
AcDbLine
 10
78.36109999999999
 20
-67.36790000000001
 11
78.3593
 21
-67.371
  0
LINE
  5
213
100
AcDbEntity
  8
BLACK
  6
CONTINUOUS
 62
  256
370
   -1
100
AcDbLine
 10
78.3593
 20
-67.371
 11
78.3596
 21
-67.3745
  0
LINE
  5
214
100
AcDbEntity
  8
BLACK
  6
CONTINUOUS
 62
  256
370
   -1
100
AcDbLine
 10
78.3596
 20
-67.3745
 11
78.3464
 21
-67.3933
  0
LINE
  5
215
100
AcDbEntity
  8
BLACK
  6
CONTINUOUS
 62
  256
370
   -1
100
AcDbLine
 10
78.3464
 20
-67.3933
 11
78.3349
 21
-67.41330000000001
  0
LINE
  5
216
100
AcDbEntity
  8
BLACK
  6
CONTINUOUS
 62
  256
370
   -1
100
AcDbLine
 10
78.3349
 20
-67.41330000000001
 11
78.33159999999999
 21
-67.4145
  0
LINE
  5
217
100
AcDbEntity
  8
BLACK
  6
CONTINUOUS
 62
  256
370
   -1
100
AcDbLine
 10
78.33159999999999
 20
-67.4145
 11
78.3296
 21
-67.4173
  0
LINE
  5
218
100
AcDbEntity
  8
BLACK
  6
CONTINUOUS
 62
  256
370
   -1
100
AcDbLine
 10
78.3296
 20
-67.4173
 11
78.3074
 21
-67.4233
  0
LINE
  5
219
100
AcDbEntity
  8
BLACK
  6
CONTINUOUS
 62
  256
370
   -1
100
AcDbLine
 10
78.3074
 20
-67.4233
 11
78.28570000000001
 21
-67.4312
  0
LINE
  5
21A
100
AcDbEntity
  8
BLACK
  6
CONTINUOUS
 62
  256
370
   -1
100
AcDbLine
 10
78.28570000000001
 20
-67.4312
 11
77.66670000000001
 21
-67.4312
  0
LINE
  5
21B
100
AcDbEntity
  8
BLACK
  6
CONTINUOUS
 62
  256
370
   -1
100
AcDbLine
 10
77.66670000000001
 20
-67.4312
 11
77.6405
 21
-67.4265
  0
LINE
  5
21C
100
AcDbEntity
  8
BLACK
  6
CONTINUOUS
 62
  256
370
   -1
100
AcDbLine
 10
77.6405
 20
-67.4265
 11
77.60039999999999
 21
-67.3929
  0
LINE
  5
21D
100
AcDbEntity
  8
BLACK
  6
CONTINUOUS
 62
  256
370
   -1
100
AcDbLine
 10
77.60039999999999
 20
-67.3929
 11
77.5913
 21
-67.34139999999999
  0
LINE
  5
21E
100
AcDbEntity
  8
BLACK
  6
CONTINUOUS
 62
  256
370
   -1
100
AcDbLine
 10
77.5913
 20
-67.34139999999999
 11
77.61750000000001
 21
-67.2961
  0
LINE
  5
21F
100
AcDbEntity
  8
BLACK
  6
CONTINUOUS
 62
  256
370
   -1
100
AcDbLine
 10
77.61750000000001
 20
-67.2961
 11
77.66670000000001
 21
-67.2782
  0
LINE
  5
220
100
AcDbEntity
  8
BLACK
  6
CONTINUOUS
 62
  256
370
   -1
100
AcDbLine
 10
77.66670000000001
 20
-67.2782
 11
78.101
 21
-67.2782
  0
LINE
  5
221
100
AcDbEntity
  8
BLACK
  6
CONTINUOUS
 62
  256
370
   -1
100
AcDbLine
 10
78.101
 20
-67.2782
 11
77.6602
 21
-66.8373
  0
LINE
  5
222
100
AcDbEntity
  8
BLACK
  6
CONTINUOUS
 62
  256
370
   -1
100
AcDbLine
 10
77.6602
 20
-66.8373
 11
77.645
 21
-66.8156
  0
LINE
  5
223
100
AcDbEntity
  8
BLACK
  6
CONTINUOUS
 62
  256
370
   -1
100
AcDbLine
 10
77.645
 20
-66.8156
 11
77.6446
 21
-66.81100000000001
  0
LINE
  5
224
100
AcDbEntity
  8
BLACK
  6
CONTINUOUS
 62
  256
370
   -1
100
AcDbLine
 10
77.6446
 20
-66.81100000000001
 11
77.6417
 21
-66.8074
  0
LINE
  5
225
100
AcDbEntity
  8
BLACK
  6
CONTINUOUS
 62
  256
370
   -1
100
AcDbLine
 10
77.6417
 20
-66.8074
 11
77.5941
 21
-66.66459999999999
  0
LINE
  5
226
100
AcDbEntity
  8
BLACK
  6
CONTINUOUS
 62
  256
370
   -1
100
AcDbLine
 10
77.5941
 20
-66.66459999999999
 11
77.5907
 21
-66.64190000000001
  0
LINE
  5
227
100
AcDbEntity
  8
BLACK
  6
CONTINUOUS
 62
  256
370
   -1
100
AcDbLine
 10
77.5907
 20
-66.64190000000001
 11
77.5902
 21
-66.6404
  0
LINE
  5
228
100
AcDbEntity
  8
BLACK
  6
CONTINUOUS
 62
  256
370
   -1
100
AcDbLine
 10
77.5902
 20
-66.6404
 11
77.5902
 21
-66.54510000000001
  0
LINE
  5
229
100
AcDbEntity
  8
BLACK
  6
CONTINUOUS
 62
  256
370
   -1
100
AcDbLine
 10
77.5902
 20
-66.54510000000001
 11
77.59480000000001
 21
-66.51900000000001
  0
LINE
  5
22A
100
AcDbEntity
  8
BLACK
  6
CONTINUOUS
 62
  256
370
   -1
100
AcDbLine
 10
77.59480000000001
 20
-66.51900000000001
 11
77.5977
 21
-66.5155
  0
LINE
  5
22B
100
AcDbEntity
  8
BLACK
  6
CONTINUOUS
 62
  256
370
   -1
100
AcDbLine
 10
77.5977
 20
-66.5155
 11
77.59820000000001
 21
-66.51090000000001
  0
LINE
  5
22C
100
AcDbEntity
  8
BLACK
  6
CONTINUOUS
 62
  256
370
   -1
100
AcDbLine
 10
77.59820000000001
 20
-66.51090000000001
 11
77.6459
 21
-66.4157
  0
LINE
  5
22D
100
AcDbEntity
  8
BLACK
  6
CONTINUOUS
 62
  256
370
   -1
100
AcDbLine
 10
77.6459
 20
-66.4157
 11
77.65949999999999
 21
-66.3973
  0
LINE
  5
22E
100
AcDbEntity
  8
BLACK
  6
CONTINUOUS
 62
  256
370
   -1
100
AcDbLine
 10
77.65949999999999
 20
-66.3973
 11
77.6602
 21
-66.39579999999999
  0
LINE
  5
22F
100
AcDbEntity
  8
BLACK
  6
CONTINUOUS
 62
  256
370
   -1
100
AcDbLine
 10
77.6602
 20
-66.39579999999999
 11
77.70780000000001
 21
-66.34820000000001
  0
LINE
  5
230
100
AcDbEntity
  8
BLACK
  6
CONTINUOUS
 62
  256
370
   -1
100
AcDbLine
 10
77.70780000000001
 20
-66.34820000000001
 11
77.7265
 21
-66.3351
  0
LINE
  5
231
100
AcDbEntity
  8
BLACK
  6
CONTINUOUS
 62
  256
370
   -1
100
AcDbLine
 10
77.7265
 20
-66.3351
 11
77.7277
 21
-66.3339
  0
LINE
  5
232
100
AcDbEntity
  8
BLACK
  6
CONTINUOUS
 62
  256
370
   -1
100
AcDbLine
 10
77.7277
 20
-66.3339
 11
77.8229
 21
-66.28619999999999
  0
LINE
  5
233
100
AcDbEntity
  8
BLACK
  6
CONTINUOUS
 62
  256
370
   -1
100
AcDbLine
 10
77.8229
 20
-66.28619999999999
 11
77.8484
 21
-66.2787
  0
LINE
  5
234
100
AcDbEntity
  8
BLACK
  6
CONTINUOUS
 62
  256
370
   -1
100
AcDbLine
 10
77.8484
 20
-66.2787
 11
77.8528
 21
-66.27970000000001
  0
LINE
  5
235
100
AcDbEntity
  8
BLACK
  6
CONTINUOUS
 62
  256
370
   -1
100
AcDbLine
 10
77.8528
 20
-66.27970000000001
 11
77.8571
 21
-66.2782
  0
LINE
  5
236
100
AcDbEntity
  8
BLACK
  6
CONTINUOUS
 62
  256
370
   -1
100
AcDbLine
 10
77.8571
 20
-66.2782
 11
78.09520000000001
 21
-66.2782
  0
LINE
  5
237
100
AcDbEntity
  8
BLACK
  6
CONTINUOUS
 62
  256
370
   -1
100
AcDbLine
 10
78.09520000000001
 20
-66.2782
 11
78.12139999999999
 21
-66.28279999999999
  0
LINE
  5
238
100
AcDbEntity
  8
BLACK
  6
CONTINUOUS
 62
  256
370
   -1
100
AcDbLine
 10
78.9273
 20
-66.2821
 11
78.929
 21
-66.2821
  0
LINE
  5
239
100
AcDbEntity
  8
BLACK
  6
CONTINUOUS
 62
  256
370
   -1
100
AcDbLine
 10
78.929
 20
-66.2821
 11
79.0718
 21
-66.3297
  0
LINE
  5
23A
100
AcDbEntity
  8
BLACK
  6
CONTINUOUS
 62
  256
370
   -1
100
AcDbLine
 10
79.0718
 20
-66.3297
 11
79.09520000000001
 21
-66.3424
  0
LINE
  5
23B
100
AcDbEntity
  8
BLACK
  6
CONTINUOUS
 62
  256
370
   -1
100
AcDbLine
 10
79.09520000000001
 20
-66.3424
 11
79.0976
 21
-66.3463
  0
LINE
  5
23C
100
AcDbEntity
  8
BLACK
  6
CONTINUOUS
 62
  256
370
   -1
100
AcDbLine
 10
79.0976
 20
-66.3463
 11
79.10169999999999
 21
-66.34820000000001
  0
LINE
  5
23D
100
AcDbEntity
  8
BLACK
  6
CONTINUOUS
 62
  256
370
   -1
100
AcDbLine
 10
79.10169999999999
 20
-66.34820000000001
 11
79.197
 21
-66.4434
  0
LINE
  5
23E
100
AcDbEntity
  8
BLACK
  6
CONTINUOUS
 62
  256
370
   -1
100
AcDbLine
 10
79.197
 20
-66.4434
 11
79.2101
 21
-66.4622
  0
LINE
  5
23F
100
AcDbEntity
  8
BLACK
  6
CONTINUOUS
 62
  256
370
   -1
100
AcDbLine
 10
79.2101
 20
-66.4622
 11
79.21129999999999
 21
-66.4633
  0
LINE
  5
240
100
AcDbEntity
  8
BLACK
  6
CONTINUOUS
 62
  256
370
   -1
100
AcDbLine
 10
79.21129999999999
 20
-66.4633
 11
79.2589
 21
-66.5585
  0
LINE
  5
241
100
AcDbEntity
  8
BLACK
  6
CONTINUOUS
 62
  256
370
   -1
100
AcDbLine
 10
79.2589
 20
-66.5585
 11
79.2627
 21
-66.5712
  0
LINE
  5
242
100
AcDbEntity
  8
BLACK
  6
CONTINUOUS
 62
  256
370
   -1
100
AcDbLine
 10
79.2627
 20
-66.5712
 11
79.2647
 21
-66.5742
  0
LINE
  5
243
100
AcDbEntity
  8
BLACK
  6
CONTINUOUS
 62
  256
370
   -1
100
AcDbLine
 10
79.2647
 20
-66.5742
 11
79.31229999999999
 21
-66.7647
  0
LINE
  5
244
100
AcDbEntity
  8
BLACK
  6
CONTINUOUS
 62
  256
370
   -1
100
AcDbLine
 10
79.31229999999999
 20
-66.7647
 11
79.3134
 21
-66.7799
  0
LINE
  5
245
100
AcDbEntity
  8
BLACK
  6
CONTINUOUS
 62
  256
370
   -1
100
AcDbLine
 10
79.3134
 20
-66.7799
 11
79.3146
 21
-66.78319999999999
  0
LINE
  5
246
100
AcDbEntity
  8
BLACK
  6
CONTINUOUS
 62
  256
370
   -1
100
AcDbLine
 10
79.3146
 20
-66.78319999999999
 11
79.3146
 21
-66.92610000000001
  0
LINE
  5
247
100
AcDbEntity
  8
BLACK
  6
CONTINUOUS
 62
  256
370
   -1
100
AcDbLine
 10
79.3146
 20
-66.92610000000001
 11
79.31189999999999
 21
-66.94110000000001
  0
LINE
  5
248
100
AcDbEntity
  8
BLACK
  6
CONTINUOUS
 62
  256
370
   -1
100
AcDbLine
 10
79.31189999999999
 20
-66.94110000000001
 11
79.31229999999999
 21
-66.94459999999999
  0
LINE
  5
249
100
AcDbEntity
  8
BLACK
  6
CONTINUOUS
 62
  256
370
   -1
100
AcDbLine
 10
79.31229999999999
 20
-66.94459999999999
 11
79.2647
 21
-67.13509999999999
  0
LINE
  5
24A
100
AcDbEntity
  8
BLACK
  6
CONTINUOUS
 62
  256
370
   -1
100
AcDbLine
 10
79.2647
 20
-67.13509999999999
 11
79.2593
 21
-67.1472
  0
LINE
  5
24B
100
AcDbEntity
  8
BLACK
  6
CONTINUOUS
 62
  256
370
   -1
100
AcDbLine
 10
79.2593
 20
-67.1472
 11
79.2589
 21
-67.1508
  0
LINE
  5
24C
100
AcDbEntity
  8
BLACK
  6
CONTINUOUS
 62
  256
370
   -1
100
AcDbLine
 10
79.2589
 20
-67.1508
 11
79.21129999999999
 21
-67.246
  0
LINE
  5
24D
100
AcDbEntity
  8
BLACK
  6
CONTINUOUS
 62
  256
370
   -1
100
AcDbLine
 10
79.21129999999999
 20
-67.246
 11
79.1977
 21
-67.26439999999999
  0
LINE
  5
24E
100
AcDbEntity
  8
BLACK
  6
CONTINUOUS
 62
  256
370
   -1
100
AcDbLine
 10
79.1977
 20
-67.26439999999999
 11
79.197
 21
-67.2659
  0
LINE
  5
24F
100
AcDbEntity
  8
BLACK
  6
CONTINUOUS
 62
  256
370
   -1
100
AcDbLine
 10
79.197
 20
-67.2659
 11
79.10169999999999
 21
-67.36109999999999
  0
LINE
  5
250
100
AcDbEntity
  8
BLACK
  6
CONTINUOUS
 62
  256
370
   -1
100
AcDbLine
 10
79.10169999999999
 20
-67.36109999999999
 11
79.07989999999999
 21
-67.3764
  0
LINE
  5
251
100
AcDbEntity
  8
BLACK
  6
CONTINUOUS
 62
  256
370
   -1
100
AcDbLine
 10
79.07989999999999
 20
-67.3764
 11
79.0754
 21
-67.3768
  0
LINE
  5
252
100
AcDbEntity
  8
BLACK
  6
CONTINUOUS
 62
  256
370
   -1
100
AcDbLine
 10
79.0754
 20
-67.3768
 11
79.0718
 21
-67.3796
  0
LINE
  5
253
100
AcDbEntity
  8
BLACK
  6
CONTINUOUS
 62
  256
370
   -1
100
AcDbLine
 10
79.0718
 20
-67.3796
 11
78.929
 21
-67.4272
  0
LINE
  5
254
100
AcDbEntity
  8
BLACK
  6
CONTINUOUS
 62
  256
370
   -1
100
AcDbLine
 10
78.929
 20
-67.4272
 11
78.9063
 21
-67.4306
  0
LINE
  5
255
100
AcDbEntity
  8
BLACK
  6
CONTINUOUS
 62
  256
370
   -1
100
AcDbLine
 10
78.9063
 20
-67.4306
 11
78.90479999999999
 21
-67.4312
  0
LINE
  5
256
100
AcDbEntity
  8
BLACK
  6
CONTINUOUS
 62
  256
370
   -1
100
AcDbLine
 10
78.90479999999999
 20
-67.4312
 11
78.8095
 21
-67.4312
  0
LINE
  5
257
100
AcDbEntity
  8
BLACK
  6
CONTINUOUS
 62
  256
370
   -1
100
AcDbLine
 10
78.8095
 20
-67.4312
 11
78.78700000000001
 21
-67.4272
  0
LINE
  5
258
100
AcDbEntity
  8
BLACK
  6
CONTINUOUS
 62
  256
370
   -1
100
AcDbLine
 10
78.78700000000001
 20
-67.4272
 11
78.78530000000001
 21
-67.4272
  0
LINE
  5
259
100
AcDbEntity
  8
BLACK
  6
CONTINUOUS
 62
  256
370
   -1
100
AcDbLine
 10
78.78530000000001
 20
-67.4272
 11
78.6425
 21
-67.3796
  0
LINE
  5
25A
100
AcDbEntity
  8
BLACK
  6
CONTINUOUS
 62
  256
370
   -1
100
AcDbLine
 10
78.6425
 20
-67.3796
 11
78.6191
 21
-67.367
  0
LINE
  5
25B
100
AcDbEntity
  8
BLACK
  6
CONTINUOUS
 62
  256
370
   -1
100
AcDbLine
 10
78.6191
 20
-67.367
 11
78.61669999999999
 21
-67.3631
  0
LINE
  5
25C
100
AcDbEntity
  8
BLACK
  6
CONTINUOUS
 62
  256
370
   -1
100
AcDbLine
 10
78.61669999999999
 20
-67.3631
 11
78.6126
 21
-67.36109999999999
  0
LINE
  5
25D
100
AcDbEntity
  8
BLACK
  6
CONTINUOUS
 62
  256
370
   -1
100
AcDbLine
 10
78.6126
 20
-67.36109999999999
 11
78.565
 21
-67.3135
  0
LINE
  5
25E
100
AcDbEntity
  8
BLACK
  6
CONTINUOUS
 62
  256
370
   -1
100
AcDbLine
 10
78.565
 20
-67.3135
 11
78.5622
 21
-67.3096
  0
LINE
  5
25F
100
AcDbEntity
  8
BLACK
  6
CONTINUOUS
 62
  256
370
   -1
100
AcDbLine
 10
78.5622
 20
-67.3096
 11
78.5604
 21
-67.3086
  0
LINE
  5
260
100
AcDbEntity
  8
BLACK
  6
CONTINUOUS
 62
  256
370
   -1
100
AcDbLine
 10
78.5604
 20
-67.3086
 11
78.55929999999999
 21
-67.30540000000001
  0
LINE
  5
261
100
AcDbEntity
  8
BLACK
  6
CONTINUOUS
 62
  256
370
   -1
100
AcDbLine
 10
78.55929999999999
 20
-67.30540000000001
 11
78.5497
 21
-67.29179999999999
  0
LINE
  5
262
100
AcDbEntity
  8
BLACK
  6
CONTINUOUS
 62
  256
370
   -1
100
AcDbLine
 10
78.5497
 20
-67.29179999999999
 11
78.5483
 21
-67.27509999999999
  0
LINE
  5
263
100
AcDbEntity
  8
BLACK
  6
CONTINUOUS
 62
  256
370
   -1
100
AcDbLine
 10
78.5483
 20
-67.27509999999999
 11
78.5425
 21
-67.2594
  0
LINE
  5
264
100
AcDbEntity
  8
BLACK
  6
CONTINUOUS
 62
  256
370
   -1
100
AcDbLine
 10
78.5425
 20
-67.2594
 11
78.5425
 21
-66.92610000000001
  0
LINE
  5
265
100
AcDbEntity
  8
BLACK
  6
CONTINUOUS
 62
  256
370
   -1
100
AcDbLine
 10
78.5425
 20
-66.92610000000001
 11
78.54430000000001
 21
-66.9162
  0
LINE
  5
266
100
AcDbEntity
  8
BLACK
  6
CONTINUOUS
 62
  256
370
   -1
100
AcDbLine
 10
78.54430000000001
 20
-66.9162
 11
78.5437
 21
-66.9128
  0
LINE
  5
267
100
AcDbEntity
  8
BLACK
  6
CONTINUOUS
 62
  256
370
   -1
100
AcDbLine
 10
78.5437
 20
-66.9128
 11
78.5454
 21
-66.90989999999999
  0
LINE
  5
268
100
AcDbEntity
  8
BLACK
  6
CONTINUOUS
 62
  256
370
   -1
100
AcDbLine
 10
78.5454
 20
-66.90989999999999
 11
78.5472
 21
-66.8999
  0
LINE
  5
269
100
AcDbEntity
  8
BLACK
  6
CONTINUOUS
 62
  256
370
   -1
100
AcDbLine
 10
78.5472
 20
-66.8999
 11
78.5599
 21
-66.8847
  0
LINE
  5
26A
100
AcDbEntity
  8
BLACK
  6
CONTINUOUS
 62
  256
370
   -1
100
AcDbLine
 10
78.5599
 20
-66.8847
 11
78.5699
 21
-66.86750000000001
  0
LINE
  5
26B
100
AcDbEntity
  8
BLACK
  6
CONTINUOUS
 62
  256
370
   -1
100
AcDbLine
 10
78.5699
 20
-66.86750000000001
 11
78.57640000000001
 21
-66.8651
  0
LINE
  5
26C
100
AcDbEntity
  8
BLACK
  6
CONTINUOUS
 62
  256
370
   -1
100
AcDbLine
 10
78.57640000000001
 20
-66.8651
 11
78.5808
 21
-66.85980000000001
  0
LINE
  5
26D
100
AcDbEntity
  8
BLACK
  6
CONTINUOUS
 62
  256
370
   -1
100
AcDbLine
 10
78.5808
 20
-66.85980000000001
 11
78.60039999999999
 21
-66.85639999999999
  0
LINE
  5
26E
100
AcDbEntity
  8
BLACK
  6
CONTINUOUS
 62
  256
370
   -1
100
AcDbLine
 10
78.60039999999999
 20
-66.85639999999999
 11
78.619
 21
-66.8496
  0
LINE
  5
26F
100
AcDbEntity
  8
BLACK
  6
CONTINUOUS
 62
  256
370
   -1
100
AcDbLine
 10
78.619
 20
-66.8496
 11
78.8095
 21
-66.8496
  0
LINE
  5
270
100
AcDbEntity
  8
BLACK
  6
CONTINUOUS
 62
  256
370
   -1
100
AcDbLine
 10
78.8095
 20
-66.8496
 11
78.8357
 21
-66.85420000000001
  0
LINE
  5
271
100
AcDbEntity
  8
BLACK
  6
CONTINUOUS
 62
  256
370
   -1
100
AcDbLine
 10
78.8357
 20
-66.85420000000001
 11
78.8758
 21
-66.8878
  0
LINE
  5
272
100
AcDbEntity
  8
BLACK
  6
CONTINUOUS
 62
  256
370
   -1
100
AcDbLine
 10
78.8758
 20
-66.8878
 11
78.8849
 21
-66.93940000000001
  0
LINE
  5
273
100
AcDbEntity
  8
BLACK
  6
CONTINUOUS
 62
  256
370
   -1
100
AcDbLine
 10
78.8849
 20
-66.93940000000001
 11
78.8587
 21
-66.9847
  0
LINE
  5
274
100
AcDbEntity
  8
BLACK
  6
CONTINUOUS
 62
  256
370
   -1
100
AcDbLine
 10
78.8587
 20
-66.9847
 11
78.8095
 21
-67.0026
  0
LINE
  5
275
100
AcDbEntity
  8
BLACK
  6
CONTINUOUS
 62
  256
370
   -1
100
AcDbLine
 10
78.8095
 20
-67.0026
 11
78.6955
 21
-67.0026
  0
LINE
  5
276
100
AcDbEntity
  8
BLACK
  6
CONTINUOUS
 62
  256
370
   -1
100
AcDbLine
 10
78.6955
 20
-67.0026
 11
78.6955
 21
-67.2277
  0
LINE
  5
277
100
AcDbEntity
  8
BLACK
  6
CONTINUOUS
 62
  256
370
   -1
100
AcDbLine
 10
78.6955
 20
-67.2277
 11
78.708
 21
-67.2402
  0
LINE
  5
278
100
AcDbEntity
  8
BLACK
  6
CONTINUOUS
 62
  256
370
   -1
100
AcDbLine
 10
78.708
 20
-67.2402
 11
78.8219
 21
-67.2782
  0
LINE
  5
279
100
AcDbEntity
  8
BLACK
  6
CONTINUOUS
 62
  256
370
   -1
100
AcDbLine
 10
78.8219
 20
-67.2782
 11
78.89230000000001
 21
-67.2782
  0
LINE
  5
27A
100
AcDbEntity
  8
BLACK
  6
CONTINUOUS
 62
  256
370
   -1
100
AcDbLine
 10
78.89230000000001
 20
-67.2782
 11
79.0063
 21
-67.2402
  0
LINE
  5
27B
100
AcDbEntity
  8
BLACK
  6
CONTINUOUS
 62
  256
370
   -1
100
AcDbLine
 10
79.0063
 20
-67.2402
 11
79.08
 21
-67.1665
  0
LINE
  5
27C
100
AcDbEntity
  8
BLACK
  6
CONTINUOUS
 62
  256
370
   -1
100
AcDbLine
 10
79.08
 20
-67.1665
 11
79.1183
 21
-67.0899
  0
LINE
  5
27D
100
AcDbEntity
  8
BLACK
  6
CONTINUOUS
 62
  256
370
   -1
100
AcDbLine
 10
79.1183
 20
-67.0899
 11
79.16160000000001
 21
-66.91670000000001
  0
LINE
  5
27E
100
AcDbEntity
  8
BLACK
  6
CONTINUOUS
 62
  256
370
   -1
100
AcDbLine
 10
79.16160000000001
 20
-66.91670000000001
 11
79.16160000000001
 21
-66.7927
  0
LINE
  5
27F
100
AcDbEntity
  8
BLACK
  6
CONTINUOUS
 62
  256
370
   -1
100
AcDbLine
 10
79.16160000000001
 20
-66.7927
 11
79.1183
 21
-66.6195
  0
LINE
  5
280
100
AcDbEntity
  8
BLACK
  6
CONTINUOUS
 62
  256
370
   -1
100
AcDbLine
 10
79.1183
 20
-66.6195
 11
79.08
 21
-66.5428
  0
LINE
  5
281
100
AcDbEntity
  8
BLACK
  6
CONTINUOUS
 62
  256
370
   -1
100
AcDbLine
 10
79.08
 20
-66.5428
 11
79.0063
 21
-66.4691
  0
LINE
  5
282
100
AcDbEntity
  8
BLACK
  6
CONTINUOUS
 62
  256
370
   -1
100
AcDbLine
 10
79.0063
 20
-66.4691
 11
78.89230000000001
 21
-66.4312
  0
LINE
  5
283
100
AcDbEntity
  8
BLACK
  6
CONTINUOUS
 62
  256
370
   -1
100
AcDbLine
 10
78.89230000000001
 20
-66.4312
 11
78.78
 21
-66.4312
  0
LINE
  5
284
100
AcDbEntity
  8
BLACK
  6
CONTINUOUS
 62
  256
370
   -1
100
AcDbLine
 10
78.78
 20
-66.4312
 11
78.7009
 21
-66.47069999999999
  0
LINE
  5
285
100
AcDbEntity
  8
BLACK
  6
CONTINUOUS
 62
  256
370
   -1
100
AcDbLine
 10
78.7009
 20
-66.47069999999999
 11
78.6754
 21
-66.4783
  0
LINE
  5
286
100
AcDbEntity
  8
BLACK
  6
CONTINUOUS
 62
  256
370
   -1
100
AcDbLine
 10
78.6754
 20
-66.4783
 11
78.6245
 21
-66.4661
  0
LINE
  5
287
100
AcDbEntity
  8
BLACK
  6
CONTINUOUS
 62
  256
370
   -1
100
AcDbLine
 10
78.6245
 20
-66.4661
 11
78.5933
 21
-66.4241
  0
LINE
  5
288
100
AcDbEntity
  8
BLACK
  6
CONTINUOUS
 62
  256
370
   -1
100
AcDbLine
 10
78.5933
 20
-66.4241
 11
78.59650000000001
 21
-66.3719
  0
LINE
  5
289
100
AcDbEntity
  8
BLACK
  6
CONTINUOUS
 62
  256
370
   -1
100
AcDbLine
 10
78.59650000000001
 20
-66.3719
 11
78.63249999999999
 21
-66.3339
  0
LINE
  5
28A
100
AcDbEntity
  8
BLACK
  6
CONTINUOUS
 62
  256
370
   -1
100
AcDbLine
 10
78.63249999999999
 20
-66.3339
 11
78.7277
 21
-66.28619999999999
  0
LINE
  5
28B
100
AcDbEntity
  8
BLACK
  6
CONTINUOUS
 62
  256
370
   -1
100
AcDbLine
 10
78.7277
 20
-66.28619999999999
 11
78.75320000000001
 21
-66.2787
  0
LINE
  5
28C
100
AcDbEntity
  8
BLACK
  6
CONTINUOUS
 62
  256
370
   -1
100
AcDbLine
 10
78.75320000000001
 20
-66.2787
 11
78.7576
 21
-66.27970000000001
  0
LINE
  5
28D
100
AcDbEntity
  8
BLACK
  6
CONTINUOUS
 62
  256
370
   -1
100
AcDbLine
 10
78.7576
 20
-66.27970000000001
 11
78.7619
 21
-66.2782
  0
LINE
  5
28E
100
AcDbEntity
  8
BLACK
  6
CONTINUOUS
 62
  256
370
   -1
100
AcDbLine
 10
78.7619
 20
-66.2782
 11
78.90479999999999
 21
-66.2782
  0
LINE
  5
28F
100
AcDbEntity
  8
BLACK
  6
CONTINUOUS
 62
  256
370
   -1
100
AcDbLine
 10
78.90479999999999
 20
-66.2782
 11
78.9273
 21
-66.2821
  0
LINE
  5
290
100
AcDbEntity
  8
BLACK
  6
CONTINUOUS
 62
  256
370
   -1
100
AcDbLine
 10
122.165
 20
-66.28149999999999
 11
122.169
 21
-66.2812
  0
LINE
  5
291
100
AcDbEntity
  8
BLACK
  6
CONTINUOUS
 62
  256
370
   -1
100
AcDbLine
 10
122.169
 20
-66.2812
 11
122.187
 21
-66.2944
  0
LINE
  5
292
100
AcDbEntity
  8
BLACK
  6
CONTINUOUS
 62
  256
370
   -1
100
AcDbLine
 10
122.187
 20
-66.2944
 11
122.206
 21
-66.30549999999999
  0
LINE
  5
293
100
AcDbEntity
  8
BLACK
  6
CONTINUOUS
 62
  256
370
   -1
100
AcDbLine
 10
122.206
 20
-66.30549999999999
 11
122.208
 21
-66.3096
  0
LINE
  5
294
100
AcDbEntity
  8
BLACK
  6
CONTINUOUS
 62
  256
370
   -1
100
AcDbLine
 10
122.208
 20
-66.3096
 11
122.211
 21
-66.3122
  0
LINE
  5
295
100
AcDbEntity
  8
BLACK
  6
CONTINUOUS
 62
  256
370
   -1
100
AcDbLine
 10
122.211
 20
-66.3122
 11
122.302
 21
-66.44880000000001
  0
LINE
  5
296
100
AcDbEntity
  8
BLACK
  6
CONTINUOUS
 62
  256
370
   -1
100
AcDbLine
 10
122.302
 20
-66.44880000000001
 11
122.383
 21
-66.5299
  0
LINE
  5
297
100
AcDbEntity
  8
BLACK
  6
CONTINUOUS
 62
  256
370
   -1
100
AcDbLine
 10
122.383
 20
-66.5299
 11
122.468
 21
-66.572
  0
LINE
  5
298
100
AcDbEntity
  8
BLACK
  6
CONTINUOUS
 62
  256
370
   -1
100
AcDbLine
 10
122.468
 20
-66.572
 11
122.489
 21
-66.5878
  0
LINE
  5
299
100
AcDbEntity
  8
BLACK
  6
CONTINUOUS
 62
  256
370
   -1
100
AcDbLine
 10
122.489
 20
-66.5878
 11
122.51
 21
-66.6358
  0
LINE
  5
29A
100
AcDbEntity
  8
BLACK
  6
CONTINUOUS
 62
  256
370
   -1
100
AcDbLine
 10
122.51
 20
-66.6358
 11
122.495
 21
-66.68600000000001
  0
LINE
  5
29B
100
AcDbEntity
  8
BLACK
  6
CONTINUOUS
 62
  256
370
   -1
100
AcDbLine
 10
122.495
 20
-66.68600000000001
 11
122.451
 21
-66.7148
  0
LINE
  5
29C
100
AcDbEntity
  8
BLACK
  6
CONTINUOUS
 62
  256
370
   -1
100
AcDbLine
 10
122.451
 20
-66.7148
 11
122.399
 21
-66.7088
  0
LINE
  5
29D
100
AcDbEntity
  8
BLACK
  6
CONTINUOUS
 62
  256
370
   -1
100
AcDbLine
 10
122.399
 20
-66.7088
 11
122.304
 21
-66.66119999999999
  0
LINE
  5
29E
100
AcDbEntity
  8
BLACK
  6
CONTINUOUS
 62
  256
370
   -1
100
AcDbLine
 10
122.304
 20
-66.66119999999999
 11
122.286
 21
-66.6476
  0
LINE
  5
29F
100
AcDbEntity
  8
BLACK
  6
CONTINUOUS
 62
  256
370
   -1
100
AcDbLine
 10
122.286
 20
-66.6476
 11
122.284
 21
-66.6469
  0
LINE
  5
2A0
100
AcDbEntity
  8
BLACK
  6
CONTINUOUS
 62
  256
370
   -1
100
AcDbLine
 10
122.284
 20
-66.6469
 11
122.224
 21
-66.587
  0
LINE
  5
2A1
100
AcDbEntity
  8
BLACK
  6
CONTINUOUS
 62
  256
370
   -1
100
AcDbLine
 10
122.224
 20
-66.587
 11
122.224
 21
-67.2782
  0
LINE
  5
2A2
100
AcDbEntity
  8
BLACK
  6
CONTINUOUS
 62
  256
370
   -1
100
AcDbLine
 10
122.224
 20
-67.2782
 11
122.433
 21
-67.2782
  0
LINE
  5
2A3
100
AcDbEntity
  8
BLACK
  6
CONTINUOUS
 62
  256
370
   -1
100
AcDbLine
 10
122.433
 20
-67.2782
 11
122.459
 21
-67.28279999999999
  0
LINE
  5
2A4
100
AcDbEntity
  8
BLACK
  6
CONTINUOUS
 62
  256
370
   -1
100
AcDbLine
 10
122.459
 20
-67.28279999999999
 11
122.5
 21
-67.3164
  0
LINE
  5
2A5
100
AcDbEntity
  8
BLACK
  6
CONTINUOUS
 62
  256
370
   -1
100
AcDbLine
 10
122.5
 20
-67.3164
 11
122.509
 21
-67.36790000000001
  0
LINE
  5
2A6
100
AcDbEntity
  8
BLACK
  6
CONTINUOUS
 62
  256
370
   -1
100
AcDbLine
 10
122.509
 20
-67.36790000000001
 11
122.483
 21
-67.41330000000001
  0
LINE
  5
2A7
100
AcDbEntity
  8
BLACK
  6
CONTINUOUS
 62
  256
370
   -1
100
AcDbLine
 10
122.483
 20
-67.41330000000001
 11
122.433
 21
-67.4312
  0
LINE
  5
2A8
100
AcDbEntity
  8
BLACK
  6
CONTINUOUS
 62
  256
370
   -1
100
AcDbLine
 10
122.433
 20
-67.4312
 11
121.862
 21
-67.4312
  0
LINE
  5
2A9
100
AcDbEntity
  8
BLACK
  6
CONTINUOUS
 62
  256
370
   -1
100
AcDbLine
 10
121.862
 20
-67.4312
 11
121.836
 21
-67.4265
  0
LINE
  5
2AA
100
AcDbEntity
  8
BLACK
  6
CONTINUOUS
 62
  256
370
   -1
100
AcDbLine
 10
121.836
 20
-67.4265
 11
121.796
 21
-67.3929
  0
LINE
  5
2AB
100
AcDbEntity
  8
BLACK
  6
CONTINUOUS
 62
  256
370
   -1
100
AcDbLine
 10
121.796
 20
-67.3929
 11
121.787
 21
-67.34139999999999
  0
LINE
  5
2AC
100
AcDbEntity
  8
BLACK
  6
CONTINUOUS
 62
  256
370
   -1
100
AcDbLine
 10
121.787
 20
-67.34139999999999
 11
121.813
 21
-67.2961
  0
LINE
  5
2AD
100
AcDbEntity
  8
BLACK
  6
CONTINUOUS
 62
  256
370
   -1
100
AcDbLine
 10
121.813
 20
-67.2961
 11
121.862
 21
-67.2782
  0
LINE
  5
2AE
100
AcDbEntity
  8
BLACK
  6
CONTINUOUS
 62
  256
370
   -1
100
AcDbLine
 10
121.862
 20
-67.2782
 11
122.071
 21
-67.2782
  0
LINE
  5
2AF
100
AcDbEntity
  8
BLACK
  6
CONTINUOUS
 62
  256
370
   -1
100
AcDbLine
 10
122.071
 20
-67.2782
 11
122.071
 21
-66.35469999999999
  0
LINE
  5
2B0
100
AcDbEntity
  8
BLACK
  6
CONTINUOUS
 62
  256
370
   -1
100
AcDbLine
 10
122.071
 20
-66.35469999999999
 11
122.076
 21
-66.32850000000001
  0
LINE
  5
2B1
100
AcDbEntity
  8
BLACK
  6
CONTINUOUS
 62
  256
370
   -1
100
AcDbLine
 10
122.076
 20
-66.32850000000001
 11
122.079
 21
-66.32510000000001
  0
LINE
  5
2B2
100
AcDbEntity
  8
BLACK
  6
CONTINUOUS
 62
  256
370
   -1
100
AcDbLine
 10
122.079
 20
-66.32510000000001
 11
122.079
 21
-66.32080000000001
  0
LINE
  5
2B3
100
AcDbEntity
  8
BLACK
  6
CONTINUOUS
 62
  256
370
   -1
100
AcDbLine
 10
122.079
 20
-66.32080000000001
 11
122.095
 21
-66.30540000000001
  0
LINE
  5
2B4
100
AcDbEntity
  8
BLACK
  6
CONTINUOUS
 62
  256
370
   -1
100
AcDbLine
 10
122.095
 20
-66.30540000000001
 11
122.109
 21
-66.2884
  0
LINE
  5
2B5
100
AcDbEntity
  8
BLACK
  6
CONTINUOUS
 62
  256
370
   -1
100
AcDbLine
 10
122.109
 20
-66.2884
 11
122.114
 21
-66.2876
  0
LINE
  5
2B6
100
AcDbEntity
  8
BLACK
  6
CONTINUOUS
 62
  256
370
   -1
100
AcDbLine
 10
122.114
 20
-66.2876
 11
122.117
 21
-66.2846
  0
LINE
  5
2B7
100
AcDbEntity
  8
BLACK
  6
CONTINUOUS
 62
  256
370
   -1
100
AcDbLine
 10
122.117
 20
-66.2846
 11
122.139
 21
-66.28319999999999
  0
LINE
  5
2B8
100
AcDbEntity
  8
BLACK
  6
CONTINUOUS
 62
  256
370
   -1
100
AcDbLine
 10
122.139
 20
-66.28319999999999
 11
122.161
 21
-66.27930000000001
  0
LINE
  5
2B9
100
AcDbEntity
  8
BLACK
  6
CONTINUOUS
 62
  256
370
   -1
100
AcDbLine
 10
122.161
 20
-66.27930000000001
 11
122.165
 21
-66.28149999999999
  0
LINE
  5
2BA
100
AcDbEntity
  8
BLACK
  6
CONTINUOUS
 62
  256
370
   -1
100
AcDbLine
 10
123.174
 20
-66.28279999999999
 11
123.177
 21
-66.28570000000001
  0
LINE
  5
2BB
100
AcDbEntity
  8
BLACK
  6
CONTINUOUS
 62
  256
370
   -1
100
AcDbLine
 10
123.177
 20
-66.28570000000001
 11
123.182
 21
-66.28619999999999
  0
LINE
  5
2BC
100
AcDbEntity
  8
BLACK
  6
CONTINUOUS
 62
  256
370
   -1
100
AcDbLine
 10
123.182
 20
-66.28619999999999
 11
123.277
 21
-66.3339
  0
LINE
  5
2BD
100
AcDbEntity
  8
BLACK
  6
CONTINUOUS
 62
  256
370
   -1
100
AcDbLine
 10
123.277
 20
-66.3339
 11
123.295
 21
-66.3475
  0
LINE
  5
2BE
100
AcDbEntity
  8
BLACK
  6
CONTINUOUS
 62
  256
370
   -1
100
AcDbLine
 10
123.295
 20
-66.3475
 11
123.297
 21
-66.34820000000001
  0
LINE
  5
2BF
100
AcDbEntity
  8
BLACK
  6
CONTINUOUS
 62
  256
370
   -1
100
AcDbLine
 10
123.297
 20
-66.34820000000001
 11
123.345
 21
-66.39579999999999
  0
LINE
  5
2C0
100
AcDbEntity
  8
BLACK
  6
CONTINUOUS
 62
  256
370
   -1
100
AcDbLine
 10
123.345
 20
-66.39579999999999
 11
123.358
 21
-66.4145
  0
LINE
  5
2C1
100
AcDbEntity
  8
BLACK
  6
CONTINUOUS
 62
  256
370
   -1
100
AcDbLine
 10
123.358
 20
-66.4145
 11
123.359
 21
-66.4157
  0
LINE
  5
2C2
100
AcDbEntity
  8
BLACK
  6
CONTINUOUS
 62
  256
370
   -1
100
AcDbLine
 10
123.359
 20
-66.4157
 11
123.407
 21
-66.51090000000001
  0
LINE
  5
2C3
100
AcDbEntity
  8
BLACK
  6
CONTINUOUS
 62
  256
370
   -1
100
AcDbLine
 10
123.407
 20
-66.51090000000001
 11
123.41
 21
-66.5236
  0
LINE
  5
2C4
100
AcDbEntity
  8
BLACK
  6
CONTINUOUS
 62
  256
370
   -1
100
AcDbLine
 10
123.41
 20
-66.5236
 11
123.412
 21
-66.5266
  0
LINE
  5
2C5
100
AcDbEntity
  8
BLACK
  6
CONTINUOUS
 62
  256
370
   -1
100
AcDbLine
 10
123.412
 20
-66.5266
 11
123.46
 21
-66.7171
  0
LINE
  5
2C6
100
AcDbEntity
  8
BLACK
  6
CONTINUOUS
 62
  256
370
   -1
100
AcDbLine
 10
123.46
 20
-66.7171
 11
123.461
 21
-66.7323
  0
LINE
  5
2C7
100
AcDbEntity
  8
BLACK
  6
CONTINUOUS
 62
  256
370
   -1
100
AcDbLine
 10
123.461
 20
-66.7323
 11
123.462
 21
-66.73560000000001
  0
LINE
  5
2C8
100
AcDbEntity
  8
BLACK
  6
CONTINUOUS
 62
  256
370
   -1
100
AcDbLine
 10
123.462
 20
-66.73560000000001
 11
123.462
 21
-66.97369999999999
  0
LINE
  5
2C9
100
AcDbEntity
  8
BLACK
  6
CONTINUOUS
 62
  256
370
   -1
100
AcDbLine
 10
123.462
 20
-66.97369999999999
 11
123.46
 21
-66.98869999999999
  0
LINE
  5
2CA
100
AcDbEntity
  8
BLACK
  6
CONTINUOUS
 62
  256
370
   -1
100
AcDbLine
 10
123.46
 20
-66.98869999999999
 11
123.46
 21
-66.9923
  0
LINE
  5
2CB
100
AcDbEntity
  8
BLACK
  6
CONTINUOUS
 62
  256
370
   -1
100
AcDbLine
 10
123.46
 20
-66.9923
 11
123.412
 21
-67.1827
  0
LINE
  5
2CC
100
AcDbEntity
  8
BLACK
  6
CONTINUOUS
 62
  256
370
   -1
100
AcDbLine
 10
123.412
 20
-67.1827
 11
123.407
 21
-67.1948
  0
LINE
  5
2CD
100
AcDbEntity
  8
BLACK
  6
CONTINUOUS
 62
  256
370
   -1
100
AcDbLine
 10
123.407
 20
-67.1948
 11
123.407
 21
-67.19840000000001
  0
LINE
  5
2CE
100
AcDbEntity
  8
BLACK
  6
CONTINUOUS
 62
  256
370
   -1
100
AcDbLine
 10
123.407
 20
-67.19840000000001
 11
123.359
 21
-67.2936
  0
LINE
  5
2CF
100
AcDbEntity
  8
BLACK
  6
CONTINUOUS
 62
  256
370
   -1
100
AcDbLine
 10
123.359
 20
-67.2936
 11
123.345
 21
-67.312
  0
LINE
  5
2D0
100
AcDbEntity
  8
BLACK
  6
CONTINUOUS
 62
  256
370
   -1
100
AcDbLine
 10
123.345
 20
-67.312
 11
123.345
 21
-67.3135
  0
LINE
  5
2D1
100
AcDbEntity
  8
BLACK
  6
CONTINUOUS
 62
  256
370
   -1
100
AcDbLine
 10
123.345
 20
-67.3135
 11
123.297
 21
-67.36109999999999
  0
LINE
  5
2D2
100
AcDbEntity
  8
BLACK
  6
CONTINUOUS
 62
  256
370
   -1
100
AcDbLine
 10
123.297
 20
-67.36109999999999
 11
123.278
 21
-67.37430000000001
  0
LINE
  5
2D3
100
AcDbEntity
  8
BLACK
  6
CONTINUOUS
 62
  256
370
   -1
100
AcDbLine
 10
123.278
 20
-67.37430000000001
 11
123.277
 21
-67.3755
  0
LINE
  5
2D4
100
AcDbEntity
  8
BLACK
  6
CONTINUOUS
 62
  256
370
   -1
100
AcDbLine
 10
123.277
 20
-67.3755
 11
123.182
 21
-67.42310000000001
  0
LINE
  5
2D5
100
AcDbEntity
  8
BLACK
  6
CONTINUOUS
 62
  256
370
   -1
100
AcDbLine
 10
123.182
 20
-67.42310000000001
 11
123.156
 21
-67.4307
  0
LINE
  5
2D6
100
AcDbEntity
  8
BLACK
  6
CONTINUOUS
 62
  256
370
   -1
100
AcDbLine
 10
123.156
 20
-67.4307
 11
123.152
 21
-67.42959999999999
  0
LINE
  5
2D7
100
AcDbEntity
  8
BLACK
  6
CONTINUOUS
 62
  256
370
   -1
100
AcDbLine
 10
123.152
 20
-67.42959999999999
 11
123.148
 21
-67.4312
  0
LINE
  5
2D8
100
AcDbEntity
  8
BLACK
  6
CONTINUOUS
 62
  256
370
   -1
100
AcDbLine
 10
123.148
 20
-67.4312
 11
123.052
 21
-67.4312
  0
LINE
  5
2D9
100
AcDbEntity
  8
BLACK
  6
CONTINUOUS
 62
  256
370
   -1
100
AcDbLine
 10
123.052
 20
-67.4312
 11
123.026
 21
-67.4265
  0
LINE
  5
2DA
100
AcDbEntity
  8
BLACK
  6
CONTINUOUS
 62
  256
370
   -1
100
AcDbLine
 10
123.026
 20
-67.4265
 11
123.023
 21
-67.42359999999999
  0
LINE
  5
2DB
100
AcDbEntity
  8
BLACK
  6
CONTINUOUS
 62
  256
370
   -1
100
AcDbLine
 10
123.023
 20
-67.42359999999999
 11
123.018
 21
-67.42310000000001
  0
LINE
  5
2DC
100
AcDbEntity
  8
BLACK
  6
CONTINUOUS
 62
  256
370
   -1
100
AcDbLine
 10
123.018
 20
-67.42310000000001
 11
122.923
 21
-67.3755
  0
LINE
  5
2DD
100
AcDbEntity
  8
BLACK
  6
CONTINUOUS
 62
  256
370
   -1
100
AcDbLine
 10
122.923
 20
-67.3755
 11
122.905
 21
-67.3618
  0
LINE
  5
2DE
100
AcDbEntity
  8
BLACK
  6
CONTINUOUS
 62
  256
370
   -1
100
AcDbLine
 10
122.905
 20
-67.3618
 11
122.903
 21
-67.36109999999999
  0
LINE
  5
2DF
100
AcDbEntity
  8
BLACK
  6
CONTINUOUS
 62
  256
370
   -1
100
AcDbLine
 10
122.903
 20
-67.36109999999999
 11
122.855
 21
-67.3135
  0
LINE
  5
2E0
100
AcDbEntity
  8
BLACK
  6
CONTINUOUS
 62
  256
370
   -1
100
AcDbLine
 10
122.855
 20
-67.3135
 11
122.842
 21
-67.2948
  0
LINE
  5
2E1
100
AcDbEntity
  8
BLACK
  6
CONTINUOUS
 62
  256
370
   -1
100
AcDbLine
 10
122.842
 20
-67.2948
 11
122.841
 21
-67.2936
  0
LINE
  5
2E2
100
AcDbEntity
  8
BLACK
  6
CONTINUOUS
 62
  256
370
   -1
100
AcDbLine
 10
122.841
 20
-67.2936
 11
122.793
 21
-67.19840000000001
  0
LINE
  5
2E3
100
AcDbEntity
  8
BLACK
  6
CONTINUOUS
 62
  256
370
   -1
100
AcDbLine
 10
122.793
 20
-67.19840000000001
 11
122.79
 21
-67.1857
  0
LINE
  5
2E4
100
AcDbEntity
  8
BLACK
  6
CONTINUOUS
 62
  256
370
   -1
100
AcDbLine
 10
122.79
 20
-67.1857
 11
122.788
 21
-67.1827
  0
LINE
  5
2E5
100
AcDbEntity
  8
BLACK
  6
CONTINUOUS
 62
  256
370
   -1
100
AcDbLine
 10
122.788
 20
-67.1827
 11
122.74
 21
-66.9923
  0
LINE
  5
2E6
100
AcDbEntity
  8
BLACK
  6
CONTINUOUS
 62
  256
370
   -1
100
AcDbLine
 10
122.74
 20
-66.9923
 11
122.739
 21
-66.977
  0
LINE
  5
2E7
100
AcDbEntity
  8
BLACK
  6
CONTINUOUS
 62
  256
370
   -1
100
AcDbLine
 10
122.739
 20
-66.977
 11
122.738
 21
-66.97369999999999
  0
LINE
  5
2E8
100
AcDbEntity
  8
BLACK
  6
CONTINUOUS
 62
  256
370
   -1
100
AcDbLine
 10
122.738
 20
-66.97369999999999
 11
122.738
 21
-66.73560000000001
  0
LINE
  5
2E9
100
AcDbEntity
  8
BLACK
  6
CONTINUOUS
 62
  256
370
   -1
100
AcDbLine
 10
122.738
 20
-66.73560000000001
 11
122.74
 21
-66.7206
  0
LINE
  5
2EA
100
AcDbEntity
  8
BLACK
  6
CONTINUOUS
 62
  256
370
   -1
100
AcDbLine
 10
122.74
 20
-66.7206
 11
122.74
 21
-66.7171
  0
LINE
  5
2EB
100
AcDbEntity
  8
BLACK
  6
CONTINUOUS
 62
  256
370
   -1
100
AcDbLine
 10
122.74
 20
-66.7171
 11
122.788
 21
-66.5266
  0
LINE
  5
2EC
100
AcDbEntity
  8
BLACK
  6
CONTINUOUS
 62
  256
370
   -1
100
AcDbLine
 10
122.788
 20
-66.5266
 11
122.793
 21
-66.5145
  0
LINE
  5
2ED
100
AcDbEntity
  8
BLACK
  6
CONTINUOUS
 62
  256
370
   -1
100
AcDbLine
 10
122.793
 20
-66.5145
 11
122.793
 21
-66.51090000000001
  0
LINE
  5
2EE
100
AcDbEntity
  8
BLACK
  6
CONTINUOUS
 62
  256
370
   -1
100
AcDbLine
 10
122.793
 20
-66.51090000000001
 11
122.841
 21
-66.4157
  0
LINE
  5
2EF
100
AcDbEntity
  8
BLACK
  6
CONTINUOUS
 62
  256
370
   -1
100
AcDbLine
 10
122.841
 20
-66.4157
 11
122.855
 21
-66.3973
  0
LINE
  5
2F0
100
AcDbEntity
  8
BLACK
  6
CONTINUOUS
 62
  256
370
   -1
100
AcDbLine
 10
122.855
 20
-66.3973
 11
122.855
 21
-66.39579999999999
  0
LINE
  5
2F1
100
AcDbEntity
  8
BLACK
  6
CONTINUOUS
 62
  256
370
   -1
100
AcDbLine
 10
122.855
 20
-66.39579999999999
 11
122.903
 21
-66.34820000000001
  0
LINE
  5
2F2
100
AcDbEntity
  8
BLACK
  6
CONTINUOUS
 62
  256
370
   -1
100
AcDbLine
 10
122.903
 20
-66.34820000000001
 11
122.922
 21
-66.3351
  0
LINE
  5
2F3
100
AcDbEntity
  8
BLACK
  6
CONTINUOUS
 62
  256
370
   -1
100
AcDbLine
 10
122.922
 20
-66.3351
 11
122.923
 21
-66.3339
  0
LINE
  5
2F4
100
AcDbEntity
  8
BLACK
  6
CONTINUOUS
 62
  256
370
   -1
100
AcDbLine
 10
122.923
 20
-66.3339
 11
123.018
 21
-66.28619999999999
  0
LINE
  5
2F5
100
AcDbEntity
  8
BLACK
  6
CONTINUOUS
 62
  256
370
   -1
100
AcDbLine
 10
123.018
 20
-66.28619999999999
 11
123.044
 21
-66.2787
  0
LINE
  5
2F6
100
AcDbEntity
  8
BLACK
  6
CONTINUOUS
 62
  256
370
   -1
100
AcDbLine
 10
123.044
 20
-66.2787
 11
123.048
 21
-66.27970000000001
  0
LINE
  5
2F7
100
AcDbEntity
  8
BLACK
  6
CONTINUOUS
 62
  256
370
   -1
100
AcDbLine
 10
123.048
 20
-66.27970000000001
 11
123.052
 21
-66.2782
  0
LINE
  5
2F8
100
AcDbEntity
  8
BLACK
  6
CONTINUOUS
 62
  256
370
   -1
100
AcDbLine
 10
123.052
 20
-66.2782
 11
123.148
 21
-66.2782
  0
LINE
  5
2F9
100
AcDbEntity
  8
BLACK
  6
CONTINUOUS
 62
  256
370
   -1
100
AcDbLine
 10
123.148
 20
-66.2782
 11
123.174
 21
-66.28279999999999
  0
LINE
  5
2FA
100
AcDbEntity
  8
BLACK
  6
CONTINUOUS
 62
  256
370
   -1
100
AcDbLine
 10
123.002
 20
-66.4652
 11
122.972
 21
-66.4952
  0
LINE
  5
2FB
100
AcDbEntity
  8
BLACK
  6
CONTINUOUS
 62
  256
370
   -1
100
AcDbLine
 10
122.972
 20
-66.4952
 11
122.934
 21
-66.5718
  0
LINE
  5
2FC
100
AcDbEntity
  8
BLACK
  6
CONTINUOUS
 62
  256
370
   -1
100
AcDbLine
 10
122.934
 20
-66.5718
 11
122.891
 21
-66.745
  0
LINE
  5
2FD
100
AcDbEntity
  8
BLACK
  6
CONTINUOUS
 62
  256
370
   -1
100
AcDbLine
 10
122.891
 20
-66.745
 11
122.891
 21
-66.96429999999999
  0
LINE
  5
2FE
100
AcDbEntity
  8
BLACK
  6
CONTINUOUS
 62
  256
370
   -1
100
AcDbLine
 10
122.891
 20
-66.96429999999999
 11
122.934
 21
-67.1375
  0
LINE
  5
2FF
100
AcDbEntity
  8
BLACK
  6
CONTINUOUS
 62
  256
370
   -1
100
AcDbLine
 10
122.934
 20
-67.1375
 11
122.972
 21
-67.2141
  0
LINE
  5
300
100
AcDbEntity
  8
BLACK
  6
CONTINUOUS
 62
  256
370
   -1
100
AcDbLine
 10
122.972
 20
-67.2141
 11
123.002
 21
-67.24420000000001
  0
LINE
  5
301
100
AcDbEntity
  8
BLACK
  6
CONTINUOUS
 62
  256
370
   -1
100
AcDbLine
 10
123.002
 20
-67.24420000000001
 11
123.07
 21
-67.2782
  0
LINE
  5
302
100
AcDbEntity
  8
BLACK
  6
CONTINUOUS
 62
  256
370
   -1
100
AcDbLine
 10
123.07
 20
-67.2782
 11
123.13
 21
-67.2782
  0
LINE
  5
303
100
AcDbEntity
  8
BLACK
  6
CONTINUOUS
 62
  256
370
   -1
100
AcDbLine
 10
123.13
 20
-67.2782
 11
123.198
 21
-67.24420000000001
  0
LINE
  5
304
100
AcDbEntity
  8
BLACK
  6
CONTINUOUS
 62
  256
370
   -1
100
AcDbLine
 10
123.198
 20
-67.24420000000001
 11
123.228
 21
-67.2141
  0
LINE
  5
305
100
AcDbEntity
  8
BLACK
  6
CONTINUOUS
 62
  256
370
   -1
100
AcDbLine
 10
123.228
 20
-67.2141
 11
123.266
 21
-67.1375
  0
LINE
  5
306
100
AcDbEntity
  8
BLACK
  6
CONTINUOUS
 62
  256
370
   -1
100
AcDbLine
 10
123.266
 20
-67.1375
 11
123.309
 21
-66.96429999999999
  0
LINE
  5
307
100
AcDbEntity
  8
BLACK
  6
CONTINUOUS
 62
  256
370
   -1
100
AcDbLine
 10
123.309
 20
-66.96429999999999
 11
123.309
 21
-66.745
  0
LINE
  5
308
100
AcDbEntity
  8
BLACK
  6
CONTINUOUS
 62
  256
370
   -1
100
AcDbLine
 10
123.309
 20
-66.745
 11
123.266
 21
-66.5718
  0
LINE
  5
309
100
AcDbEntity
  8
BLACK
  6
CONTINUOUS
 62
  256
370
   -1
100
AcDbLine
 10
123.266
 20
-66.5718
 11
123.228
 21
-66.4952
  0
LINE
  5
30A
100
AcDbEntity
  8
BLACK
  6
CONTINUOUS
 62
  256
370
   -1
100
AcDbLine
 10
123.228
 20
-66.4952
 11
123.198
 21
-66.4652
  0
LINE
  5
30B
100
AcDbEntity
  8
BLACK
  6
CONTINUOUS
 62
  256
370
   -1
100
AcDbLine
 10
123.198
 20
-66.4652
 11
123.13
 21
-66.4312
  0
LINE
  5
30C
100
AcDbEntity
  8
BLACK
  6
CONTINUOUS
 62
  256
370
   -1
100
AcDbLine
 10
123.13
 20
-66.4312
 11
123.07
 21
-66.4312
  0
LINE
  5
30D
100
AcDbEntity
  8
BLACK
  6
CONTINUOUS
 62
  256
370
   -1
100
AcDbLine
 10
123.07
 20
-66.4312
 11
123.002
 21
-66.4652
  0
LINE
  5
30E
100
AcDbEntity
  8
BLACK
  6
CONTINUOUS
 62
  256
370
   -1
100
AcDbLine
 10
124.412
 20
-66.28279999999999
 11
124.452
 21
-66.3164
  0
LINE
  5
30F
100
AcDbEntity
  8
BLACK
  6
CONTINUOUS
 62
  256
370
   -1
100
AcDbLine
 10
124.452
 20
-66.3164
 11
124.461
 21
-66.36790000000001
  0
LINE
  5
310
100
AcDbEntity
  8
BLACK
  6
CONTINUOUS
 62
  256
370
   -1
100
AcDbLine
 10
124.461
 20
-66.36790000000001
 11
124.435
 21
-66.41330000000001
  0
LINE
  5
311
100
AcDbEntity
  8
BLACK
  6
CONTINUOUS
 62
  256
370
   -1
100
AcDbLine
 10
124.435
 20
-66.41330000000001
 11
124.386
 21
-66.4312
  0
LINE
  5
312
100
AcDbEntity
  8
BLACK
  6
CONTINUOUS
 62
  256
370
   -1
100
AcDbLine
 10
124.386
 20
-66.4312
 11
123.935
 21
-66.4312
  0
LINE
  5
313
100
AcDbEntity
  8
BLACK
  6
CONTINUOUS
 62
  256
370
   -1
100
AcDbLine
 10
123.935
 20
-66.4312
 11
124.158
 21
-66.68519999999999
  0
LINE
  5
314
100
AcDbEntity
  8
BLACK
  6
CONTINUOUS
 62
  256
370
   -1
100
AcDbLine
 10
124.158
 20
-66.68519999999999
 11
124.164
 21
-66.6951
  0
LINE
  5
315
100
AcDbEntity
  8
BLACK
  6
CONTINUOUS
 62
  256
370
   -1
100
AcDbLine
 10
124.164
 20
-66.6951
 11
124.166
 21
-66.6974
  0
LINE
  5
316
100
AcDbEntity
  8
BLACK
  6
CONTINUOUS
 62
  256
370
   -1
100
AcDbLine
 10
124.166
 20
-66.6974
 11
124.167
 21
-66.70050000000001
  0
LINE
  5
317
100
AcDbEntity
  8
BLACK
  6
CONTINUOUS
 62
  256
370
   -1
100
AcDbLine
 10
124.167
 20
-66.70050000000001
 11
124.171
 21
-66.708
  0
LINE
  5
318
100
AcDbEntity
  8
BLACK
  6
CONTINUOUS
 62
  256
370
   -1
100
AcDbLine
 10
124.171
 20
-66.708
 11
124.172
 21
-66.7286
  0
LINE
  5
319
100
AcDbEntity
  8
BLACK
  6
CONTINUOUS
 62
  256
370
   -1
100
AcDbLine
 10
124.172
 20
-66.7286
 11
124.175
 21
-66.74890000000001
  0
LINE
  5
31A
100
AcDbEntity
  8
BLACK
  6
CONTINUOUS
 62
  256
370
   -1
100
AcDbLine
 10
124.175
 20
-66.74890000000001
 11
124.172
 21
-66.7542
  0
LINE
  5
31B
100
AcDbEntity
  8
BLACK
  6
CONTINUOUS
 62
  256
370
   -1
100
AcDbLine
 10
124.172
 20
-66.7542
 11
124.172
 21
-66.7603
  0
LINE
  5
31C
100
AcDbEntity
  8
BLACK
  6
CONTINUOUS
 62
  256
370
   -1
100
AcDbLine
 10
124.172
 20
-66.7603
 11
124.159
 21
-66.7764
  0
LINE
  5
31D
100
AcDbEntity
  8
BLACK
  6
CONTINUOUS
 62
  256
370
   -1
100
AcDbLine
 10
124.159
 20
-66.7764
 11
124.149
 21
-66.7942
  0
LINE
  5
31E
100
AcDbEntity
  8
BLACK
  6
CONTINUOUS
 62
  256
370
   -1
100
AcDbLine
 10
124.149
 20
-66.7942
 11
124.143
 21
-66.7963
  0
LINE
  5
31F
100
AcDbEntity
  8
BLACK
  6
CONTINUOUS
 62
  256
370
   -1
100
AcDbLine
 10
124.143
 20
-66.7963
 11
124.14
 21
-66.80110000000001
  0
LINE
  5
320
100
AcDbEntity
  8
BLACK
  6
CONTINUOUS
 62
  256
370
   -1
100
AcDbLine
 10
124.14
 20
-66.80110000000001
 11
124.119
 21
-66.8051
  0
LINE
  5
321
100
AcDbEntity
  8
BLACK
  6
CONTINUOUS
 62
  256
370
   -1
100
AcDbLine
 10
124.119
 20
-66.8051
 11
124.1
 21
-66.8121
  0
LINE
  5
322
100
AcDbEntity
  8
BLACK
  6
CONTINUOUS
 62
  256
370
   -1
100
AcDbLine
 10
124.1
 20
-66.8121
 11
123.975
 21
-66.8121
  0
LINE
  5
323
100
AcDbEntity
  8
BLACK
  6
CONTINUOUS
 62
  256
370
   -1
100
AcDbLine
 10
123.975
 20
-66.8121
 11
123.907
 21
-66.84610000000001
  0
LINE
  5
324
100
AcDbEntity
  8
BLACK
  6
CONTINUOUS
 62
  256
370
   -1
100
AcDbLine
 10
123.907
 20
-66.84610000000001
 11
123.877
 21
-66.8762
  0
LINE
  5
325
100
AcDbEntity
  8
BLACK
  6
CONTINUOUS
 62
  256
370
   -1
100
AcDbLine
 10
123.877
 20
-66.8762
 11
123.843
 21
-66.94410000000001
  0
LINE
  5
326
100
AcDbEntity
  8
BLACK
  6
CONTINUOUS
 62
  256
370
   -1
100
AcDbLine
 10
123.843
 20
-66.94410000000001
 11
123.843
 21
-67.1461
  0
LINE
  5
327
100
AcDbEntity
  8
BLACK
  6
CONTINUOUS
 62
  256
370
   -1
100
AcDbLine
 10
123.843
 20
-67.1461
 11
123.877
 21
-67.2141
  0
LINE
  5
328
100
AcDbEntity
  8
BLACK
  6
CONTINUOUS
 62
  256
370
   -1
100
AcDbLine
 10
123.877
 20
-67.2141
 11
123.907
 21
-67.24420000000001
  0
LINE
  5
329
100
AcDbEntity
  8
BLACK
  6
CONTINUOUS
 62
  256
370
   -1
100
AcDbLine
 10
123.907
 20
-67.24420000000001
 11
123.975
 21
-67.2782
  0
LINE
  5
32A
100
AcDbEntity
  8
BLACK
  6
CONTINUOUS
 62
  256
370
   -1
100
AcDbLine
 10
123.975
 20
-67.2782
 11
124.225
 21
-67.2782
  0
LINE
  5
32B
100
AcDbEntity
  8
BLACK
  6
CONTINUOUS
 62
  256
370
   -1
100
AcDbLine
 10
124.225
 20
-67.2782
 11
124.293
 21
-67.24420000000001
  0
LINE
  5
32C
100
AcDbEntity
  8
BLACK
  6
CONTINUOUS
 62
  256
370
   -1
100
AcDbLine
 10
124.293
 20
-67.24420000000001
 11
124.332
 21
-67.20529999999999
  0
LINE
  5
32D
100
AcDbEntity
  8
BLACK
  6
CONTINUOUS
 62
  256
370
   -1
100
AcDbLine
 10
124.332
 20
-67.20529999999999
 11
124.353
 21
-67.1901
  0
LINE
  5
32E
100
AcDbEntity
  8
BLACK
  6
CONTINUOUS
 62
  256
370
   -1
100
AcDbLine
 10
124.353
 20
-67.1901
 11
124.406
 21
-67.1855
  0
LINE
  5
32F
100
AcDbEntity
  8
BLACK
  6
CONTINUOUS
 62
  256
370
   -1
100
AcDbLine
 10
124.406
 20
-67.1855
 11
124.448
 21
-67.21550000000001
  0
LINE
  5
330
100
AcDbEntity
  8
BLACK
  6
CONTINUOUS
 62
  256
370
   -1
100
AcDbLine
 10
124.448
 20
-67.21550000000001
 11
124.462
 21
-67.26609999999999
  0
LINE
  5
331
100
AcDbEntity
  8
BLACK
  6
CONTINUOUS
 62
  256
370
   -1
100
AcDbLine
 10
124.462
 20
-67.26609999999999
 11
124.44
 21
-67.3135
  0
LINE
  5
332
100
AcDbEntity
  8
BLACK
  6
CONTINUOUS
 62
  256
370
   -1
100
AcDbLine
 10
124.44
 20
-67.3135
 11
124.392
 21
-67.36109999999999
  0
LINE
  5
333
100
AcDbEntity
  8
BLACK
  6
CONTINUOUS
 62
  256
370
   -1
100
AcDbLine
 10
124.392
 20
-67.36109999999999
 11
124.373
 21
-67.37430000000001
  0
LINE
  5
334
100
AcDbEntity
  8
BLACK
  6
CONTINUOUS
 62
  256
370
   -1
100
AcDbLine
 10
124.373
 20
-67.37430000000001
 11
124.372
 21
-67.3755
  0
LINE
  5
335
100
AcDbEntity
  8
BLACK
  6
CONTINUOUS
 62
  256
370
   -1
100
AcDbLine
 10
124.372
 20
-67.3755
 11
124.277
 21
-67.42310000000001
  0
LINE
  5
336
100
AcDbEntity
  8
BLACK
  6
CONTINUOUS
 62
  256
370
   -1
100
AcDbLine
 10
124.277
 20
-67.42310000000001
 11
124.252
 21
-67.4307
  0
LINE
  5
337
100
AcDbEntity
  8
BLACK
  6
CONTINUOUS
 62
  256
370
   -1
100
AcDbLine
 10
124.252
 20
-67.4307
 11
124.247
 21
-67.42959999999999
  0
LINE
  5
338
100
AcDbEntity
  8
BLACK
  6
CONTINUOUS
 62
  256
370
   -1
100
AcDbLine
 10
124.247
 20
-67.42959999999999
 11
124.243
 21
-67.4312
  0
LINE
  5
339
100
AcDbEntity
  8
BLACK
  6
CONTINUOUS
 62
  256
370
   -1
100
AcDbLine
 10
124.243
 20
-67.4312
 11
123.957
 21
-67.4312
  0
LINE
  5
33A
100
AcDbEntity
  8
BLACK
  6
CONTINUOUS
 62
  256
370
   -1
100
AcDbLine
 10
123.957
 20
-67.4312
 11
123.931
 21
-67.4265
  0
LINE
  5
33B
100
AcDbEntity
  8
BLACK
  6
CONTINUOUS
 62
  256
370
   -1
100
AcDbLine
 10
123.931
 20
-67.4265
 11
123.927
 21
-67.42359999999999
  0
LINE
  5
33C
100
AcDbEntity
  8
BLACK
  6
CONTINUOUS
 62
  256
370
   -1
100
AcDbLine
 10
123.927
 20
-67.42359999999999
 11
123.923
 21
-67.42310000000001
  0
LINE
  5
33D
100
AcDbEntity
  8
BLACK
  6
CONTINUOUS
 62
  256
370
   -1
100
AcDbLine
 10
123.923
 20
-67.42310000000001
 11
123.828
 21
-67.3755
  0
LINE
  5
33E
100
AcDbEntity
  8
BLACK
  6
CONTINUOUS
 62
  256
370
   -1
100
AcDbLine
 10
123.828
 20
-67.3755
 11
123.809
 21
-67.3618
  0
LINE
  5
33F
100
AcDbEntity
  8
BLACK
  6
CONTINUOUS
 62
  256
370
   -1
100
AcDbLine
 10
123.809
 20
-67.3618
 11
123.808
 21
-67.36109999999999
  0
LINE
  5
340
100
AcDbEntity
  8
BLACK
  6
CONTINUOUS
 62
  256
370
   -1
100
AcDbLine
 10
123.808
 20
-67.36109999999999
 11
123.76
 21
-67.3135
  0
LINE
  5
341
100
AcDbEntity
  8
BLACK
  6
CONTINUOUS
 62
  256
370
   -1
100
AcDbLine
 10
123.76
 20
-67.3135
 11
123.747
 21
-67.2948
  0
LINE
  5
342
100
AcDbEntity
  8
BLACK
  6
CONTINUOUS
 62
  256
370
   -1
100
AcDbLine
 10
123.747
 20
-67.2948
 11
123.746
 21
-67.2936
  0
LINE
  5
343
100
AcDbEntity
  8
BLACK
  6
CONTINUOUS
 62
  256
370
   -1
100
AcDbLine
 10
123.746
 20
-67.2936
 11
123.698
 21
-67.19840000000001
  0
LINE
  5
344
100
AcDbEntity
  8
BLACK
  6
CONTINUOUS
 62
  256
370
   -1
100
AcDbLine
 10
123.698
 20
-67.19840000000001
 11
123.691
 21
-67.1729
  0
LINE
  5
345
100
AcDbEntity
  8
BLACK
  6
CONTINUOUS
 62
  256
370
   -1
100
AcDbLine
 10
123.691
 20
-67.1729
 11
123.692
 21
-67.16849999999999
  0
LINE
  5
346
100
AcDbEntity
  8
BLACK
  6
CONTINUOUS
 62
  256
370
   -1
100
AcDbLine
 10
123.692
 20
-67.16849999999999
 11
123.69
 21
-67.16419999999999
  0
LINE
  5
347
100
AcDbEntity
  8
BLACK
  6
CONTINUOUS
 62
  256
370
   -1
100
AcDbLine
 10
123.69
 20
-67.16419999999999
 11
123.69
 21
-66.92610000000001
  0
LINE
  5
348
100
AcDbEntity
  8
BLACK
  6
CONTINUOUS
 62
  256
370
   -1
100
AcDbLine
 10
123.69
 20
-66.92610000000001
 11
123.695
 21
-66.8999
  0
LINE
  5
349
100
AcDbEntity
  8
BLACK
  6
CONTINUOUS
 62
  256
370
   -1
100
AcDbLine
 10
123.695
 20
-66.8999
 11
123.698
 21
-66.8964
  0
LINE
  5
34A
100
AcDbEntity
  8
BLACK
  6
CONTINUOUS
 62
  256
370
   -1
100
AcDbLine
 10
123.698
 20
-66.8964
 11
123.698
 21
-66.89190000000001
  0
LINE
  5
34B
100
AcDbEntity
  8
BLACK
  6
CONTINUOUS
 62
  256
370
   -1
100
AcDbLine
 10
123.698
 20
-66.89190000000001
 11
123.746
 21
-66.7966
  0
LINE
  5
34C
100
AcDbEntity
  8
BLACK
  6
CONTINUOUS
 62
  256
370
   -1
100
AcDbLine
 10
123.746
 20
-66.7966
 11
123.759
 21
-66.7783
  0
LINE
  5
34D
100
AcDbEntity
  8
BLACK
  6
CONTINUOUS
 62
  256
370
   -1
100
AcDbLine
 10
123.759
 20
-66.7783
 11
123.76
 21
-66.77679999999999
  0
LINE
  5
34E
100
AcDbEntity
  8
BLACK
  6
CONTINUOUS
 62
  256
370
   -1
100
AcDbLine
 10
123.76
 20
-66.77679999999999
 11
123.808
 21
-66.7291
  0
LINE
  5
34F
100
AcDbEntity
  8
BLACK
  6
CONTINUOUS
 62
  256
370
   -1
100
AcDbLine
 10
123.808
 20
-66.7291
 11
123.827
 21
-66.71599999999999
  0
LINE
  5
350
100
AcDbEntity
  8
BLACK
  6
CONTINUOUS
 62
  256
370
   -1
100
AcDbLine
 10
123.827
 20
-66.71599999999999
 11
123.828
 21
-66.7148
  0
LINE
  5
351
100
AcDbEntity
  8
BLACK
  6
CONTINUOUS
 62
  256
370
   -1
100
AcDbLine
 10
123.828
 20
-66.7148
 11
123.923
 21
-66.66719999999999
  0
LINE
  5
352
100
AcDbEntity
  8
BLACK
  6
CONTINUOUS
 62
  256
370
   -1
100
AcDbLine
 10
123.923
 20
-66.66719999999999
 11
123.935
 21
-66.6635
  0
LINE
  5
353
100
AcDbEntity
  8
BLACK
  6
CONTINUOUS
 62
  256
370
   -1
100
AcDbLine
 10
123.935
 20
-66.6635
 11
123.709
 21
-66.405
  0
LINE
  5
354
100
AcDbEntity
  8
BLACK
  6
CONTINUOUS
 62
  256
370
   -1
100
AcDbLine
 10
123.709
 20
-66.405
 11
123.703
 21
-66.3952
  0
LINE
  5
355
100
AcDbEntity
  8
BLACK
  6
CONTINUOUS
 62
  256
370
   -1
100
AcDbLine
 10
123.703
 20
-66.3952
 11
123.7
 21
-66.3929
  0
LINE
  5
356
100
AcDbEntity
  8
BLACK
  6
CONTINUOUS
 62
  256
370
   -1
100
AcDbLine
 10
123.7
 20
-66.3929
 11
123.7
 21
-66.38979999999999
  0
LINE
  5
357
100
AcDbEntity
  8
BLACK
  6
CONTINUOUS
 62
  256
370
   -1
100
AcDbLine
 10
123.7
 20
-66.38979999999999
 11
123.695
 21
-66.3823
  0
LINE
  5
358
100
AcDbEntity
  8
BLACK
  6
CONTINUOUS
 62
  256
370
   -1
100
AcDbLine
 10
123.695
 20
-66.3823
 11
123.695
 21
-66.3617
  0
LINE
  5
359
100
AcDbEntity
  8
BLACK
  6
CONTINUOUS
 62
  256
370
   -1
100
AcDbLine
 10
123.695
 20
-66.3617
 11
123.691
 21
-66.34139999999999
  0
LINE
  5
35A
100
AcDbEntity
  8
BLACK
  6
CONTINUOUS
 62
  256
370
   -1
100
AcDbLine
 10
123.691
 20
-66.34139999999999
 11
123.694
 21
-66.3361
  0
LINE
  5
35B
100
AcDbEntity
  8
BLACK
  6
CONTINUOUS
 62
  256
370
   -1
100
AcDbLine
 10
123.694
 20
-66.3361
 11
123.694
 21
-66.33
  0
LINE
  5
35C
100
AcDbEntity
  8
BLACK
  6
CONTINUOUS
 62
  256
370
   -1
100
AcDbLine
 10
123.694
 20
-66.33
 11
123.707
 21
-66.3139
  0
LINE
  5
35D
100
AcDbEntity
  8
BLACK
  6
CONTINUOUS
 62
  256
370
   -1
100
AcDbLine
 10
123.707
 20
-66.3139
 11
123.717
 21
-66.2961
  0
LINE
  5
35E
100
AcDbEntity
  8
BLACK
  6
CONTINUOUS
 62
  256
370
   -1
100
AcDbLine
 10
123.717
 20
-66.2961
 11
123.723
 21
-66.294
  0
LINE
  5
35F
100
AcDbEntity
  8
BLACK
  6
CONTINUOUS
 62
  256
370
   -1
100
AcDbLine
 10
123.723
 20
-66.294
 11
123.727
 21
-66.28919999999999
  0
LINE
  5
360
100
AcDbEntity
  8
BLACK
  6
CONTINUOUS
 62
  256
370
   -1
100
AcDbLine
 10
123.727
 20
-66.28919999999999
 11
123.747
 21
-66.2852
  0
LINE
  5
361
100
AcDbEntity
  8
BLACK
  6
CONTINUOUS
 62
  256
370
   -1
100
AcDbLine
 10
123.747
 20
-66.2852
 11
123.767
 21
-66.2782
  0
LINE
  5
362
100
AcDbEntity
  8
BLACK
  6
CONTINUOUS
 62
  256
370
   -1
100
AcDbLine
 10
123.767
 20
-66.2782
 11
124.386
 21
-66.2782
  0
LINE
  5
363
100
AcDbEntity
  8
BLACK
  6
CONTINUOUS
 62
  256
370
   -1
100
AcDbLine
 10
124.386
 20
-66.2782
 11
124.412
 21
-66.28279999999999
  0
LINE
  5
364
100
AcDbEntity
  8
BLACK
  6
CONTINUOUS
 62
  256
370
   -1
100
AcDbLine
 10
125.027
 20
-66.2821
 11
125.029
 21
-66.2821
  0
LINE
  5
365
100
AcDbEntity
  8
BLACK
  6
CONTINUOUS
 62
  256
370
   -1
100
AcDbLine
 10
125.029
 20
-66.2821
 11
125.172
 21
-66.3297
  0
LINE
  5
366
100
AcDbEntity
  8
BLACK
  6
CONTINUOUS
 62
  256
370
   -1
100
AcDbLine
 10
125.172
 20
-66.3297
 11
125.195
 21
-66.3424
  0
LINE
  5
367
100
AcDbEntity
  8
BLACK
  6
CONTINUOUS
 62
  256
370
   -1
100
AcDbLine
 10
125.195
 20
-66.3424
 11
125.198
 21
-66.3463
  0
LINE
  5
368
100
AcDbEntity
  8
BLACK
  6
CONTINUOUS
 62
  256
370
   -1
100
AcDbLine
 10
125.198
 20
-66.3463
 11
125.202
 21
-66.34820000000001
  0
LINE
  5
369
100
AcDbEntity
  8
BLACK
  6
CONTINUOUS
 62
  256
370
   -1
100
AcDbLine
 10
125.202
 20
-66.34820000000001
 11
125.297
 21
-66.4434
  0
LINE
  5
36A
100
AcDbEntity
  8
BLACK
  6
CONTINUOUS
 62
  256
370
   -1
100
AcDbLine
 10
125.297
 20
-66.4434
 11
125.31
 21
-66.4622
  0
LINE
  5
36B
100
AcDbEntity
  8
BLACK
  6
CONTINUOUS
 62
  256
370
   -1
100
AcDbLine
 10
125.31
 20
-66.4622
 11
125.311
 21
-66.4633
  0
LINE
  5
36C
100
AcDbEntity
  8
BLACK
  6
CONTINUOUS
 62
  256
370
   -1
100
AcDbLine
 10
125.311
 20
-66.4633
 11
125.359
 21
-66.5585
  0
LINE
  5
36D
100
AcDbEntity
  8
BLACK
  6
CONTINUOUS
 62
  256
370
   -1
100
AcDbLine
 10
125.359
 20
-66.5585
 11
125.363
 21
-66.5712
  0
LINE
  5
36E
100
AcDbEntity
  8
BLACK
  6
CONTINUOUS
 62
  256
370
   -1
100
AcDbLine
 10
125.363
 20
-66.5712
 11
125.365
 21
-66.5742
  0
LINE
  5
36F
100
AcDbEntity
  8
BLACK
  6
CONTINUOUS
 62
  256
370
   -1
100
AcDbLine
 10
125.365
 20
-66.5742
 11
125.412
 21
-66.7647
  0
LINE
  5
370
100
AcDbEntity
  8
BLACK
  6
CONTINUOUS
 62
  256
370
   -1
100
AcDbLine
 10
125.412
 20
-66.7647
 11
125.413
 21
-66.7799
  0
LINE
  5
371
100
AcDbEntity
  8
BLACK
  6
CONTINUOUS
 62
  256
370
   -1
100
AcDbLine
 10
125.413
 20
-66.7799
 11
125.415
 21
-66.78319999999999
  0
LINE
  5
372
100
AcDbEntity
  8
BLACK
  6
CONTINUOUS
 62
  256
370
   -1
100
AcDbLine
 10
125.415
 20
-66.78319999999999
 11
125.415
 21
-66.92610000000001
  0
LINE
  5
373
100
AcDbEntity
  8
BLACK
  6
CONTINUOUS
 62
  256
370
   -1
100
AcDbLine
 10
125.415
 20
-66.92610000000001
 11
125.412
 21
-66.94110000000001
  0
LINE
  5
374
100
AcDbEntity
  8
BLACK
  6
CONTINUOUS
 62
  256
370
   -1
100
AcDbLine
 10
125.412
 20
-66.94110000000001
 11
125.412
 21
-66.94459999999999
  0
LINE
  5
375
100
AcDbEntity
  8
BLACK
  6
CONTINUOUS
 62
  256
370
   -1
100
AcDbLine
 10
125.412
 20
-66.94459999999999
 11
125.365
 21
-67.13509999999999
  0
LINE
  5
376
100
AcDbEntity
  8
BLACK
  6
CONTINUOUS
 62
  256
370
   -1
100
AcDbLine
 10
125.365
 20
-67.13509999999999
 11
125.359
 21
-67.1472
  0
LINE
  5
377
100
AcDbEntity
  8
BLACK
  6
CONTINUOUS
 62
  256
370
   -1
100
AcDbLine
 10
125.359
 20
-67.1472
 11
125.359
 21
-67.1508
  0
LINE
  5
378
100
AcDbEntity
  8
BLACK
  6
CONTINUOUS
 62
  256
370
   -1
100
AcDbLine
 10
125.359
 20
-67.1508
 11
125.311
 21
-67.246
  0
LINE
  5
379
100
AcDbEntity
  8
BLACK
  6
CONTINUOUS
 62
  256
370
   -1
100
AcDbLine
 10
125.311
 20
-67.246
 11
125.298
 21
-67.26439999999999
  0
LINE
  5
37A
100
AcDbEntity
  8
BLACK
  6
CONTINUOUS
 62
  256
370
   -1
100
AcDbLine
 10
125.298
 20
-67.26439999999999
 11
125.297
 21
-67.2659
  0
LINE
  5
37B
100
AcDbEntity
  8
BLACK
  6
CONTINUOUS
 62
  256
370
   -1
100
AcDbLine
 10
125.297
 20
-67.2659
 11
125.202
 21
-67.36109999999999
  0
LINE
  5
37C
100
AcDbEntity
  8
BLACK
  6
CONTINUOUS
 62
  256
370
   -1
100
AcDbLine
 10
125.202
 20
-67.36109999999999
 11
125.18
 21
-67.3764
  0
LINE
  5
37D
100
AcDbEntity
  8
BLACK
  6
CONTINUOUS
 62
  256
370
   -1
100
AcDbLine
 10
125.18
 20
-67.3764
 11
125.175
 21
-67.3768
  0
LINE
  5
37E
100
AcDbEntity
  8
BLACK
  6
CONTINUOUS
 62
  256
370
   -1
100
AcDbLine
 10
125.175
 20
-67.3768
 11
125.172
 21
-67.3796
  0
LINE
  5
37F
100
AcDbEntity
  8
BLACK
  6
CONTINUOUS
 62
  256
370
   -1
100
AcDbLine
 10
125.172
 20
-67.3796
 11
125.029
 21
-67.4272
  0
LINE
  5
380
100
AcDbEntity
  8
BLACK
  6
CONTINUOUS
 62
  256
370
   -1
100
AcDbLine
 10
125.029
 20
-67.4272
 11
125.006
 21
-67.4306
  0
LINE
  5
381
100
AcDbEntity
  8
BLACK
  6
CONTINUOUS
 62
  256
370
   -1
100
AcDbLine
 10
125.006
 20
-67.4306
 11
125.005
 21
-67.4312
  0
LINE
  5
382
100
AcDbEntity
  8
BLACK
  6
CONTINUOUS
 62
  256
370
   -1
100
AcDbLine
 10
125.005
 20
-67.4312
 11
124.91
 21
-67.4312
  0
LINE
  5
383
100
AcDbEntity
  8
BLACK
  6
CONTINUOUS
 62
  256
370
   -1
100
AcDbLine
 10
124.91
 20
-67.4312
 11
124.887
 21
-67.4272
  0
LINE
  5
384
100
AcDbEntity
  8
BLACK
  6
CONTINUOUS
 62
  256
370
   -1
100
AcDbLine
 10
124.887
 20
-67.4272
 11
124.885
 21
-67.4272
  0
LINE
  5
385
100
AcDbEntity
  8
BLACK
  6
CONTINUOUS
 62
  256
370
   -1
100
AcDbLine
 10
124.885
 20
-67.4272
 11
124.742
 21
-67.3796
  0
LINE
  5
386
100
AcDbEntity
  8
BLACK
  6
CONTINUOUS
 62
  256
370
   -1
100
AcDbLine
 10
124.742
 20
-67.3796
 11
124.719
 21
-67.367
  0
LINE
  5
387
100
AcDbEntity
  8
BLACK
  6
CONTINUOUS
 62
  256
370
   -1
100
AcDbLine
 10
124.719
 20
-67.367
 11
124.717
 21
-67.3631
  0
LINE
  5
388
100
AcDbEntity
  8
BLACK
  6
CONTINUOUS
 62
  256
370
   -1
100
AcDbLine
 10
124.717
 20
-67.3631
 11
124.713
 21
-67.36109999999999
  0
LINE
  5
389
100
AcDbEntity
  8
BLACK
  6
CONTINUOUS
 62
  256
370
   -1
100
AcDbLine
 10
124.713
 20
-67.36109999999999
 11
124.665
 21
-67.3135
  0
LINE
  5
38A
100
AcDbEntity
  8
BLACK
  6
CONTINUOUS
 62
  256
370
   -1
100
AcDbLine
 10
124.665
 20
-67.3135
 11
124.662
 21
-67.3096
  0
LINE
  5
38B
100
AcDbEntity
  8
BLACK
  6
CONTINUOUS
 62
  256
370
   -1
100
AcDbLine
 10
124.662
 20
-67.3096
 11
124.66
 21
-67.3086
  0
LINE
  5
38C
100
AcDbEntity
  8
BLACK
  6
CONTINUOUS
 62
  256
370
   -1
100
AcDbLine
 10
124.66
 20
-67.3086
 11
124.659
 21
-67.30540000000001
  0
LINE
  5
38D
100
AcDbEntity
  8
BLACK
  6
CONTINUOUS
 62
  256
370
   -1
100
AcDbLine
 10
124.659
 20
-67.30540000000001
 11
124.65
 21
-67.29179999999999
  0
LINE
  5
38E
100
AcDbEntity
  8
BLACK
  6
CONTINUOUS
 62
  256
370
   -1
100
AcDbLine
 10
124.65
 20
-67.29179999999999
 11
124.648
 21
-67.27509999999999
  0
LINE
  5
38F
100
AcDbEntity
  8
BLACK
  6
CONTINUOUS
 62
  256
370
   -1
100
AcDbLine
 10
124.648
 20
-67.27509999999999
 11
124.643
 21
-67.2594
  0
LINE
  5
390
100
AcDbEntity
  8
BLACK
  6
CONTINUOUS
 62
  256
370
   -1
100
AcDbLine
 10
124.643
 20
-67.2594
 11
124.643
 21
-66.92610000000001
  0
LINE
  5
391
100
AcDbEntity
  8
BLACK
  6
CONTINUOUS
 62
  256
370
   -1
100
AcDbLine
 10
124.643
 20
-66.92610000000001
 11
124.644
 21
-66.9162
  0
LINE
  5
392
100
AcDbEntity
  8
BLACK
  6
CONTINUOUS
 62
  256
370
   -1
100
AcDbLine
 10
124.644
 20
-66.9162
 11
124.644
 21
-66.9128
  0
LINE
  5
393
100
AcDbEntity
  8
BLACK
  6
CONTINUOUS
 62
  256
370
   -1
100
AcDbLine
 10
124.644
 20
-66.9128
 11
124.645
 21
-66.90989999999999
  0
LINE
  5
394
100
AcDbEntity
  8
BLACK
  6
CONTINUOUS
 62
  256
370
   -1
100
AcDbLine
 10
124.645
 20
-66.90989999999999
 11
124.647
 21
-66.8999
  0
LINE
  5
395
100
AcDbEntity
  8
BLACK
  6
CONTINUOUS
 62
  256
370
   -1
100
AcDbLine
 10
124.647
 20
-66.8999
 11
124.66
 21
-66.8847
  0
LINE
  5
396
100
AcDbEntity
  8
BLACK
  6
CONTINUOUS
 62
  256
370
   -1
100
AcDbLine
 10
124.66
 20
-66.8847
 11
124.67
 21
-66.86750000000001
  0
LINE
  5
397
100
AcDbEntity
  8
BLACK
  6
CONTINUOUS
 62
  256
370
   -1
100
AcDbLine
 10
124.67
 20
-66.86750000000001
 11
124.676
 21
-66.8651
  0
LINE
  5
398
100
AcDbEntity
  8
BLACK
  6
CONTINUOUS
 62
  256
370
   -1
100
AcDbLine
 10
124.676
 20
-66.8651
 11
124.681
 21
-66.85980000000001
  0
LINE
  5
399
100
AcDbEntity
  8
BLACK
  6
CONTINUOUS
 62
  256
370
   -1
100
AcDbLine
 10
124.681
 20
-66.85980000000001
 11
124.7
 21
-66.85639999999999
  0
LINE
  5
39A
100
AcDbEntity
  8
BLACK
  6
CONTINUOUS
 62
  256
370
   -1
100
AcDbLine
 10
124.7
 20
-66.85639999999999
 11
124.719
 21
-66.8496
  0
LINE
  5
39B
100
AcDbEntity
  8
BLACK
  6
CONTINUOUS
 62
  256
370
   -1
100
AcDbLine
 10
124.719
 20
-66.8496
 11
124.91
 21
-66.8496
  0
LINE
  5
39C
100
AcDbEntity
  8
BLACK
  6
CONTINUOUS
 62
  256
370
   -1
100
AcDbLine
 10
124.91
 20
-66.8496
 11
124.936
 21
-66.85420000000001
  0
LINE
  5
39D
100
AcDbEntity
  8
BLACK
  6
CONTINUOUS
 62
  256
370
   -1
100
AcDbLine
 10
124.936
 20
-66.85420000000001
 11
124.976
 21
-66.8878
  0
LINE
  5
39E
100
AcDbEntity
  8
BLACK
  6
CONTINUOUS
 62
  256
370
   -1
100
AcDbLine
 10
124.976
 20
-66.8878
 11
124.985
 21
-66.93940000000001
  0
LINE
  5
39F
100
AcDbEntity
  8
BLACK
  6
CONTINUOUS
 62
  256
370
   -1
100
AcDbLine
 10
124.985
 20
-66.93940000000001
 11
124.959
 21
-66.9847
  0
LINE
  5
3A0
100
AcDbEntity
  8
BLACK
  6
CONTINUOUS
 62
  256
370
   -1
100
AcDbLine
 10
124.959
 20
-66.9847
 11
124.91
 21
-67.0026
  0
LINE
  5
3A1
100
AcDbEntity
  8
BLACK
  6
CONTINUOUS
 62
  256
370
   -1
100
AcDbLine
 10
124.91
 20
-67.0026
 11
124.796
 21
-67.0026
  0
LINE
  5
3A2
100
AcDbEntity
  8
BLACK
  6
CONTINUOUS
 62
  256
370
   -1
100
AcDbLine
 10
124.796
 20
-67.0026
 11
124.796
 21
-67.2277
  0
LINE
  5
3A3
100
AcDbEntity
  8
BLACK
  6
CONTINUOUS
 62
  256
370
   -1
100
AcDbLine
 10
124.796
 20
-67.2277
 11
124.808
 21
-67.2402
  0
LINE
  5
3A4
100
AcDbEntity
  8
BLACK
  6
CONTINUOUS
 62
  256
370
   -1
100
AcDbLine
 10
124.808
 20
-67.2402
 11
124.922
 21
-67.2782
  0
LINE
  5
3A5
100
AcDbEntity
  8
BLACK
  6
CONTINUOUS
 62
  256
370
   -1
100
AcDbLine
 10
124.922
 20
-67.2782
 11
124.992
 21
-67.2782
  0
LINE
  5
3A6
100
AcDbEntity
  8
BLACK
  6
CONTINUOUS
 62
  256
370
   -1
100
AcDbLine
 10
124.992
 20
-67.2782
 11
125.106
 21
-67.2402
  0
LINE
  5
3A7
100
AcDbEntity
  8
BLACK
  6
CONTINUOUS
 62
  256
370
   -1
100
AcDbLine
 10
125.106
 20
-67.2402
 11
125.18
 21
-67.1665
  0
LINE
  5
3A8
100
AcDbEntity
  8
BLACK
  6
CONTINUOUS
 62
  256
370
   -1
100
AcDbLine
 10
125.18
 20
-67.1665
 11
125.218
 21
-67.0899
  0
LINE
  5
3A9
100
AcDbEntity
  8
BLACK
  6
CONTINUOUS
 62
  256
370
   -1
100
AcDbLine
 10
125.218
 20
-67.0899
 11
125.262
 21
-66.91670000000001
  0
LINE
  5
3AA
100
AcDbEntity
  8
BLACK
  6
CONTINUOUS
 62
  256
370
   -1
100
AcDbLine
 10
125.262
 20
-66.91670000000001
 11
125.262
 21
-66.7927
  0
LINE
  5
3AB
100
AcDbEntity
  8
BLACK
  6
CONTINUOUS
 62
  256
370
   -1
100
AcDbLine
 10
125.262
 20
-66.7927
 11
125.218
 21
-66.6195
  0
LINE
  5
3AC
100
AcDbEntity
  8
BLACK
  6
CONTINUOUS
 62
  256
370
   -1
100
AcDbLine
 10
125.218
 20
-66.6195
 11
125.18
 21
-66.5428
  0
LINE
  5
3AD
100
AcDbEntity
  8
BLACK
  6
CONTINUOUS
 62
  256
370
   -1
100
AcDbLine
 10
125.18
 20
-66.5428
 11
125.106
 21
-66.4691
  0
LINE
  5
3AE
100
AcDbEntity
  8
BLACK
  6
CONTINUOUS
 62
  256
370
   -1
100
AcDbLine
 10
125.106
 20
-66.4691
 11
124.992
 21
-66.4312
  0
LINE
  5
3AF
100
AcDbEntity
  8
BLACK
  6
CONTINUOUS
 62
  256
370
   -1
100
AcDbLine
 10
124.992
 20
-66.4312
 11
124.88
 21
-66.4312
  0
LINE
  5
3B0
100
AcDbEntity
  8
BLACK
  6
CONTINUOUS
 62
  256
370
   -1
100
AcDbLine
 10
124.88
 20
-66.4312
 11
124.801
 21
-66.47069999999999
  0
LINE
  5
3B1
100
AcDbEntity
  8
BLACK
  6
CONTINUOUS
 62
  256
370
   -1
100
AcDbLine
 10
124.801
 20
-66.47069999999999
 11
124.775
 21
-66.4783
  0
LINE
  5
3B2
100
AcDbEntity
  8
BLACK
  6
CONTINUOUS
 62
  256
370
   -1
100
AcDbLine
 10
124.775
 20
-66.4783
 11
124.725
 21
-66.4661
  0
LINE
  5
3B3
100
AcDbEntity
  8
BLACK
  6
CONTINUOUS
 62
  256
370
   -1
100
AcDbLine
 10
124.725
 20
-66.4661
 11
124.693
 21
-66.4241
  0
LINE
  5
3B4
100
AcDbEntity
  8
BLACK
  6
CONTINUOUS
 62
  256
370
   -1
100
AcDbLine
 10
124.693
 20
-66.4241
 11
124.696
 21
-66.3719
  0
LINE
  5
3B5
100
AcDbEntity
  8
BLACK
  6
CONTINUOUS
 62
  256
370
   -1
100
AcDbLine
 10
124.696
 20
-66.3719
 11
124.732
 21
-66.3339
  0
LINE
  5
3B6
100
AcDbEntity
  8
BLACK
  6
CONTINUOUS
 62
  256
370
   -1
100
AcDbLine
 10
124.732
 20
-66.3339
 11
124.828
 21
-66.28619999999999
  0
LINE
  5
3B7
100
AcDbEntity
  8
BLACK
  6
CONTINUOUS
 62
  256
370
   -1
100
AcDbLine
 10
124.828
 20
-66.28619999999999
 11
124.853
 21
-66.2787
  0
LINE
  5
3B8
100
AcDbEntity
  8
BLACK
  6
CONTINUOUS
 62
  256
370
   -1
100
AcDbLine
 10
124.853
 20
-66.2787
 11
124.858
 21
-66.27970000000001
  0
LINE
  5
3B9
100
AcDbEntity
  8
BLACK
  6
CONTINUOUS
 62
  256
370
   -1
100
AcDbLine
 10
124.858
 20
-66.27970000000001
 11
124.862
 21
-66.2782
  0
LINE
  5
3BA
100
AcDbEntity
  8
BLACK
  6
CONTINUOUS
 62
  256
370
   -1
100
AcDbLine
 10
124.862
 20
-66.2782
 11
125.005
 21
-66.2782
  0
LINE
  5
3BB
100
AcDbEntity
  8
BLACK
  6
CONTINUOUS
 62
  256
370
   -1
100
AcDbLine
 10
125.005
 20
-66.2782
 11
125.027
 21
-66.2821
  0
LINE
  5
3BC
100
AcDbEntity
  8
BLACK
  6
CONTINUOUS
 62
  256
370
   -1
100
AcDbLine
 10
53.8424
 20
-58.9576
 11
53.86
 21
-59
  0
LINE
  5
3BD
100
AcDbEntity
  8
BLACK
  6
CONTINUOUS
 62
  256
370
   -1
100
AcDbLine
 10
53.86
 20
-59
 11
53.86
 21
-65.8
  0
LINE
  5
3BE
100
AcDbEntity
  8
BLACK
  6
CONTINUOUS
 62
  256
370
   -1
100
AcDbLine
 10
53.86
 20
-65.8
 11
53.8424
 21
-65.8424
  0
LINE
  5
3BF
100
AcDbEntity
  8
BLACK
  6
CONTINUOUS
 62
  256
370
   -1
100
AcDbLine
 10
53.8424
 20
-65.8424
 11
53.8
 21
-65.86
  0
LINE
  5
3C0
100
AcDbEntity
  8
BLACK
  6
CONTINUOUS
 62
  256
370
   -1
100
AcDbLine
 10
53.8
 20
-65.86
 11
53.7576
 21
-65.8424
  0
LINE
  5
3C1
100
AcDbEntity
  8
BLACK
  6
CONTINUOUS
 62
  256
370
   -1
100
AcDbLine
 10
53.7576
 20
-65.8424
 11
53.74
 21
-65.8
  0
LINE
  5
3C2
100
AcDbEntity
  8
BLACK
  6
CONTINUOUS
 62
  256
370
   -1
100
AcDbLine
 10
53.74
 20
-65.8
 11
53.74
 21
-59
  0
LINE
  5
3C3
100
AcDbEntity
  8
BLACK
  6
CONTINUOUS
 62
  256
370
   -1
100
AcDbLine
 10
53.74
 20
-59
 11
53.7576
 21
-58.9576
  0
LINE
  5
3C4
100
AcDbEntity
  8
BLACK
  6
CONTINUOUS
 62
  256
370
   -1
100
AcDbLine
 10
53.7576
 20
-58.9576
 11
53.8
 21
-58.94
  0
LINE
  5
3C5
100
AcDbEntity
  8
BLACK
  6
CONTINUOUS
 62
  256
370
   -1
100
AcDbLine
 10
53.8
 20
-58.94
 11
53.8424
 21
-58.9576
  0
LINE
  5
3C6
100
AcDbEntity
  8
BLACK
  6
CONTINUOUS
 62
  256
370
   -1
100
AcDbLine
 10
57.2424
 20
-58.9576
 11
57.26
 21
-59
  0
LINE
  5
3C7
100
AcDbEntity
  8
BLACK
  6
CONTINUOUS
 62
  256
370
   -1
100
AcDbLine
 10
57.26
 20
-59
 11
57.26
 21
-65.8
  0
LINE
  5
3C8
100
AcDbEntity
  8
BLACK
  6
CONTINUOUS
 62
  256
370
   -1
100
AcDbLine
 10
57.26
 20
-65.8
 11
57.2424
 21
-65.8424
  0
LINE
  5
3C9
100
AcDbEntity
  8
BLACK
  6
CONTINUOUS
 62
  256
370
   -1
100
AcDbLine
 10
57.2424
 20
-65.8424
 11
57.2
 21
-65.86
  0
LINE
  5
3CA
100
AcDbEntity
  8
BLACK
  6
CONTINUOUS
 62
  256
370
   -1
100
AcDbLine
 10
57.2
 20
-65.86
 11
57.1576
 21
-65.8424
  0
LINE
  5
3CB
100
AcDbEntity
  8
BLACK
  6
CONTINUOUS
 62
  256
370
   -1
100
AcDbLine
 10
57.1576
 20
-65.8424
 11
57.14
 21
-65.8
  0
LINE
  5
3CC
100
AcDbEntity
  8
BLACK
  6
CONTINUOUS
 62
  256
370
   -1
100
AcDbLine
 10
57.14
 20
-65.8
 11
57.14
 21
-59
  0
LINE
  5
3CD
100
AcDbEntity
  8
BLACK
  6
CONTINUOUS
 62
  256
370
   -1
100
AcDbLine
 10
57.14
 20
-59
 11
57.1576
 21
-58.9576
  0
LINE
  5
3CE
100
AcDbEntity
  8
BLACK
  6
CONTINUOUS
 62
  256
370
   -1
100
AcDbLine
 10
57.1576
 20
-58.9576
 11
57.2
 21
-58.94
  0
LINE
  5
3CF
100
AcDbEntity
  8
BLACK
  6
CONTINUOUS
 62
  256
370
   -1
100
AcDbLine
 10
57.2
 20
-58.94
 11
57.2424
 21
-58.9576
  0
LINE
  5
3D0
100
AcDbEntity
  8
BLACK
  6
CONTINUOUS
 62
  256
370
   -1
100
AcDbLine
 10
75.8424
 20
-58.9576
 11
75.86
 21
-59
  0
LINE
  5
3D1
100
AcDbEntity
  8
BLACK
  6
CONTINUOUS
 62
  256
370
   -1
100
AcDbLine
 10
75.86
 20
-59
 11
75.86
 21
-65.8
  0
LINE
  5
3D2
100
AcDbEntity
  8
BLACK
  6
CONTINUOUS
 62
  256
370
   -1
100
AcDbLine
 10
75.86
 20
-65.8
 11
75.8424
 21
-65.8424
  0
LINE
  5
3D3
100
AcDbEntity
  8
BLACK
  6
CONTINUOUS
 62
  256
370
   -1
100
AcDbLine
 10
75.8424
 20
-65.8424
 11
75.8
 21
-65.86
  0
LINE
  5
3D4
100
AcDbEntity
  8
BLACK
  6
CONTINUOUS
 62
  256
370
   -1
100
AcDbLine
 10
75.8
 20
-65.86
 11
75.7576
 21
-65.8424
  0
LINE
  5
3D5
100
AcDbEntity
  8
BLACK
  6
CONTINUOUS
 62
  256
370
   -1
100
AcDbLine
 10
75.7576
 20
-65.8424
 11
75.73999999999999
 21
-65.8
  0
LINE
  5
3D6
100
AcDbEntity
  8
BLACK
  6
CONTINUOUS
 62
  256
370
   -1
100
AcDbLine
 10
75.73999999999999
 20
-65.8
 11
75.73999999999999
 21
-59
  0
LINE
  5
3D7
100
AcDbEntity
  8
BLACK
  6
CONTINUOUS
 62
  256
370
   -1
100
AcDbLine
 10
75.73999999999999
 20
-59
 11
75.7576
 21
-58.9576
  0
LINE
  5
3D8
100
AcDbEntity
  8
BLACK
  6
CONTINUOUS
 62
  256
370
   -1
100
AcDbLine
 10
75.7576
 20
-58.9576
 11
75.8
 21
-58.94
  0
LINE
  5
3D9
100
AcDbEntity
  8
BLACK
  6
CONTINUOUS
 62
  256
370
   -1
100
AcDbLine
 10
75.8
 20
-58.94
 11
75.8424
 21
-58.9576
  0
LINE
  5
3DA
100
AcDbEntity
  8
BLACK
  6
CONTINUOUS
 62
  256
370
   -1
100
AcDbLine
 10
79.2424
 20
-58.9576
 11
79.26000000000001
 21
-59
  0
LINE
  5
3DB
100
AcDbEntity
  8
BLACK
  6
CONTINUOUS
 62
  256
370
   -1
100
AcDbLine
 10
79.26000000000001
 20
-59
 11
79.26000000000001
 21
-65.8
  0
LINE
  5
3DC
100
AcDbEntity
  8
BLACK
  6
CONTINUOUS
 62
  256
370
   -1
100
AcDbLine
 10
79.26000000000001
 20
-65.8
 11
79.2424
 21
-65.8424
  0
LINE
  5
3DD
100
AcDbEntity
  8
BLACK
  6
CONTINUOUS
 62
  256
370
   -1
100
AcDbLine
 10
79.2424
 20
-65.8424
 11
79.2
 21
-65.86
  0
LINE
  5
3DE
100
AcDbEntity
  8
BLACK
  6
CONTINUOUS
 62
  256
370
   -1
100
AcDbLine
 10
79.2
 20
-65.86
 11
79.1576
 21
-65.8424
  0
LINE
  5
3DF
100
AcDbEntity
  8
BLACK
  6
CONTINUOUS
 62
  256
370
   -1
100
AcDbLine
 10
79.1576
 20
-65.8424
 11
79.14
 21
-65.8
  0
LINE
  5
3E0
100
AcDbEntity
  8
BLACK
  6
CONTINUOUS
 62
  256
370
   -1
100
AcDbLine
 10
79.14
 20
-65.8
 11
79.14
 21
-59
  0
LINE
  5
3E1
100
AcDbEntity
  8
BLACK
  6
CONTINUOUS
 62
  256
370
   -1
100
AcDbLine
 10
79.14
 20
-59
 11
79.1576
 21
-58.9576
  0
LINE
  5
3E2
100
AcDbEntity
  8
BLACK
  6
CONTINUOUS
 62
  256
370
   -1
100
AcDbLine
 10
79.1576
 20
-58.9576
 11
79.2
 21
-58.94
  0
LINE
  5
3E3
100
AcDbEntity
  8
BLACK
  6
CONTINUOUS
 62
  256
370
   -1
100
AcDbLine
 10
79.2
 20
-58.94
 11
79.2424
 21
-58.9576
  0
LINE
  5
3E4
100
AcDbEntity
  8
BLACK
  6
CONTINUOUS
 62
  256
370
   -1
100
AcDbLine
 10
121.942
 20
-58.9576
 11
121.96
 21
-59
  0
LINE
  5
3E5
100
AcDbEntity
  8
BLACK
  6
CONTINUOUS
 62
  256
370
   -1
100
AcDbLine
 10
121.96
 20
-59
 11
121.96
 21
-65.8
  0
LINE
  5
3E6
100
AcDbEntity
  8
BLACK
  6
CONTINUOUS
 62
  256
370
   -1
100
AcDbLine
 10
121.96
 20
-65.8
 11
121.942
 21
-65.8424
  0
LINE
  5
3E7
100
AcDbEntity
  8
BLACK
  6
CONTINUOUS
 62
  256
370
   -1
100
AcDbLine
 10
121.942
 20
-65.8424
 11
121.9
 21
-65.86
  0
LINE
  5
3E8
100
AcDbEntity
  8
BLACK
  6
CONTINUOUS
 62
  256
370
   -1
100
AcDbLine
 10
121.9
 20
-65.86
 11
121.858
 21
-65.8424
  0
LINE
  5
3E9
100
AcDbEntity
  8
BLACK
  6
CONTINUOUS
 62
  256
370
   -1
100
AcDbLine
 10
121.858
 20
-65.8424
 11
121.84
 21
-65.8
  0
LINE
  5
3EA
100
AcDbEntity
  8
BLACK
  6
CONTINUOUS
 62
  256
370
   -1
100
AcDbLine
 10
121.84
 20
-65.8
 11
121.84
 21
-59
  0
LINE
  5
3EB
100
AcDbEntity
  8
BLACK
  6
CONTINUOUS
 62
  256
370
   -1
100
AcDbLine
 10
121.84
 20
-59
 11
121.858
 21
-58.9576
  0
LINE
  5
3EC
100
AcDbEntity
  8
BLACK
  6
CONTINUOUS
 62
  256
370
   -1
100
AcDbLine
 10
121.858
 20
-58.9576
 11
121.9
 21
-58.94
  0
LINE
  5
3ED
100
AcDbEntity
  8
BLACK
  6
CONTINUOUS
 62
  256
370
   -1
100
AcDbLine
 10
121.9
 20
-58.94
 11
121.942
 21
-58.9576
  0
LINE
  5
3EE
100
AcDbEntity
  8
BLACK
  6
CONTINUOUS
 62
  256
370
   -1
100
AcDbLine
 10
125.342
 20
-58.9576
 11
125.36
 21
-59
  0
LINE
  5
3EF
100
AcDbEntity
  8
BLACK
  6
CONTINUOUS
 62
  256
370
   -1
100
AcDbLine
 10
125.36
 20
-59
 11
125.36
 21
-65.8
  0
LINE
  5
3F0
100
AcDbEntity
  8
BLACK
  6
CONTINUOUS
 62
  256
370
   -1
100
AcDbLine
 10
125.36
 20
-65.8
 11
125.342
 21
-65.8424
  0
LINE
  5
3F1
100
AcDbEntity
  8
BLACK
  6
CONTINUOUS
 62
  256
370
   -1
100
AcDbLine
 10
125.342
 20
-65.8424
 11
125.3
 21
-65.86
  0
LINE
  5
3F2
100
AcDbEntity
  8
BLACK
  6
CONTINUOUS
 62
  256
370
   -1
100
AcDbLine
 10
125.3
 20
-65.86
 11
125.258
 21
-65.8424
  0
LINE
  5
3F3
100
AcDbEntity
  8
BLACK
  6
CONTINUOUS
 62
  256
370
   -1
100
AcDbLine
 10
125.258
 20
-65.8424
 11
125.24
 21
-65.8
  0
LINE
  5
3F4
100
AcDbEntity
  8
BLACK
  6
CONTINUOUS
 62
  256
370
   -1
100
AcDbLine
 10
125.24
 20
-65.8
 11
125.24
 21
-59
  0
LINE
  5
3F5
100
AcDbEntity
  8
BLACK
  6
CONTINUOUS
 62
  256
370
   -1
100
AcDbLine
 10
125.24
 20
-59
 11
125.258
 21
-58.9576
  0
LINE
  5
3F6
100
AcDbEntity
  8
BLACK
  6
CONTINUOUS
 62
  256
370
   -1
100
AcDbLine
 10
125.258
 20
-58.9576
 11
125.3
 21
-58.94
  0
LINE
  5
3F7
100
AcDbEntity
  8
BLACK
  6
CONTINUOUS
 62
  256
370
   -1
100
AcDbLine
 10
125.3
 20
-58.94
 11
125.342
 21
-58.9576
  0
ENDSEC
  0
SECTION
  2
OBJECTS
  0
DICTIONARY
  5
C
330
0
100
AcDbDictionary
281
    1
  3
ACAD_GROUP
350
D
  0
DICTIONARY
  5
D
330
C
100
AcDbDictionary
281
    1
  0
PLOTSETTINGS
  5
3F8
100
AcDbPlotSettings
  6
1x1
 40
0
 41
0
 42
0
 43
0
  0
ENDSEC
  0
EOF
