%TF.GenerationSoftware,KiCad,Pcbnew,7.0.7*%
%TF.CreationDate,2023-09-27T18:03:20-04:00*%
%TF.ProjectId,baseboard,62617365-626f-4617-9264-2e6b69636164,A*%
%TF.SameCoordinates,Original*%
%TF.FileFunction,Drillmap*%
%TF.FilePolarity,Positive*%
%FSLAX45Y45*%
G04 Gerber Fmt 4.5, Leading zero omitted, Abs format (unit mm)*
G04 Created by KiCad (PCBNEW 7.0.7) date 2023-09-27 18:03:20*
%MOMM*%
%LPD*%
G01*
G04 APERTURE LIST*
%ADD10C,0.050000*%
%ADD11C,0.200000*%
%ADD12C,0.025000*%
%ADD13C,0.100000*%
G04 APERTURE END LIST*
D10*
X22262000Y-10567000D02*
X24982000Y-10567000D01*
X25059782Y-10534782D02*
X25194218Y-10399218D01*
X24982000Y-10567000D02*
G75*
G03*
X25059782Y-10534782I0J110000D01*
G01*
X22184218Y-10534782D02*
X22049782Y-10399218D01*
X26802000Y-16367000D02*
G75*
G03*
X27302000Y-15867000I0J500000D01*
G01*
X17572000Y-10367000D02*
G75*
G03*
X17072000Y-10867000I0J-500000D01*
G01*
X17072000Y-15867000D02*
G75*
G03*
X17572000Y-16367000I500000J0D01*
G01*
X22049782Y-10399218D02*
G75*
G03*
X21972000Y-10367000I-77782J-77782D01*
G01*
X17072000Y-10867000D02*
X17072000Y-15867000D01*
X17572000Y-16367000D02*
X26802000Y-16367000D01*
X22184218Y-10534782D02*
G75*
G03*
X22262000Y-10567000I77782J77782D01*
G01*
X21972000Y-10367000D02*
X17572000Y-10367000D01*
X25272000Y-10367000D02*
X26802000Y-10367000D01*
X25272000Y-10367000D02*
G75*
G03*
X25194218Y-10399218I0J-110000D01*
G01*
X27302000Y-10867000D02*
G75*
G03*
X26802000Y-10367000I-500000J0D01*
G01*
X27302000Y-15867000D02*
X27302000Y-10867000D01*
D11*
D12*
X18724500Y-13104500D02*
X18749500Y-13129500D01*
X18749500Y-13104500D02*
X18724500Y-13129500D01*
X18834500Y-12954500D02*
X18859500Y-12979500D01*
X18859500Y-12954500D02*
X18834500Y-12979500D01*
X19220500Y-13932500D02*
X19245500Y-13957500D01*
X19245500Y-13932500D02*
X19220500Y-13957500D01*
X19234500Y-15974500D02*
X19259500Y-15999500D01*
X19259500Y-15974500D02*
X19234500Y-15999500D01*
X19286500Y-14027500D02*
X19311500Y-14052500D01*
X19311500Y-14027500D02*
X19286500Y-14052500D01*
X19287000Y-13932000D02*
X19312000Y-13957000D01*
X19312000Y-13932000D02*
X19287000Y-13957000D01*
X19312500Y-13837500D02*
X19337500Y-13862500D01*
X19337500Y-13837500D02*
X19312500Y-13862500D01*
X19334500Y-15974500D02*
X19359500Y-15999500D01*
X19359500Y-15974500D02*
X19334500Y-15999500D01*
X19399500Y-15717000D02*
X19424500Y-15742000D01*
X19424500Y-15717000D02*
X19399500Y-15742000D01*
X19422000Y-15509500D02*
X19447000Y-15534500D01*
X19447000Y-15509500D02*
X19422000Y-15534500D01*
X19434500Y-15974500D02*
X19459500Y-15999500D01*
X19459500Y-15974500D02*
X19434500Y-15999500D01*
X19489500Y-14234500D02*
X19514500Y-14259500D01*
X19514500Y-14234500D02*
X19489500Y-14259500D01*
X19548500Y-15432500D02*
X19573500Y-15457500D01*
X19573500Y-15432500D02*
X19548500Y-15457500D01*
X19549500Y-15499500D02*
X19574500Y-15524500D01*
X19574500Y-15499500D02*
X19549500Y-15524500D01*
X19580500Y-13657000D02*
X19605500Y-13682000D01*
X19605500Y-13657000D02*
X19580500Y-13682000D01*
X19583000Y-14247000D02*
X19608000Y-14272000D01*
X19608000Y-14247000D02*
X19583000Y-14272000D01*
X19602000Y-15499500D02*
X19627000Y-15524500D01*
X19627000Y-15499500D02*
X19602000Y-15524500D01*
X19603500Y-15432500D02*
X19628500Y-15457500D01*
X19628500Y-15432500D02*
X19603500Y-15457500D01*
X19630500Y-14334500D02*
X19655500Y-14359500D01*
X19655500Y-14334500D02*
X19630500Y-14359500D01*
X19659500Y-13604500D02*
X19684500Y-13629500D01*
X19684500Y-13604500D02*
X19659500Y-13629500D01*
X19659500Y-15974500D02*
X19684500Y-15999500D01*
X19684500Y-15974500D02*
X19659500Y-15999500D01*
X19717000Y-15499500D02*
X19742000Y-15524500D01*
X19742000Y-15499500D02*
X19717000Y-15524500D01*
X19717500Y-15433500D02*
X19742500Y-15458500D01*
X19742500Y-15433500D02*
X19717500Y-15458500D01*
X19740500Y-14267000D02*
X19765500Y-14292000D01*
X19765500Y-14267000D02*
X19740500Y-14292000D01*
X19749500Y-13634500D02*
X19774500Y-13659500D01*
X19774500Y-13634500D02*
X19749500Y-13659500D01*
X19769500Y-15499500D02*
X19794500Y-15524500D01*
X19794500Y-15499500D02*
X19769500Y-15524500D01*
X19772500Y-15433500D02*
X19797500Y-15458500D01*
X19797500Y-15433500D02*
X19772500Y-15458500D01*
X19849500Y-13644500D02*
X19874500Y-13669500D01*
X19874500Y-13644500D02*
X19849500Y-13669500D01*
X19884500Y-15974500D02*
X19909500Y-15999500D01*
X19909500Y-15974500D02*
X19884500Y-15999500D01*
X19897000Y-15509500D02*
X19922000Y-15534500D01*
X19922000Y-15509500D02*
X19897000Y-15534500D01*
X19919500Y-15717000D02*
X19944500Y-15742000D01*
X19944500Y-15717000D02*
X19919500Y-15742000D01*
X19925500Y-14007000D02*
X19950500Y-14032000D01*
X19950500Y-14007000D02*
X19925500Y-14032000D01*
X19950500Y-14167000D02*
X19975500Y-14192000D01*
X19975500Y-14167000D02*
X19950500Y-14192000D01*
X19984500Y-15974500D02*
X20009500Y-15999500D01*
X20009500Y-15974500D02*
X19984500Y-15999500D01*
X19997000Y-14107000D02*
X20022000Y-14132000D01*
X20022000Y-14107000D02*
X19997000Y-14132000D01*
X20056000Y-13954500D02*
X20081000Y-13979500D01*
X20081000Y-13954500D02*
X20056000Y-13979500D01*
X20084500Y-15974500D02*
X20109500Y-15999500D01*
X20109500Y-15974500D02*
X20084500Y-15999500D01*
X20117000Y-13999500D02*
X20142000Y-14024500D01*
X20142000Y-13999500D02*
X20117000Y-14024500D01*
X20924500Y-13104500D02*
X20949500Y-13129500D01*
X20949500Y-13104500D02*
X20924500Y-13129500D01*
X21034500Y-12954500D02*
X21059500Y-12979500D01*
X21059500Y-12954500D02*
X21034500Y-12979500D01*
X22159500Y-11530750D02*
X22184500Y-11555750D01*
X22184500Y-11530750D02*
X22159500Y-11555750D01*
X22284500Y-11600750D02*
X22309500Y-11625750D01*
X22309500Y-11600750D02*
X22284500Y-11625750D01*
X22292500Y-11247500D02*
X22317500Y-11272500D01*
X22317500Y-11247500D02*
X22292500Y-11272500D01*
X22359500Y-11247000D02*
X22384500Y-11272000D01*
X22384500Y-11247000D02*
X22359500Y-11272000D01*
X22409500Y-11530750D02*
X22434500Y-11555750D01*
X22434500Y-11530750D02*
X22409500Y-11555750D01*
X22454500Y-11248250D02*
X22479500Y-11273250D01*
X22479500Y-11248250D02*
X22454500Y-11273250D01*
X22559500Y-12484500D02*
X22584500Y-12509500D01*
X22584500Y-12484500D02*
X22559500Y-12509500D01*
X22607000Y-13967500D02*
X22632000Y-13992500D01*
X22632000Y-13967500D02*
X22607000Y-13992500D01*
X22657000Y-12697000D02*
X22682000Y-12722000D01*
X22682000Y-12697000D02*
X22657000Y-12722000D01*
X22659500Y-12604500D02*
X22684500Y-12629500D01*
X22684500Y-12604500D02*
X22659500Y-12629500D01*
X22729500Y-12764500D02*
X22754500Y-12789500D01*
X22754500Y-12764500D02*
X22729500Y-12789500D01*
X22819500Y-12734500D02*
X22844500Y-12759500D01*
X22844500Y-12734500D02*
X22819500Y-12759500D01*
X22877000Y-11365750D02*
X22902000Y-11390750D01*
X22902000Y-11365750D02*
X22877000Y-11390750D01*
X22969500Y-11394500D02*
X22994500Y-11419500D01*
X22994500Y-11394500D02*
X22969500Y-11419500D01*
X23045500Y-13693500D02*
X23070500Y-13718500D01*
X23070500Y-13693500D02*
X23045500Y-13718500D01*
X23141500Y-11774250D02*
X23166500Y-11799250D01*
X23166500Y-11774250D02*
X23141500Y-11799250D01*
X23172500Y-11680500D02*
X23197500Y-11705500D01*
X23197500Y-11680500D02*
X23172500Y-11705500D01*
X23192500Y-11246500D02*
X23217500Y-11271500D01*
X23217500Y-11246500D02*
X23192500Y-11271500D01*
X23208500Y-11774500D02*
X23233500Y-11799500D01*
X23233500Y-11774500D02*
X23208500Y-11799500D01*
X23242000Y-11468250D02*
X23267000Y-11493250D01*
X23267000Y-11468250D02*
X23242000Y-11493250D01*
X23242000Y-11695750D02*
X23267000Y-11720750D01*
X23267000Y-11695750D02*
X23242000Y-11720750D01*
X23259500Y-11247000D02*
X23284500Y-11272000D01*
X23284500Y-11247000D02*
X23259500Y-11272000D01*
X23302000Y-12124500D02*
X23327000Y-12149500D01*
X23327000Y-12124500D02*
X23302000Y-12149500D01*
X23354500Y-11248250D02*
X23379500Y-11273250D01*
X23379500Y-11248250D02*
X23354500Y-11273250D01*
X23369500Y-12192000D02*
X23394500Y-12217000D01*
X23394500Y-12192000D02*
X23369500Y-12217000D01*
X23369500Y-12644500D02*
X23394500Y-12669500D01*
X23394500Y-12644500D02*
X23369500Y-12669500D01*
X23409500Y-13209500D02*
X23434500Y-13234500D01*
X23434500Y-13209500D02*
X23409500Y-13234500D01*
X23409500Y-13277000D02*
X23434500Y-13302000D01*
X23434500Y-13277000D02*
X23409500Y-13302000D01*
X23419500Y-12144500D02*
X23444500Y-12169500D01*
X23444500Y-12144500D02*
X23419500Y-12169500D01*
X23439500Y-12574500D02*
X23464500Y-12599500D01*
X23464500Y-12574500D02*
X23439500Y-12599500D01*
X23497000Y-14222000D02*
X23522000Y-14247000D01*
X23522000Y-14222000D02*
X23497000Y-14247000D01*
X23534500Y-13204500D02*
X23559500Y-13229500D01*
X23559500Y-13204500D02*
X23534500Y-13229500D01*
X23572000Y-14222000D02*
X23597000Y-14247000D01*
X23597000Y-14222000D02*
X23572000Y-14247000D01*
X23659500Y-12554500D02*
X23684500Y-12579500D01*
X23684500Y-12554500D02*
X23659500Y-12579500D01*
X23684500Y-13274500D02*
X23709500Y-13299500D01*
X23709500Y-13274500D02*
X23684500Y-13299500D01*
X23959500Y-11534500D02*
X23984500Y-11559500D01*
X23984500Y-11534500D02*
X23959500Y-11559500D01*
X24005500Y-15676500D02*
X24030500Y-15701500D01*
X24030500Y-15676500D02*
X24005500Y-15701500D01*
X24039500Y-15734500D02*
X24064500Y-15759500D01*
X24064500Y-15734500D02*
X24039500Y-15759500D01*
X24084500Y-11607000D02*
X24109500Y-11632000D01*
X24109500Y-11607000D02*
X24084500Y-11632000D01*
X24092500Y-11246500D02*
X24117500Y-11271500D01*
X24117500Y-11246500D02*
X24092500Y-11271500D01*
X24127500Y-15906500D02*
X24152500Y-15931500D01*
X24152500Y-15906500D02*
X24127500Y-15931500D01*
X24127500Y-15973500D02*
X24152500Y-15998500D01*
X24152500Y-15973500D02*
X24127500Y-15998500D01*
X24159500Y-11247000D02*
X24184500Y-11272000D01*
X24184500Y-11247000D02*
X24159500Y-11272000D01*
X24182500Y-15905500D02*
X24207500Y-15930500D01*
X24207500Y-15905500D02*
X24182500Y-15930500D01*
X24182500Y-15973500D02*
X24207500Y-15998500D01*
X24207500Y-15973500D02*
X24182500Y-15998500D01*
X24209500Y-11535750D02*
X24234500Y-11560750D01*
X24234500Y-11535750D02*
X24209500Y-11560750D01*
X24237500Y-15905500D02*
X24262500Y-15930500D01*
X24262500Y-15905500D02*
X24237500Y-15930500D01*
X24237500Y-15973500D02*
X24262500Y-15998500D01*
X24262500Y-15973500D02*
X24237500Y-15998500D01*
X24254500Y-11248250D02*
X24279500Y-11273250D01*
X24279500Y-11248250D02*
X24254500Y-11273250D01*
X24284500Y-14884500D02*
X24309500Y-14909500D01*
X24309500Y-14884500D02*
X24284500Y-14909500D01*
X24346500Y-14499500D02*
X24371500Y-14524500D01*
X24371500Y-14499500D02*
X24346500Y-14524500D01*
X24347000Y-14567000D02*
X24372000Y-14592000D01*
X24372000Y-14567000D02*
X24347000Y-14592000D01*
X24417000Y-14692000D02*
X24442000Y-14717000D01*
X24442000Y-14692000D02*
X24417000Y-14717000D01*
X24519500Y-15734500D02*
X24544500Y-15759500D01*
X24544500Y-15734500D02*
X24519500Y-15759500D01*
X24532000Y-14704500D02*
X24557000Y-14729500D01*
X24557000Y-14704500D02*
X24532000Y-14729500D01*
X24571500Y-12698500D02*
X24596500Y-12723500D01*
X24596500Y-12698500D02*
X24571500Y-12723500D01*
X24572000Y-12632000D02*
X24597000Y-12657000D01*
X24597000Y-12632000D02*
X24572000Y-12657000D01*
X24626500Y-12698500D02*
X24651500Y-12723500D01*
X24651500Y-12698500D02*
X24626500Y-12723500D01*
X24627000Y-12454500D02*
X24652000Y-12479500D01*
X24652000Y-12454500D02*
X24627000Y-12479500D01*
X24627000Y-12632000D02*
X24652000Y-12657000D01*
X24652000Y-12632000D02*
X24627000Y-12657000D01*
X24627000Y-12934500D02*
X24652000Y-12959500D01*
X24652000Y-12934500D02*
X24627000Y-12959500D01*
X24627000Y-13777000D02*
X24652000Y-13802000D01*
X24652000Y-13777000D02*
X24627000Y-13802000D01*
X24677000Y-11367000D02*
X24702000Y-11392000D01*
X24702000Y-11367000D02*
X24677000Y-11392000D01*
X24681500Y-12698500D02*
X24706500Y-12723500D01*
X24706500Y-12698500D02*
X24681500Y-12723500D01*
X24682000Y-12632000D02*
X24707000Y-12657000D01*
X24707000Y-12632000D02*
X24682000Y-12657000D01*
X24685500Y-12423500D02*
X24710500Y-12448500D01*
X24710500Y-12423500D02*
X24685500Y-12448500D01*
X24769500Y-11392000D02*
X24794500Y-11417000D01*
X24794500Y-11392000D02*
X24769500Y-11417000D01*
X24814500Y-13334500D02*
X24839500Y-13359500D01*
X24839500Y-13334500D02*
X24814500Y-13359500D01*
X24814500Y-13389500D02*
X24839500Y-13414500D01*
X24839500Y-13389500D02*
X24814500Y-13414500D01*
X24814500Y-13444500D02*
X24839500Y-13469500D01*
X24839500Y-13444500D02*
X24814500Y-13469500D01*
X24827000Y-13062000D02*
X24852000Y-13087000D01*
X24852000Y-13062000D02*
X24827000Y-13087000D01*
X24891500Y-13335500D02*
X24916500Y-13360500D01*
X24916500Y-13335500D02*
X24891500Y-13360500D01*
X24891500Y-13390500D02*
X24916500Y-13415500D01*
X24916500Y-13390500D02*
X24891500Y-13415500D01*
X24902000Y-12944500D02*
X24927000Y-12969500D01*
X24927000Y-12944500D02*
X24902000Y-12969500D01*
X24944500Y-11775750D02*
X24969500Y-11800750D01*
X24969500Y-11775750D02*
X24944500Y-11800750D01*
X24974500Y-11679500D02*
X24999500Y-11704500D01*
X24999500Y-11679500D02*
X24974500Y-11704500D01*
X24984500Y-13390500D02*
X25009500Y-13415500D01*
X25009500Y-13390500D02*
X24984500Y-13415500D01*
X24984500Y-13445500D02*
X25009500Y-13470500D01*
X25009500Y-13445500D02*
X24984500Y-13470500D01*
X24992500Y-11247500D02*
X25017500Y-11272500D01*
X25017500Y-11247500D02*
X24992500Y-11272500D01*
X25011500Y-11775500D02*
X25036500Y-11800500D01*
X25036500Y-11775500D02*
X25011500Y-11800500D01*
X25042000Y-11475750D02*
X25067000Y-11500750D01*
X25067000Y-11475750D02*
X25042000Y-11500750D01*
X25042000Y-11695750D02*
X25067000Y-11720750D01*
X25067000Y-11695750D02*
X25042000Y-11720750D01*
X25059500Y-11247000D02*
X25084500Y-11272000D01*
X25084500Y-11247000D02*
X25059500Y-11272000D01*
X25062000Y-13334500D02*
X25087000Y-13359500D01*
X25087000Y-13334500D02*
X25062000Y-13359500D01*
X25062000Y-13389500D02*
X25087000Y-13414500D01*
X25087000Y-13389500D02*
X25062000Y-13414500D01*
X25062000Y-13444500D02*
X25087000Y-13469500D01*
X25087000Y-13444500D02*
X25062000Y-13469500D01*
X25154500Y-11248250D02*
X25179500Y-11273250D01*
X25179500Y-11248250D02*
X25154500Y-11273250D01*
X25159500Y-12942000D02*
X25184500Y-12967000D01*
X25184500Y-12942000D02*
X25159500Y-12967000D01*
X25183500Y-15676500D02*
X25208500Y-15701500D01*
X25208500Y-15676500D02*
X25183500Y-15701500D01*
X25192000Y-14887000D02*
X25217000Y-14912000D01*
X25217000Y-14887000D02*
X25192000Y-14912000D01*
X25214500Y-15734500D02*
X25239500Y-15759500D01*
X25239500Y-15734500D02*
X25214500Y-15759500D01*
X25332000Y-12154500D02*
X25357000Y-12179500D01*
X25357000Y-12154500D02*
X25332000Y-12179500D01*
X25379500Y-12669500D02*
X25404500Y-12694500D01*
X25404500Y-12669500D02*
X25379500Y-12694500D01*
X25392000Y-15679500D02*
X25417000Y-15704500D01*
X25417000Y-15679500D02*
X25392000Y-15704500D01*
X25392000Y-15734500D02*
X25417000Y-15759500D01*
X25417000Y-15734500D02*
X25392000Y-15759500D01*
X25392000Y-15789500D02*
X25417000Y-15814500D01*
X25417000Y-15789500D02*
X25392000Y-15814500D01*
X25432000Y-12447000D02*
X25457000Y-12472000D01*
X25457000Y-12447000D02*
X25432000Y-12472000D01*
X25458500Y-15678500D02*
X25483500Y-15703500D01*
X25483500Y-15678500D02*
X25458500Y-15703500D01*
X25458500Y-15733500D02*
X25483500Y-15758500D01*
X25483500Y-15733500D02*
X25458500Y-15758500D01*
X25458500Y-15788500D02*
X25483500Y-15813500D01*
X25483500Y-15788500D02*
X25458500Y-15813500D01*
X25484500Y-12669500D02*
X25509500Y-12694500D01*
X25509500Y-12669500D02*
X25484500Y-12694500D01*
X25532000Y-12154500D02*
X25557000Y-12179500D01*
X25557000Y-12154500D02*
X25532000Y-12179500D01*
X25694500Y-15734500D02*
X25719500Y-15759500D01*
X25719500Y-15734500D02*
X25694500Y-15759500D01*
X25704500Y-12892000D02*
X25729500Y-12917000D01*
X25729500Y-12892000D02*
X25704500Y-12917000D01*
X25704500Y-12992000D02*
X25729500Y-13017000D01*
X25729500Y-12992000D02*
X25704500Y-13017000D01*
X25734500Y-12722000D02*
X25759500Y-12747000D01*
X25759500Y-12722000D02*
X25734500Y-12747000D01*
X25754500Y-11822500D02*
X25779500Y-11847500D01*
X25779500Y-11822500D02*
X25754500Y-11847500D01*
X25754500Y-11877500D02*
X25779500Y-11902500D01*
X25779500Y-11877500D02*
X25754500Y-11902500D01*
X25754500Y-11932500D02*
X25779500Y-11957500D01*
X25779500Y-11932500D02*
X25754500Y-11957500D01*
X25832000Y-11822000D02*
X25857000Y-11847000D01*
X25857000Y-11822000D02*
X25832000Y-11847000D01*
X25832000Y-11877000D02*
X25857000Y-11902000D01*
X25857000Y-11877000D02*
X25832000Y-11902000D01*
X25832000Y-11932000D02*
X25857000Y-11957000D01*
X25857000Y-11932000D02*
X25832000Y-11957000D01*
X25957000Y-12722000D02*
X25982000Y-12747000D01*
X25982000Y-12722000D02*
X25957000Y-12747000D01*
X26069500Y-14897000D02*
X26094500Y-14922000D01*
X26094500Y-14897000D02*
X26069500Y-14922000D01*
X26071500Y-12382000D02*
X26096500Y-12407000D01*
X26096500Y-12382000D02*
X26071500Y-12407000D01*
X26071500Y-12437000D02*
X26096500Y-12462000D01*
X26096500Y-12437000D02*
X26071500Y-12462000D01*
X26071500Y-12492000D02*
X26096500Y-12517000D01*
X26096500Y-12492000D02*
X26071500Y-12517000D01*
X26149500Y-12382000D02*
X26174500Y-12407000D01*
X26174500Y-12382000D02*
X26149500Y-12407000D01*
X26149500Y-12437000D02*
X26174500Y-12462000D01*
X26174500Y-12437000D02*
X26149500Y-12462000D01*
X26149500Y-12492000D02*
X26174500Y-12517000D01*
X26174500Y-12492000D02*
X26149500Y-12517000D01*
X26512000Y-15512000D02*
X26537000Y-15537000D01*
X26537000Y-15512000D02*
X26512000Y-15537000D01*
X26564500Y-15551500D02*
X26589500Y-15576500D01*
X26589500Y-15551500D02*
X26564500Y-15576500D01*
X26574500Y-15197000D02*
X26599500Y-15222000D01*
X26599500Y-15197000D02*
X26574500Y-15222000D01*
X26644500Y-15322000D02*
X26669500Y-15347000D01*
X26669500Y-15322000D02*
X26644500Y-15347000D01*
X26677000Y-11909500D02*
X26702000Y-11934500D01*
X26702000Y-11909500D02*
X26677000Y-11934500D01*
X26677000Y-12142000D02*
X26702000Y-12167000D01*
X26702000Y-12142000D02*
X26677000Y-12167000D01*
X26697450Y-12436476D02*
X26722450Y-12461476D01*
X26722450Y-12436476D02*
X26697450Y-12461476D01*
X26707500Y-14231500D02*
X26732500Y-14256500D01*
X26732500Y-14231500D02*
X26707500Y-14256500D01*
X26807000Y-14917000D02*
X26832000Y-14942000D01*
X26832000Y-14917000D02*
X26807000Y-14942000D01*
X25509500Y-13592000D02*
G75*
G03*
X25509500Y-13592000I-12500J0D01*
G01*
X25572000Y-13592000D02*
G75*
G03*
X25572000Y-13592000I-12500J0D01*
G01*
X25634500Y-13592000D02*
G75*
G03*
X25634500Y-13592000I-12500J0D01*
G01*
D13*
X17772000Y-10767000D02*
X17772000Y-10867000D01*
X17722000Y-10817000D02*
X17822000Y-10817000D01*
D11*
X17722000Y-10617000D02*
X17722000Y-11017000D01*
X17722000Y-11017000D02*
G75*
G03*
X17822000Y-11017000I50000J0D01*
G01*
X17822000Y-11017000D02*
X17822000Y-10617000D01*
X17822000Y-10617000D02*
G75*
G03*
X17722000Y-10617000I-50000J0D01*
G01*
D13*
X17772000Y-11352000D02*
X17772000Y-11452000D01*
X17722000Y-11402000D02*
X17822000Y-11402000D01*
D11*
X17722000Y-11202000D02*
X17722000Y-11602000D01*
X17722000Y-11602000D02*
G75*
G03*
X17822000Y-11602000I50000J0D01*
G01*
X17822000Y-11602000D02*
X17822000Y-11202000D01*
X17822000Y-11202000D02*
G75*
G03*
X17722000Y-11202000I-50000J0D01*
G01*
D13*
X17772000Y-11937000D02*
X17772000Y-12037000D01*
X17722000Y-11987000D02*
X17822000Y-11987000D01*
D11*
X17722000Y-11787000D02*
X17722000Y-12187000D01*
X17722000Y-12187000D02*
G75*
G03*
X17822000Y-12187000I50000J0D01*
G01*
X17822000Y-12187000D02*
X17822000Y-11787000D01*
X17822000Y-11787000D02*
G75*
G03*
X17722000Y-11787000I-50000J0D01*
G01*
D13*
X19372000Y-10767000D02*
X19372000Y-10867000D01*
X19322000Y-10817000D02*
X19422000Y-10817000D01*
D11*
X19322000Y-10617000D02*
X19322000Y-11017000D01*
X19322000Y-11017000D02*
G75*
G03*
X19422000Y-11017000I50000J0D01*
G01*
X19422000Y-11017000D02*
X19422000Y-10617000D01*
X19422000Y-10617000D02*
G75*
G03*
X19322000Y-10617000I-50000J0D01*
G01*
D13*
X19372000Y-11352000D02*
X19372000Y-11452000D01*
X19322000Y-11402000D02*
X19422000Y-11402000D01*
D11*
X19322000Y-11202000D02*
X19322000Y-11602000D01*
X19322000Y-11602000D02*
G75*
G03*
X19422000Y-11602000I50000J0D01*
G01*
X19422000Y-11602000D02*
X19422000Y-11202000D01*
X19422000Y-11202000D02*
G75*
G03*
X19322000Y-11202000I-50000J0D01*
G01*
D13*
X19372000Y-11937000D02*
X19372000Y-12037000D01*
X19322000Y-11987000D02*
X19422000Y-11987000D01*
D11*
X19322000Y-11787000D02*
X19322000Y-12187000D01*
X19322000Y-12187000D02*
G75*
G03*
X19422000Y-12187000I50000J0D01*
G01*
X19422000Y-12187000D02*
X19422000Y-11787000D01*
X19422000Y-11787000D02*
G75*
G03*
X19322000Y-11787000I-50000J0D01*
G01*
D13*
X19972000Y-10767000D02*
X19972000Y-10867000D01*
X19922000Y-10817000D02*
X20022000Y-10817000D01*
D11*
X19922000Y-10617000D02*
X19922000Y-11017000D01*
X19922000Y-11017000D02*
G75*
G03*
X20022000Y-11017000I50000J0D01*
G01*
X20022000Y-11017000D02*
X20022000Y-10617000D01*
X20022000Y-10617000D02*
G75*
G03*
X19922000Y-10617000I-50000J0D01*
G01*
D13*
X19972000Y-11352000D02*
X19972000Y-11452000D01*
X19922000Y-11402000D02*
X20022000Y-11402000D01*
D11*
X19922000Y-11202000D02*
X19922000Y-11602000D01*
X19922000Y-11602000D02*
G75*
G03*
X20022000Y-11602000I50000J0D01*
G01*
X20022000Y-11602000D02*
X20022000Y-11202000D01*
X20022000Y-11202000D02*
G75*
G03*
X19922000Y-11202000I-50000J0D01*
G01*
D13*
X19972000Y-11937000D02*
X19972000Y-12037000D01*
X19922000Y-11987000D02*
X20022000Y-11987000D01*
D11*
X19922000Y-11787000D02*
X19922000Y-12187000D01*
X19922000Y-12187000D02*
G75*
G03*
X20022000Y-12187000I50000J0D01*
G01*
X20022000Y-12187000D02*
X20022000Y-11787000D01*
X20022000Y-11787000D02*
G75*
G03*
X19922000Y-11787000I-50000J0D01*
G01*
D13*
X21572000Y-10767000D02*
X21572000Y-10867000D01*
X21522000Y-10817000D02*
X21622000Y-10817000D01*
D11*
X21522000Y-10617000D02*
X21522000Y-11017000D01*
X21522000Y-11017000D02*
G75*
G03*
X21622000Y-11017000I50000J0D01*
G01*
X21622000Y-11017000D02*
X21622000Y-10617000D01*
X21622000Y-10617000D02*
G75*
G03*
X21522000Y-10617000I-50000J0D01*
G01*
D13*
X21572000Y-11352000D02*
X21572000Y-11452000D01*
X21522000Y-11402000D02*
X21622000Y-11402000D01*
D11*
X21522000Y-11202000D02*
X21522000Y-11602000D01*
X21522000Y-11602000D02*
G75*
G03*
X21622000Y-11602000I50000J0D01*
G01*
X21622000Y-11602000D02*
X21622000Y-11202000D01*
X21622000Y-11202000D02*
G75*
G03*
X21522000Y-11202000I-50000J0D01*
G01*
D13*
X21572000Y-11937000D02*
X21572000Y-12037000D01*
X21522000Y-11987000D02*
X21622000Y-11987000D01*
D11*
X21522000Y-11787000D02*
X21522000Y-12187000D01*
X21522000Y-12187000D02*
G75*
G03*
X21622000Y-12187000I50000J0D01*
G01*
X21622000Y-12187000D02*
X21622000Y-11787000D01*
X21622000Y-11787000D02*
G75*
G03*
X21522000Y-11787000I-50000J0D01*
G01*
D13*
X22172000Y-10917000D02*
X22172000Y-11017000D01*
X22122000Y-10967000D02*
X22222000Y-10967000D01*
X22372000Y-10917000D02*
X22372000Y-11017000D01*
X22322000Y-10967000D02*
X22422000Y-10967000D01*
X23072000Y-10917000D02*
X23072000Y-11017000D01*
X23022000Y-10967000D02*
X23122000Y-10967000D01*
X23272000Y-10917000D02*
X23272000Y-11017000D01*
X23222000Y-10967000D02*
X23322000Y-10967000D01*
X23972000Y-10917000D02*
X23972000Y-11017000D01*
X23922000Y-10967000D02*
X24022000Y-10967000D01*
X24172000Y-10917000D02*
X24172000Y-11017000D01*
X24122000Y-10967000D02*
X24222000Y-10967000D01*
X24872000Y-10917000D02*
X24872000Y-11017000D01*
X24822000Y-10967000D02*
X24922000Y-10967000D01*
X25072000Y-10917000D02*
X25072000Y-11017000D01*
X25022000Y-10967000D02*
X25122000Y-10967000D01*
X25702000Y-10843210D02*
X25702000Y-10943210D01*
X25652000Y-10893210D02*
X25752000Y-10893210D01*
D11*
X25752000Y-10968210D02*
X25752000Y-10818210D01*
X25752000Y-10818210D02*
G75*
G03*
X25652000Y-10818210I-50000J0D01*
G01*
X25652000Y-10818210D02*
X25652000Y-10968210D01*
X25652000Y-10968210D02*
G75*
G03*
X25752000Y-10968210I50000J0D01*
G01*
D13*
X26152000Y-10943210D02*
X26152000Y-11043210D01*
X26102000Y-10993210D02*
X26202000Y-10993210D01*
D11*
X26087000Y-11043210D02*
X26217000Y-11043210D01*
X26217000Y-11043210D02*
G75*
G03*
X26217000Y-10943210I0J50000D01*
G01*
X26217000Y-10943210D02*
X26087000Y-10943210D01*
X26087000Y-10943210D02*
G75*
G03*
X26087000Y-11043210I0J-50000D01*
G01*
D13*
X26152000Y-11543210D02*
X26152000Y-11643210D01*
X26102000Y-11593210D02*
X26202000Y-11593210D01*
D11*
X26052000Y-11643210D02*
X26252000Y-11643210D01*
X26252000Y-11643210D02*
G75*
G03*
X26252000Y-11543210I0J50000D01*
G01*
X26252000Y-11543210D02*
X26052000Y-11543210D01*
X26052000Y-11543210D02*
G75*
G03*
X26052000Y-11643210I0J-50000D01*
G01*
D13*
X26602000Y-10843210D02*
X26602000Y-10943210D01*
X26552000Y-10893210D02*
X26652000Y-10893210D01*
D11*
X26652000Y-10968210D02*
X26652000Y-10818210D01*
X26652000Y-10818210D02*
G75*
G03*
X26552000Y-10818210I-50000J0D01*
G01*
X26552000Y-10818210D02*
X26552000Y-10968210D01*
X26552000Y-10968210D02*
G75*
G03*
X26652000Y-10968210I50000J0D01*
G01*
X17330277Y-16680984D02*
X17330277Y-16480984D01*
X17330277Y-16480984D02*
X17377896Y-16480984D01*
X17377896Y-16480984D02*
X17406467Y-16490508D01*
X17406467Y-16490508D02*
X17425515Y-16509555D01*
X17425515Y-16509555D02*
X17435039Y-16528603D01*
X17435039Y-16528603D02*
X17444563Y-16566698D01*
X17444563Y-16566698D02*
X17444563Y-16595269D01*
X17444563Y-16595269D02*
X17435039Y-16633365D01*
X17435039Y-16633365D02*
X17425515Y-16652412D01*
X17425515Y-16652412D02*
X17406467Y-16671460D01*
X17406467Y-16671460D02*
X17377896Y-16680984D01*
X17377896Y-16680984D02*
X17330277Y-16680984D01*
X17530277Y-16680984D02*
X17530277Y-16547650D01*
X17530277Y-16585746D02*
X17539801Y-16566698D01*
X17539801Y-16566698D02*
X17549324Y-16557174D01*
X17549324Y-16557174D02*
X17568372Y-16547650D01*
X17568372Y-16547650D02*
X17587420Y-16547650D01*
X17654086Y-16680984D02*
X17654086Y-16547650D01*
X17654086Y-16480984D02*
X17644563Y-16490508D01*
X17644563Y-16490508D02*
X17654086Y-16500031D01*
X17654086Y-16500031D02*
X17663610Y-16490508D01*
X17663610Y-16490508D02*
X17654086Y-16480984D01*
X17654086Y-16480984D02*
X17654086Y-16500031D01*
X17777896Y-16680984D02*
X17758848Y-16671460D01*
X17758848Y-16671460D02*
X17749324Y-16652412D01*
X17749324Y-16652412D02*
X17749324Y-16480984D01*
X17882658Y-16680984D02*
X17863610Y-16671460D01*
X17863610Y-16671460D02*
X17854086Y-16652412D01*
X17854086Y-16652412D02*
X17854086Y-16480984D01*
X18111229Y-16680984D02*
X18111229Y-16480984D01*
X18111229Y-16480984D02*
X18177896Y-16623841D01*
X18177896Y-16623841D02*
X18244563Y-16480984D01*
X18244563Y-16480984D02*
X18244563Y-16680984D01*
X18425515Y-16680984D02*
X18425515Y-16576222D01*
X18425515Y-16576222D02*
X18415991Y-16557174D01*
X18415991Y-16557174D02*
X18396944Y-16547650D01*
X18396944Y-16547650D02*
X18358848Y-16547650D01*
X18358848Y-16547650D02*
X18339801Y-16557174D01*
X18425515Y-16671460D02*
X18406467Y-16680984D01*
X18406467Y-16680984D02*
X18358848Y-16680984D01*
X18358848Y-16680984D02*
X18339801Y-16671460D01*
X18339801Y-16671460D02*
X18330277Y-16652412D01*
X18330277Y-16652412D02*
X18330277Y-16633365D01*
X18330277Y-16633365D02*
X18339801Y-16614317D01*
X18339801Y-16614317D02*
X18358848Y-16604793D01*
X18358848Y-16604793D02*
X18406467Y-16604793D01*
X18406467Y-16604793D02*
X18425515Y-16595269D01*
X18520753Y-16547650D02*
X18520753Y-16747650D01*
X18520753Y-16557174D02*
X18539801Y-16547650D01*
X18539801Y-16547650D02*
X18577896Y-16547650D01*
X18577896Y-16547650D02*
X18596944Y-16557174D01*
X18596944Y-16557174D02*
X18606467Y-16566698D01*
X18606467Y-16566698D02*
X18615991Y-16585746D01*
X18615991Y-16585746D02*
X18615991Y-16642888D01*
X18615991Y-16642888D02*
X18606467Y-16661936D01*
X18606467Y-16661936D02*
X18596944Y-16671460D01*
X18596944Y-16671460D02*
X18577896Y-16680984D01*
X18577896Y-16680984D02*
X18539801Y-16680984D01*
X18539801Y-16680984D02*
X18520753Y-16671460D01*
X18701705Y-16661936D02*
X18711229Y-16671460D01*
X18711229Y-16671460D02*
X18701705Y-16680984D01*
X18701705Y-16680984D02*
X18692182Y-16671460D01*
X18692182Y-16671460D02*
X18701705Y-16661936D01*
X18701705Y-16661936D02*
X18701705Y-16680984D01*
X18701705Y-16557174D02*
X18711229Y-16566698D01*
X18711229Y-16566698D02*
X18701705Y-16576222D01*
X18701705Y-16576222D02*
X18692182Y-16566698D01*
X18692182Y-16566698D02*
X18701705Y-16557174D01*
X18701705Y-16557174D02*
X18701705Y-16576222D01*
D12*
X17044500Y-16997000D02*
X17069500Y-17022000D01*
X17069500Y-16997000D02*
X17044500Y-17022000D01*
D11*
X17368372Y-16900984D02*
X17387420Y-16900984D01*
X17387420Y-16900984D02*
X17406467Y-16910508D01*
X17406467Y-16910508D02*
X17415991Y-16920031D01*
X17415991Y-16920031D02*
X17425515Y-16939079D01*
X17425515Y-16939079D02*
X17435039Y-16977174D01*
X17435039Y-16977174D02*
X17435039Y-17024793D01*
X17435039Y-17024793D02*
X17425515Y-17062889D01*
X17425515Y-17062889D02*
X17415991Y-17081936D01*
X17415991Y-17081936D02*
X17406467Y-17091460D01*
X17406467Y-17091460D02*
X17387420Y-17100984D01*
X17387420Y-17100984D02*
X17368372Y-17100984D01*
X17368372Y-17100984D02*
X17349324Y-17091460D01*
X17349324Y-17091460D02*
X17339801Y-17081936D01*
X17339801Y-17081936D02*
X17330277Y-17062889D01*
X17330277Y-17062889D02*
X17320753Y-17024793D01*
X17320753Y-17024793D02*
X17320753Y-16977174D01*
X17320753Y-16977174D02*
X17330277Y-16939079D01*
X17330277Y-16939079D02*
X17339801Y-16920031D01*
X17339801Y-16920031D02*
X17349324Y-16910508D01*
X17349324Y-16910508D02*
X17368372Y-16900984D01*
X17520753Y-17081936D02*
X17530277Y-17091460D01*
X17530277Y-17091460D02*
X17520753Y-17100984D01*
X17520753Y-17100984D02*
X17511229Y-17091460D01*
X17511229Y-17091460D02*
X17520753Y-17081936D01*
X17520753Y-17081936D02*
X17520753Y-17100984D01*
X17606467Y-16920031D02*
X17615991Y-16910508D01*
X17615991Y-16910508D02*
X17635039Y-16900984D01*
X17635039Y-16900984D02*
X17682658Y-16900984D01*
X17682658Y-16900984D02*
X17701705Y-16910508D01*
X17701705Y-16910508D02*
X17711229Y-16920031D01*
X17711229Y-16920031D02*
X17720753Y-16939079D01*
X17720753Y-16939079D02*
X17720753Y-16958127D01*
X17720753Y-16958127D02*
X17711229Y-16986698D01*
X17711229Y-16986698D02*
X17596944Y-17100984D01*
X17596944Y-17100984D02*
X17720753Y-17100984D01*
X17901705Y-16900984D02*
X17806467Y-16900984D01*
X17806467Y-16900984D02*
X17796944Y-16996222D01*
X17796944Y-16996222D02*
X17806467Y-16986698D01*
X17806467Y-16986698D02*
X17825515Y-16977174D01*
X17825515Y-16977174D02*
X17873134Y-16977174D01*
X17873134Y-16977174D02*
X17892182Y-16986698D01*
X17892182Y-16986698D02*
X17901705Y-16996222D01*
X17901705Y-16996222D02*
X17911229Y-17015270D01*
X17911229Y-17015270D02*
X17911229Y-17062889D01*
X17911229Y-17062889D02*
X17901705Y-17081936D01*
X17901705Y-17081936D02*
X17892182Y-17091460D01*
X17892182Y-17091460D02*
X17873134Y-17100984D01*
X17873134Y-17100984D02*
X17825515Y-17100984D01*
X17825515Y-17100984D02*
X17806467Y-17091460D01*
X17806467Y-17091460D02*
X17796944Y-17081936D01*
X18035039Y-16900984D02*
X18054086Y-16900984D01*
X18054086Y-16900984D02*
X18073134Y-16910508D01*
X18073134Y-16910508D02*
X18082658Y-16920031D01*
X18082658Y-16920031D02*
X18092182Y-16939079D01*
X18092182Y-16939079D02*
X18101705Y-16977174D01*
X18101705Y-16977174D02*
X18101705Y-17024793D01*
X18101705Y-17024793D02*
X18092182Y-17062889D01*
X18092182Y-17062889D02*
X18082658Y-17081936D01*
X18082658Y-17081936D02*
X18073134Y-17091460D01*
X18073134Y-17091460D02*
X18054086Y-17100984D01*
X18054086Y-17100984D02*
X18035039Y-17100984D01*
X18035039Y-17100984D02*
X18015991Y-17091460D01*
X18015991Y-17091460D02*
X18006467Y-17081936D01*
X18006467Y-17081936D02*
X17996944Y-17062889D01*
X17996944Y-17062889D02*
X17987420Y-17024793D01*
X17987420Y-17024793D02*
X17987420Y-16977174D01*
X17987420Y-16977174D02*
X17996944Y-16939079D01*
X17996944Y-16939079D02*
X18006467Y-16920031D01*
X18006467Y-16920031D02*
X18015991Y-16910508D01*
X18015991Y-16910508D02*
X18035039Y-16900984D01*
X18187420Y-17100984D02*
X18187420Y-16967650D01*
X18187420Y-16986698D02*
X18196944Y-16977174D01*
X18196944Y-16977174D02*
X18215991Y-16967650D01*
X18215991Y-16967650D02*
X18244563Y-16967650D01*
X18244563Y-16967650D02*
X18263610Y-16977174D01*
X18263610Y-16977174D02*
X18273134Y-16996222D01*
X18273134Y-16996222D02*
X18273134Y-17100984D01*
X18273134Y-16996222D02*
X18282658Y-16977174D01*
X18282658Y-16977174D02*
X18301705Y-16967650D01*
X18301705Y-16967650D02*
X18330277Y-16967650D01*
X18330277Y-16967650D02*
X18349325Y-16977174D01*
X18349325Y-16977174D02*
X18358848Y-16996222D01*
X18358848Y-16996222D02*
X18358848Y-17100984D01*
X18454086Y-17100984D02*
X18454086Y-16967650D01*
X18454086Y-16986698D02*
X18463610Y-16977174D01*
X18463610Y-16977174D02*
X18482658Y-16967650D01*
X18482658Y-16967650D02*
X18511229Y-16967650D01*
X18511229Y-16967650D02*
X18530277Y-16977174D01*
X18530277Y-16977174D02*
X18539801Y-16996222D01*
X18539801Y-16996222D02*
X18539801Y-17100984D01*
X18539801Y-16996222D02*
X18549325Y-16977174D01*
X18549325Y-16977174D02*
X18568372Y-16967650D01*
X18568372Y-16967650D02*
X18596944Y-16967650D01*
X18596944Y-16967650D02*
X18615991Y-16977174D01*
X18615991Y-16977174D02*
X18625515Y-16996222D01*
X18625515Y-16996222D02*
X18625515Y-17100984D01*
X19015991Y-16891460D02*
X18844563Y-17148603D01*
X19273134Y-16900984D02*
X19292182Y-16900984D01*
X19292182Y-16900984D02*
X19311229Y-16910508D01*
X19311229Y-16910508D02*
X19320753Y-16920031D01*
X19320753Y-16920031D02*
X19330277Y-16939079D01*
X19330277Y-16939079D02*
X19339801Y-16977174D01*
X19339801Y-16977174D02*
X19339801Y-17024793D01*
X19339801Y-17024793D02*
X19330277Y-17062889D01*
X19330277Y-17062889D02*
X19320753Y-17081936D01*
X19320753Y-17081936D02*
X19311229Y-17091460D01*
X19311229Y-17091460D02*
X19292182Y-17100984D01*
X19292182Y-17100984D02*
X19273134Y-17100984D01*
X19273134Y-17100984D02*
X19254087Y-17091460D01*
X19254087Y-17091460D02*
X19244563Y-17081936D01*
X19244563Y-17081936D02*
X19235039Y-17062889D01*
X19235039Y-17062889D02*
X19225515Y-17024793D01*
X19225515Y-17024793D02*
X19225515Y-16977174D01*
X19225515Y-16977174D02*
X19235039Y-16939079D01*
X19235039Y-16939079D02*
X19244563Y-16920031D01*
X19244563Y-16920031D02*
X19254087Y-16910508D01*
X19254087Y-16910508D02*
X19273134Y-16900984D01*
X19425515Y-17081936D02*
X19435039Y-17091460D01*
X19435039Y-17091460D02*
X19425515Y-17100984D01*
X19425515Y-17100984D02*
X19415991Y-17091460D01*
X19415991Y-17091460D02*
X19425515Y-17081936D01*
X19425515Y-17081936D02*
X19425515Y-17100984D01*
X19558848Y-16900984D02*
X19577896Y-16900984D01*
X19577896Y-16900984D02*
X19596944Y-16910508D01*
X19596944Y-16910508D02*
X19606468Y-16920031D01*
X19606468Y-16920031D02*
X19615991Y-16939079D01*
X19615991Y-16939079D02*
X19625515Y-16977174D01*
X19625515Y-16977174D02*
X19625515Y-17024793D01*
X19625515Y-17024793D02*
X19615991Y-17062889D01*
X19615991Y-17062889D02*
X19606468Y-17081936D01*
X19606468Y-17081936D02*
X19596944Y-17091460D01*
X19596944Y-17091460D02*
X19577896Y-17100984D01*
X19577896Y-17100984D02*
X19558848Y-17100984D01*
X19558848Y-17100984D02*
X19539801Y-17091460D01*
X19539801Y-17091460D02*
X19530277Y-17081936D01*
X19530277Y-17081936D02*
X19520753Y-17062889D01*
X19520753Y-17062889D02*
X19511229Y-17024793D01*
X19511229Y-17024793D02*
X19511229Y-16977174D01*
X19511229Y-16977174D02*
X19520753Y-16939079D01*
X19520753Y-16939079D02*
X19530277Y-16920031D01*
X19530277Y-16920031D02*
X19539801Y-16910508D01*
X19539801Y-16910508D02*
X19558848Y-16900984D01*
X19749325Y-16900984D02*
X19768372Y-16900984D01*
X19768372Y-16900984D02*
X19787420Y-16910508D01*
X19787420Y-16910508D02*
X19796944Y-16920031D01*
X19796944Y-16920031D02*
X19806468Y-16939079D01*
X19806468Y-16939079D02*
X19815991Y-16977174D01*
X19815991Y-16977174D02*
X19815991Y-17024793D01*
X19815991Y-17024793D02*
X19806468Y-17062889D01*
X19806468Y-17062889D02*
X19796944Y-17081936D01*
X19796944Y-17081936D02*
X19787420Y-17091460D01*
X19787420Y-17091460D02*
X19768372Y-17100984D01*
X19768372Y-17100984D02*
X19749325Y-17100984D01*
X19749325Y-17100984D02*
X19730277Y-17091460D01*
X19730277Y-17091460D02*
X19720753Y-17081936D01*
X19720753Y-17081936D02*
X19711229Y-17062889D01*
X19711229Y-17062889D02*
X19701706Y-17024793D01*
X19701706Y-17024793D02*
X19701706Y-16977174D01*
X19701706Y-16977174D02*
X19711229Y-16939079D01*
X19711229Y-16939079D02*
X19720753Y-16920031D01*
X19720753Y-16920031D02*
X19730277Y-16910508D01*
X19730277Y-16910508D02*
X19749325Y-16900984D01*
X19911229Y-17100984D02*
X19949325Y-17100984D01*
X19949325Y-17100984D02*
X19968372Y-17091460D01*
X19968372Y-17091460D02*
X19977896Y-17081936D01*
X19977896Y-17081936D02*
X19996944Y-17053365D01*
X19996944Y-17053365D02*
X20006468Y-17015270D01*
X20006468Y-17015270D02*
X20006468Y-16939079D01*
X20006468Y-16939079D02*
X19996944Y-16920031D01*
X19996944Y-16920031D02*
X19987420Y-16910508D01*
X19987420Y-16910508D02*
X19968372Y-16900984D01*
X19968372Y-16900984D02*
X19930277Y-16900984D01*
X19930277Y-16900984D02*
X19911229Y-16910508D01*
X19911229Y-16910508D02*
X19901706Y-16920031D01*
X19901706Y-16920031D02*
X19892182Y-16939079D01*
X19892182Y-16939079D02*
X19892182Y-16986698D01*
X19892182Y-16986698D02*
X19901706Y-17005746D01*
X19901706Y-17005746D02*
X19911229Y-17015270D01*
X19911229Y-17015270D02*
X19930277Y-17024793D01*
X19930277Y-17024793D02*
X19968372Y-17024793D01*
X19968372Y-17024793D02*
X19987420Y-17015270D01*
X19987420Y-17015270D02*
X19996944Y-17005746D01*
X19996944Y-17005746D02*
X20006468Y-16986698D01*
X20120753Y-16986698D02*
X20101706Y-16977174D01*
X20101706Y-16977174D02*
X20092182Y-16967650D01*
X20092182Y-16967650D02*
X20082658Y-16948603D01*
X20082658Y-16948603D02*
X20082658Y-16939079D01*
X20082658Y-16939079D02*
X20092182Y-16920031D01*
X20092182Y-16920031D02*
X20101706Y-16910508D01*
X20101706Y-16910508D02*
X20120753Y-16900984D01*
X20120753Y-16900984D02*
X20158849Y-16900984D01*
X20158849Y-16900984D02*
X20177896Y-16910508D01*
X20177896Y-16910508D02*
X20187420Y-16920031D01*
X20187420Y-16920031D02*
X20196944Y-16939079D01*
X20196944Y-16939079D02*
X20196944Y-16948603D01*
X20196944Y-16948603D02*
X20187420Y-16967650D01*
X20187420Y-16967650D02*
X20177896Y-16977174D01*
X20177896Y-16977174D02*
X20158849Y-16986698D01*
X20158849Y-16986698D02*
X20120753Y-16986698D01*
X20120753Y-16986698D02*
X20101706Y-16996222D01*
X20101706Y-16996222D02*
X20092182Y-17005746D01*
X20092182Y-17005746D02*
X20082658Y-17024793D01*
X20082658Y-17024793D02*
X20082658Y-17062889D01*
X20082658Y-17062889D02*
X20092182Y-17081936D01*
X20092182Y-17081936D02*
X20101706Y-17091460D01*
X20101706Y-17091460D02*
X20120753Y-17100984D01*
X20120753Y-17100984D02*
X20158849Y-17100984D01*
X20158849Y-17100984D02*
X20177896Y-17091460D01*
X20177896Y-17091460D02*
X20187420Y-17081936D01*
X20187420Y-17081936D02*
X20196944Y-17062889D01*
X20196944Y-17062889D02*
X20196944Y-17024793D01*
X20196944Y-17024793D02*
X20187420Y-17005746D01*
X20187420Y-17005746D02*
X20177896Y-16996222D01*
X20177896Y-16996222D02*
X20158849Y-16986698D01*
X20273134Y-16900984D02*
X20273134Y-16939079D01*
X20349325Y-16900984D02*
X20349325Y-16939079D01*
X20644563Y-17177174D02*
X20635039Y-17167650D01*
X20635039Y-17167650D02*
X20615991Y-17139079D01*
X20615991Y-17139079D02*
X20606468Y-17120031D01*
X20606468Y-17120031D02*
X20596944Y-17091460D01*
X20596944Y-17091460D02*
X20587420Y-17043841D01*
X20587420Y-17043841D02*
X20587420Y-17005746D01*
X20587420Y-17005746D02*
X20596944Y-16958127D01*
X20596944Y-16958127D02*
X20606468Y-16929555D01*
X20606468Y-16929555D02*
X20615991Y-16910508D01*
X20615991Y-16910508D02*
X20635039Y-16881936D01*
X20635039Y-16881936D02*
X20644563Y-16872412D01*
X20825515Y-17100984D02*
X20711230Y-17100984D01*
X20768372Y-17100984D02*
X20768372Y-16900984D01*
X20768372Y-16900984D02*
X20749325Y-16929555D01*
X20749325Y-16929555D02*
X20730277Y-16948603D01*
X20730277Y-16948603D02*
X20711230Y-16958127D01*
X20996944Y-16900984D02*
X20958849Y-16900984D01*
X20958849Y-16900984D02*
X20939801Y-16910508D01*
X20939801Y-16910508D02*
X20930277Y-16920031D01*
X20930277Y-16920031D02*
X20911230Y-16948603D01*
X20911230Y-16948603D02*
X20901706Y-16986698D01*
X20901706Y-16986698D02*
X20901706Y-17062889D01*
X20901706Y-17062889D02*
X20911230Y-17081936D01*
X20911230Y-17081936D02*
X20920753Y-17091460D01*
X20920753Y-17091460D02*
X20939801Y-17100984D01*
X20939801Y-17100984D02*
X20977896Y-17100984D01*
X20977896Y-17100984D02*
X20996944Y-17091460D01*
X20996944Y-17091460D02*
X21006468Y-17081936D01*
X21006468Y-17081936D02*
X21015991Y-17062889D01*
X21015991Y-17062889D02*
X21015991Y-17015270D01*
X21015991Y-17015270D02*
X21006468Y-16996222D01*
X21006468Y-16996222D02*
X20996944Y-16986698D01*
X20996944Y-16986698D02*
X20977896Y-16977174D01*
X20977896Y-16977174D02*
X20939801Y-16977174D01*
X20939801Y-16977174D02*
X20920753Y-16986698D01*
X20920753Y-16986698D02*
X20911230Y-16996222D01*
X20911230Y-16996222D02*
X20901706Y-17015270D01*
X21111230Y-17100984D02*
X21149325Y-17100984D01*
X21149325Y-17100984D02*
X21168372Y-17091460D01*
X21168372Y-17091460D02*
X21177896Y-17081936D01*
X21177896Y-17081936D02*
X21196944Y-17053365D01*
X21196944Y-17053365D02*
X21206468Y-17015270D01*
X21206468Y-17015270D02*
X21206468Y-16939079D01*
X21206468Y-16939079D02*
X21196944Y-16920031D01*
X21196944Y-16920031D02*
X21187420Y-16910508D01*
X21187420Y-16910508D02*
X21168372Y-16900984D01*
X21168372Y-16900984D02*
X21130277Y-16900984D01*
X21130277Y-16900984D02*
X21111230Y-16910508D01*
X21111230Y-16910508D02*
X21101706Y-16920031D01*
X21101706Y-16920031D02*
X21092182Y-16939079D01*
X21092182Y-16939079D02*
X21092182Y-16986698D01*
X21092182Y-16986698D02*
X21101706Y-17005746D01*
X21101706Y-17005746D02*
X21111230Y-17015270D01*
X21111230Y-17015270D02*
X21130277Y-17024793D01*
X21130277Y-17024793D02*
X21168372Y-17024793D01*
X21168372Y-17024793D02*
X21187420Y-17015270D01*
X21187420Y-17015270D02*
X21196944Y-17005746D01*
X21196944Y-17005746D02*
X21206468Y-16986698D01*
X21444563Y-17100984D02*
X21444563Y-16900984D01*
X21530277Y-17100984D02*
X21530277Y-16996222D01*
X21530277Y-16996222D02*
X21520753Y-16977174D01*
X21520753Y-16977174D02*
X21501706Y-16967650D01*
X21501706Y-16967650D02*
X21473134Y-16967650D01*
X21473134Y-16967650D02*
X21454087Y-16977174D01*
X21454087Y-16977174D02*
X21444563Y-16986698D01*
X21654087Y-17100984D02*
X21635039Y-17091460D01*
X21635039Y-17091460D02*
X21625515Y-17081936D01*
X21625515Y-17081936D02*
X21615992Y-17062889D01*
X21615992Y-17062889D02*
X21615992Y-17005746D01*
X21615992Y-17005746D02*
X21625515Y-16986698D01*
X21625515Y-16986698D02*
X21635039Y-16977174D01*
X21635039Y-16977174D02*
X21654087Y-16967650D01*
X21654087Y-16967650D02*
X21682658Y-16967650D01*
X21682658Y-16967650D02*
X21701706Y-16977174D01*
X21701706Y-16977174D02*
X21711230Y-16986698D01*
X21711230Y-16986698D02*
X21720753Y-17005746D01*
X21720753Y-17005746D02*
X21720753Y-17062889D01*
X21720753Y-17062889D02*
X21711230Y-17081936D01*
X21711230Y-17081936D02*
X21701706Y-17091460D01*
X21701706Y-17091460D02*
X21682658Y-17100984D01*
X21682658Y-17100984D02*
X21654087Y-17100984D01*
X21835039Y-17100984D02*
X21815992Y-17091460D01*
X21815992Y-17091460D02*
X21806468Y-17072412D01*
X21806468Y-17072412D02*
X21806468Y-16900984D01*
X21987420Y-17091460D02*
X21968373Y-17100984D01*
X21968373Y-17100984D02*
X21930277Y-17100984D01*
X21930277Y-17100984D02*
X21911230Y-17091460D01*
X21911230Y-17091460D02*
X21901706Y-17072412D01*
X21901706Y-17072412D02*
X21901706Y-16996222D01*
X21901706Y-16996222D02*
X21911230Y-16977174D01*
X21911230Y-16977174D02*
X21930277Y-16967650D01*
X21930277Y-16967650D02*
X21968373Y-16967650D01*
X21968373Y-16967650D02*
X21987420Y-16977174D01*
X21987420Y-16977174D02*
X21996944Y-16996222D01*
X21996944Y-16996222D02*
X21996944Y-17015270D01*
X21996944Y-17015270D02*
X21901706Y-17034317D01*
X22073134Y-17091460D02*
X22092182Y-17100984D01*
X22092182Y-17100984D02*
X22130277Y-17100984D01*
X22130277Y-17100984D02*
X22149325Y-17091460D01*
X22149325Y-17091460D02*
X22158849Y-17072412D01*
X22158849Y-17072412D02*
X22158849Y-17062889D01*
X22158849Y-17062889D02*
X22149325Y-17043841D01*
X22149325Y-17043841D02*
X22130277Y-17034317D01*
X22130277Y-17034317D02*
X22101706Y-17034317D01*
X22101706Y-17034317D02*
X22082658Y-17024793D01*
X22082658Y-17024793D02*
X22073134Y-17005746D01*
X22073134Y-17005746D02*
X22073134Y-16996222D01*
X22073134Y-16996222D02*
X22082658Y-16977174D01*
X22082658Y-16977174D02*
X22101706Y-16967650D01*
X22101706Y-16967650D02*
X22130277Y-16967650D01*
X22130277Y-16967650D02*
X22149325Y-16977174D01*
X22225515Y-17177174D02*
X22235039Y-17167650D01*
X22235039Y-17167650D02*
X22254087Y-17139079D01*
X22254087Y-17139079D02*
X22263611Y-17120031D01*
X22263611Y-17120031D02*
X22273134Y-17091460D01*
X22273134Y-17091460D02*
X22282658Y-17043841D01*
X22282658Y-17043841D02*
X22282658Y-17005746D01*
X22282658Y-17005746D02*
X22273134Y-16958127D01*
X22273134Y-16958127D02*
X22263611Y-16929555D01*
X22263611Y-16929555D02*
X22254087Y-16910508D01*
X22254087Y-16910508D02*
X22235039Y-16881936D01*
X22235039Y-16881936D02*
X22225515Y-16872412D01*
D12*
X17069500Y-17273500D02*
G75*
G03*
X17069500Y-17273500I-12500J0D01*
G01*
D11*
X17368372Y-17164984D02*
X17387420Y-17164984D01*
X17387420Y-17164984D02*
X17406467Y-17174508D01*
X17406467Y-17174508D02*
X17415991Y-17184031D01*
X17415991Y-17184031D02*
X17425515Y-17203079D01*
X17425515Y-17203079D02*
X17435039Y-17241174D01*
X17435039Y-17241174D02*
X17435039Y-17288793D01*
X17435039Y-17288793D02*
X17425515Y-17326889D01*
X17425515Y-17326889D02*
X17415991Y-17345936D01*
X17415991Y-17345936D02*
X17406467Y-17355460D01*
X17406467Y-17355460D02*
X17387420Y-17364984D01*
X17387420Y-17364984D02*
X17368372Y-17364984D01*
X17368372Y-17364984D02*
X17349324Y-17355460D01*
X17349324Y-17355460D02*
X17339801Y-17345936D01*
X17339801Y-17345936D02*
X17330277Y-17326889D01*
X17330277Y-17326889D02*
X17320753Y-17288793D01*
X17320753Y-17288793D02*
X17320753Y-17241174D01*
X17320753Y-17241174D02*
X17330277Y-17203079D01*
X17330277Y-17203079D02*
X17339801Y-17184031D01*
X17339801Y-17184031D02*
X17349324Y-17174508D01*
X17349324Y-17174508D02*
X17368372Y-17164984D01*
X17520753Y-17345936D02*
X17530277Y-17355460D01*
X17530277Y-17355460D02*
X17520753Y-17364984D01*
X17520753Y-17364984D02*
X17511229Y-17355460D01*
X17511229Y-17355460D02*
X17520753Y-17345936D01*
X17520753Y-17345936D02*
X17520753Y-17364984D01*
X17606467Y-17184031D02*
X17615991Y-17174508D01*
X17615991Y-17174508D02*
X17635039Y-17164984D01*
X17635039Y-17164984D02*
X17682658Y-17164984D01*
X17682658Y-17164984D02*
X17701705Y-17174508D01*
X17701705Y-17174508D02*
X17711229Y-17184031D01*
X17711229Y-17184031D02*
X17720753Y-17203079D01*
X17720753Y-17203079D02*
X17720753Y-17222127D01*
X17720753Y-17222127D02*
X17711229Y-17250698D01*
X17711229Y-17250698D02*
X17596944Y-17364984D01*
X17596944Y-17364984D02*
X17720753Y-17364984D01*
X17901705Y-17164984D02*
X17806467Y-17164984D01*
X17806467Y-17164984D02*
X17796944Y-17260222D01*
X17796944Y-17260222D02*
X17806467Y-17250698D01*
X17806467Y-17250698D02*
X17825515Y-17241174D01*
X17825515Y-17241174D02*
X17873134Y-17241174D01*
X17873134Y-17241174D02*
X17892182Y-17250698D01*
X17892182Y-17250698D02*
X17901705Y-17260222D01*
X17901705Y-17260222D02*
X17911229Y-17279270D01*
X17911229Y-17279270D02*
X17911229Y-17326889D01*
X17911229Y-17326889D02*
X17901705Y-17345936D01*
X17901705Y-17345936D02*
X17892182Y-17355460D01*
X17892182Y-17355460D02*
X17873134Y-17364984D01*
X17873134Y-17364984D02*
X17825515Y-17364984D01*
X17825515Y-17364984D02*
X17806467Y-17355460D01*
X17806467Y-17355460D02*
X17796944Y-17345936D01*
X18035039Y-17164984D02*
X18054086Y-17164984D01*
X18054086Y-17164984D02*
X18073134Y-17174508D01*
X18073134Y-17174508D02*
X18082658Y-17184031D01*
X18082658Y-17184031D02*
X18092182Y-17203079D01*
X18092182Y-17203079D02*
X18101705Y-17241174D01*
X18101705Y-17241174D02*
X18101705Y-17288793D01*
X18101705Y-17288793D02*
X18092182Y-17326889D01*
X18092182Y-17326889D02*
X18082658Y-17345936D01*
X18082658Y-17345936D02*
X18073134Y-17355460D01*
X18073134Y-17355460D02*
X18054086Y-17364984D01*
X18054086Y-17364984D02*
X18035039Y-17364984D01*
X18035039Y-17364984D02*
X18015991Y-17355460D01*
X18015991Y-17355460D02*
X18006467Y-17345936D01*
X18006467Y-17345936D02*
X17996944Y-17326889D01*
X17996944Y-17326889D02*
X17987420Y-17288793D01*
X17987420Y-17288793D02*
X17987420Y-17241174D01*
X17987420Y-17241174D02*
X17996944Y-17203079D01*
X17996944Y-17203079D02*
X18006467Y-17184031D01*
X18006467Y-17184031D02*
X18015991Y-17174508D01*
X18015991Y-17174508D02*
X18035039Y-17164984D01*
X18187420Y-17364984D02*
X18187420Y-17231650D01*
X18187420Y-17250698D02*
X18196944Y-17241174D01*
X18196944Y-17241174D02*
X18215991Y-17231650D01*
X18215991Y-17231650D02*
X18244563Y-17231650D01*
X18244563Y-17231650D02*
X18263610Y-17241174D01*
X18263610Y-17241174D02*
X18273134Y-17260222D01*
X18273134Y-17260222D02*
X18273134Y-17364984D01*
X18273134Y-17260222D02*
X18282658Y-17241174D01*
X18282658Y-17241174D02*
X18301705Y-17231650D01*
X18301705Y-17231650D02*
X18330277Y-17231650D01*
X18330277Y-17231650D02*
X18349325Y-17241174D01*
X18349325Y-17241174D02*
X18358848Y-17260222D01*
X18358848Y-17260222D02*
X18358848Y-17364984D01*
X18454086Y-17364984D02*
X18454086Y-17231650D01*
X18454086Y-17250698D02*
X18463610Y-17241174D01*
X18463610Y-17241174D02*
X18482658Y-17231650D01*
X18482658Y-17231650D02*
X18511229Y-17231650D01*
X18511229Y-17231650D02*
X18530277Y-17241174D01*
X18530277Y-17241174D02*
X18539801Y-17260222D01*
X18539801Y-17260222D02*
X18539801Y-17364984D01*
X18539801Y-17260222D02*
X18549325Y-17241174D01*
X18549325Y-17241174D02*
X18568372Y-17231650D01*
X18568372Y-17231650D02*
X18596944Y-17231650D01*
X18596944Y-17231650D02*
X18615991Y-17241174D01*
X18615991Y-17241174D02*
X18625515Y-17260222D01*
X18625515Y-17260222D02*
X18625515Y-17364984D01*
X19015991Y-17155460D02*
X18844563Y-17412603D01*
X19273134Y-17164984D02*
X19292182Y-17164984D01*
X19292182Y-17164984D02*
X19311229Y-17174508D01*
X19311229Y-17174508D02*
X19320753Y-17184031D01*
X19320753Y-17184031D02*
X19330277Y-17203079D01*
X19330277Y-17203079D02*
X19339801Y-17241174D01*
X19339801Y-17241174D02*
X19339801Y-17288793D01*
X19339801Y-17288793D02*
X19330277Y-17326889D01*
X19330277Y-17326889D02*
X19320753Y-17345936D01*
X19320753Y-17345936D02*
X19311229Y-17355460D01*
X19311229Y-17355460D02*
X19292182Y-17364984D01*
X19292182Y-17364984D02*
X19273134Y-17364984D01*
X19273134Y-17364984D02*
X19254087Y-17355460D01*
X19254087Y-17355460D02*
X19244563Y-17345936D01*
X19244563Y-17345936D02*
X19235039Y-17326889D01*
X19235039Y-17326889D02*
X19225515Y-17288793D01*
X19225515Y-17288793D02*
X19225515Y-17241174D01*
X19225515Y-17241174D02*
X19235039Y-17203079D01*
X19235039Y-17203079D02*
X19244563Y-17184031D01*
X19244563Y-17184031D02*
X19254087Y-17174508D01*
X19254087Y-17174508D02*
X19273134Y-17164984D01*
X19425515Y-17345936D02*
X19435039Y-17355460D01*
X19435039Y-17355460D02*
X19425515Y-17364984D01*
X19425515Y-17364984D02*
X19415991Y-17355460D01*
X19415991Y-17355460D02*
X19425515Y-17345936D01*
X19425515Y-17345936D02*
X19425515Y-17364984D01*
X19558848Y-17164984D02*
X19577896Y-17164984D01*
X19577896Y-17164984D02*
X19596944Y-17174508D01*
X19596944Y-17174508D02*
X19606468Y-17184031D01*
X19606468Y-17184031D02*
X19615991Y-17203079D01*
X19615991Y-17203079D02*
X19625515Y-17241174D01*
X19625515Y-17241174D02*
X19625515Y-17288793D01*
X19625515Y-17288793D02*
X19615991Y-17326889D01*
X19615991Y-17326889D02*
X19606468Y-17345936D01*
X19606468Y-17345936D02*
X19596944Y-17355460D01*
X19596944Y-17355460D02*
X19577896Y-17364984D01*
X19577896Y-17364984D02*
X19558848Y-17364984D01*
X19558848Y-17364984D02*
X19539801Y-17355460D01*
X19539801Y-17355460D02*
X19530277Y-17345936D01*
X19530277Y-17345936D02*
X19520753Y-17326889D01*
X19520753Y-17326889D02*
X19511229Y-17288793D01*
X19511229Y-17288793D02*
X19511229Y-17241174D01*
X19511229Y-17241174D02*
X19520753Y-17203079D01*
X19520753Y-17203079D02*
X19530277Y-17184031D01*
X19530277Y-17184031D02*
X19539801Y-17174508D01*
X19539801Y-17174508D02*
X19558848Y-17164984D01*
X19749325Y-17164984D02*
X19768372Y-17164984D01*
X19768372Y-17164984D02*
X19787420Y-17174508D01*
X19787420Y-17174508D02*
X19796944Y-17184031D01*
X19796944Y-17184031D02*
X19806468Y-17203079D01*
X19806468Y-17203079D02*
X19815991Y-17241174D01*
X19815991Y-17241174D02*
X19815991Y-17288793D01*
X19815991Y-17288793D02*
X19806468Y-17326889D01*
X19806468Y-17326889D02*
X19796944Y-17345936D01*
X19796944Y-17345936D02*
X19787420Y-17355460D01*
X19787420Y-17355460D02*
X19768372Y-17364984D01*
X19768372Y-17364984D02*
X19749325Y-17364984D01*
X19749325Y-17364984D02*
X19730277Y-17355460D01*
X19730277Y-17355460D02*
X19720753Y-17345936D01*
X19720753Y-17345936D02*
X19711229Y-17326889D01*
X19711229Y-17326889D02*
X19701706Y-17288793D01*
X19701706Y-17288793D02*
X19701706Y-17241174D01*
X19701706Y-17241174D02*
X19711229Y-17203079D01*
X19711229Y-17203079D02*
X19720753Y-17184031D01*
X19720753Y-17184031D02*
X19730277Y-17174508D01*
X19730277Y-17174508D02*
X19749325Y-17164984D01*
X19911229Y-17364984D02*
X19949325Y-17364984D01*
X19949325Y-17364984D02*
X19968372Y-17355460D01*
X19968372Y-17355460D02*
X19977896Y-17345936D01*
X19977896Y-17345936D02*
X19996944Y-17317365D01*
X19996944Y-17317365D02*
X20006468Y-17279270D01*
X20006468Y-17279270D02*
X20006468Y-17203079D01*
X20006468Y-17203079D02*
X19996944Y-17184031D01*
X19996944Y-17184031D02*
X19987420Y-17174508D01*
X19987420Y-17174508D02*
X19968372Y-17164984D01*
X19968372Y-17164984D02*
X19930277Y-17164984D01*
X19930277Y-17164984D02*
X19911229Y-17174508D01*
X19911229Y-17174508D02*
X19901706Y-17184031D01*
X19901706Y-17184031D02*
X19892182Y-17203079D01*
X19892182Y-17203079D02*
X19892182Y-17250698D01*
X19892182Y-17250698D02*
X19901706Y-17269746D01*
X19901706Y-17269746D02*
X19911229Y-17279270D01*
X19911229Y-17279270D02*
X19930277Y-17288793D01*
X19930277Y-17288793D02*
X19968372Y-17288793D01*
X19968372Y-17288793D02*
X19987420Y-17279270D01*
X19987420Y-17279270D02*
X19996944Y-17269746D01*
X19996944Y-17269746D02*
X20006468Y-17250698D01*
X20120753Y-17250698D02*
X20101706Y-17241174D01*
X20101706Y-17241174D02*
X20092182Y-17231650D01*
X20092182Y-17231650D02*
X20082658Y-17212603D01*
X20082658Y-17212603D02*
X20082658Y-17203079D01*
X20082658Y-17203079D02*
X20092182Y-17184031D01*
X20092182Y-17184031D02*
X20101706Y-17174508D01*
X20101706Y-17174508D02*
X20120753Y-17164984D01*
X20120753Y-17164984D02*
X20158849Y-17164984D01*
X20158849Y-17164984D02*
X20177896Y-17174508D01*
X20177896Y-17174508D02*
X20187420Y-17184031D01*
X20187420Y-17184031D02*
X20196944Y-17203079D01*
X20196944Y-17203079D02*
X20196944Y-17212603D01*
X20196944Y-17212603D02*
X20187420Y-17231650D01*
X20187420Y-17231650D02*
X20177896Y-17241174D01*
X20177896Y-17241174D02*
X20158849Y-17250698D01*
X20158849Y-17250698D02*
X20120753Y-17250698D01*
X20120753Y-17250698D02*
X20101706Y-17260222D01*
X20101706Y-17260222D02*
X20092182Y-17269746D01*
X20092182Y-17269746D02*
X20082658Y-17288793D01*
X20082658Y-17288793D02*
X20082658Y-17326889D01*
X20082658Y-17326889D02*
X20092182Y-17345936D01*
X20092182Y-17345936D02*
X20101706Y-17355460D01*
X20101706Y-17355460D02*
X20120753Y-17364984D01*
X20120753Y-17364984D02*
X20158849Y-17364984D01*
X20158849Y-17364984D02*
X20177896Y-17355460D01*
X20177896Y-17355460D02*
X20187420Y-17345936D01*
X20187420Y-17345936D02*
X20196944Y-17326889D01*
X20196944Y-17326889D02*
X20196944Y-17288793D01*
X20196944Y-17288793D02*
X20187420Y-17269746D01*
X20187420Y-17269746D02*
X20177896Y-17260222D01*
X20177896Y-17260222D02*
X20158849Y-17250698D01*
X20273134Y-17164984D02*
X20273134Y-17203079D01*
X20349325Y-17164984D02*
X20349325Y-17203079D01*
X20644563Y-17441174D02*
X20635039Y-17431650D01*
X20635039Y-17431650D02*
X20615991Y-17403079D01*
X20615991Y-17403079D02*
X20606468Y-17384031D01*
X20606468Y-17384031D02*
X20596944Y-17355460D01*
X20596944Y-17355460D02*
X20587420Y-17307841D01*
X20587420Y-17307841D02*
X20587420Y-17269746D01*
X20587420Y-17269746D02*
X20596944Y-17222127D01*
X20596944Y-17222127D02*
X20606468Y-17193555D01*
X20606468Y-17193555D02*
X20615991Y-17174508D01*
X20615991Y-17174508D02*
X20635039Y-17145936D01*
X20635039Y-17145936D02*
X20644563Y-17136412D01*
X20701706Y-17164984D02*
X20825515Y-17164984D01*
X20825515Y-17164984D02*
X20758849Y-17241174D01*
X20758849Y-17241174D02*
X20787420Y-17241174D01*
X20787420Y-17241174D02*
X20806468Y-17250698D01*
X20806468Y-17250698D02*
X20815991Y-17260222D01*
X20815991Y-17260222D02*
X20825515Y-17279270D01*
X20825515Y-17279270D02*
X20825515Y-17326889D01*
X20825515Y-17326889D02*
X20815991Y-17345936D01*
X20815991Y-17345936D02*
X20806468Y-17355460D01*
X20806468Y-17355460D02*
X20787420Y-17364984D01*
X20787420Y-17364984D02*
X20730277Y-17364984D01*
X20730277Y-17364984D02*
X20711230Y-17355460D01*
X20711230Y-17355460D02*
X20701706Y-17345936D01*
X21063611Y-17364984D02*
X21063611Y-17164984D01*
X21149325Y-17364984D02*
X21149325Y-17260222D01*
X21149325Y-17260222D02*
X21139801Y-17241174D01*
X21139801Y-17241174D02*
X21120753Y-17231650D01*
X21120753Y-17231650D02*
X21092182Y-17231650D01*
X21092182Y-17231650D02*
X21073134Y-17241174D01*
X21073134Y-17241174D02*
X21063611Y-17250698D01*
X21273134Y-17364984D02*
X21254087Y-17355460D01*
X21254087Y-17355460D02*
X21244563Y-17345936D01*
X21244563Y-17345936D02*
X21235039Y-17326889D01*
X21235039Y-17326889D02*
X21235039Y-17269746D01*
X21235039Y-17269746D02*
X21244563Y-17250698D01*
X21244563Y-17250698D02*
X21254087Y-17241174D01*
X21254087Y-17241174D02*
X21273134Y-17231650D01*
X21273134Y-17231650D02*
X21301706Y-17231650D01*
X21301706Y-17231650D02*
X21320753Y-17241174D01*
X21320753Y-17241174D02*
X21330277Y-17250698D01*
X21330277Y-17250698D02*
X21339801Y-17269746D01*
X21339801Y-17269746D02*
X21339801Y-17326889D01*
X21339801Y-17326889D02*
X21330277Y-17345936D01*
X21330277Y-17345936D02*
X21320753Y-17355460D01*
X21320753Y-17355460D02*
X21301706Y-17364984D01*
X21301706Y-17364984D02*
X21273134Y-17364984D01*
X21454087Y-17364984D02*
X21435039Y-17355460D01*
X21435039Y-17355460D02*
X21425515Y-17336412D01*
X21425515Y-17336412D02*
X21425515Y-17164984D01*
X21606468Y-17355460D02*
X21587420Y-17364984D01*
X21587420Y-17364984D02*
X21549325Y-17364984D01*
X21549325Y-17364984D02*
X21530277Y-17355460D01*
X21530277Y-17355460D02*
X21520753Y-17336412D01*
X21520753Y-17336412D02*
X21520753Y-17260222D01*
X21520753Y-17260222D02*
X21530277Y-17241174D01*
X21530277Y-17241174D02*
X21549325Y-17231650D01*
X21549325Y-17231650D02*
X21587420Y-17231650D01*
X21587420Y-17231650D02*
X21606468Y-17241174D01*
X21606468Y-17241174D02*
X21615992Y-17260222D01*
X21615992Y-17260222D02*
X21615992Y-17279270D01*
X21615992Y-17279270D02*
X21520753Y-17298317D01*
X21692182Y-17355460D02*
X21711230Y-17364984D01*
X21711230Y-17364984D02*
X21749325Y-17364984D01*
X21749325Y-17364984D02*
X21768373Y-17355460D01*
X21768373Y-17355460D02*
X21777896Y-17336412D01*
X21777896Y-17336412D02*
X21777896Y-17326889D01*
X21777896Y-17326889D02*
X21768373Y-17307841D01*
X21768373Y-17307841D02*
X21749325Y-17298317D01*
X21749325Y-17298317D02*
X21720753Y-17298317D01*
X21720753Y-17298317D02*
X21701706Y-17288793D01*
X21701706Y-17288793D02*
X21692182Y-17269746D01*
X21692182Y-17269746D02*
X21692182Y-17260222D01*
X21692182Y-17260222D02*
X21701706Y-17241174D01*
X21701706Y-17241174D02*
X21720753Y-17231650D01*
X21720753Y-17231650D02*
X21749325Y-17231650D01*
X21749325Y-17231650D02*
X21768373Y-17241174D01*
X21844563Y-17441174D02*
X21854087Y-17431650D01*
X21854087Y-17431650D02*
X21873134Y-17403079D01*
X21873134Y-17403079D02*
X21882658Y-17384031D01*
X21882658Y-17384031D02*
X21892182Y-17355460D01*
X21892182Y-17355460D02*
X21901706Y-17307841D01*
X21901706Y-17307841D02*
X21901706Y-17269746D01*
X21901706Y-17269746D02*
X21892182Y-17222127D01*
X21892182Y-17222127D02*
X21882658Y-17193555D01*
X21882658Y-17193555D02*
X21873134Y-17174508D01*
X21873134Y-17174508D02*
X21854087Y-17145936D01*
X21854087Y-17145936D02*
X21844563Y-17136412D01*
D13*
X17019500Y-17487500D02*
X17019500Y-17587500D01*
X16969500Y-17537500D02*
X17069500Y-17537500D01*
D11*
X17435039Y-17628984D02*
X17320753Y-17628984D01*
X17377896Y-17628984D02*
X17377896Y-17428984D01*
X17377896Y-17428984D02*
X17358848Y-17457555D01*
X17358848Y-17457555D02*
X17339801Y-17476603D01*
X17339801Y-17476603D02*
X17320753Y-17486127D01*
X17520753Y-17609936D02*
X17530277Y-17619460D01*
X17530277Y-17619460D02*
X17520753Y-17628984D01*
X17520753Y-17628984D02*
X17511229Y-17619460D01*
X17511229Y-17619460D02*
X17520753Y-17609936D01*
X17520753Y-17609936D02*
X17520753Y-17628984D01*
X17654086Y-17428984D02*
X17673134Y-17428984D01*
X17673134Y-17428984D02*
X17692182Y-17438508D01*
X17692182Y-17438508D02*
X17701705Y-17448031D01*
X17701705Y-17448031D02*
X17711229Y-17467079D01*
X17711229Y-17467079D02*
X17720753Y-17505174D01*
X17720753Y-17505174D02*
X17720753Y-17552793D01*
X17720753Y-17552793D02*
X17711229Y-17590889D01*
X17711229Y-17590889D02*
X17701705Y-17609936D01*
X17701705Y-17609936D02*
X17692182Y-17619460D01*
X17692182Y-17619460D02*
X17673134Y-17628984D01*
X17673134Y-17628984D02*
X17654086Y-17628984D01*
X17654086Y-17628984D02*
X17635039Y-17619460D01*
X17635039Y-17619460D02*
X17625515Y-17609936D01*
X17625515Y-17609936D02*
X17615991Y-17590889D01*
X17615991Y-17590889D02*
X17606467Y-17552793D01*
X17606467Y-17552793D02*
X17606467Y-17505174D01*
X17606467Y-17505174D02*
X17615991Y-17467079D01*
X17615991Y-17467079D02*
X17625515Y-17448031D01*
X17625515Y-17448031D02*
X17635039Y-17438508D01*
X17635039Y-17438508D02*
X17654086Y-17428984D01*
X17844563Y-17428984D02*
X17863610Y-17428984D01*
X17863610Y-17428984D02*
X17882658Y-17438508D01*
X17882658Y-17438508D02*
X17892182Y-17448031D01*
X17892182Y-17448031D02*
X17901705Y-17467079D01*
X17901705Y-17467079D02*
X17911229Y-17505174D01*
X17911229Y-17505174D02*
X17911229Y-17552793D01*
X17911229Y-17552793D02*
X17901705Y-17590889D01*
X17901705Y-17590889D02*
X17892182Y-17609936D01*
X17892182Y-17609936D02*
X17882658Y-17619460D01*
X17882658Y-17619460D02*
X17863610Y-17628984D01*
X17863610Y-17628984D02*
X17844563Y-17628984D01*
X17844563Y-17628984D02*
X17825515Y-17619460D01*
X17825515Y-17619460D02*
X17815991Y-17609936D01*
X17815991Y-17609936D02*
X17806467Y-17590889D01*
X17806467Y-17590889D02*
X17796944Y-17552793D01*
X17796944Y-17552793D02*
X17796944Y-17505174D01*
X17796944Y-17505174D02*
X17806467Y-17467079D01*
X17806467Y-17467079D02*
X17815991Y-17448031D01*
X17815991Y-17448031D02*
X17825515Y-17438508D01*
X17825515Y-17438508D02*
X17844563Y-17428984D01*
X18035039Y-17428984D02*
X18054086Y-17428984D01*
X18054086Y-17428984D02*
X18073134Y-17438508D01*
X18073134Y-17438508D02*
X18082658Y-17448031D01*
X18082658Y-17448031D02*
X18092182Y-17467079D01*
X18092182Y-17467079D02*
X18101705Y-17505174D01*
X18101705Y-17505174D02*
X18101705Y-17552793D01*
X18101705Y-17552793D02*
X18092182Y-17590889D01*
X18092182Y-17590889D02*
X18082658Y-17609936D01*
X18082658Y-17609936D02*
X18073134Y-17619460D01*
X18073134Y-17619460D02*
X18054086Y-17628984D01*
X18054086Y-17628984D02*
X18035039Y-17628984D01*
X18035039Y-17628984D02*
X18015991Y-17619460D01*
X18015991Y-17619460D02*
X18006467Y-17609936D01*
X18006467Y-17609936D02*
X17996944Y-17590889D01*
X17996944Y-17590889D02*
X17987420Y-17552793D01*
X17987420Y-17552793D02*
X17987420Y-17505174D01*
X17987420Y-17505174D02*
X17996944Y-17467079D01*
X17996944Y-17467079D02*
X18006467Y-17448031D01*
X18006467Y-17448031D02*
X18015991Y-17438508D01*
X18015991Y-17438508D02*
X18035039Y-17428984D01*
X18187420Y-17628984D02*
X18187420Y-17495650D01*
X18187420Y-17514698D02*
X18196944Y-17505174D01*
X18196944Y-17505174D02*
X18215991Y-17495650D01*
X18215991Y-17495650D02*
X18244563Y-17495650D01*
X18244563Y-17495650D02*
X18263610Y-17505174D01*
X18263610Y-17505174D02*
X18273134Y-17524222D01*
X18273134Y-17524222D02*
X18273134Y-17628984D01*
X18273134Y-17524222D02*
X18282658Y-17505174D01*
X18282658Y-17505174D02*
X18301705Y-17495650D01*
X18301705Y-17495650D02*
X18330277Y-17495650D01*
X18330277Y-17495650D02*
X18349325Y-17505174D01*
X18349325Y-17505174D02*
X18358848Y-17524222D01*
X18358848Y-17524222D02*
X18358848Y-17628984D01*
X18454086Y-17628984D02*
X18454086Y-17495650D01*
X18454086Y-17514698D02*
X18463610Y-17505174D01*
X18463610Y-17505174D02*
X18482658Y-17495650D01*
X18482658Y-17495650D02*
X18511229Y-17495650D01*
X18511229Y-17495650D02*
X18530277Y-17505174D01*
X18530277Y-17505174D02*
X18539801Y-17524222D01*
X18539801Y-17524222D02*
X18539801Y-17628984D01*
X18539801Y-17524222D02*
X18549325Y-17505174D01*
X18549325Y-17505174D02*
X18568372Y-17495650D01*
X18568372Y-17495650D02*
X18596944Y-17495650D01*
X18596944Y-17495650D02*
X18615991Y-17505174D01*
X18615991Y-17505174D02*
X18625515Y-17524222D01*
X18625515Y-17524222D02*
X18625515Y-17628984D01*
X19015991Y-17419460D02*
X18844563Y-17676603D01*
X19273134Y-17428984D02*
X19292182Y-17428984D01*
X19292182Y-17428984D02*
X19311229Y-17438508D01*
X19311229Y-17438508D02*
X19320753Y-17448031D01*
X19320753Y-17448031D02*
X19330277Y-17467079D01*
X19330277Y-17467079D02*
X19339801Y-17505174D01*
X19339801Y-17505174D02*
X19339801Y-17552793D01*
X19339801Y-17552793D02*
X19330277Y-17590889D01*
X19330277Y-17590889D02*
X19320753Y-17609936D01*
X19320753Y-17609936D02*
X19311229Y-17619460D01*
X19311229Y-17619460D02*
X19292182Y-17628984D01*
X19292182Y-17628984D02*
X19273134Y-17628984D01*
X19273134Y-17628984D02*
X19254087Y-17619460D01*
X19254087Y-17619460D02*
X19244563Y-17609936D01*
X19244563Y-17609936D02*
X19235039Y-17590889D01*
X19235039Y-17590889D02*
X19225515Y-17552793D01*
X19225515Y-17552793D02*
X19225515Y-17505174D01*
X19225515Y-17505174D02*
X19235039Y-17467079D01*
X19235039Y-17467079D02*
X19244563Y-17448031D01*
X19244563Y-17448031D02*
X19254087Y-17438508D01*
X19254087Y-17438508D02*
X19273134Y-17428984D01*
X19425515Y-17609936D02*
X19435039Y-17619460D01*
X19435039Y-17619460D02*
X19425515Y-17628984D01*
X19425515Y-17628984D02*
X19415991Y-17619460D01*
X19415991Y-17619460D02*
X19425515Y-17609936D01*
X19425515Y-17609936D02*
X19425515Y-17628984D01*
X19558848Y-17428984D02*
X19577896Y-17428984D01*
X19577896Y-17428984D02*
X19596944Y-17438508D01*
X19596944Y-17438508D02*
X19606468Y-17448031D01*
X19606468Y-17448031D02*
X19615991Y-17467079D01*
X19615991Y-17467079D02*
X19625515Y-17505174D01*
X19625515Y-17505174D02*
X19625515Y-17552793D01*
X19625515Y-17552793D02*
X19615991Y-17590889D01*
X19615991Y-17590889D02*
X19606468Y-17609936D01*
X19606468Y-17609936D02*
X19596944Y-17619460D01*
X19596944Y-17619460D02*
X19577896Y-17628984D01*
X19577896Y-17628984D02*
X19558848Y-17628984D01*
X19558848Y-17628984D02*
X19539801Y-17619460D01*
X19539801Y-17619460D02*
X19530277Y-17609936D01*
X19530277Y-17609936D02*
X19520753Y-17590889D01*
X19520753Y-17590889D02*
X19511229Y-17552793D01*
X19511229Y-17552793D02*
X19511229Y-17505174D01*
X19511229Y-17505174D02*
X19520753Y-17467079D01*
X19520753Y-17467079D02*
X19530277Y-17448031D01*
X19530277Y-17448031D02*
X19539801Y-17438508D01*
X19539801Y-17438508D02*
X19558848Y-17428984D01*
X19692182Y-17428984D02*
X19815991Y-17428984D01*
X19815991Y-17428984D02*
X19749325Y-17505174D01*
X19749325Y-17505174D02*
X19777896Y-17505174D01*
X19777896Y-17505174D02*
X19796944Y-17514698D01*
X19796944Y-17514698D02*
X19806468Y-17524222D01*
X19806468Y-17524222D02*
X19815991Y-17543270D01*
X19815991Y-17543270D02*
X19815991Y-17590889D01*
X19815991Y-17590889D02*
X19806468Y-17609936D01*
X19806468Y-17609936D02*
X19796944Y-17619460D01*
X19796944Y-17619460D02*
X19777896Y-17628984D01*
X19777896Y-17628984D02*
X19720753Y-17628984D01*
X19720753Y-17628984D02*
X19701706Y-17619460D01*
X19701706Y-17619460D02*
X19692182Y-17609936D01*
X19911229Y-17628984D02*
X19949325Y-17628984D01*
X19949325Y-17628984D02*
X19968372Y-17619460D01*
X19968372Y-17619460D02*
X19977896Y-17609936D01*
X19977896Y-17609936D02*
X19996944Y-17581365D01*
X19996944Y-17581365D02*
X20006468Y-17543270D01*
X20006468Y-17543270D02*
X20006468Y-17467079D01*
X20006468Y-17467079D02*
X19996944Y-17448031D01*
X19996944Y-17448031D02*
X19987420Y-17438508D01*
X19987420Y-17438508D02*
X19968372Y-17428984D01*
X19968372Y-17428984D02*
X19930277Y-17428984D01*
X19930277Y-17428984D02*
X19911229Y-17438508D01*
X19911229Y-17438508D02*
X19901706Y-17448031D01*
X19901706Y-17448031D02*
X19892182Y-17467079D01*
X19892182Y-17467079D02*
X19892182Y-17514698D01*
X19892182Y-17514698D02*
X19901706Y-17533746D01*
X19901706Y-17533746D02*
X19911229Y-17543270D01*
X19911229Y-17543270D02*
X19930277Y-17552793D01*
X19930277Y-17552793D02*
X19968372Y-17552793D01*
X19968372Y-17552793D02*
X19987420Y-17543270D01*
X19987420Y-17543270D02*
X19996944Y-17533746D01*
X19996944Y-17533746D02*
X20006468Y-17514698D01*
X20177896Y-17495650D02*
X20177896Y-17628984D01*
X20130277Y-17419460D02*
X20082658Y-17562317D01*
X20082658Y-17562317D02*
X20206468Y-17562317D01*
X20273134Y-17428984D02*
X20273134Y-17467079D01*
X20349325Y-17428984D02*
X20349325Y-17467079D01*
X20644563Y-17705174D02*
X20635039Y-17695650D01*
X20635039Y-17695650D02*
X20615991Y-17667079D01*
X20615991Y-17667079D02*
X20606468Y-17648031D01*
X20606468Y-17648031D02*
X20596944Y-17619460D01*
X20596944Y-17619460D02*
X20587420Y-17571841D01*
X20587420Y-17571841D02*
X20587420Y-17533746D01*
X20587420Y-17533746D02*
X20596944Y-17486127D01*
X20596944Y-17486127D02*
X20606468Y-17457555D01*
X20606468Y-17457555D02*
X20615991Y-17438508D01*
X20615991Y-17438508D02*
X20635039Y-17409936D01*
X20635039Y-17409936D02*
X20644563Y-17400412D01*
X20749325Y-17514698D02*
X20730277Y-17505174D01*
X20730277Y-17505174D02*
X20720753Y-17495650D01*
X20720753Y-17495650D02*
X20711230Y-17476603D01*
X20711230Y-17476603D02*
X20711230Y-17467079D01*
X20711230Y-17467079D02*
X20720753Y-17448031D01*
X20720753Y-17448031D02*
X20730277Y-17438508D01*
X20730277Y-17438508D02*
X20749325Y-17428984D01*
X20749325Y-17428984D02*
X20787420Y-17428984D01*
X20787420Y-17428984D02*
X20806468Y-17438508D01*
X20806468Y-17438508D02*
X20815991Y-17448031D01*
X20815991Y-17448031D02*
X20825515Y-17467079D01*
X20825515Y-17467079D02*
X20825515Y-17476603D01*
X20825515Y-17476603D02*
X20815991Y-17495650D01*
X20815991Y-17495650D02*
X20806468Y-17505174D01*
X20806468Y-17505174D02*
X20787420Y-17514698D01*
X20787420Y-17514698D02*
X20749325Y-17514698D01*
X20749325Y-17514698D02*
X20730277Y-17524222D01*
X20730277Y-17524222D02*
X20720753Y-17533746D01*
X20720753Y-17533746D02*
X20711230Y-17552793D01*
X20711230Y-17552793D02*
X20711230Y-17590889D01*
X20711230Y-17590889D02*
X20720753Y-17609936D01*
X20720753Y-17609936D02*
X20730277Y-17619460D01*
X20730277Y-17619460D02*
X20749325Y-17628984D01*
X20749325Y-17628984D02*
X20787420Y-17628984D01*
X20787420Y-17628984D02*
X20806468Y-17619460D01*
X20806468Y-17619460D02*
X20815991Y-17609936D01*
X20815991Y-17609936D02*
X20825515Y-17590889D01*
X20825515Y-17590889D02*
X20825515Y-17552793D01*
X20825515Y-17552793D02*
X20815991Y-17533746D01*
X20815991Y-17533746D02*
X20806468Y-17524222D01*
X20806468Y-17524222D02*
X20787420Y-17514698D01*
X21063611Y-17628984D02*
X21063611Y-17428984D01*
X21149325Y-17628984D02*
X21149325Y-17524222D01*
X21149325Y-17524222D02*
X21139801Y-17505174D01*
X21139801Y-17505174D02*
X21120753Y-17495650D01*
X21120753Y-17495650D02*
X21092182Y-17495650D01*
X21092182Y-17495650D02*
X21073134Y-17505174D01*
X21073134Y-17505174D02*
X21063611Y-17514698D01*
X21273134Y-17628984D02*
X21254087Y-17619460D01*
X21254087Y-17619460D02*
X21244563Y-17609936D01*
X21244563Y-17609936D02*
X21235039Y-17590889D01*
X21235039Y-17590889D02*
X21235039Y-17533746D01*
X21235039Y-17533746D02*
X21244563Y-17514698D01*
X21244563Y-17514698D02*
X21254087Y-17505174D01*
X21254087Y-17505174D02*
X21273134Y-17495650D01*
X21273134Y-17495650D02*
X21301706Y-17495650D01*
X21301706Y-17495650D02*
X21320753Y-17505174D01*
X21320753Y-17505174D02*
X21330277Y-17514698D01*
X21330277Y-17514698D02*
X21339801Y-17533746D01*
X21339801Y-17533746D02*
X21339801Y-17590889D01*
X21339801Y-17590889D02*
X21330277Y-17609936D01*
X21330277Y-17609936D02*
X21320753Y-17619460D01*
X21320753Y-17619460D02*
X21301706Y-17628984D01*
X21301706Y-17628984D02*
X21273134Y-17628984D01*
X21454087Y-17628984D02*
X21435039Y-17619460D01*
X21435039Y-17619460D02*
X21425515Y-17600412D01*
X21425515Y-17600412D02*
X21425515Y-17428984D01*
X21606468Y-17619460D02*
X21587420Y-17628984D01*
X21587420Y-17628984D02*
X21549325Y-17628984D01*
X21549325Y-17628984D02*
X21530277Y-17619460D01*
X21530277Y-17619460D02*
X21520753Y-17600412D01*
X21520753Y-17600412D02*
X21520753Y-17524222D01*
X21520753Y-17524222D02*
X21530277Y-17505174D01*
X21530277Y-17505174D02*
X21549325Y-17495650D01*
X21549325Y-17495650D02*
X21587420Y-17495650D01*
X21587420Y-17495650D02*
X21606468Y-17505174D01*
X21606468Y-17505174D02*
X21615992Y-17524222D01*
X21615992Y-17524222D02*
X21615992Y-17543270D01*
X21615992Y-17543270D02*
X21520753Y-17562317D01*
X21692182Y-17619460D02*
X21711230Y-17628984D01*
X21711230Y-17628984D02*
X21749325Y-17628984D01*
X21749325Y-17628984D02*
X21768373Y-17619460D01*
X21768373Y-17619460D02*
X21777896Y-17600412D01*
X21777896Y-17600412D02*
X21777896Y-17590889D01*
X21777896Y-17590889D02*
X21768373Y-17571841D01*
X21768373Y-17571841D02*
X21749325Y-17562317D01*
X21749325Y-17562317D02*
X21720753Y-17562317D01*
X21720753Y-17562317D02*
X21701706Y-17552793D01*
X21701706Y-17552793D02*
X21692182Y-17533746D01*
X21692182Y-17533746D02*
X21692182Y-17524222D01*
X21692182Y-17524222D02*
X21701706Y-17505174D01*
X21701706Y-17505174D02*
X21720753Y-17495650D01*
X21720753Y-17495650D02*
X21749325Y-17495650D01*
X21749325Y-17495650D02*
X21768373Y-17505174D01*
X22015992Y-17552793D02*
X22168373Y-17552793D01*
X22092182Y-17628984D02*
X22092182Y-17476603D01*
X22520753Y-17628984D02*
X22406468Y-17628984D01*
X22463611Y-17628984D02*
X22463611Y-17428984D01*
X22463611Y-17428984D02*
X22444563Y-17457555D01*
X22444563Y-17457555D02*
X22425515Y-17476603D01*
X22425515Y-17476603D02*
X22406468Y-17486127D01*
X22692182Y-17428984D02*
X22654087Y-17428984D01*
X22654087Y-17428984D02*
X22635039Y-17438508D01*
X22635039Y-17438508D02*
X22625515Y-17448031D01*
X22625515Y-17448031D02*
X22606468Y-17476603D01*
X22606468Y-17476603D02*
X22596944Y-17514698D01*
X22596944Y-17514698D02*
X22596944Y-17590889D01*
X22596944Y-17590889D02*
X22606468Y-17609936D01*
X22606468Y-17609936D02*
X22615992Y-17619460D01*
X22615992Y-17619460D02*
X22635039Y-17628984D01*
X22635039Y-17628984D02*
X22673134Y-17628984D01*
X22673134Y-17628984D02*
X22692182Y-17619460D01*
X22692182Y-17619460D02*
X22701706Y-17609936D01*
X22701706Y-17609936D02*
X22711230Y-17590889D01*
X22711230Y-17590889D02*
X22711230Y-17543270D01*
X22711230Y-17543270D02*
X22701706Y-17524222D01*
X22701706Y-17524222D02*
X22692182Y-17514698D01*
X22692182Y-17514698D02*
X22673134Y-17505174D01*
X22673134Y-17505174D02*
X22635039Y-17505174D01*
X22635039Y-17505174D02*
X22615992Y-17514698D01*
X22615992Y-17514698D02*
X22606468Y-17524222D01*
X22606468Y-17524222D02*
X22596944Y-17543270D01*
X22939801Y-17619460D02*
X22958849Y-17628984D01*
X22958849Y-17628984D02*
X22996944Y-17628984D01*
X22996944Y-17628984D02*
X23015992Y-17619460D01*
X23015992Y-17619460D02*
X23025515Y-17600412D01*
X23025515Y-17600412D02*
X23025515Y-17590889D01*
X23025515Y-17590889D02*
X23015992Y-17571841D01*
X23015992Y-17571841D02*
X22996944Y-17562317D01*
X22996944Y-17562317D02*
X22968373Y-17562317D01*
X22968373Y-17562317D02*
X22949325Y-17552793D01*
X22949325Y-17552793D02*
X22939801Y-17533746D01*
X22939801Y-17533746D02*
X22939801Y-17524222D01*
X22939801Y-17524222D02*
X22949325Y-17505174D01*
X22949325Y-17505174D02*
X22968373Y-17495650D01*
X22968373Y-17495650D02*
X22996944Y-17495650D01*
X22996944Y-17495650D02*
X23015992Y-17505174D01*
X23139801Y-17628984D02*
X23120754Y-17619460D01*
X23120754Y-17619460D02*
X23111230Y-17600412D01*
X23111230Y-17600412D02*
X23111230Y-17428984D01*
X23244563Y-17628984D02*
X23225515Y-17619460D01*
X23225515Y-17619460D02*
X23215992Y-17609936D01*
X23215992Y-17609936D02*
X23206468Y-17590889D01*
X23206468Y-17590889D02*
X23206468Y-17533746D01*
X23206468Y-17533746D02*
X23215992Y-17514698D01*
X23215992Y-17514698D02*
X23225515Y-17505174D01*
X23225515Y-17505174D02*
X23244563Y-17495650D01*
X23244563Y-17495650D02*
X23273135Y-17495650D01*
X23273135Y-17495650D02*
X23292182Y-17505174D01*
X23292182Y-17505174D02*
X23301706Y-17514698D01*
X23301706Y-17514698D02*
X23311230Y-17533746D01*
X23311230Y-17533746D02*
X23311230Y-17590889D01*
X23311230Y-17590889D02*
X23301706Y-17609936D01*
X23301706Y-17609936D02*
X23292182Y-17619460D01*
X23292182Y-17619460D02*
X23273135Y-17628984D01*
X23273135Y-17628984D02*
X23244563Y-17628984D01*
X23368373Y-17495650D02*
X23444563Y-17495650D01*
X23396944Y-17428984D02*
X23396944Y-17600412D01*
X23396944Y-17600412D02*
X23406468Y-17619460D01*
X23406468Y-17619460D02*
X23425515Y-17628984D01*
X23425515Y-17628984D02*
X23444563Y-17628984D01*
X23501706Y-17619460D02*
X23520754Y-17628984D01*
X23520754Y-17628984D02*
X23558849Y-17628984D01*
X23558849Y-17628984D02*
X23577896Y-17619460D01*
X23577896Y-17619460D02*
X23587420Y-17600412D01*
X23587420Y-17600412D02*
X23587420Y-17590889D01*
X23587420Y-17590889D02*
X23577896Y-17571841D01*
X23577896Y-17571841D02*
X23558849Y-17562317D01*
X23558849Y-17562317D02*
X23530277Y-17562317D01*
X23530277Y-17562317D02*
X23511230Y-17552793D01*
X23511230Y-17552793D02*
X23501706Y-17533746D01*
X23501706Y-17533746D02*
X23501706Y-17524222D01*
X23501706Y-17524222D02*
X23511230Y-17505174D01*
X23511230Y-17505174D02*
X23530277Y-17495650D01*
X23530277Y-17495650D02*
X23558849Y-17495650D01*
X23558849Y-17495650D02*
X23577896Y-17505174D01*
X23654087Y-17705174D02*
X23663611Y-17695650D01*
X23663611Y-17695650D02*
X23682658Y-17667079D01*
X23682658Y-17667079D02*
X23692182Y-17648031D01*
X23692182Y-17648031D02*
X23701706Y-17619460D01*
X23701706Y-17619460D02*
X23711230Y-17571841D01*
X23711230Y-17571841D02*
X23711230Y-17533746D01*
X23711230Y-17533746D02*
X23701706Y-17486127D01*
X23701706Y-17486127D02*
X23692182Y-17457555D01*
X23692182Y-17457555D02*
X23682658Y-17438508D01*
X23682658Y-17438508D02*
X23663611Y-17409936D01*
X23663611Y-17409936D02*
X23654087Y-17400412D01*
M02*
