M48
; DRILL file {KiCad 7.0.7} date Sat 19 Aug 2023 05:10:08 PM EDT
; FORMAT={-:-/ absolute / metric / decimal}
; #@! TF.CreationDate,2023-08-19T17:10:08-04:00
; #@! TF.GenerationSoftware,Kicad,Pcbnew,7.0.7
; #@! TF.FileFunction,Plated,1,6,PTH
FMAT,2
METRIC
; #@! TA.AperFunction,Plated,PTH,ViaDrill
T1C0.250
; #@! TA.AperFunction,Plated,PTH,ComponentDrill
T2C0.250
; #@! TA.AperFunction,Plated,PTH,ComponentDrill
T3C1.000
%
G90
G05
T1
X57.15Y-85.8
X58.25Y-84.3
X62.11Y-94.08
X62.25Y-114.5
X62.77Y-95.03
X62.775Y-94.075
X63.03Y-93.13
X63.25Y-114.5
X63.9Y-111.925
X64.125Y-109.85
X64.25Y-114.5
X64.8Y-97.1
X65.39Y-109.08
X65.4Y-109.75
X65.71Y-91.325
X65.735Y-97.225
X65.925Y-109.75
X65.94Y-109.08
X66.21Y-98.1
X66.5Y-90.8
X66.5Y-114.5
X67.075Y-109.75
X67.08Y-109.09
X67.31Y-97.425
X67.4Y-91.1
X67.6Y-109.75
X67.63Y-109.09
X68.4Y-91.2
X68.75Y-114.5
X68.875Y-109.85
X69.1Y-111.925
X69.16Y-94.825
X69.41Y-96.425
X69.75Y-114.5
X69.875Y-95.825
X70.465Y-94.3
X70.75Y-114.5
X71.075Y-94.75
X79.15Y-85.8
X80.25Y-84.3
X91.5Y-70.062
X92.75Y-70.763
X92.83Y-67.23
X93.5Y-67.225
X94.0Y-70.062
X94.45Y-67.237
X95.5Y-79.6
X95.975Y-94.43
X96.475Y-81.725
X96.5Y-80.8
X97.2Y-82.4
X98.1Y-82.1
X98.675Y-68.412
X99.6Y-68.7
X100.36Y-91.69
X101.32Y-72.498
X101.63Y-71.56
X101.83Y-67.22
X101.99Y-72.5
X102.325Y-69.438
X102.325Y-71.712
X102.5Y-67.225
X102.925Y-76.0
X103.45Y-67.237
X103.6Y-76.675
X103.6Y-81.2
X104.0Y-86.85
X104.0Y-87.525
X104.1Y-76.2
X104.3Y-80.5
X104.875Y-96.975
X105.25Y-86.8
X105.625Y-96.975
X106.5Y-80.3
X106.75Y-87.5
X109.5Y-70.1
X109.96Y-111.52
X110.3Y-112.1
X110.75Y-70.825
X110.83Y-67.22
X111.18Y-113.82
X111.18Y-114.49
X111.5Y-67.225
X111.73Y-113.81
X111.73Y-114.49
X112.0Y-70.112
X112.28Y-113.81
X112.28Y-114.49
X112.45Y-67.237
X112.75Y-103.6
X113.37Y-99.75
X113.375Y-100.425
X114.075Y-101.675
X115.1Y-112.1
X115.225Y-101.8
X115.62Y-81.74
X115.625Y-81.075
X116.17Y-81.74
X116.175Y-79.3
X116.175Y-81.075
X116.175Y-84.1
X116.175Y-92.525
X116.675Y-68.425
X116.72Y-81.74
X116.725Y-81.075
X116.76Y-78.99
X117.6Y-68.675
X118.05Y-88.1
X118.05Y-88.65
X118.05Y-89.2
X118.175Y-85.375
X118.82Y-88.11
X118.82Y-88.66
X118.925Y-84.2
X119.35Y-72.513
X119.65Y-71.55
X119.75Y-88.66
X119.75Y-89.21
X119.83Y-67.23
X120.02Y-72.51
X120.325Y-69.513
X120.325Y-71.712
X120.5Y-67.225
X120.525Y-88.1
X120.525Y-88.65
X120.525Y-89.2
X121.45Y-67.237
X121.5Y-84.175
X121.74Y-111.52
X121.825Y-103.625
X122.05Y-112.1
X123.225Y-76.3
X123.7Y-81.45
X123.825Y-111.55
X123.825Y-112.1
X123.825Y-112.65
X124.225Y-79.225
X124.49Y-111.54
X124.49Y-112.09
X124.49Y-112.64
X124.75Y-81.45
X125.225Y-76.3
X126.85Y-112.1
X126.95Y-83.675
X126.95Y-84.675
X127.25Y-81.975
X127.45Y-72.98
X127.45Y-73.53
X127.45Y-74.08
X128.225Y-72.975
X128.225Y-73.525
X128.225Y-74.075
X129.475Y-81.975
X130.6Y-103.725
X130.62Y-78.575
X130.62Y-79.125
X130.62Y-79.675
X131.4Y-78.575
X131.4Y-79.125
X131.4Y-79.675
X135.025Y-109.875
X135.55Y-110.27
X135.65Y-106.725
X136.35Y-107.975
X136.675Y-73.85
X136.675Y-76.175
X136.88Y-79.12
X136.98Y-97.07
X137.975Y-103.925
T2
X124.75Y-90.55
X125.375Y-90.55
X126.0Y-90.55
T3
X91.5Y-64.3
X93.5Y-64.3
X100.5Y-64.3
X102.5Y-64.3
X109.5Y-64.3
X111.5Y-64.3
X118.5Y-64.3
X120.5Y-64.3
T3
G00X47.5Y-60.8
M15
G01X47.5Y-64.8
M16
G05
G00X47.5Y-66.65
M15
G01X47.5Y-70.65
M16
G05
G00X47.5Y-72.5
M15
G01X47.5Y-76.5
M16
G05
G00X63.5Y-60.8
M15
G01X63.5Y-64.8
M16
G05
G00X63.5Y-66.65
M15
G01X63.5Y-70.65
M16
G05
G00X63.5Y-72.5
M15
G01X63.5Y-76.5
M16
G05
G00X69.5Y-60.8
M15
G01X69.5Y-64.8
M16
G05
G00X69.5Y-66.65
M15
G01X69.5Y-70.65
M16
G05
G00X69.5Y-72.5
M15
G01X69.5Y-76.5
M16
G05
G00X85.5Y-60.8
M15
G01X85.5Y-64.8
M16
G05
G00X85.5Y-66.65
M15
G01X85.5Y-70.65
M16
G05
G00X85.5Y-72.5
M15
G01X85.5Y-76.5
M16
G05
G00X126.8Y-64.312
M15
G01X126.8Y-62.812
M16
G05
G00X130.65Y-64.562
M15
G01X131.95Y-64.562
M16
G05
G00X130.3Y-70.562
M15
G01X132.3Y-70.562
M16
G05
G00X135.8Y-64.312
M15
G01X135.8Y-62.812
M16
G05
T0
M30
