%TF.GenerationSoftware,KiCad,Pcbnew,7.0.7*%
%TF.CreationDate,2023-09-27T18:03:17-04:00*%
%TF.ProjectId,baseboard,62617365-626f-4617-9264-2e6b69636164,A*%
%TF.SameCoordinates,Original*%
%TF.FileFunction,Copper,L4,Inr*%
%TF.FilePolarity,Positive*%
%FSLAX46Y46*%
G04 Gerber Fmt 4.6, Leading zero omitted, Abs format (unit mm)*
G04 Created by KiCad (PCBNEW 7.0.7) date 2023-09-27 18:03:17*
%MOMM*%
%LPD*%
G01*
G04 APERTURE LIST*
G04 Aperture macros list*
%AMRoundRect*
0 Rectangle with rounded corners*
0 $1 Rounding radius*
0 $2 $3 $4 $5 $6 $7 $8 $9 X,Y pos of 4 corners*
0 Add a 4 corners polygon primitive as box body*
4,1,4,$2,$3,$4,$5,$6,$7,$8,$9,$2,$3,0*
0 Add four circle primitives for the rounded corners*
1,1,$1+$1,$2,$3*
1,1,$1+$1,$4,$5*
1,1,$1+$1,$6,$7*
1,1,$1+$1,$8,$9*
0 Add four rect primitives between the rounded corners*
20,1,$1+$1,$2,$3,$4,$5,0*
20,1,$1+$1,$4,$5,$6,$7,0*
20,1,$1+$1,$6,$7,$8,$9,0*
20,1,$1+$1,$8,$9,$2,$3,0*%
G04 Aperture macros list end*
%ADD10C,0.100000*%
%ADD11C,0.150000*%
%ADD12C,0.300000*%
%TA.AperFunction,EtchedComponent*%
%ADD13C,0.200000*%
%TD*%
%TA.AperFunction,ComponentPad*%
%ADD14C,1.600000*%
%TD*%
%TA.AperFunction,ComponentPad*%
%ADD15O,4.500000X2.250000*%
%TD*%
%TA.AperFunction,ComponentPad*%
%ADD16O,4.000000X2.000000*%
%TD*%
%TA.AperFunction,ComponentPad*%
%ADD17O,2.000000X4.000000*%
%TD*%
%TA.AperFunction,ComponentPad*%
%ADD18RoundRect,0.500000X-0.500000X-2.300000X0.500000X-2.300000X0.500000X2.300000X-0.500000X2.300000X0*%
%TD*%
%TA.AperFunction,ComponentPad*%
%ADD19C,0.600000*%
%TD*%
%TA.AperFunction,ViaPad*%
%ADD20C,0.550000*%
%TD*%
%TA.AperFunction,Profile*%
%ADD21C,0.050000*%
%TD*%
G04 APERTURE END LIST*
D10*
D11*
X412213572Y-262654128D02*
X411356429Y-262654128D01*
X411785000Y-262654128D02*
X411785000Y-261154128D01*
X411785000Y-261154128D02*
X411642143Y-261368414D01*
X411642143Y-261368414D02*
X411499286Y-261511271D01*
X411499286Y-261511271D02*
X411356429Y-261582700D01*
X413927857Y-261082700D02*
X412642143Y-263011271D01*
X415213572Y-262654128D02*
X414356429Y-262654128D01*
X414785000Y-262654128D02*
X414785000Y-261154128D01*
X414785000Y-261154128D02*
X414642143Y-261368414D01*
X414642143Y-261368414D02*
X414499286Y-261511271D01*
X414499286Y-261511271D02*
X414356429Y-261582700D01*
D10*
D11*
X292809874Y-252259295D02*
X293267017Y-252259295D01*
X293038445Y-253059295D02*
X293038445Y-252259295D01*
X293533684Y-253059295D02*
X293533684Y-252259295D01*
X293800350Y-252259295D02*
X294257493Y-252259295D01*
X294028921Y-253059295D02*
X294028921Y-252259295D01*
X294905112Y-253059295D02*
X294524160Y-253059295D01*
X294524160Y-253059295D02*
X294524160Y-252259295D01*
X295171779Y-252640247D02*
X295438445Y-252640247D01*
X295552731Y-253059295D02*
X295171779Y-253059295D01*
X295171779Y-253059295D02*
X295171779Y-252259295D01*
X295171779Y-252259295D02*
X295552731Y-252259295D01*
D10*
D11*
X387996303Y-259409295D02*
X387729636Y-259028342D01*
X387539160Y-259409295D02*
X387539160Y-258609295D01*
X387539160Y-258609295D02*
X387843922Y-258609295D01*
X387843922Y-258609295D02*
X387920112Y-258647390D01*
X387920112Y-258647390D02*
X387958207Y-258685485D01*
X387958207Y-258685485D02*
X387996303Y-258761676D01*
X387996303Y-258761676D02*
X387996303Y-258875961D01*
X387996303Y-258875961D02*
X387958207Y-258952152D01*
X387958207Y-258952152D02*
X387920112Y-258990247D01*
X387920112Y-258990247D02*
X387843922Y-259028342D01*
X387843922Y-259028342D02*
X387539160Y-259028342D01*
X388339160Y-258990247D02*
X388605826Y-258990247D01*
X388720112Y-259409295D02*
X388339160Y-259409295D01*
X388339160Y-259409295D02*
X388339160Y-258609295D01*
X388339160Y-258609295D02*
X388720112Y-258609295D01*
X388948684Y-258609295D02*
X389215351Y-259409295D01*
X389215351Y-259409295D02*
X389482017Y-258609295D01*
X389748684Y-259409295D02*
X389748684Y-258609295D01*
X390091540Y-259371200D02*
X390205826Y-259409295D01*
X390205826Y-259409295D02*
X390396302Y-259409295D01*
X390396302Y-259409295D02*
X390472493Y-259371200D01*
X390472493Y-259371200D02*
X390510588Y-259333104D01*
X390510588Y-259333104D02*
X390548683Y-259256914D01*
X390548683Y-259256914D02*
X390548683Y-259180723D01*
X390548683Y-259180723D02*
X390510588Y-259104533D01*
X390510588Y-259104533D02*
X390472493Y-259066438D01*
X390472493Y-259066438D02*
X390396302Y-259028342D01*
X390396302Y-259028342D02*
X390243921Y-258990247D01*
X390243921Y-258990247D02*
X390167731Y-258952152D01*
X390167731Y-258952152D02*
X390129636Y-258914057D01*
X390129636Y-258914057D02*
X390091540Y-258837866D01*
X390091540Y-258837866D02*
X390091540Y-258761676D01*
X390091540Y-258761676D02*
X390129636Y-258685485D01*
X390129636Y-258685485D02*
X390167731Y-258647390D01*
X390167731Y-258647390D02*
X390243921Y-258609295D01*
X390243921Y-258609295D02*
X390434398Y-258609295D01*
X390434398Y-258609295D02*
X390548683Y-258647390D01*
X390891541Y-259409295D02*
X390891541Y-258609295D01*
X391424874Y-258609295D02*
X391577255Y-258609295D01*
X391577255Y-258609295D02*
X391653445Y-258647390D01*
X391653445Y-258647390D02*
X391729636Y-258723580D01*
X391729636Y-258723580D02*
X391767731Y-258875961D01*
X391767731Y-258875961D02*
X391767731Y-259142628D01*
X391767731Y-259142628D02*
X391729636Y-259295009D01*
X391729636Y-259295009D02*
X391653445Y-259371200D01*
X391653445Y-259371200D02*
X391577255Y-259409295D01*
X391577255Y-259409295D02*
X391424874Y-259409295D01*
X391424874Y-259409295D02*
X391348683Y-259371200D01*
X391348683Y-259371200D02*
X391272493Y-259295009D01*
X391272493Y-259295009D02*
X391234397Y-259142628D01*
X391234397Y-259142628D02*
X391234397Y-258875961D01*
X391234397Y-258875961D02*
X391272493Y-258723580D01*
X391272493Y-258723580D02*
X391348683Y-258647390D01*
X391348683Y-258647390D02*
X391424874Y-258609295D01*
X392110588Y-259409295D02*
X392110588Y-258609295D01*
X392110588Y-258609295D02*
X392567731Y-259409295D01*
X392567731Y-259409295D02*
X392567731Y-258609295D01*
D10*
D11*
X393889160Y-259409295D02*
X393889160Y-258609295D01*
X393889160Y-258609295D02*
X394079636Y-258609295D01*
X394079636Y-258609295D02*
X394193922Y-258647390D01*
X394193922Y-258647390D02*
X394270112Y-258723580D01*
X394270112Y-258723580D02*
X394308207Y-258799771D01*
X394308207Y-258799771D02*
X394346303Y-258952152D01*
X394346303Y-258952152D02*
X394346303Y-259066438D01*
X394346303Y-259066438D02*
X394308207Y-259218819D01*
X394308207Y-259218819D02*
X394270112Y-259295009D01*
X394270112Y-259295009D02*
X394193922Y-259371200D01*
X394193922Y-259371200D02*
X394079636Y-259409295D01*
X394079636Y-259409295D02*
X393889160Y-259409295D01*
X394651064Y-259180723D02*
X395032017Y-259180723D01*
X394574874Y-259409295D02*
X394841541Y-258609295D01*
X394841541Y-258609295D02*
X395108207Y-259409295D01*
X395260588Y-258609295D02*
X395717731Y-258609295D01*
X395489159Y-259409295D02*
X395489159Y-258609295D01*
X395984398Y-258990247D02*
X396251064Y-258990247D01*
X396365350Y-259409295D02*
X395984398Y-259409295D01*
X395984398Y-259409295D02*
X395984398Y-258609295D01*
X395984398Y-258609295D02*
X396365350Y-258609295D01*
X397470113Y-258609295D02*
X397622494Y-258609295D01*
X397622494Y-258609295D02*
X397698684Y-258647390D01*
X397698684Y-258647390D02*
X397774875Y-258723580D01*
X397774875Y-258723580D02*
X397812970Y-258875961D01*
X397812970Y-258875961D02*
X397812970Y-259142628D01*
X397812970Y-259142628D02*
X397774875Y-259295009D01*
X397774875Y-259295009D02*
X397698684Y-259371200D01*
X397698684Y-259371200D02*
X397622494Y-259409295D01*
X397622494Y-259409295D02*
X397470113Y-259409295D01*
X397470113Y-259409295D02*
X397393922Y-259371200D01*
X397393922Y-259371200D02*
X397317732Y-259295009D01*
X397317732Y-259295009D02*
X397279636Y-259142628D01*
X397279636Y-259142628D02*
X397279636Y-258875961D01*
X397279636Y-258875961D02*
X397317732Y-258723580D01*
X397317732Y-258723580D02*
X397393922Y-258647390D01*
X397393922Y-258647390D02*
X397470113Y-258609295D01*
X398422493Y-258990247D02*
X398155827Y-258990247D01*
X398155827Y-259409295D02*
X398155827Y-258609295D01*
X398155827Y-258609295D02*
X398536779Y-258609295D01*
X399451065Y-259409295D02*
X399451065Y-258609295D01*
X399793921Y-259371200D02*
X399908207Y-259409295D01*
X399908207Y-259409295D02*
X400098683Y-259409295D01*
X400098683Y-259409295D02*
X400174874Y-259371200D01*
X400174874Y-259371200D02*
X400212969Y-259333104D01*
X400212969Y-259333104D02*
X400251064Y-259256914D01*
X400251064Y-259256914D02*
X400251064Y-259180723D01*
X400251064Y-259180723D02*
X400212969Y-259104533D01*
X400212969Y-259104533D02*
X400174874Y-259066438D01*
X400174874Y-259066438D02*
X400098683Y-259028342D01*
X400098683Y-259028342D02*
X399946302Y-258990247D01*
X399946302Y-258990247D02*
X399870112Y-258952152D01*
X399870112Y-258952152D02*
X399832017Y-258914057D01*
X399832017Y-258914057D02*
X399793921Y-258837866D01*
X399793921Y-258837866D02*
X399793921Y-258761676D01*
X399793921Y-258761676D02*
X399832017Y-258685485D01*
X399832017Y-258685485D02*
X399870112Y-258647390D01*
X399870112Y-258647390D02*
X399946302Y-258609295D01*
X399946302Y-258609295D02*
X400136779Y-258609295D01*
X400136779Y-258609295D02*
X400251064Y-258647390D01*
X400555826Y-259371200D02*
X400670112Y-259409295D01*
X400670112Y-259409295D02*
X400860588Y-259409295D01*
X400860588Y-259409295D02*
X400936779Y-259371200D01*
X400936779Y-259371200D02*
X400974874Y-259333104D01*
X400974874Y-259333104D02*
X401012969Y-259256914D01*
X401012969Y-259256914D02*
X401012969Y-259180723D01*
X401012969Y-259180723D02*
X400974874Y-259104533D01*
X400974874Y-259104533D02*
X400936779Y-259066438D01*
X400936779Y-259066438D02*
X400860588Y-259028342D01*
X400860588Y-259028342D02*
X400708207Y-258990247D01*
X400708207Y-258990247D02*
X400632017Y-258952152D01*
X400632017Y-258952152D02*
X400593922Y-258914057D01*
X400593922Y-258914057D02*
X400555826Y-258837866D01*
X400555826Y-258837866D02*
X400555826Y-258761676D01*
X400555826Y-258761676D02*
X400593922Y-258685485D01*
X400593922Y-258685485D02*
X400632017Y-258647390D01*
X400632017Y-258647390D02*
X400708207Y-258609295D01*
X400708207Y-258609295D02*
X400898684Y-258609295D01*
X400898684Y-258609295D02*
X401012969Y-258647390D01*
X401355827Y-258609295D02*
X401355827Y-259256914D01*
X401355827Y-259256914D02*
X401393922Y-259333104D01*
X401393922Y-259333104D02*
X401432017Y-259371200D01*
X401432017Y-259371200D02*
X401508208Y-259409295D01*
X401508208Y-259409295D02*
X401660589Y-259409295D01*
X401660589Y-259409295D02*
X401736779Y-259371200D01*
X401736779Y-259371200D02*
X401774874Y-259333104D01*
X401774874Y-259333104D02*
X401812970Y-259256914D01*
X401812970Y-259256914D02*
X401812970Y-258609295D01*
X402193922Y-258990247D02*
X402460588Y-258990247D01*
X402574874Y-259409295D02*
X402193922Y-259409295D01*
X402193922Y-259409295D02*
X402193922Y-258609295D01*
X402193922Y-258609295D02*
X402574874Y-258609295D01*
D10*
D11*
X410996064Y-259371200D02*
X411110350Y-259409295D01*
X411110350Y-259409295D02*
X411300826Y-259409295D01*
X411300826Y-259409295D02*
X411377017Y-259371200D01*
X411377017Y-259371200D02*
X411415112Y-259333104D01*
X411415112Y-259333104D02*
X411453207Y-259256914D01*
X411453207Y-259256914D02*
X411453207Y-259180723D01*
X411453207Y-259180723D02*
X411415112Y-259104533D01*
X411415112Y-259104533D02*
X411377017Y-259066438D01*
X411377017Y-259066438D02*
X411300826Y-259028342D01*
X411300826Y-259028342D02*
X411148445Y-258990247D01*
X411148445Y-258990247D02*
X411072255Y-258952152D01*
X411072255Y-258952152D02*
X411034160Y-258914057D01*
X411034160Y-258914057D02*
X410996064Y-258837866D01*
X410996064Y-258837866D02*
X410996064Y-258761676D01*
X410996064Y-258761676D02*
X411034160Y-258685485D01*
X411034160Y-258685485D02*
X411072255Y-258647390D01*
X411072255Y-258647390D02*
X411148445Y-258609295D01*
X411148445Y-258609295D02*
X411338922Y-258609295D01*
X411338922Y-258609295D02*
X411453207Y-258647390D01*
X411796065Y-259409295D02*
X411796065Y-258609295D01*
X411796065Y-258990247D02*
X412253208Y-258990247D01*
X412253208Y-259409295D02*
X412253208Y-258609295D01*
X412634160Y-258990247D02*
X412900826Y-258990247D01*
X413015112Y-259409295D02*
X412634160Y-259409295D01*
X412634160Y-259409295D02*
X412634160Y-258609295D01*
X412634160Y-258609295D02*
X413015112Y-258609295D01*
X413357970Y-258990247D02*
X413624636Y-258990247D01*
X413738922Y-259409295D02*
X413357970Y-259409295D01*
X413357970Y-259409295D02*
X413357970Y-258609295D01*
X413357970Y-258609295D02*
X413738922Y-258609295D01*
X413967494Y-258609295D02*
X414424637Y-258609295D01*
X414196065Y-259409295D02*
X414196065Y-258609295D01*
D10*
D11*
X392342142Y-256304128D02*
X392342142Y-254804128D01*
X392342142Y-254804128D02*
X392913571Y-254804128D01*
X392913571Y-254804128D02*
X393056428Y-254875557D01*
X393056428Y-254875557D02*
X393127857Y-254946985D01*
X393127857Y-254946985D02*
X393199285Y-255089842D01*
X393199285Y-255089842D02*
X393199285Y-255304128D01*
X393199285Y-255304128D02*
X393127857Y-255446985D01*
X393127857Y-255446985D02*
X393056428Y-255518414D01*
X393056428Y-255518414D02*
X392913571Y-255589842D01*
X392913571Y-255589842D02*
X392342142Y-255589842D01*
X394699285Y-256161271D02*
X394627857Y-256232700D01*
X394627857Y-256232700D02*
X394413571Y-256304128D01*
X394413571Y-256304128D02*
X394270714Y-256304128D01*
X394270714Y-256304128D02*
X394056428Y-256232700D01*
X394056428Y-256232700D02*
X393913571Y-256089842D01*
X393913571Y-256089842D02*
X393842142Y-255946985D01*
X393842142Y-255946985D02*
X393770714Y-255661271D01*
X393770714Y-255661271D02*
X393770714Y-255446985D01*
X393770714Y-255446985D02*
X393842142Y-255161271D01*
X393842142Y-255161271D02*
X393913571Y-255018414D01*
X393913571Y-255018414D02*
X394056428Y-254875557D01*
X394056428Y-254875557D02*
X394270714Y-254804128D01*
X394270714Y-254804128D02*
X394413571Y-254804128D01*
X394413571Y-254804128D02*
X394627857Y-254875557D01*
X394627857Y-254875557D02*
X394699285Y-254946985D01*
X395842142Y-255518414D02*
X396056428Y-255589842D01*
X396056428Y-255589842D02*
X396127857Y-255661271D01*
X396127857Y-255661271D02*
X396199285Y-255804128D01*
X396199285Y-255804128D02*
X396199285Y-256018414D01*
X396199285Y-256018414D02*
X396127857Y-256161271D01*
X396127857Y-256161271D02*
X396056428Y-256232700D01*
X396056428Y-256232700D02*
X395913571Y-256304128D01*
X395913571Y-256304128D02*
X395342142Y-256304128D01*
X395342142Y-256304128D02*
X395342142Y-254804128D01*
X395342142Y-254804128D02*
X395842142Y-254804128D01*
X395842142Y-254804128D02*
X395985000Y-254875557D01*
X395985000Y-254875557D02*
X396056428Y-254946985D01*
X396056428Y-254946985D02*
X396127857Y-255089842D01*
X396127857Y-255089842D02*
X396127857Y-255232700D01*
X396127857Y-255232700D02*
X396056428Y-255375557D01*
X396056428Y-255375557D02*
X395985000Y-255446985D01*
X395985000Y-255446985D02*
X395842142Y-255518414D01*
X395842142Y-255518414D02*
X395342142Y-255518414D01*
D10*
D11*
X377468064Y-259180723D02*
X377849017Y-259180723D01*
X377391874Y-259409295D02*
X377658541Y-258609295D01*
X377658541Y-258609295D02*
X377925207Y-259409295D01*
X378191874Y-259409295D02*
X378191874Y-258609295D01*
X378191874Y-258609295D02*
X378496636Y-258609295D01*
X378496636Y-258609295D02*
X378572826Y-258647390D01*
X378572826Y-258647390D02*
X378610921Y-258685485D01*
X378610921Y-258685485D02*
X378649017Y-258761676D01*
X378649017Y-258761676D02*
X378649017Y-258875961D01*
X378649017Y-258875961D02*
X378610921Y-258952152D01*
X378610921Y-258952152D02*
X378572826Y-258990247D01*
X378572826Y-258990247D02*
X378496636Y-259028342D01*
X378496636Y-259028342D02*
X378191874Y-259028342D01*
X378991874Y-259409295D02*
X378991874Y-258609295D01*
X378991874Y-258609295D02*
X379296636Y-258609295D01*
X379296636Y-258609295D02*
X379372826Y-258647390D01*
X379372826Y-258647390D02*
X379410921Y-258685485D01*
X379410921Y-258685485D02*
X379449017Y-258761676D01*
X379449017Y-258761676D02*
X379449017Y-258875961D01*
X379449017Y-258875961D02*
X379410921Y-258952152D01*
X379410921Y-258952152D02*
X379372826Y-258990247D01*
X379372826Y-258990247D02*
X379296636Y-259028342D01*
X379296636Y-259028342D02*
X378991874Y-259028342D01*
X380249017Y-259409295D02*
X379982350Y-259028342D01*
X379791874Y-259409295D02*
X379791874Y-258609295D01*
X379791874Y-258609295D02*
X380096636Y-258609295D01*
X380096636Y-258609295D02*
X380172826Y-258647390D01*
X380172826Y-258647390D02*
X380210921Y-258685485D01*
X380210921Y-258685485D02*
X380249017Y-258761676D01*
X380249017Y-258761676D02*
X380249017Y-258875961D01*
X380249017Y-258875961D02*
X380210921Y-258952152D01*
X380210921Y-258952152D02*
X380172826Y-258990247D01*
X380172826Y-258990247D02*
X380096636Y-259028342D01*
X380096636Y-259028342D02*
X379791874Y-259028342D01*
X380744255Y-258609295D02*
X380896636Y-258609295D01*
X380896636Y-258609295D02*
X380972826Y-258647390D01*
X380972826Y-258647390D02*
X381049017Y-258723580D01*
X381049017Y-258723580D02*
X381087112Y-258875961D01*
X381087112Y-258875961D02*
X381087112Y-259142628D01*
X381087112Y-259142628D02*
X381049017Y-259295009D01*
X381049017Y-259295009D02*
X380972826Y-259371200D01*
X380972826Y-259371200D02*
X380896636Y-259409295D01*
X380896636Y-259409295D02*
X380744255Y-259409295D01*
X380744255Y-259409295D02*
X380668064Y-259371200D01*
X380668064Y-259371200D02*
X380591874Y-259295009D01*
X380591874Y-259295009D02*
X380553778Y-259142628D01*
X380553778Y-259142628D02*
X380553778Y-258875961D01*
X380553778Y-258875961D02*
X380591874Y-258723580D01*
X380591874Y-258723580D02*
X380668064Y-258647390D01*
X380668064Y-258647390D02*
X380744255Y-258609295D01*
X381315683Y-258609295D02*
X381582350Y-259409295D01*
X381582350Y-259409295D02*
X381849016Y-258609295D01*
X382115683Y-258990247D02*
X382382349Y-258990247D01*
X382496635Y-259409295D02*
X382115683Y-259409295D01*
X382115683Y-259409295D02*
X382115683Y-258609295D01*
X382115683Y-258609295D02*
X382496635Y-258609295D01*
X382839493Y-259409295D02*
X382839493Y-258609295D01*
X382839493Y-258609295D02*
X383029969Y-258609295D01*
X383029969Y-258609295D02*
X383144255Y-258647390D01*
X383144255Y-258647390D02*
X383220445Y-258723580D01*
X383220445Y-258723580D02*
X383258540Y-258799771D01*
X383258540Y-258799771D02*
X383296636Y-258952152D01*
X383296636Y-258952152D02*
X383296636Y-259066438D01*
X383296636Y-259066438D02*
X383258540Y-259218819D01*
X383258540Y-259218819D02*
X383220445Y-259295009D01*
X383220445Y-259295009D02*
X383144255Y-259371200D01*
X383144255Y-259371200D02*
X383029969Y-259409295D01*
X383029969Y-259409295D02*
X382839493Y-259409295D01*
X384515683Y-258990247D02*
X384629969Y-259028342D01*
X384629969Y-259028342D02*
X384668064Y-259066438D01*
X384668064Y-259066438D02*
X384706160Y-259142628D01*
X384706160Y-259142628D02*
X384706160Y-259256914D01*
X384706160Y-259256914D02*
X384668064Y-259333104D01*
X384668064Y-259333104D02*
X384629969Y-259371200D01*
X384629969Y-259371200D02*
X384553779Y-259409295D01*
X384553779Y-259409295D02*
X384249017Y-259409295D01*
X384249017Y-259409295D02*
X384249017Y-258609295D01*
X384249017Y-258609295D02*
X384515683Y-258609295D01*
X384515683Y-258609295D02*
X384591874Y-258647390D01*
X384591874Y-258647390D02*
X384629969Y-258685485D01*
X384629969Y-258685485D02*
X384668064Y-258761676D01*
X384668064Y-258761676D02*
X384668064Y-258837866D01*
X384668064Y-258837866D02*
X384629969Y-258914057D01*
X384629969Y-258914057D02*
X384591874Y-258952152D01*
X384591874Y-258952152D02*
X384515683Y-258990247D01*
X384515683Y-258990247D02*
X384249017Y-258990247D01*
X385201398Y-259028342D02*
X385201398Y-259409295D01*
X384934731Y-258609295D02*
X385201398Y-259028342D01*
X385201398Y-259028342D02*
X385468064Y-258609295D01*
D10*
D11*
X296845112Y-260418271D02*
X296702255Y-260346842D01*
X296702255Y-260346842D02*
X296416541Y-260346842D01*
X296416541Y-260346842D02*
X296273684Y-260418271D01*
X296273684Y-260418271D02*
X296130826Y-260561128D01*
X296130826Y-260561128D02*
X296059398Y-260703985D01*
X296059398Y-260703985D02*
X296059398Y-260989700D01*
X296059398Y-260989700D02*
X296130826Y-261132557D01*
X296130826Y-261132557D02*
X296273684Y-261275414D01*
X296273684Y-261275414D02*
X296416541Y-261346842D01*
X296416541Y-261346842D02*
X296702255Y-261346842D01*
X296702255Y-261346842D02*
X296845112Y-261275414D01*
X296559398Y-259846842D02*
X296202255Y-259918271D01*
X296202255Y-259918271D02*
X295845112Y-260132557D01*
X295845112Y-260132557D02*
X295630826Y-260489700D01*
X295630826Y-260489700D02*
X295559398Y-260846842D01*
X295559398Y-260846842D02*
X295630826Y-261203985D01*
X295630826Y-261203985D02*
X295845112Y-261561128D01*
X295845112Y-261561128D02*
X296202255Y-261775414D01*
X296202255Y-261775414D02*
X296559398Y-261846842D01*
X296559398Y-261846842D02*
X296916541Y-261775414D01*
X296916541Y-261775414D02*
X297273684Y-261561128D01*
X297273684Y-261561128D02*
X297487969Y-261203985D01*
X297487969Y-261203985D02*
X297559398Y-260846842D01*
X297559398Y-260846842D02*
X297487969Y-260489700D01*
X297487969Y-260489700D02*
X297273684Y-260132557D01*
X297273684Y-260132557D02*
X296916541Y-259918271D01*
X296916541Y-259918271D02*
X296559398Y-259846842D01*
X299273684Y-261132557D02*
X299987970Y-261132557D01*
X299130827Y-261561128D02*
X299630827Y-260061128D01*
X299630827Y-260061128D02*
X300130827Y-261561128D01*
X300845112Y-261561128D02*
X300702255Y-261489700D01*
X300702255Y-261489700D02*
X300630826Y-261346842D01*
X300630826Y-261346842D02*
X300630826Y-260061128D01*
X301987969Y-261489700D02*
X301845112Y-261561128D01*
X301845112Y-261561128D02*
X301559398Y-261561128D01*
X301559398Y-261561128D02*
X301416540Y-261489700D01*
X301416540Y-261489700D02*
X301345112Y-261346842D01*
X301345112Y-261346842D02*
X301345112Y-260775414D01*
X301345112Y-260775414D02*
X301416540Y-260632557D01*
X301416540Y-260632557D02*
X301559398Y-260561128D01*
X301559398Y-260561128D02*
X301845112Y-260561128D01*
X301845112Y-260561128D02*
X301987969Y-260632557D01*
X301987969Y-260632557D02*
X302059398Y-260775414D01*
X302059398Y-260775414D02*
X302059398Y-260918271D01*
X302059398Y-260918271D02*
X301345112Y-261061128D01*
X302630826Y-261489700D02*
X302773683Y-261561128D01*
X302773683Y-261561128D02*
X303059397Y-261561128D01*
X303059397Y-261561128D02*
X303202254Y-261489700D01*
X303202254Y-261489700D02*
X303273683Y-261346842D01*
X303273683Y-261346842D02*
X303273683Y-261275414D01*
X303273683Y-261275414D02*
X303202254Y-261132557D01*
X303202254Y-261132557D02*
X303059397Y-261061128D01*
X303059397Y-261061128D02*
X302845112Y-261061128D01*
X302845112Y-261061128D02*
X302702254Y-260989700D01*
X302702254Y-260989700D02*
X302630826Y-260846842D01*
X302630826Y-260846842D02*
X302630826Y-260775414D01*
X302630826Y-260775414D02*
X302702254Y-260632557D01*
X302702254Y-260632557D02*
X302845112Y-260561128D01*
X302845112Y-260561128D02*
X303059397Y-260561128D01*
X303059397Y-260561128D02*
X303202254Y-260632557D01*
X303845112Y-261489700D02*
X303987969Y-261561128D01*
X303987969Y-261561128D02*
X304273683Y-261561128D01*
X304273683Y-261561128D02*
X304416540Y-261489700D01*
X304416540Y-261489700D02*
X304487969Y-261346842D01*
X304487969Y-261346842D02*
X304487969Y-261275414D01*
X304487969Y-261275414D02*
X304416540Y-261132557D01*
X304416540Y-261132557D02*
X304273683Y-261061128D01*
X304273683Y-261061128D02*
X304059398Y-261061128D01*
X304059398Y-261061128D02*
X303916540Y-260989700D01*
X303916540Y-260989700D02*
X303845112Y-260846842D01*
X303845112Y-260846842D02*
X303845112Y-260775414D01*
X303845112Y-260775414D02*
X303916540Y-260632557D01*
X303916540Y-260632557D02*
X304059398Y-260561128D01*
X304059398Y-260561128D02*
X304273683Y-260561128D01*
X304273683Y-260561128D02*
X304416540Y-260632557D01*
X305773684Y-261561128D02*
X305773684Y-260775414D01*
X305773684Y-260775414D02*
X305702255Y-260632557D01*
X305702255Y-260632557D02*
X305559398Y-260561128D01*
X305559398Y-260561128D02*
X305273684Y-260561128D01*
X305273684Y-260561128D02*
X305130826Y-260632557D01*
X305773684Y-261489700D02*
X305630826Y-261561128D01*
X305630826Y-261561128D02*
X305273684Y-261561128D01*
X305273684Y-261561128D02*
X305130826Y-261489700D01*
X305130826Y-261489700D02*
X305059398Y-261346842D01*
X305059398Y-261346842D02*
X305059398Y-261203985D01*
X305059398Y-261203985D02*
X305130826Y-261061128D01*
X305130826Y-261061128D02*
X305273684Y-260989700D01*
X305273684Y-260989700D02*
X305630826Y-260989700D01*
X305630826Y-260989700D02*
X305773684Y-260918271D01*
X306487969Y-260561128D02*
X306487969Y-261561128D01*
X306487969Y-260703985D02*
X306559398Y-260632557D01*
X306559398Y-260632557D02*
X306702255Y-260561128D01*
X306702255Y-260561128D02*
X306916541Y-260561128D01*
X306916541Y-260561128D02*
X307059398Y-260632557D01*
X307059398Y-260632557D02*
X307130827Y-260775414D01*
X307130827Y-260775414D02*
X307130827Y-261561128D01*
X308487970Y-261561128D02*
X308487970Y-260061128D01*
X308487970Y-261489700D02*
X308345112Y-261561128D01*
X308345112Y-261561128D02*
X308059398Y-261561128D01*
X308059398Y-261561128D02*
X307916541Y-261489700D01*
X307916541Y-261489700D02*
X307845112Y-261418271D01*
X307845112Y-261418271D02*
X307773684Y-261275414D01*
X307773684Y-261275414D02*
X307773684Y-260846842D01*
X307773684Y-260846842D02*
X307845112Y-260703985D01*
X307845112Y-260703985D02*
X307916541Y-260632557D01*
X307916541Y-260632557D02*
X308059398Y-260561128D01*
X308059398Y-260561128D02*
X308345112Y-260561128D01*
X308345112Y-260561128D02*
X308487970Y-260632557D01*
X309202255Y-261561128D02*
X309202255Y-260561128D01*
X309202255Y-260846842D02*
X309273684Y-260703985D01*
X309273684Y-260703985D02*
X309345113Y-260632557D01*
X309345113Y-260632557D02*
X309487970Y-260561128D01*
X309487970Y-260561128D02*
X309630827Y-260561128D01*
X310345112Y-261561128D02*
X310202255Y-261489700D01*
X310202255Y-261489700D02*
X310130826Y-261418271D01*
X310130826Y-261418271D02*
X310059398Y-261275414D01*
X310059398Y-261275414D02*
X310059398Y-260846842D01*
X310059398Y-260846842D02*
X310130826Y-260703985D01*
X310130826Y-260703985D02*
X310202255Y-260632557D01*
X310202255Y-260632557D02*
X310345112Y-260561128D01*
X310345112Y-260561128D02*
X310559398Y-260561128D01*
X310559398Y-260561128D02*
X310702255Y-260632557D01*
X310702255Y-260632557D02*
X310773684Y-260703985D01*
X310773684Y-260703985D02*
X310845112Y-260846842D01*
X310845112Y-260846842D02*
X310845112Y-261275414D01*
X310845112Y-261275414D02*
X310773684Y-261418271D01*
X310773684Y-261418271D02*
X310702255Y-261489700D01*
X310702255Y-261489700D02*
X310559398Y-261561128D01*
X310559398Y-261561128D02*
X310345112Y-261561128D01*
X313487969Y-261561128D02*
X312987969Y-260846842D01*
X312630826Y-261561128D02*
X312630826Y-260061128D01*
X312630826Y-260061128D02*
X313202255Y-260061128D01*
X313202255Y-260061128D02*
X313345112Y-260132557D01*
X313345112Y-260132557D02*
X313416541Y-260203985D01*
X313416541Y-260203985D02*
X313487969Y-260346842D01*
X313487969Y-260346842D02*
X313487969Y-260561128D01*
X313487969Y-260561128D02*
X313416541Y-260703985D01*
X313416541Y-260703985D02*
X313345112Y-260775414D01*
X313345112Y-260775414D02*
X313202255Y-260846842D01*
X313202255Y-260846842D02*
X312630826Y-260846842D01*
X314130826Y-261561128D02*
X314130826Y-260561128D01*
X314130826Y-260061128D02*
X314059398Y-260132557D01*
X314059398Y-260132557D02*
X314130826Y-260203985D01*
X314130826Y-260203985D02*
X314202255Y-260132557D01*
X314202255Y-260132557D02*
X314130826Y-260061128D01*
X314130826Y-260061128D02*
X314130826Y-260203985D01*
X314702255Y-260561128D02*
X315487970Y-260561128D01*
X315487970Y-260561128D02*
X314702255Y-261561128D01*
X314702255Y-261561128D02*
X315487970Y-261561128D01*
X315916541Y-260561128D02*
X316702256Y-260561128D01*
X316702256Y-260561128D02*
X315916541Y-261561128D01*
X315916541Y-261561128D02*
X316702256Y-261561128D01*
X317487970Y-261561128D02*
X317345113Y-261489700D01*
X317345113Y-261489700D02*
X317273684Y-261418271D01*
X317273684Y-261418271D02*
X317202256Y-261275414D01*
X317202256Y-261275414D02*
X317202256Y-260846842D01*
X317202256Y-260846842D02*
X317273684Y-260703985D01*
X317273684Y-260703985D02*
X317345113Y-260632557D01*
X317345113Y-260632557D02*
X317487970Y-260561128D01*
X317487970Y-260561128D02*
X317702256Y-260561128D01*
X317702256Y-260561128D02*
X317845113Y-260632557D01*
X317845113Y-260632557D02*
X317916542Y-260703985D01*
X317916542Y-260703985D02*
X317987970Y-260846842D01*
X317987970Y-260846842D02*
X317987970Y-261275414D01*
X317987970Y-261275414D02*
X317916542Y-261418271D01*
X317916542Y-261418271D02*
X317845113Y-261489700D01*
X317845113Y-261489700D02*
X317702256Y-261561128D01*
X317702256Y-261561128D02*
X317487970Y-261561128D01*
X318630827Y-260561128D02*
X318630827Y-261561128D01*
X318630827Y-260703985D02*
X318702256Y-260632557D01*
X318702256Y-260632557D02*
X318845113Y-260561128D01*
X318845113Y-260561128D02*
X319059399Y-260561128D01*
X319059399Y-260561128D02*
X319202256Y-260632557D01*
X319202256Y-260632557D02*
X319273685Y-260775414D01*
X319273685Y-260775414D02*
X319273685Y-261561128D01*
X319987970Y-261561128D02*
X319987970Y-260561128D01*
X319987970Y-260061128D02*
X319916542Y-260132557D01*
X319916542Y-260132557D02*
X319987970Y-260203985D01*
X319987970Y-260203985D02*
X320059399Y-260132557D01*
X320059399Y-260132557D02*
X319987970Y-260061128D01*
X319987970Y-260061128D02*
X319987970Y-260203985D01*
D10*
D11*
X380070714Y-255875557D02*
X380785000Y-255875557D01*
X379927857Y-256304128D02*
X380427857Y-254804128D01*
X380427857Y-254804128D02*
X380927857Y-256304128D01*
X381427856Y-256304128D02*
X381427856Y-254804128D01*
X382999285Y-256304128D02*
X382499285Y-255589842D01*
X382142142Y-256304128D02*
X382142142Y-254804128D01*
X382142142Y-254804128D02*
X382713571Y-254804128D01*
X382713571Y-254804128D02*
X382856428Y-254875557D01*
X382856428Y-254875557D02*
X382927857Y-254946985D01*
X382927857Y-254946985D02*
X382999285Y-255089842D01*
X382999285Y-255089842D02*
X382999285Y-255304128D01*
X382999285Y-255304128D02*
X382927857Y-255446985D01*
X382927857Y-255446985D02*
X382856428Y-255518414D01*
X382856428Y-255518414D02*
X382713571Y-255589842D01*
X382713571Y-255589842D02*
X382142142Y-255589842D01*
D10*
D11*
X379943714Y-262225557D02*
X380658000Y-262225557D01*
X379800857Y-262654128D02*
X380300857Y-261154128D01*
X380300857Y-261154128D02*
X380800857Y-262654128D01*
X381300856Y-262654128D02*
X381300856Y-261154128D01*
X382872285Y-262654128D02*
X382372285Y-261939842D01*
X382015142Y-262654128D02*
X382015142Y-261154128D01*
X382015142Y-261154128D02*
X382586571Y-261154128D01*
X382586571Y-261154128D02*
X382729428Y-261225557D01*
X382729428Y-261225557D02*
X382800857Y-261296985D01*
X382800857Y-261296985D02*
X382872285Y-261439842D01*
X382872285Y-261439842D02*
X382872285Y-261654128D01*
X382872285Y-261654128D02*
X382800857Y-261796985D01*
X382800857Y-261796985D02*
X382729428Y-261868414D01*
X382729428Y-261868414D02*
X382586571Y-261939842D01*
X382586571Y-261939842D02*
X382015142Y-261939842D01*
D10*
D11*
X402779160Y-253059295D02*
X402779160Y-252259295D01*
X402779160Y-252259295D02*
X402969636Y-252259295D01*
X402969636Y-252259295D02*
X403083922Y-252297390D01*
X403083922Y-252297390D02*
X403160112Y-252373580D01*
X403160112Y-252373580D02*
X403198207Y-252449771D01*
X403198207Y-252449771D02*
X403236303Y-252602152D01*
X403236303Y-252602152D02*
X403236303Y-252716438D01*
X403236303Y-252716438D02*
X403198207Y-252868819D01*
X403198207Y-252868819D02*
X403160112Y-252945009D01*
X403160112Y-252945009D02*
X403083922Y-253021200D01*
X403083922Y-253021200D02*
X402969636Y-253059295D01*
X402969636Y-253059295D02*
X402779160Y-253059295D01*
X403731541Y-252259295D02*
X403883922Y-252259295D01*
X403883922Y-252259295D02*
X403960112Y-252297390D01*
X403960112Y-252297390D02*
X404036303Y-252373580D01*
X404036303Y-252373580D02*
X404074398Y-252525961D01*
X404074398Y-252525961D02*
X404074398Y-252792628D01*
X404074398Y-252792628D02*
X404036303Y-252945009D01*
X404036303Y-252945009D02*
X403960112Y-253021200D01*
X403960112Y-253021200D02*
X403883922Y-253059295D01*
X403883922Y-253059295D02*
X403731541Y-253059295D01*
X403731541Y-253059295D02*
X403655350Y-253021200D01*
X403655350Y-253021200D02*
X403579160Y-252945009D01*
X403579160Y-252945009D02*
X403541064Y-252792628D01*
X403541064Y-252792628D02*
X403541064Y-252525961D01*
X403541064Y-252525961D02*
X403579160Y-252373580D01*
X403579160Y-252373580D02*
X403655350Y-252297390D01*
X403655350Y-252297390D02*
X403731541Y-252259295D01*
X404874398Y-252983104D02*
X404836302Y-253021200D01*
X404836302Y-253021200D02*
X404722017Y-253059295D01*
X404722017Y-253059295D02*
X404645826Y-253059295D01*
X404645826Y-253059295D02*
X404531540Y-253021200D01*
X404531540Y-253021200D02*
X404455350Y-252945009D01*
X404455350Y-252945009D02*
X404417255Y-252868819D01*
X404417255Y-252868819D02*
X404379159Y-252716438D01*
X404379159Y-252716438D02*
X404379159Y-252602152D01*
X404379159Y-252602152D02*
X404417255Y-252449771D01*
X404417255Y-252449771D02*
X404455350Y-252373580D01*
X404455350Y-252373580D02*
X404531540Y-252297390D01*
X404531540Y-252297390D02*
X404645826Y-252259295D01*
X404645826Y-252259295D02*
X404722017Y-252259295D01*
X404722017Y-252259295D02*
X404836302Y-252297390D01*
X404836302Y-252297390D02*
X404874398Y-252335485D01*
X405217255Y-252259295D02*
X405217255Y-252906914D01*
X405217255Y-252906914D02*
X405255350Y-252983104D01*
X405255350Y-252983104D02*
X405293445Y-253021200D01*
X405293445Y-253021200D02*
X405369636Y-253059295D01*
X405369636Y-253059295D02*
X405522017Y-253059295D01*
X405522017Y-253059295D02*
X405598207Y-253021200D01*
X405598207Y-253021200D02*
X405636302Y-252983104D01*
X405636302Y-252983104D02*
X405674398Y-252906914D01*
X405674398Y-252906914D02*
X405674398Y-252259295D01*
X406055350Y-253059295D02*
X406055350Y-252259295D01*
X406055350Y-252259295D02*
X406322016Y-252830723D01*
X406322016Y-252830723D02*
X406588683Y-252259295D01*
X406588683Y-252259295D02*
X406588683Y-253059295D01*
X406969636Y-252640247D02*
X407236302Y-252640247D01*
X407350588Y-253059295D02*
X406969636Y-253059295D01*
X406969636Y-253059295D02*
X406969636Y-252259295D01*
X406969636Y-252259295D02*
X407350588Y-252259295D01*
X407693446Y-253059295D02*
X407693446Y-252259295D01*
X407693446Y-252259295D02*
X408150589Y-253059295D01*
X408150589Y-253059295D02*
X408150589Y-252259295D01*
X408417255Y-252259295D02*
X408874398Y-252259295D01*
X408645826Y-253059295D02*
X408645826Y-252259295D01*
X409712493Y-253021200D02*
X409826779Y-253059295D01*
X409826779Y-253059295D02*
X410017255Y-253059295D01*
X410017255Y-253059295D02*
X410093446Y-253021200D01*
X410093446Y-253021200D02*
X410131541Y-252983104D01*
X410131541Y-252983104D02*
X410169636Y-252906914D01*
X410169636Y-252906914D02*
X410169636Y-252830723D01*
X410169636Y-252830723D02*
X410131541Y-252754533D01*
X410131541Y-252754533D02*
X410093446Y-252716438D01*
X410093446Y-252716438D02*
X410017255Y-252678342D01*
X410017255Y-252678342D02*
X409864874Y-252640247D01*
X409864874Y-252640247D02*
X409788684Y-252602152D01*
X409788684Y-252602152D02*
X409750589Y-252564057D01*
X409750589Y-252564057D02*
X409712493Y-252487866D01*
X409712493Y-252487866D02*
X409712493Y-252411676D01*
X409712493Y-252411676D02*
X409750589Y-252335485D01*
X409750589Y-252335485D02*
X409788684Y-252297390D01*
X409788684Y-252297390D02*
X409864874Y-252259295D01*
X409864874Y-252259295D02*
X410055351Y-252259295D01*
X410055351Y-252259295D02*
X410169636Y-252297390D01*
X410398208Y-252259295D02*
X410855351Y-252259295D01*
X410626779Y-253059295D02*
X410626779Y-252259295D01*
X411083922Y-252830723D02*
X411464875Y-252830723D01*
X411007732Y-253059295D02*
X411274399Y-252259295D01*
X411274399Y-252259295D02*
X411541065Y-253059295D01*
X411693446Y-252259295D02*
X412150589Y-252259295D01*
X411922017Y-253059295D02*
X411922017Y-252259295D01*
X412417256Y-252259295D02*
X412417256Y-252906914D01*
X412417256Y-252906914D02*
X412455351Y-252983104D01*
X412455351Y-252983104D02*
X412493446Y-253021200D01*
X412493446Y-253021200D02*
X412569637Y-253059295D01*
X412569637Y-253059295D02*
X412722018Y-253059295D01*
X412722018Y-253059295D02*
X412798208Y-253021200D01*
X412798208Y-253021200D02*
X412836303Y-252983104D01*
X412836303Y-252983104D02*
X412874399Y-252906914D01*
X412874399Y-252906914D02*
X412874399Y-252259295D01*
X413217255Y-253021200D02*
X413331541Y-253059295D01*
X413331541Y-253059295D02*
X413522017Y-253059295D01*
X413522017Y-253059295D02*
X413598208Y-253021200D01*
X413598208Y-253021200D02*
X413636303Y-252983104D01*
X413636303Y-252983104D02*
X413674398Y-252906914D01*
X413674398Y-252906914D02*
X413674398Y-252830723D01*
X413674398Y-252830723D02*
X413636303Y-252754533D01*
X413636303Y-252754533D02*
X413598208Y-252716438D01*
X413598208Y-252716438D02*
X413522017Y-252678342D01*
X413522017Y-252678342D02*
X413369636Y-252640247D01*
X413369636Y-252640247D02*
X413293446Y-252602152D01*
X413293446Y-252602152D02*
X413255351Y-252564057D01*
X413255351Y-252564057D02*
X413217255Y-252487866D01*
X413217255Y-252487866D02*
X413217255Y-252411676D01*
X413217255Y-252411676D02*
X413255351Y-252335485D01*
X413255351Y-252335485D02*
X413293446Y-252297390D01*
X413293446Y-252297390D02*
X413369636Y-252259295D01*
X413369636Y-252259295D02*
X413560113Y-252259295D01*
X413560113Y-252259295D02*
X413674398Y-252297390D01*
D10*
D11*
X377379160Y-253059295D02*
X377379160Y-252259295D01*
X377379160Y-252259295D02*
X377569636Y-252259295D01*
X377569636Y-252259295D02*
X377683922Y-252297390D01*
X377683922Y-252297390D02*
X377760112Y-252373580D01*
X377760112Y-252373580D02*
X377798207Y-252449771D01*
X377798207Y-252449771D02*
X377836303Y-252602152D01*
X377836303Y-252602152D02*
X377836303Y-252716438D01*
X377836303Y-252716438D02*
X377798207Y-252868819D01*
X377798207Y-252868819D02*
X377760112Y-252945009D01*
X377760112Y-252945009D02*
X377683922Y-253021200D01*
X377683922Y-253021200D02*
X377569636Y-253059295D01*
X377569636Y-253059295D02*
X377379160Y-253059295D01*
X378636303Y-253059295D02*
X378369636Y-252678342D01*
X378179160Y-253059295D02*
X378179160Y-252259295D01*
X378179160Y-252259295D02*
X378483922Y-252259295D01*
X378483922Y-252259295D02*
X378560112Y-252297390D01*
X378560112Y-252297390D02*
X378598207Y-252335485D01*
X378598207Y-252335485D02*
X378636303Y-252411676D01*
X378636303Y-252411676D02*
X378636303Y-252525961D01*
X378636303Y-252525961D02*
X378598207Y-252602152D01*
X378598207Y-252602152D02*
X378560112Y-252640247D01*
X378560112Y-252640247D02*
X378483922Y-252678342D01*
X378483922Y-252678342D02*
X378179160Y-252678342D01*
X378941064Y-252830723D02*
X379322017Y-252830723D01*
X378864874Y-253059295D02*
X379131541Y-252259295D01*
X379131541Y-252259295D02*
X379398207Y-253059295D01*
X379588683Y-252259295D02*
X379779159Y-253059295D01*
X379779159Y-253059295D02*
X379931540Y-252487866D01*
X379931540Y-252487866D02*
X380083921Y-253059295D01*
X380083921Y-253059295D02*
X380274398Y-252259295D01*
X380579160Y-253059295D02*
X380579160Y-252259295D01*
X380579160Y-252259295D02*
X381036303Y-253059295D01*
X381036303Y-253059295D02*
X381036303Y-252259295D01*
X382293445Y-252640247D02*
X382407731Y-252678342D01*
X382407731Y-252678342D02*
X382445826Y-252716438D01*
X382445826Y-252716438D02*
X382483922Y-252792628D01*
X382483922Y-252792628D02*
X382483922Y-252906914D01*
X382483922Y-252906914D02*
X382445826Y-252983104D01*
X382445826Y-252983104D02*
X382407731Y-253021200D01*
X382407731Y-253021200D02*
X382331541Y-253059295D01*
X382331541Y-253059295D02*
X382026779Y-253059295D01*
X382026779Y-253059295D02*
X382026779Y-252259295D01*
X382026779Y-252259295D02*
X382293445Y-252259295D01*
X382293445Y-252259295D02*
X382369636Y-252297390D01*
X382369636Y-252297390D02*
X382407731Y-252335485D01*
X382407731Y-252335485D02*
X382445826Y-252411676D01*
X382445826Y-252411676D02*
X382445826Y-252487866D01*
X382445826Y-252487866D02*
X382407731Y-252564057D01*
X382407731Y-252564057D02*
X382369636Y-252602152D01*
X382369636Y-252602152D02*
X382293445Y-252640247D01*
X382293445Y-252640247D02*
X382026779Y-252640247D01*
X382979160Y-252678342D02*
X382979160Y-253059295D01*
X382712493Y-252259295D02*
X382979160Y-252678342D01*
X382979160Y-252678342D02*
X383245826Y-252259295D01*
D10*
D11*
X387539160Y-253059295D02*
X387539160Y-252259295D01*
X387539160Y-252259295D02*
X387729636Y-252259295D01*
X387729636Y-252259295D02*
X387843922Y-252297390D01*
X387843922Y-252297390D02*
X387920112Y-252373580D01*
X387920112Y-252373580D02*
X387958207Y-252449771D01*
X387958207Y-252449771D02*
X387996303Y-252602152D01*
X387996303Y-252602152D02*
X387996303Y-252716438D01*
X387996303Y-252716438D02*
X387958207Y-252868819D01*
X387958207Y-252868819D02*
X387920112Y-252945009D01*
X387920112Y-252945009D02*
X387843922Y-253021200D01*
X387843922Y-253021200D02*
X387729636Y-253059295D01*
X387729636Y-253059295D02*
X387539160Y-253059295D01*
X388491541Y-252259295D02*
X388643922Y-252259295D01*
X388643922Y-252259295D02*
X388720112Y-252297390D01*
X388720112Y-252297390D02*
X388796303Y-252373580D01*
X388796303Y-252373580D02*
X388834398Y-252525961D01*
X388834398Y-252525961D02*
X388834398Y-252792628D01*
X388834398Y-252792628D02*
X388796303Y-252945009D01*
X388796303Y-252945009D02*
X388720112Y-253021200D01*
X388720112Y-253021200D02*
X388643922Y-253059295D01*
X388643922Y-253059295D02*
X388491541Y-253059295D01*
X388491541Y-253059295D02*
X388415350Y-253021200D01*
X388415350Y-253021200D02*
X388339160Y-252945009D01*
X388339160Y-252945009D02*
X388301064Y-252792628D01*
X388301064Y-252792628D02*
X388301064Y-252525961D01*
X388301064Y-252525961D02*
X388339160Y-252373580D01*
X388339160Y-252373580D02*
X388415350Y-252297390D01*
X388415350Y-252297390D02*
X388491541Y-252259295D01*
X389634398Y-252983104D02*
X389596302Y-253021200D01*
X389596302Y-253021200D02*
X389482017Y-253059295D01*
X389482017Y-253059295D02*
X389405826Y-253059295D01*
X389405826Y-253059295D02*
X389291540Y-253021200D01*
X389291540Y-253021200D02*
X389215350Y-252945009D01*
X389215350Y-252945009D02*
X389177255Y-252868819D01*
X389177255Y-252868819D02*
X389139159Y-252716438D01*
X389139159Y-252716438D02*
X389139159Y-252602152D01*
X389139159Y-252602152D02*
X389177255Y-252449771D01*
X389177255Y-252449771D02*
X389215350Y-252373580D01*
X389215350Y-252373580D02*
X389291540Y-252297390D01*
X389291540Y-252297390D02*
X389405826Y-252259295D01*
X389405826Y-252259295D02*
X389482017Y-252259295D01*
X389482017Y-252259295D02*
X389596302Y-252297390D01*
X389596302Y-252297390D02*
X389634398Y-252335485D01*
X389977255Y-252259295D02*
X389977255Y-252906914D01*
X389977255Y-252906914D02*
X390015350Y-252983104D01*
X390015350Y-252983104D02*
X390053445Y-253021200D01*
X390053445Y-253021200D02*
X390129636Y-253059295D01*
X390129636Y-253059295D02*
X390282017Y-253059295D01*
X390282017Y-253059295D02*
X390358207Y-253021200D01*
X390358207Y-253021200D02*
X390396302Y-252983104D01*
X390396302Y-252983104D02*
X390434398Y-252906914D01*
X390434398Y-252906914D02*
X390434398Y-252259295D01*
X390815350Y-253059295D02*
X390815350Y-252259295D01*
X390815350Y-252259295D02*
X391082016Y-252830723D01*
X391082016Y-252830723D02*
X391348683Y-252259295D01*
X391348683Y-252259295D02*
X391348683Y-253059295D01*
X391729636Y-252640247D02*
X391996302Y-252640247D01*
X392110588Y-253059295D02*
X391729636Y-253059295D01*
X391729636Y-253059295D02*
X391729636Y-252259295D01*
X391729636Y-252259295D02*
X392110588Y-252259295D01*
X392453446Y-253059295D02*
X392453446Y-252259295D01*
X392453446Y-252259295D02*
X392910589Y-253059295D01*
X392910589Y-253059295D02*
X392910589Y-252259295D01*
X393177255Y-252259295D02*
X393634398Y-252259295D01*
X393405826Y-253059295D02*
X393405826Y-252259295D01*
X394396303Y-252259295D02*
X394853446Y-252259295D01*
X394624874Y-253059295D02*
X394624874Y-252259295D01*
X395272494Y-252678342D02*
X395272494Y-253059295D01*
X395005827Y-252259295D02*
X395272494Y-252678342D01*
X395272494Y-252678342D02*
X395539160Y-252259295D01*
X395805827Y-253059295D02*
X395805827Y-252259295D01*
X395805827Y-252259295D02*
X396110589Y-252259295D01*
X396110589Y-252259295D02*
X396186779Y-252297390D01*
X396186779Y-252297390D02*
X396224874Y-252335485D01*
X396224874Y-252335485D02*
X396262970Y-252411676D01*
X396262970Y-252411676D02*
X396262970Y-252525961D01*
X396262970Y-252525961D02*
X396224874Y-252602152D01*
X396224874Y-252602152D02*
X396186779Y-252640247D01*
X396186779Y-252640247D02*
X396110589Y-252678342D01*
X396110589Y-252678342D02*
X395805827Y-252678342D01*
X396605827Y-252640247D02*
X396872493Y-252640247D01*
X396986779Y-253059295D02*
X396605827Y-253059295D01*
X396605827Y-253059295D02*
X396605827Y-252259295D01*
X396605827Y-252259295D02*
X396986779Y-252259295D01*
D10*
D11*
X404935285Y-256304128D02*
X404435285Y-255589842D01*
X404078142Y-256304128D02*
X404078142Y-254804128D01*
X404078142Y-254804128D02*
X404649571Y-254804128D01*
X404649571Y-254804128D02*
X404792428Y-254875557D01*
X404792428Y-254875557D02*
X404863857Y-254946985D01*
X404863857Y-254946985D02*
X404935285Y-255089842D01*
X404935285Y-255089842D02*
X404935285Y-255304128D01*
X404935285Y-255304128D02*
X404863857Y-255446985D01*
X404863857Y-255446985D02*
X404792428Y-255518414D01*
X404792428Y-255518414D02*
X404649571Y-255589842D01*
X404649571Y-255589842D02*
X404078142Y-255589842D01*
X405578142Y-255518414D02*
X406078142Y-255518414D01*
X406292428Y-256304128D02*
X405578142Y-256304128D01*
X405578142Y-256304128D02*
X405578142Y-254804128D01*
X405578142Y-254804128D02*
X406292428Y-254804128D01*
X407649571Y-256304128D02*
X406935285Y-256304128D01*
X406935285Y-256304128D02*
X406935285Y-254804128D01*
X408149571Y-255518414D02*
X408649571Y-255518414D01*
X408863857Y-256304128D02*
X408149571Y-256304128D01*
X408149571Y-256304128D02*
X408149571Y-254804128D01*
X408149571Y-254804128D02*
X408863857Y-254804128D01*
X409435286Y-255875557D02*
X410149572Y-255875557D01*
X409292429Y-256304128D02*
X409792429Y-254804128D01*
X409792429Y-254804128D02*
X410292429Y-256304128D01*
X410721000Y-256232700D02*
X410935286Y-256304128D01*
X410935286Y-256304128D02*
X411292428Y-256304128D01*
X411292428Y-256304128D02*
X411435286Y-256232700D01*
X411435286Y-256232700D02*
X411506714Y-256161271D01*
X411506714Y-256161271D02*
X411578143Y-256018414D01*
X411578143Y-256018414D02*
X411578143Y-255875557D01*
X411578143Y-255875557D02*
X411506714Y-255732700D01*
X411506714Y-255732700D02*
X411435286Y-255661271D01*
X411435286Y-255661271D02*
X411292428Y-255589842D01*
X411292428Y-255589842D02*
X411006714Y-255518414D01*
X411006714Y-255518414D02*
X410863857Y-255446985D01*
X410863857Y-255446985D02*
X410792428Y-255375557D01*
X410792428Y-255375557D02*
X410721000Y-255232700D01*
X410721000Y-255232700D02*
X410721000Y-255089842D01*
X410721000Y-255089842D02*
X410792428Y-254946985D01*
X410792428Y-254946985D02*
X410863857Y-254875557D01*
X410863857Y-254875557D02*
X411006714Y-254804128D01*
X411006714Y-254804128D02*
X411363857Y-254804128D01*
X411363857Y-254804128D02*
X411578143Y-254875557D01*
X412220999Y-255518414D02*
X412720999Y-255518414D01*
X412935285Y-256304128D02*
X412220999Y-256304128D01*
X412220999Y-256304128D02*
X412220999Y-254804128D01*
X412220999Y-254804128D02*
X412935285Y-254804128D01*
X413578142Y-256304128D02*
X413578142Y-254804128D01*
X413578142Y-254804128D02*
X413935285Y-254804128D01*
X413935285Y-254804128D02*
X414149571Y-254875557D01*
X414149571Y-254875557D02*
X414292428Y-255018414D01*
X414292428Y-255018414D02*
X414363857Y-255161271D01*
X414363857Y-255161271D02*
X414435285Y-255446985D01*
X414435285Y-255446985D02*
X414435285Y-255661271D01*
X414435285Y-255661271D02*
X414363857Y-255946985D01*
X414363857Y-255946985D02*
X414292428Y-256089842D01*
X414292428Y-256089842D02*
X414149571Y-256232700D01*
X414149571Y-256232700D02*
X413935285Y-256304128D01*
X413935285Y-256304128D02*
X413578142Y-256304128D01*
D10*
D11*
X394315287Y-261296985D02*
X394386715Y-261225557D01*
X394386715Y-261225557D02*
X394529573Y-261154128D01*
X394529573Y-261154128D02*
X394886715Y-261154128D01*
X394886715Y-261154128D02*
X395029573Y-261225557D01*
X395029573Y-261225557D02*
X395101001Y-261296985D01*
X395101001Y-261296985D02*
X395172430Y-261439842D01*
X395172430Y-261439842D02*
X395172430Y-261582700D01*
X395172430Y-261582700D02*
X395101001Y-261796985D01*
X395101001Y-261796985D02*
X394243858Y-262654128D01*
X394243858Y-262654128D02*
X395172430Y-262654128D01*
X396101001Y-261154128D02*
X396243858Y-261154128D01*
X396243858Y-261154128D02*
X396386715Y-261225557D01*
X396386715Y-261225557D02*
X396458144Y-261296985D01*
X396458144Y-261296985D02*
X396529572Y-261439842D01*
X396529572Y-261439842D02*
X396601001Y-261725557D01*
X396601001Y-261725557D02*
X396601001Y-262082700D01*
X396601001Y-262082700D02*
X396529572Y-262368414D01*
X396529572Y-262368414D02*
X396458144Y-262511271D01*
X396458144Y-262511271D02*
X396386715Y-262582700D01*
X396386715Y-262582700D02*
X396243858Y-262654128D01*
X396243858Y-262654128D02*
X396101001Y-262654128D01*
X396101001Y-262654128D02*
X395958144Y-262582700D01*
X395958144Y-262582700D02*
X395886715Y-262511271D01*
X395886715Y-262511271D02*
X395815286Y-262368414D01*
X395815286Y-262368414D02*
X395743858Y-262082700D01*
X395743858Y-262082700D02*
X395743858Y-261725557D01*
X395743858Y-261725557D02*
X395815286Y-261439842D01*
X395815286Y-261439842D02*
X395886715Y-261296985D01*
X395886715Y-261296985D02*
X395958144Y-261225557D01*
X395958144Y-261225557D02*
X396101001Y-261154128D01*
X397172429Y-261296985D02*
X397243857Y-261225557D01*
X397243857Y-261225557D02*
X397386715Y-261154128D01*
X397386715Y-261154128D02*
X397743857Y-261154128D01*
X397743857Y-261154128D02*
X397886715Y-261225557D01*
X397886715Y-261225557D02*
X397958143Y-261296985D01*
X397958143Y-261296985D02*
X398029572Y-261439842D01*
X398029572Y-261439842D02*
X398029572Y-261582700D01*
X398029572Y-261582700D02*
X397958143Y-261796985D01*
X397958143Y-261796985D02*
X397101000Y-262654128D01*
X397101000Y-262654128D02*
X398029572Y-262654128D01*
X398529571Y-261154128D02*
X399458143Y-261154128D01*
X399458143Y-261154128D02*
X398958143Y-261725557D01*
X398958143Y-261725557D02*
X399172428Y-261725557D01*
X399172428Y-261725557D02*
X399315286Y-261796985D01*
X399315286Y-261796985D02*
X399386714Y-261868414D01*
X399386714Y-261868414D02*
X399458143Y-262011271D01*
X399458143Y-262011271D02*
X399458143Y-262368414D01*
X399458143Y-262368414D02*
X399386714Y-262511271D01*
X399386714Y-262511271D02*
X399315286Y-262582700D01*
X399315286Y-262582700D02*
X399172428Y-262654128D01*
X399172428Y-262654128D02*
X398743857Y-262654128D01*
X398743857Y-262654128D02*
X398601000Y-262582700D01*
X398601000Y-262582700D02*
X398529571Y-262511271D01*
X400100999Y-262082700D02*
X401243857Y-262082700D01*
X402243857Y-261154128D02*
X402386714Y-261154128D01*
X402386714Y-261154128D02*
X402529571Y-261225557D01*
X402529571Y-261225557D02*
X402601000Y-261296985D01*
X402601000Y-261296985D02*
X402672428Y-261439842D01*
X402672428Y-261439842D02*
X402743857Y-261725557D01*
X402743857Y-261725557D02*
X402743857Y-262082700D01*
X402743857Y-262082700D02*
X402672428Y-262368414D01*
X402672428Y-262368414D02*
X402601000Y-262511271D01*
X402601000Y-262511271D02*
X402529571Y-262582700D01*
X402529571Y-262582700D02*
X402386714Y-262654128D01*
X402386714Y-262654128D02*
X402243857Y-262654128D01*
X402243857Y-262654128D02*
X402101000Y-262582700D01*
X402101000Y-262582700D02*
X402029571Y-262511271D01*
X402029571Y-262511271D02*
X401958142Y-262368414D01*
X401958142Y-262368414D02*
X401886714Y-262082700D01*
X401886714Y-262082700D02*
X401886714Y-261725557D01*
X401886714Y-261725557D02*
X401958142Y-261439842D01*
X401958142Y-261439842D02*
X402029571Y-261296985D01*
X402029571Y-261296985D02*
X402101000Y-261225557D01*
X402101000Y-261225557D02*
X402243857Y-261154128D01*
X403600999Y-261796985D02*
X403458142Y-261725557D01*
X403458142Y-261725557D02*
X403386713Y-261654128D01*
X403386713Y-261654128D02*
X403315285Y-261511271D01*
X403315285Y-261511271D02*
X403315285Y-261439842D01*
X403315285Y-261439842D02*
X403386713Y-261296985D01*
X403386713Y-261296985D02*
X403458142Y-261225557D01*
X403458142Y-261225557D02*
X403600999Y-261154128D01*
X403600999Y-261154128D02*
X403886713Y-261154128D01*
X403886713Y-261154128D02*
X404029571Y-261225557D01*
X404029571Y-261225557D02*
X404100999Y-261296985D01*
X404100999Y-261296985D02*
X404172428Y-261439842D01*
X404172428Y-261439842D02*
X404172428Y-261511271D01*
X404172428Y-261511271D02*
X404100999Y-261654128D01*
X404100999Y-261654128D02*
X404029571Y-261725557D01*
X404029571Y-261725557D02*
X403886713Y-261796985D01*
X403886713Y-261796985D02*
X403600999Y-261796985D01*
X403600999Y-261796985D02*
X403458142Y-261868414D01*
X403458142Y-261868414D02*
X403386713Y-261939842D01*
X403386713Y-261939842D02*
X403315285Y-262082700D01*
X403315285Y-262082700D02*
X403315285Y-262368414D01*
X403315285Y-262368414D02*
X403386713Y-262511271D01*
X403386713Y-262511271D02*
X403458142Y-262582700D01*
X403458142Y-262582700D02*
X403600999Y-262654128D01*
X403600999Y-262654128D02*
X403886713Y-262654128D01*
X403886713Y-262654128D02*
X404029571Y-262582700D01*
X404029571Y-262582700D02*
X404100999Y-262511271D01*
X404100999Y-262511271D02*
X404172428Y-262368414D01*
X404172428Y-262368414D02*
X404172428Y-262082700D01*
X404172428Y-262082700D02*
X404100999Y-261939842D01*
X404100999Y-261939842D02*
X404029571Y-261868414D01*
X404029571Y-261868414D02*
X403886713Y-261796985D01*
X404815284Y-262082700D02*
X405958142Y-262082700D01*
X407458142Y-262654128D02*
X406600999Y-262654128D01*
X407029570Y-262654128D02*
X407029570Y-261154128D01*
X407029570Y-261154128D02*
X406886713Y-261368414D01*
X406886713Y-261368414D02*
X406743856Y-261511271D01*
X406743856Y-261511271D02*
X406600999Y-261582700D01*
X408172427Y-262654128D02*
X408458141Y-262654128D01*
X408458141Y-262654128D02*
X408600998Y-262582700D01*
X408600998Y-262582700D02*
X408672427Y-262511271D01*
X408672427Y-262511271D02*
X408815284Y-262296985D01*
X408815284Y-262296985D02*
X408886713Y-262011271D01*
X408886713Y-262011271D02*
X408886713Y-261439842D01*
X408886713Y-261439842D02*
X408815284Y-261296985D01*
X408815284Y-261296985D02*
X408743856Y-261225557D01*
X408743856Y-261225557D02*
X408600998Y-261154128D01*
X408600998Y-261154128D02*
X408315284Y-261154128D01*
X408315284Y-261154128D02*
X408172427Y-261225557D01*
X408172427Y-261225557D02*
X408100998Y-261296985D01*
X408100998Y-261296985D02*
X408029570Y-261439842D01*
X408029570Y-261439842D02*
X408029570Y-261796985D01*
X408029570Y-261796985D02*
X408100998Y-261939842D01*
X408100998Y-261939842D02*
X408172427Y-262011271D01*
X408172427Y-262011271D02*
X408315284Y-262082700D01*
X408315284Y-262082700D02*
X408600998Y-262082700D01*
X408600998Y-262082700D02*
X408743856Y-262011271D01*
X408743856Y-262011271D02*
X408815284Y-261939842D01*
X408815284Y-261939842D02*
X408886713Y-261796985D01*
D10*
D11*
X389432857Y-262225557D02*
X390147143Y-262225557D01*
X389290000Y-262654128D02*
X389790000Y-261154128D01*
X389790000Y-261154128D02*
X390290000Y-262654128D01*
D10*
D12*
X296515225Y-255788328D02*
X295658082Y-255788328D01*
X296086653Y-255788328D02*
X296086653Y-254288328D01*
X296086653Y-254288328D02*
X295943796Y-254502614D01*
X295943796Y-254502614D02*
X295800939Y-254645471D01*
X295800939Y-254645471D02*
X295658082Y-254716900D01*
X297872367Y-254288328D02*
X297158081Y-254288328D01*
X297158081Y-254288328D02*
X297086653Y-255002614D01*
X297086653Y-255002614D02*
X297158081Y-254931185D01*
X297158081Y-254931185D02*
X297300939Y-254859757D01*
X297300939Y-254859757D02*
X297658081Y-254859757D01*
X297658081Y-254859757D02*
X297800939Y-254931185D01*
X297800939Y-254931185D02*
X297872367Y-255002614D01*
X297872367Y-255002614D02*
X297943796Y-255145471D01*
X297943796Y-255145471D02*
X297943796Y-255502614D01*
X297943796Y-255502614D02*
X297872367Y-255645471D01*
X297872367Y-255645471D02*
X297800939Y-255716900D01*
X297800939Y-255716900D02*
X297658081Y-255788328D01*
X297658081Y-255788328D02*
X297300939Y-255788328D01*
X297300939Y-255788328D02*
X297158081Y-255716900D01*
X297158081Y-255716900D02*
X297086653Y-255645471D01*
X298658081Y-255788328D02*
X298943795Y-255788328D01*
X298943795Y-255788328D02*
X299086652Y-255716900D01*
X299086652Y-255716900D02*
X299158081Y-255645471D01*
X299158081Y-255645471D02*
X299300938Y-255431185D01*
X299300938Y-255431185D02*
X299372367Y-255145471D01*
X299372367Y-255145471D02*
X299372367Y-254574042D01*
X299372367Y-254574042D02*
X299300938Y-254431185D01*
X299300938Y-254431185D02*
X299229510Y-254359757D01*
X299229510Y-254359757D02*
X299086652Y-254288328D01*
X299086652Y-254288328D02*
X298800938Y-254288328D01*
X298800938Y-254288328D02*
X298658081Y-254359757D01*
X298658081Y-254359757D02*
X298586652Y-254431185D01*
X298586652Y-254431185D02*
X298515224Y-254574042D01*
X298515224Y-254574042D02*
X298515224Y-254931185D01*
X298515224Y-254931185D02*
X298586652Y-255074042D01*
X298586652Y-255074042D02*
X298658081Y-255145471D01*
X298658081Y-255145471D02*
X298800938Y-255216900D01*
X298800938Y-255216900D02*
X299086652Y-255216900D01*
X299086652Y-255216900D02*
X299229510Y-255145471D01*
X299229510Y-255145471D02*
X299300938Y-255074042D01*
X299300938Y-255074042D02*
X299372367Y-254931185D01*
X300300938Y-254288328D02*
X300443795Y-254288328D01*
X300443795Y-254288328D02*
X300586652Y-254359757D01*
X300586652Y-254359757D02*
X300658081Y-254431185D01*
X300658081Y-254431185D02*
X300729509Y-254574042D01*
X300729509Y-254574042D02*
X300800938Y-254859757D01*
X300800938Y-254859757D02*
X300800938Y-255216900D01*
X300800938Y-255216900D02*
X300729509Y-255502614D01*
X300729509Y-255502614D02*
X300658081Y-255645471D01*
X300658081Y-255645471D02*
X300586652Y-255716900D01*
X300586652Y-255716900D02*
X300443795Y-255788328D01*
X300443795Y-255788328D02*
X300300938Y-255788328D01*
X300300938Y-255788328D02*
X300158081Y-255716900D01*
X300158081Y-255716900D02*
X300086652Y-255645471D01*
X300086652Y-255645471D02*
X300015223Y-255502614D01*
X300015223Y-255502614D02*
X299943795Y-255216900D01*
X299943795Y-255216900D02*
X299943795Y-254859757D01*
X299943795Y-254859757D02*
X300015223Y-254574042D01*
X300015223Y-254574042D02*
X300086652Y-254431185D01*
X300086652Y-254431185D02*
X300158081Y-254359757D01*
X300158081Y-254359757D02*
X300300938Y-254288328D01*
X301443794Y-255788328D02*
X301443794Y-254288328D01*
X301443794Y-254288328D02*
X302300937Y-255788328D01*
X302300937Y-255788328D02*
X302300937Y-254288328D01*
X303800938Y-255788328D02*
X302943795Y-255788328D01*
X303372366Y-255788328D02*
X303372366Y-254288328D01*
X303372366Y-254288328D02*
X303229509Y-254502614D01*
X303229509Y-254502614D02*
X303086652Y-254645471D01*
X303086652Y-254645471D02*
X302943795Y-254716900D01*
X306086651Y-255002614D02*
X306300937Y-255074042D01*
X306300937Y-255074042D02*
X306372366Y-255145471D01*
X306372366Y-255145471D02*
X306443794Y-255288328D01*
X306443794Y-255288328D02*
X306443794Y-255502614D01*
X306443794Y-255502614D02*
X306372366Y-255645471D01*
X306372366Y-255645471D02*
X306300937Y-255716900D01*
X306300937Y-255716900D02*
X306158080Y-255788328D01*
X306158080Y-255788328D02*
X305586651Y-255788328D01*
X305586651Y-255788328D02*
X305586651Y-254288328D01*
X305586651Y-254288328D02*
X306086651Y-254288328D01*
X306086651Y-254288328D02*
X306229509Y-254359757D01*
X306229509Y-254359757D02*
X306300937Y-254431185D01*
X306300937Y-254431185D02*
X306372366Y-254574042D01*
X306372366Y-254574042D02*
X306372366Y-254716900D01*
X306372366Y-254716900D02*
X306300937Y-254859757D01*
X306300937Y-254859757D02*
X306229509Y-254931185D01*
X306229509Y-254931185D02*
X306086651Y-255002614D01*
X306086651Y-255002614D02*
X305586651Y-255002614D01*
X307015223Y-255359757D02*
X307729509Y-255359757D01*
X306872366Y-255788328D02*
X307372366Y-254288328D01*
X307372366Y-254288328D02*
X307872366Y-255788328D01*
X308300937Y-255716900D02*
X308515223Y-255788328D01*
X308515223Y-255788328D02*
X308872365Y-255788328D01*
X308872365Y-255788328D02*
X309015223Y-255716900D01*
X309015223Y-255716900D02*
X309086651Y-255645471D01*
X309086651Y-255645471D02*
X309158080Y-255502614D01*
X309158080Y-255502614D02*
X309158080Y-255359757D01*
X309158080Y-255359757D02*
X309086651Y-255216900D01*
X309086651Y-255216900D02*
X309015223Y-255145471D01*
X309015223Y-255145471D02*
X308872365Y-255074042D01*
X308872365Y-255074042D02*
X308586651Y-255002614D01*
X308586651Y-255002614D02*
X308443794Y-254931185D01*
X308443794Y-254931185D02*
X308372365Y-254859757D01*
X308372365Y-254859757D02*
X308300937Y-254716900D01*
X308300937Y-254716900D02*
X308300937Y-254574042D01*
X308300937Y-254574042D02*
X308372365Y-254431185D01*
X308372365Y-254431185D02*
X308443794Y-254359757D01*
X308443794Y-254359757D02*
X308586651Y-254288328D01*
X308586651Y-254288328D02*
X308943794Y-254288328D01*
X308943794Y-254288328D02*
X309158080Y-254359757D01*
X309800936Y-255002614D02*
X310300936Y-255002614D01*
X310515222Y-255788328D02*
X309800936Y-255788328D01*
X309800936Y-255788328D02*
X309800936Y-254288328D01*
X309800936Y-254288328D02*
X310515222Y-254288328D01*
X311658079Y-255002614D02*
X311872365Y-255074042D01*
X311872365Y-255074042D02*
X311943794Y-255145471D01*
X311943794Y-255145471D02*
X312015222Y-255288328D01*
X312015222Y-255288328D02*
X312015222Y-255502614D01*
X312015222Y-255502614D02*
X311943794Y-255645471D01*
X311943794Y-255645471D02*
X311872365Y-255716900D01*
X311872365Y-255716900D02*
X311729508Y-255788328D01*
X311729508Y-255788328D02*
X311158079Y-255788328D01*
X311158079Y-255788328D02*
X311158079Y-254288328D01*
X311158079Y-254288328D02*
X311658079Y-254288328D01*
X311658079Y-254288328D02*
X311800937Y-254359757D01*
X311800937Y-254359757D02*
X311872365Y-254431185D01*
X311872365Y-254431185D02*
X311943794Y-254574042D01*
X311943794Y-254574042D02*
X311943794Y-254716900D01*
X311943794Y-254716900D02*
X311872365Y-254859757D01*
X311872365Y-254859757D02*
X311800937Y-254931185D01*
X311800937Y-254931185D02*
X311658079Y-255002614D01*
X311658079Y-255002614D02*
X311158079Y-255002614D01*
X312943794Y-254288328D02*
X313229508Y-254288328D01*
X313229508Y-254288328D02*
X313372365Y-254359757D01*
X313372365Y-254359757D02*
X313515222Y-254502614D01*
X313515222Y-254502614D02*
X313586651Y-254788328D01*
X313586651Y-254788328D02*
X313586651Y-255288328D01*
X313586651Y-255288328D02*
X313515222Y-255574042D01*
X313515222Y-255574042D02*
X313372365Y-255716900D01*
X313372365Y-255716900D02*
X313229508Y-255788328D01*
X313229508Y-255788328D02*
X312943794Y-255788328D01*
X312943794Y-255788328D02*
X312800937Y-255716900D01*
X312800937Y-255716900D02*
X312658079Y-255574042D01*
X312658079Y-255574042D02*
X312586651Y-255288328D01*
X312586651Y-255288328D02*
X312586651Y-254788328D01*
X312586651Y-254788328D02*
X312658079Y-254502614D01*
X312658079Y-254502614D02*
X312800937Y-254359757D01*
X312800937Y-254359757D02*
X312943794Y-254288328D01*
X314158080Y-255359757D02*
X314872366Y-255359757D01*
X314015223Y-255788328D02*
X314515223Y-254288328D01*
X314515223Y-254288328D02*
X315015223Y-255788328D01*
X316372365Y-255788328D02*
X315872365Y-255074042D01*
X315515222Y-255788328D02*
X315515222Y-254288328D01*
X315515222Y-254288328D02*
X316086651Y-254288328D01*
X316086651Y-254288328D02*
X316229508Y-254359757D01*
X316229508Y-254359757D02*
X316300937Y-254431185D01*
X316300937Y-254431185D02*
X316372365Y-254574042D01*
X316372365Y-254574042D02*
X316372365Y-254788328D01*
X316372365Y-254788328D02*
X316300937Y-254931185D01*
X316300937Y-254931185D02*
X316229508Y-255002614D01*
X316229508Y-255002614D02*
X316086651Y-255074042D01*
X316086651Y-255074042D02*
X315515222Y-255074042D01*
X317015222Y-255788328D02*
X317015222Y-254288328D01*
X317015222Y-254288328D02*
X317372365Y-254288328D01*
X317372365Y-254288328D02*
X317586651Y-254359757D01*
X317586651Y-254359757D02*
X317729508Y-254502614D01*
X317729508Y-254502614D02*
X317800937Y-254645471D01*
X317800937Y-254645471D02*
X317872365Y-254931185D01*
X317872365Y-254931185D02*
X317872365Y-255145471D01*
X317872365Y-255145471D02*
X317800937Y-255431185D01*
X317800937Y-255431185D02*
X317729508Y-255574042D01*
X317729508Y-255574042D02*
X317586651Y-255716900D01*
X317586651Y-255716900D02*
X317372365Y-255788328D01*
X317372365Y-255788328D02*
X317015222Y-255788328D01*
X319658079Y-255216900D02*
X320800937Y-255216900D01*
X322658079Y-255788328D02*
X322658079Y-254288328D01*
X322658079Y-254288328D02*
X323229508Y-254288328D01*
X323229508Y-254288328D02*
X323372365Y-254359757D01*
X323372365Y-254359757D02*
X323443794Y-254431185D01*
X323443794Y-254431185D02*
X323515222Y-254574042D01*
X323515222Y-254574042D02*
X323515222Y-254788328D01*
X323515222Y-254788328D02*
X323443794Y-254931185D01*
X323443794Y-254931185D02*
X323372365Y-255002614D01*
X323372365Y-255002614D02*
X323229508Y-255074042D01*
X323229508Y-255074042D02*
X322658079Y-255074042D01*
X325015222Y-255645471D02*
X324943794Y-255716900D01*
X324943794Y-255716900D02*
X324729508Y-255788328D01*
X324729508Y-255788328D02*
X324586651Y-255788328D01*
X324586651Y-255788328D02*
X324372365Y-255716900D01*
X324372365Y-255716900D02*
X324229508Y-255574042D01*
X324229508Y-255574042D02*
X324158079Y-255431185D01*
X324158079Y-255431185D02*
X324086651Y-255145471D01*
X324086651Y-255145471D02*
X324086651Y-254931185D01*
X324086651Y-254931185D02*
X324158079Y-254645471D01*
X324158079Y-254645471D02*
X324229508Y-254502614D01*
X324229508Y-254502614D02*
X324372365Y-254359757D01*
X324372365Y-254359757D02*
X324586651Y-254288328D01*
X324586651Y-254288328D02*
X324729508Y-254288328D01*
X324729508Y-254288328D02*
X324943794Y-254359757D01*
X324943794Y-254359757D02*
X325015222Y-254431185D01*
X326158079Y-255002614D02*
X326372365Y-255074042D01*
X326372365Y-255074042D02*
X326443794Y-255145471D01*
X326443794Y-255145471D02*
X326515222Y-255288328D01*
X326515222Y-255288328D02*
X326515222Y-255502614D01*
X326515222Y-255502614D02*
X326443794Y-255645471D01*
X326443794Y-255645471D02*
X326372365Y-255716900D01*
X326372365Y-255716900D02*
X326229508Y-255788328D01*
X326229508Y-255788328D02*
X325658079Y-255788328D01*
X325658079Y-255788328D02*
X325658079Y-254288328D01*
X325658079Y-254288328D02*
X326158079Y-254288328D01*
X326158079Y-254288328D02*
X326300937Y-254359757D01*
X326300937Y-254359757D02*
X326372365Y-254431185D01*
X326372365Y-254431185D02*
X326443794Y-254574042D01*
X326443794Y-254574042D02*
X326443794Y-254716900D01*
X326443794Y-254716900D02*
X326372365Y-254859757D01*
X326372365Y-254859757D02*
X326300937Y-254931185D01*
X326300937Y-254931185D02*
X326158079Y-255002614D01*
X326158079Y-255002614D02*
X325658079Y-255002614D01*
X327086651Y-255359757D02*
X327800937Y-255359757D01*
X326943794Y-255788328D02*
X327443794Y-254288328D01*
X327443794Y-254288328D02*
X327943794Y-255788328D01*
D10*
D11*
X292924160Y-238454295D02*
X292924160Y-237654295D01*
X292924160Y-237654295D02*
X293381303Y-238454295D01*
X293381303Y-238454295D02*
X293381303Y-237654295D01*
X293914636Y-237654295D02*
X294067017Y-237654295D01*
X294067017Y-237654295D02*
X294143207Y-237692390D01*
X294143207Y-237692390D02*
X294219398Y-237768580D01*
X294219398Y-237768580D02*
X294257493Y-237920961D01*
X294257493Y-237920961D02*
X294257493Y-238187628D01*
X294257493Y-238187628D02*
X294219398Y-238340009D01*
X294219398Y-238340009D02*
X294143207Y-238416200D01*
X294143207Y-238416200D02*
X294067017Y-238454295D01*
X294067017Y-238454295D02*
X293914636Y-238454295D01*
X293914636Y-238454295D02*
X293838445Y-238416200D01*
X293838445Y-238416200D02*
X293762255Y-238340009D01*
X293762255Y-238340009D02*
X293724159Y-238187628D01*
X293724159Y-238187628D02*
X293724159Y-237920961D01*
X293724159Y-237920961D02*
X293762255Y-237768580D01*
X293762255Y-237768580D02*
X293838445Y-237692390D01*
X293838445Y-237692390D02*
X293914636Y-237654295D01*
X294486064Y-237654295D02*
X294943207Y-237654295D01*
X294714635Y-238454295D02*
X294714635Y-237654295D01*
X295209874Y-238035247D02*
X295476540Y-238035247D01*
X295590826Y-238454295D02*
X295209874Y-238454295D01*
X295209874Y-238454295D02*
X295209874Y-237654295D01*
X295209874Y-237654295D02*
X295590826Y-237654295D01*
X295895588Y-238416200D02*
X296009874Y-238454295D01*
X296009874Y-238454295D02*
X296200350Y-238454295D01*
X296200350Y-238454295D02*
X296276541Y-238416200D01*
X296276541Y-238416200D02*
X296314636Y-238378104D01*
X296314636Y-238378104D02*
X296352731Y-238301914D01*
X296352731Y-238301914D02*
X296352731Y-238225723D01*
X296352731Y-238225723D02*
X296314636Y-238149533D01*
X296314636Y-238149533D02*
X296276541Y-238111438D01*
X296276541Y-238111438D02*
X296200350Y-238073342D01*
X296200350Y-238073342D02*
X296047969Y-238035247D01*
X296047969Y-238035247D02*
X295971779Y-237997152D01*
X295971779Y-237997152D02*
X295933684Y-237959057D01*
X295933684Y-237959057D02*
X295895588Y-237882866D01*
X295895588Y-237882866D02*
X295895588Y-237806676D01*
X295895588Y-237806676D02*
X295933684Y-237730485D01*
X295933684Y-237730485D02*
X295971779Y-237692390D01*
X295971779Y-237692390D02*
X296047969Y-237654295D01*
X296047969Y-237654295D02*
X296238446Y-237654295D01*
X296238446Y-237654295D02*
X296352731Y-237692390D01*
X296695589Y-238378104D02*
X296733684Y-238416200D01*
X296733684Y-238416200D02*
X296695589Y-238454295D01*
X296695589Y-238454295D02*
X296657493Y-238416200D01*
X296657493Y-238416200D02*
X296695589Y-238378104D01*
X296695589Y-238378104D02*
X296695589Y-238454295D01*
X296695589Y-237959057D02*
X296733684Y-237997152D01*
X296733684Y-237997152D02*
X296695589Y-238035247D01*
X296695589Y-238035247D02*
X296657493Y-237997152D01*
X296657493Y-237997152D02*
X296695589Y-237959057D01*
X296695589Y-237959057D02*
X296695589Y-238035247D01*
X297686065Y-237654295D02*
X297686065Y-238301914D01*
X297686065Y-238301914D02*
X297724160Y-238378104D01*
X297724160Y-238378104D02*
X297762255Y-238416200D01*
X297762255Y-238416200D02*
X297838446Y-238454295D01*
X297838446Y-238454295D02*
X297990827Y-238454295D01*
X297990827Y-238454295D02*
X298067017Y-238416200D01*
X298067017Y-238416200D02*
X298105112Y-238378104D01*
X298105112Y-238378104D02*
X298143208Y-238301914D01*
X298143208Y-238301914D02*
X298143208Y-237654295D01*
X298524160Y-238454295D02*
X298524160Y-237654295D01*
X298524160Y-237654295D02*
X298981303Y-238454295D01*
X298981303Y-238454295D02*
X298981303Y-237654295D01*
X299743207Y-238454295D02*
X299362255Y-238454295D01*
X299362255Y-238454295D02*
X299362255Y-237654295D01*
X300009874Y-238035247D02*
X300276540Y-238035247D01*
X300390826Y-238454295D02*
X300009874Y-238454295D01*
X300009874Y-238454295D02*
X300009874Y-237654295D01*
X300009874Y-237654295D02*
X300390826Y-237654295D01*
X300695588Y-238416200D02*
X300809874Y-238454295D01*
X300809874Y-238454295D02*
X301000350Y-238454295D01*
X301000350Y-238454295D02*
X301076541Y-238416200D01*
X301076541Y-238416200D02*
X301114636Y-238378104D01*
X301114636Y-238378104D02*
X301152731Y-238301914D01*
X301152731Y-238301914D02*
X301152731Y-238225723D01*
X301152731Y-238225723D02*
X301114636Y-238149533D01*
X301114636Y-238149533D02*
X301076541Y-238111438D01*
X301076541Y-238111438D02*
X301000350Y-238073342D01*
X301000350Y-238073342D02*
X300847969Y-238035247D01*
X300847969Y-238035247D02*
X300771779Y-237997152D01*
X300771779Y-237997152D02*
X300733684Y-237959057D01*
X300733684Y-237959057D02*
X300695588Y-237882866D01*
X300695588Y-237882866D02*
X300695588Y-237806676D01*
X300695588Y-237806676D02*
X300733684Y-237730485D01*
X300733684Y-237730485D02*
X300771779Y-237692390D01*
X300771779Y-237692390D02*
X300847969Y-237654295D01*
X300847969Y-237654295D02*
X301038446Y-237654295D01*
X301038446Y-237654295D02*
X301152731Y-237692390D01*
X301457493Y-238416200D02*
X301571779Y-238454295D01*
X301571779Y-238454295D02*
X301762255Y-238454295D01*
X301762255Y-238454295D02*
X301838446Y-238416200D01*
X301838446Y-238416200D02*
X301876541Y-238378104D01*
X301876541Y-238378104D02*
X301914636Y-238301914D01*
X301914636Y-238301914D02*
X301914636Y-238225723D01*
X301914636Y-238225723D02*
X301876541Y-238149533D01*
X301876541Y-238149533D02*
X301838446Y-238111438D01*
X301838446Y-238111438D02*
X301762255Y-238073342D01*
X301762255Y-238073342D02*
X301609874Y-238035247D01*
X301609874Y-238035247D02*
X301533684Y-237997152D01*
X301533684Y-237997152D02*
X301495589Y-237959057D01*
X301495589Y-237959057D02*
X301457493Y-237882866D01*
X301457493Y-237882866D02*
X301457493Y-237806676D01*
X301457493Y-237806676D02*
X301495589Y-237730485D01*
X301495589Y-237730485D02*
X301533684Y-237692390D01*
X301533684Y-237692390D02*
X301609874Y-237654295D01*
X301609874Y-237654295D02*
X301800351Y-237654295D01*
X301800351Y-237654295D02*
X301914636Y-237692390D01*
X303019399Y-237654295D02*
X303171780Y-237654295D01*
X303171780Y-237654295D02*
X303247970Y-237692390D01*
X303247970Y-237692390D02*
X303324161Y-237768580D01*
X303324161Y-237768580D02*
X303362256Y-237920961D01*
X303362256Y-237920961D02*
X303362256Y-238187628D01*
X303362256Y-238187628D02*
X303324161Y-238340009D01*
X303324161Y-238340009D02*
X303247970Y-238416200D01*
X303247970Y-238416200D02*
X303171780Y-238454295D01*
X303171780Y-238454295D02*
X303019399Y-238454295D01*
X303019399Y-238454295D02*
X302943208Y-238416200D01*
X302943208Y-238416200D02*
X302867018Y-238340009D01*
X302867018Y-238340009D02*
X302828922Y-238187628D01*
X302828922Y-238187628D02*
X302828922Y-237920961D01*
X302828922Y-237920961D02*
X302867018Y-237768580D01*
X302867018Y-237768580D02*
X302943208Y-237692390D01*
X302943208Y-237692390D02*
X303019399Y-237654295D01*
X303590827Y-237654295D02*
X304047970Y-237654295D01*
X303819398Y-238454295D02*
X303819398Y-237654295D01*
X304314637Y-238454295D02*
X304314637Y-237654295D01*
X304314637Y-238035247D02*
X304771780Y-238035247D01*
X304771780Y-238454295D02*
X304771780Y-237654295D01*
X305152732Y-238035247D02*
X305419398Y-238035247D01*
X305533684Y-238454295D02*
X305152732Y-238454295D01*
X305152732Y-238454295D02*
X305152732Y-237654295D01*
X305152732Y-237654295D02*
X305533684Y-237654295D01*
X306333685Y-238454295D02*
X306067018Y-238073342D01*
X305876542Y-238454295D02*
X305876542Y-237654295D01*
X305876542Y-237654295D02*
X306181304Y-237654295D01*
X306181304Y-237654295D02*
X306257494Y-237692390D01*
X306257494Y-237692390D02*
X306295589Y-237730485D01*
X306295589Y-237730485D02*
X306333685Y-237806676D01*
X306333685Y-237806676D02*
X306333685Y-237920961D01*
X306333685Y-237920961D02*
X306295589Y-237997152D01*
X306295589Y-237997152D02*
X306257494Y-238035247D01*
X306257494Y-238035247D02*
X306181304Y-238073342D01*
X306181304Y-238073342D02*
X305876542Y-238073342D01*
X306600351Y-237654295D02*
X306790827Y-238454295D01*
X306790827Y-238454295D02*
X306943208Y-237882866D01*
X306943208Y-237882866D02*
X307095589Y-238454295D01*
X307095589Y-238454295D02*
X307286066Y-237654295D01*
X307590828Y-238454295D02*
X307590828Y-237654295D01*
X307933684Y-238416200D02*
X308047970Y-238454295D01*
X308047970Y-238454295D02*
X308238446Y-238454295D01*
X308238446Y-238454295D02*
X308314637Y-238416200D01*
X308314637Y-238416200D02*
X308352732Y-238378104D01*
X308352732Y-238378104D02*
X308390827Y-238301914D01*
X308390827Y-238301914D02*
X308390827Y-238225723D01*
X308390827Y-238225723D02*
X308352732Y-238149533D01*
X308352732Y-238149533D02*
X308314637Y-238111438D01*
X308314637Y-238111438D02*
X308238446Y-238073342D01*
X308238446Y-238073342D02*
X308086065Y-238035247D01*
X308086065Y-238035247D02*
X308009875Y-237997152D01*
X308009875Y-237997152D02*
X307971780Y-237959057D01*
X307971780Y-237959057D02*
X307933684Y-237882866D01*
X307933684Y-237882866D02*
X307933684Y-237806676D01*
X307933684Y-237806676D02*
X307971780Y-237730485D01*
X307971780Y-237730485D02*
X308009875Y-237692390D01*
X308009875Y-237692390D02*
X308086065Y-237654295D01*
X308086065Y-237654295D02*
X308276542Y-237654295D01*
X308276542Y-237654295D02*
X308390827Y-237692390D01*
X308733685Y-238035247D02*
X309000351Y-238035247D01*
X309114637Y-238454295D02*
X308733685Y-238454295D01*
X308733685Y-238454295D02*
X308733685Y-237654295D01*
X308733685Y-237654295D02*
X309114637Y-237654295D01*
X310028923Y-238416200D02*
X310143209Y-238454295D01*
X310143209Y-238454295D02*
X310333685Y-238454295D01*
X310333685Y-238454295D02*
X310409876Y-238416200D01*
X310409876Y-238416200D02*
X310447971Y-238378104D01*
X310447971Y-238378104D02*
X310486066Y-238301914D01*
X310486066Y-238301914D02*
X310486066Y-238225723D01*
X310486066Y-238225723D02*
X310447971Y-238149533D01*
X310447971Y-238149533D02*
X310409876Y-238111438D01*
X310409876Y-238111438D02*
X310333685Y-238073342D01*
X310333685Y-238073342D02*
X310181304Y-238035247D01*
X310181304Y-238035247D02*
X310105114Y-237997152D01*
X310105114Y-237997152D02*
X310067019Y-237959057D01*
X310067019Y-237959057D02*
X310028923Y-237882866D01*
X310028923Y-237882866D02*
X310028923Y-237806676D01*
X310028923Y-237806676D02*
X310067019Y-237730485D01*
X310067019Y-237730485D02*
X310105114Y-237692390D01*
X310105114Y-237692390D02*
X310181304Y-237654295D01*
X310181304Y-237654295D02*
X310371781Y-237654295D01*
X310371781Y-237654295D02*
X310486066Y-237692390D01*
X310828924Y-238454295D02*
X310828924Y-237654295D01*
X310828924Y-237654295D02*
X311133686Y-237654295D01*
X311133686Y-237654295D02*
X311209876Y-237692390D01*
X311209876Y-237692390D02*
X311247971Y-237730485D01*
X311247971Y-237730485D02*
X311286067Y-237806676D01*
X311286067Y-237806676D02*
X311286067Y-237920961D01*
X311286067Y-237920961D02*
X311247971Y-237997152D01*
X311247971Y-237997152D02*
X311209876Y-238035247D01*
X311209876Y-238035247D02*
X311133686Y-238073342D01*
X311133686Y-238073342D02*
X310828924Y-238073342D01*
X311628924Y-238035247D02*
X311895590Y-238035247D01*
X312009876Y-238454295D02*
X311628924Y-238454295D01*
X311628924Y-238454295D02*
X311628924Y-237654295D01*
X311628924Y-237654295D02*
X312009876Y-237654295D01*
X312809877Y-238378104D02*
X312771781Y-238416200D01*
X312771781Y-238416200D02*
X312657496Y-238454295D01*
X312657496Y-238454295D02*
X312581305Y-238454295D01*
X312581305Y-238454295D02*
X312467019Y-238416200D01*
X312467019Y-238416200D02*
X312390829Y-238340009D01*
X312390829Y-238340009D02*
X312352734Y-238263819D01*
X312352734Y-238263819D02*
X312314638Y-238111438D01*
X312314638Y-238111438D02*
X312314638Y-237997152D01*
X312314638Y-237997152D02*
X312352734Y-237844771D01*
X312352734Y-237844771D02*
X312390829Y-237768580D01*
X312390829Y-237768580D02*
X312467019Y-237692390D01*
X312467019Y-237692390D02*
X312581305Y-237654295D01*
X312581305Y-237654295D02*
X312657496Y-237654295D01*
X312657496Y-237654295D02*
X312771781Y-237692390D01*
X312771781Y-237692390D02*
X312809877Y-237730485D01*
X313152734Y-238454295D02*
X313152734Y-237654295D01*
X313800352Y-238035247D02*
X313533686Y-238035247D01*
X313533686Y-238454295D02*
X313533686Y-237654295D01*
X313533686Y-237654295D02*
X313914638Y-237654295D01*
X314219400Y-238454295D02*
X314219400Y-237654295D01*
X314600352Y-238035247D02*
X314867018Y-238035247D01*
X314981304Y-238454295D02*
X314600352Y-238454295D01*
X314600352Y-238454295D02*
X314600352Y-237654295D01*
X314600352Y-237654295D02*
X314981304Y-237654295D01*
X315324162Y-238454295D02*
X315324162Y-237654295D01*
X315324162Y-237654295D02*
X315514638Y-237654295D01*
X315514638Y-237654295D02*
X315628924Y-237692390D01*
X315628924Y-237692390D02*
X315705114Y-237768580D01*
X315705114Y-237768580D02*
X315743209Y-237844771D01*
X315743209Y-237844771D02*
X315781305Y-237997152D01*
X315781305Y-237997152D02*
X315781305Y-238111438D01*
X315781305Y-238111438D02*
X315743209Y-238263819D01*
X315743209Y-238263819D02*
X315705114Y-238340009D01*
X315705114Y-238340009D02*
X315628924Y-238416200D01*
X315628924Y-238416200D02*
X315514638Y-238454295D01*
X315514638Y-238454295D02*
X315324162Y-238454295D01*
D10*
D11*
D10*
D11*
D10*
D11*
D10*
D11*
D10*
D11*
D10*
D11*
X12700000Y-12700000D02*
X419100000Y-12700000D01*
X419100000Y-266700000D01*
X12700000Y-266700000D01*
X12700000Y-12700000D01*
D10*
D11*
X15240000Y-15240000D02*
X416560000Y-15240000D01*
X416560000Y-264160000D01*
X15240000Y-264160000D01*
X15240000Y-15240000D01*
D10*
D11*
X15240000Y-264160000D02*
X12700000Y-266700000D01*
D10*
D11*
X416560000Y-264160000D02*
X419100000Y-266700000D01*
D10*
D11*
X416560000Y-15240000D02*
X419100000Y-12700000D01*
D10*
D11*
X15240000Y-15240000D02*
X12700000Y-12700000D01*
D10*
D11*
X292100000Y-27940000D02*
X292100000Y-15240000D01*
D10*
D11*
X292100000Y-251460000D02*
X292100000Y-236855000D01*
D10*
D11*
X416560000Y-236855000D02*
X292100000Y-236855000D01*
D10*
D11*
X292100000Y-257810000D02*
X416560000Y-257810000D01*
D10*
D11*
X292100000Y-251460000D02*
X416560000Y-251460000D01*
D10*
D11*
X410210000Y-257810000D02*
X410210000Y-264160000D01*
D10*
D11*
X393065000Y-257810000D02*
X393065000Y-264160000D01*
D10*
D11*
X386715000Y-257810000D02*
X386715000Y-264160000D01*
D10*
D11*
X401955000Y-251460000D02*
X401955000Y-257810000D01*
D10*
D11*
X386715000Y-251460000D02*
X386715000Y-257810000D01*
D10*
D11*
X376555000Y-251460000D02*
X376555000Y-257810000D01*
D10*
D11*
X376555000Y-257810000D02*
X376555000Y-264160000D01*
D10*
D11*
D10*
D11*
X416560000Y-21590000D02*
X292100000Y-21590000D01*
D10*
D11*
X345294285Y-19101128D02*
X344794285Y-18386842D01*
X344437142Y-19101128D02*
X344437142Y-17601128D01*
X344437142Y-17601128D02*
X345008571Y-17601128D01*
X345008571Y-17601128D02*
X345151428Y-17672557D01*
X345151428Y-17672557D02*
X345222857Y-17743985D01*
X345222857Y-17743985D02*
X345294285Y-17886842D01*
X345294285Y-17886842D02*
X345294285Y-18101128D01*
X345294285Y-18101128D02*
X345222857Y-18243985D01*
X345222857Y-18243985D02*
X345151428Y-18315414D01*
X345151428Y-18315414D02*
X345008571Y-18386842D01*
X345008571Y-18386842D02*
X344437142Y-18386842D01*
X345937142Y-18315414D02*
X346437142Y-18315414D01*
X346651428Y-19101128D02*
X345937142Y-19101128D01*
X345937142Y-19101128D02*
X345937142Y-17601128D01*
X345937142Y-17601128D02*
X346651428Y-17601128D01*
X347080000Y-17601128D02*
X347580000Y-19101128D01*
X347580000Y-19101128D02*
X348080000Y-17601128D01*
X348579999Y-19101128D02*
X348579999Y-17601128D01*
X349222857Y-19029700D02*
X349437143Y-19101128D01*
X349437143Y-19101128D02*
X349794285Y-19101128D01*
X349794285Y-19101128D02*
X349937143Y-19029700D01*
X349937143Y-19029700D02*
X350008571Y-18958271D01*
X350008571Y-18958271D02*
X350080000Y-18815414D01*
X350080000Y-18815414D02*
X350080000Y-18672557D01*
X350080000Y-18672557D02*
X350008571Y-18529700D01*
X350008571Y-18529700D02*
X349937143Y-18458271D01*
X349937143Y-18458271D02*
X349794285Y-18386842D01*
X349794285Y-18386842D02*
X349508571Y-18315414D01*
X349508571Y-18315414D02*
X349365714Y-18243985D01*
X349365714Y-18243985D02*
X349294285Y-18172557D01*
X349294285Y-18172557D02*
X349222857Y-18029700D01*
X349222857Y-18029700D02*
X349222857Y-17886842D01*
X349222857Y-17886842D02*
X349294285Y-17743985D01*
X349294285Y-17743985D02*
X349365714Y-17672557D01*
X349365714Y-17672557D02*
X349508571Y-17601128D01*
X349508571Y-17601128D02*
X349865714Y-17601128D01*
X349865714Y-17601128D02*
X350080000Y-17672557D01*
X350722856Y-19101128D02*
X350722856Y-17601128D01*
X351722857Y-17601128D02*
X352008571Y-17601128D01*
X352008571Y-17601128D02*
X352151428Y-17672557D01*
X352151428Y-17672557D02*
X352294285Y-17815414D01*
X352294285Y-17815414D02*
X352365714Y-18101128D01*
X352365714Y-18101128D02*
X352365714Y-18601128D01*
X352365714Y-18601128D02*
X352294285Y-18886842D01*
X352294285Y-18886842D02*
X352151428Y-19029700D01*
X352151428Y-19029700D02*
X352008571Y-19101128D01*
X352008571Y-19101128D02*
X351722857Y-19101128D01*
X351722857Y-19101128D02*
X351580000Y-19029700D01*
X351580000Y-19029700D02*
X351437142Y-18886842D01*
X351437142Y-18886842D02*
X351365714Y-18601128D01*
X351365714Y-18601128D02*
X351365714Y-18101128D01*
X351365714Y-18101128D02*
X351437142Y-17815414D01*
X351437142Y-17815414D02*
X351580000Y-17672557D01*
X351580000Y-17672557D02*
X351722857Y-17601128D01*
X353008571Y-19101128D02*
X353008571Y-17601128D01*
X353008571Y-17601128D02*
X353865714Y-19101128D01*
X353865714Y-19101128D02*
X353865714Y-17601128D01*
X355722857Y-19101128D02*
X355722857Y-17601128D01*
X355722857Y-18315414D02*
X356580000Y-18315414D01*
X356580000Y-19101128D02*
X356580000Y-17601128D01*
X357294286Y-19101128D02*
X357294286Y-17601128D01*
X357937144Y-19029700D02*
X358151430Y-19101128D01*
X358151430Y-19101128D02*
X358508572Y-19101128D01*
X358508572Y-19101128D02*
X358651430Y-19029700D01*
X358651430Y-19029700D02*
X358722858Y-18958271D01*
X358722858Y-18958271D02*
X358794287Y-18815414D01*
X358794287Y-18815414D02*
X358794287Y-18672557D01*
X358794287Y-18672557D02*
X358722858Y-18529700D01*
X358722858Y-18529700D02*
X358651430Y-18458271D01*
X358651430Y-18458271D02*
X358508572Y-18386842D01*
X358508572Y-18386842D02*
X358222858Y-18315414D01*
X358222858Y-18315414D02*
X358080001Y-18243985D01*
X358080001Y-18243985D02*
X358008572Y-18172557D01*
X358008572Y-18172557D02*
X357937144Y-18029700D01*
X357937144Y-18029700D02*
X357937144Y-17886842D01*
X357937144Y-17886842D02*
X358008572Y-17743985D01*
X358008572Y-17743985D02*
X358080001Y-17672557D01*
X358080001Y-17672557D02*
X358222858Y-17601128D01*
X358222858Y-17601128D02*
X358580001Y-17601128D01*
X358580001Y-17601128D02*
X358794287Y-17672557D01*
X359222858Y-17601128D02*
X360080001Y-17601128D01*
X359651429Y-19101128D02*
X359651429Y-17601128D01*
X360865715Y-17601128D02*
X361151429Y-17601128D01*
X361151429Y-17601128D02*
X361294286Y-17672557D01*
X361294286Y-17672557D02*
X361437143Y-17815414D01*
X361437143Y-17815414D02*
X361508572Y-18101128D01*
X361508572Y-18101128D02*
X361508572Y-18601128D01*
X361508572Y-18601128D02*
X361437143Y-18886842D01*
X361437143Y-18886842D02*
X361294286Y-19029700D01*
X361294286Y-19029700D02*
X361151429Y-19101128D01*
X361151429Y-19101128D02*
X360865715Y-19101128D01*
X360865715Y-19101128D02*
X360722858Y-19029700D01*
X360722858Y-19029700D02*
X360580000Y-18886842D01*
X360580000Y-18886842D02*
X360508572Y-18601128D01*
X360508572Y-18601128D02*
X360508572Y-18101128D01*
X360508572Y-18101128D02*
X360580000Y-17815414D01*
X360580000Y-17815414D02*
X360722858Y-17672557D01*
X360722858Y-17672557D02*
X360865715Y-17601128D01*
X363008572Y-19101128D02*
X362508572Y-18386842D01*
X362151429Y-19101128D02*
X362151429Y-17601128D01*
X362151429Y-17601128D02*
X362722858Y-17601128D01*
X362722858Y-17601128D02*
X362865715Y-17672557D01*
X362865715Y-17672557D02*
X362937144Y-17743985D01*
X362937144Y-17743985D02*
X363008572Y-17886842D01*
X363008572Y-17886842D02*
X363008572Y-18101128D01*
X363008572Y-18101128D02*
X362937144Y-18243985D01*
X362937144Y-18243985D02*
X362865715Y-18315414D01*
X362865715Y-18315414D02*
X362722858Y-18386842D01*
X362722858Y-18386842D02*
X362151429Y-18386842D01*
X363937144Y-18386842D02*
X363937144Y-19101128D01*
X363437144Y-17601128D02*
X363937144Y-18386842D01*
X363937144Y-18386842D02*
X364437144Y-17601128D01*
D10*
D11*
X416560000Y-27940000D02*
X292100000Y-27940000D01*
D10*
D11*
X304800000Y-21590000D02*
X304800000Y-27940000D01*
D10*
D11*
X292100000Y-264160000D02*
X292100000Y-251460000D01*
D10*
D11*
X296128571Y-25451128D02*
X295628571Y-24736842D01*
X295271428Y-25451128D02*
X295271428Y-23951128D01*
X295271428Y-23951128D02*
X295842857Y-23951128D01*
X295842857Y-23951128D02*
X295985714Y-24022557D01*
X295985714Y-24022557D02*
X296057143Y-24093985D01*
X296057143Y-24093985D02*
X296128571Y-24236842D01*
X296128571Y-24236842D02*
X296128571Y-24451128D01*
X296128571Y-24451128D02*
X296057143Y-24593985D01*
X296057143Y-24593985D02*
X295985714Y-24665414D01*
X295985714Y-24665414D02*
X295842857Y-24736842D01*
X295842857Y-24736842D02*
X295271428Y-24736842D01*
X297342857Y-25379700D02*
X297200000Y-25451128D01*
X297200000Y-25451128D02*
X296914286Y-25451128D01*
X296914286Y-25451128D02*
X296771428Y-25379700D01*
X296771428Y-25379700D02*
X296700000Y-25236842D01*
X296700000Y-25236842D02*
X296700000Y-24665414D01*
X296700000Y-24665414D02*
X296771428Y-24522557D01*
X296771428Y-24522557D02*
X296914286Y-24451128D01*
X296914286Y-24451128D02*
X297200000Y-24451128D01*
X297200000Y-24451128D02*
X297342857Y-24522557D01*
X297342857Y-24522557D02*
X297414286Y-24665414D01*
X297414286Y-24665414D02*
X297414286Y-24808271D01*
X297414286Y-24808271D02*
X296700000Y-24951128D01*
X297914285Y-24451128D02*
X298271428Y-25451128D01*
X298271428Y-25451128D02*
X298628571Y-24451128D01*
X299199999Y-25308271D02*
X299271428Y-25379700D01*
X299271428Y-25379700D02*
X299199999Y-25451128D01*
X299199999Y-25451128D02*
X299128571Y-25379700D01*
X299128571Y-25379700D02*
X299199999Y-25308271D01*
X299199999Y-25308271D02*
X299199999Y-25451128D01*
X300985714Y-25022557D02*
X301700000Y-25022557D01*
X300842857Y-25451128D02*
X301342857Y-23951128D01*
X301342857Y-23951128D02*
X301842857Y-25451128D01*
D10*
D11*
X15240000Y-139700000D02*
X12700000Y-139700000D01*
D10*
D11*
X419100000Y-139700000D02*
X416560000Y-139700000D01*
D10*
D11*
X215900000Y-266700000D02*
X215900000Y-264160000D01*
D10*
D11*
X416560000Y-203200000D02*
X419100000Y-203200000D01*
D10*
D11*
X12700000Y-203200000D02*
X15240000Y-203200000D01*
D10*
D11*
X419100000Y-76200000D02*
X416560000Y-76200000D01*
D10*
D11*
X15240000Y-76200000D02*
X12700000Y-76200000D01*
D10*
D11*
X115570000Y-266700000D02*
X115570000Y-264160000D01*
D10*
D11*
X316230000Y-266700000D02*
X316230000Y-264160000D01*
D10*
D11*
X115570000Y-15240000D02*
X115570000Y-12700000D01*
D10*
D11*
X215900000Y-15240000D02*
X215900000Y-12700000D01*
D10*
D11*
X316230000Y-15240000D02*
X316230000Y-12700000D01*
D10*
D11*
X365402857Y-265687557D02*
X366117143Y-265687557D01*
X365260000Y-266116128D02*
X365760000Y-264616128D01*
X365760000Y-264616128D02*
X366260000Y-266116128D01*
D10*
D11*
X265537142Y-265330414D02*
X265751428Y-265401842D01*
X265751428Y-265401842D02*
X265822857Y-265473271D01*
X265822857Y-265473271D02*
X265894285Y-265616128D01*
X265894285Y-265616128D02*
X265894285Y-265830414D01*
X265894285Y-265830414D02*
X265822857Y-265973271D01*
X265822857Y-265973271D02*
X265751428Y-266044700D01*
X265751428Y-266044700D02*
X265608571Y-266116128D01*
X265608571Y-266116128D02*
X265037142Y-266116128D01*
X265037142Y-266116128D02*
X265037142Y-264616128D01*
X265037142Y-264616128D02*
X265537142Y-264616128D01*
X265537142Y-264616128D02*
X265680000Y-264687557D01*
X265680000Y-264687557D02*
X265751428Y-264758985D01*
X265751428Y-264758985D02*
X265822857Y-264901842D01*
X265822857Y-264901842D02*
X265822857Y-265044700D01*
X265822857Y-265044700D02*
X265751428Y-265187557D01*
X265751428Y-265187557D02*
X265680000Y-265258985D01*
X265680000Y-265258985D02*
X265537142Y-265330414D01*
X265537142Y-265330414D02*
X265037142Y-265330414D01*
D10*
D11*
X165564285Y-265973271D02*
X165492857Y-266044700D01*
X165492857Y-266044700D02*
X165278571Y-266116128D01*
X165278571Y-266116128D02*
X165135714Y-266116128D01*
X165135714Y-266116128D02*
X164921428Y-266044700D01*
X164921428Y-266044700D02*
X164778571Y-265901842D01*
X164778571Y-265901842D02*
X164707142Y-265758985D01*
X164707142Y-265758985D02*
X164635714Y-265473271D01*
X164635714Y-265473271D02*
X164635714Y-265258985D01*
X164635714Y-265258985D02*
X164707142Y-264973271D01*
X164707142Y-264973271D02*
X164778571Y-264830414D01*
X164778571Y-264830414D02*
X164921428Y-264687557D01*
X164921428Y-264687557D02*
X165135714Y-264616128D01*
X165135714Y-264616128D02*
X165278571Y-264616128D01*
X165278571Y-264616128D02*
X165492857Y-264687557D01*
X165492857Y-264687557D02*
X165564285Y-264758985D01*
D10*
D11*
X64377142Y-266116128D02*
X64377142Y-264616128D01*
X64377142Y-264616128D02*
X64734285Y-264616128D01*
X64734285Y-264616128D02*
X64948571Y-264687557D01*
X64948571Y-264687557D02*
X65091428Y-264830414D01*
X65091428Y-264830414D02*
X65162857Y-264973271D01*
X65162857Y-264973271D02*
X65234285Y-265258985D01*
X65234285Y-265258985D02*
X65234285Y-265473271D01*
X65234285Y-265473271D02*
X65162857Y-265758985D01*
X65162857Y-265758985D02*
X65091428Y-265901842D01*
X65091428Y-265901842D02*
X64948571Y-266044700D01*
X64948571Y-266044700D02*
X64734285Y-266116128D01*
X64734285Y-266116128D02*
X64377142Y-266116128D01*
D10*
D11*
X366037857Y-14227557D02*
X366752143Y-14227557D01*
X365895000Y-14656128D02*
X366395000Y-13156128D01*
X366395000Y-13156128D02*
X366895000Y-14656128D01*
D10*
D11*
X65012142Y-14656128D02*
X65012142Y-13156128D01*
X65012142Y-13156128D02*
X65369285Y-13156128D01*
X65369285Y-13156128D02*
X65583571Y-13227557D01*
X65583571Y-13227557D02*
X65726428Y-13370414D01*
X65726428Y-13370414D02*
X65797857Y-13513271D01*
X65797857Y-13513271D02*
X65869285Y-13798985D01*
X65869285Y-13798985D02*
X65869285Y-14013271D01*
X65869285Y-14013271D02*
X65797857Y-14298985D01*
X65797857Y-14298985D02*
X65726428Y-14441842D01*
X65726428Y-14441842D02*
X65583571Y-14584700D01*
X65583571Y-14584700D02*
X65369285Y-14656128D01*
X65369285Y-14656128D02*
X65012142Y-14656128D01*
D10*
D11*
X266172142Y-13870414D02*
X266386428Y-13941842D01*
X266386428Y-13941842D02*
X266457857Y-14013271D01*
X266457857Y-14013271D02*
X266529285Y-14156128D01*
X266529285Y-14156128D02*
X266529285Y-14370414D01*
X266529285Y-14370414D02*
X266457857Y-14513271D01*
X266457857Y-14513271D02*
X266386428Y-14584700D01*
X266386428Y-14584700D02*
X266243571Y-14656128D01*
X266243571Y-14656128D02*
X265672142Y-14656128D01*
X265672142Y-14656128D02*
X265672142Y-13156128D01*
X265672142Y-13156128D02*
X266172142Y-13156128D01*
X266172142Y-13156128D02*
X266315000Y-13227557D01*
X266315000Y-13227557D02*
X266386428Y-13298985D01*
X266386428Y-13298985D02*
X266457857Y-13441842D01*
X266457857Y-13441842D02*
X266457857Y-13584700D01*
X266457857Y-13584700D02*
X266386428Y-13727557D01*
X266386428Y-13727557D02*
X266315000Y-13798985D01*
X266315000Y-13798985D02*
X266172142Y-13870414D01*
X266172142Y-13870414D02*
X265672142Y-13870414D01*
D10*
D11*
X166199285Y-14513271D02*
X166127857Y-14584700D01*
X166127857Y-14584700D02*
X165913571Y-14656128D01*
X165913571Y-14656128D02*
X165770714Y-14656128D01*
X165770714Y-14656128D02*
X165556428Y-14584700D01*
X165556428Y-14584700D02*
X165413571Y-14441842D01*
X165413571Y-14441842D02*
X165342142Y-14298985D01*
X165342142Y-14298985D02*
X165270714Y-14013271D01*
X165270714Y-14013271D02*
X165270714Y-13798985D01*
X165270714Y-13798985D02*
X165342142Y-13513271D01*
X165342142Y-13513271D02*
X165413571Y-13370414D01*
X165413571Y-13370414D02*
X165556428Y-13227557D01*
X165556428Y-13227557D02*
X165770714Y-13156128D01*
X165770714Y-13156128D02*
X165913571Y-13156128D01*
X165913571Y-13156128D02*
X166127857Y-13227557D01*
X166127857Y-13227557D02*
X166199285Y-13298985D01*
D10*
D11*
X414382267Y-268424819D02*
X413810839Y-268424819D01*
X414096553Y-268424819D02*
X414096553Y-267424819D01*
X414096553Y-267424819D02*
X414001315Y-267567676D01*
X414001315Y-267567676D02*
X413906077Y-267662914D01*
X413906077Y-267662914D02*
X413810839Y-267710533D01*
X415334648Y-268424819D02*
X414763220Y-268424819D01*
X415048934Y-268424819D02*
X415048934Y-267424819D01*
X415048934Y-267424819D02*
X414953696Y-267567676D01*
X414953696Y-267567676D02*
X414858458Y-267662914D01*
X414858458Y-267662914D02*
X414763220Y-267710533D01*
X415667982Y-268424819D02*
X416191791Y-267758152D01*
X415667982Y-267758152D02*
X416191791Y-268424819D01*
X417096553Y-268424819D02*
X416525125Y-268424819D01*
X416810839Y-268424819D02*
X416810839Y-267424819D01*
X416810839Y-267424819D02*
X416715601Y-267567676D01*
X416715601Y-267567676D02*
X416620363Y-267662914D01*
X416620363Y-267662914D02*
X416525125Y-267710533D01*
X417429887Y-267424819D02*
X418096553Y-267424819D01*
X418096553Y-267424819D02*
X417667982Y-268424819D01*
X418429887Y-267424819D02*
X418429887Y-267615295D01*
X418810839Y-267424819D02*
X418810839Y-267615295D01*
D10*
D11*
X14255715Y-45406128D02*
X14255715Y-46406128D01*
X13898572Y-44834700D02*
X13541429Y-45906128D01*
X13541429Y-45906128D02*
X14470000Y-45906128D01*
D10*
D11*
X13470000Y-105866128D02*
X14398572Y-105866128D01*
X14398572Y-105866128D02*
X13898572Y-106437557D01*
X13898572Y-106437557D02*
X14112857Y-106437557D01*
X14112857Y-106437557D02*
X14255715Y-106508985D01*
X14255715Y-106508985D02*
X14327143Y-106580414D01*
X14327143Y-106580414D02*
X14398572Y-106723271D01*
X14398572Y-106723271D02*
X14398572Y-107080414D01*
X14398572Y-107080414D02*
X14327143Y-107223271D01*
X14327143Y-107223271D02*
X14255715Y-107294700D01*
X14255715Y-107294700D02*
X14112857Y-107366128D01*
X14112857Y-107366128D02*
X13684286Y-107366128D01*
X13684286Y-107366128D02*
X13541429Y-107294700D01*
X13541429Y-107294700D02*
X13470000Y-107223271D01*
D10*
D11*
X13541429Y-169508985D02*
X13612857Y-169437557D01*
X13612857Y-169437557D02*
X13755715Y-169366128D01*
X13755715Y-169366128D02*
X14112857Y-169366128D01*
X14112857Y-169366128D02*
X14255715Y-169437557D01*
X14255715Y-169437557D02*
X14327143Y-169508985D01*
X14327143Y-169508985D02*
X14398572Y-169651842D01*
X14398572Y-169651842D02*
X14398572Y-169794700D01*
X14398572Y-169794700D02*
X14327143Y-170008985D01*
X14327143Y-170008985D02*
X13470000Y-170866128D01*
X13470000Y-170866128D02*
X14398572Y-170866128D01*
D10*
D11*
X14398572Y-234366128D02*
X13541429Y-234366128D01*
X13970000Y-234366128D02*
X13970000Y-232866128D01*
X13970000Y-232866128D02*
X13827143Y-233080414D01*
X13827143Y-233080414D02*
X13684286Y-233223271D01*
X13684286Y-233223271D02*
X13541429Y-233294700D01*
D10*
D11*
X417330000Y-105866128D02*
X418258572Y-105866128D01*
X418258572Y-105866128D02*
X417758572Y-106437557D01*
X417758572Y-106437557D02*
X417972857Y-106437557D01*
X417972857Y-106437557D02*
X418115715Y-106508985D01*
X418115715Y-106508985D02*
X418187143Y-106580414D01*
X418187143Y-106580414D02*
X418258572Y-106723271D01*
X418258572Y-106723271D02*
X418258572Y-107080414D01*
X418258572Y-107080414D02*
X418187143Y-107223271D01*
X418187143Y-107223271D02*
X418115715Y-107294700D01*
X418115715Y-107294700D02*
X417972857Y-107366128D01*
X417972857Y-107366128D02*
X417544286Y-107366128D01*
X417544286Y-107366128D02*
X417401429Y-107294700D01*
X417401429Y-107294700D02*
X417330000Y-107223271D01*
D10*
D11*
X418258572Y-234366128D02*
X417401429Y-234366128D01*
X417830000Y-234366128D02*
X417830000Y-232866128D01*
X417830000Y-232866128D02*
X417687143Y-233080414D01*
X417687143Y-233080414D02*
X417544286Y-233223271D01*
X417544286Y-233223271D02*
X417401429Y-233294700D01*
D10*
D11*
X418115715Y-45406128D02*
X418115715Y-46406128D01*
X417758572Y-44834700D02*
X417401429Y-45906128D01*
X417401429Y-45906128D02*
X418330000Y-45906128D01*
D10*
D11*
X417401429Y-169508985D02*
X417472857Y-169437557D01*
X417472857Y-169437557D02*
X417615715Y-169366128D01*
X417615715Y-169366128D02*
X417972857Y-169366128D01*
X417972857Y-169366128D02*
X418115715Y-169437557D01*
X418115715Y-169437557D02*
X418187143Y-169508985D01*
X418187143Y-169508985D02*
X418258572Y-169651842D01*
X418258572Y-169651842D02*
X418258572Y-169794700D01*
X418258572Y-169794700D02*
X418187143Y-170008985D01*
X418187143Y-170008985D02*
X417330000Y-170866128D01*
X417330000Y-170866128D02*
X418258572Y-170866128D01*
D13*
%TO.C,NT301*%
X256545000Y-136270000D02*
X254645000Y-136270000D01*
X254645000Y-136270000D02*
X254645000Y-135570000D01*
X254645000Y-135570000D02*
X256545000Y-135570000D01*
X256545000Y-135570000D02*
X256545000Y-136270000D01*
G36*
X256545000Y-136270000D02*
G01*
X254645000Y-136270000D01*
X254645000Y-135570000D01*
X256545000Y-135570000D01*
X256545000Y-136270000D01*
G37*
%TD*%
D14*
%TO.N,/MICROCONTROLLER/V_FTSW_RAW_B*%
%TO.C,J401*%
X239720000Y-109670000D03*
%TO.N,+3V3*%
X241720000Y-109670000D03*
%TD*%
D15*
%TO.N,GND*%
%TO.C,J301*%
X261520000Y-115932100D03*
D16*
%TO.N,/POWER/DC_IN_RAW*%
X261520000Y-109932100D03*
D17*
%TO.N,GND*%
X257020000Y-108932100D03*
X266020000Y-108932100D03*
%TD*%
D14*
%TO.N,/MICROCONTROLLER/V_LEDA*%
%TO.C,J408*%
X230720000Y-109670000D03*
%TO.N,+3V3*%
X232720000Y-109670000D03*
%TD*%
%TO.N,/MICROCONTROLLER/V_FTSW_RAW_A*%
%TO.C,J406*%
X221720000Y-109670000D03*
%TO.N,+3V3*%
X223720000Y-109670000D03*
%TD*%
D18*
%TO.N,GND*%
%TO.C,J203*%
X215720000Y-114020000D03*
X199720000Y-114020000D03*
X215720000Y-108170000D03*
X199720000Y-108170000D03*
%TO.N,/AUDIO/AUDIO_OUT*%
X215720000Y-119870000D03*
%TO.N,GND*%
X199720000Y-119870000D03*
%TD*%
D14*
%TO.N,/MICROCONTROLLER/V_LEDB*%
%TO.C,J404*%
X248720000Y-109670000D03*
%TO.N,+3V3*%
X250720000Y-109670000D03*
%TD*%
D18*
%TO.N,GND*%
%TO.C,J201*%
X193720000Y-114020000D03*
X177720000Y-114020000D03*
X193720000Y-108170000D03*
X177720000Y-108170000D03*
%TO.N,/AUDIO/AUDIO_IN-*%
X193720000Y-119870000D03*
%TO.N,GND*%
X177720000Y-119870000D03*
%TD*%
D19*
%TO.N,GND1*%
%TO.C,NT301*%
X256220000Y-135920000D03*
X254970000Y-135920000D03*
%TO.N,GND*%
X255595000Y-135920000D03*
%TD*%
D20*
%TO.N,DC_IN*%
X261620000Y-124495000D03*
X261620000Y-123945000D03*
X248270000Y-134020000D03*
X261620000Y-125045000D03*
X250745000Y-133470000D03*
X248270000Y-134570000D03*
X250745000Y-134570000D03*
X257170000Y-130045000D03*
X250745000Y-134020000D03*
X248270000Y-133470000D03*
%TO.N,+9V*%
X252270000Y-157470000D03*
X196145000Y-155120000D03*
X195620000Y-155120000D03*
X254045000Y-158020000D03*
X254045000Y-156920000D03*
X200685000Y-139670000D03*
X254045000Y-157470000D03*
X265245000Y-155245000D03*
%TO.N,-9V*%
X197820000Y-155120000D03*
X197295000Y-155120000D03*
X241950000Y-159180000D03*
X243595000Y-145795000D03*
X242500000Y-159180000D03*
X240520000Y-157470000D03*
X241400000Y-159190000D03*
X192995000Y-139445000D03*
%TO.N,+3V3*%
X234220000Y-132895000D03*
X241720000Y-112595000D03*
X245845000Y-126445000D03*
X235095000Y-142345000D03*
X246395000Y-124670000D03*
X249570000Y-117882500D03*
X250720000Y-112595000D03*
X246945000Y-126445000D03*
X232720000Y-112595000D03*
X231539999Y-117867500D03*
X246395000Y-126445000D03*
X223720000Y-112595000D03*
X233820000Y-122045000D03*
%TO.N,+12V_RAW*%
X259695000Y-127345000D03*
X260820000Y-149095000D03*
%TO.N,-12V_RAW*%
X252045000Y-148995000D03*
X249145000Y-129570000D03*
%TO.N,/AUDIO/AUDIO_A_TO_B*%
X199630000Y-141795000D03*
X195020000Y-142470000D03*
%TO.N,-9V_EN*%
X253920000Y-126820000D03*
X233820000Y-126570000D03*
%TO.N,+9V_EN*%
X254970000Y-126820000D03*
X234520000Y-125870000D03*
%TO.N,GND*%
X250050000Y-112600000D03*
X224670000Y-112607500D03*
X266894999Y-121545000D03*
X233145000Y-121370000D03*
X260840000Y-125045000D03*
X260840000Y-123945000D03*
X257070000Y-157470000D03*
X210470000Y-129670000D03*
X240970000Y-116195000D03*
X241400000Y-159860000D03*
X236720000Y-125670000D03*
X254445000Y-124595000D03*
X197850000Y-154460000D03*
X254710000Y-156910000D03*
X250545000Y-117082500D03*
X249970000Y-134580000D03*
X200095000Y-141195000D03*
X250240000Y-117880000D03*
X193470000Y-159870000D03*
X198970000Y-159870000D03*
X192330000Y-139450000D03*
X240180000Y-156890000D03*
X209370000Y-131170000D03*
X196720000Y-159870000D03*
X223050000Y-112600000D03*
X266570000Y-153345000D03*
X199970000Y-159870000D03*
X251720000Y-129545000D03*
X255445000Y-121670000D03*
X229819999Y-114070000D03*
X249970000Y-134030000D03*
X242500000Y-159860000D03*
X199095000Y-155220000D03*
X248395000Y-130745000D03*
X268195000Y-149295000D03*
X235845000Y-142345000D03*
X246895000Y-113795000D03*
X249870000Y-116920000D03*
X249040000Y-134030000D03*
X265770000Y-155640000D03*
X260840000Y-124495000D03*
X232050000Y-112590000D03*
X254710000Y-158010000D03*
X246980000Y-124360000D03*
X234220000Y-132220000D03*
X226195000Y-139800000D03*
X231850000Y-116930000D03*
X249040000Y-133480000D03*
X244295000Y-147045000D03*
X242970000Y-148970000D03*
X199320000Y-157295000D03*
X239720000Y-115470000D03*
X246395000Y-137895000D03*
X266894999Y-119219999D03*
X246390000Y-127110000D03*
X267099504Y-124489758D03*
X232544999Y-117082500D03*
X201295000Y-140120000D03*
X267200000Y-142440000D03*
X236970000Y-132870000D03*
X257670000Y-118350000D03*
X232210000Y-117870000D03*
X257170000Y-129045000D03*
X188470000Y-129670000D03*
X245320000Y-157470000D03*
X222970000Y-116132500D03*
X241950000Y-159860000D03*
X245840000Y-127110000D03*
X245445000Y-147170000D03*
X257670000Y-118900000D03*
X234320000Y-121570000D03*
X254710000Y-157460000D03*
X246395000Y-129470000D03*
X195610000Y-154450000D03*
X197300000Y-154460000D03*
X246940000Y-127110000D03*
X257470000Y-127345000D03*
X253445000Y-121670000D03*
X257670000Y-119450000D03*
X228894999Y-113782500D03*
X187370000Y-131170000D03*
X221720000Y-115432500D03*
X230580000Y-137060000D03*
X192470000Y-159870000D03*
X200970000Y-159870000D03*
X196160000Y-154450000D03*
X241050000Y-112590000D03*
X235470000Y-132170000D03*
X194345000Y-155220000D03*
X247820000Y-114045000D03*
X233670000Y-112607500D03*
X243590000Y-145120000D03*
X251960000Y-156890000D03*
X192990000Y-140400000D03*
X242670000Y-112607500D03*
X194470000Y-159870000D03*
X194120000Y-157295000D03*
X251670000Y-112607500D03*
X265870000Y-152095000D03*
%TO.N,/POWER/DC_IN_RAW*%
X258445000Y-118895000D03*
X258445000Y-118345000D03*
X258445000Y-119445000D03*
%TO.N,/MICROCONTROLLER/VG_FTSW_B*%
X242220000Y-115482500D03*
X250545000Y-114882500D03*
%TO.N,/MICROCONTROLLER/VG_FTSW_A*%
X232544999Y-114807500D03*
X224220000Y-115432500D03*
%TO.N,/AUDIO/BYPASS_B*%
X199380000Y-140195000D03*
X198620000Y-136570000D03*
%TO.N,/AUDIO/BYPASS_A*%
X193250000Y-138500000D03*
X195955000Y-142595000D03*
%TO.N,SW_IN2*%
X196430000Y-143470000D03*
X228320000Y-127470000D03*
%TO.N,SW_IN3*%
X197530000Y-142795000D03*
X227420000Y-127770000D03*
%TO.N,SW_IN4*%
X226695000Y-127095000D03*
X197620000Y-136470000D03*
%TO.N,~{SW_EN}*%
X226720000Y-126170000D03*
X196720000Y-136170000D03*
%TO.N,SW_IN1*%
X195930000Y-136695000D03*
X225720000Y-124970000D03*
%TD*%
%TA.AperFunction,Conductor*%
%TO.N,GND*%
G36*
X219721448Y-103970614D02*
G01*
X219735765Y-103971740D01*
X219839269Y-103979886D01*
X219850731Y-103981702D01*
X219961401Y-104008271D01*
X219972429Y-104011854D01*
X220044956Y-104041896D01*
X220077586Y-104055412D01*
X220087932Y-104060684D01*
X220184967Y-104120147D01*
X220194361Y-104126972D01*
X220284132Y-104203643D01*
X220286375Y-104205725D01*
X221591307Y-105521595D01*
X221593111Y-105523715D01*
X221596042Y-105526646D01*
X221596043Y-105526648D01*
X221629328Y-105559934D01*
X221646809Y-105577561D01*
X221648645Y-105579413D01*
X221650559Y-105581166D01*
X221674180Y-105604786D01*
X221694605Y-105625211D01*
X221840254Y-105736972D01*
X221999246Y-105828765D01*
X222168858Y-105899021D01*
X222346190Y-105946537D01*
X222346196Y-105946537D01*
X222346197Y-105946538D01*
X222346196Y-105946538D01*
X222426969Y-105957171D01*
X222528206Y-105970500D01*
X222528208Y-105970500D01*
X249849645Y-105970500D01*
X249849665Y-105970499D01*
X249911792Y-105970499D01*
X249911794Y-105970499D01*
X250093795Y-105946538D01*
X250093803Y-105946537D01*
X250093803Y-105946536D01*
X250093810Y-105946536D01*
X250271142Y-105899020D01*
X250440754Y-105828764D01*
X250599745Y-105736971D01*
X250745394Y-105625210D01*
X250765823Y-105604779D01*
X250767977Y-105602985D01*
X250771630Y-105599301D01*
X250771633Y-105599300D01*
X250810647Y-105559958D01*
X250843957Y-105526648D01*
X250843958Y-105526645D01*
X250846914Y-105523690D01*
X250848722Y-105521563D01*
X252153623Y-104205725D01*
X252155836Y-104203670D01*
X252245650Y-104126963D01*
X252255009Y-104120162D01*
X252352080Y-104060677D01*
X252362409Y-104055414D01*
X252467573Y-104011854D01*
X252478594Y-104008273D01*
X252589270Y-103981702D01*
X252600730Y-103979887D01*
X252652822Y-103975787D01*
X252718569Y-103970614D01*
X252721473Y-103970500D01*
X252767595Y-103970500D01*
X267972405Y-103970500D01*
X268020000Y-103970500D01*
X268427977Y-103988313D01*
X268431184Y-103988593D01*
X268720709Y-104026709D01*
X268834456Y-104041685D01*
X268837636Y-104042246D01*
X269234745Y-104130283D01*
X269237846Y-104131113D01*
X269625804Y-104253435D01*
X269628803Y-104254527D01*
X269848544Y-104345547D01*
X270004602Y-104410189D01*
X270007529Y-104411554D01*
X270368317Y-104599368D01*
X270371107Y-104600978D01*
X270403814Y-104621815D01*
X270714161Y-104819528D01*
X270716802Y-104821377D01*
X271039506Y-105068996D01*
X271041964Y-105071059D01*
X271341864Y-105345867D01*
X271344132Y-105348135D01*
X271598024Y-105625209D01*
X271618935Y-105648029D01*
X271621004Y-105650495D01*
X271806976Y-105892858D01*
X271868619Y-105973193D01*
X271870471Y-105975838D01*
X272089017Y-106318886D01*
X272090631Y-106321682D01*
X272278445Y-106682470D01*
X272279810Y-106685397D01*
X272435467Y-107061184D01*
X272436568Y-107064208D01*
X272522766Y-107337592D01*
X272558881Y-107452135D01*
X272559716Y-107455254D01*
X272647753Y-107852363D01*
X272648314Y-107855543D01*
X272701405Y-108258805D01*
X272701686Y-108262022D01*
X272719500Y-108670000D01*
X272719500Y-158670000D01*
X272701686Y-159077977D01*
X272701405Y-159081194D01*
X272648314Y-159484456D01*
X272647753Y-159487636D01*
X272559716Y-159884745D01*
X272558881Y-159887864D01*
X272436572Y-160275780D01*
X272435467Y-160278815D01*
X272279810Y-160654602D01*
X272278445Y-160657529D01*
X272090631Y-161018317D01*
X272089017Y-161021113D01*
X271870471Y-161364161D01*
X271868619Y-161366806D01*
X271621011Y-161689496D01*
X271618935Y-161691970D01*
X271344140Y-161991856D01*
X271341856Y-161994140D01*
X271041970Y-162268935D01*
X271039496Y-162271011D01*
X270716806Y-162518619D01*
X270714161Y-162520471D01*
X270371113Y-162739017D01*
X270368317Y-162740631D01*
X270007529Y-162928445D01*
X270004602Y-162929810D01*
X269628815Y-163085467D01*
X269625783Y-163086570D01*
X269431822Y-163147726D01*
X269237864Y-163208881D01*
X269234745Y-163209716D01*
X268837636Y-163297753D01*
X268834456Y-163298314D01*
X268431194Y-163351405D01*
X268427977Y-163351686D01*
X268020000Y-163369500D01*
X175720000Y-163369500D01*
X175312022Y-163351686D01*
X175308805Y-163351405D01*
X174905543Y-163298314D01*
X174902363Y-163297753D01*
X174505254Y-163209716D01*
X174502135Y-163208881D01*
X174114208Y-163086568D01*
X174111184Y-163085467D01*
X173735397Y-162929810D01*
X173732470Y-162928445D01*
X173371682Y-162740631D01*
X173368886Y-162739017D01*
X173025838Y-162520471D01*
X173023193Y-162518619D01*
X172896265Y-162421224D01*
X172700495Y-162271004D01*
X172698029Y-162268935D01*
X172512183Y-162098638D01*
X172398135Y-161994132D01*
X172395867Y-161991864D01*
X172121059Y-161691964D01*
X172118996Y-161689506D01*
X171871377Y-161366802D01*
X171869528Y-161364161D01*
X171676589Y-161061308D01*
X171650978Y-161021107D01*
X171649368Y-161018317D01*
X171461554Y-160657529D01*
X171460189Y-160654602D01*
X171447835Y-160624777D01*
X172885827Y-160624777D01*
X172895607Y-160805149D01*
X172943936Y-160979212D01*
X173028550Y-161138813D01*
X173028551Y-161138814D01*
X173145494Y-161276491D01*
X173289308Y-161385816D01*
X173289310Y-161385817D01*
X173380888Y-161428186D01*
X173453256Y-161461667D01*
X173629678Y-161500500D01*
X173629683Y-161500500D01*
X173765019Y-161500500D01*
X173765028Y-161500500D01*
X173899586Y-161485866D01*
X174070774Y-161428186D01*
X174225561Y-161335054D01*
X174356708Y-161210825D01*
X174458083Y-161061307D01*
X174524947Y-160893492D01*
X174554172Y-160715227D01*
X174549268Y-160624777D01*
X268885827Y-160624777D01*
X268895607Y-160805149D01*
X268943936Y-160979212D01*
X269028550Y-161138813D01*
X269028551Y-161138814D01*
X269145494Y-161276491D01*
X269289308Y-161385816D01*
X269289310Y-161385817D01*
X269380888Y-161428186D01*
X269453256Y-161461667D01*
X269629678Y-161500500D01*
X269629683Y-161500500D01*
X269765019Y-161500500D01*
X269765028Y-161500500D01*
X269899586Y-161485866D01*
X270070774Y-161428186D01*
X270225561Y-161335054D01*
X270356708Y-161210825D01*
X270458083Y-161061307D01*
X270524947Y-160893492D01*
X270554172Y-160715227D01*
X270544392Y-160534848D01*
X270496064Y-160360788D01*
X270411449Y-160201186D01*
X270399317Y-160186904D01*
X270294505Y-160063508D01*
X270150691Y-159954183D01*
X270150689Y-159954182D01*
X269986754Y-159878337D01*
X269986749Y-159878335D01*
X269986744Y-159878333D01*
X269810322Y-159839500D01*
X269674972Y-159839500D01*
X269674966Y-159839500D01*
X269674958Y-159839501D01*
X269563591Y-159851613D01*
X269540414Y-159854134D01*
X269540411Y-159854134D01*
X269540411Y-159854135D01*
X269369228Y-159911813D01*
X269214438Y-160004946D01*
X269083288Y-160129178D01*
X268981917Y-160278691D01*
X268915053Y-160446507D01*
X268915052Y-160446508D01*
X268885828Y-160624773D01*
X268885827Y-160624777D01*
X174549268Y-160624777D01*
X174544392Y-160534848D01*
X174496064Y-160360788D01*
X174411449Y-160201186D01*
X174399317Y-160186904D01*
X174294505Y-160063508D01*
X174150691Y-159954183D01*
X174150689Y-159954182D01*
X173986754Y-159878337D01*
X173986749Y-159878335D01*
X173986744Y-159878333D01*
X173810322Y-159839500D01*
X173674972Y-159839500D01*
X173674966Y-159839500D01*
X173674958Y-159839501D01*
X173563591Y-159851613D01*
X173540414Y-159854134D01*
X173540411Y-159854134D01*
X173540411Y-159854135D01*
X173369228Y-159911813D01*
X173214438Y-160004946D01*
X173083288Y-160129178D01*
X172981917Y-160278691D01*
X172915053Y-160446507D01*
X172915052Y-160446508D01*
X172885828Y-160624773D01*
X172885827Y-160624777D01*
X171447835Y-160624777D01*
X171338486Y-160360787D01*
X171304527Y-160278803D01*
X171303435Y-160275804D01*
X171181113Y-159887846D01*
X171180283Y-159884745D01*
X171092246Y-159487636D01*
X171091685Y-159484456D01*
X171067234Y-159298731D01*
X171052919Y-159190000D01*
X241015769Y-159190000D01*
X241034574Y-159308730D01*
X241034574Y-159308731D01*
X241034574Y-159308732D01*
X241034575Y-159308734D01*
X241089151Y-159415845D01*
X241174155Y-159500849D01*
X241281266Y-159555425D01*
X241400000Y-159574231D01*
X241518734Y-159555425D01*
X241625845Y-159500849D01*
X241628312Y-159498381D01*
X241674186Y-159476986D01*
X241718616Y-159488888D01*
X241718965Y-159488204D01*
X241722182Y-159489843D01*
X241723081Y-159490084D01*
X241724130Y-159490832D01*
X241724147Y-159490844D01*
X241724153Y-159490847D01*
X241724155Y-159490849D01*
X241831266Y-159545425D01*
X241950000Y-159564231D01*
X242068734Y-159545425D01*
X242175845Y-159490849D01*
X242175848Y-159490845D01*
X242180558Y-159487425D01*
X242182141Y-159489605D01*
X242218550Y-159472628D01*
X242267445Y-159485729D01*
X242269622Y-159487556D01*
X242274151Y-159490846D01*
X242274153Y-159490847D01*
X242274155Y-159490849D01*
X242381266Y-159545425D01*
X242500000Y-159564231D01*
X242618734Y-159545425D01*
X242725845Y-159490849D01*
X242810849Y-159405845D01*
X242865425Y-159298734D01*
X242884231Y-159180000D01*
X242865425Y-159061266D01*
X242810849Y-158954155D01*
X242725845Y-158869151D01*
X242618734Y-158814575D01*
X242618731Y-158814574D01*
X242618730Y-158814574D01*
X242500000Y-158795769D01*
X242381269Y-158814574D01*
X242381268Y-158814574D01*
X242274151Y-158869153D01*
X242269442Y-158872575D01*
X242267858Y-158870394D01*
X242231450Y-158887372D01*
X242182555Y-158874271D01*
X242180377Y-158872443D01*
X242175848Y-158869153D01*
X242175845Y-158869151D01*
X242068734Y-158814575D01*
X242068731Y-158814574D01*
X242068730Y-158814574D01*
X241950000Y-158795769D01*
X241831269Y-158814574D01*
X241831268Y-158814574D01*
X241724155Y-158869150D01*
X241721680Y-158871626D01*
X241675802Y-158893015D01*
X241631383Y-158881109D01*
X241631034Y-158881795D01*
X241627806Y-158880150D01*
X241626909Y-158879910D01*
X241625860Y-158879162D01*
X241625847Y-158879153D01*
X241625845Y-158879151D01*
X241518734Y-158824575D01*
X241518731Y-158824574D01*
X241518730Y-158824574D01*
X241400000Y-158805769D01*
X241281269Y-158824574D01*
X241281268Y-158824574D01*
X241174153Y-158879152D01*
X241089152Y-158964153D01*
X241034574Y-159071268D01*
X241034574Y-159071269D01*
X241015769Y-159190000D01*
X171052919Y-159190000D01*
X171038593Y-159081184D01*
X171038313Y-159077977D01*
X171020500Y-158670000D01*
X171020500Y-158019999D01*
X253660769Y-158019999D01*
X253679574Y-158138730D01*
X253679574Y-158138731D01*
X253679574Y-158138732D01*
X253679575Y-158138734D01*
X253734151Y-158245845D01*
X253819155Y-158330849D01*
X253926266Y-158385425D01*
X254045000Y-158404231D01*
X254163734Y-158385425D01*
X254270845Y-158330849D01*
X254355849Y-158245845D01*
X254410425Y-158138734D01*
X254429231Y-158020000D01*
X254410425Y-157901266D01*
X254355849Y-157794155D01*
X254355847Y-157794153D01*
X254355846Y-157794151D01*
X254352425Y-157789442D01*
X254354610Y-157787853D01*
X254337630Y-157751488D01*
X254350705Y-157702587D01*
X254352536Y-157700403D01*
X254355846Y-157695848D01*
X254355849Y-157695845D01*
X254410425Y-157588734D01*
X254429231Y-157470000D01*
X254410425Y-157351266D01*
X254355849Y-157244155D01*
X254355847Y-157244153D01*
X254352428Y-157239447D01*
X254354606Y-157237863D01*
X254337627Y-157201450D01*
X254350728Y-157152555D01*
X254352556Y-157150377D01*
X254355846Y-157145848D01*
X254355846Y-157145847D01*
X254355849Y-157145845D01*
X254410425Y-157038734D01*
X254429231Y-156920000D01*
X254410425Y-156801266D01*
X254355849Y-156694155D01*
X254270845Y-156609151D01*
X254163734Y-156554575D01*
X254163731Y-156554574D01*
X254163730Y-156554574D01*
X254045000Y-156535769D01*
X253926269Y-156554574D01*
X253926268Y-156554574D01*
X253819153Y-156609152D01*
X253734152Y-156694153D01*
X253679574Y-156801268D01*
X253679574Y-156801269D01*
X253660769Y-156920000D01*
X253679574Y-157038730D01*
X253679574Y-157038731D01*
X253679574Y-157038732D01*
X253679575Y-157038734D01*
X253713123Y-157104575D01*
X253734153Y-157145848D01*
X253737575Y-157150558D01*
X253735394Y-157152141D01*
X253752372Y-157188550D01*
X253739271Y-157237445D01*
X253737443Y-157239622D01*
X253734153Y-157244151D01*
X253679574Y-157351268D01*
X253679574Y-157351269D01*
X253660769Y-157470000D01*
X253679574Y-157588730D01*
X253679574Y-157588731D01*
X253679574Y-157588732D01*
X253679575Y-157588734D01*
X253734151Y-157695845D01*
X253734153Y-157695848D01*
X253737575Y-157700558D01*
X253735400Y-157702137D01*
X253752375Y-157738589D01*
X253739248Y-157787477D01*
X253737419Y-157789656D01*
X253734153Y-157794151D01*
X253679574Y-157901268D01*
X253679574Y-157901269D01*
X253660769Y-158019999D01*
X171020500Y-158019999D01*
X171020500Y-157469999D01*
X240135769Y-157469999D01*
X240154574Y-157588730D01*
X240154574Y-157588731D01*
X240154574Y-157588732D01*
X240154575Y-157588734D01*
X240209151Y-157695845D01*
X240294155Y-157780849D01*
X240401266Y-157835425D01*
X240520000Y-157854231D01*
X240638734Y-157835425D01*
X240745845Y-157780849D01*
X240830849Y-157695845D01*
X240885425Y-157588734D01*
X240904231Y-157470000D01*
X240904231Y-157469999D01*
X251885769Y-157469999D01*
X251904574Y-157588730D01*
X251904574Y-157588731D01*
X251904574Y-157588732D01*
X251904575Y-157588734D01*
X251959151Y-157695845D01*
X252044155Y-157780849D01*
X252151266Y-157835425D01*
X252270000Y-157854231D01*
X252388734Y-157835425D01*
X252495845Y-157780849D01*
X252580849Y-157695845D01*
X252635425Y-157588734D01*
X252654231Y-157470000D01*
X252635425Y-157351266D01*
X252580849Y-157244155D01*
X252495845Y-157159151D01*
X252388734Y-157104575D01*
X252388731Y-157104574D01*
X252388730Y-157104574D01*
X252270000Y-157085769D01*
X252151269Y-157104574D01*
X252151268Y-157104574D01*
X252044153Y-157159152D01*
X251959152Y-157244153D01*
X251904574Y-157351268D01*
X251904574Y-157351269D01*
X251885769Y-157469999D01*
X240904231Y-157469999D01*
X240885425Y-157351266D01*
X240830849Y-157244155D01*
X240745845Y-157159151D01*
X240638734Y-157104575D01*
X240638731Y-157104574D01*
X240638730Y-157104574D01*
X240520000Y-157085769D01*
X240401269Y-157104574D01*
X240401268Y-157104574D01*
X240294153Y-157159152D01*
X240209152Y-157244153D01*
X240154574Y-157351268D01*
X240154574Y-157351269D01*
X240135769Y-157469999D01*
X171020500Y-157469999D01*
X171020500Y-155120000D01*
X195235769Y-155120000D01*
X195254574Y-155238730D01*
X195254574Y-155238731D01*
X195254574Y-155238732D01*
X195254575Y-155238734D01*
X195309151Y-155345845D01*
X195394155Y-155430849D01*
X195501266Y-155485425D01*
X195620000Y-155504231D01*
X195738734Y-155485425D01*
X195845845Y-155430849D01*
X195845846Y-155430847D01*
X195848903Y-155429290D01*
X195899145Y-155423121D01*
X195916094Y-155429289D01*
X195919154Y-155430848D01*
X195919155Y-155430849D01*
X196026266Y-155485425D01*
X196145000Y-155504231D01*
X196263734Y-155485425D01*
X196370845Y-155430849D01*
X196455849Y-155345845D01*
X196510425Y-155238734D01*
X196529231Y-155120000D01*
X196910769Y-155120000D01*
X196929574Y-155238730D01*
X196929574Y-155238731D01*
X196929574Y-155238732D01*
X196929575Y-155238734D01*
X196984151Y-155345845D01*
X197069155Y-155430849D01*
X197176266Y-155485425D01*
X197295000Y-155504231D01*
X197413734Y-155485425D01*
X197520845Y-155430849D01*
X197520844Y-155430849D01*
X197523905Y-155429290D01*
X197574146Y-155423121D01*
X197591095Y-155429290D01*
X197594155Y-155430849D01*
X197701266Y-155485425D01*
X197820000Y-155504231D01*
X197938734Y-155485425D01*
X198045845Y-155430849D01*
X198130849Y-155345845D01*
X198182233Y-155244999D01*
X264860769Y-155244999D01*
X264879574Y-155363730D01*
X264879574Y-155363731D01*
X264879574Y-155363732D01*
X264879575Y-155363734D01*
X264934151Y-155470845D01*
X265019155Y-155555849D01*
X265126266Y-155610425D01*
X265245000Y-155629231D01*
X265363734Y-155610425D01*
X265470845Y-155555849D01*
X265555849Y-155470845D01*
X265610425Y-155363734D01*
X265629231Y-155245000D01*
X265610425Y-155126266D01*
X265555849Y-155019155D01*
X265470845Y-154934151D01*
X265363734Y-154879575D01*
X265363731Y-154879574D01*
X265363730Y-154879574D01*
X265245000Y-154860769D01*
X265126269Y-154879574D01*
X265126268Y-154879574D01*
X265019153Y-154934152D01*
X264934152Y-155019153D01*
X264879574Y-155126268D01*
X264879574Y-155126269D01*
X264860769Y-155244999D01*
X198182233Y-155244999D01*
X198185425Y-155238734D01*
X198204231Y-155120000D01*
X198185425Y-155001266D01*
X198130849Y-154894155D01*
X198045845Y-154809151D01*
X197938734Y-154754575D01*
X197938731Y-154754574D01*
X197938730Y-154754574D01*
X197820000Y-154735769D01*
X197701269Y-154754574D01*
X197701268Y-154754574D01*
X197591095Y-154810710D01*
X197540853Y-154816878D01*
X197523905Y-154810710D01*
X197509660Y-154803452D01*
X197413734Y-154754575D01*
X197413731Y-154754574D01*
X197413730Y-154754574D01*
X197295000Y-154735769D01*
X197176269Y-154754574D01*
X197176268Y-154754574D01*
X197069153Y-154809152D01*
X196984152Y-154894153D01*
X196929574Y-155001268D01*
X196929574Y-155001269D01*
X196910769Y-155120000D01*
X196529231Y-155120000D01*
X196510425Y-155001266D01*
X196455849Y-154894155D01*
X196370845Y-154809151D01*
X196263734Y-154754575D01*
X196263731Y-154754574D01*
X196263730Y-154754574D01*
X196145000Y-154735769D01*
X196026269Y-154754574D01*
X196026268Y-154754574D01*
X195916095Y-154810710D01*
X195865853Y-154816878D01*
X195848905Y-154810710D01*
X195834660Y-154803452D01*
X195738734Y-154754575D01*
X195738731Y-154754574D01*
X195738730Y-154754574D01*
X195620000Y-154735769D01*
X195501269Y-154754574D01*
X195501268Y-154754574D01*
X195394153Y-154809152D01*
X195309152Y-154894153D01*
X195254574Y-155001268D01*
X195254574Y-155001269D01*
X195235769Y-155120000D01*
X171020500Y-155120000D01*
X171020500Y-148995000D01*
X251660769Y-148995000D01*
X251679574Y-149113730D01*
X251679574Y-149113731D01*
X251679574Y-149113732D01*
X251679575Y-149113734D01*
X251734151Y-149220845D01*
X251819155Y-149305849D01*
X251926266Y-149360425D01*
X252045000Y-149379231D01*
X252163734Y-149360425D01*
X252270845Y-149305849D01*
X252355849Y-149220845D01*
X252410425Y-149113734D01*
X252413392Y-149095000D01*
X260435769Y-149095000D01*
X260454574Y-149213730D01*
X260454574Y-149213731D01*
X260454574Y-149213732D01*
X260454575Y-149213734D01*
X260509151Y-149320845D01*
X260594155Y-149405849D01*
X260701266Y-149460425D01*
X260820000Y-149479231D01*
X260938734Y-149460425D01*
X261045845Y-149405849D01*
X261130849Y-149320845D01*
X261185425Y-149213734D01*
X261204231Y-149095000D01*
X261185425Y-148976266D01*
X261130849Y-148869155D01*
X261045845Y-148784151D01*
X260938734Y-148729575D01*
X260938731Y-148729574D01*
X260938730Y-148729574D01*
X260820000Y-148710769D01*
X260701269Y-148729574D01*
X260701268Y-148729574D01*
X260594153Y-148784152D01*
X260509152Y-148869153D01*
X260454574Y-148976268D01*
X260454574Y-148976269D01*
X260435769Y-149095000D01*
X252413392Y-149095000D01*
X252429231Y-148995000D01*
X252410425Y-148876266D01*
X252355849Y-148769155D01*
X252270845Y-148684151D01*
X252163734Y-148629575D01*
X252163731Y-148629574D01*
X252163730Y-148629574D01*
X252045000Y-148610769D01*
X251926269Y-148629574D01*
X251926268Y-148629574D01*
X251819153Y-148684152D01*
X251734152Y-148769153D01*
X251679574Y-148876268D01*
X251679574Y-148876269D01*
X251660769Y-148995000D01*
X171020500Y-148995000D01*
X171020500Y-145795000D01*
X243210769Y-145795000D01*
X243229574Y-145913730D01*
X243229574Y-145913731D01*
X243229574Y-145913732D01*
X243229575Y-145913734D01*
X243284151Y-146020845D01*
X243369155Y-146105849D01*
X243476266Y-146160425D01*
X243595000Y-146179231D01*
X243713734Y-146160425D01*
X243820845Y-146105849D01*
X243905849Y-146020845D01*
X243960425Y-145913734D01*
X243979231Y-145795000D01*
X243960425Y-145676266D01*
X243905849Y-145569155D01*
X243820845Y-145484151D01*
X243713734Y-145429575D01*
X243713731Y-145429574D01*
X243713730Y-145429574D01*
X243595000Y-145410769D01*
X243476269Y-145429574D01*
X243476268Y-145429574D01*
X243369153Y-145484152D01*
X243284152Y-145569153D01*
X243229574Y-145676268D01*
X243229574Y-145676269D01*
X243210769Y-145795000D01*
X171020500Y-145795000D01*
X171020500Y-143469999D01*
X196045769Y-143469999D01*
X196064574Y-143588730D01*
X196064574Y-143588731D01*
X196064574Y-143588732D01*
X196064575Y-143588734D01*
X196119151Y-143695845D01*
X196204155Y-143780849D01*
X196311266Y-143835425D01*
X196430000Y-143854231D01*
X196548734Y-143835425D01*
X196655845Y-143780849D01*
X196740849Y-143695845D01*
X196795425Y-143588734D01*
X196814231Y-143470000D01*
X196795425Y-143351266D01*
X196740849Y-143244155D01*
X196655845Y-143159151D01*
X196548734Y-143104575D01*
X196548731Y-143104574D01*
X196548730Y-143104574D01*
X196430000Y-143085769D01*
X196311269Y-143104574D01*
X196311268Y-143104574D01*
X196204153Y-143159152D01*
X196119152Y-143244153D01*
X196064574Y-143351268D01*
X196064574Y-143351269D01*
X196045769Y-143469999D01*
X171020500Y-143469999D01*
X171020500Y-142470000D01*
X194635769Y-142470000D01*
X194654574Y-142588730D01*
X194654574Y-142588731D01*
X194654574Y-142588732D01*
X194654575Y-142588734D01*
X194709151Y-142695845D01*
X194794155Y-142780849D01*
X194901266Y-142835425D01*
X195020000Y-142854231D01*
X195138734Y-142835425D01*
X195245845Y-142780849D01*
X195330849Y-142695845D01*
X195382232Y-142595000D01*
X195570769Y-142595000D01*
X195589574Y-142713730D01*
X195589574Y-142713731D01*
X195589574Y-142713732D01*
X195589575Y-142713734D01*
X195644151Y-142820845D01*
X195729155Y-142905849D01*
X195836266Y-142960425D01*
X195955000Y-142979231D01*
X196073734Y-142960425D01*
X196180845Y-142905849D01*
X196265849Y-142820845D01*
X196279018Y-142795000D01*
X197145769Y-142795000D01*
X197164574Y-142913730D01*
X197164574Y-142913731D01*
X197164574Y-142913732D01*
X197164575Y-142913734D01*
X197219151Y-143020845D01*
X197304155Y-143105849D01*
X197411266Y-143160425D01*
X197530000Y-143179231D01*
X197648734Y-143160425D01*
X197755845Y-143105849D01*
X197840849Y-143020845D01*
X197895425Y-142913734D01*
X197914231Y-142795000D01*
X197895425Y-142676266D01*
X197840849Y-142569155D01*
X197755845Y-142484151D01*
X197648734Y-142429575D01*
X197648731Y-142429574D01*
X197648730Y-142429574D01*
X197530000Y-142410769D01*
X197411269Y-142429574D01*
X197411268Y-142429574D01*
X197304153Y-142484152D01*
X197219152Y-142569153D01*
X197164574Y-142676268D01*
X197164574Y-142676269D01*
X197145769Y-142795000D01*
X196279018Y-142795000D01*
X196320425Y-142713734D01*
X196339231Y-142595000D01*
X196320425Y-142476266D01*
X196265849Y-142369155D01*
X196241694Y-142345000D01*
X234710769Y-142345000D01*
X234729574Y-142463730D01*
X234729574Y-142463731D01*
X234729574Y-142463732D01*
X234729575Y-142463734D01*
X234784151Y-142570845D01*
X234869155Y-142655849D01*
X234976266Y-142710425D01*
X235095000Y-142729231D01*
X235213734Y-142710425D01*
X235320845Y-142655849D01*
X235405849Y-142570845D01*
X235460425Y-142463734D01*
X235479231Y-142345000D01*
X235460425Y-142226266D01*
X235405849Y-142119155D01*
X235320845Y-142034151D01*
X235213734Y-141979575D01*
X235213731Y-141979574D01*
X235213730Y-141979574D01*
X235095000Y-141960769D01*
X234976269Y-141979574D01*
X234976268Y-141979574D01*
X234869153Y-142034152D01*
X234784152Y-142119153D01*
X234729574Y-142226268D01*
X234729574Y-142226269D01*
X234710769Y-142345000D01*
X196241694Y-142345000D01*
X196180845Y-142284151D01*
X196073734Y-142229575D01*
X196073731Y-142229574D01*
X196073730Y-142229574D01*
X195955000Y-142210769D01*
X195836269Y-142229574D01*
X195836268Y-142229574D01*
X195729153Y-142284152D01*
X195644152Y-142369153D01*
X195589574Y-142476268D01*
X195589574Y-142476269D01*
X195570769Y-142595000D01*
X195382232Y-142595000D01*
X195385425Y-142588734D01*
X195404231Y-142470000D01*
X195385425Y-142351266D01*
X195330849Y-142244155D01*
X195245845Y-142159151D01*
X195138734Y-142104575D01*
X195138731Y-142104574D01*
X195138730Y-142104574D01*
X195020000Y-142085769D01*
X194901269Y-142104574D01*
X194901268Y-142104574D01*
X194794153Y-142159152D01*
X194709152Y-142244153D01*
X194654574Y-142351268D01*
X194654574Y-142351269D01*
X194635769Y-142470000D01*
X171020500Y-142470000D01*
X171020500Y-141795000D01*
X199245769Y-141795000D01*
X199264574Y-141913730D01*
X199264574Y-141913731D01*
X199264574Y-141913732D01*
X199264575Y-141913734D01*
X199319151Y-142020845D01*
X199404155Y-142105849D01*
X199511266Y-142160425D01*
X199630000Y-142179231D01*
X199748734Y-142160425D01*
X199855845Y-142105849D01*
X199940849Y-142020845D01*
X199995425Y-141913734D01*
X200014231Y-141795000D01*
X199995425Y-141676266D01*
X199940849Y-141569155D01*
X199855845Y-141484151D01*
X199748734Y-141429575D01*
X199748731Y-141429574D01*
X199748730Y-141429574D01*
X199630000Y-141410769D01*
X199511269Y-141429574D01*
X199511268Y-141429574D01*
X199404153Y-141484152D01*
X199319152Y-141569153D01*
X199264574Y-141676268D01*
X199264574Y-141676269D01*
X199245769Y-141795000D01*
X171020500Y-141795000D01*
X171020500Y-140194999D01*
X198995769Y-140194999D01*
X199014574Y-140313730D01*
X199014574Y-140313731D01*
X199014574Y-140313732D01*
X199014575Y-140313734D01*
X199069151Y-140420845D01*
X199154155Y-140505849D01*
X199261266Y-140560425D01*
X199380000Y-140579231D01*
X199498734Y-140560425D01*
X199605845Y-140505849D01*
X199690849Y-140420845D01*
X199745425Y-140313734D01*
X199764231Y-140195000D01*
X199745425Y-140076266D01*
X199690849Y-139969155D01*
X199605845Y-139884151D01*
X199498734Y-139829575D01*
X199498731Y-139829574D01*
X199498730Y-139829574D01*
X199380000Y-139810769D01*
X199261269Y-139829574D01*
X199261268Y-139829574D01*
X199154153Y-139884152D01*
X199069152Y-139969153D01*
X199014574Y-140076268D01*
X199014574Y-140076269D01*
X198995769Y-140194999D01*
X171020500Y-140194999D01*
X171020500Y-139445000D01*
X192610769Y-139445000D01*
X192629574Y-139563730D01*
X192629574Y-139563731D01*
X192629574Y-139563732D01*
X192629575Y-139563734D01*
X192684151Y-139670845D01*
X192769155Y-139755849D01*
X192876266Y-139810425D01*
X192995000Y-139829231D01*
X193113734Y-139810425D01*
X193220845Y-139755849D01*
X193305849Y-139670845D01*
X193306280Y-139669999D01*
X200300769Y-139669999D01*
X200319574Y-139788730D01*
X200319574Y-139788731D01*
X200319574Y-139788732D01*
X200319575Y-139788734D01*
X200374151Y-139895845D01*
X200459155Y-139980849D01*
X200566266Y-140035425D01*
X200685000Y-140054231D01*
X200803734Y-140035425D01*
X200910845Y-139980849D01*
X200995849Y-139895845D01*
X201050425Y-139788734D01*
X201069231Y-139670000D01*
X201050425Y-139551266D01*
X200995849Y-139444155D01*
X200910845Y-139359151D01*
X200803734Y-139304575D01*
X200803731Y-139304574D01*
X200803730Y-139304574D01*
X200685000Y-139285769D01*
X200566269Y-139304574D01*
X200566268Y-139304574D01*
X200459153Y-139359152D01*
X200374152Y-139444153D01*
X200319574Y-139551268D01*
X200319574Y-139551269D01*
X200300769Y-139669999D01*
X193306280Y-139669999D01*
X193360425Y-139563734D01*
X193379231Y-139445000D01*
X193360425Y-139326266D01*
X193305849Y-139219155D01*
X193220845Y-139134151D01*
X193113734Y-139079575D01*
X193113731Y-139079574D01*
X193113730Y-139079574D01*
X192995000Y-139060769D01*
X192876269Y-139079574D01*
X192876268Y-139079574D01*
X192769153Y-139134152D01*
X192684152Y-139219153D01*
X192629574Y-139326268D01*
X192629574Y-139326269D01*
X192610769Y-139445000D01*
X171020500Y-139445000D01*
X171020500Y-138500000D01*
X192865769Y-138500000D01*
X192884574Y-138618730D01*
X192884574Y-138618731D01*
X192884574Y-138618732D01*
X192884575Y-138618734D01*
X192939151Y-138725845D01*
X193024155Y-138810849D01*
X193131266Y-138865425D01*
X193250000Y-138884231D01*
X193368734Y-138865425D01*
X193475845Y-138810849D01*
X193560849Y-138725845D01*
X193615425Y-138618734D01*
X193634231Y-138500000D01*
X193615425Y-138381266D01*
X193560849Y-138274155D01*
X193475845Y-138189151D01*
X193368734Y-138134575D01*
X193368731Y-138134574D01*
X193368730Y-138134574D01*
X193250000Y-138115769D01*
X193131269Y-138134574D01*
X193131268Y-138134574D01*
X193024153Y-138189152D01*
X192939152Y-138274153D01*
X192884574Y-138381268D01*
X192884574Y-138381269D01*
X192865769Y-138500000D01*
X171020500Y-138500000D01*
X171020500Y-136695000D01*
X195545769Y-136695000D01*
X195564574Y-136813730D01*
X195564574Y-136813731D01*
X195564574Y-136813732D01*
X195564575Y-136813734D01*
X195619151Y-136920845D01*
X195704155Y-137005849D01*
X195811266Y-137060425D01*
X195930000Y-137079231D01*
X196048734Y-137060425D01*
X196155845Y-137005849D01*
X196240849Y-136920845D01*
X196295425Y-136813734D01*
X196314231Y-136695000D01*
X196295425Y-136576266D01*
X196240849Y-136469155D01*
X196155845Y-136384151D01*
X196048734Y-136329575D01*
X196048731Y-136329574D01*
X196048730Y-136329574D01*
X195930000Y-136310769D01*
X195811269Y-136329574D01*
X195811268Y-136329574D01*
X195704153Y-136384152D01*
X195619152Y-136469153D01*
X195564574Y-136576268D01*
X195564574Y-136576269D01*
X195545769Y-136695000D01*
X171020500Y-136695000D01*
X171020500Y-136170000D01*
X196335769Y-136170000D01*
X196354574Y-136288730D01*
X196354574Y-136288731D01*
X196354574Y-136288732D01*
X196354575Y-136288734D01*
X196409151Y-136395845D01*
X196494155Y-136480849D01*
X196601266Y-136535425D01*
X196720000Y-136554231D01*
X196838734Y-136535425D01*
X196945845Y-136480849D01*
X196956695Y-136469999D01*
X197235769Y-136469999D01*
X197254574Y-136588730D01*
X197254574Y-136588731D01*
X197254574Y-136588732D01*
X197254575Y-136588734D01*
X197309151Y-136695845D01*
X197394155Y-136780849D01*
X197501266Y-136835425D01*
X197620000Y-136854231D01*
X197738734Y-136835425D01*
X197845845Y-136780849D01*
X197930849Y-136695845D01*
X197985425Y-136588734D01*
X197988392Y-136570000D01*
X198235769Y-136570000D01*
X198254574Y-136688730D01*
X198254574Y-136688731D01*
X198254574Y-136688732D01*
X198254575Y-136688734D01*
X198309151Y-136795845D01*
X198394155Y-136880849D01*
X198501266Y-136935425D01*
X198620000Y-136954231D01*
X198738734Y-136935425D01*
X198845845Y-136880849D01*
X198930849Y-136795845D01*
X198985425Y-136688734D01*
X199004231Y-136570000D01*
X198985425Y-136451266D01*
X198930849Y-136344155D01*
X198845845Y-136259151D01*
X198738734Y-136204575D01*
X198738731Y-136204574D01*
X198738730Y-136204574D01*
X198620000Y-136185769D01*
X198501269Y-136204574D01*
X198501268Y-136204574D01*
X198394153Y-136259152D01*
X198309152Y-136344153D01*
X198254574Y-136451268D01*
X198254574Y-136451269D01*
X198235769Y-136570000D01*
X197988392Y-136570000D01*
X198004231Y-136470000D01*
X197985425Y-136351266D01*
X197930849Y-136244155D01*
X197845845Y-136159151D01*
X197738734Y-136104575D01*
X197738731Y-136104574D01*
X197738730Y-136104574D01*
X197620000Y-136085769D01*
X197501269Y-136104574D01*
X197501268Y-136104574D01*
X197394153Y-136159152D01*
X197309152Y-136244153D01*
X197254574Y-136351268D01*
X197254574Y-136351269D01*
X197235769Y-136469999D01*
X196956695Y-136469999D01*
X197030849Y-136395845D01*
X197085425Y-136288734D01*
X197104231Y-136170000D01*
X197085425Y-136051266D01*
X197030849Y-135944155D01*
X197006693Y-135919999D01*
X254574632Y-135919999D01*
X254593982Y-136042171D01*
X254593982Y-136042172D01*
X254593982Y-136042173D01*
X254593983Y-136042175D01*
X254650141Y-136152391D01*
X254737609Y-136239859D01*
X254847825Y-136296017D01*
X254970000Y-136315368D01*
X255092175Y-136296017D01*
X255202391Y-136239859D01*
X255289859Y-136152391D01*
X255346017Y-136042175D01*
X255365368Y-135920000D01*
X255365368Y-135919999D01*
X255824632Y-135919999D01*
X255843982Y-136042171D01*
X255843982Y-136042172D01*
X255843982Y-136042173D01*
X255843983Y-136042175D01*
X255900141Y-136152391D01*
X255987609Y-136239859D01*
X256097825Y-136296017D01*
X256220000Y-136315368D01*
X256342175Y-136296017D01*
X256452391Y-136239859D01*
X256539859Y-136152391D01*
X256596017Y-136042175D01*
X256615368Y-135920000D01*
X256596017Y-135797825D01*
X256539859Y-135687609D01*
X256452391Y-135600141D01*
X256342175Y-135543983D01*
X256342172Y-135543982D01*
X256342171Y-135543982D01*
X256220000Y-135524632D01*
X256097828Y-135543982D01*
X256097827Y-135543982D01*
X255987607Y-135600142D01*
X255900142Y-135687607D01*
X255843982Y-135797827D01*
X255843982Y-135797828D01*
X255824632Y-135919999D01*
X255365368Y-135919999D01*
X255346017Y-135797825D01*
X255289859Y-135687609D01*
X255202391Y-135600141D01*
X255092175Y-135543983D01*
X255092172Y-135543982D01*
X255092171Y-135543982D01*
X254970000Y-135524632D01*
X254847828Y-135543982D01*
X254847827Y-135543982D01*
X254737607Y-135600142D01*
X254650142Y-135687607D01*
X254593982Y-135797827D01*
X254593982Y-135797828D01*
X254574632Y-135919999D01*
X197006693Y-135919999D01*
X196945845Y-135859151D01*
X196838734Y-135804575D01*
X196838731Y-135804574D01*
X196838730Y-135804574D01*
X196720000Y-135785769D01*
X196601269Y-135804574D01*
X196601268Y-135804574D01*
X196494153Y-135859152D01*
X196409152Y-135944153D01*
X196354574Y-136051268D01*
X196354574Y-136051269D01*
X196335769Y-136170000D01*
X171020500Y-136170000D01*
X171020500Y-134569999D01*
X247885769Y-134569999D01*
X247904574Y-134688730D01*
X247904574Y-134688731D01*
X247904574Y-134688732D01*
X247904575Y-134688734D01*
X247959151Y-134795845D01*
X248044155Y-134880849D01*
X248151266Y-134935425D01*
X248270000Y-134954231D01*
X248388734Y-134935425D01*
X248495845Y-134880849D01*
X248580849Y-134795845D01*
X248635425Y-134688734D01*
X248654231Y-134570000D01*
X248654231Y-134569999D01*
X250360769Y-134569999D01*
X250379574Y-134688730D01*
X250379574Y-134688731D01*
X250379574Y-134688732D01*
X250379575Y-134688734D01*
X250434151Y-134795845D01*
X250519155Y-134880849D01*
X250626266Y-134935425D01*
X250745000Y-134954231D01*
X250863734Y-134935425D01*
X250970845Y-134880849D01*
X251055849Y-134795845D01*
X251110425Y-134688734D01*
X251129231Y-134570000D01*
X251110425Y-134451266D01*
X251055849Y-134344155D01*
X251055847Y-134344153D01*
X251052428Y-134339447D01*
X251054606Y-134337863D01*
X251037627Y-134301450D01*
X251050728Y-134252555D01*
X251052556Y-134250377D01*
X251055846Y-134245848D01*
X251055846Y-134245847D01*
X251055849Y-134245845D01*
X251110425Y-134138734D01*
X251129231Y-134020000D01*
X251110425Y-133901266D01*
X251055849Y-133794155D01*
X251055847Y-133794153D01*
X251055846Y-133794151D01*
X251052425Y-133789442D01*
X251054605Y-133787858D01*
X251037628Y-133751450D01*
X251050729Y-133702555D01*
X251052556Y-133700377D01*
X251055846Y-133695848D01*
X251055849Y-133695845D01*
X251110425Y-133588734D01*
X251129231Y-133470000D01*
X251110425Y-133351266D01*
X251055849Y-133244155D01*
X250970845Y-133159151D01*
X250863734Y-133104575D01*
X250863731Y-133104574D01*
X250863730Y-133104574D01*
X250745000Y-133085769D01*
X250626269Y-133104574D01*
X250626268Y-133104574D01*
X250626266Y-133104574D01*
X250626266Y-133104575D01*
X250572710Y-133131862D01*
X250519153Y-133159152D01*
X250434152Y-133244153D01*
X250379574Y-133351268D01*
X250379574Y-133351269D01*
X250360769Y-133469999D01*
X250379574Y-133588730D01*
X250379574Y-133588731D01*
X250379574Y-133588732D01*
X250379575Y-133588734D01*
X250434151Y-133695845D01*
X250434153Y-133695848D01*
X250437575Y-133700558D01*
X250435400Y-133702137D01*
X250452375Y-133738589D01*
X250439248Y-133787477D01*
X250437419Y-133789656D01*
X250434153Y-133794151D01*
X250379574Y-133901268D01*
X250379574Y-133901269D01*
X250360769Y-134020000D01*
X250379574Y-134138730D01*
X250379574Y-134138731D01*
X250379574Y-134138732D01*
X250379575Y-134138734D01*
X250434151Y-134245845D01*
X250434153Y-134245848D01*
X250437575Y-134250558D01*
X250435394Y-134252141D01*
X250452372Y-134288550D01*
X250439271Y-134337445D01*
X250437443Y-134339622D01*
X250434153Y-134344151D01*
X250379574Y-134451268D01*
X250379574Y-134451269D01*
X250360769Y-134569999D01*
X248654231Y-134569999D01*
X248635425Y-134451266D01*
X248580849Y-134344155D01*
X248580847Y-134344153D01*
X248580846Y-134344151D01*
X248577425Y-134339442D01*
X248579605Y-134337858D01*
X248562628Y-134301450D01*
X248575729Y-134252555D01*
X248577556Y-134250377D01*
X248580846Y-134245848D01*
X248580845Y-134245848D01*
X248580849Y-134245845D01*
X248635425Y-134138734D01*
X248654231Y-134020000D01*
X248635425Y-133901266D01*
X248580849Y-133794155D01*
X248580847Y-133794153D01*
X248577428Y-133789447D01*
X248579606Y-133787863D01*
X248562627Y-133751450D01*
X248575728Y-133702555D01*
X248577556Y-133700377D01*
X248580846Y-133695848D01*
X248580846Y-133695847D01*
X248580849Y-133695845D01*
X248635425Y-133588734D01*
X248654231Y-133470000D01*
X248635425Y-133351266D01*
X248580849Y-133244155D01*
X248495845Y-133159151D01*
X248388734Y-133104575D01*
X248388731Y-133104574D01*
X248388730Y-133104574D01*
X248270000Y-133085769D01*
X248151269Y-133104574D01*
X248151268Y-133104574D01*
X248151266Y-133104574D01*
X248151266Y-133104575D01*
X248097710Y-133131862D01*
X248044153Y-133159152D01*
X247959152Y-133244153D01*
X247904574Y-133351268D01*
X247904574Y-133351269D01*
X247885769Y-133469999D01*
X247904574Y-133588730D01*
X247904574Y-133588731D01*
X247904574Y-133588732D01*
X247904575Y-133588734D01*
X247959151Y-133695845D01*
X247959153Y-133695848D01*
X247962575Y-133700558D01*
X247960394Y-133702141D01*
X247977372Y-133738550D01*
X247964271Y-133787445D01*
X247962441Y-133789626D01*
X247959151Y-133794154D01*
X247904574Y-133901268D01*
X247904574Y-133901269D01*
X247885769Y-134020000D01*
X247904574Y-134138730D01*
X247904574Y-134138731D01*
X247904574Y-134138732D01*
X247904575Y-134138734D01*
X247959151Y-134245845D01*
X247959153Y-134245848D01*
X247962575Y-134250558D01*
X247960400Y-134252137D01*
X247977375Y-134288589D01*
X247964248Y-134337477D01*
X247962419Y-134339656D01*
X247959153Y-134344151D01*
X247904574Y-134451268D01*
X247904574Y-134451269D01*
X247885769Y-134569999D01*
X171020500Y-134569999D01*
X171020500Y-132895000D01*
X233835769Y-132895000D01*
X233854574Y-133013730D01*
X233854574Y-133013731D01*
X233854574Y-133013732D01*
X233854575Y-133013734D01*
X233909151Y-133120845D01*
X233994155Y-133205849D01*
X234101266Y-133260425D01*
X234220000Y-133279231D01*
X234338734Y-133260425D01*
X234445845Y-133205849D01*
X234530849Y-133120845D01*
X234585425Y-133013734D01*
X234604231Y-132895000D01*
X234585425Y-132776266D01*
X234530849Y-132669155D01*
X234445845Y-132584151D01*
X234338734Y-132529575D01*
X234338731Y-132529574D01*
X234338730Y-132529574D01*
X234220000Y-132510769D01*
X234101269Y-132529574D01*
X234101268Y-132529574D01*
X233994153Y-132584152D01*
X233909152Y-132669153D01*
X233854574Y-132776268D01*
X233854574Y-132776269D01*
X233835769Y-132895000D01*
X171020500Y-132895000D01*
X171020500Y-130044999D01*
X256785769Y-130044999D01*
X256804574Y-130163730D01*
X256804574Y-130163731D01*
X256804574Y-130163732D01*
X256804575Y-130163734D01*
X256859151Y-130270845D01*
X256944155Y-130355849D01*
X257051266Y-130410425D01*
X257170000Y-130429231D01*
X257288734Y-130410425D01*
X257395845Y-130355849D01*
X257480849Y-130270845D01*
X257535425Y-130163734D01*
X257554231Y-130045000D01*
X257535425Y-129926266D01*
X257480849Y-129819155D01*
X257395845Y-129734151D01*
X257288734Y-129679575D01*
X257288731Y-129679574D01*
X257288730Y-129679574D01*
X257170000Y-129660769D01*
X257051269Y-129679574D01*
X257051268Y-129679574D01*
X256944153Y-129734152D01*
X256859152Y-129819153D01*
X256804574Y-129926268D01*
X256804574Y-129926269D01*
X256785769Y-130044999D01*
X171020500Y-130044999D01*
X171020500Y-129570000D01*
X248760769Y-129570000D01*
X248779574Y-129688730D01*
X248779574Y-129688731D01*
X248779574Y-129688732D01*
X248779575Y-129688734D01*
X248834151Y-129795845D01*
X248919155Y-129880849D01*
X249026266Y-129935425D01*
X249145000Y-129954231D01*
X249263734Y-129935425D01*
X249370845Y-129880849D01*
X249455849Y-129795845D01*
X249510425Y-129688734D01*
X249529231Y-129570000D01*
X249510425Y-129451266D01*
X249455849Y-129344155D01*
X249370845Y-129259151D01*
X249263734Y-129204575D01*
X249263731Y-129204574D01*
X249263730Y-129204574D01*
X249145000Y-129185769D01*
X249026269Y-129204574D01*
X249026268Y-129204574D01*
X248919153Y-129259152D01*
X248834152Y-129344153D01*
X248779574Y-129451268D01*
X248779574Y-129451269D01*
X248760769Y-129570000D01*
X171020500Y-129570000D01*
X171020500Y-127770000D01*
X227035769Y-127770000D01*
X227054574Y-127888730D01*
X227054574Y-127888731D01*
X227054574Y-127888732D01*
X227054575Y-127888734D01*
X227109151Y-127995845D01*
X227194155Y-128080849D01*
X227301266Y-128135425D01*
X227420000Y-128154231D01*
X227538734Y-128135425D01*
X227645845Y-128080849D01*
X227730849Y-127995845D01*
X227785425Y-127888734D01*
X227804231Y-127770000D01*
X227785425Y-127651266D01*
X227730849Y-127544155D01*
X227656693Y-127469999D01*
X227935769Y-127469999D01*
X227954574Y-127588730D01*
X227954574Y-127588731D01*
X227954574Y-127588732D01*
X227954575Y-127588734D01*
X228009151Y-127695845D01*
X228094155Y-127780849D01*
X228201266Y-127835425D01*
X228320000Y-127854231D01*
X228438734Y-127835425D01*
X228545845Y-127780849D01*
X228630849Y-127695845D01*
X228685425Y-127588734D01*
X228704231Y-127470000D01*
X228685425Y-127351266D01*
X228682232Y-127345000D01*
X259310769Y-127345000D01*
X259329574Y-127463730D01*
X259329574Y-127463731D01*
X259329574Y-127463732D01*
X259329575Y-127463734D01*
X259384151Y-127570845D01*
X259469155Y-127655849D01*
X259576266Y-127710425D01*
X259695000Y-127729231D01*
X259813734Y-127710425D01*
X259920845Y-127655849D01*
X260005849Y-127570845D01*
X260060425Y-127463734D01*
X260079231Y-127345000D01*
X260060425Y-127226266D01*
X260005849Y-127119155D01*
X259920845Y-127034151D01*
X259813734Y-126979575D01*
X259813731Y-126979574D01*
X259813730Y-126979574D01*
X259695000Y-126960769D01*
X259576269Y-126979574D01*
X259576268Y-126979574D01*
X259469153Y-127034152D01*
X259384152Y-127119153D01*
X259329574Y-127226268D01*
X259329574Y-127226269D01*
X259310769Y-127345000D01*
X228682232Y-127345000D01*
X228630849Y-127244155D01*
X228545845Y-127159151D01*
X228438734Y-127104575D01*
X228438731Y-127104574D01*
X228438730Y-127104574D01*
X228320000Y-127085769D01*
X228201269Y-127104574D01*
X228201268Y-127104574D01*
X228094153Y-127159152D01*
X228009152Y-127244153D01*
X227954574Y-127351268D01*
X227954574Y-127351269D01*
X227935769Y-127469999D01*
X227656693Y-127469999D01*
X227645845Y-127459151D01*
X227538734Y-127404575D01*
X227538731Y-127404574D01*
X227538730Y-127404574D01*
X227420000Y-127385769D01*
X227301269Y-127404574D01*
X227301268Y-127404574D01*
X227194153Y-127459152D01*
X227109152Y-127544153D01*
X227054574Y-127651268D01*
X227054574Y-127651269D01*
X227035769Y-127770000D01*
X171020500Y-127770000D01*
X171020500Y-127095000D01*
X226310769Y-127095000D01*
X226312286Y-127104575D01*
X226329574Y-127213730D01*
X226329574Y-127213731D01*
X226329574Y-127213732D01*
X226329575Y-127213734D01*
X226384151Y-127320845D01*
X226469155Y-127405849D01*
X226576266Y-127460425D01*
X226695000Y-127479231D01*
X226813734Y-127460425D01*
X226920845Y-127405849D01*
X227005849Y-127320845D01*
X227060425Y-127213734D01*
X227079231Y-127095000D01*
X227060425Y-126976266D01*
X227005849Y-126869155D01*
X226920845Y-126784151D01*
X226813734Y-126729575D01*
X226813731Y-126729574D01*
X226813730Y-126729574D01*
X226695000Y-126710769D01*
X226576269Y-126729574D01*
X226576268Y-126729574D01*
X226469153Y-126784152D01*
X226384152Y-126869153D01*
X226329574Y-126976268D01*
X226329574Y-126976269D01*
X226318554Y-127045846D01*
X226310769Y-127095000D01*
X171020500Y-127095000D01*
X171020500Y-126570000D01*
X233435769Y-126570000D01*
X233454574Y-126688730D01*
X233454574Y-126688731D01*
X233454574Y-126688732D01*
X233454575Y-126688734D01*
X233509151Y-126795845D01*
X233594155Y-126880849D01*
X233701266Y-126935425D01*
X233820000Y-126954231D01*
X233938734Y-126935425D01*
X234045845Y-126880849D01*
X234130849Y-126795845D01*
X234185425Y-126688734D01*
X234204231Y-126570000D01*
X234185425Y-126451266D01*
X234182232Y-126445000D01*
X245460769Y-126445000D01*
X245479574Y-126563730D01*
X245479574Y-126563731D01*
X245479574Y-126563732D01*
X245479575Y-126563734D01*
X245534151Y-126670845D01*
X245619155Y-126755849D01*
X245726266Y-126810425D01*
X245845000Y-126829231D01*
X245963734Y-126810425D01*
X246070845Y-126755849D01*
X246070848Y-126755846D01*
X246075558Y-126752425D01*
X246077146Y-126754611D01*
X246113511Y-126737631D01*
X246162412Y-126750706D01*
X246164597Y-126752537D01*
X246169151Y-126755846D01*
X246169153Y-126755847D01*
X246169155Y-126755849D01*
X246276266Y-126810425D01*
X246395000Y-126829231D01*
X246513734Y-126810425D01*
X246620845Y-126755849D01*
X246620847Y-126755846D01*
X246625558Y-126752425D01*
X246627146Y-126754610D01*
X246663512Y-126737630D01*
X246712413Y-126750705D01*
X246714596Y-126752536D01*
X246719151Y-126755846D01*
X246719153Y-126755847D01*
X246719155Y-126755849D01*
X246826266Y-126810425D01*
X246945000Y-126829231D01*
X247003287Y-126819999D01*
X253535769Y-126819999D01*
X253554574Y-126938730D01*
X253554574Y-126938731D01*
X253554574Y-126938732D01*
X253554575Y-126938734D01*
X253609151Y-127045845D01*
X253694155Y-127130849D01*
X253801266Y-127185425D01*
X253920000Y-127204231D01*
X254038734Y-127185425D01*
X254145845Y-127130849D01*
X254230849Y-127045845D01*
X254285425Y-126938734D01*
X254304231Y-126820000D01*
X254585769Y-126820000D01*
X254604574Y-126938730D01*
X254604574Y-126938731D01*
X254604574Y-126938732D01*
X254604575Y-126938734D01*
X254659151Y-127045845D01*
X254744155Y-127130849D01*
X254851266Y-127185425D01*
X254970000Y-127204231D01*
X255088734Y-127185425D01*
X255195845Y-127130849D01*
X255280849Y-127045845D01*
X255335425Y-126938734D01*
X255354231Y-126820000D01*
X255335425Y-126701266D01*
X255280849Y-126594155D01*
X255195845Y-126509151D01*
X255088734Y-126454575D01*
X255088731Y-126454574D01*
X255088730Y-126454574D01*
X254970000Y-126435769D01*
X254851269Y-126454574D01*
X254851268Y-126454574D01*
X254744153Y-126509152D01*
X254659152Y-126594153D01*
X254604574Y-126701268D01*
X254604574Y-126701269D01*
X254585769Y-126820000D01*
X254304231Y-126820000D01*
X254285425Y-126701266D01*
X254230849Y-126594155D01*
X254145845Y-126509151D01*
X254038734Y-126454575D01*
X254038731Y-126454574D01*
X254038730Y-126454574D01*
X253920000Y-126435769D01*
X253801269Y-126454574D01*
X253801268Y-126454574D01*
X253694153Y-126509152D01*
X253609152Y-126594153D01*
X253554574Y-126701268D01*
X253554574Y-126701269D01*
X253535769Y-126819999D01*
X247003287Y-126819999D01*
X247063734Y-126810425D01*
X247170845Y-126755849D01*
X247255849Y-126670845D01*
X247310425Y-126563734D01*
X247329231Y-126445000D01*
X247310425Y-126326266D01*
X247255849Y-126219155D01*
X247170845Y-126134151D01*
X247063734Y-126079575D01*
X247063731Y-126079574D01*
X247063730Y-126079574D01*
X246945000Y-126060769D01*
X246826269Y-126079574D01*
X246826268Y-126079574D01*
X246719154Y-126134151D01*
X246714447Y-126137572D01*
X246712868Y-126135399D01*
X246676411Y-126152376D01*
X246627523Y-126139249D01*
X246625340Y-126137417D01*
X246620845Y-126134151D01*
X246513734Y-126079575D01*
X246513731Y-126079574D01*
X246513730Y-126079574D01*
X246395000Y-126060769D01*
X246276269Y-126079574D01*
X246276268Y-126079574D01*
X246169151Y-126134153D01*
X246164442Y-126137575D01*
X246162866Y-126135406D01*
X246126371Y-126152378D01*
X246077490Y-126139225D01*
X246075318Y-126137400D01*
X246070848Y-126134153D01*
X246070845Y-126134151D01*
X245963734Y-126079575D01*
X245963731Y-126079574D01*
X245963730Y-126079574D01*
X245845000Y-126060769D01*
X245726269Y-126079574D01*
X245726268Y-126079574D01*
X245726266Y-126079574D01*
X245726266Y-126079575D01*
X245672710Y-126106863D01*
X245619153Y-126134152D01*
X245534152Y-126219153D01*
X245479574Y-126326268D01*
X245479574Y-126326269D01*
X245460769Y-126445000D01*
X234182232Y-126445000D01*
X234130849Y-126344155D01*
X234045845Y-126259151D01*
X233938734Y-126204575D01*
X233938731Y-126204574D01*
X233938730Y-126204574D01*
X233820000Y-126185769D01*
X233701269Y-126204574D01*
X233701268Y-126204574D01*
X233594153Y-126259152D01*
X233509152Y-126344153D01*
X233454574Y-126451268D01*
X233454574Y-126451269D01*
X233435769Y-126570000D01*
X171020500Y-126570000D01*
X171020500Y-126169999D01*
X226335769Y-126169999D01*
X226354574Y-126288730D01*
X226354574Y-126288731D01*
X226354574Y-126288732D01*
X226354575Y-126288734D01*
X226409151Y-126395845D01*
X226494155Y-126480849D01*
X226601266Y-126535425D01*
X226720000Y-126554231D01*
X226838734Y-126535425D01*
X226945845Y-126480849D01*
X227030849Y-126395845D01*
X227085425Y-126288734D01*
X227104231Y-126170000D01*
X227085425Y-126051266D01*
X227030849Y-125944155D01*
X226956694Y-125870000D01*
X234135769Y-125870000D01*
X234154574Y-125988730D01*
X234154574Y-125988731D01*
X234154574Y-125988732D01*
X234154575Y-125988734D01*
X234209151Y-126095845D01*
X234294155Y-126180849D01*
X234401266Y-126235425D01*
X234520000Y-126254231D01*
X234638734Y-126235425D01*
X234745845Y-126180849D01*
X234830849Y-126095845D01*
X234885425Y-125988734D01*
X234904231Y-125870000D01*
X234885425Y-125751266D01*
X234830849Y-125644155D01*
X234745845Y-125559151D01*
X234638734Y-125504575D01*
X234638731Y-125504574D01*
X234638730Y-125504574D01*
X234520000Y-125485769D01*
X234401269Y-125504574D01*
X234401268Y-125504574D01*
X234294153Y-125559152D01*
X234209152Y-125644153D01*
X234154574Y-125751268D01*
X234154574Y-125751269D01*
X234135769Y-125870000D01*
X226956694Y-125870000D01*
X226945845Y-125859151D01*
X226838734Y-125804575D01*
X226838731Y-125804574D01*
X226838730Y-125804574D01*
X226720000Y-125785769D01*
X226601269Y-125804574D01*
X226601268Y-125804574D01*
X226494153Y-125859152D01*
X226409152Y-125944153D01*
X226354574Y-126051268D01*
X226354574Y-126051269D01*
X226335769Y-126169999D01*
X171020500Y-126169999D01*
X171020500Y-124969999D01*
X225335769Y-124969999D01*
X225354574Y-125088730D01*
X225354574Y-125088731D01*
X225354574Y-125088732D01*
X225354575Y-125088734D01*
X225409151Y-125195845D01*
X225494155Y-125280849D01*
X225601266Y-125335425D01*
X225720000Y-125354231D01*
X225838734Y-125335425D01*
X225945845Y-125280849D01*
X226030849Y-125195845D01*
X226085425Y-125088734D01*
X226104231Y-124970000D01*
X226085425Y-124851266D01*
X226030849Y-124744155D01*
X225956693Y-124669999D01*
X246010769Y-124669999D01*
X246029574Y-124788730D01*
X246029574Y-124788731D01*
X246029574Y-124788732D01*
X246029575Y-124788734D01*
X246084151Y-124895845D01*
X246169155Y-124980849D01*
X246276266Y-125035425D01*
X246395000Y-125054231D01*
X246453281Y-125045000D01*
X261235769Y-125045000D01*
X261254574Y-125163730D01*
X261254574Y-125163731D01*
X261254574Y-125163732D01*
X261254575Y-125163734D01*
X261309151Y-125270845D01*
X261394155Y-125355849D01*
X261501266Y-125410425D01*
X261620000Y-125429231D01*
X261738734Y-125410425D01*
X261845845Y-125355849D01*
X261930849Y-125270845D01*
X261985425Y-125163734D01*
X262004231Y-125045000D01*
X261985425Y-124926266D01*
X261930849Y-124819155D01*
X261930847Y-124819153D01*
X261930846Y-124819151D01*
X261927425Y-124814442D01*
X261929605Y-124812858D01*
X261912628Y-124776450D01*
X261925729Y-124727555D01*
X261927556Y-124725377D01*
X261930846Y-124720848D01*
X261930845Y-124720848D01*
X261930849Y-124720845D01*
X261985425Y-124613734D01*
X262004231Y-124495000D01*
X261985425Y-124376266D01*
X261930849Y-124269155D01*
X261930847Y-124269153D01*
X261930846Y-124269151D01*
X261927425Y-124264442D01*
X261929604Y-124262858D01*
X261912627Y-124226449D01*
X261925728Y-124177554D01*
X261927555Y-124175378D01*
X261930846Y-124170848D01*
X261930846Y-124170847D01*
X261930849Y-124170845D01*
X261985425Y-124063734D01*
X262004231Y-123945000D01*
X261985425Y-123826266D01*
X261930849Y-123719155D01*
X261845845Y-123634151D01*
X261738734Y-123579575D01*
X261738731Y-123579574D01*
X261738730Y-123579574D01*
X261620000Y-123560769D01*
X261501269Y-123579574D01*
X261501268Y-123579574D01*
X261394153Y-123634152D01*
X261309152Y-123719153D01*
X261254574Y-123826268D01*
X261254574Y-123826269D01*
X261235769Y-123944999D01*
X261254574Y-124063730D01*
X261254574Y-124063731D01*
X261254574Y-124063732D01*
X261254575Y-124063734D01*
X261309151Y-124170845D01*
X261309153Y-124170848D01*
X261312575Y-124175558D01*
X261310400Y-124177137D01*
X261327375Y-124213589D01*
X261314248Y-124262477D01*
X261312419Y-124264656D01*
X261309153Y-124269151D01*
X261254574Y-124376268D01*
X261254574Y-124376269D01*
X261235769Y-124494999D01*
X261254574Y-124613730D01*
X261254574Y-124613731D01*
X261254574Y-124613732D01*
X261254575Y-124613734D01*
X261309151Y-124720845D01*
X261309153Y-124720848D01*
X261312575Y-124725558D01*
X261310394Y-124727141D01*
X261327372Y-124763550D01*
X261314271Y-124812445D01*
X261312443Y-124814622D01*
X261309153Y-124819151D01*
X261254574Y-124926268D01*
X261254574Y-124926269D01*
X261235769Y-125045000D01*
X246453281Y-125045000D01*
X246513734Y-125035425D01*
X246620845Y-124980849D01*
X246705849Y-124895845D01*
X246760425Y-124788734D01*
X246779231Y-124670000D01*
X246760425Y-124551266D01*
X246705849Y-124444155D01*
X246620845Y-124359151D01*
X246513734Y-124304575D01*
X246513731Y-124304574D01*
X246513730Y-124304574D01*
X246395000Y-124285769D01*
X246276269Y-124304574D01*
X246276268Y-124304574D01*
X246169153Y-124359152D01*
X246084152Y-124444153D01*
X246029574Y-124551268D01*
X246029574Y-124551269D01*
X246010769Y-124669999D01*
X225956693Y-124669999D01*
X225945845Y-124659151D01*
X225838734Y-124604575D01*
X225838731Y-124604574D01*
X225838730Y-124604574D01*
X225720000Y-124585769D01*
X225601269Y-124604574D01*
X225601268Y-124604574D01*
X225494153Y-124659152D01*
X225409152Y-124744153D01*
X225354574Y-124851268D01*
X225354574Y-124851269D01*
X225335769Y-124969999D01*
X171020500Y-124969999D01*
X171020500Y-122208698D01*
X192629500Y-122208698D01*
X192644698Y-122324148D01*
X192644698Y-122324149D01*
X192644699Y-122324151D01*
X192704200Y-122467798D01*
X192798851Y-122591149D01*
X192922202Y-122685800D01*
X193065849Y-122745301D01*
X193181299Y-122760500D01*
X194258700Y-122760499D01*
X194374151Y-122745301D01*
X194517798Y-122685800D01*
X194641149Y-122591149D01*
X194735800Y-122467798D01*
X194795301Y-122324151D01*
X194810500Y-122208701D01*
X194810500Y-122208698D01*
X214629500Y-122208698D01*
X214644698Y-122324148D01*
X214644698Y-122324149D01*
X214644699Y-122324151D01*
X214704200Y-122467798D01*
X214798851Y-122591149D01*
X214922202Y-122685800D01*
X215065849Y-122745301D01*
X215181299Y-122760500D01*
X216258700Y-122760499D01*
X216374151Y-122745301D01*
X216517798Y-122685800D01*
X216641149Y-122591149D01*
X216735800Y-122467798D01*
X216795301Y-122324151D01*
X216810500Y-122208701D01*
X216810500Y-122044999D01*
X233435769Y-122044999D01*
X233454574Y-122163730D01*
X233454574Y-122163731D01*
X233454574Y-122163732D01*
X233454575Y-122163734D01*
X233509151Y-122270845D01*
X233594155Y-122355849D01*
X233701266Y-122410425D01*
X233820000Y-122429231D01*
X233938734Y-122410425D01*
X234045845Y-122355849D01*
X234130849Y-122270845D01*
X234185425Y-122163734D01*
X234204231Y-122045000D01*
X234185425Y-121926266D01*
X234130849Y-121819155D01*
X234045845Y-121734151D01*
X233938734Y-121679575D01*
X233938731Y-121679574D01*
X233938730Y-121679574D01*
X233820000Y-121660769D01*
X233701269Y-121679574D01*
X233701268Y-121679574D01*
X233594153Y-121734152D01*
X233509152Y-121819153D01*
X233454574Y-121926268D01*
X233454574Y-121926269D01*
X233435769Y-122044999D01*
X216810500Y-122044999D01*
X216810499Y-119444999D01*
X258060769Y-119444999D01*
X258079574Y-119563730D01*
X258079574Y-119563731D01*
X258079574Y-119563732D01*
X258079575Y-119563734D01*
X258134151Y-119670845D01*
X258219155Y-119755849D01*
X258326266Y-119810425D01*
X258445000Y-119829231D01*
X258563734Y-119810425D01*
X258670845Y-119755849D01*
X258755849Y-119670845D01*
X258810425Y-119563734D01*
X258829231Y-119445000D01*
X258810425Y-119326266D01*
X258755849Y-119219155D01*
X258755847Y-119219153D01*
X258755846Y-119219151D01*
X258752425Y-119214442D01*
X258754605Y-119212858D01*
X258737628Y-119176450D01*
X258750729Y-119127555D01*
X258752556Y-119125377D01*
X258755846Y-119120848D01*
X258755846Y-119120847D01*
X258755849Y-119120845D01*
X258810425Y-119013734D01*
X258829231Y-118895000D01*
X258810425Y-118776266D01*
X258755849Y-118669155D01*
X258755847Y-118669153D01*
X258755846Y-118669151D01*
X258752425Y-118664442D01*
X258754610Y-118662853D01*
X258737630Y-118626488D01*
X258750705Y-118577587D01*
X258752536Y-118575403D01*
X258755846Y-118570848D01*
X258755846Y-118570847D01*
X258755849Y-118570845D01*
X258810425Y-118463734D01*
X258829231Y-118345000D01*
X258810425Y-118226266D01*
X258755849Y-118119155D01*
X258670845Y-118034151D01*
X258563734Y-117979575D01*
X258563731Y-117979574D01*
X258563730Y-117979574D01*
X258445000Y-117960769D01*
X258326269Y-117979574D01*
X258326268Y-117979574D01*
X258219153Y-118034152D01*
X258134152Y-118119153D01*
X258079574Y-118226268D01*
X258079574Y-118226269D01*
X258060769Y-118345000D01*
X258079574Y-118463730D01*
X258079574Y-118463731D01*
X258079574Y-118463732D01*
X258079575Y-118463734D01*
X258134151Y-118570845D01*
X258134153Y-118570848D01*
X258137575Y-118575558D01*
X258135388Y-118577146D01*
X258152369Y-118613511D01*
X258139294Y-118662412D01*
X258137462Y-118664597D01*
X258134153Y-118669151D01*
X258079574Y-118776268D01*
X258079574Y-118776269D01*
X258060769Y-118895000D01*
X258079574Y-119013730D01*
X258079574Y-119013731D01*
X258079574Y-119013732D01*
X258079575Y-119013734D01*
X258134151Y-119120845D01*
X258137572Y-119125553D01*
X258135399Y-119127131D01*
X258152376Y-119163589D01*
X258139249Y-119212477D01*
X258137417Y-119214659D01*
X258134151Y-119219154D01*
X258079574Y-119326268D01*
X258079574Y-119326269D01*
X258060769Y-119444999D01*
X216810499Y-119444999D01*
X216810499Y-117867500D01*
X231155768Y-117867500D01*
X231174573Y-117986230D01*
X231174573Y-117986231D01*
X231174573Y-117986232D01*
X231174574Y-117986234D01*
X231229150Y-118093345D01*
X231314154Y-118178349D01*
X231421265Y-118232925D01*
X231539999Y-118251731D01*
X231658733Y-118232925D01*
X231765844Y-118178349D01*
X231850848Y-118093345D01*
X231905424Y-117986234D01*
X231921854Y-117882500D01*
X249185769Y-117882500D01*
X249204574Y-118001230D01*
X249204574Y-118001231D01*
X249204574Y-118001232D01*
X249204575Y-118001234D01*
X249259151Y-118108345D01*
X249344155Y-118193349D01*
X249451266Y-118247925D01*
X249570000Y-118266731D01*
X249688734Y-118247925D01*
X249795845Y-118193349D01*
X249880849Y-118108345D01*
X249935425Y-118001234D01*
X249954231Y-117882500D01*
X249935425Y-117763766D01*
X249880849Y-117656655D01*
X249795845Y-117571651D01*
X249688734Y-117517075D01*
X249688731Y-117517074D01*
X249688730Y-117517074D01*
X249570000Y-117498269D01*
X249451269Y-117517074D01*
X249451268Y-117517074D01*
X249344153Y-117571652D01*
X249259152Y-117656653D01*
X249204574Y-117763768D01*
X249204574Y-117763769D01*
X249185769Y-117882500D01*
X231921854Y-117882500D01*
X231924230Y-117867500D01*
X231905424Y-117748766D01*
X231850848Y-117641655D01*
X231765844Y-117556651D01*
X231658733Y-117502075D01*
X231658730Y-117502074D01*
X231658729Y-117502074D01*
X231539999Y-117483269D01*
X231421268Y-117502074D01*
X231421267Y-117502074D01*
X231314152Y-117556652D01*
X231229151Y-117641653D01*
X231174573Y-117748768D01*
X231174573Y-117748769D01*
X231155768Y-117867500D01*
X216810499Y-117867500D01*
X216810499Y-117531300D01*
X216795301Y-117415849D01*
X216735800Y-117272202D01*
X216641149Y-117148851D01*
X216517798Y-117054200D01*
X216517798Y-117054199D01*
X216374150Y-116994698D01*
X216285560Y-116983036D01*
X216258701Y-116979500D01*
X216258699Y-116979500D01*
X215181300Y-116979500D01*
X215065851Y-116994698D01*
X215065850Y-116994698D01*
X214922201Y-117054200D01*
X214798851Y-117148851D01*
X214704200Y-117272201D01*
X214644698Y-117415849D01*
X214629500Y-117531300D01*
X214629500Y-122208698D01*
X194810500Y-122208698D01*
X194810499Y-117531300D01*
X194795301Y-117415849D01*
X194735800Y-117272202D01*
X194641149Y-117148851D01*
X194517798Y-117054200D01*
X194517797Y-117054200D01*
X194374150Y-116994698D01*
X194285560Y-116983036D01*
X194258701Y-116979500D01*
X194258699Y-116979500D01*
X193181300Y-116979500D01*
X193065851Y-116994698D01*
X193065850Y-116994698D01*
X192922201Y-117054200D01*
X192798851Y-117148851D01*
X192704200Y-117272201D01*
X192644698Y-117415849D01*
X192629500Y-117531300D01*
X192629500Y-122208698D01*
X171020500Y-122208698D01*
X171020500Y-115432500D01*
X223835769Y-115432500D01*
X223854574Y-115551230D01*
X223854574Y-115551231D01*
X223854574Y-115551232D01*
X223854575Y-115551234D01*
X223909151Y-115658345D01*
X223994155Y-115743349D01*
X224101266Y-115797925D01*
X224220000Y-115816731D01*
X224338734Y-115797925D01*
X224445845Y-115743349D01*
X224530849Y-115658345D01*
X224585425Y-115551234D01*
X224596312Y-115482499D01*
X241835769Y-115482499D01*
X241854574Y-115601230D01*
X241854574Y-115601231D01*
X241854574Y-115601232D01*
X241854575Y-115601234D01*
X241909151Y-115708345D01*
X241994155Y-115793349D01*
X242101266Y-115847925D01*
X242220000Y-115866731D01*
X242338734Y-115847925D01*
X242445845Y-115793349D01*
X242530849Y-115708345D01*
X242585425Y-115601234D01*
X242604231Y-115482500D01*
X242585425Y-115363766D01*
X242530849Y-115256655D01*
X242445845Y-115171651D01*
X242338734Y-115117075D01*
X242338731Y-115117074D01*
X242338730Y-115117074D01*
X242220000Y-115098269D01*
X242101269Y-115117074D01*
X242101268Y-115117074D01*
X241994153Y-115171652D01*
X241909152Y-115256653D01*
X241854574Y-115363768D01*
X241854574Y-115363769D01*
X241835769Y-115482499D01*
X224596312Y-115482499D01*
X224604231Y-115432500D01*
X224585425Y-115313766D01*
X224530849Y-115206655D01*
X224445845Y-115121651D01*
X224338734Y-115067075D01*
X224338731Y-115067074D01*
X224338730Y-115067074D01*
X224220000Y-115048269D01*
X224101269Y-115067074D01*
X224101268Y-115067074D01*
X223994153Y-115121652D01*
X223909152Y-115206653D01*
X223854574Y-115313768D01*
X223854574Y-115313769D01*
X223835769Y-115432500D01*
X171020500Y-115432500D01*
X171020500Y-114807500D01*
X232160768Y-114807500D01*
X232179573Y-114926230D01*
X232179573Y-114926231D01*
X232179573Y-114926232D01*
X232179574Y-114926234D01*
X232234150Y-115033345D01*
X232319154Y-115118349D01*
X232426265Y-115172925D01*
X232544999Y-115191731D01*
X232663733Y-115172925D01*
X232770844Y-115118349D01*
X232855848Y-115033345D01*
X232910424Y-114926234D01*
X232917351Y-114882500D01*
X250160769Y-114882500D01*
X250179574Y-115001230D01*
X250179574Y-115001231D01*
X250179574Y-115001232D01*
X250179575Y-115001234D01*
X250234151Y-115108345D01*
X250319155Y-115193349D01*
X250426266Y-115247925D01*
X250545000Y-115266731D01*
X250663734Y-115247925D01*
X250770845Y-115193349D01*
X250855849Y-115108345D01*
X250910425Y-115001234D01*
X250929231Y-114882500D01*
X250910425Y-114763766D01*
X250855849Y-114656655D01*
X250770845Y-114571651D01*
X250663734Y-114517075D01*
X250663731Y-114517074D01*
X250663730Y-114517074D01*
X250545000Y-114498269D01*
X250426269Y-114517074D01*
X250426268Y-114517074D01*
X250319153Y-114571652D01*
X250234152Y-114656653D01*
X250179574Y-114763768D01*
X250179574Y-114763769D01*
X250160769Y-114882500D01*
X232917351Y-114882500D01*
X232929230Y-114807500D01*
X232910424Y-114688766D01*
X232855848Y-114581655D01*
X232770844Y-114496651D01*
X232663733Y-114442075D01*
X232663730Y-114442074D01*
X232663729Y-114442074D01*
X232544999Y-114423269D01*
X232426268Y-114442074D01*
X232426267Y-114442074D01*
X232319152Y-114496652D01*
X232234151Y-114581653D01*
X232179573Y-114688768D01*
X232179573Y-114688769D01*
X232160768Y-114807500D01*
X171020500Y-114807500D01*
X171020500Y-112595000D01*
X223335769Y-112595000D01*
X223354574Y-112713730D01*
X223354574Y-112713731D01*
X223354574Y-112713732D01*
X223354575Y-112713734D01*
X223409151Y-112820845D01*
X223494155Y-112905849D01*
X223601266Y-112960425D01*
X223720000Y-112979231D01*
X223838734Y-112960425D01*
X223945845Y-112905849D01*
X224030849Y-112820845D01*
X224085425Y-112713734D01*
X224104231Y-112595000D01*
X232335769Y-112595000D01*
X232354574Y-112713730D01*
X232354574Y-112713731D01*
X232354574Y-112713732D01*
X232354575Y-112713734D01*
X232409151Y-112820845D01*
X232494155Y-112905849D01*
X232601266Y-112960425D01*
X232720000Y-112979231D01*
X232838734Y-112960425D01*
X232945845Y-112905849D01*
X233030849Y-112820845D01*
X233085425Y-112713734D01*
X233104231Y-112595000D01*
X241335769Y-112595000D01*
X241354574Y-112713730D01*
X241354574Y-112713731D01*
X241354574Y-112713732D01*
X241354575Y-112713734D01*
X241409151Y-112820845D01*
X241494155Y-112905849D01*
X241601266Y-112960425D01*
X241720000Y-112979231D01*
X241838734Y-112960425D01*
X241945845Y-112905849D01*
X242030849Y-112820845D01*
X242085425Y-112713734D01*
X242104231Y-112595000D01*
X250335769Y-112595000D01*
X250354574Y-112713730D01*
X250354574Y-112713731D01*
X250354574Y-112713732D01*
X250354575Y-112713734D01*
X250409151Y-112820845D01*
X250494155Y-112905849D01*
X250601266Y-112960425D01*
X250720000Y-112979231D01*
X250838734Y-112960425D01*
X250945845Y-112905849D01*
X251030849Y-112820845D01*
X251085425Y-112713734D01*
X251104231Y-112595000D01*
X251085425Y-112476266D01*
X251030849Y-112369155D01*
X250945845Y-112284151D01*
X250838734Y-112229575D01*
X250838731Y-112229574D01*
X250838730Y-112229574D01*
X250720000Y-112210769D01*
X250601269Y-112229574D01*
X250601268Y-112229574D01*
X250494153Y-112284152D01*
X250409152Y-112369153D01*
X250354574Y-112476268D01*
X250354574Y-112476269D01*
X250335769Y-112595000D01*
X242104231Y-112595000D01*
X242085425Y-112476266D01*
X242030849Y-112369155D01*
X241945845Y-112284151D01*
X241838734Y-112229575D01*
X241838731Y-112229574D01*
X241838730Y-112229574D01*
X241720000Y-112210769D01*
X241601269Y-112229574D01*
X241601268Y-112229574D01*
X241494153Y-112284152D01*
X241409152Y-112369153D01*
X241354574Y-112476268D01*
X241354574Y-112476269D01*
X241335769Y-112595000D01*
X233104231Y-112595000D01*
X233085425Y-112476266D01*
X233030849Y-112369155D01*
X232945845Y-112284151D01*
X232838734Y-112229575D01*
X232838731Y-112229574D01*
X232838730Y-112229574D01*
X232720000Y-112210769D01*
X232601269Y-112229574D01*
X232601268Y-112229574D01*
X232494153Y-112284152D01*
X232409152Y-112369153D01*
X232354574Y-112476268D01*
X232354574Y-112476269D01*
X232335769Y-112595000D01*
X224104231Y-112595000D01*
X224085425Y-112476266D01*
X224030849Y-112369155D01*
X223945845Y-112284151D01*
X223838734Y-112229575D01*
X223838731Y-112229574D01*
X223838730Y-112229574D01*
X223720000Y-112210769D01*
X223601269Y-112229574D01*
X223601268Y-112229574D01*
X223494153Y-112284152D01*
X223409152Y-112369153D01*
X223354574Y-112476268D01*
X223354574Y-112476269D01*
X223335769Y-112595000D01*
X171020500Y-112595000D01*
X171020500Y-109670000D01*
X220824595Y-109670000D01*
X220844163Y-109856170D01*
X220902005Y-110034190D01*
X220902006Y-110034192D01*
X220902007Y-110034194D01*
X220995602Y-110196306D01*
X221080315Y-110290390D01*
X221120859Y-110335418D01*
X221272290Y-110445439D01*
X221272297Y-110445443D01*
X221443305Y-110521581D01*
X221626405Y-110560500D01*
X221626406Y-110560500D01*
X221813594Y-110560500D01*
X221813595Y-110560500D01*
X221996695Y-110521581D01*
X222167703Y-110445443D01*
X222319143Y-110335416D01*
X222444398Y-110196306D01*
X222537993Y-110034194D01*
X222595838Y-109856165D01*
X222615405Y-109670000D01*
X222824595Y-109670000D01*
X222844163Y-109856170D01*
X222902005Y-110034190D01*
X222902006Y-110034192D01*
X222902007Y-110034194D01*
X222995602Y-110196306D01*
X223080315Y-110290390D01*
X223120859Y-110335418D01*
X223272290Y-110445439D01*
X223272297Y-110445443D01*
X223443305Y-110521581D01*
X223626405Y-110560500D01*
X223626406Y-110560500D01*
X223813594Y-110560500D01*
X223813595Y-110560500D01*
X223996695Y-110521581D01*
X224167703Y-110445443D01*
X224319143Y-110335416D01*
X224444398Y-110196306D01*
X224537993Y-110034194D01*
X224595838Y-109856165D01*
X224615405Y-109670000D01*
X229824595Y-109670000D01*
X229844163Y-109856170D01*
X229902005Y-110034190D01*
X229902006Y-110034192D01*
X229902007Y-110034194D01*
X229995602Y-110196306D01*
X230080315Y-110290390D01*
X230120859Y-110335418D01*
X230272290Y-110445439D01*
X230272297Y-110445443D01*
X230443305Y-110521581D01*
X230626405Y-110560500D01*
X230626406Y-110560500D01*
X230813594Y-110560500D01*
X230813595Y-110560500D01*
X230996695Y-110521581D01*
X231167703Y-110445443D01*
X231319143Y-110335416D01*
X231444398Y-110196306D01*
X231537993Y-110034194D01*
X231595838Y-109856165D01*
X231615405Y-109670000D01*
X231824595Y-109670000D01*
X231844163Y-109856170D01*
X231902005Y-110034190D01*
X231902006Y-110034192D01*
X231902007Y-110034194D01*
X231995602Y-110196306D01*
X232080315Y-110290390D01*
X232120859Y-110335418D01*
X232272290Y-110445439D01*
X232272297Y-110445443D01*
X232443305Y-110521581D01*
X232626405Y-110560500D01*
X232626406Y-110560500D01*
X232813594Y-110560500D01*
X232813595Y-110560500D01*
X232996695Y-110521581D01*
X233167703Y-110445443D01*
X233319143Y-110335416D01*
X233444398Y-110196306D01*
X233537993Y-110034194D01*
X233595838Y-109856165D01*
X233615405Y-109670000D01*
X238824595Y-109670000D01*
X238844163Y-109856170D01*
X238902005Y-110034190D01*
X238902006Y-110034192D01*
X238902007Y-110034194D01*
X238995602Y-110196306D01*
X239080315Y-110290390D01*
X239120859Y-110335418D01*
X239272290Y-110445439D01*
X239272297Y-110445443D01*
X239443305Y-110521581D01*
X239626405Y-110560500D01*
X239626406Y-110560500D01*
X239813594Y-110560500D01*
X239813595Y-110560500D01*
X239996695Y-110521581D01*
X240167703Y-110445443D01*
X240319143Y-110335416D01*
X240444398Y-110196306D01*
X240537993Y-110034194D01*
X240595838Y-109856165D01*
X240615405Y-109670000D01*
X240824595Y-109670000D01*
X240844163Y-109856170D01*
X240902005Y-110034190D01*
X240902006Y-110034192D01*
X240902007Y-110034194D01*
X240995602Y-110196306D01*
X241080315Y-110290390D01*
X241120859Y-110335418D01*
X241272290Y-110445439D01*
X241272297Y-110445443D01*
X241443305Y-110521581D01*
X241626405Y-110560500D01*
X241626406Y-110560500D01*
X241813594Y-110560500D01*
X241813595Y-110560500D01*
X241996695Y-110521581D01*
X242167703Y-110445443D01*
X242319143Y-110335416D01*
X242444398Y-110196306D01*
X242537993Y-110034194D01*
X242595838Y-109856165D01*
X242615405Y-109670000D01*
X247824595Y-109670000D01*
X247844163Y-109856170D01*
X247902005Y-110034190D01*
X247902006Y-110034192D01*
X247902007Y-110034194D01*
X247995602Y-110196306D01*
X248080315Y-110290390D01*
X248120859Y-110335418D01*
X248272290Y-110445439D01*
X248272297Y-110445443D01*
X248443305Y-110521581D01*
X248626405Y-110560500D01*
X248626406Y-110560500D01*
X248813594Y-110560500D01*
X248813595Y-110560500D01*
X248996695Y-110521581D01*
X249167703Y-110445443D01*
X249319143Y-110335416D01*
X249444398Y-110196306D01*
X249537993Y-110034194D01*
X249595838Y-109856165D01*
X249615405Y-109670000D01*
X249824595Y-109670000D01*
X249844163Y-109856170D01*
X249902005Y-110034190D01*
X249902006Y-110034192D01*
X249902007Y-110034194D01*
X249995602Y-110196306D01*
X250080315Y-110290390D01*
X250120859Y-110335418D01*
X250272290Y-110445439D01*
X250272297Y-110445443D01*
X250443305Y-110521581D01*
X250626405Y-110560500D01*
X250626406Y-110560500D01*
X250813594Y-110560500D01*
X250813595Y-110560500D01*
X250996695Y-110521581D01*
X251167703Y-110445443D01*
X251319143Y-110335416D01*
X251444398Y-110196306D01*
X251537993Y-110034194D01*
X251588100Y-109879980D01*
X259425780Y-109879980D01*
X259433127Y-110034190D01*
X259435690Y-110088000D01*
X259484789Y-110290390D01*
X259571304Y-110479830D01*
X259633754Y-110567529D01*
X259692107Y-110649474D01*
X259842828Y-110793187D01*
X259842830Y-110793188D01*
X259842832Y-110793190D01*
X260018031Y-110905784D01*
X260211373Y-110983186D01*
X260415870Y-111022600D01*
X260415871Y-111022600D01*
X262571936Y-111022600D01*
X262571944Y-111022600D01*
X262727317Y-111007764D01*
X262927141Y-110949090D01*
X263112250Y-110853660D01*
X263275954Y-110724922D01*
X263412335Y-110567529D01*
X263516465Y-110387171D01*
X263584581Y-110190364D01*
X263614219Y-109984224D01*
X263604310Y-109776200D01*
X263555211Y-109573810D01*
X263468696Y-109384370D01*
X263347893Y-109214726D01*
X263273396Y-109143693D01*
X263197171Y-109071012D01*
X263093808Y-109004584D01*
X263021969Y-108958416D01*
X262913793Y-108915109D01*
X262828625Y-108881013D01*
X262672952Y-108851009D01*
X262624130Y-108841600D01*
X260468056Y-108841600D01*
X260436981Y-108844567D01*
X260312679Y-108856436D01*
X260112860Y-108915109D01*
X259927751Y-109010539D01*
X259764048Y-109139276D01*
X259764046Y-109139277D01*
X259764046Y-109139278D01*
X259760220Y-109143694D01*
X259627665Y-109296671D01*
X259523535Y-109477029D01*
X259523533Y-109477033D01*
X259455420Y-109673832D01*
X259455419Y-109673835D01*
X259425780Y-109879980D01*
X251588100Y-109879980D01*
X251595838Y-109856165D01*
X251615405Y-109670000D01*
X251595838Y-109483835D01*
X251537993Y-109305806D01*
X251444398Y-109143694D01*
X251319143Y-109004584D01*
X251319142Y-109004583D01*
X251319140Y-109004581D01*
X251167709Y-108894560D01*
X251167702Y-108894556D01*
X250996696Y-108818419D01*
X250996694Y-108818418D01*
X250852513Y-108787772D01*
X250813595Y-108779500D01*
X250626405Y-108779500D01*
X250594309Y-108786322D01*
X250443305Y-108818418D01*
X250443303Y-108818419D01*
X250272301Y-108894555D01*
X250120854Y-109004586D01*
X249995602Y-109143693D01*
X249902005Y-109305809D01*
X249844163Y-109483829D01*
X249824595Y-109670000D01*
X249615405Y-109670000D01*
X249595838Y-109483835D01*
X249537993Y-109305806D01*
X249444398Y-109143694D01*
X249319143Y-109004584D01*
X249319142Y-109004583D01*
X249319140Y-109004581D01*
X249167709Y-108894560D01*
X249167702Y-108894556D01*
X248996696Y-108818419D01*
X248996694Y-108818418D01*
X248852513Y-108787772D01*
X248813595Y-108779500D01*
X248626405Y-108779500D01*
X248594309Y-108786322D01*
X248443305Y-108818418D01*
X248443303Y-108818419D01*
X248272301Y-108894555D01*
X248120854Y-109004586D01*
X247995602Y-109143693D01*
X247902005Y-109305809D01*
X247844163Y-109483829D01*
X247824595Y-109670000D01*
X242615405Y-109670000D01*
X242595838Y-109483835D01*
X242537993Y-109305806D01*
X242444398Y-109143694D01*
X242319143Y-109004584D01*
X242319142Y-109004583D01*
X242319140Y-109004581D01*
X242167709Y-108894560D01*
X242167702Y-108894556D01*
X241996696Y-108818419D01*
X241996694Y-108818418D01*
X241852513Y-108787772D01*
X241813595Y-108779500D01*
X241626405Y-108779500D01*
X241594309Y-108786322D01*
X241443305Y-108818418D01*
X241443303Y-108818419D01*
X241272301Y-108894555D01*
X241120854Y-109004586D01*
X240995602Y-109143693D01*
X240902005Y-109305809D01*
X240844163Y-109483829D01*
X240824595Y-109670000D01*
X240615405Y-109670000D01*
X240595838Y-109483835D01*
X240537993Y-109305806D01*
X240444398Y-109143694D01*
X240319143Y-109004584D01*
X240319142Y-109004583D01*
X240319140Y-109004581D01*
X240167709Y-108894560D01*
X240167702Y-108894556D01*
X239996696Y-108818419D01*
X239996694Y-108818418D01*
X239852513Y-108787772D01*
X239813595Y-108779500D01*
X239626405Y-108779500D01*
X239594309Y-108786322D01*
X239443305Y-108818418D01*
X239443303Y-108818419D01*
X239272301Y-108894555D01*
X239120854Y-109004586D01*
X238995602Y-109143693D01*
X238902005Y-109305809D01*
X238844163Y-109483829D01*
X238824595Y-109670000D01*
X233615405Y-109670000D01*
X233595838Y-109483835D01*
X233537993Y-109305806D01*
X233444398Y-109143694D01*
X233319143Y-109004584D01*
X233319142Y-109004583D01*
X233319140Y-109004581D01*
X233167709Y-108894560D01*
X233167702Y-108894556D01*
X232996696Y-108818419D01*
X232996694Y-108818418D01*
X232852513Y-108787772D01*
X232813595Y-108779500D01*
X232626405Y-108779500D01*
X232594309Y-108786322D01*
X232443305Y-108818418D01*
X232443303Y-108818419D01*
X232272301Y-108894555D01*
X232120854Y-109004586D01*
X231995602Y-109143693D01*
X231902005Y-109305809D01*
X231844163Y-109483829D01*
X231824595Y-109670000D01*
X231615405Y-109670000D01*
X231595838Y-109483835D01*
X231537993Y-109305806D01*
X231444398Y-109143694D01*
X231319143Y-109004584D01*
X231319142Y-109004583D01*
X231319140Y-109004581D01*
X231167709Y-108894560D01*
X231167702Y-108894556D01*
X230996696Y-108818419D01*
X230996694Y-108818418D01*
X230852513Y-108787772D01*
X230813595Y-108779500D01*
X230626405Y-108779500D01*
X230594309Y-108786322D01*
X230443305Y-108818418D01*
X230443303Y-108818419D01*
X230272301Y-108894555D01*
X230120854Y-109004586D01*
X229995602Y-109143693D01*
X229902005Y-109305809D01*
X229844163Y-109483829D01*
X229824595Y-109670000D01*
X224615405Y-109670000D01*
X224595838Y-109483835D01*
X224537993Y-109305806D01*
X224444398Y-109143694D01*
X224319143Y-109004584D01*
X224319142Y-109004583D01*
X224319140Y-109004581D01*
X224167709Y-108894560D01*
X224167702Y-108894556D01*
X223996696Y-108818419D01*
X223996694Y-108818418D01*
X223852513Y-108787772D01*
X223813595Y-108779500D01*
X223626405Y-108779500D01*
X223594309Y-108786322D01*
X223443305Y-108818418D01*
X223443303Y-108818419D01*
X223272301Y-108894555D01*
X223120854Y-109004586D01*
X222995602Y-109143693D01*
X222902005Y-109305809D01*
X222844163Y-109483829D01*
X222824595Y-109670000D01*
X222615405Y-109670000D01*
X222595838Y-109483835D01*
X222537993Y-109305806D01*
X222444398Y-109143694D01*
X222319143Y-109004584D01*
X222319142Y-109004583D01*
X222319140Y-109004581D01*
X222167709Y-108894560D01*
X222167702Y-108894556D01*
X221996696Y-108818419D01*
X221996694Y-108818418D01*
X221852513Y-108787772D01*
X221813595Y-108779500D01*
X221626405Y-108779500D01*
X221594309Y-108786322D01*
X221443305Y-108818418D01*
X221443303Y-108818419D01*
X221272301Y-108894555D01*
X221120854Y-109004586D01*
X220995602Y-109143693D01*
X220902005Y-109305809D01*
X220844163Y-109483829D01*
X220824595Y-109670000D01*
X171020500Y-109670000D01*
X171020500Y-108670000D01*
X171038313Y-108262022D01*
X171038592Y-108258817D01*
X171091684Y-107855543D01*
X171092246Y-107852363D01*
X171178861Y-107461667D01*
X171180283Y-107455252D01*
X171181111Y-107452158D01*
X171303438Y-107064188D01*
X171304524Y-107061204D01*
X171460188Y-106685397D01*
X171461554Y-106682470D01*
X171491587Y-106624777D01*
X172885827Y-106624777D01*
X172895607Y-106805149D01*
X172943936Y-106979212D01*
X173028550Y-107138813D01*
X173028551Y-107138814D01*
X173145494Y-107276491D01*
X173289308Y-107385816D01*
X173289310Y-107385817D01*
X173439394Y-107455254D01*
X173453256Y-107461667D01*
X173629678Y-107500500D01*
X173629683Y-107500500D01*
X173765019Y-107500500D01*
X173765028Y-107500500D01*
X173899586Y-107485866D01*
X174070774Y-107428186D01*
X174225561Y-107335054D01*
X174356708Y-107210825D01*
X174458083Y-107061307D01*
X174509564Y-106932099D01*
X260460398Y-106932099D01*
X260480758Y-107138819D01*
X260502600Y-107210821D01*
X260541055Y-107337592D01*
X260638973Y-107520783D01*
X260770748Y-107681352D01*
X260931317Y-107813127D01*
X261114508Y-107911045D01*
X261313282Y-107971342D01*
X261468199Y-107986600D01*
X261468201Y-107986600D01*
X261571799Y-107986600D01*
X261571801Y-107986600D01*
X261726718Y-107971342D01*
X261925492Y-107911045D01*
X262108683Y-107813127D01*
X262269252Y-107681352D01*
X262401027Y-107520783D01*
X262498945Y-107337592D01*
X262559242Y-107138818D01*
X262579602Y-106932100D01*
X262559242Y-106725382D01*
X262528724Y-106624777D01*
X268885827Y-106624777D01*
X268895607Y-106805149D01*
X268943936Y-106979212D01*
X269028550Y-107138813D01*
X269028551Y-107138814D01*
X269145494Y-107276491D01*
X269289308Y-107385816D01*
X269289310Y-107385817D01*
X269439394Y-107455254D01*
X269453256Y-107461667D01*
X269629678Y-107500500D01*
X269629683Y-107500500D01*
X269765019Y-107500500D01*
X269765028Y-107500500D01*
X269899586Y-107485866D01*
X270070774Y-107428186D01*
X270225561Y-107335054D01*
X270356708Y-107210825D01*
X270458083Y-107061307D01*
X270524947Y-106893492D01*
X270554172Y-106715227D01*
X270544392Y-106534848D01*
X270496064Y-106360788D01*
X270411449Y-106201186D01*
X270399317Y-106186904D01*
X270294505Y-106063508D01*
X270150691Y-105954183D01*
X270150689Y-105954182D01*
X269986754Y-105878337D01*
X269986749Y-105878335D01*
X269986744Y-105878333D01*
X269810322Y-105839500D01*
X269674972Y-105839500D01*
X269674966Y-105839500D01*
X269674958Y-105839501D01*
X269563591Y-105851613D01*
X269540414Y-105854134D01*
X269540411Y-105854134D01*
X269540411Y-105854135D01*
X269369228Y-105911813D01*
X269214438Y-106004946D01*
X269083288Y-106129178D01*
X268981917Y-106278691D01*
X268915053Y-106446507D01*
X268915052Y-106446508D01*
X268885828Y-106624773D01*
X268885827Y-106624777D01*
X262528724Y-106624777D01*
X262498945Y-106526608D01*
X262401027Y-106343417D01*
X262269252Y-106182848D01*
X262108683Y-106051073D01*
X261927415Y-105954183D01*
X261925494Y-105953156D01*
X261925493Y-105953155D01*
X261925492Y-105953155D01*
X261789205Y-105911813D01*
X261726719Y-105892858D01*
X261675079Y-105887771D01*
X261571801Y-105877600D01*
X261468199Y-105877600D01*
X261390740Y-105885228D01*
X261313280Y-105892858D01*
X261140174Y-105945369D01*
X261136322Y-105946538D01*
X261114505Y-105953156D01*
X260931316Y-106051073D01*
X260770748Y-106182847D01*
X260770747Y-106182848D01*
X260638973Y-106343416D01*
X260541056Y-106526605D01*
X260541055Y-106526607D01*
X260541055Y-106526608D01*
X260538555Y-106534850D01*
X260480758Y-106725380D01*
X260460398Y-106932099D01*
X174509564Y-106932099D01*
X174524947Y-106893492D01*
X174554172Y-106715227D01*
X174544392Y-106534848D01*
X174496064Y-106360788D01*
X174411449Y-106201186D01*
X174399317Y-106186904D01*
X174294505Y-106063508D01*
X174150691Y-105954183D01*
X174150689Y-105954182D01*
X173986754Y-105878337D01*
X173986749Y-105878335D01*
X173986744Y-105878333D01*
X173810322Y-105839500D01*
X173674972Y-105839500D01*
X173674966Y-105839500D01*
X173674958Y-105839501D01*
X173563591Y-105851613D01*
X173540414Y-105854134D01*
X173540411Y-105854134D01*
X173540411Y-105854135D01*
X173369228Y-105911813D01*
X173214438Y-106004946D01*
X173083288Y-106129178D01*
X172981917Y-106278691D01*
X172915053Y-106446507D01*
X172915052Y-106446508D01*
X172885828Y-106624773D01*
X172885827Y-106624777D01*
X171491587Y-106624777D01*
X171538401Y-106534848D01*
X171649373Y-106321672D01*
X171650972Y-106318902D01*
X171869534Y-105975828D01*
X171871369Y-105973208D01*
X172119005Y-105650481D01*
X172121049Y-105648046D01*
X172395878Y-105348123D01*
X172398123Y-105345878D01*
X172698046Y-105071049D01*
X172700481Y-105069005D01*
X173023208Y-104821369D01*
X173025828Y-104819534D01*
X173368902Y-104600972D01*
X173371672Y-104599373D01*
X173732470Y-104411553D01*
X173735397Y-104410189D01*
X173737734Y-104409220D01*
X174111204Y-104254524D01*
X174114188Y-104253438D01*
X174502158Y-104131111D01*
X174505254Y-104130283D01*
X174520185Y-104126973D01*
X174584606Y-104112691D01*
X174902363Y-104042246D01*
X174905543Y-104041685D01*
X174931404Y-104038280D01*
X175308817Y-103988592D01*
X175312022Y-103988313D01*
X175720000Y-103970500D01*
X175767595Y-103970500D01*
X219672405Y-103970500D01*
X219718544Y-103970500D01*
X219721448Y-103970614D01*
G37*
%TD.AperFunction*%
%TD*%
D21*
X222620000Y-105670000D02*
X249820000Y-105670000D01*
X250597817Y-105347817D02*
X251942183Y-103992183D01*
X249820000Y-105669999D02*
G75*
G03*
X250597817Y-105347817I0J1099999D01*
G01*
X221842183Y-105347817D02*
X220497817Y-103992183D01*
X268020000Y-163670000D02*
G75*
G03*
X273020000Y-158670000I0J5000000D01*
G01*
X175720000Y-103670000D02*
G75*
G03*
X170720000Y-108670000I0J-5000000D01*
G01*
X170720000Y-158670000D02*
G75*
G03*
X175720000Y-163670000I5000000J0D01*
G01*
X220497817Y-103992183D02*
G75*
G03*
X219720000Y-103670000I-777817J-777817D01*
G01*
X170720000Y-108670000D02*
X170720000Y-158670000D01*
X175720000Y-163670000D02*
X268020000Y-163670000D01*
X221842183Y-105347817D02*
G75*
G03*
X222620000Y-105670000I777817J777817D01*
G01*
X219720000Y-103670000D02*
X175720000Y-103670000D01*
X252720000Y-103670000D02*
X268020000Y-103670000D01*
X252720000Y-103670001D02*
G75*
G03*
X251942183Y-103992183I0J-1099999D01*
G01*
X273020000Y-108670000D02*
G75*
G03*
X268020000Y-103670000I-5000000J0D01*
G01*
X273020000Y-158670000D02*
X273020000Y-108670000D01*
M02*
