M48
; DRILL file {KiCad 7.0.7} date Wed 27 Sep 2023 06:03:21 PM EDT
; FORMAT={-:-/ absolute / inch / decimal}
; #@! TF.CreationDate,2023-09-27T18:03:21-04:00
; #@! TF.GenerationSoftware,Kicad,Pcbnew,7.0.7
; #@! TF.FileFunction,Plated,1,6,PTH
FMAT,2
INCH
; #@! TA.AperFunction,Plated,PTH,ViaDrill
T1C0.0098
; #@! TA.AperFunction,Plated,PTH,ComponentDrill
T2C0.0098
; #@! TA.AperFunction,Plated,PTH,ComponentDrill
T3C0.0394
%
G90
G05
T1
X7.3768Y-5.1642
X7.4201Y-5.1051
X7.572Y-5.4902
X7.5776Y-6.2941
X7.598Y-5.5276
X7.5982Y-5.49
X7.6083Y-5.4528
X7.6169Y-6.2941
X7.6425Y-6.1927
X7.6514Y-6.111
X7.6563Y-6.2941
X7.678Y-5.6091
X7.7012Y-6.0807
X7.7016Y-6.1071
X7.7138Y-5.3817
X7.7148Y-5.614
X7.7222Y-6.1071
X7.7228Y-6.0807
X7.7335Y-5.6484
X7.7449Y-5.361
X7.7449Y-6.2941
X7.7675Y-6.1071
X7.7677Y-6.0811
X7.7768Y-5.6219
X7.7803Y-5.3728
X7.7882Y-6.1071
X7.7894Y-6.0811
X7.8197Y-5.3768
X7.8335Y-6.2941
X7.8384Y-6.111
X7.8472Y-6.1927
X7.8496Y-5.5195
X7.8594Y-5.5825
X7.8728Y-6.2941
X7.8778Y-5.5589
X7.901Y-5.4988
X7.9122Y-6.2941
X7.925Y-5.5165
X8.2429Y-5.1642
X8.2862Y-5.1051
X8.7291Y-4.5446
X8.7783Y-4.5721
X8.7815Y-4.4331
X8.8079Y-4.4329
X8.8276Y-4.5446
X8.8453Y-4.4334
X8.8866Y-4.9201
X8.9053Y-5.5039
X8.925Y-5.0037
X8.926Y-4.9673
X8.9535Y-5.0303
X8.989Y-5.0185
X9.0116Y-4.4796
X9.048Y-4.4909
X9.078Y-5.3961
X9.1157Y-4.6405
X9.128Y-4.6035
X9.1358Y-4.4327
X9.1421Y-4.6406
X9.1553Y-4.52
X9.1553Y-4.6095
X9.1622Y-4.4329
X9.1789Y-4.7783
X9.1996Y-4.4334
X9.2055Y-4.8049
X9.2055Y-4.9831
X9.2213Y-5.2055
X9.2213Y-5.2321
X9.2252Y-4.7862
X9.2331Y-4.9555
X9.2557Y-5.6041
X9.2705Y-5.2035
X9.2852Y-5.6041
X9.3197Y-4.9476
X9.3295Y-5.2311
X9.4378Y-4.5461
X9.4559Y-6.1768
X9.4693Y-6.1996
X9.487Y-4.5746
X9.4902Y-4.4327
X9.5039Y-6.2673
X9.5039Y-6.2937
X9.5165Y-4.4329
X9.5256Y-6.2669
X9.5256Y-6.2937
X9.5362Y-4.5466
X9.5472Y-6.2669
X9.5472Y-6.2937
X9.5539Y-4.4334
X9.5657Y-5.865
X9.5902Y-5.7134
X9.5904Y-5.74
X9.6179Y-5.7892
X9.6583Y-6.1996
X9.6632Y-5.7941
X9.6787Y-5.0043
X9.6789Y-4.9781
X9.7004Y-5.0043
X9.7006Y-4.9083
X9.7006Y-4.9781
X9.7006Y-5.0972
X9.7006Y-5.4289
X9.7203Y-4.4801
X9.722Y-5.0043
X9.7222Y-4.9781
X9.7236Y-4.8961
X9.7567Y-4.49
X9.7744Y-5.2547
X9.7744Y-5.2764
X9.7744Y-5.298
X9.7793Y-5.1474
X9.8047Y-5.2551
X9.8047Y-5.2768
X9.8089Y-5.1012
X9.8256Y-4.641
X9.8374Y-4.6031
X9.8413Y-5.2768
X9.8413Y-5.2984
X9.8445Y-4.4331
X9.852Y-4.6409
X9.864Y-4.5229
X9.864Y-4.6095
X9.8709Y-4.4329
X9.8719Y-5.2547
X9.8719Y-5.2764
X9.8719Y-5.298
X9.9083Y-4.4334
X9.9102Y-5.1002
X9.9197Y-6.1768
X9.923Y-5.8659
X9.9319Y-6.1996
X9.9781Y-4.7902
X9.9969Y-4.9929
X10.0018Y-6.178
X10.0018Y-6.1996
X10.0018Y-6.2213
X10.0175Y-4.9053
X10.028Y-6.1776
X10.028Y-6.1992
X10.028Y-6.2209
X10.0382Y-4.9929
X10.0569Y-4.7902
X10.1209Y-6.1996
X10.1248Y-5.0805
X10.1248Y-5.1199
X10.1366Y-5.0136
X10.1445Y-4.6594
X10.1445Y-4.6811
X10.1445Y-4.7028
X10.175Y-4.6593
X10.175Y-4.6809
X10.175Y-4.7026
X10.2242Y-5.0136
X10.2685Y-5.8699
X10.2693Y-4.8797
X10.2693Y-4.9014
X10.2693Y-4.923
X10.3Y-4.8797
X10.3Y-4.9014
X10.3Y-4.923
X10.4427Y-6.112
X10.4634Y-6.1276
X10.4673Y-5.988
X10.4949Y-6.0372
X10.5077Y-4.6937
X10.5077Y-4.7852
X10.5157Y-4.9012
X10.5197Y-5.6079
X10.5589Y-5.8778
T2
X10.0382Y-5.3512
X10.0628Y-5.3512
X10.0874Y-5.3512
T3
X8.7291Y-4.3177
X8.8079Y-4.3177
X9.0835Y-4.3177
X9.1622Y-4.3177
X9.4378Y-4.3177
X9.5165Y-4.3177
X9.7921Y-4.3177
X9.8709Y-4.3177
T3
G00X6.9969Y-4.1799
M15
G01X6.9969Y-4.3374
M16
G05
G00X6.9969Y-4.4102
M15
G01X6.9969Y-4.5677
M16
G05
G00X6.9969Y-4.6406
M15
G01X6.9969Y-4.798
M16
G05
G00X7.6268Y-4.1799
M15
G01X7.6268Y-4.3374
M16
G05
G00X7.6268Y-4.4102
M15
G01X7.6268Y-4.5677
M16
G05
G00X7.6268Y-4.6406
M15
G01X7.6268Y-4.798
M16
G05
G00X7.863Y-4.1799
M15
G01X7.863Y-4.3374
M16
G05
G00X7.863Y-4.4102
M15
G01X7.863Y-4.5677
M16
G05
G00X7.863Y-4.6406
M15
G01X7.863Y-4.798
M16
G05
G00X8.4929Y-4.1799
M15
G01X8.4929Y-4.3374
M16
G05
G00X8.4929Y-4.4102
M15
G01X8.4929Y-4.5677
M16
G05
G00X8.4929Y-4.6406
M15
G01X8.4929Y-4.798
M16
G05
G00X10.1189Y-4.3182
M15
G01X10.1189Y-4.2591
M16
G05
G00X10.2705Y-4.328
M15
G01X10.3217Y-4.328
M16
G05
G00X10.2567Y-4.5643
M15
G01X10.3354Y-4.5643
M16
G05
G00X10.4732Y-4.3182
M15
G01X10.4732Y-4.2591
M16
G05
T0
M30
