%TF.GenerationSoftware,KiCad,Pcbnew,7.0.7*%
%TF.CreationDate,2023-09-27T18:03:20-04:00*%
%TF.ProjectId,baseboard,62617365-626f-4617-9264-2e6b69636164,A*%
%TF.SameCoordinates,Original*%
%TF.FileFunction,Drillmap*%
%TF.FilePolarity,Positive*%
%FSLAX45Y45*%
G04 Gerber Fmt 4.5, Leading zero omitted, Abs format (unit mm)*
G04 Created by KiCad (PCBNEW 7.0.7) date 2023-09-27 18:03:20*
%MOMM*%
%LPD*%
G01*
G04 APERTURE LIST*
%ADD10C,0.050000*%
%ADD11C,0.200000*%
%ADD12C,0.115200*%
%ADD13C,0.160000*%
G04 APERTURE END LIST*
D10*
X22262000Y-10567000D02*
X24982000Y-10567000D01*
X25059782Y-10534782D02*
X25194218Y-10399218D01*
X24982000Y-10567000D02*
G75*
G03*
X25059782Y-10534782I0J110000D01*
G01*
X22184218Y-10534782D02*
X22049782Y-10399218D01*
X26802000Y-16367000D02*
G75*
G03*
X27302000Y-15867000I0J500000D01*
G01*
X17572000Y-10367000D02*
G75*
G03*
X17072000Y-10867000I0J-500000D01*
G01*
X17072000Y-15867000D02*
G75*
G03*
X17572000Y-16367000I500000J0D01*
G01*
X22049782Y-10399218D02*
G75*
G03*
X21972000Y-10367000I-77782J-77782D01*
G01*
X17072000Y-10867000D02*
X17072000Y-15867000D01*
X17572000Y-16367000D02*
X26802000Y-16367000D01*
X22184218Y-10534782D02*
G75*
G03*
X22262000Y-10567000I77782J77782D01*
G01*
X21972000Y-10367000D02*
X17572000Y-10367000D01*
X25272000Y-10367000D02*
X26802000Y-10367000D01*
X25272000Y-10367000D02*
G75*
G03*
X25194218Y-10399218I0J-110000D01*
G01*
X27302000Y-10867000D02*
G75*
G03*
X26802000Y-10367000I-500000J0D01*
G01*
X27302000Y-15867000D02*
X27302000Y-10867000D01*
D11*
D12*
X17314400Y-10609400D02*
X17429600Y-10724600D01*
X17429600Y-10609400D02*
X17314400Y-10724600D01*
X17314400Y-16009400D02*
X17429600Y-16124600D01*
X17429600Y-16009400D02*
X17314400Y-16124600D01*
X26914400Y-10609400D02*
X27029600Y-10724600D01*
X27029600Y-10609400D02*
X26914400Y-10724600D01*
X26914400Y-16009400D02*
X27029600Y-16124600D01*
X27029600Y-16009400D02*
X26914400Y-16124600D01*
D13*
X26232000Y-10693210D02*
G75*
G03*
X26232000Y-10693210I-80000J0D01*
G01*
D11*
X17330277Y-16680984D02*
X17330277Y-16480984D01*
X17330277Y-16480984D02*
X17377896Y-16480984D01*
X17377896Y-16480984D02*
X17406467Y-16490508D01*
X17406467Y-16490508D02*
X17425515Y-16509555D01*
X17425515Y-16509555D02*
X17435039Y-16528603D01*
X17435039Y-16528603D02*
X17444563Y-16566698D01*
X17444563Y-16566698D02*
X17444563Y-16595269D01*
X17444563Y-16595269D02*
X17435039Y-16633365D01*
X17435039Y-16633365D02*
X17425515Y-16652412D01*
X17425515Y-16652412D02*
X17406467Y-16671460D01*
X17406467Y-16671460D02*
X17377896Y-16680984D01*
X17377896Y-16680984D02*
X17330277Y-16680984D01*
X17530277Y-16680984D02*
X17530277Y-16547650D01*
X17530277Y-16585746D02*
X17539801Y-16566698D01*
X17539801Y-16566698D02*
X17549324Y-16557174D01*
X17549324Y-16557174D02*
X17568372Y-16547650D01*
X17568372Y-16547650D02*
X17587420Y-16547650D01*
X17654086Y-16680984D02*
X17654086Y-16547650D01*
X17654086Y-16480984D02*
X17644563Y-16490508D01*
X17644563Y-16490508D02*
X17654086Y-16500031D01*
X17654086Y-16500031D02*
X17663610Y-16490508D01*
X17663610Y-16490508D02*
X17654086Y-16480984D01*
X17654086Y-16480984D02*
X17654086Y-16500031D01*
X17777896Y-16680984D02*
X17758848Y-16671460D01*
X17758848Y-16671460D02*
X17749324Y-16652412D01*
X17749324Y-16652412D02*
X17749324Y-16480984D01*
X17882658Y-16680984D02*
X17863610Y-16671460D01*
X17863610Y-16671460D02*
X17854086Y-16652412D01*
X17854086Y-16652412D02*
X17854086Y-16480984D01*
X18111229Y-16680984D02*
X18111229Y-16480984D01*
X18111229Y-16480984D02*
X18177896Y-16623841D01*
X18177896Y-16623841D02*
X18244563Y-16480984D01*
X18244563Y-16480984D02*
X18244563Y-16680984D01*
X18425515Y-16680984D02*
X18425515Y-16576222D01*
X18425515Y-16576222D02*
X18415991Y-16557174D01*
X18415991Y-16557174D02*
X18396944Y-16547650D01*
X18396944Y-16547650D02*
X18358848Y-16547650D01*
X18358848Y-16547650D02*
X18339801Y-16557174D01*
X18425515Y-16671460D02*
X18406467Y-16680984D01*
X18406467Y-16680984D02*
X18358848Y-16680984D01*
X18358848Y-16680984D02*
X18339801Y-16671460D01*
X18339801Y-16671460D02*
X18330277Y-16652412D01*
X18330277Y-16652412D02*
X18330277Y-16633365D01*
X18330277Y-16633365D02*
X18339801Y-16614317D01*
X18339801Y-16614317D02*
X18358848Y-16604793D01*
X18358848Y-16604793D02*
X18406467Y-16604793D01*
X18406467Y-16604793D02*
X18425515Y-16595269D01*
X18520753Y-16547650D02*
X18520753Y-16747650D01*
X18520753Y-16557174D02*
X18539801Y-16547650D01*
X18539801Y-16547650D02*
X18577896Y-16547650D01*
X18577896Y-16547650D02*
X18596944Y-16557174D01*
X18596944Y-16557174D02*
X18606467Y-16566698D01*
X18606467Y-16566698D02*
X18615991Y-16585746D01*
X18615991Y-16585746D02*
X18615991Y-16642888D01*
X18615991Y-16642888D02*
X18606467Y-16661936D01*
X18606467Y-16661936D02*
X18596944Y-16671460D01*
X18596944Y-16671460D02*
X18577896Y-16680984D01*
X18577896Y-16680984D02*
X18539801Y-16680984D01*
X18539801Y-16680984D02*
X18520753Y-16671460D01*
X18701705Y-16661936D02*
X18711229Y-16671460D01*
X18711229Y-16671460D02*
X18701705Y-16680984D01*
X18701705Y-16680984D02*
X18692182Y-16671460D01*
X18692182Y-16671460D02*
X18701705Y-16661936D01*
X18701705Y-16661936D02*
X18701705Y-16680984D01*
X18701705Y-16557174D02*
X18711229Y-16566698D01*
X18711229Y-16566698D02*
X18701705Y-16576222D01*
X18701705Y-16576222D02*
X18692182Y-16566698D01*
X18692182Y-16566698D02*
X18701705Y-16557174D01*
X18701705Y-16557174D02*
X18701705Y-16576222D01*
D12*
X16954300Y-16951900D02*
X17069500Y-17067100D01*
X17069500Y-16951900D02*
X16954300Y-17067100D01*
D11*
X17435039Y-17100984D02*
X17320753Y-17100984D01*
X17377896Y-17100984D02*
X17377896Y-16900984D01*
X17377896Y-16900984D02*
X17358848Y-16929555D01*
X17358848Y-16929555D02*
X17339801Y-16948603D01*
X17339801Y-16948603D02*
X17320753Y-16958127D01*
X17520753Y-17081936D02*
X17530277Y-17091460D01*
X17530277Y-17091460D02*
X17520753Y-17100984D01*
X17520753Y-17100984D02*
X17511229Y-17091460D01*
X17511229Y-17091460D02*
X17520753Y-17081936D01*
X17520753Y-17081936D02*
X17520753Y-17100984D01*
X17720753Y-17100984D02*
X17606467Y-17100984D01*
X17663610Y-17100984D02*
X17663610Y-16900984D01*
X17663610Y-16900984D02*
X17644563Y-16929555D01*
X17644563Y-16929555D02*
X17625515Y-16948603D01*
X17625515Y-16948603D02*
X17606467Y-16958127D01*
X17901705Y-16900984D02*
X17806467Y-16900984D01*
X17806467Y-16900984D02*
X17796944Y-16996222D01*
X17796944Y-16996222D02*
X17806467Y-16986698D01*
X17806467Y-16986698D02*
X17825515Y-16977174D01*
X17825515Y-16977174D02*
X17873134Y-16977174D01*
X17873134Y-16977174D02*
X17892182Y-16986698D01*
X17892182Y-16986698D02*
X17901705Y-16996222D01*
X17901705Y-16996222D02*
X17911229Y-17015270D01*
X17911229Y-17015270D02*
X17911229Y-17062889D01*
X17911229Y-17062889D02*
X17901705Y-17081936D01*
X17901705Y-17081936D02*
X17892182Y-17091460D01*
X17892182Y-17091460D02*
X17873134Y-17100984D01*
X17873134Y-17100984D02*
X17825515Y-17100984D01*
X17825515Y-17100984D02*
X17806467Y-17091460D01*
X17806467Y-17091460D02*
X17796944Y-17081936D01*
X17987420Y-16920031D02*
X17996944Y-16910508D01*
X17996944Y-16910508D02*
X18015991Y-16900984D01*
X18015991Y-16900984D02*
X18063610Y-16900984D01*
X18063610Y-16900984D02*
X18082658Y-16910508D01*
X18082658Y-16910508D02*
X18092182Y-16920031D01*
X18092182Y-16920031D02*
X18101705Y-16939079D01*
X18101705Y-16939079D02*
X18101705Y-16958127D01*
X18101705Y-16958127D02*
X18092182Y-16986698D01*
X18092182Y-16986698D02*
X17977896Y-17100984D01*
X17977896Y-17100984D02*
X18101705Y-17100984D01*
X18187420Y-17100984D02*
X18187420Y-16967650D01*
X18187420Y-16986698D02*
X18196944Y-16977174D01*
X18196944Y-16977174D02*
X18215991Y-16967650D01*
X18215991Y-16967650D02*
X18244563Y-16967650D01*
X18244563Y-16967650D02*
X18263610Y-16977174D01*
X18263610Y-16977174D02*
X18273134Y-16996222D01*
X18273134Y-16996222D02*
X18273134Y-17100984D01*
X18273134Y-16996222D02*
X18282658Y-16977174D01*
X18282658Y-16977174D02*
X18301705Y-16967650D01*
X18301705Y-16967650D02*
X18330277Y-16967650D01*
X18330277Y-16967650D02*
X18349325Y-16977174D01*
X18349325Y-16977174D02*
X18358848Y-16996222D01*
X18358848Y-16996222D02*
X18358848Y-17100984D01*
X18454086Y-17100984D02*
X18454086Y-16967650D01*
X18454086Y-16986698D02*
X18463610Y-16977174D01*
X18463610Y-16977174D02*
X18482658Y-16967650D01*
X18482658Y-16967650D02*
X18511229Y-16967650D01*
X18511229Y-16967650D02*
X18530277Y-16977174D01*
X18530277Y-16977174D02*
X18539801Y-16996222D01*
X18539801Y-16996222D02*
X18539801Y-17100984D01*
X18539801Y-16996222D02*
X18549325Y-16977174D01*
X18549325Y-16977174D02*
X18568372Y-16967650D01*
X18568372Y-16967650D02*
X18596944Y-16967650D01*
X18596944Y-16967650D02*
X18615991Y-16977174D01*
X18615991Y-16977174D02*
X18625515Y-16996222D01*
X18625515Y-16996222D02*
X18625515Y-17100984D01*
X19015991Y-16891460D02*
X18844563Y-17148603D01*
X19273134Y-16900984D02*
X19292182Y-16900984D01*
X19292182Y-16900984D02*
X19311229Y-16910508D01*
X19311229Y-16910508D02*
X19320753Y-16920031D01*
X19320753Y-16920031D02*
X19330277Y-16939079D01*
X19330277Y-16939079D02*
X19339801Y-16977174D01*
X19339801Y-16977174D02*
X19339801Y-17024793D01*
X19339801Y-17024793D02*
X19330277Y-17062889D01*
X19330277Y-17062889D02*
X19320753Y-17081936D01*
X19320753Y-17081936D02*
X19311229Y-17091460D01*
X19311229Y-17091460D02*
X19292182Y-17100984D01*
X19292182Y-17100984D02*
X19273134Y-17100984D01*
X19273134Y-17100984D02*
X19254087Y-17091460D01*
X19254087Y-17091460D02*
X19244563Y-17081936D01*
X19244563Y-17081936D02*
X19235039Y-17062889D01*
X19235039Y-17062889D02*
X19225515Y-17024793D01*
X19225515Y-17024793D02*
X19225515Y-16977174D01*
X19225515Y-16977174D02*
X19235039Y-16939079D01*
X19235039Y-16939079D02*
X19244563Y-16920031D01*
X19244563Y-16920031D02*
X19254087Y-16910508D01*
X19254087Y-16910508D02*
X19273134Y-16900984D01*
X19425515Y-17081936D02*
X19435039Y-17091460D01*
X19435039Y-17091460D02*
X19425515Y-17100984D01*
X19425515Y-17100984D02*
X19415991Y-17091460D01*
X19415991Y-17091460D02*
X19425515Y-17081936D01*
X19425515Y-17081936D02*
X19425515Y-17100984D01*
X19558848Y-16900984D02*
X19577896Y-16900984D01*
X19577896Y-16900984D02*
X19596944Y-16910508D01*
X19596944Y-16910508D02*
X19606468Y-16920031D01*
X19606468Y-16920031D02*
X19615991Y-16939079D01*
X19615991Y-16939079D02*
X19625515Y-16977174D01*
X19625515Y-16977174D02*
X19625515Y-17024793D01*
X19625515Y-17024793D02*
X19615991Y-17062889D01*
X19615991Y-17062889D02*
X19606468Y-17081936D01*
X19606468Y-17081936D02*
X19596944Y-17091460D01*
X19596944Y-17091460D02*
X19577896Y-17100984D01*
X19577896Y-17100984D02*
X19558848Y-17100984D01*
X19558848Y-17100984D02*
X19539801Y-17091460D01*
X19539801Y-17091460D02*
X19530277Y-17081936D01*
X19530277Y-17081936D02*
X19520753Y-17062889D01*
X19520753Y-17062889D02*
X19511229Y-17024793D01*
X19511229Y-17024793D02*
X19511229Y-16977174D01*
X19511229Y-16977174D02*
X19520753Y-16939079D01*
X19520753Y-16939079D02*
X19530277Y-16920031D01*
X19530277Y-16920031D02*
X19539801Y-16910508D01*
X19539801Y-16910508D02*
X19558848Y-16900984D01*
X19796944Y-16967650D02*
X19796944Y-17100984D01*
X19749325Y-16891460D02*
X19701706Y-17034317D01*
X19701706Y-17034317D02*
X19825515Y-17034317D01*
X19996944Y-16900984D02*
X19901706Y-16900984D01*
X19901706Y-16900984D02*
X19892182Y-16996222D01*
X19892182Y-16996222D02*
X19901706Y-16986698D01*
X19901706Y-16986698D02*
X19920753Y-16977174D01*
X19920753Y-16977174D02*
X19968372Y-16977174D01*
X19968372Y-16977174D02*
X19987420Y-16986698D01*
X19987420Y-16986698D02*
X19996944Y-16996222D01*
X19996944Y-16996222D02*
X20006468Y-17015270D01*
X20006468Y-17015270D02*
X20006468Y-17062889D01*
X20006468Y-17062889D02*
X19996944Y-17081936D01*
X19996944Y-17081936D02*
X19987420Y-17091460D01*
X19987420Y-17091460D02*
X19968372Y-17100984D01*
X19968372Y-17100984D02*
X19920753Y-17100984D01*
X19920753Y-17100984D02*
X19901706Y-17091460D01*
X19901706Y-17091460D02*
X19892182Y-17081936D01*
X20177896Y-16967650D02*
X20177896Y-17100984D01*
X20130277Y-16891460D02*
X20082658Y-17034317D01*
X20082658Y-17034317D02*
X20206468Y-17034317D01*
X20273134Y-16900984D02*
X20273134Y-16939079D01*
X20349325Y-16900984D02*
X20349325Y-16939079D01*
X20644563Y-17177174D02*
X20635039Y-17167650D01*
X20635039Y-17167650D02*
X20615991Y-17139079D01*
X20615991Y-17139079D02*
X20606468Y-17120031D01*
X20606468Y-17120031D02*
X20596944Y-17091460D01*
X20596944Y-17091460D02*
X20587420Y-17043841D01*
X20587420Y-17043841D02*
X20587420Y-17005746D01*
X20587420Y-17005746D02*
X20596944Y-16958127D01*
X20596944Y-16958127D02*
X20606468Y-16929555D01*
X20606468Y-16929555D02*
X20615991Y-16910508D01*
X20615991Y-16910508D02*
X20635039Y-16881936D01*
X20635039Y-16881936D02*
X20644563Y-16872412D01*
X20806468Y-16967650D02*
X20806468Y-17100984D01*
X20758849Y-16891460D02*
X20711230Y-17034317D01*
X20711230Y-17034317D02*
X20835039Y-17034317D01*
X21063611Y-17100984D02*
X21063611Y-16900984D01*
X21149325Y-17100984D02*
X21149325Y-16996222D01*
X21149325Y-16996222D02*
X21139801Y-16977174D01*
X21139801Y-16977174D02*
X21120753Y-16967650D01*
X21120753Y-16967650D02*
X21092182Y-16967650D01*
X21092182Y-16967650D02*
X21073134Y-16977174D01*
X21073134Y-16977174D02*
X21063611Y-16986698D01*
X21273134Y-17100984D02*
X21254087Y-17091460D01*
X21254087Y-17091460D02*
X21244563Y-17081936D01*
X21244563Y-17081936D02*
X21235039Y-17062889D01*
X21235039Y-17062889D02*
X21235039Y-17005746D01*
X21235039Y-17005746D02*
X21244563Y-16986698D01*
X21244563Y-16986698D02*
X21254087Y-16977174D01*
X21254087Y-16977174D02*
X21273134Y-16967650D01*
X21273134Y-16967650D02*
X21301706Y-16967650D01*
X21301706Y-16967650D02*
X21320753Y-16977174D01*
X21320753Y-16977174D02*
X21330277Y-16986698D01*
X21330277Y-16986698D02*
X21339801Y-17005746D01*
X21339801Y-17005746D02*
X21339801Y-17062889D01*
X21339801Y-17062889D02*
X21330277Y-17081936D01*
X21330277Y-17081936D02*
X21320753Y-17091460D01*
X21320753Y-17091460D02*
X21301706Y-17100984D01*
X21301706Y-17100984D02*
X21273134Y-17100984D01*
X21454087Y-17100984D02*
X21435039Y-17091460D01*
X21435039Y-17091460D02*
X21425515Y-17072412D01*
X21425515Y-17072412D02*
X21425515Y-16900984D01*
X21606468Y-17091460D02*
X21587420Y-17100984D01*
X21587420Y-17100984D02*
X21549325Y-17100984D01*
X21549325Y-17100984D02*
X21530277Y-17091460D01*
X21530277Y-17091460D02*
X21520753Y-17072412D01*
X21520753Y-17072412D02*
X21520753Y-16996222D01*
X21520753Y-16996222D02*
X21530277Y-16977174D01*
X21530277Y-16977174D02*
X21549325Y-16967650D01*
X21549325Y-16967650D02*
X21587420Y-16967650D01*
X21587420Y-16967650D02*
X21606468Y-16977174D01*
X21606468Y-16977174D02*
X21615992Y-16996222D01*
X21615992Y-16996222D02*
X21615992Y-17015270D01*
X21615992Y-17015270D02*
X21520753Y-17034317D01*
X21692182Y-17091460D02*
X21711230Y-17100984D01*
X21711230Y-17100984D02*
X21749325Y-17100984D01*
X21749325Y-17100984D02*
X21768373Y-17091460D01*
X21768373Y-17091460D02*
X21777896Y-17072412D01*
X21777896Y-17072412D02*
X21777896Y-17062889D01*
X21777896Y-17062889D02*
X21768373Y-17043841D01*
X21768373Y-17043841D02*
X21749325Y-17034317D01*
X21749325Y-17034317D02*
X21720753Y-17034317D01*
X21720753Y-17034317D02*
X21701706Y-17024793D01*
X21701706Y-17024793D02*
X21692182Y-17005746D01*
X21692182Y-17005746D02*
X21692182Y-16996222D01*
X21692182Y-16996222D02*
X21701706Y-16977174D01*
X21701706Y-16977174D02*
X21720753Y-16967650D01*
X21720753Y-16967650D02*
X21749325Y-16967650D01*
X21749325Y-16967650D02*
X21768373Y-16977174D01*
X21844563Y-17177174D02*
X21854087Y-17167650D01*
X21854087Y-17167650D02*
X21873134Y-17139079D01*
X21873134Y-17139079D02*
X21882658Y-17120031D01*
X21882658Y-17120031D02*
X21892182Y-17091460D01*
X21892182Y-17091460D02*
X21901706Y-17043841D01*
X21901706Y-17043841D02*
X21901706Y-17005746D01*
X21901706Y-17005746D02*
X21892182Y-16958127D01*
X21892182Y-16958127D02*
X21882658Y-16929555D01*
X21882658Y-16929555D02*
X21873134Y-16910508D01*
X21873134Y-16910508D02*
X21854087Y-16881936D01*
X21854087Y-16881936D02*
X21844563Y-16872412D01*
X22206468Y-17177174D02*
X22196944Y-17167650D01*
X22196944Y-17167650D02*
X22177896Y-17139079D01*
X22177896Y-17139079D02*
X22168373Y-17120031D01*
X22168373Y-17120031D02*
X22158849Y-17091460D01*
X22158849Y-17091460D02*
X22149325Y-17043841D01*
X22149325Y-17043841D02*
X22149325Y-17005746D01*
X22149325Y-17005746D02*
X22158849Y-16958127D01*
X22158849Y-16958127D02*
X22168373Y-16929555D01*
X22168373Y-16929555D02*
X22177896Y-16910508D01*
X22177896Y-16910508D02*
X22196944Y-16881936D01*
X22196944Y-16881936D02*
X22206468Y-16872412D01*
X22282658Y-16967650D02*
X22282658Y-17100984D01*
X22282658Y-16986698D02*
X22292182Y-16977174D01*
X22292182Y-16977174D02*
X22311230Y-16967650D01*
X22311230Y-16967650D02*
X22339801Y-16967650D01*
X22339801Y-16967650D02*
X22358849Y-16977174D01*
X22358849Y-16977174D02*
X22368373Y-16996222D01*
X22368373Y-16996222D02*
X22368373Y-17100984D01*
X22492182Y-17100984D02*
X22473134Y-17091460D01*
X22473134Y-17091460D02*
X22463611Y-17081936D01*
X22463611Y-17081936D02*
X22454087Y-17062889D01*
X22454087Y-17062889D02*
X22454087Y-17005746D01*
X22454087Y-17005746D02*
X22463611Y-16986698D01*
X22463611Y-16986698D02*
X22473134Y-16977174D01*
X22473134Y-16977174D02*
X22492182Y-16967650D01*
X22492182Y-16967650D02*
X22520753Y-16967650D01*
X22520753Y-16967650D02*
X22539801Y-16977174D01*
X22539801Y-16977174D02*
X22549325Y-16986698D01*
X22549325Y-16986698D02*
X22558849Y-17005746D01*
X22558849Y-17005746D02*
X22558849Y-17062889D01*
X22558849Y-17062889D02*
X22549325Y-17081936D01*
X22549325Y-17081936D02*
X22539801Y-17091460D01*
X22539801Y-17091460D02*
X22520753Y-17100984D01*
X22520753Y-17100984D02*
X22492182Y-17100984D01*
X22615992Y-16967650D02*
X22692182Y-16967650D01*
X22644563Y-16900984D02*
X22644563Y-17072412D01*
X22644563Y-17072412D02*
X22654087Y-17091460D01*
X22654087Y-17091460D02*
X22673134Y-17100984D01*
X22673134Y-17100984D02*
X22692182Y-17100984D01*
X22911230Y-16967650D02*
X22911230Y-17167650D01*
X22911230Y-16977174D02*
X22930277Y-16967650D01*
X22930277Y-16967650D02*
X22968373Y-16967650D01*
X22968373Y-16967650D02*
X22987420Y-16977174D01*
X22987420Y-16977174D02*
X22996944Y-16986698D01*
X22996944Y-16986698D02*
X23006468Y-17005746D01*
X23006468Y-17005746D02*
X23006468Y-17062889D01*
X23006468Y-17062889D02*
X22996944Y-17081936D01*
X22996944Y-17081936D02*
X22987420Y-17091460D01*
X22987420Y-17091460D02*
X22968373Y-17100984D01*
X22968373Y-17100984D02*
X22930277Y-17100984D01*
X22930277Y-17100984D02*
X22911230Y-17091460D01*
X23120753Y-17100984D02*
X23101706Y-17091460D01*
X23101706Y-17091460D02*
X23092182Y-17072412D01*
X23092182Y-17072412D02*
X23092182Y-16900984D01*
X23282658Y-17100984D02*
X23282658Y-16996222D01*
X23282658Y-16996222D02*
X23273134Y-16977174D01*
X23273134Y-16977174D02*
X23254087Y-16967650D01*
X23254087Y-16967650D02*
X23215992Y-16967650D01*
X23215992Y-16967650D02*
X23196944Y-16977174D01*
X23282658Y-17091460D02*
X23263611Y-17100984D01*
X23263611Y-17100984D02*
X23215992Y-17100984D01*
X23215992Y-17100984D02*
X23196944Y-17091460D01*
X23196944Y-17091460D02*
X23187420Y-17072412D01*
X23187420Y-17072412D02*
X23187420Y-17053365D01*
X23187420Y-17053365D02*
X23196944Y-17034317D01*
X23196944Y-17034317D02*
X23215992Y-17024793D01*
X23215992Y-17024793D02*
X23263611Y-17024793D01*
X23263611Y-17024793D02*
X23282658Y-17015270D01*
X23349325Y-16967650D02*
X23425515Y-16967650D01*
X23377896Y-16900984D02*
X23377896Y-17072412D01*
X23377896Y-17072412D02*
X23387420Y-17091460D01*
X23387420Y-17091460D02*
X23406468Y-17100984D01*
X23406468Y-17100984D02*
X23425515Y-17100984D01*
X23568373Y-17091460D02*
X23549325Y-17100984D01*
X23549325Y-17100984D02*
X23511230Y-17100984D01*
X23511230Y-17100984D02*
X23492182Y-17091460D01*
X23492182Y-17091460D02*
X23482658Y-17072412D01*
X23482658Y-17072412D02*
X23482658Y-16996222D01*
X23482658Y-16996222D02*
X23492182Y-16977174D01*
X23492182Y-16977174D02*
X23511230Y-16967650D01*
X23511230Y-16967650D02*
X23549325Y-16967650D01*
X23549325Y-16967650D02*
X23568373Y-16977174D01*
X23568373Y-16977174D02*
X23577896Y-16996222D01*
X23577896Y-16996222D02*
X23577896Y-17015270D01*
X23577896Y-17015270D02*
X23482658Y-17034317D01*
X23749325Y-17100984D02*
X23749325Y-16900984D01*
X23749325Y-17091460D02*
X23730277Y-17100984D01*
X23730277Y-17100984D02*
X23692182Y-17100984D01*
X23692182Y-17100984D02*
X23673134Y-17091460D01*
X23673134Y-17091460D02*
X23663611Y-17081936D01*
X23663611Y-17081936D02*
X23654087Y-17062889D01*
X23654087Y-17062889D02*
X23654087Y-17005746D01*
X23654087Y-17005746D02*
X23663611Y-16986698D01*
X23663611Y-16986698D02*
X23673134Y-16977174D01*
X23673134Y-16977174D02*
X23692182Y-16967650D01*
X23692182Y-16967650D02*
X23730277Y-16967650D01*
X23730277Y-16967650D02*
X23749325Y-16977174D01*
X23825515Y-17177174D02*
X23835039Y-17167650D01*
X23835039Y-17167650D02*
X23854087Y-17139079D01*
X23854087Y-17139079D02*
X23863611Y-17120031D01*
X23863611Y-17120031D02*
X23873134Y-17091460D01*
X23873134Y-17091460D02*
X23882658Y-17043841D01*
X23882658Y-17043841D02*
X23882658Y-17005746D01*
X23882658Y-17005746D02*
X23873134Y-16958127D01*
X23873134Y-16958127D02*
X23863611Y-16929555D01*
X23863611Y-16929555D02*
X23854087Y-16910508D01*
X23854087Y-16910508D02*
X23835039Y-16881936D01*
X23835039Y-16881936D02*
X23825515Y-16872412D01*
D13*
X17069500Y-17273500D02*
G75*
G03*
X17069500Y-17273500I-80000J0D01*
G01*
D11*
X17435039Y-17364984D02*
X17320753Y-17364984D01*
X17377896Y-17364984D02*
X17377896Y-17164984D01*
X17377896Y-17164984D02*
X17358848Y-17193555D01*
X17358848Y-17193555D02*
X17339801Y-17212603D01*
X17339801Y-17212603D02*
X17320753Y-17222127D01*
X17520753Y-17345936D02*
X17530277Y-17355460D01*
X17530277Y-17355460D02*
X17520753Y-17364984D01*
X17520753Y-17364984D02*
X17511229Y-17355460D01*
X17511229Y-17355460D02*
X17520753Y-17345936D01*
X17520753Y-17345936D02*
X17520753Y-17364984D01*
X17701705Y-17164984D02*
X17663610Y-17164984D01*
X17663610Y-17164984D02*
X17644563Y-17174508D01*
X17644563Y-17174508D02*
X17635039Y-17184031D01*
X17635039Y-17184031D02*
X17615991Y-17212603D01*
X17615991Y-17212603D02*
X17606467Y-17250698D01*
X17606467Y-17250698D02*
X17606467Y-17326889D01*
X17606467Y-17326889D02*
X17615991Y-17345936D01*
X17615991Y-17345936D02*
X17625515Y-17355460D01*
X17625515Y-17355460D02*
X17644563Y-17364984D01*
X17644563Y-17364984D02*
X17682658Y-17364984D01*
X17682658Y-17364984D02*
X17701705Y-17355460D01*
X17701705Y-17355460D02*
X17711229Y-17345936D01*
X17711229Y-17345936D02*
X17720753Y-17326889D01*
X17720753Y-17326889D02*
X17720753Y-17279270D01*
X17720753Y-17279270D02*
X17711229Y-17260222D01*
X17711229Y-17260222D02*
X17701705Y-17250698D01*
X17701705Y-17250698D02*
X17682658Y-17241174D01*
X17682658Y-17241174D02*
X17644563Y-17241174D01*
X17644563Y-17241174D02*
X17625515Y-17250698D01*
X17625515Y-17250698D02*
X17615991Y-17260222D01*
X17615991Y-17260222D02*
X17606467Y-17279270D01*
X17844563Y-17164984D02*
X17863610Y-17164984D01*
X17863610Y-17164984D02*
X17882658Y-17174508D01*
X17882658Y-17174508D02*
X17892182Y-17184031D01*
X17892182Y-17184031D02*
X17901705Y-17203079D01*
X17901705Y-17203079D02*
X17911229Y-17241174D01*
X17911229Y-17241174D02*
X17911229Y-17288793D01*
X17911229Y-17288793D02*
X17901705Y-17326889D01*
X17901705Y-17326889D02*
X17892182Y-17345936D01*
X17892182Y-17345936D02*
X17882658Y-17355460D01*
X17882658Y-17355460D02*
X17863610Y-17364984D01*
X17863610Y-17364984D02*
X17844563Y-17364984D01*
X17844563Y-17364984D02*
X17825515Y-17355460D01*
X17825515Y-17355460D02*
X17815991Y-17345936D01*
X17815991Y-17345936D02*
X17806467Y-17326889D01*
X17806467Y-17326889D02*
X17796944Y-17288793D01*
X17796944Y-17288793D02*
X17796944Y-17241174D01*
X17796944Y-17241174D02*
X17806467Y-17203079D01*
X17806467Y-17203079D02*
X17815991Y-17184031D01*
X17815991Y-17184031D02*
X17825515Y-17174508D01*
X17825515Y-17174508D02*
X17844563Y-17164984D01*
X18035039Y-17164984D02*
X18054086Y-17164984D01*
X18054086Y-17164984D02*
X18073134Y-17174508D01*
X18073134Y-17174508D02*
X18082658Y-17184031D01*
X18082658Y-17184031D02*
X18092182Y-17203079D01*
X18092182Y-17203079D02*
X18101705Y-17241174D01*
X18101705Y-17241174D02*
X18101705Y-17288793D01*
X18101705Y-17288793D02*
X18092182Y-17326889D01*
X18092182Y-17326889D02*
X18082658Y-17345936D01*
X18082658Y-17345936D02*
X18073134Y-17355460D01*
X18073134Y-17355460D02*
X18054086Y-17364984D01*
X18054086Y-17364984D02*
X18035039Y-17364984D01*
X18035039Y-17364984D02*
X18015991Y-17355460D01*
X18015991Y-17355460D02*
X18006467Y-17345936D01*
X18006467Y-17345936D02*
X17996944Y-17326889D01*
X17996944Y-17326889D02*
X17987420Y-17288793D01*
X17987420Y-17288793D02*
X17987420Y-17241174D01*
X17987420Y-17241174D02*
X17996944Y-17203079D01*
X17996944Y-17203079D02*
X18006467Y-17184031D01*
X18006467Y-17184031D02*
X18015991Y-17174508D01*
X18015991Y-17174508D02*
X18035039Y-17164984D01*
X18187420Y-17364984D02*
X18187420Y-17231650D01*
X18187420Y-17250698D02*
X18196944Y-17241174D01*
X18196944Y-17241174D02*
X18215991Y-17231650D01*
X18215991Y-17231650D02*
X18244563Y-17231650D01*
X18244563Y-17231650D02*
X18263610Y-17241174D01*
X18263610Y-17241174D02*
X18273134Y-17260222D01*
X18273134Y-17260222D02*
X18273134Y-17364984D01*
X18273134Y-17260222D02*
X18282658Y-17241174D01*
X18282658Y-17241174D02*
X18301705Y-17231650D01*
X18301705Y-17231650D02*
X18330277Y-17231650D01*
X18330277Y-17231650D02*
X18349325Y-17241174D01*
X18349325Y-17241174D02*
X18358848Y-17260222D01*
X18358848Y-17260222D02*
X18358848Y-17364984D01*
X18454086Y-17364984D02*
X18454086Y-17231650D01*
X18454086Y-17250698D02*
X18463610Y-17241174D01*
X18463610Y-17241174D02*
X18482658Y-17231650D01*
X18482658Y-17231650D02*
X18511229Y-17231650D01*
X18511229Y-17231650D02*
X18530277Y-17241174D01*
X18530277Y-17241174D02*
X18539801Y-17260222D01*
X18539801Y-17260222D02*
X18539801Y-17364984D01*
X18539801Y-17260222D02*
X18549325Y-17241174D01*
X18549325Y-17241174D02*
X18568372Y-17231650D01*
X18568372Y-17231650D02*
X18596944Y-17231650D01*
X18596944Y-17231650D02*
X18615991Y-17241174D01*
X18615991Y-17241174D02*
X18625515Y-17260222D01*
X18625515Y-17260222D02*
X18625515Y-17364984D01*
X19015991Y-17155460D02*
X18844563Y-17412603D01*
X19273134Y-17164984D02*
X19292182Y-17164984D01*
X19292182Y-17164984D02*
X19311229Y-17174508D01*
X19311229Y-17174508D02*
X19320753Y-17184031D01*
X19320753Y-17184031D02*
X19330277Y-17203079D01*
X19330277Y-17203079D02*
X19339801Y-17241174D01*
X19339801Y-17241174D02*
X19339801Y-17288793D01*
X19339801Y-17288793D02*
X19330277Y-17326889D01*
X19330277Y-17326889D02*
X19320753Y-17345936D01*
X19320753Y-17345936D02*
X19311229Y-17355460D01*
X19311229Y-17355460D02*
X19292182Y-17364984D01*
X19292182Y-17364984D02*
X19273134Y-17364984D01*
X19273134Y-17364984D02*
X19254087Y-17355460D01*
X19254087Y-17355460D02*
X19244563Y-17345936D01*
X19244563Y-17345936D02*
X19235039Y-17326889D01*
X19235039Y-17326889D02*
X19225515Y-17288793D01*
X19225515Y-17288793D02*
X19225515Y-17241174D01*
X19225515Y-17241174D02*
X19235039Y-17203079D01*
X19235039Y-17203079D02*
X19244563Y-17184031D01*
X19244563Y-17184031D02*
X19254087Y-17174508D01*
X19254087Y-17174508D02*
X19273134Y-17164984D01*
X19425515Y-17345936D02*
X19435039Y-17355460D01*
X19435039Y-17355460D02*
X19425515Y-17364984D01*
X19425515Y-17364984D02*
X19415991Y-17355460D01*
X19415991Y-17355460D02*
X19425515Y-17345936D01*
X19425515Y-17345936D02*
X19425515Y-17364984D01*
X19558848Y-17164984D02*
X19577896Y-17164984D01*
X19577896Y-17164984D02*
X19596944Y-17174508D01*
X19596944Y-17174508D02*
X19606468Y-17184031D01*
X19606468Y-17184031D02*
X19615991Y-17203079D01*
X19615991Y-17203079D02*
X19625515Y-17241174D01*
X19625515Y-17241174D02*
X19625515Y-17288793D01*
X19625515Y-17288793D02*
X19615991Y-17326889D01*
X19615991Y-17326889D02*
X19606468Y-17345936D01*
X19606468Y-17345936D02*
X19596944Y-17355460D01*
X19596944Y-17355460D02*
X19577896Y-17364984D01*
X19577896Y-17364984D02*
X19558848Y-17364984D01*
X19558848Y-17364984D02*
X19539801Y-17355460D01*
X19539801Y-17355460D02*
X19530277Y-17345936D01*
X19530277Y-17345936D02*
X19520753Y-17326889D01*
X19520753Y-17326889D02*
X19511229Y-17288793D01*
X19511229Y-17288793D02*
X19511229Y-17241174D01*
X19511229Y-17241174D02*
X19520753Y-17203079D01*
X19520753Y-17203079D02*
X19530277Y-17184031D01*
X19530277Y-17184031D02*
X19539801Y-17174508D01*
X19539801Y-17174508D02*
X19558848Y-17164984D01*
X19796944Y-17164984D02*
X19758848Y-17164984D01*
X19758848Y-17164984D02*
X19739801Y-17174508D01*
X19739801Y-17174508D02*
X19730277Y-17184031D01*
X19730277Y-17184031D02*
X19711229Y-17212603D01*
X19711229Y-17212603D02*
X19701706Y-17250698D01*
X19701706Y-17250698D02*
X19701706Y-17326889D01*
X19701706Y-17326889D02*
X19711229Y-17345936D01*
X19711229Y-17345936D02*
X19720753Y-17355460D01*
X19720753Y-17355460D02*
X19739801Y-17364984D01*
X19739801Y-17364984D02*
X19777896Y-17364984D01*
X19777896Y-17364984D02*
X19796944Y-17355460D01*
X19796944Y-17355460D02*
X19806468Y-17345936D01*
X19806468Y-17345936D02*
X19815991Y-17326889D01*
X19815991Y-17326889D02*
X19815991Y-17279270D01*
X19815991Y-17279270D02*
X19806468Y-17260222D01*
X19806468Y-17260222D02*
X19796944Y-17250698D01*
X19796944Y-17250698D02*
X19777896Y-17241174D01*
X19777896Y-17241174D02*
X19739801Y-17241174D01*
X19739801Y-17241174D02*
X19720753Y-17250698D01*
X19720753Y-17250698D02*
X19711229Y-17260222D01*
X19711229Y-17260222D02*
X19701706Y-17279270D01*
X19882658Y-17164984D02*
X20006468Y-17164984D01*
X20006468Y-17164984D02*
X19939801Y-17241174D01*
X19939801Y-17241174D02*
X19968372Y-17241174D01*
X19968372Y-17241174D02*
X19987420Y-17250698D01*
X19987420Y-17250698D02*
X19996944Y-17260222D01*
X19996944Y-17260222D02*
X20006468Y-17279270D01*
X20006468Y-17279270D02*
X20006468Y-17326889D01*
X20006468Y-17326889D02*
X19996944Y-17345936D01*
X19996944Y-17345936D02*
X19987420Y-17355460D01*
X19987420Y-17355460D02*
X19968372Y-17364984D01*
X19968372Y-17364984D02*
X19911229Y-17364984D01*
X19911229Y-17364984D02*
X19892182Y-17355460D01*
X19892182Y-17355460D02*
X19882658Y-17345936D01*
X20130277Y-17164984D02*
X20149325Y-17164984D01*
X20149325Y-17164984D02*
X20168372Y-17174508D01*
X20168372Y-17174508D02*
X20177896Y-17184031D01*
X20177896Y-17184031D02*
X20187420Y-17203079D01*
X20187420Y-17203079D02*
X20196944Y-17241174D01*
X20196944Y-17241174D02*
X20196944Y-17288793D01*
X20196944Y-17288793D02*
X20187420Y-17326889D01*
X20187420Y-17326889D02*
X20177896Y-17345936D01*
X20177896Y-17345936D02*
X20168372Y-17355460D01*
X20168372Y-17355460D02*
X20149325Y-17364984D01*
X20149325Y-17364984D02*
X20130277Y-17364984D01*
X20130277Y-17364984D02*
X20111229Y-17355460D01*
X20111229Y-17355460D02*
X20101706Y-17345936D01*
X20101706Y-17345936D02*
X20092182Y-17326889D01*
X20092182Y-17326889D02*
X20082658Y-17288793D01*
X20082658Y-17288793D02*
X20082658Y-17241174D01*
X20082658Y-17241174D02*
X20092182Y-17203079D01*
X20092182Y-17203079D02*
X20101706Y-17184031D01*
X20101706Y-17184031D02*
X20111229Y-17174508D01*
X20111229Y-17174508D02*
X20130277Y-17164984D01*
X20273134Y-17164984D02*
X20273134Y-17203079D01*
X20349325Y-17164984D02*
X20349325Y-17203079D01*
X20644563Y-17441174D02*
X20635039Y-17431650D01*
X20635039Y-17431650D02*
X20615991Y-17403079D01*
X20615991Y-17403079D02*
X20606468Y-17384031D01*
X20606468Y-17384031D02*
X20596944Y-17355460D01*
X20596944Y-17355460D02*
X20587420Y-17307841D01*
X20587420Y-17307841D02*
X20587420Y-17269746D01*
X20587420Y-17269746D02*
X20596944Y-17222127D01*
X20596944Y-17222127D02*
X20606468Y-17193555D01*
X20606468Y-17193555D02*
X20615991Y-17174508D01*
X20615991Y-17174508D02*
X20635039Y-17145936D01*
X20635039Y-17145936D02*
X20644563Y-17136412D01*
X20825515Y-17364984D02*
X20711230Y-17364984D01*
X20768372Y-17364984D02*
X20768372Y-17164984D01*
X20768372Y-17164984D02*
X20749325Y-17193555D01*
X20749325Y-17193555D02*
X20730277Y-17212603D01*
X20730277Y-17212603D02*
X20711230Y-17222127D01*
X21063611Y-17364984D02*
X21063611Y-17164984D01*
X21149325Y-17364984D02*
X21149325Y-17260222D01*
X21149325Y-17260222D02*
X21139801Y-17241174D01*
X21139801Y-17241174D02*
X21120753Y-17231650D01*
X21120753Y-17231650D02*
X21092182Y-17231650D01*
X21092182Y-17231650D02*
X21073134Y-17241174D01*
X21073134Y-17241174D02*
X21063611Y-17250698D01*
X21273134Y-17364984D02*
X21254087Y-17355460D01*
X21254087Y-17355460D02*
X21244563Y-17345936D01*
X21244563Y-17345936D02*
X21235039Y-17326889D01*
X21235039Y-17326889D02*
X21235039Y-17269746D01*
X21235039Y-17269746D02*
X21244563Y-17250698D01*
X21244563Y-17250698D02*
X21254087Y-17241174D01*
X21254087Y-17241174D02*
X21273134Y-17231650D01*
X21273134Y-17231650D02*
X21301706Y-17231650D01*
X21301706Y-17231650D02*
X21320753Y-17241174D01*
X21320753Y-17241174D02*
X21330277Y-17250698D01*
X21330277Y-17250698D02*
X21339801Y-17269746D01*
X21339801Y-17269746D02*
X21339801Y-17326889D01*
X21339801Y-17326889D02*
X21330277Y-17345936D01*
X21330277Y-17345936D02*
X21320753Y-17355460D01*
X21320753Y-17355460D02*
X21301706Y-17364984D01*
X21301706Y-17364984D02*
X21273134Y-17364984D01*
X21454087Y-17364984D02*
X21435039Y-17355460D01*
X21435039Y-17355460D02*
X21425515Y-17336412D01*
X21425515Y-17336412D02*
X21425515Y-17164984D01*
X21606468Y-17355460D02*
X21587420Y-17364984D01*
X21587420Y-17364984D02*
X21549325Y-17364984D01*
X21549325Y-17364984D02*
X21530277Y-17355460D01*
X21530277Y-17355460D02*
X21520753Y-17336412D01*
X21520753Y-17336412D02*
X21520753Y-17260222D01*
X21520753Y-17260222D02*
X21530277Y-17241174D01*
X21530277Y-17241174D02*
X21549325Y-17231650D01*
X21549325Y-17231650D02*
X21587420Y-17231650D01*
X21587420Y-17231650D02*
X21606468Y-17241174D01*
X21606468Y-17241174D02*
X21615992Y-17260222D01*
X21615992Y-17260222D02*
X21615992Y-17279270D01*
X21615992Y-17279270D02*
X21520753Y-17298317D01*
X21682658Y-17441174D02*
X21692182Y-17431650D01*
X21692182Y-17431650D02*
X21711230Y-17403079D01*
X21711230Y-17403079D02*
X21720753Y-17384031D01*
X21720753Y-17384031D02*
X21730277Y-17355460D01*
X21730277Y-17355460D02*
X21739801Y-17307841D01*
X21739801Y-17307841D02*
X21739801Y-17269746D01*
X21739801Y-17269746D02*
X21730277Y-17222127D01*
X21730277Y-17222127D02*
X21720753Y-17193555D01*
X21720753Y-17193555D02*
X21711230Y-17174508D01*
X21711230Y-17174508D02*
X21692182Y-17145936D01*
X21692182Y-17145936D02*
X21682658Y-17136412D01*
X22044563Y-17441174D02*
X22035039Y-17431650D01*
X22035039Y-17431650D02*
X22015992Y-17403079D01*
X22015992Y-17403079D02*
X22006468Y-17384031D01*
X22006468Y-17384031D02*
X21996944Y-17355460D01*
X21996944Y-17355460D02*
X21987420Y-17307841D01*
X21987420Y-17307841D02*
X21987420Y-17269746D01*
X21987420Y-17269746D02*
X21996944Y-17222127D01*
X21996944Y-17222127D02*
X22006468Y-17193555D01*
X22006468Y-17193555D02*
X22015992Y-17174508D01*
X22015992Y-17174508D02*
X22035039Y-17145936D01*
X22035039Y-17145936D02*
X22044563Y-17136412D01*
X22120753Y-17231650D02*
X22120753Y-17364984D01*
X22120753Y-17250698D02*
X22130277Y-17241174D01*
X22130277Y-17241174D02*
X22149325Y-17231650D01*
X22149325Y-17231650D02*
X22177896Y-17231650D01*
X22177896Y-17231650D02*
X22196944Y-17241174D01*
X22196944Y-17241174D02*
X22206468Y-17260222D01*
X22206468Y-17260222D02*
X22206468Y-17364984D01*
X22330277Y-17364984D02*
X22311230Y-17355460D01*
X22311230Y-17355460D02*
X22301706Y-17345936D01*
X22301706Y-17345936D02*
X22292182Y-17326889D01*
X22292182Y-17326889D02*
X22292182Y-17269746D01*
X22292182Y-17269746D02*
X22301706Y-17250698D01*
X22301706Y-17250698D02*
X22311230Y-17241174D01*
X22311230Y-17241174D02*
X22330277Y-17231650D01*
X22330277Y-17231650D02*
X22358849Y-17231650D01*
X22358849Y-17231650D02*
X22377896Y-17241174D01*
X22377896Y-17241174D02*
X22387420Y-17250698D01*
X22387420Y-17250698D02*
X22396944Y-17269746D01*
X22396944Y-17269746D02*
X22396944Y-17326889D01*
X22396944Y-17326889D02*
X22387420Y-17345936D01*
X22387420Y-17345936D02*
X22377896Y-17355460D01*
X22377896Y-17355460D02*
X22358849Y-17364984D01*
X22358849Y-17364984D02*
X22330277Y-17364984D01*
X22454087Y-17231650D02*
X22530277Y-17231650D01*
X22482658Y-17164984D02*
X22482658Y-17336412D01*
X22482658Y-17336412D02*
X22492182Y-17355460D01*
X22492182Y-17355460D02*
X22511230Y-17364984D01*
X22511230Y-17364984D02*
X22530277Y-17364984D01*
X22749325Y-17231650D02*
X22749325Y-17431650D01*
X22749325Y-17241174D02*
X22768372Y-17231650D01*
X22768372Y-17231650D02*
X22806468Y-17231650D01*
X22806468Y-17231650D02*
X22825515Y-17241174D01*
X22825515Y-17241174D02*
X22835039Y-17250698D01*
X22835039Y-17250698D02*
X22844563Y-17269746D01*
X22844563Y-17269746D02*
X22844563Y-17326889D01*
X22844563Y-17326889D02*
X22835039Y-17345936D01*
X22835039Y-17345936D02*
X22825515Y-17355460D01*
X22825515Y-17355460D02*
X22806468Y-17364984D01*
X22806468Y-17364984D02*
X22768372Y-17364984D01*
X22768372Y-17364984D02*
X22749325Y-17355460D01*
X22958849Y-17364984D02*
X22939801Y-17355460D01*
X22939801Y-17355460D02*
X22930277Y-17336412D01*
X22930277Y-17336412D02*
X22930277Y-17164984D01*
X23120753Y-17364984D02*
X23120753Y-17260222D01*
X23120753Y-17260222D02*
X23111230Y-17241174D01*
X23111230Y-17241174D02*
X23092182Y-17231650D01*
X23092182Y-17231650D02*
X23054087Y-17231650D01*
X23054087Y-17231650D02*
X23035039Y-17241174D01*
X23120753Y-17355460D02*
X23101706Y-17364984D01*
X23101706Y-17364984D02*
X23054087Y-17364984D01*
X23054087Y-17364984D02*
X23035039Y-17355460D01*
X23035039Y-17355460D02*
X23025515Y-17336412D01*
X23025515Y-17336412D02*
X23025515Y-17317365D01*
X23025515Y-17317365D02*
X23035039Y-17298317D01*
X23035039Y-17298317D02*
X23054087Y-17288793D01*
X23054087Y-17288793D02*
X23101706Y-17288793D01*
X23101706Y-17288793D02*
X23120753Y-17279270D01*
X23187420Y-17231650D02*
X23263611Y-17231650D01*
X23215992Y-17164984D02*
X23215992Y-17336412D01*
X23215992Y-17336412D02*
X23225515Y-17355460D01*
X23225515Y-17355460D02*
X23244563Y-17364984D01*
X23244563Y-17364984D02*
X23263611Y-17364984D01*
X23406468Y-17355460D02*
X23387420Y-17364984D01*
X23387420Y-17364984D02*
X23349325Y-17364984D01*
X23349325Y-17364984D02*
X23330277Y-17355460D01*
X23330277Y-17355460D02*
X23320753Y-17336412D01*
X23320753Y-17336412D02*
X23320753Y-17260222D01*
X23320753Y-17260222D02*
X23330277Y-17241174D01*
X23330277Y-17241174D02*
X23349325Y-17231650D01*
X23349325Y-17231650D02*
X23387420Y-17231650D01*
X23387420Y-17231650D02*
X23406468Y-17241174D01*
X23406468Y-17241174D02*
X23415992Y-17260222D01*
X23415992Y-17260222D02*
X23415992Y-17279270D01*
X23415992Y-17279270D02*
X23320753Y-17298317D01*
X23587420Y-17364984D02*
X23587420Y-17164984D01*
X23587420Y-17355460D02*
X23568373Y-17364984D01*
X23568373Y-17364984D02*
X23530277Y-17364984D01*
X23530277Y-17364984D02*
X23511230Y-17355460D01*
X23511230Y-17355460D02*
X23501706Y-17345936D01*
X23501706Y-17345936D02*
X23492182Y-17326889D01*
X23492182Y-17326889D02*
X23492182Y-17269746D01*
X23492182Y-17269746D02*
X23501706Y-17250698D01*
X23501706Y-17250698D02*
X23511230Y-17241174D01*
X23511230Y-17241174D02*
X23530277Y-17231650D01*
X23530277Y-17231650D02*
X23568373Y-17231650D01*
X23568373Y-17231650D02*
X23587420Y-17241174D01*
X23663611Y-17441174D02*
X23673134Y-17431650D01*
X23673134Y-17431650D02*
X23692182Y-17403079D01*
X23692182Y-17403079D02*
X23701706Y-17384031D01*
X23701706Y-17384031D02*
X23711230Y-17355460D01*
X23711230Y-17355460D02*
X23720753Y-17307841D01*
X23720753Y-17307841D02*
X23720753Y-17269746D01*
X23720753Y-17269746D02*
X23711230Y-17222127D01*
X23711230Y-17222127D02*
X23701706Y-17193555D01*
X23701706Y-17193555D02*
X23692182Y-17174508D01*
X23692182Y-17174508D02*
X23673134Y-17145936D01*
X23673134Y-17145936D02*
X23663611Y-17136412D01*
M02*
